<svg width="312" height="200" fill="none" xmlns="http://www.w3.org/2000/svg"><g clip-path="url(#a)"><path d="M311.846 20.813c1.931-10.669-17.992-16.065-18.758-10.393l-36.322-6.714c-4.199-.736-8.307 2.453-9.134 7.082L218.758 170.48c-.858 4.813 1.901 9.381 6.161 10.178l39.602 7.664c.245.889.827 1.747 1.839 2.575 11.126 1.993 15.479-.674 17.44-4.414.675-1.012 28.138-163.586 28.046-165.67Z" fill="#4D4D4D"/><path d="m265.747 190.805-48.767-9.258c-4.444-.828-7.295-5.518-6.406-10.454L240.398 6.894c.858-4.782 5.088-8.032 9.471-7.265l47.51 8.308c4.383.766 7.295 5.303 6.467 10.086l-28.413 165.241c-.889 4.997-5.211 8.369-9.686 7.541Z" fill="#4D4D4D"/><path d="M266.942 189.763c-.306 0-.613-.061-.919-.092l-48.736-9.32c-3.801-.705-6.284-4.813-5.517-9.136L241.532 7.201c.766-4.17 4.445-7.02 8.184-6.377l47.54 8.247c.123.03.215.03.338.061 1.747.399 3.249 1.503 4.229 3.097 1.012 1.625 1.38 3.617 1.012 5.58L274.36 183.201c-.675 3.894-3.862 6.745-7.418 6.561Z" fill="#0D0D0D"/><path d="m300.23 18.176-17.932 104.08-10.482 60.732-57.747-10.884.459-2.636L243.8 7.998l56.43 10.178Z" fill="#fff"/><path d="m230.221 175.14 41.594 7.848 8.767-50.86-50.361 43.012ZM262.651 113.881c2.022-11.73-1.938-22.205-8.844-23.396-6.907-1.19-14.145 7.353-16.167 19.083-2.022 11.73 1.938 22.205 8.845 23.396 6.906 1.191 14.144-7.353 16.166-19.083Z" fill="#C1EBD9"/><path fill-rule="evenodd" clip-rule="evenodd" d="M236.545 128.821c1.995 5.283 5.243 8.563 9.064 9.222 3.821.658 7.98-1.345 11.628-5.654 3.625-4.282 6.553-10.648 7.836-18.091 1.283-7.443.655-14.421-1.327-19.67-1.995-5.283-5.243-8.563-9.064-9.222-3.821-.659-7.98 1.344-11.628 5.654-3.625 4.282-6.553 10.648-7.836 18.09-1.283 7.443-.655 14.422 1.327 19.671Zm-2.571.974c-2.184-5.783-2.816-13.27-1.464-21.112 1.351-7.841 4.453-14.684 8.448-19.402 3.97-4.69 9.021-7.48 14.191-6.588 5.171.892 8.996 5.21 11.168 10.96 2.184 5.784 2.816 13.271 1.464 21.112-1.352 7.842-4.454 14.685-8.448 19.403-3.971 4.69-9.021 7.479-14.192 6.587-5.17-.891-8.996-5.21-11.167-10.96Z" fill="#C1EBD9"/><path d="M202.329 58.858s2.667-7.695 9.747-7.91c7.081-.214 9.012 6.193 9.012 6.193 4.628-4.69 14.498-6.928 17.716 1.962 0 0 9.349-3.587 16.092 4.415 6.743 8.001 2.606 17.72-4.506 19.62-2.084 6.285-12.046 11.067-17.195 5.886-5.149-5.18-5.333-7.695-5.333-7.695s-4.23 5.243-10.36 2.576c-6.161-2.668-6.345-11.098-6.345-11.098s-10.452-3.71-8.828-13.95Z" fill="#0D0D0D"/><path d="M218.452 94.512c-1.441 2.544-14.59 19.191-20.353 20.141-2.82.46-10.176.798-16.981 1.012-2.084.061-4.107.123-5.915.153-4.383.123-7.602.154-7.602.154v-5.181c2.575-.276 5.119-.675 7.602-1.135 1.226-.214 2.452-.459 3.617-.674 6.375-1.257 12.015-2.453 15.816-1.839l11.923-18.824c4.812-7.633 15.755-.521 11.893 6.193Z" fill="#E6765C"/><path d="m207.325 84.548-3.647 7.02 13.824 6.194s7.049-8.768-1.135-14.256c-5.823-3.893-9.042 1.042-9.042 1.042Z" fill="#0386C2"/><path d="M243.862 123.636c-2.36-2.851-7.847-10.822-7.847-10.822s-20.475-2.544-25.655-7.143c-2.544-3.158-3.127-7.511-3.372-13.55a65.283 65.283 0 0 1-.061-2.484c-.276-11.557 5.609-13.458 11.218-12.446 4.353.766 8.552 3.28 9.625 4.384 1.348 1.41 16.429 16.186 16.429 16.186l7.663 3.465c4.383 6.836-.337 25.598-8 22.41Z" fill="#0386C2"/><path d="m213.67 91.109 5.149 23.606c-7.08 3.249-9.778 9.289-18.544 15.941-2.115 2.085-1.073 5.396 2.514 3.526 0 0 18.544-9.994 23.111-14.593 4.597-4.598 1.961-26.395 1.624-29.645-.858-8.615-14.498-8.921-13.854 1.165Z" fill="#FFA794"/><path d="M208.276 87.246c-.522-.797-1.227-1.931-1.993-3.157a587.923 587.923 0 0 1-4.536-7.573l6.038-5.395 1.012-.92 6.406 7.91c2.912 2.728-4.996 12.109-6.927 9.135Z" fill="#FFA794"/><path d="M206.651 84.671c-2.084-3.403-4.904-8.185-4.904-8.185l6.712-3.863c.368 1.318 1.38 6.162-1.808 12.048Z" fill="#FA876E"/><path d="m213.885 96.351 15.173-2.79s-.184-14.224-10.483-11.894c-8.184 1.839-4.69 14.684-4.69 14.684Z" fill="#0386C2"/><path d="M212.26 91.507c-3.586 3.158-4.659.123-4.751-2.513-.276-7.389 3.127-11.19 6.958-11.589 3.648-.368 2.697 9.81-2.207 14.102Z" fill="#FFA794"/><path d="M196.935 137.861s-3.985 4.598-4.353 4.292c-.398-.338 1.165-3.281 3.218-5.886 2.269-2.852 3.188-.46 1.135 1.594Z" fill="#DB8472"/><path d="M199.846 130.871s-4.291-.245-6.866 2.33c0 0-.459 1.379 1.165.981 1.625-.368 2.483-.736 2.483-.736s-3.31 8.124-3.586 8.983c-.276.827 1.624-.675 3.126-2.238.797-.675 6.039-3.311 7.111-6.653.767-2.452-3.433-2.667-3.433-2.667Z" fill="#FFA794"/><path d="M196.137 140.252h-.03c-.031-.031-.031-.061 0-.092l3.034-3.464c.031-.031.061-.031.092 0 .031.03.031.061 0 .092l-3.034 3.464h-.062Z" fill="#87584C"/><path d="M199.153 82.4c6.535-.455 11.377-7.383 10.814-15.473-.564-8.091-6.318-14.281-12.854-13.826-6.535.455-11.377 7.383-10.814 15.474.564 8.09 6.318 14.28 12.854 13.825Z" fill="#FFA88F"/><path d="M193.41 59.195c.03-.306 3.003 8.645 16.888 6.806 3.863-8.707-6.865-21.981-17.134-11.619-3.065-1.686-10.85 1.196-9.072 8.86-5.18 4.23-1.717 9.504 1.777 6.928 0 0 7.111-3.403 7.541-10.975Z" fill="#0D0D0D"/><path d="M207.694 67.595c.705 1.135 2.206 1.502 3.341.797 1.134-.705 1.501-2.207.796-3.341-.705-1.135-2.206-1.503-3.341-.797a2.41 2.41 0 0 0-.796 3.341Z" fill="#FFA88F"/><path d="M277.277 33.731c.941-5.456-2.191-10.55-6.995-11.38-4.804-.828-9.462 2.922-10.403 8.378-.941 5.456 2.191 10.55 6.995 11.38 4.804.828 9.462-2.922 10.403-8.378Z" fill="#2EB67D"/><path d="M275.248 28.048c-2.329.398-5.548 2.728-7.601 5.518-.245-1.318-1.441-2.514-2.085-2.79l-2.053 2.207c1.226.614 2.513 2.361 2.636 4.14l1.962.336c.888-1.808 3.187-6.162 7.54-8.522a3.604 3.604 0 0 0-.399-.89Z" fill="#fff"/><path d="m247.325 45.277.306 2.82 2.514.43-2.299 1.318.307 2.82-1.748-1.992-2.298 1.318 1.226-2.575-1.717-1.993 2.483.429 1.226-2.575ZM256.306 46.81l.306 2.85 2.483.43-2.299 1.318.307 2.82-1.747-2.023-2.299 1.319 1.226-2.545-1.717-2.023 2.483.429 1.257-2.575ZM265.256 48.373l.306 2.82 2.483.43-2.299 1.318.307 2.82-1.747-2.023-2.299 1.318 1.226-2.544-1.716-2.023 2.482.429 1.257-2.545ZM274.206 49.906l.307 2.82 2.482.43-2.298 1.318.306 2.82-1.716-1.992-2.33 1.318 1.257-2.575-1.747-1.993 2.482.43 1.257-2.576ZM283.156 51.439l.307 2.851 2.483.43-2.299 1.317.306 2.82-1.716-2.023-2.33 1.319 1.257-2.545-1.747-2.023 2.513.43 1.226-2.576Z" fill="#F9C900"/><path d="M181.149 115.665c-2.084.061-4.107.123-5.916.153v-6.131a79.465 79.465 0 0 0 3.066-.582l2.85 6.56Z" fill="#994E3D"/><path d="M.061 18.452C-1.349 7.692 18.82 3.277 19.28 8.948l36.597-4.966c4.23-.521 8.184 2.82 8.797 7.511L85.916 172.38c.643 4.844-2.33 9.289-6.652 9.872l-39.908 5.763c-.276.859-.92 1.687-1.961 2.484-11.188 1.471-16.828-2.361-17.594-8.216C19.249 181.271-.123 20.537.06 18.453Z" fill="#4D4D4D"/><path d="m38.07 190.437 49.164-6.928c4.475-.613 7.54-5.151 6.897-10.148L72.123 7.937C71.479 3.124 67.403-.31 63.02.242l-47.847 6.04c-4.414.551-7.54 4.935-6.927 9.779l20.567 166.406c.582 5.027 4.75 8.583 9.256 7.97Z" fill="#4D4D4D"/><path d="M36.905 189.364c.307 0 .613-.03.92-.061l49.134-6.99c3.831-.521 6.498-4.506 5.946-8.86L70.96 8.213c-.552-4.2-4.108-7.235-7.878-6.745L15.204 7.416c-.123 0-.215.03-.337.06-1.747.307-3.31 1.35-4.353 2.883-1.072 1.563-1.532 3.525-1.287 5.518l20.598 166.559c.49 3.924 3.525 6.928 7.08 6.928Z" fill="#0D0D0D"/><path d="m11.8 16.367 20.568 165.977 58.207-8.124L68.659 8.918l-56.858 7.45Z" fill="#fff"/><path d="m54.927 36.448-6.437.827-23.877-22.594 6.436-.827 23.878 22.594Z" fill="#E01E5A"/><path d="m48.49 37.275-6.406.859L18.206 15.54l6.407-.859L48.49 37.275Z" fill="#F1E3E0"/><path d="m42.084 38.134-6.406.828L11.77 16.367l6.436-.827 23.878 22.594Z" fill="#E01E5A"/><path d="m61.333 35.59-6.406.858-23.878-22.595 6.407-.858L61.332 35.59ZM74.176 33.903l-6.406.858-23.878-22.594 6.406-.858 23.878 22.594Z" fill="#F1E3E0"/><path d="m92.812 31.45-5.793.767L63.142 9.623l5.793-.767 23.877 22.595Z" fill="#E01E5A"/><path d="m87.019 32.217-6.406.858-23.878-22.594 6.406-.858L87.02 32.217Z" fill="#F1E3E0"/><path d="m67.77 34.761-6.437.828-23.877-22.594 6.436-.828L67.77 34.761ZM80.613 33.075l-6.437.828L50.3 11.31l6.437-.828 23.877 22.594ZM42.084 38.134l.52 3.893c.553 4.139-5.884 4.967-6.436.859l-.52-3.894 6.436-.858Z" fill="#E01E5A"/><path d="m48.49 37.275.521 3.894c.552 4.139-5.885 4.966-6.406.828l-.521-3.894 6.406-.828Z" fill="#F3D5DF"/><path d="m54.927 36.448.521 3.893c.552 4.139-5.885 4.966-6.437.858l-.52-3.893 6.436-.858Z" fill="#E01E5A"/><path d="m61.333 35.59.521 3.893c.552 4.138-5.885 4.966-6.406.827l-.521-3.893 6.406-.828Z" fill="#F3D5DF"/><path d="m67.77 34.761.521 3.894c.552 4.139-5.885 4.966-6.437.858l-.52-3.893 6.436-.858Z" fill="#E01E5A"/><path d="m74.176 33.903.52 3.894c.553 4.138-5.884 4.966-6.405.827l-.521-3.893 6.406-.828Z" fill="#F3D5DF"/><path d="m80.613 33.075.521 3.894c.552 4.138-5.885 4.966-6.436.858l-.522-3.893 6.437-.859Z" fill="#E01E5A"/><path d="m87.019 32.217.521 3.893c.552 4.14-5.885 4.967-6.406.828l-.521-3.893 6.406-.828Z" fill="#F3D5DF"/><path d="m92.811 31.45.521 3.894c.552 4.139-5.24 4.905-5.793.766l-.52-3.893 5.792-.766Z" fill="#E01E5A"/><path d="M35.678 38.962h.49l-21.21 2.79-3.188-25.385 23.908 22.595Z" fill="#F3D5DF"/><path d="M10.758 72.408c.92-.092 1.564-.95 1.472-1.84L7.417 29.183c-.092-.92-.95-1.563-1.839-1.471-.92.091-1.563.95-1.471 1.839l4.812 41.387c.092.92.92 1.594 1.84 1.471Z" fill="#0D0D0D"/><path d="M56.854 149.629c6.948-.917 11.319-11.226 9.762-23.026-1.556-11.801-8.45-20.624-15.399-19.707-6.948.917-11.319 11.226-9.762 23.027 1.557 11.8 8.451 20.623 15.4 19.706Z" fill="#C1EBD9"/><path fill-rule="evenodd" clip-rule="evenodd" d="M41.123 110.643c-2.188 5.166-3.091 12.114-2.104 19.601.988 7.488 3.662 13.964 7.114 18.385 3.476 4.451 7.551 6.617 11.396 6.109 3.844-.507 7.218-3.656 9.42-8.855 2.189-5.167 3.092-12.115 2.104-19.602s-3.662-13.963-7.114-18.385c-3.475-4.451-7.551-6.616-11.395-6.109-3.844.507-7.22 3.656-9.421 8.856Zm-2.53-1.076c2.396-5.659 6.39-9.823 11.59-10.509 5.202-.686 10.138 2.299 13.92 7.143 3.805 4.872 6.634 11.832 7.674 19.721 1.041 7.888.114 15.344-2.297 21.036-2.397 5.659-6.39 9.823-11.591 10.509-5.202.687-10.138-2.299-13.92-7.142-3.805-4.873-6.633-11.833-7.674-19.721-1.04-7.889-.113-15.345 2.298-21.037Z" fill="#C1EBD9"/><path d="m99.25 71.09 11.003 10.546.031 6.315s-5.732-3.587-9.931-9.626c-4.2-6.04-3.157-5.825-3.157-5.825l2.053-1.41Z" fill="#0D0D0D"/><path d="M106.084 84.487c4.751 5.856 15.387 16.616 15.387 16.616l22.805 4.936 1.103 6.346s-19.433.398-25.992-.613c-6.223-.951-22.008-9.535-27.28-13.857-9.87-8.155 2.33-27.745 13.977-13.428Z" fill="#014C4D"/><path d="m54.958 112.814-3.065 1.87c-6.13 2.851-6.038 31.975 7.08 30.013 9.073-2.514 13.763-6.836 16.736-10.822.46-2.544-14.314-21.429-20.751-21.061Z" fill="#0D0D0D"/><path d="M57.226 110.944C73.563 93.408 79.54 80.9 88.89 74.891c6.927-4.476 16.214-.092 19.985 7.358 2.298 4.568 1.9 12.232-1.441 18.425-8.43 15.696-22.406 29.614-28.69 31.147-3.157 0-19.402-10.423-21.517-20.877Z" fill="#027273"/><path d="m97.134 73.665 10.268-10.975 7.02 5.764-5.794 14.96-11.494-9.749Z" fill="#FFA794"/><path d="M125.946 66.277s-.306.705-.827 1.747c-1.165 2.33-3.372 6.285-5.671 7.511-1.011.552-3.708.184-6.743-1.042-6.835-2.76-15.356-9.964-9.808-21.184 5.609-11.343 17.348-9.044 20.628-4.016 1.839 2.82 3.586 5.058 2.881 13.244 2.973 3.617 1.012 3.801-.46 3.74Z" fill="#FFA794"/><path d="M124.015 41.475c-19.555-10.27-36.536 13.919-20.536 26.703 0 0 1.41-1.319 4.046-3.311-4.414-2.177-1.165-9.106 3.28-7.266 1.256.43 2.36 1.717 2.574 3.035 0-.03 0 .061.031.245.398-.061.828-.061.981-.122.153-8.4.919-11.435.919-11.435s6.468 2.33 9.502 2.973c8.307 1.288 12.016-13.305-.797-10.822Z" fill="#994803"/><path d="M118.437 69.802c-3.893-.306-4.076-9.81-4.076-9.81l-1.012.644c.429 5.058-.153 10.3-1.624 13.458 0 0 1.869 1.686 5.639 1.717 0 0 0 .03.031.03.429.031.736.031 1.042 0-1.686-3.74 2.238-7.173 5.916-6.376.276-.49.521-.98.736-1.41-2.422-.797-4.997.122-6.652 1.747Z" fill="#994803"/><path d="M81.134 81.82s9.839-7.572 16.92 3.25c8.245 12.6-18.76 40.405-24.736 43.532l2.973 1.809c7.08-5.12 33.41-31.515 24.061-46.353-6.13-9.718-15.08-6.07-15.08-6.07l-4.138 3.832Z" fill="#0D0D0D"/><path d="m57.87 110.361-2.912 2.453s2.697 8.369 8.705 13.458 12.046 7.603 12.046 7.603l3.034-2.054s-9.256-4.752-13.547-9.841c-4.292-5.089-7.326-11.619-7.326-11.619Z" fill="#DB6704"/><path d="m72.705 128.48 3.157-2.146 3.74 2.176-3.188 2.269-3.709-2.299Z" stroke="#DDC80A" stroke-width="2.326" stroke-miterlimit="10" stroke-linejoin="round"/><path d="M177.532 85.008h-41.287v41.295h41.287V85.008Z" fill="#DB6704"/><path d="M159.786 85.1h-5.763v9.841h5.763v-9.84Z" fill="#FF851C"/><path d="m95.755 73.573 3.525-2.452c.245 2.238 5.272 9.074 11.004 10.546l-3.004 6.07c-6.468-4.905-10.759-9.78-11.525-14.164Z" fill="#025859"/><path d="m135.663 111.25 7.847 1.349v4.262l-8.123.858.276-6.469Z" fill="#FFA794"/><path d="M141.027 113.059c.736-.613 3.126-2.514 5.486-5.089 1.227 0 1.043 1.962-.183 3.005-1.318 1.073-1.104 2.146.827 2.146 1.104 0 7.724-.399 8.123.245.368.613-6.1 1.778-6.1 1.778s5.517.797 5.548 1.257c.031.858-5.67.46-5.67.46s5.272 1.165 4.934 1.716c-.49.798-5.517.062-5.517.062s3.709 1.594 2.759 1.931c-.95.337-9.288-1.441-10.452-2.238-1.87-1.257-.491-4.66.245-5.273Z" fill="#FFA794"/><path d="M80.643 98.375c-1.961-3.066-3.188-9.504 2.912-14.501 6.56-5.365 12.23-.399 15.48 5.855 2.512 4.783 14.252 17.751 14.252 17.751l27.923 4.445.276 7.051s-25.011 3.986-34.942-.552c-8.828-3.985-21.426-13.029-25.9-20.05Z" fill="#027273"/><path d="M175.724 116.34h-10.513v8.492h10.513v-8.492Z" fill="#FFCFA6"/><path d="m138.942 111.557 2.238.368.276 7.45-1.993 1.532-.521-9.35Z" fill="#03B1B3"/><path d="m157.915 86.05-1.103-.827c-.092 0-.307-.03-.552-.061-3.28-.399-7.785-1.074-8.736-2.453a.889.889 0 0 1-.153-.828 1.44 1.44 0 0 1 .858-1.011c2.299-.828 8.276 3.525 8.797 3.893.031.03.062.03.092.061l.797 1.227Zm-9.011-4.782c-.215 0-.368.03-.521.092-.307.123-.491.337-.583.674-.03.154 0 .307.092.43.613.889 3.341 1.624 8.123 2.207-1.901-1.318-5.334-3.403-7.111-3.403Z" fill="#000"/><path d="M157.119 85.008h-.46v41.295h.46V85.008Z" fill="#fff"/><path d="M156.905 85.008s10.82-6.284 12.352-3.157c1.533 3.157-12.352 3.157-12.352 3.157Z" stroke="#000" stroke-width="1.506" stroke-miterlimit="10"/><path d="M156.905 85.008s11.586 7.818 8.797 10.883c-2.79 3.097-8.797-10.883-8.797-10.883Z" stroke="#fff" stroke-width="1.506" stroke-miterlimit="10"/><path d="M177.441 99.816h-41.196a.242.242 0 0 1-.245-.246c0-.122.092-.245.245-.245h41.196c.122 0 .245.092.245.245a.242.242 0 0 1-.245.246Z" fill="#fff"/><path d="M50.881 49.63c.276 2.115-1.011 4.047-2.88 4.292-1.87.245-3.618-1.287-3.894-3.403-.276-2.115 1.012-4.047 2.882-4.292 1.87-.245 3.616 1.257 3.892 3.403Z" fill="#2EB67D"/><path d="M49.471 47.76c-.828.399-1.747 1.656-2.176 2.913-.245-.46-.828-.767-1.104-.798l-.49 1.043c.521.092 1.195.582 1.44 1.226l.767-.092c.122-.766.46-2.636 1.808-4.016-.061-.123-.214-.276-.245-.276Z" fill="#fff"/><path d="m30.682 78.632 1.134 2.605 2.514-.306-1.809 1.931 1.134 2.606-2.268-1.41-1.808 1.931.429-2.79-2.268-1.41 2.513-.337.43-2.82ZM39.694 77.467l1.134 2.606 2.513-.338-1.839 1.932 1.134 2.605-2.238-1.41-1.808 1.962.43-2.82-2.269-1.41 2.513-.338.43-2.79ZM48.705 76.271l1.104 2.606 2.513-.337-1.809 1.931 1.135 2.606-2.238-1.38-1.808 1.932.398-2.82-2.237-1.411 2.513-.337.429-2.79ZM57.685 75.075l1.135 2.606 2.513-.337-1.808 1.962 1.134 2.606-2.238-1.41-1.808 1.931.398-2.82-2.237-1.38 2.513-.337.398-2.82ZM66.697 73.88l1.134 2.606 2.513-.338-1.808 1.962 1.134 2.606-2.237-1.41-1.809 1.931.398-2.79-2.237-1.41 2.513-.337.399-2.82Z" fill="#F9C900"/><path d="m53.732 64.744-9.471 1.257c-.184.03-.368-.092-.46-.276l-2.605-5.886a.524.524 0 0 1 0-.43.474.474 0 0 1 .337-.245l13.088-1.716c.153-.031.276.03.368.153.092.123.153.276.122.398L54.1 64.346a.457.457 0 0 1-.368.399Zm-9.257.245 8.828-1.165.858-5.395-11.893 1.563 2.207 4.997Z" fill="#0D0D0D"/><path d="m53.303 67.442-8.061 1.073a.447.447 0 0 1-.491-.399c-.03-.245.123-.49.368-.52l7.755-1.013c.52-.091.705-.52.705-.92 0-.367-.184-.704-.43-.796l1.502-9.596c.031-.215.184-.368.368-.368l2.82-.368c.245-.03.46.154.49.399.031.245-.122.49-.367.521l-2.514.337-1.379 8.921c.828 1.012.123 2.606-.766 2.729ZM48.092 69.71c.092.583-.306 1.135-.858 1.227-.552.061-1.073-.338-1.134-.95-.092-.583.307-1.135.858-1.227.521-.061 1.042.368 1.134.95ZM53.089 69.067c.092.582-.307 1.134-.859 1.226-.551.061-1.072-.337-1.134-.95-.092-.583.307-1.135.859-1.227.551-.092 1.072.338 1.134.95Z" fill="#0D0D0D"/><path d="M49.226 65.326a.446.446 0 0 1-.49-.398l-.797-6.131c-.031-.246.122-.491.367-.522.245-.03.46.154.49.399l.798 6.131c.03.246-.123.49-.368.521ZM46.805 65.664a.425.425 0 0 1-.46-.307L44.26 59.41a.49.49 0 0 1 .245-.613c.214-.092.49.03.552.276l2.084 5.947a.49.49 0 0 1-.245.613s-.031 0-.092.03ZM51.556 65.02h-.061c-.245 0-.43-.215-.43-.49v-6.224c0-.276.185-.46.43-.46s.429.215.429.49v6.224c0 .245-.153.43-.368.46Z" fill="#0D0D0D"/><path d="m54.252 61.586-11.249 1.472a.446.446 0 0 1-.49-.399c-.03-.245.123-.49.368-.52l11.249-1.472c.245-.031.46.153.49.398.03.276-.153.49-.368.521Z" fill="#0D0D0D"/><path d="M206.376 36.141c-4.444-.03-13.241-.092-29.548-.092a4.592 4.592 0 0 1-4.598-4.598v-7.787a4.592 4.592 0 0 1 4.598-4.599h29.058a4.591 4.591 0 0 1 4.597 4.599v8.4c-.03 2.268-1.87 4.077-4.107 4.077Z" fill="#E01E5A"/><path d="M180.69 27.619a1.57 1.57 0 0 1-1.563 1.563 1.57 1.57 0 0 1-1.563-1.563 1.57 1.57 0 0 1 1.563-1.564 1.57 1.57 0 0 1 1.563 1.564ZM188.844 27.619a1.57 1.57 0 0 1-1.563 1.563 1.57 1.57 0 0 1-1.564-1.563 1.57 1.57 0 0 1 1.564-1.564 1.57 1.57 0 0 1 1.563 1.564ZM196.967 27.619a1.57 1.57 0 0 1-1.564 1.563 1.57 1.57 0 0 1-1.563-1.563 1.57 1.57 0 0 1 1.563-1.564 1.57 1.57 0 0 1 1.564 1.564ZM205.119 27.619a1.57 1.57 0 0 1-1.563 1.563 1.57 1.57 0 0 1-1.563-1.563 1.57 1.57 0 0 1 1.563-1.564 1.57 1.57 0 0 1 1.563 1.564Z" fill="#fff"/><path d="M194.729 33.075v7.082l-9.012-6.806 9.012-.276Z" fill="#E01E5A"/><path d="M299.127 71.029a1.673 1.673 0 0 1-1.349-1.932l7.081-41.05a1.672 1.672 0 0 1 1.931-1.348 1.672 1.672 0 0 1 1.348 1.931l-7.08 41.05a1.672 1.672 0 0 1-1.931 1.349Z" fill="#0D0D0D"/><path d="M180.751 153.833h-44.628v21.674h44.628v-21.674Z" fill="#2EB67D"/><path d="M174.345 163.091h-31.081v3.465h31.081v-3.465Z" fill="#0E0E0E"/><path d="m175.296 187.034-22.131.215c-5.701 0-.122-22.594-5.701-22.594h22.13c5.702 0 1.196 22.379 5.702 22.379Z" fill="#fff"/><path d="M160.491 177.807c-.889 0-2.207 1.287-2.759 4.322-.889 4.997-4.567 5.151-4.567 5.151s21.64-.215 25.564-.215c2.329 0 1.501-4.752 1.808-6.898.215-1.502 1.226-2.146 1.808-2.33h-21.854v-.03Z" fill="#0E0E0E"/><path d="M186.912 200.37h-22.13c-.368-12.079-1.073-22.747-4.291-22.594.398-.307 13.149-.184 22.038-.092 4.23.031 4.383 14.623 4.383 22.686Z" fill="#fff"/><path d="M182.866 181.424h-17.134a.241.241 0 0 1-.245-.245c0-.153.123-.245.245-.245h17.134c.154 0 .246.122.246.245.03.153-.092.245-.246.245ZM183.479 183.356h-17.134a.242.242 0 0 1-.245-.246c0-.153.122-.245.245-.245h17.134c.153 0 .245.123.245.245 0 .123-.122.246-.245.246ZM183.878 185.287h-17.134a.242.242 0 0 1-.245-.245c0-.154.123-.245.245-.245h17.134c.154 0 .246.122.246.245 0 .122-.123.245-.246.245ZM184.123 187.494h-17.134a.241.241 0 0 1-.245-.245c0-.153.122-.245.245-.245h17.134c.153 0 .245.122.245.245 0 .153-.092.245-.245.245Z" fill="#0E0E0E"/></g><defs><clipPath id="a"><path fill="#fff" d="M0 0h312v200H0z"/></clipPath></defs></svg>