<svg width="226" height="200" fill="none" xmlns="http://www.w3.org/2000/svg"><g clip-path="url(#a)"><path d="M198.397 173.764h-20.006v25.819h20.006v-25.819Z" fill="#FFA305"/><path d="M198.397 199.583v-25.819h11.75l-.196 25.819h-11.554Z" fill="#DE7F04"/><path d="M188.846 173.764h-2.98v5.865h2.98v-5.865Z" fill="#FFC766"/><path d="M169.158 199.583v-25.819h9.233l-.146 25.819h-9.087ZM179.491 153.638h-14.828v20.126h14.828v-20.126Z" fill="#DE7F04"/><path d="M166.398 173.764v-20.126h-11.676l.146 20.126h11.53Z" fill="#FFA305"/><path d="M173.628 153.638h-2.32v4.59h2.32v-4.59Z" fill="#FFC766"/><path d="M204.162 153.638h-14.827v20.126h14.827v-20.126ZM189.335 173.764v-20.126h-9.942l.147 20.126h9.795Z" fill="#FFA305"/><path d="M204.162 153.638h-8.891v20.126h8.891v-20.126Z" fill="#DE7F04"/><path d="M169.622 173.764h-20.714v25.819h20.714v-25.819Z" fill="#FFA305"/><path d="M160.755 173.764h-2.98v5.865h2.98v-5.865ZM188.382 153.638h-2.32v4.59h2.32v-4.59Z" fill="#FFC766"/><path d="M190.507 133.832H175.68v20.126h14.827v-20.126Z" fill="#DE7F04"/><path d="M177.39 153.982v-20.15h-11.676l.171 20.15h11.505Z" fill="#FFA305"/><path d="M184.645 133.832h-2.321v4.59h2.321v-4.59Z" fill="#FFC766"/><path d="M156.554 9.817c-1.49-8.909-15.145-12.91-14.877-7.117l-62.533.368c-4.324.024-7.841 3.951-7.841 8.737l-.122 165.247c0 4.983 3.566 9.057 7.987 9.081l63.853.54c.391.835 1.148 1.595 2.296 2.234 7.328.147 10.846-3.485 12.116-7.584.415-1.105.635-2.332.635-3.608-.269-2.086-1.05-165.787-1.514-167.898Z" fill="#4D4D4D"/><path d="m144.609 188.98-73.282-.466c-4.568-.025-8.28-4.222-8.256-9.327L63.34 9.253c0-4.934 3.64-8.959 8.134-8.983l71.865-.246c4.519-.024 8.207 4 8.256 8.959l1.295 170.72c.048 5.154-3.665 9.326-8.281 9.277Z" fill="#4D4D4D"/><path d="M145.635 187.753c-.293.049-.611.049-.929.049l-73.257-.54c-3.932-.024-7.132-3.706-7.132-8.173L64.56 9.326c0-4.32 3.175-7.829 7.01-7.853l71.865-.32h.342c1.808.074 3.493.909 4.763 2.332 1.295 1.448 2.004 3.362 2.028 5.4l1.295 170.892c.024 4.074-2.639 7.485-6.229 7.976Z" fill="#0D0D0D"/><path d="m148.053 9.744 1.026 170.327-82.344-.491.22-169.836h81.098Z" fill="#fff"/><path d="m91.846 45.38 9.087-.074 29.239-36.151-9.135.073-29.19 36.152Z" fill="#E01E5A"/><path d="m100.933 45.306 9.087-.073L139.308 9.08l-9.136.074-29.239 36.151Z" fill="#F1E3E0"/><path d="m110.02 45.233 9.111-.074 29.313-36.152-9.136.074-29.288 36.151Z" fill="#E01E5A"/><path d="m82.76 45.478 9.086-.098 29.191-36.152-9.136.074-29.142 36.176ZM64.56 45.625l9.088-.073 29.117-36.177-9.136.074-29.068 36.176Z" fill="#F1E3E0"/><path d="m38.18 45.822 8.207-.05L75.382 9.596l-8.232.074-28.97 36.152Z" fill="#E01E5A"/><path d="m46.387 45.773 9.087-.074 29.02-36.176-9.112.073-28.995 36.177Z" fill="#F1E3E0"/><path d="m73.648 45.552 9.111-.074 29.142-36.176-9.136.073-29.117 36.177ZM55.474 45.699l9.087-.074L93.629 9.45l-9.136.074-29.019 36.176ZM110.02 45.233v5.497c0 5.841 9.087 5.768 9.087-.073v-5.498l-9.087.074Z" fill="#E01E5A"/><path d="M100.933 45.306v5.498c0 5.841 9.087 5.767 9.087-.074v-5.497l-9.087.073Z" fill="#F3D5DF"/><path d="M91.846 45.38v5.497c0 5.842 9.087 5.768 9.087-.073v-5.498l-9.087.074Z" fill="#E01E5A"/><path d="m82.76 45.478.024 5.498c.024 5.84 9.087 5.767 9.087-.074v-5.498l-9.112.074Z" fill="#F3D5DF"/><path d="m73.648 45.552.024 5.497c.025 5.841 9.112 5.768 9.087-.073l-.024-5.498-9.087.074Z" fill="#E01E5A"/><path d="m64.56 45.625.025 5.498c.025 5.841 9.112 5.767 9.087-.074l-.024-5.497-9.087.073Z" fill="#F3D5DF"/><path d="m55.474 45.699.025 5.498c.024 5.84 9.11 5.767 9.086-.074l-.024-5.498-9.087.074Z" fill="#E01E5A"/><path d="m46.387 45.773.049 5.497c.049 5.841 9.111 5.768 9.087-.074l-.025-5.497-9.11.074Z" fill="#F3D5DF"/><path d="m38.18 45.822.048 5.497c.05 5.841 8.232 5.768 8.184-.073l-.05-5.498-8.182.074Z" fill="#E01E5A"/><path d="m119.131 45.159-.708.098 30.045-.27-.024-35.98-29.313 36.152Z" fill="#F3D5DF"/><path d="m143.607 129.685-71.987-.074v-.957l71.987.098v.933ZM143.607 156.436l-71.987-.073v-.957l71.987.073v.957ZM143.607 102.344l-71.987-.098v-.786l71.987.098v.786ZM137.183 67.64l-59.016-.343c-2.125-.025-3.86-1.792-3.86-3.976 0-2.185 1.735-3.927 3.86-3.927l59.016.392c2.101.025 3.811 1.792 3.811 3.952s-1.71 3.927-3.811 3.902Zm-59.016-7.976c-1.979-.025-3.59 1.62-3.59 3.657s1.611 3.681 3.59 3.706l59.016.343c1.954 0 3.566-1.62 3.566-3.632 0-2.013-1.588-3.682-3.566-3.682l-59.016-.392Z" fill="#C1EBD9"/><path d="m137.183 59.934-6.131-.05v7.584l6.131.025c2.027 0 3.688-1.669 3.688-3.78 0-2.061-1.661-3.78-3.688-3.78Z" fill="#C1EBD9"/><path d="M134.911 64.793c-.513 0-.977-.22-1.343-.589a2.024 2.024 0 0 1 0-2.773c.366-.368.83-.565 1.343-.565s.977.221 1.344.59c.732.76.732 2.012 0 2.773-.367.368-.831.589-1.344.564Zm0-3.436c-.391 0-.757.148-1.026.442a1.532 1.532 0 0 0 0 2.11c.269.295.635.443 1.026.443s.757-.148 1.026-.442a1.532 1.532 0 0 0 0-2.111 1.365 1.365 0 0 0-1.026-.442Z" fill="#27276D"/><path d="m137.378 65.75-1.441-1.521.318-.32 1.441 1.498-.318.343Z" fill="#27276D"/><path d="M138.013 66.07a.398.398 0 0 1-.586 0l-1.221-1.252.586-.59 1.221 1.252c.171.172.171.442 0 .59Z" fill="#27276D"/><path d="m94.509 98.049-20.202-.098V77.237l20.202.122v20.69ZM118.008 98.171l-20.128-.098V77.36l20.128.123v20.69ZM140.945 98.27l-20.104-.098V77.506l20.104.123v20.64ZM94.509 125.831l-20.202-.049v-20.738l20.202.098v20.689ZM118.008 125.905l-20.128-.049v-20.714l20.128.098v20.665ZM140.945 125.979l-20.104-.049v-20.666l20.104.074v20.641ZM94.509 153.148l-20.202-.049v-20.715l20.202.049v20.715ZM118.008 153.172l-20.128-.024v-20.69l20.128.049v20.665ZM140.945 153.221l-20.104-.024v-20.69l20.104.074v20.64Z" fill="#C1EBD9"/><path d="m89.94 92.92-.439-.148c0-.024.782-3.46.855-4.761.073-1.571-.415-2.97-1.392-4.025-1.124-1.203-2.834-1.915-4.69-1.94-1.808 0-3.396.614-4.446 1.743-.977 1.056-1.441 2.48-1.344 4.148.074 1.326.733 4.639.733 4.663l-.464.099c-.024-.148-.66-3.387-.733-4.737-.097-1.792.416-3.363 1.466-4.492 1.148-1.227 2.834-1.914 4.788-1.89 1.978 0 3.81.761 5.032 2.087 1.075 1.153 1.587 2.675 1.514 4.393-.073 1.35-.83 4.712-.88 4.86Z" fill="#FD5C70"/><path d="m78.778 90.465.61 3.362c.073.369.391.614.733.59l-.855-4.762c-.342.098-.537.442-.489.81Z" fill="#FD5C70"/><path d="m80.219 94.416 1.319-.245-.88-4.761-1.319.245c-.024 0-.049 0-.073.025l.855 4.761c.049-.025.073-.025.098-.025Z" fill="#FD5C70"/><path d="M81.88 94.637a.742.742 0 0 1-.855-.613l-.782-4.32c-.073-.417.196-.81.586-.883a.741.741 0 0 1 .855.613l.782 4.32a.734.734 0 0 1-.586.883Z" fill="#fff"/><path d="m89.965 90.588-.684 3.338c-.073.368-.39.589-.757.564l.977-4.737c.342.099.537.467.464.835ZM88.426 94.466l-1.319-.295.977-4.737 1.32.295c.024 0 .048.024.073.024L88.5 94.49c0-.024-.025-.024-.074-.024Z" fill="#FD5C70"/><path d="M86.765 94.613c.391.098.806-.172.88-.59l.903-4.27a.76.76 0 0 0-.561-.908c-.391-.098-.806.172-.88.59l-.904 4.27c-.097.417.171.834.562.908ZM110.484 84.771l-.464.86-8.647-.05v7.608l13.141.05v-7.486l-.512-.982h-3.518Z" fill="#fff"/><path d="M109.458 85.998h-3.029v-1.251h3.029v1.251ZM105.428 85.974h-3.054v-1.252h3.054v1.252Z" fill="#fff"/><path d="m114.514 91.766-13.141-.05v-4.392l13.141.073v4.369Z" fill="#FD5C70"/><path d="M113.611 89.582c0 1.718-1.344 3.092-3.005 3.092-1.661 0-3.004-1.399-3.004-3.117s1.343-3.092 3.004-3.092 3.005 1.398 3.005 3.117Z" fill="#FD5C70"/><path d="M112.927 89.582c0 1.325-1.051 2.405-2.345 2.38-1.295 0-2.345-1.08-2.345-2.405 0-1.325 1.05-2.405 2.345-2.38 1.294 0 2.345 1.08 2.345 2.404Z" fill="#fff"/><path d="M111.705 89.557c0 .638-.488 1.153-1.123 1.153-.611 0-1.124-.515-1.124-1.153s.489-1.154 1.124-1.154a1.16 1.16 0 0 1 1.123 1.154Z" fill="#4489C8"/><path d="M92.237 148.828c-.098-2.086-4.739-3.387-4.739-3.387s-4.25-4.688-6.033-7.044c-3.03 1.178-3.738 2.651-3.298 5.203 1.465-1.251 3.981 1.056 7.035 5.228h7.035Z" fill="#FD5C70"/><path d="M78.167 143.576 79.168 149h.489c.147-2.454.44-5.228 2.052-4.32 0-2.184-3.542-2.184-3.542-1.104Z" fill="#FD5C70"/><path d="M85.788 108.308a3.385 3.385 0 0 1-.17-.835h-.22c0 .27-.074.54-.098.688-.147.589-.611 1.055-1.124 1.079-.537-.024-.977-.49-1.124-1.079a2.434 2.434 0 0 1-.097-.688h-.22a3.17 3.17 0 0 1-.171.835c-.22.662-.61 1.227-1.075 1.693l.366 3.387H86.545l.367-3.387a3.968 3.968 0 0 1-1.124-1.693ZM89.379 122.297c-1.002 1.031-9.258 1.105-10.504-.024.562-3.215 1.295-6.308 2.907-8.885l4.715.025c1.416 2.209 2.247 5.424 2.882 8.884Z" fill="#fff"/><path d="M84.542 114.198c-1.905 0-2.809-.834-2.858-.859-.024-.025-.024-.074 0-.098a.073.073 0 0 1 .098 0s.904.81 2.76.834c1.637 0 1.881-.662 1.881-.687 0-.049.05-.049.098-.049.049 0 .049.049.049.098-.025.025-.244.761-2.028.761Z" fill="#4489C8"/><path d="M84.347 115.499c-.049 0-.098-.025-.147-.098-.342-.442.513-1.252.611-1.35l.147-.147-.05.22c-.048.295-.243 1.277-.537 1.35.025.025 0 .025-.024.025Zm.415-1.154c-.269.295-.61.761-.44.982.025.025.025.049.05.025.097-.025.268-.516.39-1.007Z" fill="#4489C8"/><path d="M84.787 114.296v-.172c0-.049.024-1.055.415-1.399.098-.098.22-.122.366-.098.147.025.22.098.22.172.122.368-.708 1.227-.88 1.399l-.121.098Zm.708-1.521a.277.277 0 0 0-.195.073c-.245.221-.342.81-.367 1.105.342-.369.782-.908.709-1.105 0-.024-.025-.049-.123-.073h-.024Z" fill="#4489C8"/><path d="M86.203 115.352c-.024 0-.048-.025-.073-.05-.415-.883-1.27-1.104-1.294-1.128-.05 0-.05-.05-.05-.099s.05-.049.098-.049c.05 0 .929.27 1.368 1.203.025.024 0 .073-.024.098 0 .025-.025.025-.025.025Z" fill="#4489C8"/><path d="M105.623 110.541s1.417.491 3.493-.049c1.319 1.644-1.001 2.43-2.467 2.086-1.466-.368-1.026-2.037-1.026-2.037Z" fill="#fff"/><path d="M109.116 110.492c-.122.442-.342.835-.782 1.105-1.001.589-2.271-.05-2.711-1.031-.782.098-1.466.27-1.979.441v11.388l7.817.025v-11.388c-.684-.294-1.514-.466-2.345-.54Z" fill="#FD5C70"/><path d="m103.644 110.983-3.371 2.675 2.223 2.97 3.298-2.504-2.15-3.141ZM111.486 111.007l3.37 2.7-2.198 2.97-3.298-2.553 2.126-3.117ZM123.406 120.53h-.146v.687s8.427.614 11.725.049c3.322-.564 3.541-1.693 3.541-1.693v-.687h-.122l-14.998 1.644Z" fill="#FD5C70"/><path d="M138.404 119.205c-.879 1.153-3.493 1.497-6.79 1.546-1.368.025-2.834 0-4.324-.049l-3.86-.147c-.122-.958.196-2.774.465-3.755a3.38 3.38 0 0 1 .219-.663l.049-.025c.44.614 1.515.982 2.15.982 1.05-.024 2.223-.761 1.881-1.644-.049-.123-.098-.221-.122-.319-.269-.884.464-.884 1.563-.197 1.954 1.252 3.688 1.694 5.081 1.915.293.049.562.073.83.122 1.93.246 3.029.246 2.858 2.234Z" fill="#fff"/><path d="M138.282 119.205c-.879 1.153-3.493 1.497-6.791 1.546-.097-.491-.171-1.767 1.515-2.086 1.295-.246 2.027-1.08 2.394-1.694 1.954.246 3.053.246 2.882 2.234ZM127.168 120.677l-3.86-.147c-.122-.957.196-2.773.464-3.755 1.1.393 3.029 1.424 3.396 3.902ZM134.691 116.849c-.244.392-.635.417-1.001.417-3.322-.246-5.008-1.571-5.643-2.135-.269-.884.464-.884 1.563-.197 1.955 1.227 3.689 1.694 5.081 1.915Z" fill="#FD5C70"/><path d="M130.734 120.874c-1.71 0-3.42-.098-4.812-.172-1.221-.074-2.198-.123-2.589-.074h-.074l-.024-.122h.073c.416-.05 1.393 0 2.614.073 3.908.221 11.188.638 12.433-1.718l.025-.049.122.074-.024.049c-.88 1.595-4.3 1.939-7.744 1.939Z" fill="#D4E7F7"/><path d="m133.177 94.711-4.226-.025V81.459l4.226.024v13.229Z" fill="#FD5C70"/><path d="M134.643 87.913c0 2.135-1.686 3.828-3.738 3.828-2.076 0-3.737-1.742-3.737-3.877 0-2.136 1.685-3.83 3.737-3.83 2.052.025 3.738 1.743 3.738 3.879Z" fill="#fff"/><path d="M133.91 87.913c0 1.718-1.344 3.092-3.005 3.092-1.661 0-3.004-1.399-3.004-3.117s1.343-3.092 3.004-3.092 3.005 1.399 3.005 3.117Z" fill="#FD5C70"/><path d="m127.852 86.17-.489-.344.562-.834.489.344-.562.834ZM127.392 87.85l-.581.077.134 1.022.581-.077-.134-1.022ZM133.91 86.195l.488-.344-.562-.859-.464.344.538.859ZM134.227 88.943l.586.099.147-1.007-.586-.098-.147 1.006ZM130.905 88.06l-1.465-.785c-.074-.05-.098-.123-.049-.197.024-.074.122-.098.195-.049l1.319.712 1.881-1.227c.073-.05.147-.025.195.049.049.073.025.147-.048.196l-2.028 1.3Z" fill="#fff"/><path d="M100.689 146.006c.708.221 1.71.392 2.858.515a38.99 38.99 0 0 0 6.131.196c1.93-.073 3.542-.294 4.153-.711 0 0 1.294-7.854-6.303-8.05h-.268c-7.866.024-6.571 8.05-6.571 8.05Z" fill="#FD5C70"/><path d="M103.547 146.546c1.881.22 4.177.294 6.131.196 1.075-7.118-1.979-8.664-2.15-8.737h-.244c-4.03 2.282-3.835 7.387-3.737 8.541Z" fill="#fff"/><path d="M113 146.349s-2.15 3.657-12.116 2.823c-4.275-.368-.195-3.142-.195-3.142 2.687.638 7.865.957 12.311.319ZM128.511 140.189h4.593c2.613 0 4.787 2.16 4.787 4.859 0 1.08-.342 2.013-1.148 2.528l-12.091-.024c-.757-.368-1.051-1.645-.855-3.166a4.757 4.757 0 0 1 4.714-4.197Z" fill="#FD5C70"/><path d="M129.195 140.336v-.049a1.757 1.757 0 0 1 1.735-1.62c.903 0 1.661.712 1.734 1.62v.049h.586v-.098c-.098-1.227-1.124-2.184-2.32-2.184-1.197 0-2.223.957-2.321 2.16v.098l.586.024Z" fill="#FD5C70"/><path d="M130.392 147.576h-1.148v-4.565h1.148v4.565ZM132.639 147.576h-1.148v-4.565h1.148v4.565Z" fill="#fff"/><path d="M149.054 170.99H66.735v9.081h82.319v-9.081Z" fill="#C1EBD9"/><path d="M111.925 178.28h-4.959v-3.608l2.468-1.89 2.491 1.89v3.608ZM82.564 173.886h-6.156v3.289h6.156v-3.289ZM143.168 173.886h-6.156v3.289h6.156v-3.289Z" fill="#fff"/><path d="M163.613 186.624h-85.08v6.7h85.08v-6.7Z" fill="#0D0D0D"/><path d="M138.478 186.624H41.38v6.7h97.098v-6.7Z" fill="#4D4D4D"/><path d="M133.25 193.3H21.862v6.7H133.25v-6.7Z" fill="#4D4D4D"/><path d="M163.613 193.3h-39.059v6.7h39.059v-6.7Z" fill="#0D0D0D"/><path d="M77.092 123.451c-2.125 6.258-.806 19.56-3.86 28.322-4.714 13.597-2.369 19.585-4.518 30.065l4.958.368c4.617-20.591 14.925-49.748 16.196-56.375 1.27-6.602-10.773-7.51-12.776-2.38Z" fill="#014A91"/><path d="M84.909 131.108c.195 2.43 3.517 16.493 1.612 23.193-3.005 10.603-1.441 29.083-1.441 29.083l4.006-.024c3.884-17.18 9.184-42.214 8.77-58.019-.587-6.652-14.193-8.983-12.947 5.767Z" fill="#014A91"/><path d="M87.254 133.636c5.855 0 10.601-3.615 10.601-8.075 0-4.459-4.746-8.074-10.601-8.074s-10.602 3.615-10.602 8.074c0 4.46 4.747 8.075 10.602 8.075Z" fill="#014A91"/><path d="M90.65 191.974c-.416-.245-1.296-.441-1.296-.441l-.855-3.804 4.47-20.788-8.5-.81.025 20.15-.636 2.331s2.907 4.344 3.567 4.344c.66 0 3.224.049 3.64.049 0-.245-.05-.834-.416-1.031Z" fill="#A64B30"/><path d="m83.834 188.612.61 4.614h.27l2.027-4.786-2.907.172ZM74.234 191.974c-.415-.245-1.27-.441-1.27-.441l-.635-3.804 5.691-21.721-7.89-.883-1.734 21.156-.855 2.159s2.712 4.516 3.395 4.516c.66 0 3.225.049 3.64.049.025-.245.025-.834-.342-1.031Z" fill="#A64B30"/><path d="m67.566 188.44.39 4.786h.27l2.32-4.786h-2.98Z" fill="#A64B30"/><path d="M81.196 115.352c-2.663 3.19-3.933 6.405-4.421 9.473 0 0 3.444 2.651 9.648 2.675 3.127 0 9.771-.785 11.383-2.626-.195-1.693-.781-5.522-2.54-10.504-1.588-4.516-11.725-4.958-14.07.982Z" fill="#014A91"/><path d="M84.884 126.641c.635-2.11.758-4.589.758-4.589l-6.376-.565c-.22 1.62-.415 3.142-.464 4.443l2.711 2.061 3.371-1.35ZM94.264 127.034c.513-2.135.513-4.639.513-4.639l-6.4-.221c-.146 1.62-.244 3.142-.22 4.443l2.834 1.914 3.273-1.497Z" fill="#0D64B8"/><path d="M82.979 95.35s-5.496-4.075-16.44 14.111c-1.392 2.307-6.106 13.376-6.106 13.376l2.833 1.865 8.477-12.075s16.976-14.284 11.236-17.278Z" fill="#F7A58E"/><path d="M58.234 131.108c-.024 0-.024 0-.024-.024-.025-.025-.025-.074 0-.123.024-.025 3.029-3.191 2.882-4.982a1.046 1.046 0 0 0-.44-.81c-1.783-1.375-6.375 3.411-6.4 3.436-.024.024-.073.024-.121 0-.025-.025-.025-.074 0-.123.195-.196 4.714-4.909 6.62-3.461.292.221.463.54.488.933.146 1.865-2.81 4.982-2.931 5.105-.025.049-.05.049-.074.049Z" fill="#103558"/><path d="M56.671 130.028c-.024 0-.024-.024-.049-.024-.024-.025-.024-.074.025-.098.048-.025 3.835-2.725 3.859-4.345a.908.908 0 0 0-.366-.736c-1.808-1.374-7.426 2.7-7.475 2.724-.024.025-.073.025-.098-.024-.024-.025-.024-.074.025-.098.244-.172 5.764-4.173 7.67-2.725.293.221.44.516.415.859-.024 1.718-3.762 4.369-3.933 4.467h-.073Z" fill="#103558"/><path d="m49.319 124.972-16.025 19.119 5.57 3.706 13.386-20.886-2.931-1.939Z" fill="#F05B5B"/><path d="m52.934 127.378-14.12 20.395 9.136 6.086 12.385-21.573-7.401-4.908Z" fill="#E54547"/><path d="M51.492 126.396 38.4 143.183l.464 4.614 14.094-20.419-1.466-.982Z" fill="#F1696A"/><path d="m38.4 143.183-5.13.884 5.545 3.706-.415-4.59Z" fill="#F05B5B"/><path d="M55.157 129.218 41.721 150.89l6.18 2.92 10.479-23.045-3.224-1.547Z" fill="#4CC3D1"/><path d="M59.138 131.108 47.853 153.81l10.113 4.786 9.38-23.586-8.208-3.902Z" fill="#26BDC5"/><path d="m57.526 130.347-10.772 18.874 1.148 4.589 11.26-22.677-1.636-.786Z" fill="#6FCBD8"/><path d="m46.754 149.221-5.057 1.669 6.156 2.92-1.1-4.589Z" fill="#4CC3D1"/><path d="m63.388 124.506-1.026 1.816s.88.884.489 1.448c-1.1 1.227-3.81.786-4.348.295-.562-.491-1.1-1.767-.684-2.724.44-.958 2.614-2.504 2.614-2.504s2.662.589 2.955 1.669ZM89.672 99.791l-7.792.246 1.612-13.155 6.229-.197-.049 13.106Z" fill="#F7A58E"/><path d="M93.971 81.703c.66 5.252-.44 9.204-4.275 9.621-3.81.393-9.11-4.123-9.55-8.173-.416-4.05 2.32-7.632 6.155-8.025 3.81-.417 7.157 2.552 7.67 6.577Z" fill="#F7A58E"/><path d="M92.725 82.93a1.427 1.427 0 0 1-1.123 1.67 1.421 1.421 0 0 1-1.661-1.13 1.427 1.427 0 0 1 1.123-1.669 1.434 1.434 0 0 1 1.662 1.13Z" fill="#F7A58E"/><path d="M96.145 104.037c-.024 1.473-.146 12.321-.146 12.321s-9.038-.565-15.072-.663c-2.76-11.56-6.131-17.057.61-20.886 9.552-3.632 14.657 4.074 14.608 9.228Z" fill="#0386C2"/><path d="M91.211 94.147c-6.986 2.307-9.649.638-9.649.638 1.49-1.178 7.109-2.013 9.649-.638Z" fill="#F7A58E"/><path d="M65.22 134.299c-.024 0-.048-.025-.048-.074 0-.049-.977-5.522-2.834-7.903-.024-.024-.024-.073.024-.098.025-.024.074-.024.098.025 1.881 2.429 2.858 7.927 2.883 7.976 0 .049-.025.074-.074.098-.024-.024-.049-.024-.049-.024ZM60.58 132.114c-.025 0-.025 0-.025-.024-.024-.025-3.053-2.945-2.956-6.136 0-.049.05-.074.074-.074.048 0 .073.05.073.074-.098 3.117 2.858 5.989 2.907 6.013.024.025.024.074 0 .123-.025.024-.05.024-.074.024Z" fill="#103558"/><path d="M122.698 90.391c1.221-1.325 2.027-2.552 1.783-2.773-.245-.22-1.417.638-2.663 1.915-.879.907.22 1.423.88.858Z" fill="#F7A58E"/><path d="m122.233 89.14-3.004 2.43c-.928.613-2.296 1.521-3.762 2.503-2.882 1.914-6.351 3.632-8.036 4.761 0 0-5.619-2.061-11.115-3.46-4.397-1.13-8.77-1.252-9.526.76-1.54 4.148 3.273 6.283 11.065 7.584 3.957.687 8.672 1.252 10.089.417 2.613-1.521 6.326-3.926 9.648-7.412a106.204 106.204 0 0 0 2.761-2.994c.122.05.268.099.39.123 0 0 2.345-.22 2.785-1.57.391-1.498-1.172-3.044-1.295-3.142Z" fill="#F7A58E"/><path d="M98.417 95.52s.806 1.572.195 4.86a7.676 7.676 0 0 1-1.66 3.535c-3.982-.589-11.652-2.528-10.846-7.584.83-5.08 12.311-.81 12.311-.81ZM82.808 93.852s-5.667.908-9.942 6.553c2.516 4.148 6.278 6.087 6.278 6.087s6.473-4.59 7.108-8.419c.635-3.828-3.444-4.221-3.444-4.221Z" fill="#0386C2"/><path d="M95.681 78.586c.049-3.24-2.394-4.05-2.394-4.05 1.075-3.705-3.81-6.061-8.476-3.68 0 0-1.88-1.08-5.056.883-4.348 2.577-3.909 8-3.909 8-5.032 1.449-7.01 5.99-5.545 10.063 0 0-5.862 2.234-4.86 8.222 1 5.964 5.96 6.578 5.96 6.578s1.368 8.909 8.085 8.173c6.717-.737 7.035-6.234 7.035-6.234s5.496 1.939 7.89-4.173c2.394-6.11-3.42-9.473-3.42-9.473s3.518-1.596 3.469-5.424c-.05-2.454-1.417-3.976-2.394-4.761 2.223-1.228 3.59-2.332 3.615-4.124Z" fill="#0D0D0D"/><path d="m167.179 103.301.904 2.847h2.883l-2.345 1.743.903 2.822-2.345-1.743-2.32 1.743.879-2.822-2.345-1.743h2.907l.879-2.847ZM177.537 103.301l.903 2.847h2.883l-2.345 1.743.904 2.822-2.345-1.743-2.321 1.743.879-2.822-2.345-1.743h2.907l.88-2.847ZM187.894 103.301l.903 2.847h2.883l-2.345 1.743.904 2.822-2.345-1.743-2.321 1.743.879-2.822-2.32-1.743h2.882l.88-2.847ZM198.251 103.301l.904 2.847h2.882l-2.345 1.743.904 2.822-2.345-1.743-2.321 1.743.88-2.822-2.321-1.743h2.882l.88-2.847Z" fill="#FFA305"/><path d="M182.911 82.538c3.386 0 6.131-2.758 6.131-6.16 0-3.403-2.745-6.16-6.131-6.16-3.387 0-6.132 2.757-6.132 6.16 0 3.402 2.745 6.16 6.132 6.16Z" fill="#2EB67D"/><path d="M186.965 73.162c-1.538.491-3.468 2.234-4.543 4.148-.318-.785-1.295-1.374-1.759-1.472l-1.148 1.546c.904.245 2.003 1.178 2.296 2.233h1.393c.39-1.203 1.441-4.074 4.152-5.94-.097-.22-.366-.49-.391-.515Z" fill="#fff"/><path d="M188.065 93.876h-10.87a.478.478 0 0 1-.465-.343l-2.076-6.578a.479.479 0 0 1 .073-.441.51.51 0 0 1 .391-.197h15.047c.171 0 .318.074.391.197a.476.476 0 0 1 .073.441l-2.076 6.578a.531.531 0 0 1-.488.343Zm-10.504-1.006h10.162l1.758-5.571h-13.679l1.759 5.571Z" fill="#0D0D0D"/><path d="M187.185 96.65h-9.282a.497.497 0 0 1-.489-.516c0-.27.22-.515.489-.515h8.916c.61-.025.879-.442.928-.883.049-.393-.098-.786-.366-.909l3.126-9.94a.491.491 0 0 1 .464-.343h3.249c.269 0 .489.22.489.515 0 .27-.22.516-.489.516h-2.882l-2.883 9.228c.782 1.276-.244 2.847-1.27 2.847ZM180.956 98.343a1.15 1.15 0 0 1-1.148 1.154 1.15 1.15 0 0 1-1.148-1.154 1.15 1.15 0 0 1 1.148-1.153 1.15 1.15 0 0 1 1.148 1.153ZM186.721 98.343a1.15 1.15 0 0 1-1.148 1.154 1.15 1.15 0 0 1-1.148-1.154 1.15 1.15 0 0 1 1.148-1.153 1.15 1.15 0 0 1 1.148 1.153Z" fill="#0D0D0D"/><path d="M182.91 93.876a.497.497 0 0 1-.488-.515v-6.577c0-.27.22-.516.488-.516.269 0 .489.221.489.516v6.577c0 .295-.22.515-.489.515ZM180.126 93.876a.495.495 0 0 1-.489-.392l-1.465-6.578a.525.525 0 0 1 .366-.613.468.468 0 0 1 .586.368l1.466 6.577a.526.526 0 0 1-.366.614c-.025.024-.049.024-.098.024ZM185.573 93.876h-.073c-.269-.049-.464-.294-.415-.564l.952-6.577c.049-.27.293-.467.562-.418.269.05.464.295.415.565l-.952 6.577a.498.498 0 0 1-.489.417Z" fill="#0D0D0D"/><path d="M189.115 90.637h-12.946a.497.497 0 0 1-.489-.516c0-.27.22-.515.489-.515h12.946c.269 0 .489.221.489.516.024.27-.22.515-.489.515Z" fill="#0D0D0D"/><path d="M54.644 91.619c-3.542-.025-10.553-.074-23.548-.074a3.668 3.668 0 0 1-3.664-3.681V81.63a3.668 3.668 0 0 1 3.664-3.682h23.132a3.668 3.668 0 0 1 3.664 3.682v6.724c0 1.841-1.465 3.29-3.248 3.265Z" fill="#E01E5A"/><path d="M34.174 84.796c0 .687-.562 1.251-1.246 1.251a1.254 1.254 0 0 1-1.246-1.251c0-.688.562-1.252 1.246-1.252.684.025 1.246.565 1.246 1.252ZM40.671 84.796c0 .687-.562 1.251-1.246 1.251a1.254 1.254 0 0 1-1.245-1.251c0-.688.562-1.252 1.245-1.252.684.025 1.246.565 1.246 1.252ZM47.144 84.796c0 .687-.561 1.251-1.245 1.251a1.254 1.254 0 0 1-1.246-1.251c0-.688.562-1.252 1.246-1.252.684.025 1.245.565 1.245 1.252ZM53.618 84.796c0 .687-.562 1.251-1.246 1.251a1.254 1.254 0 0 1-1.246-1.251c0-.688.562-1.252 1.246-1.252.708.025 1.246.565 1.246 1.252Z" fill="#fff"/><path d="M45.361 89.189v5.67l-7.181-5.474 7.181-.196Z" fill="#E01E5A"/></g><defs><clipPath id="a"><path fill="#fff" d="M0 0h226v200H0z"/></clipPath></defs></svg>