<svg width="38" height="38" viewBox="0 0 38 38" fill="none" xmlns="http://www.w3.org/2000/svg">
<rect width="38" height="38" rx="6.33333" fill="#3830C9"/>
<path d="M12.226 22.625C12.3363 22.7308 12.4675 22.8148 12.6121 22.8721C12.7567 22.9295 12.9118 22.959 13.0684 22.959C13.225 22.959 13.3801 22.9295 13.5247 22.8721C13.6693 22.8148 13.8005 22.7308 13.9108 22.625L19.001 17.77L24.0912 22.625C24.3146 22.8376 24.6177 22.9571 24.9336 22.9571C25.2496 22.9571 25.5526 22.8376 25.7761 22.625C25.9995 22.4124 26.125 22.124 26.125 21.8234C26.125 21.5227 25.9995 21.2343 25.7761 21.0217L19.8434 15.3763C19.7331 15.2705 19.6019 15.1865 19.4573 15.1292C19.3127 15.0718 19.1576 15.0423 19.001 15.0423C18.8444 15.0423 18.6893 15.0718 18.5447 15.1292C18.4001 15.1865 18.2689 15.2705 18.1586 15.3763L12.226 21.0217C12.1148 21.1267 12.0265 21.2515 11.9663 21.3891C11.906 21.5267 11.875 21.6743 11.875 21.8234C11.875 21.9724 11.906 22.12 11.9663 22.2576C12.0265 22.3952 12.1148 22.52 12.226 22.625Z" fill="white"/>
</svg>
