<svg width="24" height="24" viewBox="0 0 24 24" fill="none" xmlns="http://www.w3.org/2000/svg">
<path d="M12.0228 15C11.9284 15.0006 11.8349 14.9816 11.7475 14.9443C11.6601 14.907 11.5807 14.8521 11.5137 14.7826L7.2109 10.2849C7.07586 10.1438 7 9.95231 7 9.75268C7 9.55306 7.07586 9.36161 7.2109 9.22046C7.34594 9.0793 7.52909 9 7.72006 9C7.91103 9 8.09418 9.0793 8.22922 9.22046L12.0228 13.1934L15.8164 9.22795C15.9536 9.10515 16.1301 9.04097 16.3106 9.04826C16.491 9.05555 16.6622 9.13376 16.79 9.26726C16.9177 9.40076 16.9925 9.57972 16.9995 9.76838C17.0064 9.95704 16.945 10.1415 16.8276 10.2849L12.5248 14.7826C12.3912 14.9211 12.2109 14.9992 12.0228 15Z" fill="#0D0D0D" fill-opacity="0.6"/>
</svg>
