<svg width="14" height="26" fill="none" xmlns="http://www.w3.org/2000/svg"><path d="M13.957 17.556c-.254 2.183-1.574 3.698-3.612 4.612-.324.156-.695.245-1.042.356-.51.179-.695.424-.695.936v1.649c0 .624-.255.846-.88.846H6.015c-.602 0-.857-.267-.88-.846-.023-.557 0-1.114-.047-1.671-.023-.379-.115-.468-.509-.535-.834-.178-1.69-.312-2.524-.557-.579-.156-1.112-.445-1.667-.69-.325-.156-.463-.424-.348-.758.232-.847.487-1.715.764-2.562.14-.401.371-.468.834-.245.973.468 1.992.824 3.08 1.025 1.065.2 2.107.267 3.15-.134 1.528-.58 1.829-2.206.578-3.253-.602-.512-1.343-.78-2.084-1.07C5.204 14.193 4 13.77 2.935 13.1c-1.042-.668-1.922-1.448-2.385-2.606-1.02-2.473.092-5.37 2.57-6.662.533-.29 1.112-.49 1.69-.713.371-.134.556-.356.556-.735 0-.535.023-1.07.023-1.604 0-.401.116-.735.58-.825h2.06c.58.067.718.446.718.936 0 .423 0 .825.023 1.248.023.445.14.58.58.668.902.223 1.782.424 2.685.646.232.067.44.156.649.268.37.178.51.468.417.869a80.18 80.18 0 0 1-.672 2.205c-.208.624-.417.713-1.042.446a8.852 8.852 0 0 0-3.937-.825c-.532 0-1.042.045-1.528.29-1.111.557-1.274 1.782-.324 2.562.602.49 1.297.78 2.014 1.092 1.112.49 2.293.891 3.335 1.493 2.2 1.314 3.288 3.23 3.01 5.703Z" fill="#F9C900"/></svg>