<svg width="110" height="44" fill="none" xmlns="http://www.w3.org/2000/svg"><path d="M14.251 9.62C6.498 9.62.037 12.9.037 22.798c0 7.84 4.344 12.779 14.414 12.779 11.853 0 12.613-7.787 12.613-7.787h-5.743s-1.232 4.193-7.22 4.193c-4.878 0-8.386-3.286-8.386-7.892h21.95v-2.89c0-4.557-2.9-11.58-13.414-11.58Zm-.2 3.694c4.643 0 7.808 2.837 7.808 7.088H5.843c0-4.513 4.13-7.088 8.208-7.088Z" fill="#E53238"/><path d="M27.66.037v30.57c0 1.735-.124 4.171-.124 4.171h5.478s.197-1.75.197-3.35c0 0 2.706 4.223 10.065 4.223 7.75 0 13.013-5.365 13.013-13.053 0-7.15-4.834-12.903-13-12.903-7.647 0-10.023 4.118-10.023 4.118V.037h-5.605Zm14.215 13.44c5.262 0 8.609 3.895 8.609 9.122 0 5.605-3.865 9.271-8.572 9.271-5.616 0-8.646-4.373-8.646-9.222 0-4.517 2.719-9.172 8.609-9.172Z" fill="#0064D2"/><path d="M69.903 9.62c-11.664 0-12.412 6.37-12.412 7.388h5.806s.304-3.719 6.206-3.719c3.835 0 6.807 1.75 6.807 5.117v1.198h-6.807c-9.037 0-13.814 2.636-13.814 7.986 0 5.265 4.414 8.13 10.38 8.13 8.129 0 10.747-4.48 10.747-4.48 0 1.782.138 3.538.138 3.538h5.162s-.2-2.177-.2-3.57V19.174c0-7.892-6.383-9.553-12.013-9.553Zm6.407 13.577v1.598c0 2.083-1.29 7.262-8.878 7.262-4.156 0-5.937-2.068-5.937-4.467 0-4.364 6-4.393 14.815-4.393Z" fill="#F5AF02"/><path d="M78.789 10.62h6.532l9.373 18.729 9.353-18.73h5.916L92.928 43.964h-6.206l4.916-9.295L78.789 10.62Z" fill="#86B817"/></svg>