<svg width="151" height="33" fill="none" xmlns="http://www.w3.org/2000/svg"><path d="M16.607 22.074c3.044 0 5.51-2.453 5.51-5.477 0-3.024-2.466-5.476-5.51-5.476-3.041 0-5.509 2.452-5.509 5.476s2.468 5.477 5.51 5.477Zm0 5.17c5.86 0 10.611-4.721 10.611-10.546 0-5.823-4.75-10.544-10.61-10.544-5.86 0-10.61 4.72-10.61 10.544-.001 5.825 4.75 10.547 10.61 10.547ZM.631 16.699C.631 7.93 7.784.822 16.607.822S32.584 7.93 32.584 16.698c0 8.77-7.154 15.878-15.977 15.878S.631 25.468.631 16.698Z" fill="#EB2D2D"/><path d="M37.772 5.303h18.204v4.565h-6.261v18.294H44.15V9.902h-6.379V5.304ZM83.392 9.903H78.29v4.563s3.981.014 4.576 0c1.6-.032 2.836-.742 2.836-2.3 0-1.691-1.05-2.263-2.309-2.263Zm-10.412-4.6h10.804c6.141 0 6.991 4.177 6.991 6.61 0 3.535-3.062 5.31-3.334 5.378 0 0 2.69.998 2.69 4.025v4.26c0 1.71 1.054 2.182 1.24 2.587h-4.389c-2.093-.236-2.058-1.893-2.041-2.84v-3.668c-.052-.896-.324-1.895-2.212-1.928h-4.44v8.436h-5.325l.016-22.86ZM114.254 5.303v22.86h16.569v-4.7h-11.159v-5.108h9.527v-4.327h-9.527V9.903h11.159v-4.6h-16.569ZM131.607 9.903h6.568v18.26h5.442V9.902h6.669v-4.6h-18.679v4.6ZM61.725 13.369l-1.956 5.9h4.033l-2.077-5.9Zm-3.083-8.07h5.904l8.043 22.864h-5.722l-1.661-4.75h-6.79l-1.566 4.75h-5.674l7.466-22.864ZM112.348 15.398h-9.884v4.446h4.695c-.01.915.136 1.828-.967 3.113-.376.437-1.662 1.418-3.457 1.418-1.514 0-2.602-.43-3.547-1.226-2.086-1.761-2.578-5.05-2.578-6.772 0-2.164.868-7.54 6.192-7.76 0 0 3.591-.23 4.527 4.074h4.984c-.101-2.181-2.654-8.308-9.511-8.318-2.366-.003-5.37.705-7.856 3.18-1.801 1.792-3.422 4.803-3.422 9.044 0 4.601 1.704 7.592 3.262 9.235 2.736 2.885 5.493 3.107 6.928 3.107 1.139 0 3.318-.168 6.142-2.062l.748 1.285h3.744V15.398ZM146.142 26.66h.286c.183 0 .319-.029.319-.224 0-.174-.186-.201-.334-.201h-.271v.425Zm-.322-.675h.612c.406 0 .637.126.637.478 0 .296-.187.41-.427.43l.433.706h-.336l-.396-.69h-.201v.69h-.322v-1.614Zm.578 1.945c.601 0 1.093-.478 1.093-1.137 0-.655-.492-1.128-1.093-1.128-.61 0-1.094.473-1.094 1.128-.001.66.483 1.137 1.094 1.137Zm0-2.575c.786 0 1.488.564 1.488 1.438 0 .879-.702 1.445-1.488 1.445-.788 0-1.49-.566-1.49-1.445 0-.874.702-1.438 1.49-1.438Z" fill="#000"/></svg>