<svg width="1364" height="1106" viewBox="0 0 1364 1106" fill="none" xmlns="http://www.w3.org/2000/svg">
<g filter="url(#filter0_d_2127_1133)">
<path fill-rule="evenodd" clip-rule="evenodd" d="M57.6303 58.1864C54 65.3113 54 74.6384 54 93.2925V1039L90.4056 1039C90.4056 1028.39 105.075 1019.79 123.171 1019.79C141.267 1019.79 155.936 1028.39 155.936 1039H185.061C185.061 1028.39 199.73 1019.79 217.826 1019.79C235.922 1019.79 250.591 1028.39 250.591 1039H279.716C279.716 1028.39 294.386 1019.79 312.481 1019.79C330.577 1019.79 345.247 1028.39 345.247 1039H374.371C374.371 1028.39 389.04 1019.79 407.136 1019.79C425.232 1019.79 439.901 1028.39 439.901 1039H469.026C469.026 1028.39 483.696 1019.79 501.791 1019.79C519.887 1019.79 534.557 1028.39 534.557 1039H563.681C563.681 1028.39 578.35 1019.79 596.446 1019.79C614.542 1019.79 629.211 1028.39 629.211 1039H658.336C658.336 1028.39 673.006 1019.79 691.101 1019.79C709.197 1019.79 723.867 1028.39 723.867 1039H752.991C752.991 1028.39 767.661 1019.79 785.757 1019.79C803.852 1019.79 818.522 1028.39 818.522 1039H847.646C847.646 1028.39 862.316 1019.79 880.411 1019.79C898.507 1019.79 913.177 1028.39 913.177 1039H942.302C942.302 1028.39 956.971 1019.79 975.067 1019.79C993.163 1019.79 1007.83 1028.39 1007.83 1039H1036.96C1036.96 1028.39 1051.63 1019.79 1069.72 1019.79C1087.82 1019.79 1102.49 1028.39 1102.49 1039H1131.61C1131.61 1028.39 1146.28 1019.79 1164.38 1019.79C1182.47 1019.79 1197.14 1028.39 1197.14 1039H1226.27C1226.27 1028.39 1240.94 1019.79 1259.03 1019.79C1277.13 1019.79 1291.8 1028.39 1291.8 1039L1310 1039V93.2926C1310 74.6384 1310 65.3113 1306.37 58.1864C1303.18 51.9191 1298.08 46.8237 1291.81 43.6303C1284.69 40 1275.36 40 1256.71 40H107.293C88.6384 40 79.3113 40 72.1864 43.6303C65.9191 46.8237 60.8237 51.9191 57.6303 58.1864Z" fill="white"/>
</g>
<defs>
<filter id="filter0_d_2127_1133" x="0.707447" y="0.0305853" width="1362.59" height="1105.59" filterUnits="userSpaceOnUse" color-interpolation-filters="sRGB">
<feFlood flood-opacity="0" result="BackgroundImageFix"/>
<feColorMatrix in="SourceAlpha" type="matrix" values="0 0 0 0 0 0 0 0 0 0 0 0 0 0 0 0 0 0 127 0" result="hardAlpha"/>
<feOffset dy="13.3231"/>
<feGaussianBlur stdDeviation="26.6463"/>
<feComposite in2="hardAlpha" operator="out"/>
<feColorMatrix type="matrix" values="0 0 0 0 0 0 0 0 0 0 0 0 0 0 0 0 0 0 0.16 0"/>
<feBlend mode="normal" in2="BackgroundImageFix" result="effect1_dropShadow_2127_1133"/>
<feBlend mode="normal" in="SourceGraphic" in2="effect1_dropShadow_2127_1133" result="shape"/>
</filter>
</defs>
</svg>
