<svg width="682" height="1068" viewBox="0 0 682 1068" fill="none" xmlns="http://www.w3.org/2000/svg">
<g filter="url(#filter0_d_102_544)">
<path fill-rule="evenodd" clip-rule="evenodd" d="M57.6303 58.1864C54 65.3113 54 74.6384 54 93.2926V1001L70.6538 1001C70.6538 990.793 77.3644 982.519 85.6423 982.519C93.9203 982.519 100.631 990.793 100.631 1001H113.954C113.954 990.793 120.665 982.519 128.943 982.519C137.221 982.519 143.931 990.793 143.931 1001H157.254C157.254 990.793 163.965 982.519 172.243 982.519C180.521 982.519 187.231 990.793 187.231 1001H200.554C200.554 990.793 207.265 982.519 215.543 982.519C223.821 982.519 230.532 990.793 230.532 1001H243.855C243.855 990.793 250.565 982.519 258.843 982.519C267.121 982.519 273.832 990.793 273.832 1001H287.155C287.155 990.793 293.865 982.519 302.143 982.519C310.421 982.519 317.132 990.793 317.132 1001H330.455C330.455 990.793 337.166 982.519 345.444 982.519C353.722 982.519 360.432 990.793 360.432 1001H373.755C373.755 990.793 380.466 982.519 388.744 982.519C397.022 982.519 403.732 990.793 403.732 1001H417.055C417.055 990.793 423.766 982.519 432.044 982.519C440.322 982.519 447.032 990.793 447.032 1001H460.356C460.356 990.793 467.066 982.519 475.344 982.519C483.622 982.519 490.333 990.793 490.333 1001H503.656C503.656 990.793 510.366 982.519 518.644 982.519C526.922 982.519 533.633 990.793 533.633 1001H546.956C546.956 990.793 553.667 982.519 561.945 982.519C570.223 982.519 576.933 990.793 576.933 1001H590.256C590.256 990.793 596.967 982.519 605.245 982.519C613.523 982.519 620.233 990.793 620.233 1001L628.56 1001V93.2925C628.56 74.6384 628.56 65.3113 624.93 58.1864C621.737 51.9191 616.641 46.8237 610.374 43.6303C603.249 40 593.922 40 575.268 40H107.293C88.6384 40 79.3113 40 72.1864 43.6303C65.9191 46.8237 60.8237 51.9191 57.6303 58.1864Z" fill="white"/>
</g>
<defs>
<filter id="filter0_d_102_544" x="0.707447" y="0.0305853" width="681.145" height="1067.59" filterUnits="userSpaceOnUse" color-interpolation-filters="sRGB">
<feFlood flood-opacity="0" result="BackgroundImageFix"/>
<feColorMatrix in="SourceAlpha" type="matrix" values="0 0 0 0 0 0 0 0 0 0 0 0 0 0 0 0 0 0 127 0" result="hardAlpha"/>
<feOffset dy="13.3231"/>
<feGaussianBlur stdDeviation="26.6463"/>
<feComposite in2="hardAlpha" operator="out"/>
<feColorMatrix type="matrix" values="0 0 0 0 0 0 0 0 0 0 0 0 0 0 0 0 0 0 0.16 0"/>
<feBlend mode="normal" in2="BackgroundImageFix" result="effect1_dropShadow_102_544"/>
<feBlend mode="normal" in="SourceGraphic" in2="effect1_dropShadow_102_544" result="shape"/>
</filter>
</defs>
</svg>
