<svg width="1164" height="444" viewBox="0 0 1164 444" fill="none" xmlns="http://www.w3.org/2000/svg">
<path d="M71 300L1164 300" stroke="black" stroke-opacity="0.1"/>
<path d="M71 240L1164 240" stroke="black" stroke-opacity="0.1"/>
<path d="M71 180L1164 180" stroke="black" stroke-opacity="0.1"/>
<path d="M71 120L1164 120" stroke="black" stroke-opacity="0.1"/>
<path d="M71 60L1164 60.0001" stroke="black" stroke-opacity="0.1"/>
<path d="M8.55844 300.273C8.55844 302.247 8.24594 303.721 7.62094 304.695C7.00115 305.669 6.05062 306.156 4.76937 306.156C3.54021 306.156 2.60531 305.659 1.96469 304.664C1.32406 303.664 1.00375 302.201 1.00375 300.273C1.00375 298.284 1.31365 296.807 1.93344 295.844C2.55323 294.88 3.49854 294.398 4.76937 294.398C6.00896 294.398 6.94906 294.901 7.58969 295.906C8.23552 296.911 8.55844 298.367 8.55844 300.273ZM2.31625 300.273C2.31625 301.935 2.51156 303.146 2.90219 303.906C3.29281 304.661 3.91521 305.039 4.76937 305.039C5.63396 305.039 6.25896 304.656 6.64437 303.891C7.035 303.12 7.23031 301.914 7.23031 300.273C7.23031 298.633 7.035 297.432 6.64437 296.672C6.25896 295.906 5.63396 295.523 4.76937 295.523C3.91521 295.523 3.29281 295.901 2.90219 296.656C2.51156 297.406 2.31625 298.612 2.31625 300.273ZM17.6347 300.273C17.6347 302.247 17.3222 303.721 16.6972 304.695C16.0774 305.669 15.1269 306.156 13.8456 306.156C12.6165 306.156 11.6816 305.659 11.0409 304.664C10.4003 303.664 10.08 302.201 10.08 300.273C10.08 298.284 10.3899 296.807 11.0097 295.844C11.6295 294.88 12.5748 294.398 13.8456 294.398C15.0852 294.398 16.0253 294.901 16.6659 295.906C17.3118 296.911 17.6347 298.367 17.6347 300.273ZM11.3925 300.273C11.3925 301.935 11.5878 303.146 11.9784 303.906C12.3691 304.661 12.9915 305.039 13.8456 305.039C14.7102 305.039 15.3352 304.656 15.7206 303.891C16.1112 303.12 16.3066 301.914 16.3066 300.273C16.3066 298.633 16.1112 297.432 15.7206 296.672C15.3352 295.906 14.7102 295.523 13.8456 295.523C12.9915 295.523 12.3691 295.901 11.9784 296.656C11.5878 297.406 11.3925 298.612 11.3925 300.273ZM19.5469 305.172C19.5469 304.823 19.625 304.56 19.7812 304.383C19.9427 304.201 20.1719 304.109 20.4688 304.109C20.7708 304.109 21.0052 304.201 21.1719 304.383C21.3438 304.56 21.4297 304.823 21.4297 305.172C21.4297 305.51 21.3438 305.771 21.1719 305.953C21 306.135 20.7656 306.227 20.4688 306.227C20.2031 306.227 19.9818 306.146 19.8047 305.984C19.6328 305.818 19.5469 305.547 19.5469 305.172ZM30.8966 300.273C30.8966 302.247 30.5841 303.721 29.9591 304.695C29.3393 305.669 28.3888 306.156 27.1075 306.156C25.8783 306.156 24.9434 305.659 24.3028 304.664C23.6622 303.664 23.3419 302.201 23.3419 300.273C23.3419 298.284 23.6518 296.807 24.2716 295.844C24.8914 294.88 25.8367 294.398 27.1075 294.398C28.3471 294.398 29.2872 294.901 29.9278 295.906C30.5736 296.911 30.8966 298.367 30.8966 300.273ZM24.6544 300.273C24.6544 301.935 24.8497 303.146 25.2403 303.906C25.6309 304.661 26.2533 305.039 27.1075 305.039C27.9721 305.039 28.5971 304.656 28.9825 303.891C29.3731 303.12 29.5684 301.914 29.5684 300.273C29.5684 298.633 29.3731 297.432 28.9825 296.672C28.5971 295.906 27.9721 295.523 27.1075 295.523C26.2533 295.523 25.6309 295.901 25.2403 296.656C24.8497 297.406 24.6544 298.612 24.6544 300.273ZM33.5119 297.984C33.5119 298.87 33.6082 299.534 33.8009 299.977C33.9936 300.419 34.3061 300.641 34.7384 300.641C35.5926 300.641 36.0197 299.755 36.0197 297.984C36.0197 296.224 35.5926 295.344 34.7384 295.344C34.3061 295.344 33.9936 295.562 33.8009 296C33.6082 296.438 33.5119 297.099 33.5119 297.984ZM37.09 297.984C37.09 299.172 36.8895 300.07 36.4884 300.68C36.0926 301.284 35.5093 301.586 34.7384 301.586C34.0093 301.586 33.4416 301.276 33.0353 300.656C32.6343 300.036 32.4338 299.146 32.4338 297.984C32.4338 296.802 32.6265 295.911 33.0119 295.312C33.4025 294.714 33.978 294.414 34.7384 294.414C35.4936 294.414 36.0744 294.724 36.4806 295.344C36.8869 295.964 37.09 296.844 37.09 297.984ZM40.3869 302.562C40.3869 303.453 40.4832 304.12 40.6759 304.562C40.8686 305 41.1838 305.219 41.6213 305.219C42.0588 305.219 42.3817 305.003 42.59 304.57C42.7983 304.133 42.9025 303.464 42.9025 302.562C42.9025 301.672 42.7983 301.013 42.59 300.586C42.3817 300.154 42.0588 299.938 41.6213 299.938C41.1838 299.938 40.8686 300.154 40.6759 300.586C40.4832 301.013 40.3869 301.672 40.3869 302.562ZM43.9728 302.562C43.9728 303.745 43.7723 304.641 43.3713 305.25C42.9754 305.854 42.3921 306.156 41.6213 306.156C40.8817 306.156 40.3114 305.846 39.9103 305.227C39.5145 304.607 39.3166 303.719 39.3166 302.562C39.3166 301.38 39.5093 300.49 39.8947 299.891C40.2853 299.292 40.8608 298.992 41.6213 298.992C42.3608 298.992 42.9364 299.299 43.3478 299.914C43.7645 300.523 43.9728 301.406 43.9728 302.562ZM41.9572 294.578L35.6213 306H34.4728L40.8088 294.578H41.9572Z" fill="black"/>
<path d="M8.55844 240.273C8.55844 242.247 8.24594 243.721 7.62094 244.695C7.00115 245.669 6.05062 246.156 4.76937 246.156C3.54021 246.156 2.60531 245.659 1.96469 244.664C1.32406 243.664 1.00375 242.201 1.00375 240.273C1.00375 238.284 1.31365 236.807 1.93344 235.844C2.55323 234.88 3.49854 234.398 4.76937 234.398C6.00896 234.398 6.94906 234.901 7.58969 235.906C8.23552 236.911 8.55844 238.367 8.55844 240.273ZM2.31625 240.273C2.31625 241.935 2.51156 243.146 2.90219 243.906C3.29281 244.661 3.91521 245.039 4.76937 245.039C5.63396 245.039 6.25896 244.656 6.64437 243.891C7.035 243.12 7.23031 241.914 7.23031 240.273C7.23031 238.633 7.035 237.432 6.64437 236.672C6.25896 235.906 5.63396 235.523 4.76937 235.523C3.91521 235.523 3.29281 235.901 2.90219 236.656C2.51156 237.406 2.31625 238.612 2.31625 240.273ZM14.8691 246H13.6034V237.859C13.6034 237.182 13.6243 236.542 13.6659 235.938C13.5566 236.047 13.4342 236.161 13.2987 236.281C13.1633 236.401 12.5435 236.909 11.4394 237.805L10.7519 236.914L13.7753 234.578H14.8691V246ZM19.5469 245.172C19.5469 244.823 19.625 244.56 19.7812 244.383C19.9427 244.201 20.1719 244.109 20.4688 244.109C20.7708 244.109 21.0052 244.201 21.1719 244.383C21.3438 244.56 21.4297 244.823 21.4297 245.172C21.4297 245.51 21.3438 245.771 21.1719 245.953C21 246.135 20.7656 246.227 20.4688 246.227C20.2031 246.227 19.9818 246.146 19.8047 245.984C19.6328 245.818 19.5469 245.547 19.5469 245.172ZM30.8966 240.273C30.8966 242.247 30.5841 243.721 29.9591 244.695C29.3393 245.669 28.3888 246.156 27.1075 246.156C25.8783 246.156 24.9434 245.659 24.3028 244.664C23.6622 243.664 23.3419 242.201 23.3419 240.273C23.3419 238.284 23.6518 236.807 24.2716 235.844C24.8914 234.88 25.8367 234.398 27.1075 234.398C28.3471 234.398 29.2872 234.901 29.9278 235.906C30.5736 236.911 30.8966 238.367 30.8966 240.273ZM24.6544 240.273C24.6544 241.935 24.8497 243.146 25.2403 243.906C25.6309 244.661 26.2533 245.039 27.1075 245.039C27.9721 245.039 28.5971 244.656 28.9825 243.891C29.3731 243.12 29.5684 241.914 29.5684 240.273C29.5684 238.633 29.3731 237.432 28.9825 236.672C28.5971 235.906 27.9721 235.523 27.1075 235.523C26.2533 235.523 25.6309 235.901 25.2403 236.656C24.8497 237.406 24.6544 238.612 24.6544 240.273ZM33.5119 237.984C33.5119 238.87 33.6082 239.534 33.8009 239.977C33.9936 240.419 34.3061 240.641 34.7384 240.641C35.5926 240.641 36.0197 239.755 36.0197 237.984C36.0197 236.224 35.5926 235.344 34.7384 235.344C34.3061 235.344 33.9936 235.562 33.8009 236C33.6082 236.438 33.5119 237.099 33.5119 237.984ZM37.09 237.984C37.09 239.172 36.8895 240.07 36.4884 240.68C36.0926 241.284 35.5093 241.586 34.7384 241.586C34.0093 241.586 33.4416 241.276 33.0353 240.656C32.6343 240.036 32.4338 239.146 32.4338 237.984C32.4338 236.802 32.6265 235.911 33.0119 235.312C33.4025 234.714 33.978 234.414 34.7384 234.414C35.4936 234.414 36.0744 234.724 36.4806 235.344C36.8869 235.964 37.09 236.844 37.09 237.984ZM40.3869 242.562C40.3869 243.453 40.4832 244.12 40.6759 244.562C40.8686 245 41.1838 245.219 41.6213 245.219C42.0588 245.219 42.3817 245.003 42.59 244.57C42.7983 244.133 42.9025 243.464 42.9025 242.562C42.9025 241.672 42.7983 241.013 42.59 240.586C42.3817 240.154 42.0588 239.938 41.6213 239.938C41.1838 239.938 40.8686 240.154 40.6759 240.586C40.4832 241.013 40.3869 241.672 40.3869 242.562ZM43.9728 242.562C43.9728 243.745 43.7723 244.641 43.3713 245.25C42.9754 245.854 42.3921 246.156 41.6213 246.156C40.8817 246.156 40.3114 245.846 39.9103 245.227C39.5145 244.607 39.3166 243.719 39.3166 242.562C39.3166 241.38 39.5093 240.49 39.8947 239.891C40.2853 239.292 40.8608 238.992 41.6213 238.992C42.3608 238.992 42.9364 239.299 43.3478 239.914C43.7645 240.523 43.9728 241.406 43.9728 242.562ZM41.9572 234.578L35.6213 246H34.4728L40.8088 234.578H41.9572Z" fill="black"/>
<path d="M8.55844 180.273C8.55844 182.247 8.24594 183.721 7.62094 184.695C7.00115 185.669 6.05062 186.156 4.76937 186.156C3.54021 186.156 2.60531 185.659 1.96469 184.664C1.32406 183.664 1.00375 182.201 1.00375 180.273C1.00375 178.284 1.31365 176.807 1.93344 175.844C2.55323 174.88 3.49854 174.398 4.76937 174.398C6.00896 174.398 6.94906 174.901 7.58969 175.906C8.23552 176.911 8.55844 178.367 8.55844 180.273ZM2.31625 180.273C2.31625 181.935 2.51156 183.146 2.90219 183.906C3.29281 184.661 3.91521 185.039 4.76937 185.039C5.63396 185.039 6.25896 184.656 6.64437 183.891C7.035 183.12 7.23031 181.914 7.23031 180.273C7.23031 178.633 7.035 177.432 6.64437 176.672C6.25896 175.906 5.63396 175.523 4.76937 175.523C3.91521 175.523 3.29281 175.901 2.90219 176.656C2.51156 177.406 2.31625 178.612 2.31625 180.273ZM17.5722 186H10.0644V184.883L13.0722 181.859C13.9889 180.932 14.593 180.271 14.8847 179.875C15.1764 179.479 15.3951 179.094 15.5409 178.719C15.6868 178.344 15.7597 177.94 15.7597 177.508C15.7597 176.898 15.5748 176.417 15.205 176.062C14.8352 175.703 14.3222 175.523 13.6659 175.523C13.192 175.523 12.7415 175.602 12.3144 175.758C11.8925 175.914 11.4211 176.198 10.9003 176.609L10.2128 175.727C11.2649 174.852 12.4107 174.414 13.6503 174.414C14.7232 174.414 15.5644 174.69 16.1737 175.242C16.7831 175.789 17.0878 176.526 17.0878 177.453C17.0878 178.177 16.8847 178.893 16.4784 179.602C16.0722 180.31 15.3118 181.206 14.1972 182.289L11.6972 184.734V184.797H17.5722V186ZM19.5469 185.172C19.5469 184.823 19.625 184.56 19.7812 184.383C19.9427 184.201 20.1719 184.109 20.4688 184.109C20.7708 184.109 21.0052 184.201 21.1719 184.383C21.3438 184.56 21.4297 184.823 21.4297 185.172C21.4297 185.51 21.3438 185.771 21.1719 185.953C21 186.135 20.7656 186.227 20.4688 186.227C20.2031 186.227 19.9818 186.146 19.8047 185.984C19.6328 185.818 19.5469 185.547 19.5469 185.172ZM30.8966 180.273C30.8966 182.247 30.5841 183.721 29.9591 184.695C29.3393 185.669 28.3888 186.156 27.1075 186.156C25.8783 186.156 24.9434 185.659 24.3028 184.664C23.6622 183.664 23.3419 182.201 23.3419 180.273C23.3419 178.284 23.6518 176.807 24.2716 175.844C24.8914 174.88 25.8367 174.398 27.1075 174.398C28.3471 174.398 29.2872 174.901 29.9278 175.906C30.5736 176.911 30.8966 178.367 30.8966 180.273ZM24.6544 180.273C24.6544 181.935 24.8497 183.146 25.2403 183.906C25.6309 184.661 26.2533 185.039 27.1075 185.039C27.9721 185.039 28.5971 184.656 28.9825 183.891C29.3731 183.12 29.5684 181.914 29.5684 180.273C29.5684 178.633 29.3731 177.432 28.9825 176.672C28.5971 175.906 27.9721 175.523 27.1075 175.523C26.2533 175.523 25.6309 175.901 25.2403 176.656C24.8497 177.406 24.6544 178.612 24.6544 180.273ZM33.5119 177.984C33.5119 178.87 33.6082 179.534 33.8009 179.977C33.9936 180.419 34.3061 180.641 34.7384 180.641C35.5926 180.641 36.0197 179.755 36.0197 177.984C36.0197 176.224 35.5926 175.344 34.7384 175.344C34.3061 175.344 33.9936 175.562 33.8009 176C33.6082 176.438 33.5119 177.099 33.5119 177.984ZM37.09 177.984C37.09 179.172 36.8895 180.07 36.4884 180.68C36.0926 181.284 35.5093 181.586 34.7384 181.586C34.0093 181.586 33.4416 181.276 33.0353 180.656C32.6343 180.036 32.4338 179.146 32.4338 177.984C32.4338 176.802 32.6265 175.911 33.0119 175.312C33.4025 174.714 33.978 174.414 34.7384 174.414C35.4936 174.414 36.0744 174.724 36.4806 175.344C36.8869 175.964 37.09 176.844 37.09 177.984ZM40.3869 182.562C40.3869 183.453 40.4832 184.12 40.6759 184.562C40.8686 185 41.1838 185.219 41.6213 185.219C42.0588 185.219 42.3817 185.003 42.59 184.57C42.7983 184.133 42.9025 183.464 42.9025 182.562C42.9025 181.672 42.7983 181.013 42.59 180.586C42.3817 180.154 42.0588 179.938 41.6213 179.938C41.1838 179.938 40.8686 180.154 40.6759 180.586C40.4832 181.013 40.3869 181.672 40.3869 182.562ZM43.9728 182.562C43.9728 183.745 43.7723 184.641 43.3713 185.25C42.9754 185.854 42.3921 186.156 41.6213 186.156C40.8817 186.156 40.3114 185.846 39.9103 185.227C39.5145 184.607 39.3166 183.719 39.3166 182.562C39.3166 181.38 39.5093 180.49 39.8947 179.891C40.2853 179.292 40.8608 178.992 41.6213 178.992C42.3608 178.992 42.9364 179.299 43.3478 179.914C43.7645 180.523 43.9728 181.406 43.9728 182.562ZM41.9572 174.578L35.6213 186H34.4728L40.8088 174.578H41.9572Z" fill="black"/>
<path d="M8.55844 120.273C8.55844 122.247 8.24594 123.721 7.62094 124.695C7.00115 125.669 6.05062 126.156 4.76937 126.156C3.54021 126.156 2.60531 125.659 1.96469 124.664C1.32406 123.664 1.00375 122.201 1.00375 120.273C1.00375 118.284 1.31365 116.807 1.93344 115.844C2.55323 114.88 3.49854 114.398 4.76937 114.398C6.00896 114.398 6.94906 114.901 7.58969 115.906C8.23552 116.911 8.55844 118.367 8.55844 120.273ZM2.31625 120.273C2.31625 121.935 2.51156 123.146 2.90219 123.906C3.29281 124.661 3.91521 125.039 4.76937 125.039C5.63396 125.039 6.25896 124.656 6.64437 123.891C7.035 123.12 7.23031 121.914 7.23031 120.273C7.23031 118.633 7.035 117.432 6.64437 116.672C6.25896 115.906 5.63396 115.523 4.76937 115.523C3.91521 115.523 3.29281 115.901 2.90219 116.656C2.51156 117.406 2.31625 118.612 2.31625 120.273ZM17.1425 117.266C17.1425 117.995 16.9368 118.591 16.5253 119.055C16.1191 119.518 15.5409 119.828 14.7909 119.984V120.047C15.7076 120.161 16.3873 120.453 16.83 120.922C17.2727 121.391 17.4941 122.005 17.4941 122.766C17.4941 123.854 17.1165 124.693 16.3612 125.281C15.606 125.865 14.5331 126.156 13.1425 126.156C12.5383 126.156 11.9836 126.109 11.4784 126.016C10.9784 125.927 10.4915 125.768 10.0175 125.539V124.305C10.5123 124.549 11.0383 124.737 11.5956 124.867C12.1581 124.992 12.6894 125.055 13.1894 125.055C15.1633 125.055 16.1503 124.281 16.1503 122.734C16.1503 121.349 15.0618 120.656 12.8847 120.656H11.7597V119.539H12.9003C13.7909 119.539 14.4967 119.344 15.0175 118.953C15.5383 118.557 15.7987 118.01 15.7987 117.312C15.7987 116.755 15.606 116.318 15.2206 116C14.8404 115.682 14.3222 115.523 13.6659 115.523C13.1659 115.523 12.6946 115.591 12.2519 115.727C11.8092 115.862 11.304 116.112 10.7362 116.477L10.08 115.602C10.5487 115.232 11.0878 114.943 11.6972 114.734C12.3118 114.521 12.9576 114.414 13.6347 114.414C14.7441 114.414 15.606 114.669 16.2206 115.18C16.8352 115.685 17.1425 116.38 17.1425 117.266ZM19.5469 125.172C19.5469 124.823 19.625 124.56 19.7812 124.383C19.9427 124.201 20.1719 124.109 20.4688 124.109C20.7708 124.109 21.0052 124.201 21.1719 124.383C21.3438 124.56 21.4297 124.823 21.4297 125.172C21.4297 125.51 21.3438 125.771 21.1719 125.953C21 126.135 20.7656 126.227 20.4688 126.227C20.2031 126.227 19.9818 126.146 19.8047 125.984C19.6328 125.818 19.5469 125.547 19.5469 125.172ZM30.8966 120.273C30.8966 122.247 30.5841 123.721 29.9591 124.695C29.3393 125.669 28.3888 126.156 27.1075 126.156C25.8783 126.156 24.9434 125.659 24.3028 124.664C23.6622 123.664 23.3419 122.201 23.3419 120.273C23.3419 118.284 23.6518 116.807 24.2716 115.844C24.8914 114.88 25.8367 114.398 27.1075 114.398C28.3471 114.398 29.2872 114.901 29.9278 115.906C30.5736 116.911 30.8966 118.367 30.8966 120.273ZM24.6544 120.273C24.6544 121.935 24.8497 123.146 25.2403 123.906C25.6309 124.661 26.2533 125.039 27.1075 125.039C27.9721 125.039 28.5971 124.656 28.9825 123.891C29.3731 123.12 29.5684 121.914 29.5684 120.273C29.5684 118.633 29.3731 117.432 28.9825 116.672C28.5971 115.906 27.9721 115.523 27.1075 115.523C26.2533 115.523 25.6309 115.901 25.2403 116.656C24.8497 117.406 24.6544 118.612 24.6544 120.273ZM33.5119 117.984C33.5119 118.87 33.6082 119.534 33.8009 119.977C33.9936 120.419 34.3061 120.641 34.7384 120.641C35.5926 120.641 36.0197 119.755 36.0197 117.984C36.0197 116.224 35.5926 115.344 34.7384 115.344C34.3061 115.344 33.9936 115.562 33.8009 116C33.6082 116.438 33.5119 117.099 33.5119 117.984ZM37.09 117.984C37.09 119.172 36.8895 120.07 36.4884 120.68C36.0926 121.284 35.5093 121.586 34.7384 121.586C34.0093 121.586 33.4416 121.276 33.0353 120.656C32.6343 120.036 32.4338 119.146 32.4338 117.984C32.4338 116.802 32.6265 115.911 33.0119 115.312C33.4025 114.714 33.978 114.414 34.7384 114.414C35.4936 114.414 36.0744 114.724 36.4806 115.344C36.8869 115.964 37.09 116.844 37.09 117.984ZM40.3869 122.562C40.3869 123.453 40.4832 124.12 40.6759 124.562C40.8686 125 41.1838 125.219 41.6213 125.219C42.0588 125.219 42.3817 125.003 42.59 124.57C42.7983 124.133 42.9025 123.464 42.9025 122.562C42.9025 121.672 42.7983 121.013 42.59 120.586C42.3817 120.154 42.0588 119.938 41.6213 119.938C41.1838 119.938 40.8686 120.154 40.6759 120.586C40.4832 121.013 40.3869 121.672 40.3869 122.562ZM43.9728 122.562C43.9728 123.745 43.7723 124.641 43.3713 125.25C42.9754 125.854 42.3921 126.156 41.6213 126.156C40.8817 126.156 40.3114 125.846 39.9103 125.227C39.5145 124.607 39.3166 123.719 39.3166 122.562C39.3166 121.38 39.5093 120.49 39.8947 119.891C40.2853 119.292 40.8608 118.992 41.6213 118.992C42.3608 118.992 42.9364 119.299 43.3478 119.914C43.7645 120.523 43.9728 121.406 43.9728 122.562ZM41.9572 114.578L35.6213 126H34.4728L40.8088 114.578H41.9572Z" fill="black"/>
<path d="M8.55844 60.2734C8.55844 62.2474 8.24594 63.7214 7.62094 64.6953C7.00115 65.6693 6.05062 66.1562 4.76937 66.1562C3.54021 66.1562 2.60531 65.6589 1.96469 64.6641C1.32406 63.6641 1.00375 62.2005 1.00375 60.2734C1.00375 58.2839 1.31365 56.8073 1.93344 55.8438C2.55323 54.8802 3.49854 54.3984 4.76937 54.3984C6.00896 54.3984 6.94906 54.901 7.58969 55.9062C8.23552 56.9115 8.55844 58.3672 8.55844 60.2734ZM2.31625 60.2734C2.31625 61.9349 2.51156 63.1458 2.90219 63.9062C3.29281 64.6615 3.91521 65.0391 4.76937 65.0391C5.63396 65.0391 6.25896 64.6562 6.64437 63.8906C7.035 63.1198 7.23031 61.9141 7.23031 60.2734C7.23031 58.6328 7.035 57.4323 6.64437 56.6719C6.25896 55.9062 5.63396 55.5234 4.76937 55.5234C3.91521 55.5234 3.29281 55.901 2.90219 56.6562C2.51156 57.4062 2.31625 58.612 2.31625 60.2734ZM18.1112 63.375H16.4159V66H15.1737V63.375H9.61906V62.2422L15.0409 54.5156H16.4159V62.1953H18.1112V63.375ZM15.1737 62.1953V58.3984C15.1737 57.6536 15.1998 56.8125 15.2519 55.875H15.1894C14.9394 56.375 14.705 56.7891 14.4862 57.1172L10.9159 62.1953H15.1737ZM19.5469 65.1719C19.5469 64.8229 19.625 64.5599 19.7812 64.3828C19.9427 64.2005 20.1719 64.1094 20.4688 64.1094C20.7708 64.1094 21.0052 64.2005 21.1719 64.3828C21.3438 64.5599 21.4297 64.8229 21.4297 65.1719C21.4297 65.5104 21.3438 65.7708 21.1719 65.9531C21 66.1354 20.7656 66.2266 20.4688 66.2266C20.2031 66.2266 19.9818 66.1458 19.8047 65.9844C19.6328 65.8177 19.5469 65.5469 19.5469 65.1719ZM30.8966 60.2734C30.8966 62.2474 30.5841 63.7214 29.9591 64.6953C29.3393 65.6693 28.3888 66.1562 27.1075 66.1562C25.8783 66.1562 24.9434 65.6589 24.3028 64.6641C23.6622 63.6641 23.3419 62.2005 23.3419 60.2734C23.3419 58.2839 23.6518 56.8073 24.2716 55.8438C24.8914 54.8802 25.8367 54.3984 27.1075 54.3984C28.3471 54.3984 29.2872 54.901 29.9278 55.9062C30.5736 56.9115 30.8966 58.3672 30.8966 60.2734ZM24.6544 60.2734C24.6544 61.9349 24.8497 63.1458 25.2403 63.9062C25.6309 64.6615 26.2533 65.0391 27.1075 65.0391C27.9721 65.0391 28.5971 64.6562 28.9825 63.8906C29.3731 63.1198 29.5684 61.9141 29.5684 60.2734C29.5684 58.6328 29.3731 57.4323 28.9825 56.6719C28.5971 55.9062 27.9721 55.5234 27.1075 55.5234C26.2533 55.5234 25.6309 55.901 25.2403 56.6562C24.8497 57.4062 24.6544 58.612 24.6544 60.2734ZM33.5119 57.9844C33.5119 58.8698 33.6082 59.5339 33.8009 59.9766C33.9936 60.4193 34.3061 60.6406 34.7384 60.6406C35.5926 60.6406 36.0197 59.7552 36.0197 57.9844C36.0197 56.224 35.5926 55.3438 34.7384 55.3438C34.3061 55.3438 33.9936 55.5625 33.8009 56C33.6082 56.4375 33.5119 57.099 33.5119 57.9844ZM37.09 57.9844C37.09 59.1719 36.8895 60.0703 36.4884 60.6797C36.0926 61.2839 35.5093 61.5859 34.7384 61.5859C34.0093 61.5859 33.4416 61.276 33.0353 60.6562C32.6343 60.0365 32.4338 59.1458 32.4338 57.9844C32.4338 56.8021 32.6265 55.9115 33.0119 55.3125C33.4025 54.7135 33.978 54.4141 34.7384 54.4141C35.4936 54.4141 36.0744 54.724 36.4806 55.3438C36.8869 55.9635 37.09 56.8438 37.09 57.9844ZM40.3869 62.5625C40.3869 63.4531 40.4832 64.1198 40.6759 64.5625C40.8686 65 41.1838 65.2188 41.6213 65.2188C42.0588 65.2188 42.3817 65.0026 42.59 64.5703C42.7983 64.1328 42.9025 63.4635 42.9025 62.5625C42.9025 61.6719 42.7983 61.013 42.59 60.5859C42.3817 60.1536 42.0588 59.9375 41.6213 59.9375C41.1838 59.9375 40.8686 60.1536 40.6759 60.5859C40.4832 61.013 40.3869 61.6719 40.3869 62.5625ZM43.9728 62.5625C43.9728 63.7448 43.7723 64.6406 43.3713 65.25C42.9754 65.8542 42.3921 66.1562 41.6213 66.1562C40.8817 66.1562 40.3114 65.8464 39.9103 65.2266C39.5145 64.6068 39.3166 63.7188 39.3166 62.5625C39.3166 61.3802 39.5093 60.4896 39.8947 59.8906C40.2853 59.2917 40.8608 58.9922 41.6213 58.9922C42.3608 58.9922 42.9364 59.2995 43.3478 59.9141C43.7645 60.5234 43.9728 61.4062 43.9728 62.5625ZM41.9572 54.5781L35.6213 66H34.4728L40.8088 54.5781H41.9572Z" fill="black"/>
<rect x="285" y="238" width="200" height="62" fill="white"/>
<rect x="285" y="281" width="200" height="4" fill="#88B3F9"/>
<rect x="285" y="285" width="200" height="7" fill="#FF6D00"/>
<rect x="285" y="277" width="200" height="4" fill="#FBBC01"/>
<rect x="285" y="292" width="200" height="6" fill="#E94235"/>
<rect x="285" y="298" width="200" height="2" fill="#3830C9"/>
<rect x="285" y="238" width="200" height="30" fill="#47BDC6"/>
<rect x="285" y="268" width="200" height="9" fill="#36A853"/>
<path d="M372.19 349.18C372.19 350.466 371.943 351.542 371.448 352.406C370.959 353.266 370.248 353.914 369.315 354.352C368.383 354.784 367.261 355 365.948 355H362.714V343.578H366.3C367.498 343.578 368.537 343.792 369.417 344.219C370.297 344.641 370.979 345.268 371.464 346.102C371.948 346.93 372.19 347.956 372.19 349.18ZM369.675 349.242C369.675 348.398 369.55 347.706 369.3 347.164C369.055 346.617 368.69 346.214 368.206 345.953C367.727 345.693 367.133 345.562 366.425 345.562H365.136V353H366.175C367.357 353 368.235 352.685 368.808 352.055C369.386 351.424 369.675 350.487 369.675 349.242ZM377.892 346.102C378.699 346.102 379.394 346.258 379.978 346.57C380.561 346.878 381.011 347.326 381.329 347.914C381.647 348.503 381.806 349.221 381.806 350.07V351.227H376.173C376.199 351.898 376.399 352.427 376.774 352.812C377.155 353.193 377.681 353.383 378.353 353.383C378.91 353.383 379.42 353.326 379.884 353.211C380.347 353.096 380.824 352.924 381.313 352.695V354.539C380.881 354.753 380.428 354.909 379.954 355.008C379.485 355.107 378.915 355.156 378.243 355.156C377.368 355.156 376.592 354.995 375.915 354.672C375.243 354.349 374.714 353.857 374.329 353.195C373.949 352.534 373.759 351.701 373.759 350.695C373.759 349.674 373.931 348.826 374.274 348.148C374.623 347.466 375.108 346.956 375.728 346.617C376.347 346.273 377.069 346.102 377.892 346.102ZM377.907 347.797C377.444 347.797 377.058 347.945 376.751 348.242C376.449 348.539 376.274 349.005 376.228 349.641H379.571C379.566 349.286 379.501 348.971 379.376 348.695C379.256 348.419 379.074 348.201 378.829 348.039C378.589 347.878 378.282 347.797 377.907 347.797ZM393.921 346.102C394.911 346.102 395.658 346.357 396.163 346.867C396.674 347.372 396.929 348.185 396.929 349.305V355H394.538V349.898C394.538 349.273 394.431 348.802 394.218 348.484C394.004 348.167 393.674 348.008 393.226 348.008C392.595 348.008 392.148 348.234 391.882 348.688C391.616 349.135 391.483 349.779 391.483 350.617V355H389.101V349.898C389.101 349.482 389.054 349.133 388.96 348.852C388.866 348.57 388.723 348.359 388.53 348.219C388.338 348.078 388.09 348.008 387.788 348.008C387.345 348.008 386.996 348.12 386.741 348.344C386.491 348.562 386.312 348.888 386.202 349.32C386.098 349.747 386.046 350.271 386.046 350.891V355H383.663V346.266H385.483L385.804 347.383H385.937C386.114 347.081 386.335 346.836 386.601 346.648C386.871 346.461 387.168 346.323 387.491 346.234C387.814 346.146 388.142 346.102 388.476 346.102C389.116 346.102 389.658 346.206 390.101 346.414C390.549 346.622 390.892 346.945 391.132 347.383H391.343C391.603 346.935 391.97 346.609 392.444 346.406C392.924 346.203 393.416 346.102 393.921 346.102ZM402.88 346.086C404.052 346.086 404.95 346.341 405.575 346.852C406.2 347.362 406.513 348.138 406.513 349.18V355H404.849L404.388 353.812H404.325C404.075 354.125 403.82 354.38 403.56 354.578C403.299 354.776 403 354.922 402.661 355.016C402.323 355.109 401.911 355.156 401.427 355.156C400.911 355.156 400.448 355.057 400.036 354.859C399.63 354.661 399.31 354.359 399.075 353.953C398.841 353.542 398.724 353.021 398.724 352.391C398.724 351.464 399.049 350.781 399.7 350.344C400.351 349.901 401.328 349.656 402.63 349.609L404.146 349.562V349.18C404.146 348.721 404.026 348.385 403.786 348.172C403.547 347.958 403.213 347.852 402.786 347.852C402.364 347.852 401.95 347.911 401.544 348.031C401.138 348.151 400.732 348.302 400.325 348.484L399.536 346.875C400 346.63 400.518 346.438 401.091 346.297C401.669 346.156 402.265 346.086 402.88 346.086ZM404.146 350.953L403.224 350.984C402.453 351.005 401.916 351.143 401.614 351.398C401.317 351.654 401.169 351.99 401.169 352.406C401.169 352.771 401.276 353.031 401.489 353.188C401.703 353.339 401.982 353.414 402.325 353.414C402.836 353.414 403.265 353.263 403.614 352.961C403.969 352.659 404.146 352.229 404.146 351.672V350.953Z" fill="black"/>
<path opacity="0.8" d="M784.877 355L781.042 344.891H780.979C781 345.104 781.018 345.365 781.034 345.672C781.049 345.979 781.062 346.315 781.073 346.68C781.083 347.039 781.088 347.406 781.088 347.781V355H779.854V343.578H781.823L785.44 353.078H785.495L789.167 343.578H791.12V355H789.807V347.688C789.807 347.349 789.812 347.01 789.823 346.672C789.833 346.328 789.846 346.005 789.862 345.703C789.877 345.396 789.893 345.13 789.909 344.906H789.846L785.963 355H784.877ZM797.172 346.297C798.193 346.297 798.951 346.526 799.446 346.984C799.941 347.443 800.188 348.174 800.188 349.18V355H799.243L798.993 353.734H798.93C798.691 354.047 798.441 354.31 798.18 354.523C797.92 354.732 797.618 354.891 797.274 355C796.936 355.104 796.519 355.156 796.024 355.156C795.503 355.156 795.04 355.065 794.633 354.883C794.232 354.701 793.915 354.424 793.68 354.055C793.451 353.685 793.337 353.216 793.337 352.648C793.337 351.794 793.675 351.138 794.352 350.68C795.029 350.221 796.061 349.971 797.446 349.93L798.922 349.867V349.344C798.922 348.604 798.764 348.086 798.446 347.789C798.128 347.492 797.68 347.344 797.102 347.344C796.654 347.344 796.227 347.409 795.821 347.539C795.415 347.669 795.029 347.823 794.665 348L794.266 347.016C794.652 346.818 795.094 346.648 795.594 346.508C796.094 346.367 796.62 346.297 797.172 346.297ZM798.907 350.781L797.602 350.836C796.534 350.878 795.782 351.052 795.344 351.359C794.907 351.667 794.688 352.102 794.688 352.664C794.688 353.154 794.837 353.516 795.133 353.75C795.43 353.984 795.824 354.102 796.313 354.102C797.074 354.102 797.696 353.891 798.18 353.469C798.665 353.047 798.907 352.414 798.907 351.57V350.781ZM806.671 346.281C806.842 346.281 807.022 346.292 807.21 346.312C807.397 346.328 807.564 346.352 807.71 346.383L807.546 347.586C807.405 347.549 807.249 347.521 807.077 347.5C806.905 347.479 806.744 347.469 806.592 347.469C806.249 347.469 805.923 347.539 805.616 347.68C805.314 347.815 805.048 348.013 804.819 348.273C804.59 348.529 804.41 348.839 804.28 349.203C804.15 349.562 804.085 349.964 804.085 350.406V355H802.78V346.438H803.858L803.999 348.016H804.053C804.231 347.698 804.444 347.409 804.694 347.148C804.944 346.883 805.233 346.672 805.561 346.516C805.895 346.359 806.264 346.281 806.671 346.281ZM810.536 342.844V349.156C810.536 349.365 810.528 349.62 810.512 349.922C810.497 350.219 810.484 350.482 810.473 350.711H810.528C810.637 350.576 810.796 350.375 811.005 350.109C811.218 349.844 811.398 349.63 811.544 349.469L814.387 346.438H815.911L812.466 350.094L816.161 355H814.598L811.575 350.945L810.536 351.898V355H809.247V342.844H810.536ZM820.87 346.281C821.599 346.281 822.224 346.443 822.745 346.766C823.266 347.089 823.664 347.542 823.94 348.125C824.216 348.703 824.354 349.38 824.354 350.156V350.961H818.44C818.456 351.966 818.706 352.732 819.19 353.258C819.675 353.784 820.357 354.047 821.237 354.047C821.779 354.047 822.258 353.997 822.675 353.898C823.091 353.799 823.524 353.654 823.972 353.461V354.602C823.539 354.794 823.11 354.935 822.682 355.023C822.261 355.112 821.761 355.156 821.182 355.156C820.36 355.156 819.641 354.99 819.026 354.656C818.417 354.318 817.943 353.823 817.604 353.172C817.266 352.521 817.097 351.724 817.097 350.781C817.097 349.859 817.25 349.062 817.557 348.391C817.87 347.714 818.307 347.193 818.87 346.828C819.438 346.464 820.104 346.281 820.87 346.281ZM820.854 347.344C820.162 347.344 819.61 347.57 819.198 348.023C818.787 348.477 818.542 349.109 818.464 349.922H822.995C822.99 349.411 822.909 348.964 822.753 348.578C822.602 348.188 822.37 347.885 822.057 347.672C821.745 347.453 821.344 347.344 820.854 347.344ZM829.243 354.094C829.457 354.094 829.675 354.076 829.899 354.039C830.123 354.003 830.306 353.958 830.446 353.906V354.914C830.295 354.982 830.084 355.039 829.813 355.086C829.548 355.133 829.287 355.156 829.032 355.156C828.579 355.156 828.168 355.078 827.798 354.922C827.428 354.76 827.131 354.49 826.907 354.109C826.688 353.729 826.579 353.203 826.579 352.531V347.453H825.36V346.82L826.587 346.312L827.102 344.453H827.884V346.438H830.392V347.453H827.884V352.492C827.884 353.029 828.006 353.43 828.251 353.695C828.501 353.961 828.832 354.094 829.243 354.094ZM839.357 343.578C840.831 343.578 841.906 343.867 842.583 344.445C843.265 345.018 843.607 345.841 843.607 346.914C843.607 347.398 843.526 347.859 843.364 348.297C843.208 348.729 842.953 349.112 842.599 349.445C842.245 349.773 841.778 350.034 841.2 350.227C840.627 350.414 839.924 350.508 839.091 350.508H837.7V355H836.372V343.578H839.357ZM839.232 344.711H837.7V349.367H838.942C839.672 349.367 840.278 349.289 840.763 349.133C841.252 348.977 841.62 348.724 841.864 348.375C842.109 348.021 842.232 347.552 842.232 346.969C842.232 346.208 841.989 345.643 841.505 345.273C841.021 344.898 840.263 344.711 839.232 344.711ZM847.027 355H845.722V342.844H847.027V355ZM852.892 346.297C853.913 346.297 854.671 346.526 855.165 346.984C855.66 347.443 855.908 348.174 855.908 349.18V355H854.962L854.712 353.734H854.65C854.41 354.047 854.16 354.31 853.9 354.523C853.639 354.732 853.337 354.891 852.993 355C852.655 355.104 852.238 355.156 851.743 355.156C851.223 355.156 850.759 355.065 850.353 354.883C849.952 354.701 849.634 354.424 849.4 354.055C849.171 353.685 849.056 353.216 849.056 352.648C849.056 351.794 849.394 351.138 850.072 350.68C850.749 350.221 851.78 349.971 853.165 349.93L854.642 349.867V349.344C854.642 348.604 854.483 348.086 854.165 347.789C853.848 347.492 853.4 347.344 852.822 347.344C852.374 347.344 851.947 347.409 851.54 347.539C851.134 347.669 850.749 347.823 850.384 348L849.986 347.016C850.371 346.818 850.814 346.648 851.314 346.508C851.814 346.367 852.34 346.297 852.892 346.297ZM854.626 350.781L853.322 350.836C852.254 350.878 851.501 351.052 851.064 351.359C850.626 351.667 850.408 352.102 850.408 352.664C850.408 353.154 850.556 353.516 850.853 353.75C851.15 353.984 851.543 354.102 852.033 354.102C852.793 354.102 853.415 353.891 853.9 353.469C854.384 353.047 854.626 352.414 854.626 351.57V350.781ZM861.929 355.156C861.158 355.156 860.479 354.997 859.89 354.68C859.301 354.362 858.843 353.878 858.515 353.227C858.187 352.576 858.023 351.755 858.023 350.766C858.023 349.729 858.195 348.883 858.538 348.227C858.887 347.565 859.367 347.076 859.976 346.758C860.585 346.44 861.278 346.281 862.054 346.281C862.481 346.281 862.893 346.326 863.288 346.414C863.689 346.497 864.018 346.604 864.273 346.734L863.882 347.82C863.622 347.716 863.32 347.622 862.976 347.539C862.637 347.456 862.32 347.414 862.023 347.414C861.429 347.414 860.934 347.542 860.538 347.797C860.148 348.052 859.854 348.427 859.656 348.922C859.463 349.417 859.367 350.026 859.367 350.75C859.367 351.443 859.46 352.034 859.648 352.523C859.841 353.013 860.124 353.388 860.499 353.648C860.88 353.904 861.354 354.031 861.921 354.031C862.374 354.031 862.783 353.984 863.148 353.891C863.512 353.792 863.843 353.677 864.14 353.547V354.703C863.854 354.849 863.533 354.961 863.179 355.039C862.83 355.117 862.413 355.156 861.929 355.156ZM869.388 346.281C870.117 346.281 870.742 346.443 871.263 346.766C871.784 347.089 872.182 347.542 872.458 348.125C872.734 348.703 872.872 349.38 872.872 350.156V350.961H866.958C866.974 351.966 867.224 352.732 867.708 353.258C868.193 353.784 868.875 354.047 869.755 354.047C870.297 354.047 870.776 353.997 871.193 353.898C871.609 353.799 872.042 353.654 872.49 353.461V354.602C872.057 354.794 871.628 354.935 871.201 355.023C870.779 355.112 870.279 355.156 869.701 355.156C868.878 355.156 868.159 354.99 867.544 354.656C866.935 354.318 866.461 353.823 866.122 353.172C865.784 352.521 865.615 351.724 865.615 350.781C865.615 349.859 865.768 349.062 866.076 348.391C866.388 347.714 866.826 347.193 867.388 346.828C867.956 346.464 868.622 346.281 869.388 346.281ZM869.372 347.344C868.68 347.344 868.128 347.57 867.716 348.023C867.305 348.477 867.06 349.109 866.982 349.922H871.513C871.508 349.411 871.427 348.964 871.271 348.578C871.12 348.188 870.888 347.885 870.576 347.672C870.263 347.453 869.862 347.344 869.372 347.344Z" fill="black"/>
<path d="M287.041 28.9688C286.064 28.5521 285.231 28.2656 284.541 28.1094C283.851 27.9531 283.206 27.875 282.607 27.875C281.852 27.875 281.064 28.1094 280.244 28.5781C279.436 29.0339 278.701 29.5872 278.037 30.2383V25.7266C278.701 25.0234 279.443 24.4961 280.263 24.1445C281.097 23.7799 282.021 23.5977 283.037 23.5977C283.818 23.5977 284.599 23.6758 285.38 23.832C286.162 23.9753 287.184 24.3138 288.447 24.8477C289.423 25.2643 290.257 25.5508 290.947 25.707C291.65 25.8503 292.295 25.9219 292.88 25.9219C293.649 25.9219 294.436 25.694 295.244 25.2383C296.051 24.7826 296.78 24.2227 297.431 23.5586V28.0703C296.78 28.7734 296.038 29.3073 295.205 29.6719C294.384 30.0234 293.46 30.1992 292.431 30.1992C291.65 30.1992 290.869 30.1276 290.088 29.9844C289.319 29.8281 288.304 29.4896 287.041 28.9688ZM299.415 28.8711C299.415 27.2305 299.532 25.6094 299.766 24.0078C300.014 22.3932 300.437 20.8763 301.036 19.457C301.635 18.0247 302.475 16.7617 303.555 15.668C304.636 14.5612 306.01 13.6953 307.677 13.0703C309.343 12.4323 311.361 12.1133 313.731 12.1133C314.291 12.1133 314.942 12.1393 315.684 12.1914C316.44 12.2305 317.065 12.3021 317.559 12.4062V17.2305C317.039 17.1133 316.479 17.0221 315.88 16.957C315.294 16.8789 314.708 16.8398 314.122 16.8398C311.752 16.8398 309.916 17.2174 308.614 17.9727C307.325 18.7279 306.414 19.776 305.88 21.1172C305.359 22.4453 305.053 23.9948 304.962 25.7656H305.216C305.58 25.1276 306.036 24.5612 306.583 24.0664C307.143 23.5716 307.82 23.181 308.614 22.8945C309.408 22.5951 310.339 22.4453 311.407 22.4453C313.074 22.4453 314.519 22.8034 315.743 23.5195C316.967 24.2227 317.911 25.2448 318.575 26.5859C319.239 27.9271 319.571 29.5612 319.571 31.4883C319.571 33.5456 319.174 35.3164 318.38 36.8008C317.585 38.2852 316.459 39.4245 315.001 40.2188C313.555 41 311.837 41.3906 309.845 41.3906C308.386 41.3906 307.026 41.1432 305.763 40.6484C304.499 40.1406 303.393 39.3724 302.442 38.3438C301.492 37.3151 300.749 36.0195 300.216 34.457C299.682 32.8815 299.415 31.0195 299.415 28.8711ZM309.727 36.5664C310.912 36.5664 311.876 36.1628 312.618 35.3555C313.36 34.5482 313.731 33.2852 313.731 31.5664C313.731 30.1732 313.406 29.0794 312.755 28.2852C312.117 27.4779 311.147 27.0742 309.845 27.0742C308.959 27.0742 308.178 27.276 307.501 27.6797C306.837 28.0703 306.322 28.5716 305.958 29.1836C305.593 29.7826 305.411 30.401 305.411 31.0391C305.411 31.7031 305.502 32.3607 305.684 33.0117C305.867 33.6628 306.14 34.2552 306.505 34.7891C306.869 35.3229 307.318 35.7526 307.852 36.0781C308.399 36.4036 309.024 36.5664 309.727 36.5664ZM341.105 26.7227C341.105 29.0273 340.923 31.0846 340.559 32.8945C340.207 34.7044 339.634 36.2409 338.84 37.5039C338.059 38.7669 337.03 39.7305 335.754 40.3945C334.478 41.0586 332.928 41.3906 331.105 41.3906C328.814 41.3906 326.932 40.8112 325.461 39.6523C323.99 38.4805 322.902 36.8008 322.199 34.6133C321.496 32.4128 321.145 29.7826 321.145 26.7227C321.145 23.6367 321.464 21 322.102 18.8125C322.753 16.612 323.807 14.9258 325.266 13.7539C326.724 12.582 328.671 11.9961 331.105 11.9961C333.384 11.9961 335.259 12.582 336.73 13.7539C338.215 14.9128 339.315 16.5924 340.031 18.793C340.747 20.9805 341.105 23.6237 341.105 26.7227ZM327.141 26.7227C327.141 28.8971 327.258 30.7135 327.492 32.1719C327.74 33.6172 328.15 34.7044 328.723 35.4336C329.296 36.1628 330.09 36.5273 331.105 36.5273C332.108 36.5273 332.896 36.1693 333.469 35.4531C334.055 34.724 334.471 33.6367 334.719 32.1914C334.966 30.7331 335.09 28.9102 335.09 26.7227C335.09 24.5482 334.966 22.7318 334.719 21.2734C334.471 19.8151 334.055 18.7214 333.469 17.9922C332.896 17.25 332.108 16.8789 331.105 16.8789C330.09 16.8789 329.296 17.25 328.723 17.9922C328.15 18.7214 327.74 19.8151 327.492 21.2734C327.258 22.7318 327.141 24.5482 327.141 26.7227ZM349.359 12.0352C351.598 12.0352 353.297 12.8164 354.456 14.3789C355.615 15.9414 356.195 18.1354 356.195 20.9609C356.195 23.7865 355.648 25.9935 354.554 27.582C353.46 29.1706 351.728 29.9648 349.359 29.9648C347.158 29.9648 345.485 29.1706 344.339 27.582C343.193 25.9935 342.62 23.7865 342.62 20.9609C342.62 18.1354 343.154 15.9414 344.222 14.3789C345.303 12.8164 347.015 12.0352 349.359 12.0352ZM349.398 16.1172C348.76 16.1172 348.291 16.5208 347.991 17.3281C347.692 18.1354 347.542 19.3594 347.542 21C347.542 22.6406 347.692 23.8711 347.991 24.6914C348.291 25.5117 348.76 25.9219 349.398 25.9219C350.036 25.9219 350.504 25.5182 350.804 24.7109C351.116 23.8906 351.273 22.6536 351.273 21C351.273 19.3594 351.116 18.1354 350.804 17.3281C350.504 16.5208 350.036 16.1172 349.398 16.1172ZM369.632 12.4453L353.792 41H349.105L364.945 12.4453H369.632ZM369.359 23.4414C371.598 23.4414 373.297 24.2227 374.456 25.7852C375.615 27.3477 376.195 29.5417 376.195 32.3672C376.195 35.1797 375.648 37.3802 374.554 38.9688C373.46 40.5573 371.728 41.3516 369.359 41.3516C367.158 41.3516 365.485 40.5573 364.339 38.9688C363.193 37.3802 362.62 35.1797 362.62 32.3672C362.62 29.5417 363.154 27.3477 364.222 25.7852C365.303 24.2227 367.015 23.4414 369.359 23.4414ZM369.398 27.5234C368.76 27.5234 368.291 27.9271 367.991 28.7344C367.692 29.5417 367.542 30.7656 367.542 32.4062C367.542 34.0469 367.692 35.2773 367.991 36.0977C368.291 36.918 368.76 37.3281 369.398 37.3281C370.036 37.3281 370.504 36.9245 370.804 36.1172C371.116 35.2969 371.273 34.0599 371.273 32.4062C371.273 30.7656 371.116 29.5417 370.804 28.7344C370.504 27.9271 370.036 27.5234 369.398 27.5234ZM394.517 41H388.56V10.6094H394.517V41ZM419.43 30.043C419.43 31.8659 419.183 33.4805 418.688 34.8867C418.207 36.293 417.497 37.4844 416.559 38.4609C415.635 39.4245 414.515 40.1536 413.2 40.6484C411.898 41.1432 410.427 41.3906 408.786 41.3906C407.249 41.3906 405.837 41.1432 404.548 40.6484C403.272 40.1536 402.158 39.4245 401.208 38.4609C400.27 37.4844 399.541 36.293 399.02 34.8867C398.513 33.4805 398.259 31.8659 398.259 30.043C398.259 27.6211 398.688 25.5703 399.548 23.8906C400.407 22.2109 401.631 20.9349 403.22 20.0625C404.808 19.1901 406.703 18.7539 408.903 18.7539C410.947 18.7539 412.757 19.1901 414.333 20.0625C415.921 20.9349 417.165 22.2109 418.063 23.8906C418.975 25.5703 419.43 27.6211 419.43 30.043ZM404.333 30.043C404.333 31.4753 404.489 32.6797 404.802 33.6562C405.114 34.6328 405.602 35.3685 406.266 35.8633C406.93 36.3581 407.796 36.6055 408.864 36.6055C409.919 36.6055 410.772 36.3581 411.423 35.8633C412.087 35.3685 412.568 34.6328 412.868 33.6562C413.18 32.6797 413.337 31.4753 413.337 30.043C413.337 28.5977 413.18 27.3997 412.868 26.4492C412.568 25.4857 412.087 24.763 411.423 24.2812C410.759 23.7995 409.893 23.5586 408.825 23.5586C407.249 23.5586 406.104 24.099 405.388 25.1797C404.684 26.2604 404.333 27.8815 404.333 30.043ZM441.102 41L439.422 33.3633C439.331 32.9076 439.181 32.237 438.973 31.3516C438.764 30.4531 438.536 29.4961 438.289 28.4805C438.055 27.4518 437.833 26.5013 437.625 25.6289C437.43 24.7565 437.286 24.1185 437.195 23.7148H437.02C436.928 24.1185 436.785 24.7565 436.59 25.6289C436.395 26.5013 436.173 27.4518 435.926 28.4805C435.691 29.5091 435.47 30.4792 435.262 31.3906C435.053 32.2891 434.897 32.9727 434.793 33.4414L433.035 41H426.629L420.418 19.1641H426.355L428.875 28.832C429.044 29.5091 429.207 30.3164 429.363 31.2539C429.52 32.1784 429.656 33.0768 429.773 33.9492C429.904 34.8086 430.001 35.4922 430.066 36H430.223C430.249 35.6224 430.301 35.1211 430.379 34.4961C430.47 33.8711 430.568 33.2266 430.672 32.5625C430.789 31.8854 430.893 31.2799 430.984 30.7461C431.089 30.1992 431.167 29.8281 431.219 29.6328L433.914 19.1641H440.477L443.035 29.6328C443.126 30.0104 443.243 30.6094 443.387 31.4297C443.543 32.25 443.68 33.0964 443.797 33.9688C443.914 34.8281 443.979 35.5052 443.992 36H444.148C444.201 35.5573 444.292 34.8997 444.422 34.0273C444.552 33.1549 444.702 32.2435 444.871 31.293C445.053 30.3294 445.236 29.5091 445.418 28.832L448.035 19.1641H453.875L447.586 41H441.102ZM465.214 18.7539C467.232 18.7539 468.971 19.1445 470.429 19.9258C471.887 20.694 473.014 21.8138 473.808 23.2852C474.602 24.7565 474.999 26.5534 474.999 28.6758V31.5664H460.917C460.982 33.2461 461.484 34.5677 462.421 35.5312C463.372 36.4818 464.687 36.957 466.366 36.957C467.76 36.957 469.036 36.8138 470.195 36.5273C471.353 36.2409 472.545 35.8112 473.769 35.2383V39.8477C472.688 40.3815 471.555 40.7721 470.37 41.0195C469.198 41.2669 467.773 41.3906 466.093 41.3906C463.905 41.3906 461.965 40.987 460.273 40.1797C458.593 39.3724 457.271 38.1419 456.308 36.4883C455.357 34.8346 454.882 32.7513 454.882 30.2383C454.882 27.6862 455.312 25.5638 456.171 23.8711C457.043 22.1654 458.254 20.8893 459.804 20.043C461.353 19.1836 463.157 18.7539 465.214 18.7539ZM465.253 22.9922C464.094 22.9922 463.131 23.3633 462.362 24.1055C461.607 24.8477 461.171 26.013 461.054 27.6016H469.413C469.4 26.7161 469.237 25.9284 468.925 25.2383C468.626 24.5482 468.17 24.0013 467.558 23.5977C466.959 23.194 466.191 22.9922 465.253 22.9922ZM490.83 18.7539C491.13 18.7539 491.475 18.7734 491.866 18.8125C492.269 18.8385 492.595 18.8776 492.842 18.9297L492.393 24.5156C492.198 24.4505 491.918 24.4049 491.553 24.3789C491.202 24.3398 490.896 24.3203 490.635 24.3203C489.867 24.3203 489.118 24.418 488.389 24.6133C487.673 24.8086 487.028 25.1276 486.455 25.5703C485.883 26 485.427 26.5729 485.088 27.2891C484.763 27.9922 484.6 28.8581 484.6 29.8867V41H478.643V19.1641H483.155L484.034 22.8359H484.327C484.756 22.0938 485.29 21.4167 485.928 20.8047C486.579 20.1797 487.315 19.6849 488.135 19.3203C488.968 18.9427 489.867 18.7539 490.83 18.7539Z" fill="#0D0D0D"/>
<rect x="208" y="420.5" width="18" height="18" fill="#88B3F9"/>
<path d="M238.865 424.578C240.339 424.578 241.414 424.867 242.092 425.445C242.774 426.018 243.115 426.841 243.115 427.914C243.115 428.398 243.034 428.859 242.873 429.297C242.717 429.729 242.461 430.112 242.107 430.445C241.753 430.773 241.287 431.034 240.709 431.227C240.136 431.414 239.433 431.508 238.599 431.508H237.209V436H235.881V424.578H238.865ZM238.74 425.711H237.209V430.367H238.451C239.18 430.367 239.787 430.289 240.271 430.133C240.761 429.977 241.128 429.724 241.373 429.375C241.618 429.021 241.74 428.552 241.74 427.969C241.74 427.208 241.498 426.643 241.013 426.273C240.529 425.898 239.771 425.711 238.74 425.711ZM248.433 427.297C249.454 427.297 250.212 427.526 250.707 427.984C251.202 428.443 251.449 429.174 251.449 430.18V436H250.504L250.254 434.734H250.191C249.952 435.047 249.702 435.31 249.441 435.523C249.181 435.732 248.879 435.891 248.535 436C248.196 436.104 247.78 436.156 247.285 436.156C246.764 436.156 246.301 436.065 245.894 435.883C245.493 435.701 245.176 435.424 244.941 435.055C244.712 434.685 244.598 434.216 244.598 433.648C244.598 432.794 244.936 432.138 245.613 431.68C246.29 431.221 247.321 430.971 248.707 430.93L250.183 430.867V430.344C250.183 429.604 250.025 429.086 249.707 428.789C249.389 428.492 248.941 428.344 248.363 428.344C247.915 428.344 247.488 428.409 247.082 428.539C246.676 428.669 246.29 428.823 245.926 429L245.527 428.016C245.913 427.818 246.355 427.648 246.855 427.508C247.355 427.367 247.881 427.297 248.433 427.297ZM250.168 431.781L248.863 431.836C247.795 431.878 247.043 432.052 246.605 432.359C246.168 432.667 245.949 433.102 245.949 433.664C245.949 434.154 246.098 434.516 246.394 434.75C246.691 434.984 247.084 435.102 247.574 435.102C248.334 435.102 248.957 434.891 249.441 434.469C249.926 434.047 250.168 433.414 250.168 432.57V431.781ZM252.689 427.438H254.08L255.971 432.406C256.08 432.698 256.182 432.979 256.275 433.25C256.369 433.516 256.452 433.771 256.525 434.016C256.598 434.26 256.656 434.497 256.697 434.727H256.752C256.825 434.466 256.929 434.125 257.064 433.703C257.2 433.276 257.346 432.841 257.502 432.398L259.291 427.438H260.689L256.963 437.258C256.765 437.784 256.533 438.242 256.268 438.633C256.007 439.023 255.689 439.323 255.314 439.531C254.939 439.745 254.486 439.852 253.955 439.852C253.71 439.852 253.494 439.836 253.307 439.805C253.119 439.779 252.958 439.747 252.822 439.711V438.672C252.937 438.698 253.075 438.721 253.236 438.742C253.403 438.763 253.575 438.773 253.752 438.773C254.075 438.773 254.353 438.711 254.588 438.586C254.827 438.466 255.033 438.289 255.205 438.055C255.377 437.82 255.525 437.542 255.65 437.219L256.119 436.016L252.689 427.438ZM271.273 427.281C272.216 427.281 272.927 427.529 273.406 428.023C273.885 428.513 274.125 429.302 274.125 430.391V436H272.844V430.453C272.844 429.76 272.693 429.242 272.391 428.898C272.094 428.549 271.651 428.375 271.063 428.375C270.234 428.375 269.633 428.615 269.258 429.094C268.883 429.573 268.695 430.279 268.695 431.211V436H267.406V430.453C267.406 429.99 267.339 429.604 267.203 429.297C267.073 428.99 266.875 428.76 266.609 428.609C266.349 428.453 266.018 428.375 265.617 428.375C265.049 428.375 264.594 428.492 264.25 428.727C263.906 428.961 263.656 429.31 263.5 429.773C263.349 430.232 263.273 430.797 263.273 431.469V436H261.977V427.438H263.023L263.219 428.648H263.289C263.461 428.352 263.677 428.102 263.938 427.898C264.198 427.695 264.49 427.542 264.813 427.438C265.135 427.333 265.479 427.281 265.844 427.281C266.495 427.281 267.039 427.404 267.477 427.648C267.919 427.888 268.24 428.255 268.438 428.75H268.508C268.789 428.255 269.174 427.888 269.664 427.648C270.154 427.404 270.69 427.281 271.273 427.281ZM280.006 427.281C280.735 427.281 281.36 427.443 281.881 427.766C282.402 428.089 282.8 428.542 283.076 429.125C283.352 429.703 283.49 430.38 283.49 431.156V431.961H277.576C277.592 432.966 277.842 433.732 278.326 434.258C278.811 434.784 279.493 435.047 280.373 435.047C280.915 435.047 281.394 434.997 281.811 434.898C282.227 434.799 282.66 434.654 283.108 434.461V435.602C282.675 435.794 282.246 435.935 281.818 436.023C281.397 436.112 280.897 436.156 280.318 436.156C279.496 436.156 278.777 435.99 278.162 435.656C277.553 435.318 277.079 434.823 276.74 434.172C276.402 433.521 276.233 432.724 276.233 431.781C276.233 430.859 276.386 430.062 276.693 429.391C277.006 428.714 277.443 428.193 278.006 427.828C278.574 427.464 279.24 427.281 280.006 427.281ZM279.99 428.344C279.298 428.344 278.746 428.57 278.334 429.023C277.923 429.477 277.678 430.109 277.6 430.922H282.131C282.126 430.411 282.045 429.964 281.889 429.578C281.738 429.188 281.506 428.885 281.193 428.672C280.881 428.453 280.48 428.344 279.99 428.344ZM289.668 427.281C290.684 427.281 291.452 427.531 291.973 428.031C292.494 428.526 292.754 429.323 292.754 430.422V436H291.473V430.508C291.473 429.794 291.309 429.26 290.981 428.906C290.658 428.552 290.16 428.375 289.488 428.375C288.541 428.375 287.874 428.643 287.488 429.18C287.103 429.716 286.91 430.495 286.91 431.516V436H285.613V427.438H286.66L286.856 428.672H286.926C287.108 428.37 287.34 428.117 287.621 427.914C287.903 427.706 288.218 427.549 288.567 427.445C288.916 427.336 289.283 427.281 289.668 427.281ZM298.112 435.094C298.325 435.094 298.544 435.076 298.768 435.039C298.992 435.003 299.174 434.958 299.315 434.906V435.914C299.164 435.982 298.953 436.039 298.682 436.086C298.416 436.133 298.156 436.156 297.901 436.156C297.448 436.156 297.036 436.078 296.666 435.922C296.296 435.76 296 435.49 295.776 435.109C295.557 434.729 295.448 434.203 295.448 433.531V428.453H294.229V427.82L295.455 427.312L295.971 425.453H296.752V427.438H299.26V428.453H296.752V433.492C296.752 434.029 296.875 434.43 297.119 434.695C297.369 434.961 297.7 435.094 298.112 435.094Z" fill="black"/>
<rect x="328" y="420.5" width="18" height="18" fill="#E94235"/>
<path d="M360.814 430.016H364.807V435.555C364.208 435.758 363.59 435.909 362.955 436.008C362.325 436.107 361.619 436.156 360.838 436.156C359.65 436.156 358.648 435.919 357.83 435.445C357.017 434.971 356.4 434.297 355.978 433.422C355.557 432.542 355.346 431.497 355.346 430.289C355.346 429.107 355.577 428.076 356.041 427.195C356.51 426.315 357.184 425.633 358.064 425.148C358.95 424.659 360.012 424.414 361.252 424.414C361.887 424.414 362.489 424.474 363.057 424.594C363.629 424.708 364.161 424.872 364.65 425.086L364.142 426.242C363.721 426.06 363.254 425.904 362.744 425.773C362.239 425.643 361.715 425.578 361.174 425.578C360.241 425.578 359.442 425.771 358.775 426.156C358.114 426.542 357.606 427.086 357.252 427.789C356.903 428.492 356.728 429.326 356.728 430.289C356.728 431.242 356.882 432.073 357.189 432.781C357.497 433.484 357.976 434.031 358.627 434.422C359.278 434.812 360.116 435.008 361.142 435.008C361.658 435.008 362.101 434.979 362.471 434.922C362.84 434.859 363.176 434.786 363.478 434.703V431.203H360.814V430.016ZM370.797 424.398C371.359 424.398 371.844 424.497 372.25 424.695C372.661 424.888 372.977 425.167 373.195 425.531C373.419 425.896 373.531 426.336 373.531 426.852C373.531 427.529 373.31 428.102 372.867 428.57C372.43 429.039 371.872 429.466 371.195 429.852L374.367 432.93C374.654 432.596 374.888 432.211 375.07 431.773C375.253 431.331 375.406 430.852 375.531 430.336H376.844C376.677 431.023 376.461 431.656 376.195 432.234C375.935 432.812 375.607 433.32 375.211 433.758L377.5 436H375.742L374.328 434.617C373.995 434.924 373.635 435.195 373.25 435.43C372.87 435.659 372.445 435.839 371.977 435.969C371.513 436.094 370.982 436.156 370.383 436.156C369.654 436.156 369.021 436.036 368.484 435.797C367.948 435.557 367.531 435.206 367.234 434.742C366.943 434.279 366.797 433.711 366.797 433.039C366.797 432.487 366.898 432.013 367.102 431.617C367.305 431.221 367.594 430.87 367.969 430.562C368.344 430.255 368.792 429.956 369.312 429.664C369.068 429.393 368.836 429.12 368.617 428.844C368.398 428.562 368.221 428.263 368.086 427.945C367.951 427.622 367.883 427.268 367.883 426.883C367.883 426.362 368 425.917 368.234 425.547C368.474 425.177 368.81 424.893 369.242 424.695C369.68 424.497 370.198 424.398 370.797 424.398ZM370.094 430.484C369.688 430.719 369.339 430.951 369.047 431.18C368.76 431.409 368.539 431.667 368.383 431.953C368.232 432.24 368.156 432.586 368.156 432.992C368.156 433.602 368.362 434.091 368.773 434.461C369.185 434.826 369.734 435.008 370.422 435.008C371.13 435.008 371.732 434.891 372.227 434.656C372.727 434.422 373.151 434.138 373.5 433.805L370.094 430.484ZM370.75 425.469C370.276 425.469 369.891 425.594 369.594 425.844C369.302 426.089 369.156 426.432 369.156 426.875C369.156 427.271 369.263 427.635 369.477 427.969C369.69 428.302 369.995 428.672 370.391 429.078C371.042 428.719 371.513 428.372 371.805 428.039C372.102 427.701 372.25 427.305 372.25 426.852C372.25 426.44 372.112 426.107 371.836 425.852C371.565 425.596 371.203 425.469 370.75 425.469ZM386.233 436L384.826 432.375H380.248L378.85 436H377.506L381.975 424.531H383.17L387.608 436H386.233ZM384.428 431.195L383.092 427.594C383.061 427.5 383.009 427.346 382.936 427.133C382.868 426.919 382.798 426.698 382.725 426.469C382.652 426.24 382.592 426.055 382.545 425.914C382.493 426.128 382.436 426.341 382.373 426.555C382.316 426.763 382.259 426.958 382.201 427.141C382.144 427.318 382.094 427.469 382.053 427.594L380.693 431.195H384.428Z" fill="black"/>
<rect x="416" y="420.5" width="18" height="18" fill="#FBBC01"/>
<path d="M450.174 432.961C450.174 433.638 450.004 434.216 449.666 434.695C449.333 435.169 448.864 435.531 448.26 435.781C447.656 436.031 446.945 436.156 446.127 436.156C445.695 436.156 445.286 436.135 444.9 436.094C444.515 436.052 444.161 435.992 443.838 435.914C443.515 435.836 443.231 435.74 442.986 435.625V434.352C443.377 434.513 443.853 434.664 444.416 434.805C444.978 434.94 445.567 435.008 446.182 435.008C446.754 435.008 447.239 434.932 447.635 434.781C448.031 434.625 448.33 434.404 448.533 434.117C448.741 433.826 448.846 433.477 448.846 433.07C448.846 432.68 448.76 432.354 448.588 432.094C448.416 431.828 448.129 431.589 447.728 431.375C447.333 431.156 446.791 430.924 446.103 430.68C445.619 430.508 445.192 430.32 444.822 430.117C444.452 429.909 444.142 429.674 443.892 429.414C443.642 429.154 443.452 428.852 443.322 428.508C443.197 428.164 443.135 427.771 443.135 427.328C443.135 426.719 443.288 426.198 443.596 425.766C443.908 425.328 444.338 424.995 444.885 424.766C445.437 424.531 446.07 424.414 446.783 424.414C447.392 424.414 447.955 424.471 448.471 424.586C448.991 424.701 449.468 424.854 449.9 425.047L449.486 426.188C449.075 426.016 448.637 425.872 448.174 425.758C447.715 425.643 447.241 425.586 446.752 425.586C446.262 425.586 445.848 425.659 445.51 425.805C445.176 425.945 444.921 426.146 444.744 426.406C444.567 426.667 444.478 426.977 444.478 427.336C444.478 427.737 444.562 428.07 444.728 428.336C444.9 428.602 445.171 428.839 445.541 429.047C445.916 429.25 446.411 429.464 447.025 429.688C447.697 429.932 448.267 430.193 448.736 430.469C449.205 430.74 449.562 431.073 449.807 431.469C450.051 431.859 450.174 432.357 450.174 432.961ZM455.734 424.398C456.297 424.398 456.781 424.497 457.188 424.695C457.599 424.888 457.914 425.167 458.133 425.531C458.357 425.896 458.469 426.336 458.469 426.852C458.469 427.529 458.247 428.102 457.805 428.57C457.367 429.039 456.81 429.466 456.133 429.852L459.305 432.93C459.591 432.596 459.826 432.211 460.008 431.773C460.19 431.331 460.344 430.852 460.469 430.336H461.781C461.615 431.023 461.398 431.656 461.133 432.234C460.872 432.812 460.544 433.32 460.148 433.758L462.438 436H460.68L459.266 434.617C458.932 434.924 458.573 435.195 458.188 435.43C457.807 435.659 457.383 435.839 456.914 435.969C456.451 436.094 455.919 436.156 455.32 436.156C454.591 436.156 453.958 436.036 453.422 435.797C452.885 435.557 452.469 435.206 452.172 434.742C451.88 434.279 451.734 433.711 451.734 433.039C451.734 432.487 451.836 432.013 452.039 431.617C452.242 431.221 452.531 430.87 452.906 430.562C453.281 430.255 453.729 429.956 454.25 429.664C454.005 429.393 453.773 429.12 453.555 428.844C453.336 428.562 453.159 428.263 453.023 427.945C452.888 427.622 452.82 427.268 452.82 426.883C452.82 426.362 452.938 425.917 453.172 425.547C453.411 425.177 453.747 424.893 454.18 424.695C454.617 424.497 455.135 424.398 455.734 424.398ZM455.031 430.484C454.625 430.719 454.276 430.951 453.984 431.18C453.698 431.409 453.477 431.667 453.32 431.953C453.169 432.24 453.094 432.586 453.094 432.992C453.094 433.602 453.299 434.091 453.711 434.461C454.122 434.826 454.672 435.008 455.359 435.008C456.068 435.008 456.669 434.891 457.164 434.656C457.664 434.422 458.089 434.138 458.438 433.805L455.031 430.484ZM455.688 425.469C455.214 425.469 454.828 425.594 454.531 425.844C454.24 426.089 454.094 426.432 454.094 426.875C454.094 427.271 454.201 427.635 454.414 427.969C454.628 428.302 454.932 428.672 455.328 429.078C455.979 428.719 456.451 428.372 456.742 428.039C457.039 427.701 457.188 427.305 457.188 426.852C457.188 426.44 457.049 426.107 456.773 425.852C456.503 425.596 456.141 425.469 455.688 425.469ZM469.029 436L465.193 425.891H465.131C465.152 426.104 465.17 426.365 465.186 426.672C465.201 426.979 465.214 427.315 465.225 427.68C465.235 428.039 465.24 428.406 465.24 428.781V436H464.006V424.578H465.975L469.592 434.078H469.647L473.318 424.578H475.272V436H473.959V428.688C473.959 428.349 473.964 428.01 473.975 427.672C473.985 427.328 473.998 427.005 474.014 426.703C474.029 426.396 474.045 426.13 474.061 425.906H473.998L470.115 436H469.029Z" fill="black"/>
<rect x="505" y="420.5" width="18" height="18" fill="#36A853"/>
<path d="M535.658 424.578C536.596 424.578 537.369 424.695 537.978 424.93C538.593 425.159 539.051 425.51 539.353 425.984C539.656 426.458 539.807 427.062 539.807 427.797C539.807 428.401 539.697 428.906 539.478 429.312C539.26 429.714 538.973 430.039 538.619 430.289C538.265 430.539 537.887 430.732 537.486 430.867L540.619 436H539.072L536.275 431.234H533.9V436H532.572V424.578H535.658ZM535.58 425.727H533.9V430.109H535.713C536.645 430.109 537.33 429.919 537.767 429.539C538.21 429.159 538.432 428.599 538.432 427.859C538.432 427.083 538.197 426.534 537.728 426.211C537.265 425.888 536.549 425.727 535.58 425.727ZM545.672 424.398C546.234 424.398 546.719 424.497 547.125 424.695C547.536 424.888 547.852 425.167 548.07 425.531C548.294 425.896 548.406 426.336 548.406 426.852C548.406 427.529 548.185 428.102 547.742 428.57C547.305 429.039 546.747 429.466 546.07 429.852L549.242 432.93C549.529 432.596 549.763 432.211 549.945 431.773C550.128 431.331 550.281 430.852 550.406 430.336H551.719C551.552 431.023 551.336 431.656 551.07 432.234C550.81 432.812 550.482 433.32 550.086 433.758L552.375 436H550.617L549.203 434.617C548.87 434.924 548.51 435.195 548.125 435.43C547.745 435.659 547.32 435.839 546.852 435.969C546.388 436.094 545.857 436.156 545.258 436.156C544.529 436.156 543.896 436.036 543.359 435.797C542.823 435.557 542.406 435.206 542.109 434.742C541.818 434.279 541.672 433.711 541.672 433.039C541.672 432.487 541.773 432.013 541.977 431.617C542.18 431.221 542.469 430.87 542.844 430.562C543.219 430.255 543.667 429.956 544.188 429.664C543.943 429.393 543.711 429.12 543.492 428.844C543.273 428.562 543.096 428.263 542.961 427.945C542.826 427.622 542.758 427.268 542.758 426.883C542.758 426.362 542.875 425.917 543.109 425.547C543.349 425.177 543.685 424.893 544.117 424.695C544.555 424.497 545.073 424.398 545.672 424.398ZM544.969 430.484C544.562 430.719 544.214 430.951 543.922 431.18C543.635 431.409 543.414 431.667 543.258 431.953C543.107 432.24 543.031 432.586 543.031 432.992C543.031 433.602 543.237 434.091 543.648 434.461C544.06 434.826 544.609 435.008 545.297 435.008C546.005 435.008 546.607 434.891 547.102 434.656C547.602 434.422 548.026 434.138 548.375 433.805L544.969 430.484ZM545.625 425.469C545.151 425.469 544.766 425.594 544.469 425.844C544.177 426.089 544.031 426.432 544.031 426.875C544.031 427.271 544.138 427.635 544.352 427.969C544.565 428.302 544.87 428.672 545.266 429.078C545.917 428.719 546.388 428.372 546.68 428.039C546.977 427.701 547.125 427.305 547.125 426.852C547.125 426.44 546.987 426.107 546.711 425.852C546.44 425.596 546.078 425.469 545.625 425.469ZM563.014 430.18C563.014 431.466 562.779 432.542 562.311 433.406C561.842 434.266 561.162 434.914 560.272 435.352C559.386 435.784 558.311 436 557.045 436H553.943V424.578H557.389C558.55 424.578 559.55 424.792 560.389 425.219C561.227 425.641 561.873 426.268 562.326 427.102C562.785 427.93 563.014 428.956 563.014 430.18ZM561.615 430.227C561.615 429.201 561.443 428.354 561.1 427.688C560.761 427.021 560.261 426.526 559.6 426.203C558.943 425.875 558.139 425.711 557.186 425.711H555.272V434.859H556.889C558.462 434.859 559.641 434.471 560.428 433.695C561.219 432.919 561.615 431.763 561.615 430.227Z" fill="black"/>
<rect x="592" y="420.5" width="18" height="18" fill="#FF6D00"/>
<path d="M619.668 436V424.578H620.996V436H619.668ZM627.916 427.281C628.932 427.281 629.7 427.531 630.221 428.031C630.741 428.526 631.002 429.323 631.002 430.422V436H629.721V430.508C629.721 429.794 629.557 429.26 629.228 428.906C628.906 428.552 628.408 428.375 627.736 428.375C626.788 428.375 626.122 428.643 625.736 429.18C625.351 429.716 625.158 430.495 625.158 431.516V436H623.861V427.438H624.908L625.103 428.672H625.174C625.356 428.37 625.588 428.117 625.869 427.914C626.15 427.706 626.465 427.549 626.814 427.445C627.163 427.336 627.531 427.281 627.916 427.281ZM637.406 428.453H635.273V436H633.977V428.453H632.461V427.828L633.977 427.398V426.828C633.977 426.109 634.083 425.526 634.297 425.078C634.51 424.625 634.82 424.292 635.227 424.078C635.633 423.865 636.128 423.758 636.711 423.758C637.039 423.758 637.339 423.786 637.609 423.844C637.885 423.901 638.128 423.966 638.336 424.039L638 425.062C637.823 425.005 637.622 424.953 637.398 424.906C637.18 424.854 636.956 424.828 636.727 424.828C636.232 424.828 635.865 424.99 635.625 425.312C635.391 425.63 635.273 426.13 635.273 426.812V427.438H637.406V428.453ZM642.795 427.281C642.967 427.281 643.147 427.292 643.334 427.312C643.522 427.328 643.688 427.352 643.834 427.383L643.67 428.586C643.529 428.549 643.373 428.521 643.201 428.5C643.029 428.479 642.868 428.469 642.717 428.469C642.373 428.469 642.048 428.539 641.74 428.68C641.438 428.815 641.173 429.013 640.943 429.273C640.714 429.529 640.535 429.839 640.404 430.203C640.274 430.562 640.209 430.964 640.209 431.406V436H638.904V427.438H639.983L640.123 429.016H640.178C640.355 428.698 640.568 428.409 640.818 428.148C641.068 427.883 641.358 427.672 641.686 427.516C642.019 427.359 642.389 427.281 642.795 427.281ZM648.574 427.297C649.595 427.297 650.353 427.526 650.848 427.984C651.343 428.443 651.59 429.174 651.59 430.18V436H650.645L650.395 434.734H650.332C650.093 435.047 649.843 435.31 649.582 435.523C649.322 435.732 649.02 435.891 648.676 436C648.337 436.104 647.921 436.156 647.426 436.156C646.905 436.156 646.442 436.065 646.035 435.883C645.634 435.701 645.317 435.424 645.082 435.055C644.853 434.685 644.738 434.216 644.738 433.648C644.738 432.794 645.077 432.138 645.754 431.68C646.431 431.221 647.462 430.971 648.848 430.93L650.324 430.867V430.344C650.324 429.604 650.166 429.086 649.848 428.789C649.53 428.492 649.082 428.344 648.504 428.344C648.056 428.344 647.629 428.409 647.223 428.539C646.817 428.669 646.431 428.823 646.067 429L645.668 428.016C646.054 427.818 646.496 427.648 646.996 427.508C647.496 427.367 648.022 427.297 648.574 427.297ZM650.309 431.781L649.004 431.836C647.936 431.878 647.184 432.052 646.746 432.359C646.309 432.667 646.09 433.102 646.09 433.664C646.09 434.154 646.238 434.516 646.535 434.75C646.832 434.984 647.225 435.102 647.715 435.102C648.475 435.102 649.098 434.891 649.582 434.469C650.067 434.047 650.309 433.414 650.309 432.57V431.781Z" fill="black"/>
<rect x="681" y="420.5" width="18" height="18" fill="#47BDC6"/>
<path d="M713.463 425.602C712.208 425.602 711.216 426.021 710.487 426.859C709.763 427.693 709.401 428.836 709.401 430.289C709.401 431.784 709.75 432.94 710.448 433.758C711.151 434.57 712.151 434.977 713.448 434.977C714.245 434.977 715.154 434.833 716.174 434.547V435.711C715.383 436.008 714.406 436.156 713.245 436.156C711.562 436.156 710.263 435.646 709.346 434.625C708.435 433.604 707.979 432.154 707.979 430.273C707.979 429.096 708.198 428.065 708.635 427.18C709.078 426.294 709.713 425.612 710.542 425.133C711.375 424.654 712.354 424.414 713.479 424.414C714.677 424.414 715.724 424.633 716.62 425.07L716.057 426.211C715.193 425.805 714.328 425.602 713.463 425.602ZM719.61 427.438V432.992C719.61 433.69 719.769 434.211 720.087 434.555C720.404 434.898 720.902 435.07 721.579 435.07C722.475 435.07 723.128 434.826 723.54 434.336C723.956 433.846 724.165 433.047 724.165 431.938V427.438H725.462V436H724.391L724.204 434.852H724.133C723.868 435.273 723.498 435.596 723.024 435.82C722.555 436.044 722.019 436.156 721.415 436.156C720.373 436.156 719.592 435.909 719.071 435.414C718.555 434.919 718.297 434.128 718.297 433.039V427.438H719.61ZM733.663 433.664C733.663 434.461 733.366 435.076 732.772 435.508C732.178 435.94 731.345 436.156 730.272 436.156C729.137 436.156 728.251 435.977 727.616 435.617V434.414C728.027 434.622 728.467 434.786 728.936 434.906C729.41 435.026 729.866 435.086 730.303 435.086C730.981 435.086 731.501 434.979 731.866 434.766C732.231 434.547 732.413 434.216 732.413 433.773C732.413 433.44 732.267 433.156 731.975 432.922C731.689 432.682 731.126 432.401 730.288 432.078C729.491 431.781 728.923 431.523 728.585 431.305C728.251 431.081 728.001 430.828 727.835 430.547C727.673 430.266 727.592 429.93 727.592 429.539C727.592 428.841 727.876 428.292 728.444 427.891C729.012 427.484 729.79 427.281 730.78 427.281C731.702 427.281 732.603 427.469 733.483 427.844L733.022 428.898C732.163 428.544 731.384 428.367 730.686 428.367C730.072 428.367 729.608 428.464 729.296 428.656C728.983 428.849 728.827 429.115 728.827 429.453C728.827 429.682 728.884 429.878 728.999 430.039C729.119 430.201 729.309 430.354 729.569 430.5C729.829 430.646 730.329 430.857 731.069 431.133C732.085 431.503 732.77 431.875 733.124 432.25C733.483 432.625 733.663 433.096 733.663 433.664ZM738.466 435.086C738.695 435.086 738.916 435.07 739.13 435.039C739.343 435.003 739.512 434.966 739.637 434.93V435.922C739.497 435.99 739.289 436.044 739.012 436.086C738.742 436.133 738.497 436.156 738.278 436.156C736.622 436.156 735.794 435.284 735.794 433.539V428.445H734.567V427.82L735.794 427.281L736.341 425.453H737.091V427.438H739.575V428.445H737.091V433.484C737.091 434 737.213 434.396 737.458 434.672C737.703 434.948 738.039 435.086 738.466 435.086ZM751.993 432.961C751.993 433.966 751.629 434.75 750.899 435.312C750.17 435.875 749.181 436.156 747.931 436.156C746.576 436.156 745.535 435.982 744.806 435.633V434.352C745.274 434.549 745.785 434.706 746.337 434.82C746.889 434.935 747.436 434.992 747.977 434.992C748.863 434.992 749.53 434.826 749.977 434.492C750.425 434.154 750.649 433.685 750.649 433.086C750.649 432.69 750.569 432.367 750.407 432.117C750.251 431.862 749.985 431.628 749.61 431.414C749.241 431.201 748.675 430.958 747.915 430.688C746.852 430.307 746.092 429.857 745.634 429.336C745.181 428.815 744.954 428.135 744.954 427.297C744.954 426.417 745.285 425.716 745.946 425.195C746.608 424.674 747.483 424.414 748.571 424.414C749.707 424.414 750.751 424.622 751.704 425.039L751.29 426.195C750.347 425.799 749.431 425.602 748.54 425.602C747.837 425.602 747.287 425.753 746.892 426.055C746.496 426.357 746.298 426.776 746.298 427.312C746.298 427.708 746.371 428.034 746.517 428.289C746.662 428.539 746.907 428.771 747.251 428.984C747.6 429.193 748.131 429.424 748.845 429.68C750.043 430.107 750.866 430.565 751.313 431.055C751.767 431.544 751.993 432.18 751.993 432.961ZM755.272 427.438V432.992C755.272 433.69 755.431 434.211 755.749 434.555C756.067 434.898 756.564 435.07 757.241 435.07C758.137 435.07 758.791 434.826 759.202 434.336C759.619 433.846 759.827 433.047 759.827 431.938V427.438H761.124V436H760.054L759.866 434.852H759.796C759.53 435.273 759.161 435.596 758.687 435.82C758.218 436.044 757.681 436.156 757.077 436.156C756.036 436.156 755.254 435.909 754.733 435.414C754.218 434.919 753.96 434.128 753.96 433.039V427.438H755.272ZM767.786 436.156C767.229 436.156 766.719 436.055 766.255 435.852C765.797 435.643 765.411 435.326 765.099 434.898H765.005C765.067 435.398 765.099 435.872 765.099 436.32V439.844H763.802V427.438H764.857L765.036 428.609H765.099C765.432 428.141 765.82 427.802 766.263 427.594C766.706 427.385 767.213 427.281 767.786 427.281C768.922 427.281 769.797 427.669 770.411 428.445C771.031 429.221 771.341 430.31 771.341 431.711C771.341 433.117 771.026 434.211 770.396 434.992C769.771 435.768 768.901 436.156 767.786 436.156ZM767.599 428.383C766.724 428.383 766.091 428.625 765.7 429.109C765.31 429.594 765.109 430.365 765.099 431.422V431.711C765.099 432.914 765.299 433.776 765.7 434.297C766.101 434.812 766.745 435.07 767.63 435.07C768.37 435.07 768.948 434.771 769.364 434.172C769.786 433.573 769.997 432.747 769.997 431.695C769.997 430.628 769.786 429.81 769.364 429.242C768.948 428.669 768.359 428.383 767.599 428.383ZM787.72 430.273C787.72 432.102 787.256 433.539 786.329 434.586C785.408 435.633 784.124 436.156 782.478 436.156C780.796 436.156 779.496 435.643 778.579 434.617C777.668 433.586 777.212 432.133 777.212 430.258C777.212 428.398 777.671 426.958 778.587 425.938C779.504 424.911 780.806 424.398 782.493 424.398C784.134 424.398 785.415 424.919 786.337 425.961C787.259 427.003 787.72 428.44 787.72 430.273ZM778.618 430.273C778.618 431.82 778.947 432.995 779.603 433.797C780.264 434.594 781.223 434.992 782.478 434.992C783.743 434.992 784.699 434.594 785.345 433.797C785.991 433 786.314 431.826 786.314 430.273C786.314 428.737 785.991 427.573 785.345 426.781C784.704 425.984 783.754 425.586 782.493 425.586C781.228 425.586 780.264 425.987 779.603 426.789C778.947 427.586 778.618 428.747 778.618 430.273ZM793.984 436.156C793.426 436.156 792.916 436.055 792.452 435.852C791.994 435.643 791.609 435.326 791.296 434.898H791.202C791.265 435.398 791.296 435.872 791.296 436.32V439.844H789.999V427.438H791.054L791.234 428.609H791.296C791.63 428.141 792.018 427.802 792.46 427.594C792.903 427.385 793.411 427.281 793.984 427.281C795.119 427.281 795.994 427.669 796.609 428.445C797.229 429.221 797.538 430.31 797.538 431.711C797.538 433.117 797.223 434.211 796.593 434.992C795.968 435.768 795.098 436.156 793.984 436.156ZM793.796 428.383C792.921 428.383 792.288 428.625 791.898 429.109C791.507 429.594 791.307 430.365 791.296 431.422V431.711C791.296 432.914 791.497 433.776 791.898 434.297C792.299 434.812 792.942 435.07 793.827 435.07C794.567 435.07 795.145 434.771 795.562 434.172C795.984 433.573 796.195 432.747 796.195 431.695C796.195 430.628 795.984 429.81 795.562 429.242C795.145 428.669 794.557 428.383 793.796 428.383ZM805.255 433.664C805.255 434.461 804.958 435.076 804.365 435.508C803.771 435.94 802.938 436.156 801.865 436.156C800.729 436.156 799.844 435.977 799.208 435.617V434.414C799.62 434.622 800.06 434.786 800.529 434.906C801.003 435.026 801.458 435.086 801.896 435.086C802.573 435.086 803.094 434.979 803.458 434.766C803.823 434.547 804.005 434.216 804.005 433.773C804.005 433.44 803.859 433.156 803.568 432.922C803.281 432.682 802.719 432.401 801.88 432.078C801.083 431.781 800.516 431.523 800.177 431.305C799.844 431.081 799.594 430.828 799.427 430.547C799.266 430.266 799.185 429.93 799.185 429.539C799.185 428.841 799.469 428.292 800.037 427.891C800.604 427.484 801.383 427.281 802.372 427.281C803.294 427.281 804.195 427.469 805.076 427.844L804.615 428.898C803.755 428.544 802.977 428.367 802.279 428.367C801.664 428.367 801.201 428.464 800.888 428.656C800.576 428.849 800.419 429.115 800.419 429.453C800.419 429.682 800.477 429.878 800.591 430.039C800.711 430.201 800.901 430.354 801.162 430.5C801.422 430.646 801.922 430.857 802.662 431.133C803.677 431.503 804.362 431.875 804.716 432.25C805.076 432.625 805.255 433.096 805.255 433.664Z" fill="black"/>
<rect x="834" y="420.5" width="18" height="18" fill="#3830C9"/>
<path d="M868.924 427.906C868.924 429.062 868.529 429.953 867.737 430.578C866.95 431.198 865.823 431.508 864.354 431.508H863.01V436H861.682V424.578H864.643C867.497 424.578 868.924 425.688 868.924 427.906ZM863.01 430.367H864.206C865.383 430.367 866.234 430.177 866.76 429.797C867.286 429.417 867.549 428.807 867.549 427.969C867.549 427.214 867.302 426.651 866.807 426.281C866.312 425.911 865.542 425.727 864.495 425.727H863.01V430.367ZM874.954 427.281C875.334 427.281 875.675 427.312 875.977 427.375L875.797 428.578C875.443 428.5 875.131 428.461 874.86 428.461C874.167 428.461 873.574 428.742 873.079 429.305C872.589 429.867 872.344 430.568 872.344 431.406V436H871.047V427.438H872.118L872.266 429.023H872.329C872.646 428.466 873.029 428.036 873.477 427.734C873.925 427.432 874.417 427.281 874.954 427.281ZM884.889 431.711C884.889 433.107 884.538 434.198 883.835 434.984C883.132 435.766 882.16 436.156 880.921 436.156C880.155 436.156 879.475 435.977 878.882 435.617C878.288 435.258 877.829 434.742 877.507 434.07C877.184 433.398 877.022 432.612 877.022 431.711C877.022 430.315 877.371 429.229 878.069 428.453C878.767 427.672 879.736 427.281 880.975 427.281C882.173 427.281 883.124 427.68 883.827 428.477C884.535 429.273 884.889 430.352 884.889 431.711ZM878.366 431.711C878.366 432.805 878.585 433.638 879.022 434.211C879.46 434.784 880.103 435.07 880.952 435.07C881.801 435.07 882.444 434.786 882.882 434.219C883.324 433.646 883.546 432.81 883.546 431.711C883.546 430.622 883.324 429.797 882.882 429.234C882.444 428.667 881.796 428.383 880.936 428.383C880.087 428.383 879.447 428.661 879.014 429.219C878.582 429.776 878.366 430.607 878.366 431.711ZM890.95 428.445H888.77V436H887.473V428.445H885.942V427.859L887.473 427.391V426.914C887.473 424.81 888.393 423.758 890.231 423.758C890.684 423.758 891.216 423.849 891.825 424.031L891.489 425.07C890.989 424.909 890.562 424.828 890.208 424.828C889.718 424.828 889.356 424.992 889.122 425.32C888.887 425.643 888.77 426.164 888.77 426.883V427.438H890.95V428.445ZM893.809 436H892.512V427.438H893.809V436ZM892.403 425.117C892.403 424.82 892.476 424.604 892.622 424.469C892.768 424.328 892.95 424.258 893.169 424.258C893.377 424.258 893.557 424.328 893.708 424.469C893.859 424.609 893.934 424.826 893.934 425.117C893.934 425.409 893.859 425.628 893.708 425.773C893.557 425.914 893.377 425.984 893.169 425.984C892.95 425.984 892.768 425.914 892.622 425.773C892.476 425.628 892.403 425.409 892.403 425.117ZM899.245 435.086C899.474 435.086 899.696 435.07 899.909 435.039C900.123 435.003 900.292 434.966 900.417 434.93V435.922C900.276 435.99 900.068 436.044 899.792 436.086C899.521 436.133 899.276 436.156 899.057 436.156C897.401 436.156 896.573 435.284 896.573 433.539V428.445H895.347V427.82L896.573 427.281L897.12 425.453H897.87V427.438H900.354V428.445H897.87V433.484C897.87 434 897.992 434.396 898.237 434.672C898.482 434.948 898.818 435.086 899.245 435.086ZM911.382 436L907.507 425.875H907.444C907.517 426.677 907.554 427.63 907.554 428.734V436H906.327V424.578H908.327L911.944 434H912.007L915.655 424.578H917.64V436H916.312V428.641C916.312 427.797 916.348 426.88 916.421 425.891H916.358L912.452 436H911.382ZM925.771 436L925.513 434.781H925.45C925.023 435.318 924.596 435.682 924.169 435.875C923.747 436.062 923.219 436.156 922.583 436.156C921.734 436.156 921.067 435.938 920.583 435.5C920.104 435.062 919.864 434.44 919.864 433.633C919.864 431.904 921.247 430.997 924.013 430.914L925.466 430.867V430.336C925.466 429.664 925.32 429.169 925.028 428.852C924.742 428.529 924.281 428.367 923.646 428.367C922.932 428.367 922.125 428.586 921.224 429.023L920.825 428.031C921.247 427.802 921.708 427.622 922.208 427.492C922.713 427.362 923.219 427.297 923.724 427.297C924.745 427.297 925.5 427.523 925.989 427.977C926.484 428.43 926.732 429.156 926.732 430.156V436H925.771ZM922.841 435.086C923.648 435.086 924.281 434.865 924.739 434.422C925.203 433.979 925.435 433.359 925.435 432.562V431.789L924.138 431.844C923.107 431.88 922.362 432.042 921.903 432.328C921.45 432.609 921.224 433.049 921.224 433.648C921.224 434.117 921.364 434.474 921.646 434.719C921.932 434.964 922.331 435.086 922.841 435.086ZM933.238 427.281C933.618 427.281 933.959 427.312 934.261 427.375L934.081 428.578C933.727 428.5 933.415 428.461 933.144 428.461C932.451 428.461 931.857 428.742 931.363 429.305C930.873 429.867 930.628 430.568 930.628 431.406V436H929.331V427.438H930.402L930.55 429.023H930.613C930.93 428.466 931.313 428.036 931.761 427.734C932.209 427.432 932.701 427.281 933.238 427.281ZM942.79 427.438V428.258L941.204 428.445C941.35 428.628 941.48 428.867 941.595 429.164C941.71 429.456 941.767 429.786 941.767 430.156C941.767 430.995 941.48 431.664 940.908 432.164C940.335 432.664 939.548 432.914 938.548 432.914C938.293 432.914 938.053 432.893 937.829 432.852C937.277 433.143 937.001 433.51 937.001 433.953C937.001 434.188 937.098 434.362 937.29 434.477C937.483 434.586 937.814 434.641 938.283 434.641H939.798C940.725 434.641 941.436 434.836 941.931 435.227C942.431 435.617 942.681 436.185 942.681 436.93C942.681 437.878 942.301 438.599 941.54 439.094C940.78 439.594 939.671 439.844 938.212 439.844C937.092 439.844 936.228 439.635 935.618 439.219C935.014 438.802 934.712 438.214 934.712 437.453C934.712 436.932 934.879 436.482 935.212 436.102C935.546 435.721 936.014 435.464 936.618 435.328C936.4 435.229 936.215 435.076 936.064 434.867C935.918 434.659 935.845 434.417 935.845 434.141C935.845 433.828 935.928 433.555 936.095 433.32C936.262 433.086 936.525 432.859 936.884 432.641C936.441 432.458 936.079 432.148 935.798 431.711C935.522 431.273 935.384 430.773 935.384 430.211C935.384 429.273 935.665 428.552 936.228 428.047C936.79 427.536 937.587 427.281 938.618 427.281C939.066 427.281 939.47 427.333 939.829 427.438H942.79ZM935.962 437.438C935.962 437.901 936.158 438.253 936.548 438.492C936.939 438.732 937.499 438.852 938.228 438.852C939.316 438.852 940.121 438.688 940.642 438.359C941.168 438.036 941.431 437.596 941.431 437.039C941.431 436.576 941.288 436.253 941.001 436.07C940.715 435.893 940.176 435.805 939.384 435.805H937.829C937.241 435.805 936.783 435.945 936.454 436.227C936.126 436.508 935.962 436.911 935.962 437.438ZM936.665 430.18C936.665 430.779 936.835 431.232 937.173 431.539C937.512 431.846 937.983 432 938.587 432C939.853 432 940.486 431.385 940.486 430.156C940.486 428.87 939.845 428.227 938.564 428.227C937.954 428.227 937.486 428.391 937.158 428.719C936.829 429.047 936.665 429.534 936.665 430.18ZM945.765 436H944.468V427.438H945.765V436ZM944.359 425.117C944.359 424.82 944.432 424.604 944.577 424.469C944.723 424.328 944.906 424.258 945.124 424.258C945.333 424.258 945.512 424.328 945.663 424.469C945.814 424.609 945.89 424.826 945.89 425.117C945.89 425.409 945.814 425.628 945.663 425.773C945.512 425.914 945.333 425.984 945.124 425.984C944.906 425.984 944.723 425.914 944.577 425.773C944.432 425.628 944.359 425.409 944.359 425.117ZM954.294 436V430.461C954.294 429.763 954.136 429.242 953.818 428.898C953.5 428.555 953.003 428.383 952.326 428.383C951.43 428.383 950.774 428.625 950.357 429.109C949.94 429.594 949.732 430.393 949.732 431.508V436H948.435V427.438H949.49L949.701 428.609H949.763C950.029 428.188 950.401 427.862 950.88 427.633C951.359 427.398 951.893 427.281 952.482 427.281C953.513 427.281 954.289 427.531 954.81 428.031C955.331 428.526 955.591 429.32 955.591 430.414V436H954.294Z" fill="black"/>
<rect x="726" y="88" width="200" height="212" fill="white"/>
<rect x="726" y="146" width="200" height="4" fill="#36A853"/>
<rect x="726" y="150" width="200" height="54" fill="#88B3F9"/>
<rect x="726" y="212" width="200" height="56" fill="#47BDC6"/>
<rect x="726" y="268" width="200" height="32" fill="#FF6D00"/>
<rect x="726" y="88" width="200" height="58" fill="#3830C9"/>
<rect x="726" y="208" width="200" height="4" fill="#FBBC01"/>
<rect x="726" y="204" width="200" height="4" fill="#E94235"/>
</svg>
