<svg width="326" height="262" viewBox="0 0 326 262" fill="none" xmlns="http://www.w3.org/2000/svg">
<path d="M50 181L326 181" stroke="black" stroke-opacity="0.1"/>
<path d="M6.53211 181.705C6.53211 182.4 6.47938 183.021 6.37391 183.568C6.26844 184.115 6.10242 184.578 5.87586 184.957C5.6493 185.336 5.35633 185.625 4.99695 185.824C4.63758 186.02 4.20594 186.117 3.70203 186.117C3.06531 186.117 2.53797 185.943 2.12 185.596C1.70594 185.248 1.39539 184.746 1.18836 184.09C0.985235 183.43 0.883673 182.635 0.883673 181.705C0.883673 180.791 0.97547 180.006 1.15906 179.35C1.34656 178.689 1.64734 178.184 2.06141 177.832C2.47547 177.477 3.02234 177.299 3.70203 177.299C4.34656 177.299 4.87781 177.475 5.29578 177.826C5.71375 178.174 6.0243 178.678 6.22742 179.338C6.43055 179.994 6.53211 180.783 6.53211 181.705ZM1.86219 181.705C1.86219 182.502 1.92274 183.166 2.04383 183.697C2.16492 184.229 2.36024 184.627 2.62977 184.893C2.9032 185.154 3.26063 185.285 3.70203 185.285C4.14344 185.285 4.49891 185.154 4.76844 184.893C5.04188 184.631 5.23914 184.234 5.36024 183.703C5.48524 183.172 5.54774 182.506 5.54774 181.705C5.54774 180.92 5.48719 180.264 5.36609 179.736C5.245 179.205 5.04969 178.807 4.78016 178.541C4.51063 178.271 4.15125 178.137 3.70203 178.137C3.25281 178.137 2.89344 178.271 2.62391 178.541C2.35438 178.807 2.15906 179.205 2.03797 179.736C1.92078 180.264 1.86219 180.92 1.86219 181.705ZM13.3393 181.705C13.3393 182.4 13.2866 183.021 13.1811 183.568C13.0756 184.115 12.9096 184.578 12.683 184.957C12.4565 185.336 12.1635 185.625 11.8041 185.824C11.4448 186.02 11.0131 186.117 10.5092 186.117C9.8725 186.117 9.34516 185.943 8.92719 185.596C8.51313 185.248 8.20258 184.746 7.99555 184.09C7.79242 183.43 7.69086 182.635 7.69086 181.705C7.69086 180.791 7.78266 180.006 7.96625 179.35C8.15375 178.689 8.45453 178.184 8.86859 177.832C9.28266 177.477 9.82953 177.299 10.5092 177.299C11.1538 177.299 11.685 177.475 12.103 177.826C12.5209 178.174 12.8315 178.678 13.0346 179.338C13.2377 179.994 13.3393 180.783 13.3393 181.705ZM8.66938 181.705C8.66938 182.502 8.72992 183.166 8.85102 183.697C8.97211 184.229 9.16742 184.627 9.43695 184.893C9.71039 185.154 10.0678 185.285 10.5092 185.285C10.9506 185.285 11.3061 185.154 11.5756 184.893C11.8491 184.631 12.0463 184.234 12.1674 183.703C12.2924 183.172 12.3549 182.506 12.3549 181.705C12.3549 180.92 12.2944 180.264 12.1733 179.736C12.0522 179.205 11.8569 178.807 11.5873 178.541C11.3178 178.271 10.9584 178.137 10.5092 178.137C10.06 178.137 9.70063 178.271 9.43109 178.541C9.16156 178.807 8.96625 179.205 8.84516 179.736C8.72797 180.264 8.66938 180.92 8.66938 181.705ZM14.7734 185.391C14.7734 185.117 14.8398 184.924 14.9727 184.811C15.1055 184.693 15.2676 184.635 15.459 184.635C15.6582 184.635 15.8262 184.693 15.9629 184.811C16.0996 184.924 16.168 185.117 16.168 185.391C16.168 185.66 16.0996 185.857 15.9629 185.982C15.8262 186.104 15.6582 186.164 15.459 186.164C15.2676 186.164 15.1055 186.104 14.9727 185.982C14.8398 185.857 14.7734 185.66 14.7734 185.391ZM23.2388 181.705C23.2388 182.4 23.1861 183.021 23.0806 183.568C22.9752 184.115 22.8091 184.578 22.5826 184.957C22.356 185.336 22.063 185.625 21.7037 185.824C21.3443 186.02 20.9127 186.117 20.4088 186.117C19.772 186.117 19.2447 185.943 18.8267 185.596C18.4127 185.248 18.1021 184.746 17.8951 184.09C17.692 183.43 17.5904 182.635 17.5904 181.705C17.5904 180.791 17.6822 180.006 17.8658 179.35C18.0533 178.689 18.3541 178.184 18.7681 177.832C19.1822 177.477 19.7291 177.299 20.4088 177.299C21.0533 177.299 21.5845 177.475 22.0025 177.826C22.4205 178.174 22.731 178.678 22.9341 179.338C23.1373 179.994 23.2388 180.783 23.2388 181.705ZM18.5689 181.705C18.5689 182.502 18.6295 183.166 18.7505 183.697C18.8716 184.229 19.067 184.627 19.3365 184.893C19.6099 185.154 19.9673 185.285 20.4088 185.285C20.8502 185.285 21.2056 185.154 21.4752 184.893C21.7486 184.631 21.9459 184.234 22.067 183.703C22.192 183.172 22.2545 182.506 22.2545 181.705C22.2545 180.92 22.1939 180.264 22.0728 179.736C21.9517 179.205 21.7564 178.807 21.4869 178.541C21.2173 178.271 20.858 178.137 20.4088 178.137C19.9595 178.137 19.6002 178.271 19.3306 178.541C19.0611 178.807 18.8658 179.205 18.7447 179.736C18.6275 180.264 18.5689 180.92 18.5689 181.705ZM26.132 177.311C26.7179 177.311 27.1613 177.545 27.462 178.014C27.7667 178.479 27.9191 179.137 27.9191 179.988C27.9191 180.84 27.7726 181.504 27.4796 181.98C27.1866 182.453 26.7374 182.689 26.132 182.689C25.5695 182.689 25.1378 182.453 24.837 181.98C24.5402 181.504 24.3917 180.84 24.3917 179.988C24.3917 179.137 24.5343 178.479 24.8195 178.014C25.1046 177.545 25.5421 177.311 26.132 177.311ZM26.132 178.008C25.8155 178.008 25.5831 178.174 25.4347 178.506C25.2863 178.834 25.212 179.328 25.212 179.988C25.212 180.648 25.2863 181.146 25.4347 181.482C25.5831 181.818 25.8155 181.986 26.132 181.986C26.4601 181.986 26.7042 181.818 26.8644 181.482C27.0245 181.146 27.1046 180.648 27.1046 179.988C27.1046 179.332 27.0245 178.838 26.8644 178.506C26.7081 178.174 26.464 178.008 26.132 178.008ZM31.5577 177.434L26.8058 186H25.9503L30.7023 177.434H31.5577ZM31.3292 180.744C31.9113 180.744 32.3546 180.979 32.6593 181.447C32.964 181.912 33.1163 182.57 33.1163 183.422C33.1163 184.27 32.9698 184.932 32.6769 185.408C32.3839 185.881 31.9347 186.117 31.3292 186.117C30.7628 186.117 30.3312 185.881 30.0343 185.408C29.7374 184.932 29.589 184.27 29.589 183.422C29.589 182.57 29.7296 181.912 30.0109 181.447C30.296 180.979 30.7355 180.744 31.3292 180.744ZM31.3292 181.447C31.0128 181.447 30.7804 181.611 30.632 181.939C30.4835 182.268 30.4093 182.762 30.4093 183.422C30.4093 184.082 30.4835 184.58 30.632 184.916C30.7804 185.248 31.0128 185.414 31.3292 185.414C31.6573 185.414 31.9015 185.25 32.0616 184.922C32.2218 184.59 32.3019 184.09 32.3019 183.422C32.3019 182.766 32.2218 182.273 32.0616 181.945C31.9054 181.613 31.6613 181.447 31.3292 181.447Z" fill="black"/>
<path d="M50 147L326 147" stroke="black" stroke-opacity="0.1"/>
<path d="M6.53211 147.705C6.53211 148.4 6.47938 149.021 6.37391 149.568C6.26844 150.115 6.10242 150.578 5.87586 150.957C5.6493 151.336 5.35633 151.625 4.99695 151.824C4.63758 152.02 4.20594 152.117 3.70203 152.117C3.06531 152.117 2.53797 151.943 2.12 151.596C1.70594 151.248 1.39539 150.746 1.18836 150.09C0.985235 149.43 0.883673 148.635 0.883673 147.705C0.883673 146.791 0.97547 146.006 1.15906 145.35C1.34656 144.689 1.64734 144.184 2.06141 143.832C2.47547 143.477 3.02234 143.299 3.70203 143.299C4.34656 143.299 4.87781 143.475 5.29578 143.826C5.71375 144.174 6.0243 144.678 6.22742 145.338C6.43055 145.994 6.53211 146.783 6.53211 147.705ZM1.86219 147.705C1.86219 148.502 1.92274 149.166 2.04383 149.697C2.16492 150.229 2.36024 150.627 2.62977 150.893C2.9032 151.154 3.26063 151.285 3.70203 151.285C4.14344 151.285 4.49891 151.154 4.76844 150.893C5.04188 150.631 5.23914 150.234 5.36024 149.703C5.48524 149.172 5.54774 148.506 5.54774 147.705C5.54774 146.92 5.48719 146.264 5.36609 145.736C5.245 145.205 5.04969 144.807 4.78016 144.541C4.51063 144.271 4.15125 144.137 3.70203 144.137C3.25281 144.137 2.89344 144.271 2.62391 144.541C2.35438 144.807 2.15906 145.205 2.03797 145.736C1.92078 146.264 1.86219 146.92 1.86219 147.705ZM11.3002 152H10.351V145.93C10.351 145.699 10.351 145.502 10.351 145.338C10.3549 145.17 10.3588 145.018 10.3627 144.881C10.3705 144.74 10.3803 144.598 10.392 144.453C10.2709 144.578 10.1577 144.686 10.0522 144.775C9.94672 144.861 9.81586 144.969 9.65961 145.098L8.68109 145.883L8.17133 145.221L10.4916 143.434H11.3002V152ZM14.7734 151.391C14.7734 151.117 14.8398 150.924 14.9727 150.811C15.1055 150.693 15.2676 150.635 15.459 150.635C15.6582 150.635 15.8262 150.693 15.9629 150.811C16.0996 150.924 16.168 151.117 16.168 151.391C16.168 151.66 16.0996 151.857 15.9629 151.982C15.8262 152.104 15.6582 152.164 15.459 152.164C15.2676 152.164 15.1055 152.104 14.9727 151.982C14.8398 151.857 14.7734 151.66 14.7734 151.391ZM23.2388 147.705C23.2388 148.4 23.1861 149.021 23.0806 149.568C22.9752 150.115 22.8091 150.578 22.5826 150.957C22.356 151.336 22.063 151.625 21.7037 151.824C21.3443 152.02 20.9127 152.117 20.4088 152.117C19.772 152.117 19.2447 151.943 18.8267 151.596C18.4127 151.248 18.1021 150.746 17.8951 150.09C17.692 149.43 17.5904 148.635 17.5904 147.705C17.5904 146.791 17.6822 146.006 17.8658 145.35C18.0533 144.689 18.3541 144.184 18.7681 143.832C19.1822 143.477 19.7291 143.299 20.4088 143.299C21.0533 143.299 21.5845 143.475 22.0025 143.826C22.4205 144.174 22.731 144.678 22.9341 145.338C23.1373 145.994 23.2388 146.783 23.2388 147.705ZM18.5689 147.705C18.5689 148.502 18.6295 149.166 18.7505 149.697C18.8716 150.229 19.067 150.627 19.3365 150.893C19.6099 151.154 19.9673 151.285 20.4088 151.285C20.8502 151.285 21.2056 151.154 21.4752 150.893C21.7486 150.631 21.9459 150.234 22.067 149.703C22.192 149.172 22.2545 148.506 22.2545 147.705C22.2545 146.92 22.1939 146.264 22.0728 145.736C21.9517 145.205 21.7564 144.807 21.4869 144.541C21.2173 144.271 20.858 144.137 20.4088 144.137C19.9595 144.137 19.6002 144.271 19.3306 144.541C19.0611 144.807 18.8658 145.205 18.7447 145.736C18.6275 146.264 18.5689 146.92 18.5689 147.705ZM26.132 143.311C26.7179 143.311 27.1613 143.545 27.462 144.014C27.7667 144.479 27.9191 145.137 27.9191 145.988C27.9191 146.84 27.7726 147.504 27.4796 147.98C27.1866 148.453 26.7374 148.689 26.132 148.689C25.5695 148.689 25.1378 148.453 24.837 147.98C24.5402 147.504 24.3917 146.84 24.3917 145.988C24.3917 145.137 24.5343 144.479 24.8195 144.014C25.1046 143.545 25.5421 143.311 26.132 143.311ZM26.132 144.008C25.8155 144.008 25.5831 144.174 25.4347 144.506C25.2863 144.834 25.212 145.328 25.212 145.988C25.212 146.648 25.2863 147.146 25.4347 147.482C25.5831 147.818 25.8155 147.986 26.132 147.986C26.4601 147.986 26.7042 147.818 26.8644 147.482C27.0245 147.146 27.1046 146.648 27.1046 145.988C27.1046 145.332 27.0245 144.838 26.8644 144.506C26.7081 144.174 26.464 144.008 26.132 144.008ZM31.5577 143.434L26.8058 152H25.9503L30.7023 143.434H31.5577ZM31.3292 146.744C31.9113 146.744 32.3546 146.979 32.6593 147.447C32.964 147.912 33.1163 148.57 33.1163 149.422C33.1163 150.27 32.9698 150.932 32.6769 151.408C32.3839 151.881 31.9347 152.117 31.3292 152.117C30.7628 152.117 30.3312 151.881 30.0343 151.408C29.7374 150.932 29.589 150.27 29.589 149.422C29.589 148.57 29.7296 147.912 30.0109 147.447C30.296 146.979 30.7355 146.744 31.3292 146.744ZM31.3292 147.447C31.0128 147.447 30.7804 147.611 30.632 147.939C30.4835 148.268 30.4093 148.762 30.4093 149.422C30.4093 150.082 30.4835 150.58 30.632 150.916C30.7804 151.248 31.0128 151.414 31.3292 151.414C31.6573 151.414 31.9015 151.25 32.0616 150.922C32.2218 150.59 32.3019 150.09 32.3019 149.422C32.3019 148.766 32.2218 148.273 32.0616 147.945C31.9054 147.613 31.6613 147.447 31.3292 147.447Z" fill="black"/>
<path d="M50 113L326 113" stroke="black" stroke-opacity="0.1"/>
<path d="M6.53211 113.705C6.53211 114.4 6.47938 115.021 6.37391 115.568C6.26844 116.115 6.10242 116.578 5.87586 116.957C5.6493 117.336 5.35633 117.625 4.99695 117.824C4.63758 118.02 4.20594 118.117 3.70203 118.117C3.06531 118.117 2.53797 117.943 2.12 117.596C1.70594 117.248 1.39539 116.746 1.18836 116.09C0.985235 115.43 0.883673 114.635 0.883673 113.705C0.883673 112.791 0.97547 112.006 1.15906 111.35C1.34656 110.689 1.64734 110.184 2.06141 109.832C2.47547 109.477 3.02234 109.299 3.70203 109.299C4.34656 109.299 4.87781 109.475 5.29578 109.826C5.71375 110.174 6.0243 110.678 6.22742 111.338C6.43055 111.994 6.53211 112.783 6.53211 113.705ZM1.86219 113.705C1.86219 114.502 1.92274 115.166 2.04383 115.697C2.16492 116.229 2.36024 116.627 2.62977 116.893C2.9032 117.154 3.26063 117.285 3.70203 117.285C4.14344 117.285 4.49891 117.154 4.76844 116.893C5.04188 116.631 5.23914 116.234 5.36024 115.703C5.48524 115.172 5.54774 114.506 5.54774 113.705C5.54774 112.92 5.48719 112.264 5.36609 111.736C5.245 111.205 5.04969 110.807 4.78016 110.541C4.51063 110.271 4.15125 110.137 3.70203 110.137C3.25281 110.137 2.89344 110.271 2.62391 110.541C2.35438 110.807 2.15906 111.205 2.03797 111.736C1.92078 112.264 1.86219 112.92 1.86219 113.705ZM13.2924 118H7.67914V117.186L9.97016 114.859C10.3959 114.43 10.7534 114.047 11.0424 113.711C11.3354 113.375 11.558 113.045 11.7104 112.721C11.8627 112.393 11.9389 112.033 11.9389 111.643C11.9389 111.158 11.7944 110.789 11.5053 110.535C11.2202 110.277 10.8432 110.148 10.3745 110.148C9.9643 110.148 9.60102 110.219 9.28461 110.359C8.9682 110.5 8.64399 110.699 8.31195 110.957L7.79047 110.301C8.01703 110.109 8.26313 109.939 8.52875 109.791C8.79828 109.643 9.08539 109.525 9.39008 109.439C9.69867 109.354 10.0268 109.311 10.3745 109.311C10.9018 109.311 11.3569 109.402 11.7397 109.586C12.1225 109.77 12.4174 110.031 12.6245 110.371C12.8354 110.711 12.9409 111.115 12.9409 111.584C12.9409 112.037 12.851 112.459 12.6713 112.85C12.4916 113.236 12.2397 113.621 11.9155 114.004C11.5913 114.383 11.2123 114.785 10.7788 115.211L8.91547 117.068V117.109H13.2924V118ZM14.7734 117.391C14.7734 117.117 14.8398 116.924 14.9727 116.811C15.1055 116.693 15.2676 116.635 15.459 116.635C15.6582 116.635 15.8262 116.693 15.9629 116.811C16.0996 116.924 16.168 117.117 16.168 117.391C16.168 117.66 16.0996 117.857 15.9629 117.982C15.8262 118.104 15.6582 118.164 15.459 118.164C15.2676 118.164 15.1055 118.104 14.9727 117.982C14.8398 117.857 14.7734 117.66 14.7734 117.391ZM23.2388 113.705C23.2388 114.4 23.1861 115.021 23.0806 115.568C22.9752 116.115 22.8091 116.578 22.5826 116.957C22.356 117.336 22.063 117.625 21.7037 117.824C21.3443 118.02 20.9127 118.117 20.4088 118.117C19.772 118.117 19.2447 117.943 18.8267 117.596C18.4127 117.248 18.1021 116.746 17.8951 116.09C17.692 115.43 17.5904 114.635 17.5904 113.705C17.5904 112.791 17.6822 112.006 17.8658 111.35C18.0533 110.689 18.3541 110.184 18.7681 109.832C19.1822 109.477 19.7291 109.299 20.4088 109.299C21.0533 109.299 21.5845 109.475 22.0025 109.826C22.4205 110.174 22.731 110.678 22.9341 111.338C23.1373 111.994 23.2388 112.783 23.2388 113.705ZM18.5689 113.705C18.5689 114.502 18.6295 115.166 18.7505 115.697C18.8716 116.229 19.067 116.627 19.3365 116.893C19.6099 117.154 19.9673 117.285 20.4088 117.285C20.8502 117.285 21.2056 117.154 21.4752 116.893C21.7486 116.631 21.9459 116.234 22.067 115.703C22.192 115.172 22.2545 114.506 22.2545 113.705C22.2545 112.92 22.1939 112.264 22.0728 111.736C21.9517 111.205 21.7564 110.807 21.4869 110.541C21.2173 110.271 20.858 110.137 20.4088 110.137C19.9595 110.137 19.6002 110.271 19.3306 110.541C19.0611 110.807 18.8658 111.205 18.7447 111.736C18.6275 112.264 18.5689 112.92 18.5689 113.705ZM26.132 109.311C26.7179 109.311 27.1613 109.545 27.462 110.014C27.7667 110.479 27.9191 111.137 27.9191 111.988C27.9191 112.84 27.7726 113.504 27.4796 113.98C27.1866 114.453 26.7374 114.689 26.132 114.689C25.5695 114.689 25.1378 114.453 24.837 113.98C24.5402 113.504 24.3917 112.84 24.3917 111.988C24.3917 111.137 24.5343 110.479 24.8195 110.014C25.1046 109.545 25.5421 109.311 26.132 109.311ZM26.132 110.008C25.8155 110.008 25.5831 110.174 25.4347 110.506C25.2863 110.834 25.212 111.328 25.212 111.988C25.212 112.648 25.2863 113.146 25.4347 113.482C25.5831 113.818 25.8155 113.986 26.132 113.986C26.4601 113.986 26.7042 113.818 26.8644 113.482C27.0245 113.146 27.1046 112.648 27.1046 111.988C27.1046 111.332 27.0245 110.838 26.8644 110.506C26.7081 110.174 26.464 110.008 26.132 110.008ZM31.5577 109.434L26.8058 118H25.9503L30.7023 109.434H31.5577ZM31.3292 112.744C31.9113 112.744 32.3546 112.979 32.6593 113.447C32.964 113.912 33.1163 114.57 33.1163 115.422C33.1163 116.27 32.9698 116.932 32.6769 117.408C32.3839 117.881 31.9347 118.117 31.3292 118.117C30.7628 118.117 30.3312 117.881 30.0343 117.408C29.7374 116.932 29.589 116.27 29.589 115.422C29.589 114.57 29.7296 113.912 30.0109 113.447C30.296 112.979 30.7355 112.744 31.3292 112.744ZM31.3292 113.447C31.0128 113.447 30.7804 113.611 30.632 113.939C30.4835 114.268 30.4093 114.762 30.4093 115.422C30.4093 116.082 30.4835 116.58 30.632 116.916C30.7804 117.248 31.0128 117.414 31.3292 117.414C31.6573 117.414 31.9015 117.25 32.0616 116.922C32.2218 116.59 32.3019 116.09 32.3019 115.422C32.3019 114.766 32.2218 114.273 32.0616 113.945C31.9054 113.613 31.6613 113.447 31.3292 113.447Z" fill="black"/>
<path d="M50 79L326 79" stroke="black" stroke-opacity="0.1"/>
<path d="M6.53211 79.7051C6.53211 80.4004 6.47938 81.0215 6.37391 81.5684C6.26844 82.1152 6.10242 82.5781 5.87586 82.957C5.6493 83.3359 5.35633 83.625 4.99695 83.8242C4.63758 84.0195 4.20594 84.1172 3.70203 84.1172C3.06531 84.1172 2.53797 83.9434 2.12 83.5957C1.70594 83.248 1.39539 82.7461 1.18836 82.0898C0.985235 81.4297 0.883673 80.6348 0.883673 79.7051C0.883673 78.791 0.97547 78.0059 1.15906 77.3496C1.34656 76.6895 1.64734 76.1836 2.06141 75.832C2.47547 75.4766 3.02234 75.2988 3.70203 75.2988C4.34656 75.2988 4.87781 75.4746 5.29578 75.8262C5.71375 76.1738 6.0243 76.6777 6.22742 77.3379C6.43055 77.9941 6.53211 78.7832 6.53211 79.7051ZM1.86219 79.7051C1.86219 80.502 1.92274 81.166 2.04383 81.6973C2.16492 82.2285 2.36024 82.627 2.62977 82.8926C2.9032 83.1543 3.26063 83.2852 3.70203 83.2852C4.14344 83.2852 4.49891 83.1543 4.76844 82.8926C5.04188 82.6309 5.23914 82.2344 5.36024 81.7031C5.48524 81.1719 5.54774 80.5059 5.54774 79.7051C5.54774 78.9199 5.48719 78.2637 5.36609 77.7363C5.245 77.2051 5.04969 76.8066 4.78016 76.541C4.51063 76.2715 4.15125 76.1367 3.70203 76.1367C3.25281 76.1367 2.89344 76.2715 2.62391 76.541C2.35438 76.8066 2.15906 77.2051 2.03797 77.7363C1.92078 78.2637 1.86219 78.9199 1.86219 79.7051ZM12.976 77.4316C12.976 77.8145 12.9018 78.1465 12.7534 78.4277C12.6049 78.709 12.3979 78.9395 12.1323 79.1191C11.8666 79.2949 11.5541 79.418 11.1948 79.4883V79.5352C11.8745 79.6211 12.3842 79.8398 12.7241 80.1914C13.0678 80.543 13.2397 81.0039 13.2397 81.5742C13.2397 82.0703 13.1225 82.5098 12.8881 82.8926C12.6577 83.2754 12.3022 83.5762 11.8217 83.7949C11.3452 84.0098 10.7338 84.1172 9.98774 84.1172C9.53461 84.1172 9.11469 84.0801 8.72797 84.0059C8.34516 83.9355 7.97797 83.8164 7.62641 83.6484V82.7344C7.98188 82.9102 8.36859 83.0488 8.78656 83.1504C9.20453 83.248 9.60883 83.2969 9.99945 83.2969C10.7807 83.2969 11.3452 83.1426 11.6928 82.834C12.0405 82.5215 12.2143 82.0957 12.2143 81.5566C12.2143 81.1855 12.1166 80.8867 11.9213 80.6602C11.7299 80.4297 11.4526 80.2617 11.0893 80.1562C10.7299 80.0469 10.2963 79.9922 9.78852 79.9922H8.93305V79.1602H9.79438C10.2592 79.1602 10.6538 79.0918 10.978 78.9551C11.3022 78.8184 11.5483 78.627 11.7163 78.3809C11.8881 78.1309 11.9741 77.8359 11.9741 77.4961C11.9741 77.0625 11.8295 76.7285 11.5405 76.4941C11.2514 76.2559 10.8588 76.1367 10.3627 76.1367C10.058 76.1367 9.7807 76.168 9.5307 76.2305C9.2807 76.293 9.04633 76.3789 8.82758 76.4883C8.60883 76.5977 8.39008 76.7246 8.17133 76.8691L7.67914 76.2012C7.99164 75.959 8.3725 75.75 8.82172 75.5742C9.27094 75.3984 9.7807 75.3105 10.351 75.3105C11.226 75.3105 11.8823 75.5098 12.3198 75.9082C12.7573 76.3066 12.976 76.8145 12.976 77.4316ZM14.7734 83.3906C14.7734 83.1172 14.8398 82.9238 14.9727 82.8105C15.1055 82.6934 15.2676 82.6348 15.459 82.6348C15.6582 82.6348 15.8262 82.6934 15.9629 82.8105C16.0996 82.9238 16.168 83.1172 16.168 83.3906C16.168 83.6602 16.0996 83.8574 15.9629 83.9824C15.8262 84.1035 15.6582 84.1641 15.459 84.1641C15.2676 84.1641 15.1055 84.1035 14.9727 83.9824C14.8398 83.8574 14.7734 83.6602 14.7734 83.3906ZM23.2388 79.7051C23.2388 80.4004 23.1861 81.0215 23.0806 81.5684C22.9752 82.1152 22.8091 82.5781 22.5826 82.957C22.356 83.3359 22.063 83.625 21.7037 83.8242C21.3443 84.0195 20.9127 84.1172 20.4088 84.1172C19.772 84.1172 19.2447 83.9434 18.8267 83.5957C18.4127 83.248 18.1021 82.7461 17.8951 82.0898C17.692 81.4297 17.5904 80.6348 17.5904 79.7051C17.5904 78.791 17.6822 78.0059 17.8658 77.3496C18.0533 76.6895 18.3541 76.1836 18.7681 75.832C19.1822 75.4766 19.7291 75.2988 20.4088 75.2988C21.0533 75.2988 21.5845 75.4746 22.0025 75.8262C22.4205 76.1738 22.731 76.6777 22.9341 77.3379C23.1373 77.9941 23.2388 78.7832 23.2388 79.7051ZM18.5689 79.7051C18.5689 80.502 18.6295 81.166 18.7505 81.6973C18.8716 82.2285 19.067 82.627 19.3365 82.8926C19.6099 83.1543 19.9673 83.2852 20.4088 83.2852C20.8502 83.2852 21.2056 83.1543 21.4752 82.8926C21.7486 82.6309 21.9459 82.2344 22.067 81.7031C22.192 81.1719 22.2545 80.5059 22.2545 79.7051C22.2545 78.9199 22.1939 78.2637 22.0728 77.7363C21.9517 77.2051 21.7564 76.8066 21.4869 76.541C21.2173 76.2715 20.858 76.1367 20.4088 76.1367C19.9595 76.1367 19.6002 76.2715 19.3306 76.541C19.0611 76.8066 18.8658 77.2051 18.7447 77.7363C18.6275 78.2637 18.5689 78.9199 18.5689 79.7051ZM26.132 75.3105C26.7179 75.3105 27.1613 75.5449 27.462 76.0137C27.7667 76.4785 27.9191 77.1367 27.9191 77.9883C27.9191 78.8398 27.7726 79.5039 27.4796 79.9805C27.1866 80.4531 26.7374 80.6895 26.132 80.6895C25.5695 80.6895 25.1378 80.4531 24.837 79.9805C24.5402 79.5039 24.3917 78.8398 24.3917 77.9883C24.3917 77.1367 24.5343 76.4785 24.8195 76.0137C25.1046 75.5449 25.5421 75.3105 26.132 75.3105ZM26.132 76.0078C25.8155 76.0078 25.5831 76.1738 25.4347 76.5059C25.2863 76.834 25.212 77.3281 25.212 77.9883C25.212 78.6484 25.2863 79.1465 25.4347 79.4824C25.5831 79.8184 25.8155 79.9863 26.132 79.9863C26.4601 79.9863 26.7042 79.8184 26.8644 79.4824C27.0245 79.1465 27.1046 78.6484 27.1046 77.9883C27.1046 77.332 27.0245 76.8379 26.8644 76.5059C26.7081 76.1738 26.464 76.0078 26.132 76.0078ZM31.5577 75.4336L26.8058 84H25.9503L30.7023 75.4336H31.5577ZM31.3292 78.7441C31.9113 78.7441 32.3546 78.9785 32.6593 79.4473C32.964 79.9121 33.1163 80.5703 33.1163 81.4219C33.1163 82.2695 32.9698 82.9316 32.6769 83.4082C32.3839 83.8809 31.9347 84.1172 31.3292 84.1172C30.7628 84.1172 30.3312 83.8809 30.0343 83.4082C29.7374 82.9316 29.589 82.2695 29.589 81.4219C29.589 80.5703 29.7296 79.9121 30.0109 79.4473C30.296 78.9785 30.7355 78.7441 31.3292 78.7441ZM31.3292 79.4473C31.0128 79.4473 30.7804 79.6113 30.632 79.9395C30.4835 80.2676 30.4093 80.7617 30.4093 81.4219C30.4093 82.082 30.4835 82.5801 30.632 82.916C30.7804 83.248 31.0128 83.4141 31.3292 83.4141C31.6573 83.4141 31.9015 83.25 32.0616 82.9219C32.2218 82.5898 32.3019 82.0898 32.3019 81.4219C32.3019 80.7656 32.2218 80.2734 32.0616 79.9453C31.9054 79.6133 31.6613 79.4473 31.3292 79.4473Z" fill="black"/>
<path d="M50 45L326 45" stroke="black" stroke-opacity="0.1"/>
<path d="M6.53211 45.7051C6.53211 46.4004 6.47938 47.0215 6.37391 47.5684C6.26844 48.1152 6.10242 48.5781 5.87586 48.957C5.6493 49.3359 5.35633 49.625 4.99695 49.8242C4.63758 50.0195 4.20594 50.1172 3.70203 50.1172C3.06531 50.1172 2.53797 49.9434 2.12 49.5957C1.70594 49.248 1.39539 48.7461 1.18836 48.0898C0.985235 47.4297 0.883673 46.6348 0.883673 45.7051C0.883673 44.791 0.97547 44.0059 1.15906 43.3496C1.34656 42.6895 1.64734 42.1836 2.06141 41.832C2.47547 41.4766 3.02234 41.2988 3.70203 41.2988C4.34656 41.2988 4.87781 41.4746 5.29578 41.8262C5.71375 42.1738 6.0243 42.6777 6.22742 43.3379C6.43055 43.9941 6.53211 44.7832 6.53211 45.7051ZM1.86219 45.7051C1.86219 46.502 1.92274 47.166 2.04383 47.6973C2.16492 48.2285 2.36024 48.627 2.62977 48.8926C2.9032 49.1543 3.26063 49.2852 3.70203 49.2852C4.14344 49.2852 4.49891 49.1543 4.76844 48.8926C5.04188 48.6309 5.23914 48.2344 5.36024 47.7031C5.48524 47.1719 5.54774 46.5059 5.54774 45.7051C5.54774 44.9199 5.48719 44.2637 5.36609 43.7363C5.245 43.2051 5.04969 42.8066 4.78016 42.541C4.51063 42.2715 4.15125 42.1367 3.70203 42.1367C3.25281 42.1367 2.89344 42.2715 2.62391 42.541C2.35438 42.8066 2.15906 43.2051 2.03797 43.7363C1.92078 44.2637 1.86219 44.9199 1.86219 45.7051ZM13.7202 48.0137H12.437V50H11.4877V48.0137H7.34516V47.1934L11.4233 41.3867H12.437V47.1348H13.7202V48.0137ZM11.4877 47.1348V44.334C11.4877 44.1191 11.4897 43.9258 11.4936 43.7539C11.4975 43.5781 11.5034 43.416 11.5112 43.2676C11.519 43.1152 11.5248 42.9707 11.5288 42.834C11.5366 42.6973 11.5424 42.5625 11.5463 42.4297H11.4995C11.4252 42.5859 11.3393 42.752 11.2416 42.9277C11.1479 43.0996 11.0522 43.2539 10.9545 43.3906L8.31195 47.1348H11.4877ZM14.7734 49.3906C14.7734 49.1172 14.8398 48.9238 14.9727 48.8105C15.1055 48.6934 15.2676 48.6348 15.459 48.6348C15.6582 48.6348 15.8262 48.6934 15.9629 48.8105C16.0996 48.9238 16.168 49.1172 16.168 49.3906C16.168 49.6602 16.0996 49.8574 15.9629 49.9824C15.8262 50.1035 15.6582 50.1641 15.459 50.1641C15.2676 50.1641 15.1055 50.1035 14.9727 49.9824C14.8398 49.8574 14.7734 49.6602 14.7734 49.3906ZM23.2388 45.7051C23.2388 46.4004 23.1861 47.0215 23.0806 47.5684C22.9752 48.1152 22.8091 48.5781 22.5826 48.957C22.356 49.3359 22.063 49.625 21.7037 49.8242C21.3443 50.0195 20.9127 50.1172 20.4088 50.1172C19.772 50.1172 19.2447 49.9434 18.8267 49.5957C18.4127 49.248 18.1021 48.7461 17.8951 48.0898C17.692 47.4297 17.5904 46.6348 17.5904 45.7051C17.5904 44.791 17.6822 44.0059 17.8658 43.3496C18.0533 42.6895 18.3541 42.1836 18.7681 41.832C19.1822 41.4766 19.7291 41.2988 20.4088 41.2988C21.0533 41.2988 21.5845 41.4746 22.0025 41.8262C22.4205 42.1738 22.731 42.6777 22.9341 43.3379C23.1373 43.9941 23.2388 44.7832 23.2388 45.7051ZM18.5689 45.7051C18.5689 46.502 18.6295 47.166 18.7505 47.6973C18.8716 48.2285 19.067 48.627 19.3365 48.8926C19.6099 49.1543 19.9673 49.2852 20.4088 49.2852C20.8502 49.2852 21.2056 49.1543 21.4752 48.8926C21.7486 48.6309 21.9459 48.2344 22.067 47.7031C22.192 47.1719 22.2545 46.5059 22.2545 45.7051C22.2545 44.9199 22.1939 44.2637 22.0728 43.7363C21.9517 43.2051 21.7564 42.8066 21.4869 42.541C21.2173 42.2715 20.858 42.1367 20.4088 42.1367C19.9595 42.1367 19.6002 42.2715 19.3306 42.541C19.0611 42.8066 18.8658 43.2051 18.7447 43.7363C18.6275 44.2637 18.5689 44.9199 18.5689 45.7051ZM26.132 41.3105C26.7179 41.3105 27.1613 41.5449 27.462 42.0137C27.7667 42.4785 27.9191 43.1367 27.9191 43.9883C27.9191 44.8398 27.7726 45.5039 27.4796 45.9805C27.1866 46.4531 26.7374 46.6895 26.132 46.6895C25.5695 46.6895 25.1378 46.4531 24.837 45.9805C24.5402 45.5039 24.3917 44.8398 24.3917 43.9883C24.3917 43.1367 24.5343 42.4785 24.8195 42.0137C25.1046 41.5449 25.5421 41.3105 26.132 41.3105ZM26.132 42.0078C25.8155 42.0078 25.5831 42.1738 25.4347 42.5059C25.2863 42.834 25.212 43.3281 25.212 43.9883C25.212 44.6484 25.2863 45.1465 25.4347 45.4824C25.5831 45.8184 25.8155 45.9863 26.132 45.9863C26.4601 45.9863 26.7042 45.8184 26.8644 45.4824C27.0245 45.1465 27.1046 44.6484 27.1046 43.9883C27.1046 43.332 27.0245 42.8379 26.8644 42.5059C26.7081 42.1738 26.464 42.0078 26.132 42.0078ZM31.5577 41.4336L26.8058 50H25.9503L30.7023 41.4336H31.5577ZM31.3292 44.7441C31.9113 44.7441 32.3546 44.9785 32.6593 45.4473C32.964 45.9121 33.1163 46.5703 33.1163 47.4219C33.1163 48.2695 32.9698 48.9316 32.6769 49.4082C32.3839 49.8809 31.9347 50.1172 31.3292 50.1172C30.7628 50.1172 30.3312 49.8809 30.0343 49.4082C29.7374 48.9316 29.589 48.2695 29.589 47.4219C29.589 46.5703 29.7296 45.9121 30.0109 45.4473C30.296 44.9785 30.7355 44.7441 31.3292 44.7441ZM31.3292 45.4473C31.0128 45.4473 30.7804 45.6113 30.632 45.9395C30.4835 46.2676 30.4093 46.7617 30.4093 47.4219C30.4093 48.082 30.4835 48.5801 30.632 48.916C30.7804 49.248 31.0128 49.4141 31.3292 49.4141C31.6573 49.4141 31.9015 49.25 32.0616 48.9219C32.2218 48.5898 32.3019 48.0898 32.3019 47.4219C32.3019 46.7656 32.2218 46.2734 32.0616 45.9453C31.9054 45.6133 31.6613 45.4473 31.3292 45.4473Z" fill="black"/>
<rect x="78" y="157" width="80" height="24" fill="white"/>
<rect x="78" y="173.645" width="80" height="1.54839" fill="#88B3F9"/>
<rect x="78" y="175.193" width="80" height="2.70968" fill="#FF6D00"/>
<rect x="78" y="172.096" width="80" height="1.54839" fill="#FBBC01"/>
<rect x="78" y="177.902" width="80" height="2.32258" fill="#E94235"/>
<rect x="78" y="180.227" width="80" height="0.774194" fill="#3830C9"/>
<rect x="78" y="157" width="80" height="11.6129" fill="#47BDC6"/>
<rect x="78" y="168.613" width="80" height="3.48387" fill="#36A853"/>
<rect x="218" y="70" width="80" height="111" fill="white"/>
<rect x="218" y="100.367" width="80" height="2.09434" fill="#36A853"/>
<rect x="218" y="102.463" width="80" height="28.2736" fill="#88B3F9"/>
<rect x="218" y="134.922" width="80" height="29.3208" fill="#47BDC6"/>
<rect x="218" y="164.244" width="80" height="16.7547" fill="#FF6D00"/>
<rect x="218" y="70" width="80" height="30.3679" fill="#3830C9"/>
<rect x="218" y="132.83" width="80" height="2.09434" fill="#FBBC01"/>
<rect x="218" y="130.736" width="80" height="2.09434" fill="#E94235"/>
<path d="M118.52 16.9844C118.032 16.776 117.615 16.6328 117.27 16.5547C116.925 16.4766 116.603 16.4375 116.304 16.4375C115.926 16.4375 115.532 16.5547 115.122 16.7891C114.718 17.0169 114.35 17.2936 114.018 17.6191V15.3633C114.35 15.0117 114.721 14.748 115.132 14.5723C115.548 14.39 116.011 14.2988 116.518 14.2988C116.909 14.2988 117.3 14.3379 117.69 14.416C118.081 14.4876 118.592 14.6569 119.223 14.9238C119.712 15.1322 120.128 15.2754 120.473 15.3535C120.825 15.4251 121.147 15.4609 121.44 15.4609C121.824 15.4609 122.218 15.347 122.622 15.1191C123.026 14.8913 123.39 14.6113 123.716 14.2793V16.5352C123.39 16.8867 123.019 17.1536 122.602 17.3359C122.192 17.5117 121.73 17.5996 121.216 17.5996C120.825 17.5996 120.434 17.5638 120.044 17.4922C119.66 17.4141 119.152 17.2448 118.52 16.9844ZM124.707 16.9355C124.707 16.1152 124.766 15.3047 124.883 14.5039C125.007 13.6966 125.218 12.9382 125.518 12.2285C125.817 11.5124 126.237 10.8809 126.778 10.334C127.318 9.7806 128.005 9.34766 128.838 9.03516C129.672 8.71615 130.681 8.55664 131.866 8.55664C132.146 8.55664 132.471 8.56966 132.842 8.5957C133.22 8.61523 133.532 8.65104 133.78 8.70312V11.1152C133.519 11.0566 133.239 11.0111 132.94 10.9785C132.647 10.9395 132.354 10.9199 132.061 10.9199C130.876 10.9199 129.958 11.1087 129.307 11.4863C128.663 11.8639 128.207 12.388 127.94 13.0586C127.679 13.7227 127.526 14.4974 127.481 15.3828H127.608C127.79 15.0638 128.018 14.7806 128.291 14.5332C128.571 14.2858 128.91 14.0905 129.307 13.9473C129.704 13.7975 130.17 13.7227 130.704 13.7227C131.537 13.7227 132.26 13.9017 132.871 14.2598C133.483 14.6113 133.955 15.1224 134.288 15.793C134.62 16.4635 134.786 17.2806 134.786 18.2441C134.786 19.2728 134.587 20.1582 134.19 20.9004C133.793 21.6426 133.23 22.2122 132.5 22.6094C131.778 23 130.918 23.1953 129.922 23.1953C129.193 23.1953 128.513 23.0716 127.881 22.8242C127.25 22.5703 126.696 22.1862 126.221 21.6719C125.746 21.1576 125.375 20.5098 125.108 19.7285C124.841 18.9408 124.707 18.0098 124.707 16.9355ZM129.864 20.7832C130.456 20.7832 130.938 20.5814 131.309 20.1777C131.68 19.7741 131.866 19.1426 131.866 18.2832C131.866 17.5866 131.703 17.0397 131.377 16.6426C131.058 16.2389 130.573 16.0371 129.922 16.0371C129.48 16.0371 129.089 16.138 128.75 16.3398C128.418 16.5352 128.161 16.7858 127.979 17.0918C127.797 17.3913 127.705 17.7005 127.705 18.0195C127.705 18.3516 127.751 18.6803 127.842 19.0059C127.933 19.3314 128.07 19.6276 128.252 19.8945C128.435 20.1615 128.659 20.3763 128.926 20.5391C129.2 20.7018 129.512 20.7832 129.864 20.7832ZM145.553 15.8613C145.553 17.0137 145.462 18.0423 145.279 18.9473C145.104 19.8522 144.817 20.6204 144.42 21.252C144.029 21.8835 143.515 22.3652 142.877 22.6973C142.239 23.0293 141.464 23.1953 140.553 23.1953C139.407 23.1953 138.466 22.9056 137.73 22.3262C136.995 21.7402 136.451 20.9004 136.1 19.8066C135.748 18.7064 135.572 17.3913 135.572 15.8613C135.572 14.3184 135.732 13 136.051 11.9062C136.376 10.806 136.904 9.96289 137.633 9.37695C138.362 8.79102 139.335 8.49805 140.553 8.49805C141.692 8.49805 142.63 8.79102 143.365 9.37695C144.107 9.95638 144.658 10.7962 145.016 11.8965C145.374 12.9902 145.553 14.3118 145.553 15.8613ZM138.57 15.8613C138.57 16.9486 138.629 17.8568 138.746 18.5859C138.87 19.3086 139.075 19.8522 139.361 20.2168C139.648 20.5814 140.045 20.7637 140.553 20.7637C141.054 20.7637 141.448 20.5846 141.734 20.2266C142.027 19.862 142.236 19.3184 142.359 18.5957C142.483 17.8665 142.545 16.9551 142.545 15.8613C142.545 14.7741 142.483 13.8659 142.359 13.1367C142.236 12.4076 142.027 11.8607 141.734 11.4961C141.448 11.125 141.054 10.9395 140.553 10.9395C140.045 10.9395 139.648 11.125 139.361 11.4961C139.075 11.8607 138.87 12.4076 138.746 13.1367C138.629 13.8659 138.57 14.7741 138.57 15.8613ZM149.679 8.51758C150.799 8.51758 151.649 8.9082 152.228 9.68945C152.808 10.4707 153.097 11.5677 153.097 12.9805C153.097 14.3932 152.824 15.4967 152.277 16.291C151.73 17.0853 150.864 17.4824 149.679 17.4824C148.579 17.4824 147.742 17.0853 147.17 16.291C146.597 15.4967 146.31 14.3932 146.31 12.9805C146.31 11.5677 146.577 10.4707 147.111 9.68945C147.651 8.9082 148.507 8.51758 149.679 8.51758ZM149.699 10.5586C149.38 10.5586 149.145 10.7604 148.996 11.1641C148.846 11.5677 148.771 12.1797 148.771 13C148.771 13.8203 148.846 14.4355 148.996 14.8457C149.145 15.2559 149.38 15.4609 149.699 15.4609C150.018 15.4609 150.252 15.2591 150.402 14.8555C150.558 14.4453 150.636 13.8268 150.636 13C150.636 12.1797 150.558 11.5677 150.402 11.1641C150.252 10.7604 150.018 10.5586 149.699 10.5586ZM159.816 8.72266L151.896 23H149.552L157.472 8.72266H159.816ZM159.679 14.2207C160.799 14.2207 161.649 14.6113 162.228 15.3926C162.808 16.1738 163.097 17.2708 163.097 18.6836C163.097 20.0898 162.824 21.1901 162.277 21.9844C161.73 22.7786 160.864 23.1758 159.679 23.1758C158.579 23.1758 157.742 22.7786 157.17 21.9844C156.597 21.1901 156.31 20.0898 156.31 18.6836C156.31 17.2708 156.577 16.1738 157.111 15.3926C157.651 14.6113 158.507 14.2207 159.679 14.2207ZM159.699 16.2617C159.38 16.2617 159.145 16.4635 158.996 16.8672C158.846 17.2708 158.771 17.8828 158.771 18.7031C158.771 19.5234 158.846 20.1387 158.996 20.5488C159.145 20.959 159.38 21.1641 159.699 21.1641C160.018 21.1641 160.252 20.9622 160.402 20.5586C160.558 20.1484 160.636 19.5299 160.636 18.7031C160.636 17.8828 160.558 17.2708 160.402 16.8672C160.252 16.4635 160.018 16.2617 159.699 16.2617ZM172.259 23H169.28V7.80469H172.259V23ZM184.715 17.5215C184.715 18.4329 184.592 19.2402 184.344 19.9434C184.103 20.6465 183.748 21.2422 183.28 21.7305C182.817 22.2122 182.258 22.5768 181.6 22.8242C180.949 23.0716 180.213 23.1953 179.393 23.1953C178.625 23.1953 177.918 23.0716 177.274 22.8242C176.636 22.5768 176.079 22.2122 175.604 21.7305C175.135 21.2422 174.771 20.6465 174.51 19.9434C174.256 19.2402 174.129 18.4329 174.129 17.5215C174.129 16.3105 174.344 15.2852 174.774 14.4453C175.204 13.6055 175.815 12.9674 176.61 12.5312C177.404 12.0951 178.351 11.877 179.452 11.877C180.474 11.877 181.379 12.0951 182.166 12.5312C182.961 12.9674 183.582 13.6055 184.032 14.4453C184.487 15.2852 184.715 16.3105 184.715 17.5215ZM177.166 17.5215C177.166 18.2376 177.245 18.8398 177.401 19.3281C177.557 19.8164 177.801 20.1842 178.133 20.4316C178.465 20.679 178.898 20.8027 179.432 20.8027C179.959 20.8027 180.386 20.679 180.711 20.4316C181.043 20.1842 181.284 19.8164 181.434 19.3281C181.59 18.8398 181.668 18.2376 181.668 17.5215C181.668 16.7988 181.59 16.1999 181.434 15.7246C181.284 15.2428 181.043 14.8815 180.711 14.6406C180.379 14.3997 179.946 14.2793 179.413 14.2793C178.625 14.2793 178.052 14.5495 177.694 15.0898C177.342 15.6302 177.166 16.4408 177.166 17.5215ZM195.551 23L194.711 19.1816C194.665 18.9538 194.59 18.6185 194.486 18.1758C194.382 17.7266 194.268 17.248 194.145 16.7402C194.027 16.2259 193.917 15.7507 193.812 15.3145C193.715 14.8783 193.643 14.5592 193.598 14.3574H193.51C193.464 14.5592 193.393 14.8783 193.295 15.3145C193.197 15.7507 193.087 16.2259 192.963 16.7402C192.846 17.2546 192.735 17.7396 192.631 18.1953C192.527 18.6445 192.449 18.9863 192.396 19.2207L191.518 23H188.314L185.209 12.082H188.178L189.438 16.916C189.522 17.2546 189.604 17.6582 189.682 18.127C189.76 18.5892 189.828 19.0384 189.887 19.4746C189.952 19.9043 190.001 20.2461 190.033 20.5H190.111C190.124 20.3112 190.15 20.0605 190.189 19.748C190.235 19.4355 190.284 19.1133 190.336 18.7812C190.395 18.4427 190.447 18.14 190.492 17.873C190.544 17.5996 190.583 17.4141 190.609 17.3164L191.957 12.082H195.238L196.518 17.3164C196.563 17.5052 196.622 17.8047 196.693 18.2148C196.771 18.625 196.84 19.0482 196.898 19.4844C196.957 19.9141 196.99 20.2526 196.996 20.5H197.074C197.1 20.2786 197.146 19.9499 197.211 19.5137C197.276 19.0775 197.351 18.6217 197.436 18.1465C197.527 17.6647 197.618 17.2546 197.709 16.916L199.018 12.082H201.938L198.793 23H195.551ZM207.607 11.877C208.616 11.877 209.485 12.0723 210.214 12.4629C210.944 12.847 211.507 13.4069 211.904 14.1426C212.301 14.8783 212.5 15.7767 212.5 16.8379V18.2832H205.459C205.491 19.123 205.742 19.7839 206.211 20.2656C206.686 20.7409 207.343 20.9785 208.183 20.9785C208.88 20.9785 209.518 20.9069 210.097 20.7637C210.677 20.6204 211.272 20.4056 211.884 20.1191V22.4238C211.344 22.6908 210.778 22.8861 210.185 23.0098C209.599 23.1335 208.886 23.1953 208.046 23.1953C206.953 23.1953 205.983 22.9935 205.136 22.5898C204.296 22.1862 203.636 21.571 203.154 20.7441C202.679 19.9173 202.441 18.8757 202.441 17.6191C202.441 16.3431 202.656 15.2819 203.086 14.4355C203.522 13.5827 204.127 12.9447 204.902 12.5215C205.677 12.0918 206.578 11.877 207.607 11.877ZM207.627 13.9961C207.047 13.9961 206.565 14.1816 206.181 14.5527C205.804 14.9238 205.586 15.5065 205.527 16.3008H209.707C209.7 15.8581 209.619 15.4642 209.462 15.1191C209.313 14.7741 209.085 14.5007 208.779 14.2988C208.479 14.097 208.095 13.9961 207.627 13.9961ZM220.415 11.877C220.565 11.877 220.738 11.8867 220.933 11.9062C221.135 11.9193 221.297 11.9388 221.421 11.9648L221.196 14.7578C221.099 14.7253 220.959 14.7025 220.777 14.6895C220.601 14.6699 220.448 14.6602 220.318 14.6602C219.933 14.6602 219.559 14.709 219.195 14.8066C218.836 14.9043 218.514 15.0638 218.228 15.2852C217.941 15.5 217.713 15.7865 217.544 16.1445C217.381 16.4961 217.3 16.929 217.3 17.4434V23H214.321V12.082H216.577L217.017 13.918H217.163C217.378 13.5469 217.645 13.2083 217.964 12.9023C218.29 12.5898 218.657 12.3424 219.068 12.1602C219.484 11.9714 219.933 11.877 220.415 11.877Z" fill="#0D0D0D"/>
<rect x="14" y="219" width="12" height="12" fill="#FF6D00"/>
<path d="M35.6259 230V221.434H36.622V230H35.6259ZM41.812 223.461C42.5737 223.461 43.1498 223.648 43.5405 224.023C43.9311 224.395 44.1264 224.992 44.1264 225.816V230H43.1655V225.881C43.1655 225.346 43.0424 224.945 42.7963 224.68C42.5541 224.414 42.1811 224.281 41.6772 224.281C40.9662 224.281 40.4662 224.482 40.1772 224.885C39.8881 225.287 39.7436 225.871 39.7436 226.637V230H38.7709V223.578H39.5561L39.7026 224.504H39.7553C39.892 224.277 40.0659 224.088 40.2768 223.936C40.4877 223.779 40.7241 223.662 40.9858 223.584C41.2475 223.502 41.5229 223.461 41.812 223.461ZM48.9297 224.34H47.3301V230H46.3574V224.34H45.2207V223.871L46.3574 223.549V223.121C46.3574 222.582 46.4375 222.145 46.5977 221.809C46.7578 221.469 46.9902 221.219 47.2949 221.059C47.5996 220.898 47.9707 220.818 48.4082 220.818C48.6543 220.818 48.8789 220.84 49.082 220.883C49.2891 220.926 49.4707 220.975 49.627 221.029L49.375 221.797C49.2422 221.754 49.0918 221.715 48.9238 221.68C48.7598 221.641 48.5918 221.621 48.4199 221.621C48.0488 221.621 47.7734 221.742 47.5938 221.984C47.418 222.223 47.3301 222.598 47.3301 223.109V223.578H48.9297V224.34ZM52.9712 223.461C53.1002 223.461 53.2349 223.469 53.3755 223.484C53.5162 223.496 53.6412 223.514 53.7505 223.537L53.6275 224.439C53.522 224.412 53.4048 224.391 53.2759 224.375C53.147 224.359 53.0259 224.352 52.9127 224.352C52.6548 224.352 52.4107 224.404 52.1802 224.51C51.9537 224.611 51.7545 224.76 51.5826 224.955C51.4107 225.146 51.2759 225.379 51.1783 225.652C51.0806 225.922 51.0318 226.223 51.0318 226.555V230H50.0533V223.578H50.8619L50.9673 224.762H51.0084C51.1412 224.523 51.3013 224.307 51.4888 224.111C51.6763 223.912 51.8931 223.754 52.1392 223.637C52.3892 223.52 52.6666 223.461 52.9712 223.461ZM57.3058 223.473C58.0714 223.473 58.6398 223.645 59.0109 223.988C59.382 224.332 59.5675 224.881 59.5675 225.635V230H58.8585L58.671 229.051H58.6241C58.4445 229.285 58.257 229.482 58.0616 229.643C57.8663 229.799 57.6398 229.918 57.382 230C57.128 230.078 56.8155 230.117 56.4445 230.117C56.0538 230.117 55.7062 230.049 55.4015 229.912C55.1007 229.775 54.8624 229.568 54.6866 229.291C54.5148 229.014 54.4288 228.662 54.4288 228.236C54.4288 227.596 54.6827 227.104 55.1905 226.76C55.6984 226.416 56.4718 226.229 57.5109 226.197L58.6183 226.15V225.758C58.6183 225.203 58.4991 224.814 58.2609 224.592C58.0226 224.369 57.6866 224.258 57.253 224.258C56.9171 224.258 56.5968 224.307 56.2921 224.404C55.9874 224.502 55.6984 224.617 55.4249 224.75L55.1261 224.012C55.4152 223.863 55.7472 223.736 56.1222 223.631C56.4972 223.525 56.8917 223.473 57.3058 223.473ZM58.6066 226.836L57.628 226.877C56.8273 226.908 56.2628 227.039 55.9347 227.27C55.6066 227.5 55.4425 227.826 55.4425 228.248C55.4425 228.615 55.5538 228.887 55.7765 229.062C55.9991 229.238 56.2941 229.326 56.6613 229.326C57.2316 229.326 57.6984 229.168 58.0616 228.852C58.4249 228.535 58.6066 228.061 58.6066 227.428V226.836Z" fill="black"/>
<rect x="102" y="219" width="12" height="12" fill="#E94235"/>
<path d="M126.861 225.512H129.855V229.666C129.406 229.818 128.943 229.932 128.466 230.006C127.994 230.08 127.464 230.117 126.878 230.117C125.988 230.117 125.236 229.939 124.623 229.584C124.013 229.229 123.55 228.723 123.234 228.066C122.917 227.406 122.759 226.623 122.759 225.717C122.759 224.83 122.933 224.057 123.281 223.396C123.632 222.736 124.138 222.225 124.798 221.861C125.462 221.494 126.259 221.311 127.189 221.311C127.665 221.311 128.117 221.355 128.542 221.445C128.972 221.531 129.371 221.654 129.738 221.814L129.357 222.682C129.04 222.545 128.691 222.428 128.308 222.33C127.929 222.232 127.537 222.184 127.13 222.184C126.431 222.184 125.831 222.328 125.331 222.617C124.835 222.906 124.455 223.314 124.189 223.842C123.927 224.369 123.796 224.994 123.796 225.717C123.796 226.432 123.912 227.055 124.142 227.586C124.373 228.113 124.732 228.523 125.22 228.816C125.708 229.109 126.337 229.256 127.107 229.256C127.494 229.256 127.826 229.234 128.103 229.191C128.38 229.145 128.632 229.09 128.859 229.027V226.402H126.861V225.512ZM134.348 221.299C134.77 221.299 135.133 221.373 135.438 221.521C135.746 221.666 135.982 221.875 136.146 222.148C136.314 222.422 136.398 222.752 136.398 223.139C136.398 223.646 136.232 224.076 135.9 224.428C135.572 224.779 135.154 225.1 134.646 225.389L137.025 227.697C137.24 227.447 137.416 227.158 137.553 226.83C137.689 226.498 137.805 226.139 137.898 225.752H138.883C138.758 226.268 138.596 226.742 138.396 227.176C138.201 227.609 137.955 227.99 137.658 228.318L139.375 230H138.057L136.996 228.963C136.746 229.193 136.477 229.396 136.188 229.572C135.902 229.744 135.584 229.879 135.232 229.977C134.885 230.07 134.486 230.117 134.037 230.117C133.49 230.117 133.016 230.027 132.613 229.848C132.211 229.668 131.898 229.404 131.676 229.057C131.457 228.709 131.348 228.283 131.348 227.779C131.348 227.365 131.424 227.01 131.576 226.713C131.729 226.416 131.945 226.152 132.227 225.922C132.508 225.691 132.844 225.467 133.234 225.248C133.051 225.045 132.877 224.84 132.713 224.633C132.549 224.422 132.416 224.197 132.314 223.959C132.213 223.717 132.162 223.451 132.162 223.162C132.162 222.771 132.25 222.438 132.426 222.16C132.605 221.883 132.857 221.67 133.182 221.521C133.51 221.373 133.898 221.299 134.348 221.299ZM133.82 225.863C133.516 226.039 133.254 226.213 133.035 226.385C132.82 226.557 132.654 226.75 132.537 226.965C132.424 227.18 132.367 227.439 132.367 227.744C132.367 228.201 132.521 228.568 132.83 228.846C133.139 229.119 133.551 229.256 134.066 229.256C134.598 229.256 135.049 229.168 135.42 228.992C135.795 228.816 136.113 228.604 136.375 228.354L133.82 225.863ZM134.312 222.102C133.957 222.102 133.668 222.195 133.445 222.383C133.227 222.566 133.117 222.824 133.117 223.156C133.117 223.453 133.197 223.727 133.357 223.977C133.518 224.227 133.746 224.504 134.043 224.809C134.531 224.539 134.885 224.279 135.104 224.029C135.326 223.775 135.438 223.479 135.438 223.139C135.438 222.83 135.334 222.58 135.127 222.389C134.924 222.197 134.652 222.102 134.312 222.102ZM145.924 230L144.87 227.281H141.436L140.387 230H139.379L142.731 221.398H143.627L146.956 230H145.924ZM144.571 226.396L143.569 223.695C143.545 223.625 143.506 223.51 143.452 223.35C143.401 223.189 143.348 223.023 143.294 222.852C143.239 222.68 143.194 222.541 143.159 222.436C143.12 222.596 143.077 222.756 143.03 222.916C142.987 223.072 142.944 223.219 142.901 223.355C142.858 223.488 142.821 223.602 142.79 223.695L141.77 226.396H144.571Z" fill="black"/>
<rect x="188" y="219" width="12" height="12" fill="#FBBC01"/>
<path d="M214.505 227.721C214.505 228.229 214.378 228.662 214.124 229.021C213.874 229.377 213.523 229.648 213.07 229.836C212.617 230.023 212.083 230.117 211.47 230.117C211.146 230.117 210.839 230.102 210.55 230.07C210.261 230.039 209.996 229.994 209.753 229.936C209.511 229.877 209.298 229.805 209.115 229.719V228.764C209.408 228.885 209.765 228.998 210.187 229.104C210.609 229.205 211.05 229.256 211.511 229.256C211.941 229.256 212.304 229.199 212.601 229.086C212.898 228.969 213.123 228.803 213.275 228.588C213.431 228.369 213.509 228.107 213.509 227.803C213.509 227.51 213.445 227.266 213.316 227.07C213.187 226.871 212.972 226.691 212.671 226.531C212.374 226.367 211.968 226.193 211.453 226.01C211.089 225.881 210.769 225.74 210.492 225.588C210.214 225.432 209.982 225.256 209.794 225.061C209.607 224.865 209.464 224.639 209.367 224.381C209.273 224.123 209.226 223.828 209.226 223.496C209.226 223.039 209.341 222.648 209.572 222.324C209.806 221.996 210.128 221.746 210.539 221.574C210.953 221.398 211.427 221.311 211.962 221.311C212.419 221.311 212.841 221.354 213.228 221.439C213.619 221.525 213.976 221.641 214.3 221.785L213.99 222.641C213.681 222.512 213.353 222.404 213.005 222.318C212.662 222.232 212.306 222.189 211.939 222.189C211.572 222.189 211.261 222.244 211.007 222.354C210.757 222.459 210.566 222.609 210.433 222.805C210.3 223 210.234 223.232 210.234 223.502C210.234 223.803 210.296 224.053 210.421 224.252C210.55 224.451 210.753 224.629 211.031 224.785C211.312 224.938 211.683 225.098 212.144 225.266C212.648 225.449 213.076 225.645 213.427 225.852C213.779 226.055 214.046 226.305 214.23 226.602C214.414 226.895 214.505 227.268 214.505 227.721ZM218.676 221.299C219.098 221.299 219.461 221.373 219.766 221.521C220.074 221.666 220.311 221.875 220.475 222.148C220.643 222.422 220.727 222.752 220.727 223.139C220.727 223.646 220.561 224.076 220.229 224.428C219.9 224.779 219.482 225.1 218.975 225.389L221.354 227.697C221.568 227.447 221.744 227.158 221.881 226.83C222.018 226.498 222.133 226.139 222.227 225.752H223.211C223.086 226.268 222.924 226.742 222.725 227.176C222.529 227.609 222.283 227.99 221.986 228.318L223.703 230H222.385L221.324 228.963C221.074 229.193 220.805 229.396 220.516 229.572C220.23 229.744 219.912 229.879 219.561 229.977C219.213 230.07 218.814 230.117 218.365 230.117C217.818 230.117 217.344 230.027 216.941 229.848C216.539 229.668 216.227 229.404 216.004 229.057C215.785 228.709 215.676 228.283 215.676 227.779C215.676 227.365 215.752 227.01 215.904 226.713C216.057 226.416 216.273 226.152 216.555 225.922C216.836 225.691 217.172 225.467 217.563 225.248C217.379 225.045 217.205 224.84 217.041 224.633C216.877 224.422 216.744 224.197 216.643 223.959C216.541 223.717 216.49 223.451 216.49 223.162C216.49 222.771 216.578 222.438 216.754 222.16C216.934 221.883 217.186 221.67 217.51 221.521C217.838 221.373 218.227 221.299 218.676 221.299ZM218.148 225.863C217.844 226.039 217.582 226.213 217.363 226.385C217.148 226.557 216.982 226.75 216.865 226.965C216.752 227.18 216.695 227.439 216.695 227.744C216.695 228.201 216.85 228.568 217.158 228.846C217.467 229.119 217.879 229.256 218.395 229.256C218.926 229.256 219.377 229.168 219.748 228.992C220.123 228.816 220.441 228.604 220.703 228.354L218.148 225.863ZM218.641 222.102C218.285 222.102 217.996 222.195 217.773 222.383C217.555 222.566 217.445 222.824 217.445 223.156C217.445 223.453 217.525 223.727 217.686 223.977C217.846 224.227 218.074 224.504 218.371 224.809C218.859 224.539 219.213 224.279 219.432 224.029C219.654 223.775 219.766 223.479 219.766 223.139C219.766 222.83 219.662 222.58 219.455 222.389C219.252 222.197 218.98 222.102 218.641 222.102ZM228.647 230L225.77 222.418H225.723C225.739 222.578 225.753 222.773 225.764 223.004C225.776 223.234 225.786 223.486 225.794 223.76C225.801 224.029 225.805 224.305 225.805 224.586V230H224.879V221.434H226.356L229.069 228.559H229.11L231.864 221.434H233.329V230H232.344V224.516C232.344 224.262 232.348 224.008 232.356 223.754C232.364 223.496 232.374 223.254 232.385 223.027C232.397 222.797 232.409 222.598 232.42 222.43H232.374L229.461 230H228.647Z" fill="black"/>
<rect x="276" y="219" width="12" height="12" fill="#36A853"/>
<path d="M299.619 221.434C300.322 221.434 300.902 221.521 301.359 221.697C301.82 221.869 302.164 222.133 302.39 222.488C302.617 222.844 302.73 223.297 302.73 223.848C302.73 224.301 302.648 224.68 302.484 224.984C302.32 225.285 302.105 225.529 301.839 225.717C301.574 225.904 301.29 226.049 300.99 226.15L303.339 230H302.179L300.081 226.426H298.3V230H297.304V221.434H299.619ZM299.56 222.295H298.3V225.582H299.66C300.359 225.582 300.873 225.439 301.201 225.154C301.533 224.869 301.699 224.449 301.699 223.895C301.699 223.312 301.523 222.9 301.171 222.658C300.824 222.416 300.287 222.295 299.56 222.295ZM307.129 221.299C307.551 221.299 307.914 221.373 308.219 221.521C308.527 221.666 308.764 221.875 308.928 222.148C309.096 222.422 309.18 222.752 309.18 223.139C309.18 223.646 309.014 224.076 308.682 224.428C308.354 224.779 307.936 225.1 307.428 225.389L309.807 227.697C310.021 227.447 310.197 227.158 310.334 226.83C310.471 226.498 310.586 226.139 310.68 225.752H311.664C311.539 226.268 311.377 226.742 311.178 227.176C310.982 227.609 310.736 227.99 310.439 228.318L312.156 230H310.838L309.777 228.963C309.527 229.193 309.258 229.396 308.969 229.572C308.684 229.744 308.365 229.879 308.014 229.977C307.666 230.07 307.268 230.117 306.818 230.117C306.271 230.117 305.797 230.027 305.395 229.848C304.992 229.668 304.68 229.404 304.457 229.057C304.238 228.709 304.129 228.283 304.129 227.779C304.129 227.365 304.205 227.01 304.357 226.713C304.51 226.416 304.727 226.152 305.008 225.922C305.289 225.691 305.625 225.467 306.016 225.248C305.832 225.045 305.658 224.84 305.494 224.633C305.33 224.422 305.197 224.197 305.096 223.959C304.994 223.717 304.943 223.451 304.943 223.162C304.943 222.771 305.031 222.438 305.207 222.16C305.387 221.883 305.639 221.67 305.963 221.521C306.291 221.373 306.68 221.299 307.129 221.299ZM306.602 225.863C306.297 226.039 306.035 226.213 305.816 226.385C305.602 226.557 305.436 226.75 305.318 226.965C305.205 227.18 305.148 227.439 305.148 227.744C305.148 228.201 305.303 228.568 305.611 228.846C305.92 229.119 306.332 229.256 306.848 229.256C307.379 229.256 307.83 229.168 308.201 228.992C308.576 228.816 308.895 228.604 309.156 228.354L306.602 225.863ZM307.094 222.102C306.738 222.102 306.449 222.195 306.227 222.383C306.008 222.566 305.898 222.824 305.898 223.156C305.898 223.453 305.979 223.727 306.139 223.977C306.299 224.227 306.527 224.504 306.824 224.809C307.313 224.539 307.666 224.279 307.885 224.029C308.107 223.775 308.219 223.479 308.219 223.139C308.219 222.83 308.115 222.58 307.908 222.389C307.705 222.197 307.434 222.102 307.094 222.102ZM320.135 225.635C320.135 226.6 319.96 227.406 319.608 228.055C319.256 228.699 318.747 229.186 318.079 229.514C317.415 229.838 316.608 230 315.659 230H313.333V221.434H315.917C316.788 221.434 317.538 221.594 318.167 221.914C318.795 222.23 319.28 222.701 319.62 223.326C319.963 223.947 320.135 224.717 320.135 225.635ZM319.086 225.67C319.086 224.9 318.958 224.266 318.7 223.766C318.446 223.266 318.071 222.895 317.575 222.652C317.083 222.406 316.479 222.283 315.764 222.283H314.329V229.145H315.542C316.721 229.145 317.606 228.854 318.196 228.271C318.79 227.689 319.086 226.822 319.086 225.67Z" fill="black"/>
<rect x="14" y="247" width="12" height="12" fill="#47BDC6"/>
<path d="M39.2402 250.189C38.7675 250.189 38.3417 250.271 37.9628 250.436C37.5878 250.596 37.2675 250.83 37.0019 251.139C36.7402 251.443 36.539 251.812 36.3984 252.246C36.2577 252.68 36.1874 253.168 36.1874 253.711C36.1874 254.43 36.2988 255.055 36.5214 255.586C36.748 256.113 37.0839 256.521 37.5292 256.811C37.9784 257.1 38.539 257.244 39.2109 257.244C39.5937 257.244 39.953 257.213 40.289 257.15C40.6288 257.084 40.9589 257.002 41.2792 256.904V257.771C40.9667 257.889 40.6386 257.975 40.2948 258.029C39.9511 258.088 39.5429 258.117 39.0702 258.117C38.1991 258.117 37.4706 257.938 36.8847 257.578C36.3027 257.215 35.8652 256.703 35.5722 256.043C35.2831 255.383 35.1386 254.604 35.1386 253.705C35.1386 253.057 35.2284 252.465 35.4081 251.93C35.5917 251.391 35.8573 250.926 36.205 250.535C36.5566 250.145 36.9863 249.844 37.4941 249.633C38.0058 249.418 38.5917 249.311 39.2519 249.311C39.6855 249.311 40.1034 249.354 40.5058 249.439C40.9081 249.525 41.2714 249.648 41.5956 249.809L41.1972 250.652C40.9238 250.527 40.623 250.42 40.2948 250.33C39.9706 250.236 39.6191 250.189 39.2402 250.189ZM48.2329 251.578V258H47.436L47.2954 257.098H47.2427C47.1098 257.32 46.938 257.508 46.727 257.66C46.5161 257.812 46.2778 257.926 46.0122 258C45.7505 258.078 45.4712 258.117 45.1743 258.117C44.6665 258.117 44.2407 258.035 43.897 257.871C43.5532 257.707 43.2934 257.453 43.1177 257.109C42.9458 256.766 42.8598 256.324 42.8598 255.785V251.578H43.8442V255.715C43.8442 256.25 43.9653 256.65 44.2075 256.916C44.4497 257.178 44.8188 257.309 45.3149 257.309C45.7915 257.309 46.1704 257.219 46.4516 257.039C46.7368 256.859 46.9419 256.596 47.0669 256.248C47.1919 255.896 47.2544 255.467 47.2544 254.959V251.578H48.2329ZM54.3838 256.242C54.3838 256.652 54.2803 256.998 54.0733 257.279C53.8702 257.557 53.5772 257.766 53.1944 257.906C52.8155 258.047 52.3623 258.117 51.835 258.117C51.3858 258.117 50.9971 258.082 50.669 258.012C50.3409 257.941 50.0538 257.842 49.8077 257.713V256.816C50.0694 256.945 50.3819 257.062 50.7452 257.168C51.1084 257.273 51.4795 257.326 51.8584 257.326C52.4131 257.326 52.8155 257.236 53.0655 257.057C53.3155 256.877 53.4405 256.633 53.4405 256.324C53.4405 256.148 53.3897 255.994 53.2881 255.861C53.1905 255.725 53.0245 255.594 52.7901 255.469C52.5557 255.34 52.2315 255.199 51.8174 255.047C51.4073 254.891 51.0518 254.736 50.751 254.584C50.4541 254.428 50.2237 254.238 50.0596 254.016C49.8995 253.793 49.8194 253.504 49.8194 253.148C49.8194 252.605 50.0381 252.189 50.4756 251.9C50.917 251.607 51.4952 251.461 52.21 251.461C52.5967 251.461 52.958 251.5 53.294 251.578C53.6338 251.652 53.9502 251.754 54.2432 251.883L53.9151 252.662C53.6495 252.549 53.3663 252.453 53.0655 252.375C52.7647 252.297 52.458 252.258 52.1455 252.258C51.6963 252.258 51.3506 252.332 51.1084 252.48C50.8702 252.629 50.751 252.832 50.751 253.09C50.751 253.289 50.8057 253.453 50.9151 253.582C51.0284 253.711 51.208 253.832 51.4541 253.945C51.7002 254.059 52.0245 254.191 52.4268 254.344C52.8291 254.492 53.1768 254.646 53.4698 254.807C53.7627 254.963 53.9873 255.154 54.1436 255.381C54.3038 255.604 54.3838 255.891 54.3838 256.242ZM57.9625 257.32C58.1227 257.32 58.2867 257.307 58.4547 257.279C58.6227 257.252 58.7594 257.219 58.8648 257.18V257.936C58.7516 257.986 58.5934 258.029 58.3902 258.064C58.191 258.1 57.9957 258.117 57.8043 258.117C57.4645 258.117 57.1559 258.059 56.8785 257.941C56.6012 257.82 56.3785 257.617 56.2105 257.332C56.0465 257.047 55.9645 256.652 55.9645 256.148V252.34H55.0504V251.865L55.9703 251.484L56.357 250.09H56.943V251.578H58.8238V252.34H56.943V256.119C56.943 256.521 57.0348 256.822 57.2184 257.021C57.4059 257.221 57.6539 257.32 57.9625 257.32ZM68.1433 255.721C68.1433 256.229 68.0163 256.662 67.7624 257.021C67.5124 257.377 67.1609 257.648 66.7077 257.836C66.2546 258.023 65.7214 258.117 65.1081 258.117C64.7839 258.117 64.4773 258.102 64.1882 258.07C63.8991 258.039 63.6335 257.994 63.3913 257.936C63.1491 257.877 62.9363 257.805 62.7527 257.719V256.764C63.0456 256.885 63.403 256.998 63.8249 257.104C64.2468 257.205 64.6882 257.256 65.1491 257.256C65.5788 257.256 65.9421 257.199 66.239 257.086C66.5359 256.969 66.7605 256.803 66.9128 256.588C67.0691 256.369 67.1472 256.107 67.1472 255.803C67.1472 255.51 67.0827 255.266 66.9538 255.07C66.8249 254.871 66.6101 254.691 66.3093 254.531C66.0124 254.367 65.6062 254.193 65.0905 254.01C64.7273 253.881 64.407 253.74 64.1296 253.588C63.8523 253.432 63.6198 253.256 63.4323 253.061C63.2448 252.865 63.1023 252.639 63.0046 252.381C62.9109 252.123 62.864 251.828 62.864 251.496C62.864 251.039 62.9792 250.648 63.2097 250.324C63.4441 249.996 63.7663 249.746 64.1765 249.574C64.5905 249.398 65.0652 249.311 65.6003 249.311C66.0573 249.311 66.4792 249.354 66.8659 249.439C67.2566 249.525 67.614 249.641 67.9382 249.785L67.6277 250.641C67.3191 250.512 66.9909 250.404 66.6433 250.318C66.2995 250.232 65.9441 250.189 65.5769 250.189C65.2097 250.189 64.8991 250.244 64.6452 250.354C64.3952 250.459 64.2038 250.609 64.071 250.805C63.9382 251 63.8718 251.232 63.8718 251.502C63.8718 251.803 63.9343 252.053 64.0593 252.252C64.1882 252.451 64.3913 252.629 64.6687 252.785C64.9499 252.938 65.321 253.098 65.782 253.266C66.2859 253.449 66.7136 253.645 67.0652 253.852C67.4167 254.055 67.6843 254.305 67.8679 254.602C68.0515 254.895 68.1433 255.268 68.1433 255.721ZM74.9915 251.578V258H74.1946L74.054 257.098H74.0013C73.8684 257.32 73.6966 257.508 73.4856 257.66C73.2747 257.812 73.0364 257.926 72.7708 258C72.5091 258.078 72.2298 258.117 71.9329 258.117C71.4251 258.117 70.9993 258.035 70.6555 257.871C70.3118 257.707 70.052 257.453 69.8763 257.109C69.7044 256.766 69.6184 256.324 69.6184 255.785V251.578H70.6028V255.715C70.6028 256.25 70.7239 256.65 70.9661 256.916C71.2083 257.178 71.5774 257.309 72.0735 257.309C72.5501 257.309 72.929 257.219 73.2102 257.039C73.4954 256.859 73.7005 256.596 73.8255 256.248C73.9505 255.896 74.013 255.467 74.013 254.959V251.578H74.9915ZM80.0057 251.461C80.8065 251.461 81.4452 251.736 81.9217 252.287C82.3983 252.838 82.6366 253.666 82.6366 254.771C82.6366 255.502 82.5272 256.115 82.3084 256.611C82.0897 257.107 81.7811 257.482 81.3827 257.736C80.9881 257.99 80.5213 258.117 79.9823 258.117C79.6424 258.117 79.3436 258.072 79.0858 257.982C78.828 257.893 78.6073 257.771 78.4237 257.619C78.2401 257.467 78.0877 257.301 77.9666 257.121H77.8963C77.9081 257.273 77.9217 257.457 77.9373 257.672C77.9569 257.887 77.9666 258.074 77.9666 258.234V260.871H76.9881V251.578H77.7909L77.9198 252.527H77.9666C78.0916 252.332 78.244 252.154 78.4237 251.994C78.6034 251.83 78.8221 251.701 79.0799 251.607C79.3416 251.51 79.6502 251.461 80.0057 251.461ZM79.8358 252.281C79.3905 252.281 79.0311 252.367 78.7577 252.539C78.4881 252.711 78.2909 252.969 78.1659 253.312C78.0409 253.652 77.9745 254.08 77.9666 254.596V254.783C77.9666 255.326 78.0252 255.785 78.1424 256.16C78.2635 256.535 78.4608 256.82 78.7342 257.016C79.0116 257.211 79.3827 257.309 79.8475 257.309C80.2459 257.309 80.578 257.201 80.8436 256.986C81.1092 256.771 81.3065 256.473 81.4354 256.09C81.5682 255.703 81.6346 255.26 81.6346 254.76C81.6346 254.002 81.4862 253.4 81.1893 252.955C80.8963 252.506 80.4452 252.281 79.8358 252.281ZM94.9091 253.705C94.9091 254.365 94.8252 254.967 94.6572 255.51C94.4892 256.049 94.2392 256.514 93.9072 256.904C93.5791 257.291 93.1709 257.59 92.6826 257.801C92.1943 258.012 91.6279 258.117 90.9834 258.117C90.3193 258.117 89.7392 258.012 89.2431 257.801C88.7509 257.59 88.3408 257.289 88.0127 256.898C87.6884 256.508 87.4443 256.041 87.2802 255.498C87.1201 254.955 87.04 254.354 87.04 253.693C87.04 252.818 87.1845 252.051 87.4736 251.391C87.7627 250.73 88.2002 250.217 88.7861 249.85C89.3759 249.482 90.1142 249.299 91.0009 249.299C91.8486 249.299 92.5615 249.48 93.1396 249.844C93.7216 250.207 94.1611 250.719 94.458 251.379C94.7588 252.035 94.9091 252.811 94.9091 253.705ZM88.0888 253.705C88.0888 254.432 88.1923 255.061 88.3994 255.592C88.6064 256.123 88.9228 256.533 89.3486 256.822C89.7783 257.111 90.3232 257.256 90.9834 257.256C91.6474 257.256 92.1904 257.111 92.6123 256.822C93.038 256.533 93.3525 256.123 93.5556 255.592C93.7588 255.061 93.8603 254.432 93.8603 253.705C93.8603 252.6 93.6279 251.736 93.163 251.115C92.7021 250.49 91.9814 250.178 91.0009 250.178C90.3369 250.178 89.79 250.32 89.3603 250.605C88.9306 250.891 88.6103 251.297 88.3994 251.824C88.1923 252.348 88.0888 252.975 88.0888 253.705ZM99.6304 251.461C100.431 251.461 101.07 251.736 101.546 252.287C102.023 252.838 102.261 253.666 102.261 254.771C102.261 255.502 102.152 256.115 101.933 256.611C101.714 257.107 101.406 257.482 101.007 257.736C100.613 257.99 100.146 258.117 99.607 258.117C99.2671 258.117 98.9683 258.072 98.7105 257.982C98.4527 257.893 98.232 257.771 98.0484 257.619C97.8648 257.467 97.7124 257.301 97.5913 257.121H97.521C97.5327 257.273 97.5464 257.457 97.562 257.672C97.5816 257.887 97.5913 258.074 97.5913 258.234V260.871H96.6128V251.578H97.4156L97.5445 252.527H97.5913C97.7163 252.332 97.8687 252.154 98.0484 251.994C98.2281 251.83 98.4468 251.701 98.7046 251.607C98.9663 251.51 99.2749 251.461 99.6304 251.461ZM99.4605 252.281C99.0152 252.281 98.6558 252.367 98.3823 252.539C98.1128 252.711 97.9156 252.969 97.7906 253.312C97.6656 253.652 97.5991 254.08 97.5913 254.596V254.783C97.5913 255.326 97.6499 255.785 97.7671 256.16C97.8882 256.535 98.0855 256.82 98.3589 257.016C98.6363 257.211 99.0073 257.309 99.4722 257.309C99.8706 257.309 100.203 257.201 100.468 256.986C100.734 256.771 100.931 256.473 101.06 256.09C101.193 255.703 101.259 255.26 101.259 254.76C101.259 254.002 101.111 253.4 100.814 252.955C100.521 252.506 100.07 252.281 99.4605 252.281ZM108.055 256.242C108.055 256.652 107.951 256.998 107.744 257.279C107.541 257.557 107.248 257.766 106.865 257.906C106.486 258.047 106.033 258.117 105.506 258.117C105.057 258.117 104.668 258.082 104.34 258.012C104.012 257.941 103.725 257.842 103.479 257.713V256.816C103.74 256.945 104.053 257.062 104.416 257.168C104.779 257.273 105.15 257.326 105.529 257.326C106.084 257.326 106.486 257.236 106.736 257.057C106.986 256.877 107.111 256.633 107.111 256.324C107.111 256.148 107.061 255.994 106.959 255.861C106.861 255.725 106.695 255.594 106.461 255.469C106.227 255.34 105.902 255.199 105.488 255.047C105.078 254.891 104.723 254.736 104.422 254.584C104.125 254.428 103.895 254.238 103.731 254.016C103.57 253.793 103.49 253.504 103.49 253.148C103.49 252.605 103.709 252.189 104.147 251.9C104.588 251.607 105.166 251.461 105.881 251.461C106.268 251.461 106.629 251.5 106.965 251.578C107.305 251.652 107.621 251.754 107.914 251.883L107.586 252.662C107.32 252.549 107.037 252.453 106.736 252.375C106.436 252.297 106.129 252.258 105.816 252.258C105.367 252.258 105.022 252.332 104.779 252.48C104.541 252.629 104.422 252.832 104.422 253.09C104.422 253.289 104.477 253.453 104.586 253.582C104.699 253.711 104.879 253.832 105.125 253.945C105.371 254.059 105.695 254.191 106.098 254.344C106.5 254.492 106.848 254.646 107.141 254.807C107.434 254.963 107.658 255.154 107.815 255.381C107.975 255.604 108.055 255.891 108.055 256.242Z" fill="black"/>
<rect x="134" y="247" width="12" height="12" fill="#88B3F9"/>
<path d="M157.899 249.434C159.004 249.434 159.811 249.65 160.319 250.084C160.83 250.514 161.086 251.131 161.086 251.936C161.086 252.299 161.026 252.645 160.905 252.973C160.787 253.297 160.596 253.584 160.33 253.834C160.065 254.08 159.715 254.275 159.282 254.42C158.852 254.561 158.325 254.631 157.7 254.631H156.657V258H155.66V249.434H157.899ZM157.805 250.283H156.657V253.775H157.588C158.135 253.775 158.59 253.717 158.953 253.6C159.321 253.482 159.596 253.293 159.78 253.031C159.963 252.766 160.055 252.414 160.055 251.977C160.055 251.406 159.873 250.982 159.51 250.705C159.147 250.424 158.578 250.283 157.805 250.283ZM165.075 251.473C165.841 251.473 166.409 251.645 166.78 251.988C167.151 252.332 167.337 252.881 167.337 253.635V258H166.628L166.44 257.051H166.393C166.214 257.285 166.026 257.482 165.831 257.643C165.636 257.799 165.409 257.918 165.151 258C164.897 258.078 164.585 258.117 164.214 258.117C163.823 258.117 163.475 258.049 163.171 257.912C162.87 257.775 162.632 257.568 162.456 257.291C162.284 257.014 162.198 256.662 162.198 256.236C162.198 255.596 162.452 255.104 162.96 254.76C163.468 254.416 164.241 254.229 165.28 254.197L166.388 254.15V253.758C166.388 253.203 166.268 252.814 166.03 252.592C165.792 252.369 165.456 252.258 165.022 252.258C164.686 252.258 164.366 252.307 164.061 252.404C163.757 252.502 163.468 252.617 163.194 252.75L162.895 252.012C163.184 251.863 163.516 251.736 163.891 251.631C164.266 251.525 164.661 251.473 165.075 251.473ZM166.376 254.836L165.397 254.877C164.597 254.908 164.032 255.039 163.704 255.27C163.376 255.5 163.212 255.826 163.212 256.248C163.212 256.615 163.323 256.887 163.546 257.062C163.768 257.238 164.063 257.326 164.431 257.326C165.001 257.326 165.468 257.168 165.831 256.852C166.194 256.535 166.376 256.061 166.376 255.428V254.836ZM168.267 251.578H169.31L170.728 255.305C170.81 255.523 170.886 255.734 170.956 255.938C171.027 256.137 171.089 256.328 171.144 256.512C171.199 256.695 171.242 256.873 171.273 257.045H171.314C171.369 256.85 171.447 256.594 171.548 256.277C171.65 255.957 171.759 255.631 171.876 255.299L173.218 251.578H174.267L171.472 258.943C171.324 259.338 171.15 259.682 170.951 259.975C170.755 260.268 170.517 260.492 170.236 260.648C169.955 260.809 169.615 260.889 169.216 260.889C169.033 260.889 168.871 260.877 168.73 260.854C168.589 260.834 168.468 260.811 168.367 260.783V260.004C168.453 260.023 168.556 260.041 168.677 260.057C168.802 260.072 168.931 260.08 169.064 260.08C169.306 260.08 169.515 260.033 169.691 259.939C169.871 259.85 170.025 259.717 170.154 259.541C170.283 259.365 170.394 259.156 170.488 258.914L170.839 258.012L168.267 251.578ZM182.205 251.461C182.912 251.461 183.445 251.646 183.805 252.018C184.164 252.385 184.344 252.977 184.344 253.793V258H183.383V253.84C183.383 253.32 183.27 252.932 183.043 252.674C182.82 252.412 182.488 252.281 182.047 252.281C181.426 252.281 180.975 252.461 180.693 252.82C180.412 253.18 180.271 253.709 180.271 254.408V258H179.305V253.84C179.305 253.492 179.254 253.203 179.152 252.973C179.055 252.742 178.906 252.57 178.707 252.457C178.512 252.34 178.264 252.281 177.963 252.281C177.537 252.281 177.195 252.369 176.938 252.545C176.68 252.721 176.492 252.982 176.375 253.33C176.262 253.674 176.205 254.098 176.205 254.602V258H175.232V251.578H176.018L176.164 252.486H176.217C176.346 252.264 176.508 252.076 176.703 251.924C176.898 251.771 177.117 251.656 177.359 251.578C177.602 251.5 177.859 251.461 178.133 251.461C178.621 251.461 179.029 251.553 179.357 251.736C179.689 251.916 179.93 252.191 180.078 252.562H180.131C180.342 252.191 180.631 251.916 180.998 251.736C181.365 251.553 181.768 251.461 182.205 251.461ZM188.754 251.461C189.301 251.461 189.77 251.582 190.161 251.824C190.551 252.066 190.85 252.406 191.057 252.844C191.264 253.277 191.368 253.785 191.368 254.367V254.971H186.932C186.944 255.725 187.131 256.299 187.495 256.693C187.858 257.088 188.37 257.285 189.03 257.285C189.436 257.285 189.795 257.248 190.108 257.174C190.42 257.1 190.745 256.99 191.081 256.846V257.701C190.756 257.846 190.434 257.951 190.114 258.018C189.797 258.084 189.422 258.117 188.989 258.117C188.372 258.117 187.833 257.992 187.372 257.742C186.915 257.488 186.559 257.117 186.305 256.629C186.051 256.141 185.924 255.543 185.924 254.836C185.924 254.145 186.04 253.547 186.27 253.043C186.504 252.535 186.833 252.145 187.254 251.871C187.68 251.598 188.18 251.461 188.754 251.461ZM188.743 252.258C188.223 252.258 187.809 252.428 187.501 252.768C187.192 253.107 187.008 253.582 186.95 254.191H190.348C190.344 253.809 190.284 253.473 190.167 253.184C190.053 252.891 189.879 252.664 189.645 252.504C189.411 252.34 189.11 252.258 188.743 252.258ZM196.001 251.461C196.763 251.461 197.339 251.648 197.73 252.023C198.12 252.395 198.316 252.992 198.316 253.816V258H197.355V253.881C197.355 253.346 197.232 252.945 196.985 252.68C196.743 252.414 196.37 252.281 195.866 252.281C195.155 252.281 194.655 252.482 194.366 252.885C194.077 253.287 193.933 253.871 193.933 254.637V258H192.96V251.578H193.745L193.892 252.504H193.944C194.081 252.277 194.255 252.088 194.466 251.936C194.677 251.779 194.913 251.662 195.175 251.584C195.437 251.502 195.712 251.461 196.001 251.461ZM202.334 257.32C202.494 257.32 202.658 257.307 202.826 257.279C202.994 257.252 203.131 257.219 203.236 257.18V257.936C203.123 257.986 202.965 258.029 202.761 258.064C202.562 258.1 202.367 258.117 202.175 258.117C201.836 258.117 201.527 258.059 201.25 257.941C200.972 257.82 200.75 257.617 200.582 257.332C200.418 257.047 200.336 256.652 200.336 256.148V252.34H199.422V251.865L200.341 251.484L200.728 250.09H201.314V251.578H203.195V252.34H201.314V256.119C201.314 256.521 201.406 256.822 201.59 257.021C201.777 257.221 202.025 257.32 202.334 257.32Z" fill="black"/>
<rect x="229" y="247" width="12" height="12" fill="#3830C9"/>
<path d="M252.695 249.434C253.801 249.434 254.607 249.65 255.115 250.084C255.627 250.514 255.883 251.131 255.883 251.936C255.883 252.299 255.822 252.645 255.701 252.973C255.584 253.297 255.393 253.584 255.127 253.834C254.861 254.08 254.512 254.275 254.078 254.42C253.648 254.561 253.121 254.631 252.496 254.631H251.453V258H250.457V249.434H252.695ZM252.601 250.283H251.453V253.775H252.385C252.932 253.775 253.387 253.717 253.75 253.6C254.117 253.482 254.393 253.293 254.576 253.031C254.76 252.766 254.851 252.414 254.851 251.977C254.851 251.406 254.67 250.982 254.307 250.705C253.943 250.424 253.375 250.283 252.601 250.283ZM260.387 251.461C260.516 251.461 260.651 251.469 260.791 251.484C260.932 251.496 261.057 251.514 261.166 251.537L261.043 252.439C260.938 252.412 260.821 252.391 260.692 252.375C260.563 252.359 260.442 252.352 260.329 252.352C260.071 252.352 259.827 252.404 259.596 252.51C259.37 252.611 259.17 252.76 258.999 252.955C258.827 253.146 258.692 253.379 258.594 253.652C258.497 253.922 258.448 254.223 258.448 254.555V258H257.469V251.578H258.278L258.383 252.762H258.424C258.557 252.523 258.717 252.307 258.905 252.111C259.092 251.912 259.309 251.754 259.555 251.637C259.805 251.52 260.083 251.461 260.387 251.461ZM267.856 254.777C267.856 255.305 267.788 255.775 267.651 256.189C267.515 256.604 267.317 256.953 267.06 257.238C266.802 257.523 266.489 257.742 266.122 257.895C265.759 258.043 265.347 258.117 264.886 258.117C264.456 258.117 264.062 258.043 263.702 257.895C263.347 257.742 263.038 257.523 262.776 257.238C262.519 256.953 262.317 256.604 262.173 256.189C262.032 255.775 261.962 255.305 261.962 254.777C261.962 254.074 262.081 253.477 262.319 252.984C262.558 252.488 262.898 252.111 263.339 251.854C263.784 251.592 264.314 251.461 264.927 251.461C265.513 251.461 266.024 251.592 266.462 251.854C266.903 252.115 267.245 252.494 267.487 252.99C267.733 253.482 267.856 254.078 267.856 254.777ZM262.97 254.777C262.97 255.293 263.038 255.74 263.175 256.119C263.312 256.498 263.523 256.791 263.808 256.998C264.093 257.205 264.46 257.309 264.909 257.309C265.355 257.309 265.72 257.205 266.005 256.998C266.294 256.791 266.507 256.498 266.644 256.119C266.78 255.74 266.849 255.293 266.849 254.777C266.849 254.266 266.78 253.824 266.644 253.453C266.507 253.078 266.296 252.789 266.011 252.586C265.726 252.383 265.356 252.281 264.903 252.281C264.235 252.281 263.745 252.502 263.433 252.943C263.124 253.385 262.97 253.996 262.97 254.777ZM272.338 252.34H270.738V258H269.765V252.34H268.629V251.871L269.765 251.549V251.121C269.765 250.582 269.845 250.145 270.005 249.809C270.166 249.469 270.398 249.219 270.703 249.059C271.007 248.898 271.379 248.818 271.816 248.818C272.062 248.818 272.287 248.84 272.49 248.883C272.697 248.926 272.879 248.975 273.035 249.029L272.783 249.797C272.65 249.754 272.5 249.715 272.332 249.68C272.168 249.641 272 249.621 271.828 249.621C271.457 249.621 271.181 249.742 271.002 249.984C270.826 250.223 270.738 250.598 270.738 251.109V251.578H272.338V252.34ZM274.488 251.578V258H273.515V251.578H274.488ZM274.013 249.176C274.173 249.176 274.31 249.229 274.423 249.334C274.541 249.436 274.599 249.596 274.599 249.814C274.599 250.029 274.541 250.189 274.423 250.295C274.31 250.4 274.173 250.453 274.013 250.453C273.845 250.453 273.705 250.4 273.591 250.295C273.482 250.189 273.427 250.029 273.427 249.814C273.427 249.596 273.482 249.436 273.591 249.334C273.705 249.229 273.845 249.176 274.013 249.176ZM278.559 257.32C278.719 257.32 278.883 257.307 279.051 257.279C279.219 257.252 279.356 257.219 279.461 257.18V257.936C279.348 257.986 279.19 258.029 278.986 258.064C278.787 258.1 278.592 258.117 278.401 258.117C278.061 258.117 277.752 258.059 277.475 257.941C277.197 257.82 276.975 257.617 276.807 257.332C276.643 257.047 276.561 256.652 276.561 256.148V252.34H275.647V251.865L276.567 251.484L276.953 250.09H277.539V251.578H279.42V252.34H277.539V256.119C277.539 256.521 277.631 256.822 277.815 257.021C278.002 257.221 278.25 257.32 278.559 257.32ZM287.673 258L284.796 250.418H284.749C284.765 250.578 284.779 250.773 284.79 251.004C284.802 251.234 284.812 251.486 284.82 251.76C284.827 252.029 284.831 252.305 284.831 252.586V258H283.906V249.434H285.382L288.095 256.559H288.136L290.89 249.434H292.355V258H291.37V252.516C291.37 252.262 291.374 252.008 291.382 251.754C291.39 251.496 291.4 251.254 291.411 251.027C291.423 250.797 291.435 250.598 291.447 250.43H291.4L288.488 258H287.673ZM296.894 251.473C297.66 251.473 298.228 251.645 298.599 251.988C298.971 252.332 299.156 252.881 299.156 253.635V258H298.447L298.26 257.051H298.213C298.033 257.285 297.846 257.482 297.65 257.643C297.455 257.799 297.228 257.918 296.971 258C296.717 258.078 296.404 258.117 296.033 258.117C295.642 258.117 295.295 258.049 294.99 257.912C294.689 257.775 294.451 257.568 294.275 257.291C294.103 257.014 294.017 256.662 294.017 256.236C294.017 255.596 294.271 255.104 294.779 254.76C295.287 254.416 296.06 254.229 297.099 254.197L298.207 254.15V253.758C298.207 253.203 298.088 252.814 297.849 252.592C297.611 252.369 297.275 252.258 296.842 252.258C296.506 252.258 296.185 252.307 295.881 252.404C295.576 252.502 295.287 252.617 295.014 252.75L294.715 252.012C295.004 251.863 295.336 251.736 295.711 251.631C296.086 251.525 296.48 251.473 296.894 251.473ZM298.195 254.836L297.217 254.877C296.416 254.908 295.851 255.039 295.523 255.27C295.195 255.5 295.031 255.826 295.031 256.248C295.031 256.615 295.142 256.887 295.365 257.062C295.588 257.238 295.883 257.326 296.25 257.326C296.82 257.326 297.287 257.168 297.65 256.852C298.014 256.535 298.195 256.061 298.195 255.428V254.836ZM304.018 251.461C304.147 251.461 304.282 251.469 304.422 251.484C304.563 251.496 304.688 251.514 304.797 251.537L304.674 252.439C304.569 252.412 304.452 252.391 304.323 252.375C304.194 252.359 304.073 252.352 303.959 252.352C303.702 252.352 303.457 252.404 303.227 252.51C303 252.611 302.801 252.76 302.629 252.955C302.457 253.146 302.323 253.379 302.225 253.652C302.127 253.922 302.079 254.223 302.079 254.555V258H301.1V251.578H301.909L302.014 252.762H302.055C302.188 252.523 302.348 252.307 302.536 252.111C302.723 251.912 302.94 251.754 303.186 251.637C303.436 251.52 303.713 251.461 304.018 251.461ZM307.743 260.883C306.899 260.883 306.249 260.725 305.792 260.408C305.335 260.096 305.106 259.656 305.106 259.09C305.106 258.688 305.233 258.344 305.487 258.059C305.745 257.773 306.101 257.584 306.554 257.49C306.386 257.412 306.241 257.295 306.12 257.139C306.003 256.982 305.944 256.803 305.944 256.6C305.944 256.365 306.009 256.16 306.138 255.984C306.27 255.805 306.472 255.633 306.741 255.469C306.405 255.332 306.132 255.102 305.921 254.777C305.714 254.449 305.61 254.068 305.61 253.635C305.61 253.174 305.706 252.781 305.897 252.457C306.089 252.129 306.366 251.879 306.729 251.707C307.093 251.535 307.532 251.449 308.048 251.449C308.161 251.449 308.274 251.455 308.388 251.467C308.505 251.475 308.616 251.488 308.722 251.508C308.827 251.523 308.919 251.543 308.997 251.566H311.2V252.193L310.017 252.34C310.134 252.492 310.231 252.676 310.31 252.891C310.388 253.105 310.427 253.344 310.427 253.605C310.427 254.246 310.21 254.756 309.776 255.135C309.343 255.51 308.747 255.697 307.989 255.697C307.81 255.697 307.626 255.682 307.438 255.65C307.247 255.756 307.101 255.873 306.999 256.002C306.901 256.131 306.853 256.279 306.853 256.447C306.853 256.572 306.89 256.672 306.964 256.746C307.042 256.82 307.153 256.875 307.298 256.91C307.442 256.941 307.616 256.957 307.819 256.957H308.95C309.649 256.957 310.185 257.104 310.556 257.396C310.931 257.689 311.118 258.117 311.118 258.68C311.118 259.391 310.829 259.936 310.251 260.314C309.673 260.693 308.837 260.883 307.743 260.883ZM307.772 260.121C308.304 260.121 308.743 260.066 309.091 259.957C309.442 259.852 309.704 259.697 309.876 259.494C310.052 259.295 310.14 259.057 310.14 258.779C310.14 258.521 310.081 258.326 309.964 258.193C309.847 258.064 309.675 257.979 309.448 257.936C309.222 257.889 308.944 257.865 308.616 257.865H307.503C307.214 257.865 306.962 257.91 306.747 258C306.532 258.09 306.366 258.223 306.249 258.398C306.136 258.574 306.079 258.793 306.079 259.055C306.079 259.402 306.226 259.666 306.519 259.846C306.811 260.029 307.229 260.121 307.772 260.121ZM308.024 254.988C308.489 254.988 308.839 254.871 309.073 254.637C309.308 254.402 309.425 254.061 309.425 253.611C309.425 253.131 309.306 252.771 309.067 252.533C308.829 252.291 308.478 252.17 308.013 252.17C307.567 252.17 307.224 252.295 306.981 252.545C306.743 252.791 306.624 253.152 306.624 253.629C306.624 254.066 306.745 254.402 306.987 254.637C307.229 254.871 307.575 254.988 308.024 254.988ZM313.378 251.578V258H312.406V251.578H313.378ZM312.904 249.176C313.064 249.176 313.201 249.229 313.314 249.334C313.431 249.436 313.49 249.596 313.49 249.814C313.49 250.029 313.431 250.189 313.314 250.295C313.201 250.4 313.064 250.453 312.904 250.453C312.736 250.453 312.595 250.4 312.482 250.295C312.373 250.189 312.318 250.029 312.318 249.814C312.318 249.596 312.373 249.436 312.482 249.334C312.595 249.229 312.736 249.176 312.904 249.176ZM318.422 251.461C319.184 251.461 319.76 251.648 320.15 252.023C320.541 252.395 320.736 252.992 320.736 253.816V258H319.775V253.881C319.775 253.346 319.652 252.945 319.406 252.68C319.164 252.414 318.791 252.281 318.287 252.281C317.576 252.281 317.076 252.482 316.787 252.885C316.498 253.287 316.354 253.871 316.354 254.637V258H315.381V251.578H316.166L316.313 252.504H316.365C316.502 252.277 316.676 252.088 316.887 251.936C317.098 251.779 317.334 251.662 317.596 251.584C317.857 251.502 318.133 251.461 318.422 251.461Z" fill="black"/>
</svg>
