<svg width="500" height="540" viewBox="0 0 500 540" fill="none" xmlns="http://www.w3.org/2000/svg">
<rect width="500" height="540" rx="8" fill="url(#paint0_linear_2580_28330)"/>
<path d="M347.477 333.72C347.214 335.412 347.116 337.137 346.959 338.836C346.801 340.561 346.637 342.292 346.565 344.024C346.539 344.568 347.332 344.542 347.398 344.024C347.601 342.325 347.719 340.62 347.837 338.914C347.956 337.216 348.139 335.504 348.152 333.805C348.146 333.438 347.536 333.327 347.477 333.72Z" fill="#22E393"/>
<path d="M345.95 391.16C345.812 395.029 346.127 399.581 343.11 402.532C342.729 402.906 343.3 403.47 343.693 403.116C347.038 400.106 346.592 395.226 346.559 391.16C346.559 390.766 345.963 390.773 345.95 391.16Z" fill="#22E393"/>
<path d="M372.609 299.753C373.488 300.868 374.452 301.957 375.252 303.131C375.698 303.787 375.193 304.325 374.76 304.843C374.347 305.341 373.901 305.807 373.416 306.233C373.18 306.443 372.898 306.758 372.55 306.712C372.242 306.666 371.934 306.456 371.665 306.318C371.022 305.984 370.379 305.656 369.737 305.322C368.556 304.712 367.356 304.141 366.188 303.505C365.014 302.869 363.932 302.134 363.198 300.999C362.962 300.639 362.424 300.954 362.621 301.334C363.244 302.521 364.378 303.367 365.513 304.023C366.871 304.81 368.294 305.485 369.697 306.194C370.438 306.568 371.166 306.981 371.927 307.309C372.603 307.604 373.14 307.473 373.691 307.007C374.275 306.515 374.806 305.958 375.285 305.361C375.685 304.856 376.197 304.272 376.125 303.584C376.046 302.836 375.252 302.206 374.78 301.688C374.131 300.967 373.482 300.252 372.839 299.53C372.695 299.373 372.491 299.596 372.609 299.753Z" fill="#22E393"/>
<path d="M372.412 307.918C372.537 308.147 372.74 308.331 372.897 308.541C373.068 308.764 373.212 309 373.337 309.249C373.573 309.715 373.717 310.227 373.783 310.738C373.894 311.65 373.802 313.034 372.996 313.644C372.451 314.05 371.723 313.519 371.225 313.25C370.674 312.948 370.13 312.64 369.598 312.306C368.483 311.604 367.447 310.797 366.483 309.905C366.195 309.636 365.762 310.063 366.05 310.338C366.916 311.184 367.854 311.971 368.838 312.679C369.789 313.362 370.845 314.103 371.96 314.496C373.074 314.89 373.907 314.083 374.281 313.099C374.622 312.188 374.662 311.151 374.426 310.213C374.294 309.695 374.078 309.184 373.796 308.731C373.52 308.298 373.166 307.78 372.674 307.583C372.478 307.492 372.327 307.754 372.412 307.918Z" fill="#22E393"/>
<path d="M371.625 314.43C372.405 315.198 372.825 316.385 372.589 317.467C372.366 318.47 371.638 319.356 370.687 319.749C368.241 320.74 365.958 318.628 364.457 316.975C364.207 316.7 363.807 317.106 364.05 317.382C364.988 318.464 366.024 319.539 367.342 320.143C368.595 320.72 370.077 320.877 371.343 320.248C372.451 319.697 373.225 318.556 373.343 317.323C373.468 316.057 372.891 314.85 371.894 314.083C371.691 313.938 371.454 314.266 371.625 314.43Z" fill="#22E393"/>
<path d="M368.635 320.531C369.212 321.639 369.035 323.115 368.222 324.066C367.139 325.345 365.159 325.108 363.657 325.286C359.932 325.732 356.305 326.801 352.73 327.883C351.018 328.401 349.3 329.037 347.995 330.309C347.693 330.611 348.152 331.07 348.461 330.775C349.746 329.555 351.445 328.978 353.104 328.486C354.993 327.929 356.888 327.378 358.803 326.919C360.784 326.446 362.798 326.066 364.831 325.909C366.405 325.791 367.979 325.699 368.996 324.328C369.861 323.147 370.019 321.442 369.127 320.229C368.91 319.953 368.458 320.196 368.635 320.531Z" fill="#22E393"/>
<path d="M350.206 329.614C349.38 338.252 348.783 346.903 348.416 355.573C348.049 364.171 347.924 372.783 348.009 381.394C348.042 384.811 348.121 388.221 348.252 391.639C348.35 394.308 348.409 397.023 347.944 399.666C347.498 402.185 346.534 404.657 344.579 406.382C343.326 407.484 341.851 408.055 340.264 408.494C338.27 409.051 336.263 409.576 334.177 409.583C332.288 409.583 330.445 409.091 328.989 407.845C327.842 406.867 327.048 405.582 326.379 404.251C325.651 402.801 324.982 401.312 324.287 399.843C323.388 397.954 322.772 396.059 322.818 393.941C322.87 391.816 323.316 389.691 323.703 387.612C324.09 385.539 324.517 383.473 324.982 381.414C325.9 377.315 326.943 373.242 327.966 369.162C330.045 360.912 331.895 352.622 333.403 344.246C334.158 340.075 334.833 335.891 335.443 331.693C335.738 329.627 335.961 327.542 336.368 325.496C336.768 323.462 337.47 321.574 338.48 319.77C340.493 316.169 342.887 312.746 345.202 309.335C347.563 305.859 349.99 302.436 352.489 299.058C353.066 298.278 353.617 297.438 354.279 296.723C354.988 295.956 355.82 295.661 356.85 295.621C358.903 295.549 360.995 295.713 363.041 295.857C365.016 296.002 367.193 296.015 369.062 296.71C370.617 297.287 371.561 298.612 372.453 299.93C373.26 301.124 374.079 302.298 375.312 303.098C375.719 303.36 376.1 302.711 375.693 302.449C374.342 301.57 373.548 300.094 372.637 298.802C371.712 297.491 370.643 296.402 369.095 295.871C367.232 295.234 365.101 295.195 363.153 295.051C361.015 294.887 358.805 294.683 356.66 294.808C355.82 294.854 355.014 295.051 354.332 295.562C353.643 296.08 353.151 296.802 352.64 297.484C351.341 299.222 350.055 300.98 348.79 302.744C346.258 306.279 343.805 309.867 341.431 313.507C339.168 316.969 336.67 320.426 335.725 324.525C335.246 326.624 335.023 328.775 334.722 330.906C334.413 333.058 334.085 335.209 333.738 337.36C332.328 346.083 330.616 354.76 328.55 363.351C326.523 371.779 324.169 380.148 322.68 388.694C322.319 390.766 321.893 392.898 322.024 395.016C322.149 397.01 322.903 398.833 323.762 400.611C325.113 403.391 326.189 406.664 328.707 408.638C331.875 411.117 336.04 410.455 339.647 409.471C341.339 409.012 342.985 408.54 344.415 407.491C345.458 406.73 346.33 405.766 346.999 404.657C348.377 402.375 348.849 399.653 349.013 397.03C349.177 394.328 348.993 391.625 348.895 388.923C348.58 380.279 348.652 371.609 348.862 362.965C349.078 354.032 349.511 345.106 350.154 336.186C350.311 333.989 350.488 331.785 350.672 329.588C350.685 329.326 350.233 329.326 350.206 329.614Z" fill="#22E393"/>
<path d="M372.17 299.155C373.2 299.549 374.236 299.903 375.286 300.238C376.105 300.5 377.227 300.651 377.634 301.523C378.388 303.163 376.302 304.061 375.109 304.461C374.663 304.612 374.853 305.321 375.305 305.17C376.551 304.756 378.119 304.127 378.46 302.697C378.63 301.976 378.421 301.215 377.942 300.657C377.371 300.008 376.433 299.831 375.646 299.601C374.538 299.274 373.43 298.965 372.301 298.696C371.993 298.631 371.888 299.051 372.17 299.155Z" fill="#22E393"/>
<path d="M355.697 295.239C353.939 296.164 353.506 298.833 354.621 300.401C354.896 300.788 355.539 300.427 355.27 300.021C354.306 298.571 354.706 296.702 355.939 295.548C356.11 295.39 355.893 295.134 355.697 295.239Z" fill="#22E393"/>
<path d="M359.087 302.782C357.913 303.13 356.956 304.133 356.72 305.346C356.47 306.639 357.021 307.931 358.051 308.718C358.418 308.993 358.786 308.37 358.412 308.101C357.605 307.511 357.159 306.422 357.33 305.438C357.5 304.428 358.248 303.576 359.212 303.254C359.507 303.149 359.389 302.697 359.087 302.782Z" fill="#22E393"/>
<path d="M358.876 310.193C358.378 310.645 358.299 311.452 358.443 312.069C358.594 312.725 359.027 313.348 359.65 313.636C359.808 313.708 359.998 313.682 360.09 313.518C360.168 313.38 360.136 313.151 359.972 313.079C359.486 312.856 359.139 312.449 358.981 311.918C358.824 311.367 358.909 310.862 359.132 310.344C359.204 310.193 358.981 310.101 358.876 310.193Z" fill="#22E393"/>
<path d="M361.075 279.834C360.681 282.123 360.366 284.458 360.189 286.773C360.111 287.809 360.045 288.839 359.927 289.868C359.737 291.58 359.54 293.292 359.343 295.004C359.278 295.601 360.202 295.588 360.274 295.004C360.563 292.728 360.865 290.439 360.996 288.144C361.055 287.107 361.101 286.078 361.193 285.048C361.35 283.336 361.54 281.631 361.658 279.913C361.685 279.585 361.134 279.499 361.075 279.834Z" fill="#22E393"/>
<path d="M369.048 279.886C368.766 280.791 368.713 281.814 368.589 282.752C368.497 283.441 368.425 284.129 368.352 284.818C368.274 285.598 368.202 286.372 368.169 287.159C368.116 288.307 368.11 289.448 368.011 290.596C367.861 292.367 367.651 294.138 367.513 295.908C367.474 296.42 368.346 296.551 368.425 296.033C368.772 293.62 369.054 291.16 369.133 288.714C369.172 287.566 369.172 286.425 369.251 285.277C369.297 284.588 369.362 283.9 369.415 283.205C369.454 282.719 369.487 282.227 369.52 281.742C369.559 281.158 369.645 280.548 369.599 279.965C369.572 279.65 369.146 279.571 369.048 279.886Z" fill="#22E393"/>
<path d="M355.918 327.732C354.817 336.442 353.472 345.119 352.154 353.802C350.835 362.44 349.557 371.09 348.678 379.787C348.56 380.961 348.448 382.135 348.35 383.309C348.265 384.286 348.042 385.473 349.006 386.103C349.425 386.378 349.97 386.49 350.455 386.601C351.013 386.726 351.577 386.818 352.141 386.87C353.288 386.982 354.436 386.929 355.577 386.746C356.141 386.654 355.899 385.801 355.341 385.886C354.338 386.037 353.308 386.064 352.298 385.972C351.839 385.926 351.38 385.854 350.927 385.755C350.481 385.657 349.924 385.572 349.537 385.322C349.17 385.08 349.202 384.634 349.229 384.24C349.268 383.716 349.32 383.197 349.366 382.673C349.465 381.604 349.57 380.541 349.681 379.472C350.121 375.294 350.645 371.123 351.216 366.959C352.377 358.564 353.747 350.201 354.967 341.813C355.649 337.13 356.299 332.441 356.817 327.738C356.876 327.155 355.991 327.168 355.918 327.732Z" fill="#22E393"/>
<path d="M364.162 325.612C363.46 329.508 362.929 333.437 362.358 337.359C361.788 341.287 361.224 345.216 360.646 349.144C359.486 356.995 358.272 364.845 357.026 372.683C356.679 374.887 356.318 377.084 355.964 379.287C355.603 381.485 355.196 383.682 354.888 385.892C354.809 386.449 355.642 386.712 355.76 386.135C356.534 382.245 357.105 378.31 357.754 374.401C358.403 370.46 359.046 366.518 359.669 362.57C360.902 354.732 362.109 346.882 363.204 339.024C363.821 334.597 364.47 330.17 364.877 325.717C364.903 325.311 364.234 325.212 364.162 325.612Z" fill="#22E393"/>
<circle cx="367.117" cy="250" r="32" fill="#22E393"/>
<path d="M287.211 286.434C286.116 285.995 284.968 285.549 283.768 285.582C282.653 285.608 281.669 286.093 280.79 286.749C280.371 287.064 279.931 287.385 279.564 287.766C279.197 288.146 279.02 288.599 278.915 289.11C278.665 290.337 278.436 291.563 278.121 292.777C277.977 293.341 277.813 293.898 277.649 294.449C277.485 294.993 277.439 295.459 277.924 295.839C278.724 296.462 279.754 297 280.777 297.066C282.994 297.21 284.673 295.459 285.795 293.767C286.149 293.229 286.477 292.678 286.818 292.134C287.178 291.544 287.598 290.96 287.874 290.317C288.385 289.123 287.979 287.864 287.546 286.716C287.395 286.323 286.759 286.5 286.916 286.893C287.27 287.799 287.69 288.841 287.382 289.819C287.237 290.284 286.942 290.697 286.687 291.111C286.405 291.57 286.116 292.029 285.834 292.481C284.863 294.042 283.735 295.761 281.846 296.259C280.863 296.515 279.964 296.253 279.105 295.754C278.895 295.629 278.679 295.505 278.482 295.367C278.416 295.321 278.311 295.275 278.272 295.203C278.18 295.052 278.272 294.862 278.318 294.718C278.475 294.187 278.633 293.655 278.777 293.118C279.046 292.094 279.275 291.065 279.459 290.022C279.538 289.576 279.57 289.097 279.741 288.677C279.938 288.212 280.377 287.91 280.758 287.602C281.591 286.933 282.522 286.316 283.624 286.244C284.804 286.165 285.965 286.605 287.054 287.018C287.421 287.156 287.565 286.579 287.211 286.434Z" fill="#22E393"/>
<path d="M284.451 290.868C283.356 290.816 282.182 291.104 281.172 291.517C280.129 291.944 279.172 292.534 278.326 293.282C278.516 293.393 278.706 293.505 278.896 293.616C279.119 292.108 279.414 290.311 281.041 289.72C281.454 289.569 281.887 289.491 282.32 289.445C282.707 289.406 283.172 289.366 283.507 289.602C283.999 289.95 283.992 290.724 283.546 291.098C283.185 291.399 283.717 291.95 284.071 291.622C284.536 291.189 284.687 290.475 284.491 289.871C284.254 289.15 283.625 288.796 282.89 288.763C282.077 288.723 281.146 288.92 280.418 289.287C279.723 289.635 279.204 290.252 278.883 290.947C278.516 291.734 278.358 292.58 278.234 293.432C278.181 293.767 278.535 294.003 278.804 293.767C279.598 293.065 280.496 292.508 281.467 292.088C282.451 291.668 283.461 291.471 284.51 291.288C284.753 291.242 284.681 290.875 284.451 290.868Z" fill="#22E393"/>
<path d="M284.583 294.712C283.861 295.262 283.068 295.82 282.451 296.489C281.894 297.092 281.756 297.866 281.835 298.66C281.9 299.296 281.953 300.339 282.596 300.68C282.884 300.837 283.225 300.818 283.533 300.759C284.025 300.673 284.498 300.529 284.996 300.47C286.957 300.227 288.925 300.529 290.892 300.575C292.696 300.614 294.513 300.391 296.257 299.926C298.225 299.401 300.107 298.568 301.819 297.466C302.193 297.224 301.845 296.627 301.471 296.869C298.736 298.62 295.595 299.644 292.348 299.84C290.636 299.945 288.938 299.755 287.233 299.703C286.406 299.676 285.573 299.69 284.753 299.801C284.353 299.853 283.973 299.939 283.579 300.031C283.402 300.07 283.206 300.122 283.028 300.083C282.799 300.031 282.76 299.853 282.707 299.65C282.478 298.798 282.235 297.82 282.72 297.007C282.937 296.64 283.284 296.358 283.593 296.069C283.986 295.695 284.386 295.322 284.766 294.928C284.858 294.823 284.714 294.607 284.583 294.712Z" fill="#22E393"/>
<path d="M307.813 293.944C307.715 292.744 306.613 292.082 305.544 291.826C304.822 291.655 304.081 291.57 303.36 291.419C302.638 291.262 301.917 291.078 301.209 290.862C299.713 290.396 298.343 289.688 296.893 289.117C295.581 288.605 294.178 288.356 292.768 288.35C291.174 288.343 289.58 288.651 288.111 289.268C287.659 289.458 287.855 290.212 288.321 290.022C290.754 289.006 293.47 288.855 296.001 289.616C297.326 290.016 298.559 290.685 299.864 291.144C301.163 291.603 302.507 291.937 303.871 292.173C305.098 292.383 307.19 292.396 307.413 294.003C307.439 294.233 307.833 294.18 307.813 293.944Z" fill="#22E393"/>
<path d="M283.08 300.168C281.211 300.351 280.115 302.221 279.886 303.919C279.728 305.06 279.866 306.208 280.03 307.336C280.096 307.776 280.161 308.222 280.443 308.582C280.758 308.982 281.263 309.153 281.735 309.284C283.965 309.907 286.352 309.711 288.628 309.599C290.812 309.494 293.016 309.448 295.187 309.153C297.318 308.858 299.45 308.182 301.017 306.641C301.339 306.32 300.853 305.841 300.519 306.143C297.856 308.615 293.764 308.458 290.379 308.648C288.333 308.766 286.261 308.982 284.214 308.851C283.703 308.819 283.191 308.759 282.686 308.661C282.24 308.576 281.696 308.497 281.289 308.281C280.856 308.051 280.824 307.566 280.758 307.133C280.673 306.602 280.601 306.077 280.568 305.539C280.437 303.545 281.033 301.296 283.152 300.633C283.388 300.561 283.362 300.135 283.08 300.168Z" fill="#22E393"/>
<path d="M283.539 308.845C281.676 309.127 280.882 311.081 280.85 312.76C280.837 313.305 280.889 313.843 280.948 314.38C281.001 314.853 281.04 315.344 281.171 315.797C281.433 316.682 282.07 317.214 282.962 317.404C283.853 317.594 284.804 317.574 285.716 317.62C286.739 317.673 287.756 317.706 288.779 317.712C290.727 317.725 292.675 317.627 294.596 317.286C296.734 316.905 298.82 316.177 300.676 315.036C301.03 314.82 300.709 314.269 300.348 314.479C297.305 316.243 293.777 316.761 290.307 316.853C288.569 316.899 286.831 316.833 285.093 316.735C284.332 316.696 283.44 316.748 282.719 316.446C281.866 316.086 281.801 315.161 281.689 314.354C281.545 313.298 281.42 312.164 281.794 311.14C282.102 310.281 282.752 309.534 283.67 309.337C284.004 309.271 283.86 308.799 283.539 308.845Z" fill="#22E393"/>
<path d="M282.975 316.984C281.926 317.778 281.559 319.162 281.815 320.428C282.103 321.831 283.198 322.999 284.438 323.654C287.507 325.288 291.193 324.619 294.381 325.871C296.152 326.566 297.962 327.039 299.818 326.343C300.224 326.193 300.06 325.543 299.634 325.681C298.893 325.924 298.158 326.068 297.371 326.016C296.643 325.963 295.935 325.753 295.246 325.51C294.525 325.255 293.83 324.96 293.089 324.776C292.361 324.599 291.62 324.487 290.878 324.396C288.163 324.048 284.549 323.884 282.923 321.287C282.156 320.06 282.215 318.447 283.297 317.424C283.52 317.201 283.225 316.801 282.975 316.984Z" fill="#22E393"/>
<path d="M301.858 325.588C303.746 325.11 305.465 323.719 306.239 321.922C306.711 320.827 306.691 319.692 306.849 318.531C307.006 317.384 307.537 316.4 308.134 315.423C308.685 314.518 309.275 313.632 309.688 312.648C310.174 311.494 310.285 310.314 310.207 309.074C310.121 307.736 310.003 306.437 310.102 305.093C310.2 303.788 310.357 302.456 310.187 301.158C310.003 299.708 309.4 298.351 308.915 296.987C308.396 295.531 307.937 294.029 307.327 292.606C307.203 292.31 306.744 292.527 306.822 292.822C307.511 295.347 308.619 297.754 309.315 300.279C309.656 301.512 309.695 302.738 309.57 304.004C309.452 305.263 309.374 306.49 309.433 307.756C309.492 308.995 309.61 310.281 309.334 311.501C309.105 312.524 308.606 313.449 308.088 314.347C307.59 315.226 307.065 316.098 306.678 317.03C306.475 317.521 306.298 318.026 306.193 318.545C306.075 319.128 306.029 319.725 305.917 320.315C305.491 322.572 303.976 324.487 301.753 325.188C301.497 325.274 301.595 325.654 301.858 325.588Z" fill="#22E393"/>
<path d="M304.953 322.645C303.274 326.187 302.395 330.115 301.838 333.978C301.274 337.9 301.071 341.855 300.939 345.81C300.802 349.771 300.723 353.733 300.356 357.681C299.995 361.59 299.385 365.466 298.526 369.289C297.549 373.651 296.217 377.94 294.564 382.092C294.355 382.623 295.201 382.839 295.417 382.328C298.441 375.035 300.323 367.381 301.156 359.537C301.995 351.64 301.608 343.672 302.415 335.775C302.638 333.572 302.979 331.388 303.451 329.223C303.93 327.039 304.599 324.921 305.347 322.815C305.432 322.586 305.058 322.422 304.953 322.645Z" fill="#22E393"/>
<path d="M287.52 325.013C287.185 329.833 287.047 334.68 286.883 339.507C286.72 344.341 286.549 349.175 286.385 354.002C286.057 363.61 285.69 373.218 285.395 382.833C285.355 384.151 285.283 385.47 285.283 386.788C285.283 387.293 285.368 387.824 285.749 388.198C286.096 388.546 286.588 388.657 287.054 388.729C289.658 389.123 292.288 389.287 294.924 389.208C295.16 389.201 295.351 389.018 295.351 388.782C295.462 380.695 295.705 372.615 295.901 364.528C296.098 356.441 296.288 348.361 296.505 340.275C296.623 335.743 296.748 331.211 296.852 326.672C296.866 326.22 296.157 326.22 296.144 326.672C295.921 334.759 295.738 342.839 295.547 350.926C295.357 359.012 295.121 367.093 294.891 375.179C294.76 379.711 294.662 384.25 294.498 388.782C294.642 388.637 294.787 388.493 294.924 388.355C292.648 388.375 290.373 388.25 288.117 387.955C287.651 387.896 287.1 387.87 286.654 387.68C286.155 387.463 286.247 386.899 286.267 386.447C286.313 385.299 286.365 384.151 286.405 383.01C286.588 378.314 286.772 373.618 286.929 368.922C287.244 359.557 287.572 350.191 287.9 340.832C288.084 335.566 288.32 330.293 288.32 325.026C288.313 324.495 287.552 324.508 287.52 325.013Z" fill="#22E393"/>
<path d="M289.017 165.409C288.964 167.312 288.918 169.216 288.885 171.131C288.826 174.422 288.767 177.713 288.708 181.016C288.63 185.362 288.558 189.708 288.485 194.043C288.4 199.1 288.315 204.158 288.236 209.215C288.151 214.651 288.053 220.086 287.98 225.522C287.908 230.969 287.836 236.416 287.771 241.875C287.705 247.058 287.652 252.242 287.6 257.413C287.554 261.966 287.515 266.519 287.482 271.06C287.456 274.638 287.429 278.227 287.423 281.805C287.416 284.087 287.41 286.358 287.449 288.64C287.456 288.961 287.462 289.282 287.469 289.603C287.495 290.658 288.44 290.67 288.413 289.603C288.367 287.699 288.394 285.784 288.394 283.881C288.394 280.59 288.413 277.298 288.439 273.996C288.466 269.649 288.505 265.303 288.544 260.968C288.59 255.911 288.649 250.854 288.695 245.797C288.748 240.361 288.8 234.925 288.859 229.49C288.918 224.043 288.964 218.595 289.017 213.137C289.063 207.953 289.115 202.77 289.168 197.598C289.213 193.046 289.259 188.493 289.312 183.952C289.351 180.374 289.39 176.784 289.43 173.207C289.456 170.924 289.482 168.654 289.502 166.372C289.502 166.051 289.509 165.73 289.515 165.409C289.502 164.858 289.03 164.87 289.017 165.409Z" fill="#22E393"/>
<path d="M299.189 165.891C299.162 167.76 299.123 169.629 299.09 171.51C299.031 174.767 298.972 178.024 298.92 181.281C298.847 185.581 298.775 189.893 298.703 194.193C298.618 199.239 298.533 204.285 298.454 209.319C298.369 214.72 298.283 220.11 298.198 225.511C298.119 230.947 298.034 236.383 297.956 241.818C297.877 246.956 297.805 252.105 297.726 257.242C297.66 261.749 297.595 266.267 297.529 270.774C297.477 274.318 297.431 277.861 297.385 281.416C297.352 283.664 297.326 285.9 297.3 288.147C297.293 288.457 297.293 288.778 297.293 289.088C297.28 290.143 298.218 290.143 298.231 289.088C298.251 287.219 298.27 285.349 298.297 283.469C298.336 280.212 298.382 276.955 298.428 273.698C298.487 269.398 298.546 265.086 298.605 260.786C298.67 255.74 298.743 250.694 298.815 245.66C298.887 240.259 298.966 234.869 299.038 229.468C299.11 224.032 299.182 218.596 299.254 213.161C299.32 208.023 299.385 202.874 299.444 197.737C299.497 193.23 299.549 188.712 299.595 184.205C299.635 180.661 299.68 177.118 299.707 173.563C299.726 171.315 299.739 169.079 299.753 166.831C299.753 166.522 299.753 166.201 299.759 165.891C299.759 165.26 299.202 165.26 299.189 165.891Z" fill="#22E393"/>
<circle cx="293" cy="156" r="40" fill="#22E393"/>
<path d="M273 149.177C273 149.177 278.246 146.869 286.183 146.325C288.37 142.82 291.115 139.303 294.563 136C294.563 136 297.65 139.591 300.22 147.438C304.308 148.394 308.626 149.987 313 152.499C313 152.499 310.154 157.627 303.276 162.88C303.665 167.235 303.763 172.16 303.412 177.685C303.412 177.685 297.489 175.109 290.589 169.924C286.824 171.375 282.521 172.562 277.631 173.282C277.631 173.282 277.665 167.669 279.99 160.027C277.298 156.846 274.859 153.231 273 149.177Z" fill="white"/>
<path d="M289.711 388.525C288.156 390.119 286.202 392.119 283.828 392.217C281.421 392.316 279.84 390.289 278.791 388.381C277.59 386.21 276.508 383.914 275.603 381.606C274.665 379.212 274.003 376.719 274.173 374.129C274.357 371.4 275.269 368.784 276.285 366.265C277.328 363.681 278.443 361.13 279.42 358.519C281.355 353.325 282.955 348.013 284.319 342.635C285.69 337.224 286.825 331.761 287.776 326.265C287.894 325.582 288.012 324.894 288.13 324.212C288.209 323.746 287.5 323.543 287.415 324.015C286.379 329.688 285.277 335.348 283.932 340.956C282.588 346.563 280.981 352.112 279.02 357.536C278.043 360.238 276.935 362.874 275.846 365.531C274.79 368.108 273.832 370.758 273.544 373.539C273.268 376.201 273.819 378.766 274.751 381.251C275.656 383.685 276.816 386.046 278.01 388.348C278.994 390.243 280.404 392.303 282.627 392.808C285.041 393.352 287.199 391.863 288.851 390.276C289.297 389.85 289.704 389.391 290.111 388.931C290.36 388.656 289.973 388.256 289.711 388.525Z" fill="#22E393"/>
<path d="M278.812 367.755C277.133 371.952 275.204 377.055 278.13 381.187C278.431 381.613 279.14 381.213 278.844 380.774C276.188 376.865 277.788 371.9 279.29 367.893C279.395 367.584 278.93 367.466 278.812 367.755Z" fill="#22E393"/>
<path d="M306.475 303.258C306.744 304.406 306.888 305.58 306.869 306.76C306.855 307.941 306.619 309.088 306.278 310.216C306.141 310.676 306.81 310.833 306.98 310.407C307.892 308.092 307.852 305.363 306.869 303.087C306.777 302.858 306.423 303.028 306.475 303.258Z" fill="#22E393"/>
<path d="M305.197 295.349C305.656 295.926 305.912 296.66 305.925 297.375C305.925 297.546 306.069 297.69 306.24 297.69C306.397 297.69 306.568 297.546 306.554 297.375C306.476 296.496 306.115 295.677 305.518 295.027C305.433 294.936 305.282 294.942 305.197 295.027C305.105 295.126 305.118 295.25 305.197 295.349Z" fill="#22E393"/>
<path d="M162.328 298.472C163.423 298.032 164.571 297.586 165.771 297.619C166.886 297.645 167.87 298.13 168.749 298.786C169.168 299.101 169.608 299.422 169.975 299.803C170.342 300.183 170.519 300.636 170.624 301.147C170.874 302.374 171.103 303.6 171.418 304.814C171.562 305.378 171.726 305.935 171.89 306.486C172.054 307.03 172.1 307.496 171.615 307.876C170.815 308.5 169.785 309.037 168.762 309.103C166.545 309.247 164.866 307.496 163.745 305.804C163.39 305.266 163.062 304.715 162.721 304.171C162.361 303.581 161.941 302.997 161.665 302.354C161.154 301.161 161.561 299.901 161.993 298.754C162.144 298.36 162.78 298.537 162.623 298.931C162.269 299.836 161.849 300.878 162.157 301.856C162.302 302.321 162.597 302.735 162.853 303.148C163.135 303.607 163.423 304.066 163.705 304.518C164.676 306.079 165.804 307.798 167.693 308.296C168.677 308.552 169.575 308.29 170.434 307.791C170.644 307.667 170.861 307.542 171.057 307.404C171.123 307.358 171.228 307.312 171.267 307.24C171.359 307.089 171.267 306.899 171.221 306.755C171.064 306.224 170.906 305.692 170.762 305.155C170.493 304.132 170.264 303.102 170.08 302.059C170.001 301.613 169.969 301.134 169.798 300.715C169.601 300.249 169.162 299.947 168.781 299.639C167.949 298.97 167.017 298.353 165.915 298.281C164.735 298.203 163.574 298.642 162.485 299.055C162.118 299.193 161.974 298.616 162.328 298.472Z" fill="#22E393"/>
<path d="M165.088 302.905C166.183 302.853 167.357 303.141 168.367 303.554C169.41 303.981 170.367 304.571 171.213 305.319C171.023 305.43 170.833 305.542 170.643 305.653C170.42 304.145 170.125 302.348 168.498 301.757C168.085 301.607 167.652 301.528 167.219 301.482C166.832 301.443 166.367 301.403 166.032 301.639C165.54 301.987 165.547 302.761 165.993 303.135C166.354 303.436 165.822 303.987 165.468 303.659C165.003 303.227 164.852 302.512 165.048 301.908C165.285 301.187 165.914 300.833 166.649 300.8C167.462 300.761 168.393 300.957 169.121 301.325C169.817 301.672 170.335 302.289 170.656 302.984C171.023 303.771 171.181 304.617 171.305 305.47C171.358 305.804 171.004 306.04 170.735 305.804C169.941 305.102 169.043 304.545 168.072 304.125C167.088 303.705 166.078 303.509 165.029 303.325C164.786 303.279 164.858 302.912 165.088 302.905Z" fill="#22E393"/>
<path d="M164.958 306.749C165.68 307.3 166.473 307.857 167.09 308.526C167.647 309.129 167.785 309.903 167.706 310.697C167.641 311.333 167.588 312.376 166.945 312.717C166.657 312.874 166.316 312.855 166.008 312.796C165.516 312.71 165.043 312.566 164.545 312.507C162.584 312.264 160.616 312.566 158.649 312.612C156.845 312.651 155.029 312.428 153.284 311.963C151.316 311.438 149.434 310.605 147.722 309.503C147.348 309.261 147.696 308.664 148.07 308.906C150.805 310.658 153.946 311.681 157.193 311.877C158.905 311.982 160.603 311.792 162.309 311.74C163.135 311.714 163.968 311.727 164.788 311.838C165.188 311.891 165.568 311.976 165.962 312.068C166.139 312.107 166.335 312.159 166.513 312.12C166.742 312.068 166.781 311.891 166.834 311.687C167.063 310.835 167.306 309.857 166.821 309.044C166.604 308.677 166.257 308.395 165.948 308.106C165.555 307.732 165.155 307.359 164.775 306.965C164.683 306.86 164.827 306.644 164.958 306.749Z" fill="#22E393"/>
<path d="M141.726 305.981C141.824 304.781 142.926 304.119 143.995 303.863C144.717 303.692 145.458 303.607 146.179 303.456C146.901 303.299 147.622 303.115 148.33 302.899C149.826 302.433 151.196 301.725 152.646 301.154C153.958 300.643 155.361 300.393 156.771 300.387C158.365 300.38 159.959 300.689 161.428 301.305C161.88 301.495 161.684 302.249 161.218 302.059C158.785 301.043 156.069 300.892 153.538 301.653C152.213 302.053 150.98 302.722 149.675 303.181C148.376 303.64 147.032 303.974 145.668 304.21C144.441 304.42 142.349 304.433 142.126 306.04C142.1 306.27 141.706 306.217 141.726 305.981Z" fill="#22E393"/>
<path d="M166.457 312.205C168.327 312.389 169.422 314.258 169.651 315.956C169.809 317.098 169.671 318.245 169.507 319.373C169.442 319.813 169.376 320.259 169.094 320.62C168.779 321.02 168.274 321.19 167.802 321.321C165.572 321.944 163.185 321.748 160.909 321.636C158.725 321.531 156.521 321.485 154.35 321.19C152.219 320.895 150.087 320.219 148.52 318.678C148.198 318.357 148.684 317.878 149.018 318.18C151.681 320.652 155.774 320.495 159.158 320.685C161.204 320.803 163.276 321.02 165.323 320.888C165.834 320.856 166.346 320.797 166.851 320.698C167.297 320.613 167.841 320.534 168.248 320.318C168.681 320.088 168.714 319.603 168.779 319.17C168.864 318.639 168.937 318.114 168.969 317.576C169.1 315.583 168.504 313.333 166.385 312.671C166.149 312.598 166.175 312.172 166.457 312.205Z" fill="#22E393"/>
<path d="M166 320.882C167.863 321.164 168.657 323.119 168.689 324.797C168.702 325.342 168.65 325.88 168.591 326.417C168.539 326.89 168.499 327.382 168.368 327.834C168.106 328.72 167.47 329.251 166.578 329.441C165.686 329.631 164.735 329.611 163.823 329.657C162.8 329.71 161.783 329.743 160.76 329.749C158.812 329.762 156.864 329.664 154.943 329.323C152.805 328.942 150.719 328.215 148.863 327.073C148.509 326.857 148.83 326.306 149.191 326.516C152.234 328.28 155.762 328.798 159.232 328.89C160.97 328.936 162.708 328.87 164.446 328.772C165.207 328.733 166.099 328.785 166.82 328.483C167.673 328.123 167.738 327.198 167.85 326.391C167.994 325.335 168.119 324.201 167.745 323.178C167.437 322.318 166.787 321.571 165.869 321.374C165.535 321.308 165.679 320.836 166 320.882Z" fill="#22E393"/>
<path d="M166.564 329.021C167.613 329.815 167.98 331.199 167.724 332.465C167.436 333.868 166.341 335.036 165.101 335.692C162.032 337.325 158.346 336.656 155.158 337.908C153.387 338.604 151.577 339.076 149.721 338.381C149.315 338.23 149.479 337.58 149.905 337.718C150.646 337.961 151.381 338.105 152.168 338.053C152.896 338 153.604 337.79 154.293 337.548C155.014 337.292 155.709 336.997 156.45 336.813C157.178 336.636 157.919 336.524 158.661 336.433C161.376 336.085 164.99 335.921 166.616 333.324C167.383 332.097 167.324 330.484 166.242 329.461C166.019 329.238 166.314 328.838 166.564 329.021Z" fill="#22E393"/>
<path d="M147.681 337.626C145.793 337.147 144.074 335.756 143.3 333.959C142.828 332.864 142.848 331.729 142.69 330.569C142.533 329.421 142.002 328.437 141.405 327.46C140.854 326.555 140.264 325.669 139.851 324.686C139.365 323.531 139.254 322.351 139.332 321.111C139.418 319.773 139.536 318.475 139.437 317.13C139.339 315.825 139.182 314.494 139.352 313.195C139.536 311.746 140.139 310.388 140.624 309.024C141.143 307.568 141.602 306.066 142.212 304.643C142.336 304.347 142.795 304.564 142.717 304.859C142.028 307.384 140.92 309.791 140.224 312.316C139.883 313.549 139.844 314.776 139.969 316.041C140.087 317.301 140.165 318.527 140.106 319.793C140.047 321.032 139.929 322.318 140.205 323.538C140.434 324.561 140.933 325.486 141.451 326.384C141.949 327.263 142.474 328.135 142.861 329.067C143.064 329.559 143.241 330.064 143.346 330.582C143.464 331.165 143.51 331.762 143.622 332.352C144.048 334.609 145.563 336.524 147.786 337.225C148.042 337.311 147.944 337.691 147.681 337.626Z" fill="#22E393"/>
<path d="M144.586 334.68C146.265 338.222 147.144 342.15 147.701 346.013C148.265 349.935 148.469 353.89 148.6 357.845C148.737 361.806 148.816 365.768 149.183 369.716C149.544 373.625 150.154 377.501 151.013 381.325C151.99 385.686 153.322 389.975 154.975 394.127C155.185 394.658 154.338 394.875 154.122 394.363C151.099 387.07 149.216 379.416 148.383 371.572C147.544 363.675 147.931 355.707 147.124 347.81C146.901 345.607 146.56 343.423 146.088 341.258C145.609 339.074 144.94 336.956 144.192 334.851C144.107 334.621 144.481 334.457 144.586 334.68Z" fill="#22E393"/>
<path d="M162.017 337.05C162.352 341.871 162.49 346.717 162.654 351.544C162.818 356.378 162.988 361.212 163.152 366.039C163.48 375.647 163.847 385.255 164.142 394.87C164.182 396.188 164.254 397.507 164.254 398.825C164.254 399.33 164.169 399.861 163.788 400.235C163.441 400.583 162.949 400.694 162.483 400.766C159.879 401.16 157.249 401.324 154.613 401.245C154.377 401.239 154.187 401.055 154.187 400.819C154.075 392.732 153.832 384.652 153.636 376.565C153.439 368.479 153.249 360.398 153.032 352.312C152.914 347.78 152.79 343.248 152.685 338.709C152.671 338.257 153.38 338.257 153.393 338.709C153.616 346.796 153.8 354.876 153.99 362.963C154.18 371.05 154.416 379.13 154.646 387.216C154.777 391.748 154.875 396.287 155.039 400.819C154.895 400.674 154.751 400.53 154.613 400.392C156.889 400.412 159.164 400.288 161.421 399.992C161.886 399.933 162.437 399.907 162.883 399.717C163.382 399.501 163.29 398.936 163.27 398.484C163.224 397.336 163.172 396.188 163.132 395.047C162.949 390.351 162.765 385.655 162.608 380.959C162.293 371.594 161.965 362.228 161.637 352.869C161.453 347.603 161.217 342.33 161.217 337.063C161.224 336.532 161.985 336.545 162.017 337.05Z" fill="#22E393"/>
<path d="M160.524 230.952C160.577 232.041 160.623 233.13 160.656 234.225C160.715 236.107 160.774 237.99 160.833 239.879C160.911 242.364 160.983 244.85 161.056 247.329C161.141 250.221 161.226 253.114 161.305 256.006C161.39 259.115 161.488 262.224 161.561 265.332C161.633 268.448 161.705 271.563 161.77 274.685C161.836 277.649 161.889 280.614 161.941 283.572C161.987 286.175 162.026 288.779 162.059 291.376C162.085 293.423 162.112 295.475 162.118 297.522C162.125 298.827 162.131 300.125 162.092 301.431C162.085 301.614 162.079 301.798 162.072 301.982C162.046 302.585 161.102 302.591 161.128 301.982C161.174 300.893 161.147 299.798 161.147 298.709C161.147 296.826 161.128 294.944 161.102 293.055C161.075 290.57 161.036 288.084 160.997 285.605C160.951 282.712 160.892 279.82 160.846 276.928C160.793 273.819 160.741 270.71 160.682 267.602C160.623 264.486 160.577 261.371 160.524 258.249C160.478 255.285 160.426 252.32 160.374 249.362C160.328 246.759 160.282 244.155 160.229 241.558C160.19 239.511 160.151 237.458 160.111 235.412C160.085 234.107 160.059 232.808 160.039 231.503C160.039 231.32 160.032 231.136 160.026 230.952C160.039 230.638 160.511 230.644 160.524 230.952Z" fill="#22E393"/>
<path d="M150.351 231.228C150.377 232.297 150.416 233.366 150.449 234.441C150.508 236.304 150.567 238.167 150.619 240.029C150.692 242.489 150.764 244.955 150.836 247.414C150.921 250.3 151.006 253.186 151.085 256.065C151.17 259.154 151.256 262.236 151.341 265.325C151.42 268.434 151.505 271.543 151.584 274.652C151.662 277.59 151.734 280.535 151.813 283.473C151.879 286.05 151.944 288.635 152.01 291.212C152.062 293.239 152.108 295.265 152.154 297.298C152.187 298.584 152.213 299.863 152.239 301.148C152.246 301.325 152.246 301.509 152.246 301.686C152.259 302.289 151.321 302.289 151.308 301.686C151.288 300.617 151.269 299.548 151.243 298.472C151.203 296.61 151.157 294.747 151.111 292.885C151.052 290.425 150.993 287.959 150.934 285.5C150.869 282.614 150.797 279.728 150.724 276.849C150.652 273.76 150.574 270.677 150.501 267.588C150.429 264.479 150.357 261.371 150.285 258.262C150.219 255.324 150.154 252.379 150.095 249.441C150.042 246.863 149.99 244.279 149.944 241.702C149.905 239.675 149.859 237.648 149.832 235.615C149.813 234.33 149.8 233.051 149.787 231.765C149.787 231.588 149.786 231.405 149.78 231.228C149.78 230.867 150.337 230.867 150.351 231.228Z" fill="#22E393"/>
<circle cx="155" cy="199" r="40" fill="#22E393"/>
<path d="M135 192.177C135 192.177 140.246 189.869 148.183 189.325C150.37 185.82 153.115 182.303 156.563 179C156.563 179 159.65 182.591 162.22 190.438C166.308 191.394 170.626 192.987 175 195.499C175 195.499 172.154 200.627 165.276 205.88C165.665 210.235 165.763 215.16 165.412 220.685C165.412 220.685 159.489 218.109 152.589 212.924C148.824 214.375 144.521 215.562 139.631 216.282C139.631 216.282 139.665 210.669 141.99 203.027C139.298 199.846 136.859 196.231 135 192.177Z" fill="white"/>
<path d="M159.829 400.562C161.383 402.156 163.337 404.156 165.712 404.254C168.119 404.353 169.699 402.326 170.748 400.418C171.949 398.247 173.031 395.951 173.936 393.643C174.874 391.249 175.536 388.757 175.366 386.166C175.182 383.438 174.27 380.821 173.254 378.302C172.211 375.718 171.096 373.167 170.119 370.557C168.184 365.362 166.584 360.05 165.22 354.672C163.849 349.261 162.714 343.798 161.763 338.302C161.645 337.62 161.527 336.931 161.409 336.249C161.33 335.783 162.039 335.58 162.124 336.052C163.16 341.725 164.262 347.385 165.607 352.993C166.951 358.6 168.558 364.149 170.519 369.573C171.496 372.275 172.605 374.911 173.693 377.568C174.749 380.145 175.707 382.795 175.995 385.576C176.271 388.238 175.72 390.803 174.789 393.289C173.883 395.722 172.723 398.083 171.529 400.385C170.545 402.28 169.135 404.34 166.912 404.845C164.498 405.389 162.34 403.9 160.688 402.313C160.242 401.887 159.835 401.428 159.428 400.969C159.179 400.693 159.566 400.293 159.829 400.562Z" fill="#22E393"/>
<path d="M170.727 379.792C172.406 383.989 174.335 389.092 171.41 393.224C171.108 393.65 170.4 393.25 170.695 392.811C173.351 388.902 171.751 383.937 170.249 379.93C170.144 379.621 170.609 379.503 170.727 379.792Z" fill="#22E393"/>
<path d="M143.066 315.295C142.797 316.443 142.653 317.617 142.672 318.797C142.686 319.978 142.922 321.126 143.263 322.254C143.4 322.713 142.731 322.87 142.561 322.444C141.649 320.129 141.689 317.4 142.672 315.124C142.764 314.895 143.118 315.065 143.066 315.295Z" fill="#22E393"/>
<path d="M144.342 307.384C143.883 307.961 143.627 308.696 143.614 309.41C143.614 309.581 143.47 309.725 143.299 309.725C143.142 309.725 142.971 309.581 142.985 309.41C143.063 308.532 143.424 307.712 144.021 307.063C144.106 306.971 144.257 306.977 144.342 307.063C144.434 307.161 144.421 307.286 144.342 307.384Z" fill="#22E393"/>
<path d="M228.912 341.191C228.866 341.499 228.834 341.814 228.847 342.129C228.86 342.47 228.893 342.824 229.037 343.132C229.102 343.276 229.319 343.355 229.47 343.309C229.614 343.263 229.771 343.106 229.752 342.935C229.712 342.634 229.614 342.345 229.555 342.043C229.542 341.978 229.529 341.906 229.522 341.84C229.509 341.735 229.529 341.912 229.516 341.807C229.503 341.709 229.503 341.689 229.509 341.742C229.509 341.729 229.503 341.709 229.503 341.696C229.483 341.551 229.476 341.407 229.47 341.263C229.463 341.119 229.365 341.001 229.221 340.981C229.102 340.974 228.938 341.053 228.912 341.191Z" fill="#8C5D41"/>
<path d="M242.587 360.939C244.069 366.514 245.591 372.076 247.204 377.611C248.824 383.173 250.49 388.721 252.189 394.263C253.14 397.378 254.058 400.52 255.153 403.583C255.311 404.029 256.006 403.852 255.868 403.386C255.055 400.618 254.097 397.897 253.212 395.155C252.327 392.407 251.421 389.672 250.575 386.911C248.877 381.369 247.231 375.814 245.584 370.259C244.66 367.13 243.761 363.995 242.869 360.86C242.823 360.677 242.541 360.755 242.587 360.939Z" fill="#22E393"/>
<path d="M242.344 344.005C240.101 338.968 237.831 333.95 235.549 328.926C234.539 326.703 233.575 324.414 232.047 322.486C230.564 320.617 228.577 319.239 226.557 318C224.517 316.754 222.419 315.403 220.084 314.793C217.5 314.117 214.712 314.517 212.089 314.688C210.744 314.78 209.38 314.806 208.049 314.976C206.855 315.127 206.527 316.104 206.527 317.187C206.527 319.331 207.695 321.312 209.387 322.578C211.256 323.968 213.604 324.394 215.886 324.349C216.477 324.335 217.067 324.335 217.585 324.663C218.084 324.978 218.477 325.45 218.916 325.837C219.802 326.611 220.786 327.287 221.835 327.818C222.347 328.08 222.871 328.303 223.409 328.507C223.908 328.697 224.117 327.897 223.625 327.713C222.57 327.313 221.566 326.775 220.635 326.126C220.169 325.798 219.723 325.437 219.303 325.05C218.916 324.696 218.556 324.303 218.123 324.001C217.178 323.345 216.07 323.535 214.994 323.516C213.899 323.489 212.81 323.312 211.774 322.938C209.774 322.224 208.069 320.663 207.491 318.584C207.295 317.882 206.947 316.065 207.964 315.842C208.508 315.724 209.105 315.763 209.656 315.724C210.358 315.678 211.059 315.632 211.768 315.586C214.273 315.422 216.942 315.003 219.421 315.58C221.678 316.111 223.678 317.429 225.639 318.603C227.521 319.725 229.39 320.932 230.873 322.565C232.414 324.263 233.444 326.355 234.408 328.421C236.887 333.714 239.359 339.007 241.865 344.28C242.016 344.614 242.488 344.326 242.344 344.005Z" fill="#22E393"/>
<path d="M206.881 320.098C205.084 320.945 204.015 322.912 204.278 324.886C204.428 326.014 204.986 326.985 205.944 327.615C206.947 328.27 208.16 328.671 209.269 329.116C211.695 330.094 214.174 330.953 216.693 331.681C217.978 332.048 219.27 332.389 220.569 332.678C221.199 332.816 221.822 332.947 222.451 333.071C223.088 333.196 223.724 333.321 224.373 333.229C225.534 333.071 226.524 332.068 226.144 330.848C225.77 329.635 224.832 328.52 223.875 327.72C223.455 327.372 222.851 327.975 223.271 328.323C224.045 328.959 224.694 329.733 225.154 330.632C225.396 331.104 225.599 331.648 225.147 332.061C224.76 332.415 224.196 332.448 223.704 332.389C222.583 332.258 221.454 331.95 220.353 331.687C219.277 331.432 218.208 331.169 217.146 330.874C214.994 330.277 212.869 329.589 210.777 328.802C209.708 328.402 208.646 327.975 207.596 327.516C206.678 327.116 205.78 326.67 205.353 325.706C204.54 323.857 205.425 321.495 207.026 320.361C207.19 320.243 207.058 320.02 206.881 320.098Z" fill="#22E393"/>
<path d="M206.277 327.371C204.834 329.542 204.71 332.545 205.667 334.926C205.903 335.51 206.192 336.087 206.592 336.572C207.025 337.104 207.602 337.373 208.251 337.536C209.806 337.923 211.38 338.251 212.934 338.651C214.515 339.058 216.095 339.484 217.663 339.93C219.178 340.363 220.693 340.809 222.26 341.013C223.644 341.19 225.067 341.17 226.412 340.776C227.507 340.462 229.055 339.812 229.435 338.625C229.665 337.904 229.258 337.34 228.786 336.835C228.248 336.258 227.704 335.694 227.14 335.149C225.999 334.054 224.733 333.018 223.27 332.388C222.811 332.191 222.405 332.854 222.87 333.07C224.011 333.601 225.028 334.31 225.966 335.149C226.432 335.569 226.877 336.008 227.31 336.454C227.73 336.887 228.242 337.32 228.576 337.812C229.33 338.927 226.943 339.825 226.209 340.035C225.002 340.383 223.729 340.409 222.49 340.265C221.093 340.101 219.735 339.714 218.384 339.334C217 338.94 215.61 338.566 214.213 338.212C212.809 337.858 211.399 337.523 209.989 337.209C209.346 337.064 208.678 336.959 208.054 336.743C207.385 336.513 207.005 336.008 206.684 335.405C205.359 332.952 205.51 330.093 206.736 327.64C206.9 327.331 206.474 327.076 206.277 327.371Z" fill="#22E393"/>
<path d="M226.886 335.701C226.538 335.274 226.04 335.865 225.843 336.14C225.574 336.527 225.371 336.953 225.227 337.399C225.082 337.839 225.004 338.291 224.978 338.757C224.964 338.98 224.971 339.203 224.991 339.433C225.01 339.675 225.023 339.97 225.155 340.18C225.305 340.416 225.765 340.423 225.817 340.095C225.876 339.741 225.758 339.354 225.751 338.993C225.751 338.632 225.784 338.278 225.856 337.924C225.929 337.576 226.04 337.235 226.178 336.914C226.25 336.75 226.329 336.593 226.414 336.442C226.486 336.317 226.565 336.107 226.722 336.088C226.932 336.061 227.017 335.858 226.886 335.701Z" fill="#22E393"/>
<path d="M223.473 328.205C222.778 327.707 221.709 327.851 221.001 328.244C220.181 328.703 219.709 329.55 219.637 330.474C219.597 330.992 219.709 331.504 219.932 331.963C220.017 332.14 220.266 332.186 220.424 332.094C220.601 331.989 220.64 331.773 220.555 331.602C220.168 330.815 220.332 329.812 220.929 329.176C221.224 328.854 221.624 328.638 222.044 328.526C222.496 328.408 222.936 328.448 223.388 328.5C223.572 328.52 223.591 328.29 223.473 328.205Z" fill="#22E393"/>
<path d="M225.509 331.89C226.585 332.723 227.903 333.143 229.241 333.3C230.605 333.458 232.087 333.49 233.445 333.274C233.786 333.222 233.674 332.73 233.366 332.703C232.074 332.612 230.782 332.73 229.49 332.579C228.198 332.421 226.965 332.1 225.798 331.51C225.575 331.392 225.279 331.713 225.509 331.89Z" fill="#22E393"/>
<path d="M212.626 315.199C212.737 315.651 212.967 316.084 213.105 316.53C213.242 316.963 213.354 317.409 213.439 317.855C213.524 318.321 213.603 318.793 213.577 319.265C213.564 319.442 213.557 319.724 213.459 319.875C213.367 320.013 213.164 320.039 213.013 320.078C212.147 320.321 211.249 320.386 210.357 320.288C209.911 320.236 209.471 320.144 209.038 320.019C208.658 319.908 208.173 319.777 207.943 319.422C207.707 319.055 207.136 319.383 207.353 319.763C207.609 320.209 208.055 320.432 208.52 320.623C209.038 320.826 209.583 320.977 210.134 321.055C211.229 321.213 212.383 321.16 213.446 320.839C213.97 320.682 214.252 320.36 214.357 319.822C214.462 319.265 214.403 318.694 214.298 318.143C214.193 317.586 214.029 317.035 213.826 316.504C213.629 315.979 213.413 315.382 213.052 314.943C212.882 314.74 212.573 314.963 212.626 315.199Z" fill="#22E393"/>
<path d="M205.761 334.888C204.771 337.289 204.168 340.004 205.02 342.542C205.381 343.611 205.951 344.615 206.778 345.389C207.676 346.235 208.811 346.713 209.998 347.009C211.369 347.35 212.785 347.54 214.169 347.782C215.645 348.045 217.121 348.301 218.603 348.563C219.947 348.799 221.22 348.989 222.459 348.287C222.984 347.992 223.443 347.605 223.942 347.271C224.401 346.956 224.899 346.7 225.371 346.405C226.362 345.789 227.201 344.884 227.05 343.637C226.899 342.345 225.87 341.303 224.84 340.607C224.42 340.319 224.014 341.014 224.44 341.296C225.286 341.847 226.224 342.726 226.283 343.808C226.335 344.838 225.443 345.428 224.65 345.88C224.27 346.097 223.883 346.307 223.515 346.549C223.036 346.871 222.584 347.232 222.079 347.52C220.931 348.183 219.738 347.901 218.498 347.684C215.966 347.238 213.422 346.831 210.903 346.34C209.808 346.123 208.7 345.867 207.762 345.225C206.922 344.647 206.299 343.782 205.892 342.857C204.797 340.358 205.401 337.499 206.24 335.026C206.352 334.705 205.879 334.593 205.761 334.888Z" fill="#22E393"/>
<path d="M225.739 341.807C225.503 341.558 225.07 341.86 224.899 342.056C224.657 342.338 224.565 342.693 224.532 343.06C224.46 343.86 224.565 344.673 224.525 345.48C224.506 345.939 225.273 345.933 225.234 345.48C225.175 344.785 225.181 344.076 225.168 343.381C225.162 343.106 225.148 342.798 225.28 342.542C225.332 342.437 225.404 342.338 225.503 342.273C225.627 342.188 225.732 342.174 225.798 342.01C225.824 341.945 225.791 341.86 225.739 341.807Z" fill="#22E393"/>
<path d="M206.785 345.35C207.073 346.36 206.955 347.416 207.113 348.445C207.257 349.35 207.677 350.131 208.346 350.754C209.71 352.039 211.69 352.649 213.435 353.207C214.484 353.541 215.547 353.83 216.623 354.053C217.698 354.282 218.846 354.558 219.948 354.551C221.036 354.545 221.928 354.02 222.788 353.397C223.673 352.754 224.499 352.046 225.273 351.272C225.975 350.577 226.565 349.737 226.172 348.714C225.818 347.796 224.913 347.173 224.053 346.766C223.601 346.55 223.201 347.225 223.66 347.442C224.329 347.763 225.083 348.216 225.404 348.918C225.804 349.79 224.965 350.485 224.394 351.023C223.686 351.685 222.925 352.295 222.125 352.846C221.292 353.417 220.512 353.771 219.482 353.686C217.567 353.535 215.626 353.043 213.796 352.499C212.215 352.033 210.431 351.534 209.126 350.478C208.411 349.901 207.959 349.16 207.782 348.255C207.585 347.232 207.67 346.183 207.342 345.186C207.231 344.845 206.68 344.989 206.785 345.35Z" fill="#22E393"/>
<path d="M225.246 347.665C225.049 347.684 224.872 347.769 224.695 347.842C224.518 347.914 224.341 347.986 224.17 348.065C223.797 348.235 223.547 348.504 223.488 348.924C223.436 349.33 223.462 349.757 223.462 350.17C223.462 350.38 223.462 350.596 223.456 350.813C223.449 351.036 223.416 351.265 223.436 351.488C223.482 352 224.184 352 224.229 351.488C224.262 351.114 224.21 350.727 224.203 350.354C224.203 349.98 224.197 349.599 224.203 349.225C224.21 348.93 224.282 348.76 224.538 348.602C224.813 348.432 225.18 348.294 225.403 348.051C225.528 347.92 225.456 347.651 225.246 347.665Z" fill="#22E393"/>
<path d="M221.534 353.946C221.567 354.313 221.849 354.491 222.111 354.733C222.387 354.989 222.669 355.245 222.944 355.494C223.521 356.025 224.105 356.543 224.702 357.055C225.758 357.953 226.912 358.616 228.342 358.419C229.68 358.235 231.011 357.671 232.198 357.048C233.405 356.412 234.52 355.612 235.517 354.681C235.93 354.294 235.307 353.664 234.894 354.058C233.123 355.73 230.821 357.094 228.401 357.534C227.017 357.789 226.007 357.022 225.004 356.176C224.466 355.724 223.935 355.271 223.384 354.832C223.089 354.595 222.793 354.353 222.498 354.117C222.269 353.933 222.065 353.71 221.757 353.73C221.646 353.736 221.521 353.822 221.534 353.946Z" fill="#22E393"/>
<path d="M226.275 357.961C226.295 359.325 226.61 360.663 226.846 362.001C227.089 363.391 227.331 364.782 227.574 366.172C228.046 368.92 228.525 371.668 229.004 374.416C229.948 379.88 230.893 385.336 231.876 390.787C232.86 396.269 233.877 401.746 234.966 407.209C235.51 409.951 236.074 412.686 236.658 415.42C236.881 416.476 236.946 417.519 237.373 418.523C237.766 419.454 238.343 420.3 239.038 421.035C242.442 424.629 247.617 424.753 252.162 423.842C252.818 423.71 253.461 423.56 254.11 423.396C254.635 423.264 254.412 422.458 253.887 422.582C249.394 423.691 244.016 424.294 240.278 420.962C239.543 420.313 238.92 419.546 238.461 418.68C238.238 418.254 238.061 417.808 237.937 417.342C237.805 416.857 237.799 416.371 237.707 415.88C237.215 413.21 236.612 410.561 236.094 407.898C235.051 402.559 234.06 397.214 233.09 391.862C232.126 386.543 231.194 381.224 230.243 375.905C229.286 370.547 228.315 365.188 227.305 359.843C227.174 359.161 227.023 358.532 226.787 357.882C226.689 357.633 226.269 357.653 226.275 357.961Z" fill="#22E393"/>
<path d="M241.308 343.387C242.082 346.194 242.784 349.014 243.59 351.808C244.404 354.622 245.283 357.423 246.161 360.216C247.899 365.752 249.683 371.281 251.487 376.797C253.297 382.338 255.14 387.867 257.009 393.39C258.872 398.892 260.761 404.388 262.663 409.878C263.128 411.216 263.607 412.593 263.607 414.023C263.607 415.072 263.312 416.089 262.781 416.987C261.718 418.778 259.843 420.017 257.868 420.588C257.37 420.732 256.858 420.837 256.34 420.89C255.724 420.955 255.724 421.926 256.34 421.86C260.623 421.408 264.991 418.01 264.545 413.341C264.407 411.898 263.915 410.527 263.443 409.17C262.958 407.773 262.479 406.369 262 404.972C261.03 402.145 260.066 399.325 259.101 396.498C257.18 390.851 255.284 385.191 253.422 379.525C251.559 373.858 249.736 368.179 247.958 362.486C247.067 359.639 246.181 356.786 245.302 353.933C244.856 352.491 244.404 351.054 243.945 349.618C243.715 348.896 243.427 348.201 243.184 347.48C242.954 346.791 242.731 346.096 242.515 345.401C242.285 344.679 242.062 343.964 241.833 343.243C241.715 342.922 241.216 343.053 241.308 343.387Z" fill="#22E393"/>
<path d="M219.388 318.249C219.388 317.941 219.303 317.613 219.218 317.312C219.126 317.003 219.014 316.695 218.883 316.4C218.759 316.125 218.621 315.849 218.464 315.587C218.3 315.311 218.123 314.983 217.886 314.76C217.578 314.459 217.053 314.846 217.283 315.226C217.434 315.475 217.644 315.698 217.808 315.941C217.978 316.197 218.129 316.459 218.267 316.728C218.398 316.984 218.516 317.239 218.621 317.502C218.732 317.79 218.818 318.086 218.942 318.361C219.047 318.591 219.388 318.472 219.388 318.249Z" fill="#22E393"/>
<path d="M221.666 318.558C221.634 317.935 221.509 317.318 221.273 316.741C221.037 316.157 220.709 315.639 220.341 315.134C220.223 314.97 220.02 314.911 219.85 315.043C219.699 315.161 219.666 315.403 219.817 315.541C220.63 316.289 221.063 317.476 221.148 318.558C221.168 318.892 221.686 318.899 221.666 318.558Z" fill="#22E393"/>
<path d="M220.103 280.367C219.735 282.597 219.506 284.853 219.23 287.096C218.955 289.365 218.706 291.641 218.457 293.917C217.971 298.409 217.506 302.902 217.027 307.394C216.758 309.939 216.482 312.484 216.233 315.029C216.174 315.612 217.079 315.606 217.145 315.029C218.155 306.05 219.112 297.065 219.991 288.066C220.241 285.528 220.523 282.977 220.641 280.432C220.66 280.137 220.155 280.058 220.103 280.367Z" fill="#22E393"/>
<path d="M227.957 281.397C226.665 290.631 225.943 299.944 225.018 309.225C224.756 311.855 224.487 314.485 224.244 317.115C224.192 317.672 225.058 317.665 225.117 317.115C225.615 312.478 226.061 307.841 226.547 303.204C227.025 298.567 227.517 293.93 227.937 289.293C228.173 286.689 228.396 284.086 228.553 281.482C228.573 281.147 228.003 281.056 227.957 281.397Z" fill="#22E393"/>
<path d="M212.169 353.238C211.375 358.511 210.713 363.804 210.241 369.123C210.004 371.759 209.795 374.396 209.578 377.032C209.467 378.377 209.368 379.728 209.276 381.072C209.211 382.03 208.863 383.4 209.749 384.089C210.214 384.456 210.87 384.568 211.428 384.706C212.136 384.876 212.857 385.02 213.579 385.119C215.015 385.322 216.465 385.375 217.914 385.309C218.15 385.296 218.288 385.132 218.314 384.909C219.232 376.875 220.026 368.834 220.741 360.78C220.944 358.511 221.128 356.242 221.324 353.966C221.37 353.434 220.531 353.434 220.492 353.966C219.895 362.026 219.108 370.074 218.255 378.108C218.012 380.37 217.77 382.64 217.514 384.902C217.645 384.771 217.783 384.634 217.914 384.502C216.661 384.555 215.402 384.496 214.156 384.345C212.989 384.201 211.782 383.997 210.667 383.623C210.149 383.446 209.991 383.138 210.004 382.613C210.018 381.964 210.083 381.315 210.129 380.666C210.214 379.4 210.306 378.134 210.404 376.868C210.798 371.857 211.375 366.86 211.952 361.869C212.28 359.029 212.615 356.183 212.975 353.349C213.048 352.89 212.241 352.772 212.169 353.238Z" fill="#22E393"/>
<circle cx="227" cy="252" r="32" fill="#22E393"/>
<path d="M215 247.906C215 247.906 218.147 246.522 222.91 246.195C224.222 244.092 225.869 241.982 227.938 240C227.938 240 229.79 242.155 231.332 246.863C233.785 247.436 236.376 248.392 239 249.899C239 249.899 237.293 252.976 233.166 256.128C233.399 258.741 233.458 261.696 233.247 265.011C233.247 265.011 229.694 263.465 225.553 260.354C223.294 261.225 220.713 261.937 217.778 262.369C217.778 262.369 217.799 259.001 219.194 254.416C217.579 252.508 216.115 250.339 215 247.906Z" fill="white"/>
<defs>
<linearGradient id="paint0_linear_2580_28330" x1="250" y1="540" x2="250" y2="10.5882" gradientUnits="userSpaceOnUse">
<stop stop-color="#F2FBF9" stop-opacity="0"/>
<stop offset="1" stop-color="#E7FFFA"/>
</linearGradient>
</defs>
</svg>
