<svg width="500" height="540" viewBox="0 0 500 540" fill="none" xmlns="http://www.w3.org/2000/svg">
<rect width="500" height="540" rx="8" fill="url(#paint0_linear_2580_28259)"/>
<path d="M174.263 213.642L251.384 327.785L328.506 213.642H174.263Z" stroke="#3830C9"/>
<circle cx="173.647" cy="213.738" r="35.7695" fill="#3830C9"/>
<g clip-path="url(#clip0_2580_28259)">
<path d="M179.54 199.33L163.958 207.308L157.764 204.26L173.072 196.701C173.415 196.527 173.827 196.527 174.188 196.701L179.54 199.33Z" fill="white"/>
<path d="M189.51 204.261L173.654 212.116L167.716 209.19L166.857 208.754L182.457 200.777L183.316 201.212L189.51 204.261Z" fill="white"/>
<path d="M172.383 214.378L172.366 230.908L157.18 222.983C156.75 222.757 156.476 222.303 156.476 221.816V206.523L162.911 209.694V215.268C162.911 215.982 163.495 216.575 164.199 216.575C164.903 216.575 165.487 215.982 165.487 215.268V210.983L166.345 211.401L172.383 214.378Z" fill="white"/>
<path d="M190.797 206.541L174.959 214.362L174.941 230.891L190.814 222.603L190.797 206.541Z" fill="white"/>
</g>
<path d="M327.931 178.193L329.438 119.957" stroke="#3830C9"/>
<circle cx="329.663" cy="112.821" r="7.39236" transform="rotate(3.42841 329.663 112.821)" fill="#3830C9"/>
<path d="M348.534 186.387L377.788 136.01" stroke="#3830C9"/>
<circle cx="381.682" cy="129.792" r="7.39236" transform="rotate(3.42841 381.682 129.792)" fill="#3830C9"/>
<path d="M360.78 201.094L416.817 185.172" stroke="#3830C9"/>
<circle cx="423.35" cy="183.89" r="7.39236" transform="rotate(3.42841 423.35 183.89)" fill="#3830C9"/>
<path d="M359.432 226.047L415.116 243.162" stroke="#3830C9"/>
<circle cx="421.661" cy="243.987" r="7.39236" transform="rotate(3.42841 421.661 243.987)" fill="#3830C9"/>
<path d="M172.052 178.193L170.544 119.957" stroke="#3830C9"/>
<circle cx="7.39236" cy="7.39236" r="7.39236" transform="matrix(-0.99821 0.0598014 0.0598014 0.99821 177.257 105)" fill="#3830C9"/>
<path d="M151.448 186.387L122.194 136.01" stroke="#3830C9"/>
<circle cx="7.39236" cy="7.39236" r="7.39236" transform="matrix(-0.99821 0.0598014 0.0598014 0.99821 125.239 121.971)" fill="#3830C9"/>
<path d="M139.202 201.094L83.165 185.172" stroke="#3830C9"/>
<circle cx="7.39236" cy="7.39236" r="7.39236" transform="matrix(-0.99821 0.0598014 0.0598014 0.99821 83.5713 176.068)" fill="#3830C9"/>
<path d="M140.551 226.047L84.8662 243.162" stroke="#3830C9"/>
<circle cx="7.39236" cy="7.39236" r="7.39236" transform="matrix(-0.99821 0.0598014 0.0598014 0.99821 85.2588 236.166)" fill="#3830C9"/>
<path d="M279.254 346.409L327.267 379.4" stroke="#3830C9"/>
<circle cx="333.128" cy="383.474" r="7.39236" transform="rotate(126.44 333.128 383.474)" fill="#3830C9"/>
<path d="M261.156 359.218L287.464 411.195" stroke="#3830C9"/>
<circle cx="290.554" cy="417.847" r="7.39236" transform="rotate(126.44 290.554 417.847)" fill="#3830C9"/>
<path d="M242.154 361.479L224.976 417.145" stroke="#3830C9"/>
<circle cx="222.491" cy="423.318" r="7.39236" transform="rotate(126.44 222.491 423.318)" fill="#3830C9"/>
<path d="M221.961 346.748L177.272 384.119" stroke="#3830C9"/>
<circle cx="173.013" cy="389.162" r="7.39236" transform="rotate(126.44 173.013 389.162)" fill="#3830C9"/>
<circle cx="328.647" cy="213.738" r="35.7695" fill="#3830C9"/>
<circle cx="251.386" cy="328.201" r="35.7695" fill="#3830C9"/>
<g clip-path="url(#clip1_2580_28259)">
<path d="M334.54 199.33L318.958 207.308L312.764 204.26L328.072 196.701C328.415 196.527 328.827 196.527 329.188 196.701L334.54 199.33Z" fill="white"/>
<path d="M344.51 204.261L328.654 212.116L322.716 209.19L321.857 208.754L337.457 200.777L338.316 201.212L344.51 204.261Z" fill="white"/>
<path d="M327.383 214.378L327.366 230.908L312.18 222.983C311.75 222.757 311.476 222.303 311.476 221.816V206.523L317.911 209.694V215.268C317.911 215.982 318.495 216.575 319.199 216.575C319.903 216.575 320.487 215.982 320.487 215.268V210.983L321.345 211.401L327.383 214.378Z" fill="white"/>
<path d="M345.797 206.541L329.959 214.362L329.941 230.891L345.814 222.603L345.797 206.541Z" fill="white"/>
</g>
<g clip-path="url(#clip2_2580_28259)">
<path d="M257.28 313.791L241.698 321.769L235.504 318.721L250.812 311.162C251.155 310.988 251.567 310.988 251.928 311.162L257.28 313.791Z" fill="white"/>
<path d="M267.25 318.722L251.394 326.577L245.456 323.651L244.598 323.215L260.197 315.238L261.056 315.673L267.25 318.722Z" fill="white"/>
<path d="M250.123 328.839L250.106 345.369L234.92 337.444C234.491 337.218 234.216 336.764 234.216 336.277V320.984L240.651 324.155V329.729C240.651 330.443 241.235 331.036 241.939 331.036C242.643 331.036 243.227 330.443 243.227 329.729V325.444L244.085 325.862L250.123 328.839Z" fill="white"/>
<path d="M268.538 321.002L252.699 328.823L252.682 345.352L268.555 337.064L268.538 321.002Z" fill="white"/>
</g>
<defs>
<linearGradient id="paint0_linear_2580_28259" x1="250" y1="-97.8261" x2="250" y2="540" gradientUnits="userSpaceOnUse">
<stop stop-color="#EFF7FF"/>
<stop offset="1" stop-color="#EFF7FF" stop-opacity="0"/>
</linearGradient>
<clipPath id="clip0_2580_28259">
<rect width="34.3387" height="34.3387" fill="white" transform="translate(156.476 196.57)"/>
</clipPath>
<clipPath id="clip1_2580_28259">
<rect width="34.3387" height="34.3387" fill="white" transform="translate(311.476 196.57)"/>
</clipPath>
<clipPath id="clip2_2580_28259">
<rect width="34.3387" height="34.3387" fill="white" transform="translate(234.216 311.031)"/>
</clipPath>
</defs>
</svg>
