<svg width="500" height="540" viewBox="0 0 500 540" fill="none" xmlns="http://www.w3.org/2000/svg">
<path d="M250.032 159C283.169 159 310.032 132.137 310.032 99C310.032 65.8629 283.169 39 250.032 39C216.895 39 190.032 65.8629 190.032 99C190.032 132.137 216.895 159 250.032 159Z" fill="#3830C9"/>
<path d="M291.171 93.0905C290.966 93.8295 290.691 94.547 290.348 95.233C287.481 100.908 284.766 106.66 281.688 112.233C279.903 115.455 278.091 118.665 275.831 121.588C269.761 129.441 261.828 134.219 252.033 135.92C250.727 136.151 249.406 136.293 248.081 136.348H243.806C234.829 135.836 226.338 132.105 219.89 125.839C213.442 119.573 209.468 111.193 208.698 102.235C207.928 93.277 210.413 84.3416 215.697 77.0673C220.981 69.793 228.711 64.6674 237.468 62.6305C245.026 60.8805 252.451 61.493 259.676 64.353C262.026 65.2455 264.153 66.6405 265.908 68.4405C267.883 70.493 268.688 72.9705 268.588 75.7755C268.528 76.4518 268.374 77.1164 268.131 77.7505C267.467 79.7365 266.63 81.6605 265.631 83.5005C263.253 88.038 260.838 92.5605 258.461 97.098C257.458 99.0205 256.533 101 255.426 102.875C253.708 105.788 250.363 107.46 247.141 107.03C243.551 106.548 240.826 104.21 239.891 100.78C239.585 99.7289 239.496 98.6262 239.628 97.5392C239.761 96.4521 240.112 95.4031 240.661 94.4555C242.563 91.098 244.298 87.6555 246.133 84.2655C246.768 83.1005 247.383 81.928 248.021 80.7655C248.172 80.5288 248.262 80.2588 248.285 79.9791C248.308 79.6994 248.262 79.4184 248.151 79.1605C247.838 78.4505 247.256 78.2205 246.506 78.208C242.866 78.1505 239.408 78.9055 236.231 80.688C230.231 84.058 226.586 89.1505 225.591 95.988C223.868 107.78 232.316 117.618 242.591 119.383C249.886 120.633 258.868 118.11 263.696 109.423C266.658 104.093 269.431 98.673 272.288 93.2805C273.433 91.1205 274.558 88.948 275.716 86.7955C277.448 83.583 280.966 81.9305 284.676 82.558C288.048 83.128 290.836 85.9855 291.446 89.4205C291.641 90.6485 291.547 91.9053 291.171 93.0905Z" fill="white"/>
<path d="M250.032 158.5L250.032 221" stroke="#0D0D0D"/>
<path fill-rule="evenodd" clip-rule="evenodd" d="M250.205 220.566L163 261.547L163.425 262.452L250.23 221.659L337.034 262.452L337.46 261.547L250.254 220.566L250.245 220.547L250.23 220.554L250.214 220.547L250.205 220.566Z" fill="#212121"/>
<rect x="124" y="262" width="253" height="12" rx="6" fill="#212121"/>
<path d="M155 268V407" stroke="#0D0D0D"/>
<path d="M299 268V407" stroke="#0D0D0D"/>
<path d="M203 268V454" stroke="#0D0D0D"/>
<path d="M251 268V337.029" stroke="#0D0D0D"/>
<path d="M347 268L347 362" stroke="#0D0D0D"/>
<circle cx="155" cy="430.5" r="24" fill="white"/>
<path d="M149.337 429.673C150.34 429.672 151.311 429.324 152.086 428.687C152.86 428.05 153.39 427.165 153.585 426.181C153.78 425.198 153.628 424.177 153.155 423.293C152.682 422.409 151.917 421.717 150.99 421.334C150.064 420.951 149.033 420.9 148.074 421.192C147.114 421.484 146.286 422.099 145.729 422.933C145.173 423.766 144.922 424.768 145.021 425.765C145.12 426.763 145.561 427.696 146.27 428.404C146.673 428.807 147.151 429.127 147.677 429.345C148.204 429.562 148.768 429.674 149.337 429.673ZM148.127 424.127C148.407 423.846 148.775 423.672 149.17 423.633C149.564 423.594 149.959 423.694 150.289 423.914C150.618 424.134 150.861 424.461 150.976 424.84C151.091 425.219 151.071 425.627 150.919 425.993C150.768 426.359 150.494 426.661 150.145 426.848C149.795 427.034 149.392 427.094 149.003 427.017C148.615 426.94 148.265 426.73 148.014 426.424C147.762 426.117 147.625 425.734 147.625 425.337C147.624 425.112 147.668 424.89 147.755 424.682C147.841 424.474 147.967 424.285 148.127 424.127ZM161.663 430.545C160.659 430.545 159.687 430.893 158.911 431.53C158.135 432.166 157.604 433.052 157.408 434.036C157.213 435.021 157.364 436.042 157.837 436.927C158.31 437.812 159.075 438.506 160.003 438.89C160.93 439.274 161.961 439.325 162.922 439.033C163.882 438.742 164.711 438.127 165.269 437.293C165.827 436.458 166.077 435.456 165.979 434.458C165.881 433.459 165.439 432.525 164.73 431.816C164.328 431.412 163.85 431.091 163.323 430.873C162.797 430.655 162.232 430.544 161.663 430.545ZM162.873 436.093C162.552 436.413 162.117 436.591 161.664 436.591C161.211 436.59 160.777 436.409 160.456 436.089C160.136 435.769 159.956 435.334 159.955 434.881C159.954 434.428 160.133 433.993 160.452 433.672C160.611 433.512 160.799 433.385 161.007 433.298C161.215 433.211 161.438 433.166 161.664 433.166C161.889 433.165 162.113 433.209 162.321 433.295C162.529 433.382 162.719 433.508 162.878 433.667C163.037 433.827 163.164 434.016 163.25 434.224C163.336 434.433 163.38 434.656 163.379 434.881C163.379 435.107 163.334 435.33 163.247 435.538C163.16 435.746 163.033 435.935 162.873 436.094L162.873 436.093ZM164.226 421.384C164.347 421.506 164.444 421.651 164.51 421.81C164.576 421.969 164.61 422.14 164.61 422.312C164.61 422.485 164.576 422.656 164.51 422.815C164.444 422.974 164.347 423.119 164.226 423.241L148.631 438.836C148.384 439.08 148.051 439.217 147.704 439.216C147.356 439.216 147.024 439.078 146.778 438.832C146.532 438.587 146.394 438.254 146.394 437.906C146.393 437.559 146.53 437.226 146.774 436.979L162.369 421.384C162.616 421.138 162.949 421 163.298 421C163.646 421 163.979 421.138 164.226 421.384Z" fill="#0D0D0D"/>
<circle cx="203" cy="477.5" r="24" fill="white"/>
<path d="M192.622 476.234C192.278 476.234 192 476.513 192 476.856V485.987C192 486.331 192.278 486.609 192.622 486.609H196.367V476.234H192.622Z" fill="#0D0D0D"/>
<path d="M213.001 479.667C213.001 478.877 212.577 478.185 211.944 477.806C212.187 477.457 212.329 477.032 212.329 476.576C212.329 475.381 211.356 474.408 210.161 474.408H205.586C205.727 473.773 205.918 472.819 206.052 471.821C206.399 469.224 206.162 467.783 205.305 467.288C204.77 466.979 204.194 466.916 203.682 467.111C203.286 467.262 202.752 467.632 202.448 468.541L201.245 471.69C200.636 473.195 198.769 474.776 197.611 475.65V486.883C199.757 487.635 201.996 488.016 204.28 488.016H209.265C210.46 488.016 211.433 487.044 211.433 485.849C211.433 485.43 211.313 485.039 211.107 484.708C211.83 484.356 212.329 483.614 212.329 482.758C212.329 482.301 212.187 481.877 211.944 481.527C212.577 481.148 213.001 480.456 213.001 479.667Z" fill="#0D0D0D"/>
<circle cx="251" cy="359.5" r="24" fill="white"/>
<path d="M251 348.951L242 352.224V359.5C242 367.72 250.733 369.956 250.821 369.978L251 370.021L251.179 369.978C251.267 369.956 260 367.72 260 359.5V352.224L251 348.951ZM249.5 363.56L245.97 360.03L247.03 358.969L249.5 361.439L254.97 355.969L256.03 357.03L249.5 363.56Z" fill="#0D0D0D"/>
<circle cx="299" cy="430.5" r="24" fill="white"/>
<circle cx="347" cy="385.5" r="24" fill="white"/>
<path d="M354.408 380.517L350.446 379.941L348.674 376.351C347.99 374.964 346.011 374.964 345.326 376.351L343.554 379.941L339.592 380.517C338.062 380.739 337.45 382.621 338.558 383.701L341.425 386.495L340.748 390.442C340.486 391.965 342.087 393.129 343.456 392.409L347 390.546L350.544 392.409C351.915 393.13 353.513 391.962 353.252 390.442L352.576 386.495L355.443 383.701C356.55 382.621 355.939 380.739 354.408 380.517Z" fill="#0D0D0D"/>
<path d="M341.316 375.711L340.359 374.394C340.1 374.037 339.599 373.958 339.242 374.217C338.884 374.477 338.805 374.977 339.065 375.335L340.022 376.652C340.282 377.009 340.782 377.088 341.139 376.828C341.497 376.569 341.576 376.068 341.316 375.711Z" fill="#0D0D0D"/>
<path d="M338.14 387.512C338.004 387.092 337.553 386.862 337.132 386.998L335.553 387.512C335.133 387.648 334.903 388.099 335.039 388.52C335.176 388.941 335.628 389.17 336.047 389.033L337.627 388.52C338.047 388.384 338.277 387.932 338.14 387.512Z" fill="#0D0D0D"/>
<path d="M354.759 374.217C354.402 373.958 353.902 374.037 353.642 374.394L352.685 375.711C352.425 376.068 352.505 376.569 352.862 376.828C353.22 377.088 353.72 377.009 353.979 376.652L354.936 375.335C355.196 374.977 355.117 374.477 354.759 374.217Z" fill="#0D0D0D"/>
<path d="M358.447 387.512L356.868 386.998C356.448 386.862 355.996 387.092 355.86 387.512C355.723 387.932 355.953 388.384 356.373 388.52L357.953 389.033C358.372 389.17 358.824 388.94 358.961 388.52C359.097 388.1 358.867 387.648 358.447 387.512Z" fill="#0D0D0D"/>
<path d="M347 393.713C346.558 393.713 346.2 394.071 346.2 394.513V396.137C346.2 396.578 346.558 396.936 347 396.936C347.442 396.936 347.8 396.578 347.8 396.137V394.513C347.8 394.071 347.442 393.713 347 393.713Z" fill="#0D0D0D"/>
<path d="M299.251 426.249H299.001C298.883 426.244 298.768 426.212 298.665 426.155C298.561 426.098 298.473 426.018 298.406 425.921C298.339 425.824 298.296 425.713 298.279 425.596C298.262 425.48 298.273 425.361 298.311 425.249C298.661 424.369 298.981 423.469 299.241 422.589C299.461 421.909 300.321 419.779 302.481 419.779C303.322 419.752 304.141 420.06 304.755 420.636C305.37 421.211 305.732 422.007 305.761 422.849C305.761 424.779 303.571 425.569 302.761 425.849C301.615 426.148 300.434 426.282 299.251 426.249ZM302.471 421.249C301.321 421.249 300.801 422.579 300.671 422.989C300.491 423.569 300.301 424.149 300.091 424.729C300.808 424.724 301.521 424.624 302.211 424.429C302.781 424.229 304.211 423.689 304.211 422.819C304.18 422.383 303.981 421.976 303.657 421.683C303.333 421.391 302.907 421.235 302.471 421.249Z" fill="#0D0D0D"/>
<path d="M298.721 426.25C297.564 426.27 296.409 426.129 295.291 425.83C292.801 425.02 292.291 423.75 292.291 422.83C292.295 422.441 292.378 422.057 292.534 421.702C292.691 421.346 292.918 421.026 293.201 420.76C293.831 420.126 294.687 419.766 295.581 419.76C297.261 419.76 298.111 421.33 298.741 422.45C299.15 423.368 299.485 424.318 299.741 425.29C299.772 425.4 299.777 425.516 299.756 425.629C299.736 425.741 299.689 425.848 299.621 425.94C299.555 426.033 299.468 426.109 299.367 426.163C299.267 426.217 299.155 426.246 299.041 426.25H298.721ZM295.471 421.25C294.996 421.27 294.548 421.475 294.221 421.82C294.078 421.945 293.963 422.099 293.882 422.271C293.802 422.443 293.757 422.63 293.751 422.82C293.751 423.43 294.491 424.02 295.751 424.43C296.486 424.62 297.242 424.721 298.001 424.73C297.839 424.197 297.642 423.676 297.411 423.17L298.001 422.81L297.351 423.17C296.771 422.06 296.271 421.27 295.501 421.25H295.471Z" fill="#0D0D0D"/>
<path d="M308.251 428.75V427.5C308.251 426.771 307.961 426.071 307.446 425.555C306.93 425.04 306.23 424.75 305.501 424.75H292.501C291.772 424.75 291.072 425.04 290.556 425.555C290.041 426.071 289.751 426.771 289.751 427.5V428.75H308.251Z" fill="#0D0D0D"/>
<path d="M299.752 430.25V441.25H305.502C306.231 441.25 306.931 440.96 307.446 440.445C307.962 439.929 308.252 439.229 308.252 438.5V430.25H299.752Z" fill="#0D0D0D"/>
<path d="M298.251 430.25H289.751V438.5C289.751 439.229 290.041 439.929 290.556 440.445C291.072 440.96 291.772 441.25 292.501 441.25H298.251V430.25Z" fill="#0D0D0D"/>
</svg>
