<svg width="108" height="108" viewBox="0 0 108 108" fill="none" xmlns="http://www.w3.org/2000/svg">
<g clip-path="url(#clip0_2427_3874)">
<path d="M3.68811 14.5786L3.68811 25.2256L14.3351 25.2256L24.982 25.2256L24.982 14.5786L24.982 3.93164L14.3351 3.93164L3.68811 3.93164L3.68811 14.5786ZM21.9401 14.5786L21.9401 22.1836L14.3351 22.1836L6.73012 22.1836L6.73012 14.5786L6.73012 6.97365L14.3351 6.97365L21.9401 6.97365L21.9401 14.5786Z" fill="white"/>
<path d="M9.77246 14.5787L9.77246 19.1416L14.3354 19.1416L18.8984 19.1416L18.8984 14.5787L18.8984 10.0156L14.3354 10.0156L9.77246 10.0156L9.77246 14.5787Z" fill="white"/>
<path d="M34.1082 6.97362L34.1082 10.0156L35.6292 10.0156L37.1502 10.0156L37.1502 6.97362L37.1502 3.93164L35.6292 3.93164L34.1082 3.93164L34.1082 6.97362Z" fill="white"/>
<path d="M40.1921 5.45264L40.1921 6.97364L41.713 6.97364L43.234 6.97364L43.234 8.49465L43.234 10.0156L41.713 10.0156L40.1921 10.0156L40.1921 13.0576L40.1921 16.0996L43.234 16.0996L46.276 16.0996L46.276 17.6206L46.276 19.1416L41.713 19.1416L37.15 19.1416L37.15 20.6626L37.15 22.1836L35.629 22.1836L34.1081 22.1836L34.1081 19.1416L34.1081 16.0996L35.629 16.0996L37.15 16.0996L37.15 14.5786L37.15 13.0576L32.587 13.0576L28.0241 13.0576L28.0241 14.5786L28.0241 16.0996L29.545 16.0996L31.066 16.0996L31.066 17.6206L31.066 19.1416L29.545 19.1416L28.0241 19.1416L28.0241 22.1836L28.0241 25.2256L29.545 25.2256L31.066 25.2256L31.066 26.7466L31.066 28.2676L26.5031 28.2676L21.9401 28.2676L21.9401 29.7886L21.9401 31.3096L28.0241 31.3096L34.1081 31.3096L34.1081 34.3516L34.1081 37.3935L35.629 37.3935L37.15 37.3935L37.15 34.3516L37.15 31.3096L38.671 31.3096L40.1921 31.3096L40.1921 32.8306L40.1921 34.3516L41.713 34.3516L43.234 34.3516L43.234 32.8306L43.234 31.3096L44.755 31.3096L46.276 31.3096L46.276 35.8725L46.276 40.4356L44.755 40.4356L43.234 40.4356L43.234 38.9146L43.234 37.3935L41.713 37.3935L40.1921 37.3935L40.1921 40.4356L40.1921 43.4775L43.234 43.4775L46.276 43.4775L46.276 44.9986L46.276 46.5195L47.797 46.5195L49.318 46.5195L49.318 49.5615L49.318 52.6035L46.276 52.6035L43.234 52.6035L43.234 54.1244L43.234 55.6456L41.713 55.6456L40.1921 55.6456L40.1921 52.6035L40.1921 49.5615L41.713 49.5615L43.234 49.5615L43.234 48.0405L43.234 46.5195L38.671 46.5195L34.1081 46.5195L34.1081 44.9986L34.1081 43.4775L35.629 43.4775L37.15 43.4775L37.15 41.9565L37.15 40.4356L34.1081 40.4356L31.066 40.4356L31.066 44.9986L31.066 49.5615L29.545 49.5615L28.0241 49.5615L28.0241 48.0405L28.0241 46.5195L24.982 46.5195L21.9401 46.5195L21.9401 44.9986L21.9401 43.4775L24.982 43.4775L28.0241 43.4775L28.0241 41.9565L28.0241 40.4356L18.8981 40.4356L9.77209 40.4356L9.77209 35.8725L9.77209 31.3096L11.2931 31.3096L12.8141 31.3096L12.8141 32.8306L12.8141 34.3516L14.3351 34.3516L15.8561 34.3516L15.8561 35.8725L15.8561 37.3935L23.4611 37.3935L31.066 37.3935L31.066 35.8725L31.066 34.3516L24.982 34.3516L18.8981 34.3516L18.8981 31.3096L18.8981 28.2676L11.2931 28.2676L3.68811 28.2676L3.68811 31.3096L3.68811 34.3516L5.20911 34.3516L6.73012 34.3516L6.73012 37.3935L6.73012 40.4356L5.20911 40.4356L3.68811 40.4356L3.68811 41.9565L3.68811 43.4775L6.73012 43.4775L9.77209 43.4775L9.77209 44.9986L9.77209 46.5195L11.2931 46.5195L12.8141 46.5195L12.8141 48.0405L12.8141 49.5615L9.77209 49.5615L6.73012 49.5615L6.73012 48.0405L6.73012 46.5195L5.20911 46.5195L3.68811 46.5195L3.68811 48.0405L3.68811 49.5615L5.20911 49.5615L6.73012 49.5615L6.73012 51.0825L6.73012 52.6035L5.20911 52.6035L3.68811 52.6035L3.68811 54.1244L3.68811 55.6456L6.73012 55.6456L9.77209 55.6456L9.77209 57.1663L9.77209 58.6876L6.73012 58.6876L3.68811 58.6876L3.68811 69.3345L3.68811 79.9815L5.20911 79.9815L6.73012 79.9815L6.73012 73.8977L6.73012 67.8133L8.25108 67.8133L9.77209 67.8133L9.77209 66.2926L9.77209 64.7714L11.2931 64.7714L12.8141 64.7714L12.8141 66.2926L12.8141 67.8133L15.8561 67.8133L18.8981 67.8133L18.8981 66.2926L18.8981 64.7714L15.8561 64.7714L12.8141 64.7714L12.8141 60.2083L12.8141 55.6456L14.3351 55.6456L15.8561 55.6456L15.8561 57.1663L15.8561 58.6876L17.3771 58.6876L18.8981 58.6876L18.8981 60.2083L18.8981 61.7295L21.9401 61.7295L24.982 61.7295L24.982 63.2507L24.982 64.7714L23.4611 64.7714L21.9401 64.7714L21.9401 66.2926L21.9401 67.8133L24.982 67.8133L28.0241 67.8133L28.0241 63.2507L28.0241 58.6876L29.545 58.6876L31.066 58.6876L31.066 57.1663L31.066 55.6456L35.629 55.6456L40.1921 55.6456L40.1921 57.1663L40.1921 58.6876L41.713 58.6876L43.234 58.6876L43.234 57.1663L43.234 55.6456L46.276 55.6456L49.318 55.6456L49.318 54.1244L49.318 52.6035L52.36 52.6035L55.4018 52.6035L55.4018 54.1244L55.4018 55.6456L53.8811 55.6456L52.36 55.6456L52.36 57.1663L52.36 58.6876L49.318 58.6876L46.276 58.6876L46.276 61.7295L46.276 64.7714L44.755 64.7714L43.234 64.7714L43.234 63.2507L43.234 61.7295L41.713 61.7295L40.1921 61.7295L40.1921 64.7714L40.1921 67.8133L43.234 67.8133L46.276 67.8133L46.276 69.3345L46.276 70.8552L40.1921 70.8552L34.1081 70.8552L34.1081 72.3765L34.1081 73.8977L32.587 73.8977L31.066 73.8977L31.066 72.3765L31.066 70.8552L26.5031 70.8552L21.9401 70.8552L21.9401 72.3765L21.9401 73.8977L23.4611 73.8977L24.982 73.8977L24.982 75.4184L24.982 76.9396L23.4611 76.9396L21.9401 76.9396L21.9401 78.4603L21.9401 79.9815L23.4611 79.9815L24.982 79.9815L24.982 78.4603L24.982 76.9396L26.5031 76.9396L28.0241 76.9396L28.0241 81.5022L28.0241 86.0653L31.066 86.0653L34.1081 86.0653L34.1081 93.6704L34.1081 101.275L38.671 101.275L43.234 101.275L43.234 102.796L43.234 104.317L50.839 104.317L58.4442 104.317L58.4442 102.796L58.4442 101.275L56.923 101.275L55.4018 101.275L55.4018 99.7542L55.4018 98.2335L58.4442 98.2335L61.4862 98.2335L61.4862 96.7123L61.4862 95.1916L64.5281 95.1916L67.57 95.1916L67.57 93.6704L67.57 92.1492L64.5281 92.1492L61.4862 92.1492L61.4862 93.6704L61.4862 95.1916L58.4442 95.1916L55.4018 95.1916L55.4018 93.6704L55.4018 92.1492L56.923 92.1492L58.4442 92.1492L58.4442 90.6285L58.4442 89.1073L59.9649 89.1073L61.4862 89.1073L61.4862 87.5866L61.4862 86.0653L59.9649 86.0653L58.4442 86.0653L58.4442 84.5446L58.4442 83.0234L61.4862 83.0234L64.5281 83.0234L64.5281 86.0653L64.5281 89.1073L70.6119 89.1073L76.6957 89.1073L76.6957 90.6285L76.6957 92.1492L75.175 92.1492L73.6538 92.1492L73.6538 93.6704L73.6538 95.1916L72.1331 95.1916L70.6119 95.1916L70.6119 96.7123L70.6119 98.2335L67.57 98.2335L64.5281 98.2335L64.5281 99.7542L64.5281 101.275L67.57 101.275L70.6119 101.275L70.6119 102.796L70.6119 104.317L75.175 104.317L79.7382 104.317L79.7382 102.796L79.7382 101.275L81.2589 101.275L82.7801 101.275L82.7801 102.796L82.7801 104.317L85.822 104.317L88.8639 104.317L88.8639 102.796L88.8639 101.275L87.3427 101.275L85.822 101.275L85.822 98.2335L85.822 95.1916L84.3008 95.1916L82.7801 95.1916L82.7801 96.7123L82.7801 98.2335L81.2589 98.2335L79.7382 98.2335L79.7382 96.7123L79.7382 95.1916L78.217 95.1916L76.6957 95.1916L76.6957 93.6704L76.6957 92.1492L82.7801 92.1492L88.8639 92.1492L88.8639 93.6704L88.8639 95.1916L91.9059 95.1916L94.9478 95.1916L94.9478 96.7123L94.9478 98.2335L93.4271 98.2335L91.9059 98.2335L91.9059 99.7542L91.9059 101.275L94.9478 101.275L97.9897 101.275L97.9897 102.796L97.9897 104.317L99.5109 104.317L101.032 104.317L101.032 102.796L101.032 101.275L99.5109 101.275L97.9897 101.275L97.9897 99.7542L97.9897 98.2335L99.5109 98.2335L101.032 98.2335L101.032 96.7123L101.032 95.1916L97.9897 95.1916L94.9478 95.1916L94.9478 93.6704L94.9478 92.1492L93.4271 92.1492L91.9059 92.1492L91.9059 90.6285L91.9059 89.1073L94.9478 89.1073L97.9897 89.1073L97.9897 90.6285L97.9897 92.1492L99.5109 92.1492L101.032 92.1492L101.032 87.5866L101.032 83.0234L102.553 83.0234L104.074 83.0234L104.074 79.9815L104.074 76.9396L102.553 76.9396L101.032 76.9396L101.032 79.9815L101.032 83.0234L99.5109 83.0234L97.9897 83.0234L97.9897 81.5022L97.9897 79.9815L96.469 79.9815L94.9478 79.9815L94.9478 78.4603L94.9478 76.9396L96.469 76.9396L97.9897 76.9396L97.9897 75.4184L97.9897 73.8977L99.5109 73.8977L101.032 73.8977L101.032 72.3765L101.032 70.8552L102.553 70.8552L104.074 70.8552L104.074 69.3345L104.074 67.8133L102.553 67.8133L101.032 67.8133L101.032 66.2926L101.032 64.7714L99.5109 64.7714L97.9897 64.7714L97.9897 63.2507L97.9897 61.7295L99.5109 61.7295L101.032 61.7295L101.032 60.2083L101.032 58.6876L102.553 58.6876L104.074 58.6876L104.074 57.1663L104.074 55.6456L102.553 55.6456L101.032 55.6456L101.032 54.1244L101.032 52.6035L99.5109 52.6035L97.9897 52.6035L97.9897 51.0825L97.9897 49.5615L99.5109 49.5615L101.032 49.5615L101.032 48.0405L101.032 46.5195L102.553 46.5195L104.074 46.5195L104.074 44.9986L104.074 43.4775L101.032 43.4775L97.9897 43.4775L97.9897 46.5195L97.9897 49.5615L96.469 49.5615L94.9478 49.5615L94.9478 51.0825L94.9478 52.6035L96.469 52.6035L97.9897 52.6035L97.9897 57.1663L97.9897 61.7295L96.469 61.7295L94.9478 61.7295L94.9478 58.6876L94.9478 55.6456L93.4271 55.6456L91.9059 55.6456L91.9059 54.1244L91.9059 52.6035L88.8639 52.6035L85.822 52.6035L85.822 51.0825L85.822 49.5615L84.3008 49.5615L82.7801 49.5615L82.7801 48.0405L82.7801 46.5195L84.3008 46.5195L85.822 46.5195L85.822 44.9986L85.822 43.4775L90.3852 43.4775L94.9478 43.4775L94.9478 41.9565L94.9478 40.4356L96.469 40.4356L97.9897 40.4356L97.9897 38.9146L97.9897 37.3935L99.5109 37.3935L101.032 37.3935L101.032 35.8725L101.032 34.3516L102.553 34.3516L104.074 34.3516L104.074 32.8306L104.074 31.3096L102.553 31.3096L101.032 31.3096L101.032 29.7886L101.032 28.2676L99.5109 28.2676L97.9897 28.2676L97.9897 29.7886L97.9897 31.3096L96.469 31.3096L94.9478 31.3096L94.9478 29.7886L94.9478 28.2676L93.4271 28.2676L91.9059 28.2676L91.9059 29.7886L91.9059 31.3096L93.4271 31.3096L94.9478 31.3096L94.9478 32.8306L94.9478 34.3516L91.9059 34.3516L88.8639 34.3516L88.8639 37.3935L88.8639 40.4356L87.3427 40.4356L85.822 40.4356L85.822 35.8725L85.822 31.3096L87.3427 31.3096L88.8639 31.3096L88.8639 29.7886L88.8639 28.2676L87.3427 28.2676L85.822 28.2676L85.822 29.7886L85.822 31.3096L84.3008 31.3096L82.7801 31.3096L82.7801 29.7886L82.7801 28.2676L81.2589 28.2676L79.7382 28.2676L79.7382 29.7886L79.7382 31.3096L81.2589 31.3096L82.7801 31.3096L82.7801 32.8306L82.7801 34.3516L81.2589 34.3516L79.7382 34.3516L79.7382 35.8725L79.7382 37.3935L76.6957 37.3935L73.6538 37.3935L73.6538 35.8725L73.6538 34.3516L75.175 34.3516L76.6957 34.3516L76.6957 32.8306L76.6957 31.3096L75.175 31.3096L73.6538 31.3096L73.6538 32.8306L73.6538 34.3516L72.1331 34.3516L70.6119 34.3516L70.6119 35.8725L70.6119 37.3935L67.57 37.3935L64.5281 37.3935L64.5281 38.9146L64.5281 40.4356L63.0069 40.4356L61.4862 40.4356L61.4862 41.9565L61.4862 43.4775L59.9649 43.4775L58.4442 43.4775L58.4442 41.9565L58.4442 40.4356L56.923 40.4356L55.4018 40.4356L55.4018 41.9565L55.4018 43.4775L53.8811 43.4775L52.36 43.4775L52.36 44.9986L52.36 46.5195L50.839 46.5195L49.318 46.5195L49.318 43.4775L49.318 40.4356L50.839 40.4356L52.36 40.4356L52.36 38.9146L52.36 37.3935L53.8811 37.3935L55.4018 37.3935L55.4018 35.8725L55.4018 34.3516L56.923 34.3516L58.4442 34.3516L58.4442 32.8306L58.4442 31.3096L59.9649 31.3096L61.4862 31.3096L61.4862 32.8306L61.4862 34.3516L64.5281 34.3516L67.57 34.3516L67.57 31.3096L67.57 28.2676L70.6119 28.2676L73.6538 28.2676L73.6538 23.7046L73.6538 19.1416L75.175 19.1416L76.6957 19.1416L76.6957 22.1836L76.6957 25.2256L78.217 25.2256L79.7382 25.2256L79.7382 22.1836L79.7382 19.1416L78.217 19.1416L76.6957 19.1416L76.6957 17.6206L76.6957 16.0996L78.217 16.0996L79.7382 16.0996L79.7382 14.5786L79.7382 13.0576L78.217 13.0576L76.6957 13.0576L76.6957 11.5366L76.6957 10.0156L75.175 10.0156L73.6538 10.0156L73.6538 11.5366L73.6538 13.0576L72.1331 13.0576L70.6119 13.0576L70.6119 11.5366L70.6119 10.0156L69.0912 10.0156L67.57 10.0156L67.57 8.49465L67.57 6.97364L72.1331 6.97364L76.6957 6.97364L76.6957 5.45264L76.6957 3.93164L66.0488 3.93164L55.4018 3.93164L55.4018 5.45264L55.4018 6.97364L56.923 6.97364L58.4442 6.97364L58.4442 8.49465L58.4442 10.0156L59.9649 10.0156L61.4862 10.0156L61.4862 13.0576L61.4862 16.0996L59.9649 16.0996L58.4442 16.0996L58.4442 14.5786L58.4442 13.0576L56.923 13.0576L55.4018 13.0576L55.4018 11.5366L55.4018 10.0156L53.8811 10.0156L52.36 10.0156L52.36 8.49465L52.36 6.97364L49.318 6.97364L46.276 6.97364L46.276 5.45264L46.276 3.93164L43.234 3.93164L40.1921 3.93164L40.1921 5.45264ZM64.5281 8.49465L64.5281 10.0156L63.0069 10.0156L61.4862 10.0156L61.4862 8.49465L61.4862 6.97364L63.0069 6.97364L64.5281 6.97364L64.5281 8.49465ZM49.318 11.5366L49.318 13.0576L46.276 13.0576L43.234 13.0576L43.234 11.5366L43.234 10.0156L46.276 10.0156L49.318 10.0156L49.318 11.5366ZM70.6119 14.5786L70.6119 16.0996L72.1331 16.0996L73.6538 16.0996L73.6538 17.6206L73.6538 19.1416L72.1331 19.1416L70.6119 19.1416L70.6119 17.6206L70.6119 16.0996L69.0912 16.0996L67.57 16.0996L67.57 17.6206L67.57 19.1416L66.0488 19.1416L64.5281 19.1416L64.5281 22.1836L64.5281 25.2256L66.0488 25.2256L67.57 25.2256L67.57 23.7046L67.57 22.1836L69.0912 22.1836L70.6119 22.1836L70.6119 23.7046L70.6119 25.2256L69.0912 25.2256L67.57 25.2256L67.57 26.7466L67.57 28.2676L66.0488 28.2676L64.5281 28.2676L64.5281 29.7886L64.5281 31.3096L63.0069 31.3096L61.4862 31.3096L61.4862 29.7886L61.4862 28.2676L63.0069 28.2676L64.5281 28.2676L64.5281 26.7466L64.5281 25.2256L63.0069 25.2256L61.4862 25.2256L61.4862 23.7046L61.4862 22.1836L59.9649 22.1836L58.4442 22.1836L58.4442 25.2256L58.4442 28.2676L53.8811 28.2676L49.318 28.2676L49.318 25.2256L49.318 22.1836L47.797 22.1836L46.276 22.1836L46.276 25.2256L46.276 28.2676L44.755 28.2676L43.234 28.2676L43.234 29.7886L43.234 31.3096L41.713 31.3096L40.1921 31.3096L40.1921 28.2676L40.1921 25.2256L38.671 25.2256L37.15 25.2256L37.15 23.7046L37.15 22.1836L38.671 22.1836L40.1921 22.1836L40.1921 23.7046L40.1921 25.2256L41.713 25.2256L43.234 25.2256L43.234 23.7046L43.234 22.1836L44.755 22.1836L46.276 22.1836L46.276 20.6626L46.276 19.1416L47.797 19.1416L49.318 19.1416L49.318 17.6206L49.318 16.0996L50.839 16.0996L52.36 16.0996L52.36 17.6206L52.36 19.1416L50.839 19.1416L49.318 19.1416L49.318 20.6626L49.318 22.1836L50.839 22.1836L52.36 22.1836L52.36 23.7046L52.36 25.2256L53.8811 25.2256L55.4018 25.2256L55.4018 20.6626L55.4018 16.0996L56.923 16.0996L58.4442 16.0996L58.4442 17.6206L58.4442 19.1416L61.4862 19.1416L64.5281 19.1416L64.5281 17.6206L64.5281 16.0996L66.0488 16.0996L67.57 16.0996L67.57 14.5786L67.57 13.0576L69.0912 13.0576L70.6119 13.0576L70.6119 14.5786ZM34.1081 23.7046L34.1081 25.2256L32.587 25.2256L31.066 25.2256L31.066 23.7046L31.066 22.1836L32.587 22.1836L34.1081 22.1836L34.1081 23.7046ZM37.15 29.7886L37.15 31.3096L35.629 31.3096L34.1081 31.3096L34.1081 29.7886L34.1081 28.2676L35.629 28.2676L37.15 28.2676L37.15 29.7886ZM52.36 32.8306L52.36 34.3516L50.839 34.3516L49.318 34.3516L49.318 32.8306L49.318 31.3096L50.839 31.3096L52.36 31.3096L52.36 32.8306ZM97.9897 35.8725L97.9897 37.3935L96.469 37.3935L94.9478 37.3935L94.9478 38.9146L94.9478 40.4356L93.4271 40.4356L91.9059 40.4356L91.9059 38.9146L91.9059 37.3935L93.4271 37.3935L94.9478 37.3935L94.9478 35.8725L94.9478 34.3516L96.469 34.3516L97.9897 34.3516L97.9897 35.8725ZM70.6119 41.9565L70.6119 43.4775L72.1331 43.4775L73.6538 43.4775L73.6538 41.9565L73.6538 40.4356L76.6957 40.4356L79.7382 40.4356L79.7382 41.9565L79.7382 43.4775L81.2589 43.4775L82.7801 43.4775L82.7801 41.9565L82.7801 40.4356L84.3008 40.4356L85.822 40.4356L85.822 41.9565L85.822 43.4775L84.3008 43.4775L82.7801 43.4775L82.7801 44.9986L82.7801 46.5195L81.2589 46.5195L79.7382 46.5195L79.7382 49.5615L79.7382 52.6035L78.217 52.6035L76.6957 52.6035L76.6957 51.0825L76.6957 49.5615L73.6538 49.5615L70.6119 49.5615L70.6119 46.5195L70.6119 43.4775L67.57 43.4775L64.5281 43.4775L64.5281 41.9565L64.5281 40.4356L67.57 40.4356L70.6119 40.4356L70.6119 41.9565ZM18.8981 44.9986L18.8981 46.5195L15.8561 46.5195L12.8141 46.5195L12.8141 44.9986L12.8141 43.4775L15.8561 43.4775L18.8981 43.4775L18.8981 44.9986ZM58.4442 44.9986L58.4442 46.5195L56.923 46.5195L55.4018 46.5195L55.4018 48.0405L55.4018 49.5615L58.4442 49.5615L61.4862 49.5615L61.4862 48.0405L61.4862 46.5195L63.0069 46.5195L64.5281 46.5195L64.5281 48.0405L64.5281 49.5615L66.0488 49.5615L67.57 49.5615L67.57 51.0825L67.57 52.6035L69.0912 52.6035L70.6119 52.6035L70.6119 54.1244L70.6119 55.6456L67.57 55.6456L64.5281 55.6456L64.5281 54.1244L64.5281 52.6035L63.0069 52.6035L61.4862 52.6035L61.4862 54.1244L61.4862 55.6456L59.9649 55.6456L58.4442 55.6456L58.4442 54.1244L58.4442 52.6035L56.923 52.6035L55.4018 52.6035L55.4018 51.0825L55.4018 49.5615L53.8811 49.5615L52.36 49.5615L52.36 48.0405L52.36 46.5195L53.8811 46.5195L55.4018 46.5195L55.4018 44.9986L55.4018 43.4775L56.923 43.4775L58.4442 43.4775L58.4442 44.9986ZM15.8561 51.0825L15.8561 52.6035L14.3351 52.6035L12.8141 52.6035L12.8141 54.1244L12.8141 55.6456L11.2931 55.6456L9.77209 55.6456L9.77209 54.1244L9.77209 52.6035L11.2931 52.6035L12.8141 52.6035L12.8141 51.0825L12.8141 49.5615L14.3351 49.5615L15.8561 49.5615L15.8561 51.0825ZM24.982 51.0825L24.982 52.6035L23.4611 52.6035L21.9401 52.6035L21.9401 54.1244L21.9401 55.6456L23.4611 55.6456L24.982 55.6456L24.982 57.1663L24.982 58.6876L21.9401 58.6876L18.8981 58.6876L18.8981 55.6456L18.8981 52.6035L20.4191 52.6035L21.9401 52.6035L21.9401 51.0825L21.9401 49.5615L23.4611 49.5615L24.982 49.5615L24.982 51.0825ZM34.1081 51.0825L34.1081 52.6035L32.587 52.6035L31.066 52.6035L31.066 54.1244L31.066 55.6456L29.545 55.6456L28.0241 55.6456L28.0241 54.1244L28.0241 52.6035L29.545 52.6035L31.066 52.6035L31.066 51.0825L31.066 49.5615L32.587 49.5615L34.1081 49.5615L34.1081 51.0825ZM85.822 54.1244L85.822 55.6456L88.8639 55.6456L91.9059 55.6456L91.9059 57.1663L91.9059 58.6876L88.8639 58.6876L85.822 58.6876L85.822 57.1663L85.822 55.6456L84.3008 55.6456L82.7801 55.6456L82.7801 57.1663L82.7801 58.6876L81.2589 58.6876L79.7382 58.6876L79.7382 60.2083L79.7382 61.7295L84.3008 61.7295L88.8639 61.7295L88.8639 63.2507L88.8639 64.7714L87.3427 64.7714L85.822 64.7714L85.822 66.2926L85.822 67.8133L84.3008 67.8133L82.7801 67.8133L82.7801 69.3345L82.7801 70.8552L85.822 70.8552L88.8639 70.8552L88.8639 69.3345L88.8639 67.8133L90.3852 67.8133L91.9059 67.8133L91.9059 64.7714L91.9059 61.7295L93.4271 61.7295L94.9478 61.7295L94.9478 63.2507L94.9478 64.7714L96.469 64.7714L97.9897 64.7714L97.9897 69.3345L97.9897 73.8977L96.469 73.8977L94.9478 73.8977L94.9478 70.8552L94.9478 67.8133L93.4271 67.8133L91.9059 67.8133L91.9059 70.8552L91.9059 73.8977L88.8639 73.8977L85.822 73.8977L85.822 75.4184L85.822 76.9396L84.3008 76.9396L82.7801 76.9396L82.7801 73.8977L82.7801 70.8552L81.2589 70.8552L79.7382 70.8552L79.7382 73.8977L79.7382 76.9396L78.217 76.9396L76.6957 76.9396L76.6957 75.4184L76.6957 73.8977L75.175 73.8977L73.6538 73.8977L73.6538 75.4184L73.6538 76.9396L72.1331 76.9396L70.6119 76.9396L70.6119 78.4603L70.6119 79.9815L69.0912 79.9815L67.57 79.9815L67.57 78.4603L67.57 76.9396L69.0912 76.9396L70.6119 76.9396L70.6119 73.8977L70.6119 70.8552L73.6538 70.8552L76.6957 70.8552L76.6957 69.3345L76.6957 67.8133L79.7382 67.8133L82.7801 67.8133L82.7801 66.2926L82.7801 64.7714L76.6957 64.7714L70.6119 64.7714L70.6119 66.2926L70.6119 67.8133L64.5281 67.8133L58.4442 67.8133L58.4442 66.2926L58.4442 64.7714L53.8811 64.7714L49.318 64.7714L49.318 63.2507L49.318 61.7295L50.839 61.7295L52.36 61.7295L52.36 60.2083L52.36 58.6876L53.8811 58.6876L55.4018 58.6876L55.4018 60.2083L55.4018 61.7295L56.923 61.7295L58.4442 61.7295L58.4442 60.2083L58.4442 58.6876L61.4862 58.6876L64.5281 58.6876L64.5281 60.2083L64.5281 61.7295L66.0488 61.7295L67.57 61.7295L67.57 63.2507L67.57 64.7714L69.0912 64.7714L70.6119 64.7714L70.6119 61.7295L70.6119 58.6876L75.175 58.6876L79.7382 58.6876L79.7382 57.1663L79.7382 55.6456L81.2589 55.6456L82.7801 55.6456L82.7801 54.1244L82.7801 52.6035L84.3008 52.6035L85.822 52.6035L85.822 54.1244ZM52.36 69.3345L52.36 70.8552L50.839 70.8552L49.318 70.8552L49.318 73.8977L49.318 76.9396L44.755 76.9396L40.1921 76.9396L40.1921 75.4184L40.1921 73.8977L43.234 73.8977L46.276 73.8977L46.276 72.3765L46.276 70.8552L47.797 70.8552L49.318 70.8552L49.318 69.3345L49.318 67.8133L50.839 67.8133L52.36 67.8133L52.36 69.3345ZM67.57 72.3765L67.57 73.8977L66.0488 73.8977L64.5281 73.8977L64.5281 76.9396L64.5281 79.9815L63.0069 79.9815L61.4862 79.9815L61.4862 78.4603L61.4862 76.9396L58.4442 76.9396L55.4018 76.9396L55.4018 78.4603L55.4018 79.9815L53.8811 79.9815L52.36 79.9815L52.36 81.5022L52.36 83.0234L53.8811 83.0234L55.4018 83.0234L55.4018 84.5446L55.4018 86.0653L56.923 86.0653L58.4442 86.0653L58.4442 87.5866L58.4442 89.1073L55.4018 89.1073L52.36 89.1073L52.36 86.0653L52.36 83.0234L49.318 83.0234L46.276 83.0234L46.276 84.5446L46.276 86.0653L47.797 86.0653L49.318 86.0653L49.318 87.5866L49.318 89.1073L46.276 89.1073L43.234 89.1073L43.234 92.1492L43.234 95.1916L44.755 95.1916L46.276 95.1916L46.276 93.6704L46.276 92.1492L49.318 92.1492L52.36 92.1492L52.36 93.6704L52.36 95.1916L50.839 95.1916L49.318 95.1916L49.318 96.7123L49.318 98.2335L47.797 98.2335L46.276 98.2335L46.276 99.7542L46.276 101.275L44.755 101.275L43.234 101.275L43.234 99.7542L43.234 98.2335L40.1921 98.2335L37.15 98.2335L37.15 96.7123L37.15 95.1916L38.671 95.1916L40.1921 95.1916L40.1921 93.6704L40.1921 92.1492L38.671 92.1492L37.15 92.1492L37.15 89.1073L37.15 86.0653L35.629 86.0653L34.1081 86.0653L34.1081 84.5446L34.1081 83.0234L35.629 83.0234L37.15 83.0234L37.15 81.5022L37.15 79.9815L34.1081 79.9815L31.066 79.9815L31.066 78.4603L31.066 76.9396L32.587 76.9396L34.1081 76.9396L34.1081 75.4184L34.1081 73.8977L35.629 73.8977L37.15 73.8977L37.15 76.9396L37.15 79.9815L38.671 79.9815L40.1921 79.9815L40.1921 83.0234L40.1921 86.0653L41.713 86.0653L43.234 86.0653L43.234 84.5446L43.234 83.0234L44.755 83.0234L46.276 83.0234L46.276 81.5022L46.276 79.9815L49.318 79.9815L52.36 79.9815L52.36 78.4603L52.36 76.9396L53.8811 76.9396L55.4018 76.9396L55.4018 73.8977L55.4018 70.8552L61.4862 70.8552L67.57 70.8552L67.57 72.3765ZM76.6957 81.5022L76.6957 83.0234L75.175 83.0234L73.6538 83.0234L73.6538 84.5446L73.6538 86.0653L70.6119 86.0653L67.57 86.0653L67.57 84.5446L67.57 83.0234L70.6119 83.0234L73.6538 83.0234L73.6538 81.5022L73.6538 79.9815L75.175 79.9815L76.6957 79.9815L76.6957 81.5022ZM88.8639 84.5446L88.8639 89.1073L84.3008 89.1073L79.7382 89.1073L79.7382 84.5446L79.7382 79.9815L84.3008 79.9815L88.8639 79.9815L88.8639 84.5446ZM94.9478 83.0234L94.9478 86.0653L93.4271 86.0653L91.9059 86.0653L91.9059 83.0234L91.9059 79.9815L93.4271 79.9815L94.9478 79.9815L94.9478 83.0234ZM76.6957 96.7123L76.6957 98.2335L78.217 98.2335L79.7382 98.2335L79.7382 99.7542L79.7382 101.275L76.6957 101.275L73.6538 101.275L73.6538 98.2335L73.6538 95.1916L75.175 95.1916L76.6957 95.1916L76.6957 96.7123Z" fill="white"/>
<path d="M73.6539 44.9995L73.6539 46.5205L75.1752 46.5205L76.6958 46.5205L76.6958 44.9995L76.6958 43.4785L75.1752 43.4785L73.6539 43.4785L73.6539 44.9995Z" fill="white"/>
<path d="M82.78 84.5441L82.78 86.0654L84.3007 86.0654L85.8219 86.0654L85.8219 84.5441L85.8219 83.0234L84.3007 83.0234L82.78 83.0234L82.78 84.5441Z" fill="white"/>
<path d="M82.7803 14.5786L82.7803 25.2256L93.4272 25.2256L104.074 25.2256L104.074 14.5786L104.074 3.93164L93.4272 3.93164L82.7803 3.93164L82.7803 14.5786ZM101.032 14.5786L101.032 22.1836L93.4272 22.1836L85.8222 22.1836L85.8222 14.5786L85.8222 6.97365L93.4272 6.97365L101.032 6.97365L101.032 14.5786Z" fill="white"/>
<path d="M88.8638 14.5787L88.8638 19.1416L93.4269 19.1416L97.9895 19.1416L97.9895 14.5787L97.9895 10.0156L93.4269 10.0156L88.8638 10.0156L88.8638 14.5787Z" fill="white"/>
<path d="M28.0242 8.49562L28.0242 10.0166L29.5451 10.0166L31.0661 10.0166L31.0661 8.49562L31.0661 6.97461L29.5451 6.97461L28.0242 6.97461L28.0242 8.49562Z" fill="white"/>
<path d="M88.8638 48.0405L88.8638 49.5616L90.385 49.5616L91.9057 49.5616L91.9057 48.0405L91.9057 46.5195L90.385 46.5195L88.8638 46.5195L88.8638 48.0405Z" fill="white"/>
<path d="M34.1084 60.2087L34.1084 61.7294L32.5874 61.7294L31.0664 61.7294L31.0664 64.7713L31.0664 67.8133L34.1084 67.8133L37.1504 67.8133L37.1504 66.2926L37.1504 64.7713L35.6294 64.7713L34.1084 64.7713L34.1084 63.2506L34.1084 61.7294L35.6294 61.7294L37.1504 61.7294L37.1504 60.2087L37.1504 58.6875L35.6294 58.6875L34.1084 58.6875L34.1084 60.2087Z" fill="white"/>
<path d="M9.77246 73.8993L9.77246 76.9413L11.2935 76.9413L12.8144 76.9413L12.8144 78.4625L12.8144 79.9832L14.3354 79.9832L15.8565 79.9832L15.8565 78.4625L15.8565 76.9413L17.3774 76.9413L18.8984 76.9413L18.8984 75.42L18.8984 73.8993L17.3774 73.8993L15.8565 73.8993L15.8565 75.42L15.8565 76.9413L14.3354 76.9413L12.8144 76.9413L12.8144 73.8993L12.8144 70.8574L11.2935 70.8574L9.77246 70.8574L9.77246 73.8993Z" fill="white"/>
<path d="M3.68823 93.6704L3.68823 104.317L14.3352 104.317L24.9822 104.317L24.9822 93.6704L24.9822 83.0234L14.3352 83.0234L3.68823 83.0234L3.68823 93.6704ZM21.9402 93.6704L21.9402 101.275L14.3352 101.275L6.73024 101.275L6.73024 93.6704L6.73024 86.0654L14.3352 86.0654L21.9402 86.0654L21.9402 93.6704Z" fill="white"/>
<path d="M9.77222 93.6706L9.77222 98.2337L14.3352 98.2337L18.8982 98.2337L18.8982 93.6706L18.8982 89.1074L14.3352 89.1074L9.77222 89.1074L9.77222 93.6706Z" fill="white"/>
<path d="M28.024 96.7125L28.024 104.318L29.545 104.318L31.066 104.318L31.066 96.7125L31.066 89.1074L29.545 89.1074L28.024 89.1074L28.024 96.7125Z" fill="white"/>
</g>
<defs>
<clipPath id="clip0_2427_3874">
<rect width="106.464" height="106.471" fill="white" transform="translate(0.646362 0.890625)"/>
</clipPath>
</defs>
</svg>
