<svg width="146" height="198" viewBox="0 0 146 198" fill="none" xmlns="http://www.w3.org/2000/svg">
<path d="M145.122 191.09L145.122 148.088L139.348 143.985L145.122 139.883L145.122 7.62458C145.122 3.89904 139.467 0.878906 132.492 0.878906L13.2645 0.878901C6.28941 0.8789 0.635025 3.89903 0.635025 7.62457L0.635019 139.884L6.40846 143.986L0.635019 148.089L0.635017 191.091C0.635017 194.817 6.28941 197.837 13.2645 197.837L132.492 197.837C139.467 197.836 145.122 194.816 145.122 191.09Z" fill="#3830C9"/>
<mask id="mask0_2427_3844" style="mask-type:alpha" maskUnits="userSpaceOnUse" x="0" y="0" width="146" height="198">
<path d="M145.122 191.09L145.122 148.088L139.348 143.985L145.122 139.883L145.122 7.62458C145.122 3.89904 139.467 0.878906 132.492 0.878906L13.2645 0.878901C6.28941 0.8789 0.635025 3.89903 0.635025 7.62457L0.635019 139.884L6.40846 143.986L0.635019 148.089L0.635017 191.091C0.635017 194.817 6.28941 197.837 13.2645 197.837L132.492 197.837C139.467 197.836 145.122 194.816 145.122 191.09Z" fill="#22E393"/>
</mask>
<g mask="url(#mask0_2427_3844)">
<path d="M104.239 254.604L104.239 254.604C106.324 255.259 108.533 255.419 110.691 255.072C116.764 253.987 121.811 249.056 122.816 243.107C123.906 236.53 120.984 230.316 115.309 227.255C112.88 225.949 110.442 224.666 108.002 223.382C106.522 222.604 105.041 221.825 103.562 221.04C100.704 219.526 97.841 218.024 94.9785 216.522C88.0537 212.889 81.1319 209.257 74.294 205.454L74.4788 205.122L74.294 205.454C58.3797 196.601 53.7703 180.138 56.0572 166.783L56.0572 166.783C59.2878 147.968 77.293 132.489 98.8831 135.641C111.397 137.463 120.727 144.152 126.89 155.132M104.239 254.604L126.558 155.318M104.239 254.604L104.226 254.6C102.912 254.237 101.637 253.746 100.418 253.136C97.349 251.583 94.2698 250.056 91.1918 248.529C83.9474 244.935 76.7089 241.345 69.6201 237.437C63.7825 234.199 57.9843 230.925 52.7136 226.846L52.7135 226.846C38.5524 215.896 29.9443 201.601 26.8794 183.943L26.8791 183.941C26.4612 181.592 26.2043 179.217 26.1102 176.833L26.1102 169.098C26.9589 154.775 32.338 141.094 41.4698 130.032C50.6041 118.967 63.0194 111.097 76.9197 107.56C113.865 98.1645 150.462 120.934 158.947 157.661L158.947 157.661C162.1 171.285 161.002 184.677 155.846 197.71L155.844 197.714C154.243 201.923 151.746 205.733 148.527 208.879C144.888 212.378 140.511 213.809 135.521 213.633C134.333 213.526 133.164 213.255 132.05 212.828L132.042 212.825L132.034 212.822C128.456 211.624 124.99 210.116 121.674 208.315L121.669 208.312C117.558 206.157 113.453 203.985 109.348 201.814L109.341 201.81C105.238 199.64 101.135 197.469 97.0249 195.314C95.8487 194.694 94.669 194.097 93.4924 193.501C91.1513 192.316 88.8229 191.137 86.5615 189.801L86.5614 189.801C81.4083 186.76 78.4565 180.835 79.2145 175.154C80.0738 168.789 84.2016 163.976 90.2429 162.322L90.2486 162.32C92.1052 161.78 94.0518 161.623 95.9711 161.856C97.8903 162.09 99.7422 162.711 101.415 163.681L101.418 163.682C105.222 165.839 109.093 167.881 112.957 169.919C115.276 171.143 117.593 172.365 119.892 173.61C120.879 174.148 121.859 174.673 122.837 175.198C123.966 175.802 125.093 176.406 126.224 177.027C126.704 177.329 127.25 177.51 127.814 177.556C128.384 177.602 128.955 177.509 129.48 177.285L129.486 177.282C130.198 176.965 130.691 176.501 131.002 175.916C131.308 175.339 131.423 174.669 131.433 173.958M104.239 254.604L131.053 173.952M126.89 155.132L126.558 155.318M126.89 155.132C126.89 155.132 126.89 155.132 126.89 155.132L126.558 155.318M126.89 155.132C130.162 160.96 131.543 167.293 131.433 173.958M126.558 155.318C129.793 161.08 131.161 167.346 131.053 173.952M131.433 173.958C131.433 173.957 131.433 173.957 131.433 173.957L131.053 173.952M131.433 173.958C131.433 173.958 131.433 173.958 131.433 173.958L131.053 173.952" stroke="white" stroke-opacity="0.1" stroke-width="0.760456"/>
<path d="M107.776 -4.1151L107.776 -4.11513C107.478 -6.13622 106.714 -8.06038 105.544 -9.73529C102.159 -14.4071 95.9582 -16.6501 90.5494 -15.0781C84.5762 -13.3211 80.5414 -8.33517 80.279 -2.31356C80.1689 0.266371 80.0831 2.84492 79.9973 5.42583C79.9452 6.99024 79.8932 8.55552 79.8357 10.1225C79.7256 13.149 79.6281 16.1748 79.5307 19.2002C79.295 26.5192 79.0593 33.8353 78.6452 41.1502L78.2655 41.1288L78.6452 41.1503C77.6785 58.1876 65.6849 68.7871 53.4977 72.3003L53.4976 72.3003C36.3236 77.2426 15.9315 68.3587 9.77696 48.8567C6.20591 37.5551 8.03599 26.9564 14.7731 17.2821C18.3498 12.1453 23.1241 8.39856 28.7844 5.77517C28.7846 5.77511 28.7847 5.77505 28.7848 5.77498L28.9447 6.11996C30.0937 5.58312 31.1552 5.50819 32.1592 6.35675L107.776 -4.1151ZM107.776 -4.1151L107.778 -4.10213C108.008 -2.84781 108.115 -1.57417 108.098 -0.299236C108.042 2.92137 108.011 6.13999 107.981 9.35739C107.909 16.9297 107.837 24.4952 107.437 32.0639C107.09 38.305 106.698 44.5256 105.413 50.6288L105.413 50.6289C101.968 67.0237 93.4425 80.0993 79.8268 89.8718L79.8255 89.8728C78.0185 91.1812 76.1241 92.3646 74.1556 93.4145L67.6436 96.5639C55.2408 101.679 41.5309 102.716 28.4963 99.5222C15.4581 96.3279 3.77157 89.0673 -4.8725 78.7909C-27.8425 51.475 -23.5932 11.3571 3.86569 -10.7469L3.86583 -10.747C14.0491 -18.952 25.7697 -23.4781 38.8429 -24.4384L38.8479 -24.4388C43.0416 -24.8024 47.2645 -24.2492 51.2241 -22.8174C55.6469 -21.1769 58.6327 -18.0738 60.5171 -13.8003C60.9108 -12.7566 61.1585 -11.6635 61.2532 -10.5521L61.2539 -10.544L61.2549 -10.5359C61.705 -7.03233 61.8486 -3.49632 61.6839 0.0318886L61.6837 0.0374891C61.545 4.3819 61.3902 8.72716 61.2354 13.0732C61.0806 17.4191 60.9257 21.7658 60.787 26.1118C60.7447 27.3568 60.7228 28.5952 60.701 29.8301C60.6575 32.2865 60.6144 34.7285 60.4115 37.1787L60.4115 37.179C59.953 42.7533 56.1732 47.6467 51.0899 49.3181C45.3884 51.1828 39.6618 49.6653 35.8119 45.2522L35.8078 45.2477C34.5982 43.9045 33.6731 42.3301 33.0883 40.6196C32.5036 38.9091 32.2714 37.098 32.4057 35.2956L32.4059 35.2919C32.671 31.206 32.812 27.1099 32.9528 23.0212C33.0373 20.5669 33.1217 18.1153 33.2327 15.6701C33.2328 15.6699 33.2328 15.6698 33.2328 15.6697L32.8529 15.6524L107.776 -4.1151Z" stroke="white" stroke-opacity="0.1" stroke-width="0.760456"/>
<path d="M100.208 144.223C100.208 144.433 100.53 144.604 100.928 144.604L102.366 144.604C102.763 144.604 103.085 144.433 103.085 144.223C103.085 144.013 102.763 143.843 102.366 143.843L100.928 143.843C100.53 143.843 100.208 144.013 100.208 144.223Z" fill="white"/>
<path d="M107.399 144.223C107.399 144.433 107.721 144.604 108.118 144.604L109.556 144.604C109.954 144.604 110.275 144.433 110.275 144.223C110.275 144.013 109.954 143.843 109.556 143.843L108.118 143.843C107.721 143.843 107.399 144.013 107.399 144.223Z" fill="white"/>
<path d="M114.593 144.223C114.593 144.433 114.915 144.604 115.312 144.604L116.75 144.604C117.148 144.604 117.469 144.433 117.469 144.223C117.469 144.013 117.148 143.843 116.75 143.843L115.312 143.843C114.915 143.843 114.593 144.013 114.593 144.223Z" fill="white"/>
<path d="M93.0183 144.223C93.0183 144.433 93.3401 144.604 93.7374 144.604L95.1758 144.604C95.5731 144.604 95.8949 144.433 95.8949 144.223C95.8949 144.013 95.5731 143.843 95.1758 143.843L93.7374 143.843C93.3401 143.843 93.0183 144.013 93.0183 144.223Z" fill="white"/>
<path d="M85.8239 144.223C85.8239 144.433 86.1457 144.604 86.543 144.604L87.9813 144.604C88.3786 144.604 88.7004 144.433 88.7004 144.223C88.7004 144.013 88.3786 143.843 87.9813 143.843L86.543 143.843C86.1457 143.843 85.8239 144.013 85.8239 144.223Z" fill="white"/>
<path d="M121.783 144.223C121.783 144.433 122.105 144.604 122.502 144.604L123.941 144.604C124.338 144.604 124.66 144.433 124.66 144.223C124.66 144.013 124.338 143.843 123.941 143.843L122.502 143.843C122.105 143.843 121.783 144.013 121.783 144.223Z" fill="white"/>
<path d="M136.162 144.223C136.162 144.433 136.483 144.604 136.881 144.604L138.319 144.604C138.716 144.604 139.038 144.433 139.038 144.223C139.038 144.013 138.716 143.843 138.319 143.843L136.881 143.843C136.483 143.843 136.162 144.013 136.162 144.223Z" fill="white"/>
<path d="M128.974 144.223C128.974 144.433 129.296 144.604 129.693 144.604L131.132 144.604C131.529 144.604 131.851 144.433 131.851 144.223C131.851 144.013 131.529 143.843 131.132 143.843L129.693 143.843C129.296 143.843 128.974 144.013 128.974 144.223Z" fill="white"/>
<path d="M78.6323 144.223C78.6323 144.433 78.9541 144.604 79.3515 144.604L80.7898 144.604C81.1871 144.604 81.5089 144.433 81.5089 144.223C81.5089 144.013 81.1871 143.843 80.7898 143.843L79.3515 143.843C78.9541 143.843 78.6323 144.013 78.6323 144.223Z" fill="white"/>
<path d="M21.1053 144.223C21.1053 144.433 21.4272 144.604 21.8245 144.604L23.2628 144.604C23.6601 144.604 23.9819 144.433 23.9819 144.223C23.9819 144.013 23.6601 143.843 23.2628 143.843L21.8245 143.843C21.4272 143.843 21.1053 144.013 21.1053 144.223Z" fill="white"/>
<path d="M13.9069 144.223C13.9069 144.433 14.2287 144.604 14.626 144.604L16.0643 144.604C16.4616 144.604 16.7835 144.433 16.7835 144.223C16.7835 144.013 16.4616 143.843 16.0643 143.843L14.626 143.843C14.2287 143.843 13.9069 144.013 13.9069 144.223Z" fill="white"/>
<path d="M6.71863 144.223C6.71863 144.433 7.04043 144.604 7.43776 144.604L8.87609 144.604C9.27341 144.604 9.59522 144.433 9.59522 144.223C9.59522 144.013 9.27341 143.843 8.87609 143.843L7.43776 143.843C7.04043 143.843 6.71863 144.013 6.71863 144.223Z" fill="white"/>
<path d="M28.2932 144.223C28.2932 144.433 28.615 144.604 29.0123 144.604L30.4507 144.604C30.848 144.604 31.1698 144.433 31.1698 144.223C31.1698 144.013 30.848 143.843 30.4507 143.843L29.0123 143.843C28.615 143.843 28.2932 144.013 28.2932 144.223Z" fill="white"/>
<path d="M71.4424 144.223C71.4424 144.433 71.7642 144.604 72.1615 144.604L73.5998 144.604C73.9972 144.604 74.319 144.433 74.319 144.223C74.319 144.013 73.9972 143.843 73.5998 143.843L72.1615 143.843C71.7642 143.843 71.4424 144.013 71.4424 144.223Z" fill="white"/>
<path d="M57.0563 144.223C57.0563 144.433 57.3781 144.604 57.7754 144.604L59.2137 144.604C59.6111 144.604 59.9329 144.433 59.9329 144.223C59.9329 144.013 59.6111 143.843 59.2137 143.843L57.7754 143.843C57.3781 143.843 57.0563 144.013 57.0563 144.223Z" fill="white"/>
<path d="M64.2489 144.223C64.2489 144.433 64.5707 144.604 64.968 144.604L66.4064 144.604C66.8037 144.604 67.1255 144.433 67.1255 144.223C67.1255 144.013 66.8037 143.843 66.4064 143.843L64.968 143.843C64.5707 143.843 64.2489 144.013 64.2489 144.223Z" fill="white"/>
<path d="M42.6796 144.223C42.6796 144.433 43.0014 144.604 43.3987 144.604L44.837 144.604C45.2344 144.604 45.5562 144.433 45.5562 144.223C45.5562 144.013 45.2344 143.843 44.837 143.843L43.3987 143.843C43.0014 143.843 42.6796 144.013 42.6796 144.223Z" fill="white"/>
<path d="M49.8685 144.223C49.8685 144.433 50.1903 144.604 50.5877 144.604L52.026 144.604C52.4233 144.604 52.7451 144.433 52.7451 144.223C52.7451 144.013 52.4233 143.843 52.026 143.843L50.5877 143.843C50.1903 143.843 49.8685 144.013 49.8685 144.223Z" fill="white"/>
<path d="M35.4814 144.223C35.4814 144.433 35.8033 144.604 36.2006 144.604L37.6389 144.604C38.0362 144.604 38.358 144.433 38.358 144.223C38.358 144.013 38.0362 143.843 37.6389 143.843L36.2006 143.843C35.8033 143.843 35.4814 144.013 35.4814 144.223Z" fill="white"/>
</g>
</svg>
