<svg width="145" height="198" viewBox="0 0 145 198" fill="none" xmlns="http://www.w3.org/2000/svg">
<path d="M144.947 191.09L144.947 148.088L139.173 143.985L144.947 139.883L144.947 7.62458C144.947 3.89904 139.292 0.878906 132.317 0.878906L13.0896 0.878901C6.11449 0.8789 0.460098 3.89903 0.460098 7.62457L0.460092 139.884L6.23353 143.986L0.460092 148.089L0.46009 191.091C0.46009 194.817 6.11448 197.837 13.0896 197.837L132.317 197.837C139.292 197.836 144.947 194.816 144.947 191.09Z" fill="#22E393"/>
<mask id="mask0_2427_3794" style="mask-type:alpha" maskUnits="userSpaceOnUse" x="0" y="0" width="145" height="198">
<path d="M144.947 191.09L144.947 148.088L139.173 143.985L144.947 139.883L144.947 7.62458C144.947 3.89904 139.292 0.878906 132.317 0.878906L13.0896 0.878901C6.11449 0.8789 0.460098 3.89903 0.460098 7.62457L0.460092 139.884L6.23353 143.986L0.460092 148.089L0.46009 191.091C0.46009 194.817 6.11448 197.837 13.0896 197.837L132.317 197.837C139.292 197.836 144.947 194.816 144.947 191.09Z" fill="#22E393"/>
</mask>
<g mask="url(#mask0_2427_3794)">
<path d="M104.064 254.604L104.064 254.604C106.149 255.259 108.358 255.419 110.516 255.072C116.589 253.987 121.636 249.056 122.641 243.107C123.731 236.53 120.809 230.316 115.134 227.255C112.706 225.949 110.267 224.666 107.827 223.382C106.347 222.604 104.867 221.825 103.387 221.04C100.529 219.526 97.6661 218.024 94.8036 216.522C87.8787 212.889 80.957 209.257 74.1191 205.454L74.3039 205.122L74.1191 205.454C58.2048 196.601 53.5953 180.138 55.8822 166.783L55.8823 166.783C59.1129 147.968 77.1181 132.489 98.7082 135.641C111.223 137.463 120.552 144.152 126.715 155.132M104.064 254.604L126.383 155.318M104.064 254.604L104.051 254.6C102.738 254.237 101.462 253.746 100.243 253.136C97.1741 251.583 94.0949 250.056 91.0168 248.529C83.7725 244.935 76.534 241.345 69.4452 237.437C63.6076 234.199 57.8094 230.925 52.5387 226.846L52.5386 226.846C38.3774 215.896 29.7693 201.601 26.7045 183.943L26.7042 183.941C26.2863 181.592 26.0294 179.217 25.9353 176.833L25.9353 169.098C26.784 154.775 32.1631 141.094 41.2949 130.032C50.4292 118.967 62.8445 111.097 76.7447 107.56C113.69 98.1645 150.287 120.934 158.772 157.661L158.772 157.661C161.925 171.285 160.827 184.677 155.671 197.71L155.669 197.714C154.068 201.923 151.571 205.733 148.352 208.879C144.713 212.378 140.336 213.809 135.346 213.633C134.158 213.526 132.989 213.255 131.875 212.828L131.867 212.825L131.859 212.822C128.281 211.624 124.815 210.116 121.499 208.315L121.494 208.312C117.383 206.157 113.278 203.985 109.173 201.814L109.166 201.81C105.063 199.64 100.96 197.469 96.8499 195.314C95.6738 194.694 94.494 194.097 93.3175 193.501C90.9763 192.316 88.6479 191.137 86.3866 189.801L86.3864 189.801C81.2334 186.76 78.2816 180.835 79.0395 175.154C79.8989 168.789 84.0266 163.976 90.0679 162.322L90.0737 162.32C91.9303 161.78 93.8769 161.623 95.7961 161.856C97.7153 162.09 99.5673 162.711 101.24 163.681L101.243 163.682C105.047 165.839 108.918 167.881 112.782 169.919C115.101 171.143 117.418 172.365 119.717 173.61C120.704 174.148 121.684 174.673 122.662 175.198C123.791 175.802 124.918 176.406 126.049 177.027C126.529 177.329 127.075 177.51 127.64 177.556C128.209 177.602 128.78 177.509 129.305 177.285L129.311 177.282C130.023 176.965 130.516 176.501 130.827 175.916C131.133 175.339 131.248 174.669 131.258 173.958M104.064 254.604L130.878 173.952M126.715 155.132L126.383 155.318M126.715 155.132C126.715 155.132 126.715 155.132 126.715 155.132L126.383 155.318M126.715 155.132C129.987 160.96 131.368 167.293 131.258 173.958M126.383 155.318C129.618 161.08 130.987 167.346 130.878 173.952M131.258 173.958C131.258 173.957 131.258 173.957 131.258 173.957L130.878 173.952M131.258 173.958C131.258 173.958 131.258 173.958 131.258 173.958L130.878 173.952" stroke="white" stroke-opacity="0.3" stroke-width="0.760456"/>
<path d="M107.601 -4.1151L107.601 -4.11513C107.303 -6.13622 106.539 -8.06038 105.369 -9.73529C101.984 -14.4071 95.7833 -16.6501 90.3745 -15.0781C84.4013 -13.3211 80.3665 -8.33517 80.1041 -2.31356C79.994 0.266371 79.9082 2.84492 79.8224 5.42583C79.7703 6.99024 79.7183 8.55552 79.6607 10.1225C79.5506 13.149 79.4532 16.1748 79.3558 19.2002C79.12 26.5192 78.8844 33.8353 78.4702 41.1502L78.0906 41.1288L78.4702 41.1503C77.5036 58.1876 65.51 68.7871 53.3228 72.3003L53.3226 72.3003C36.1486 77.2426 15.7566 68.3587 9.60204 48.8567C6.03098 37.5551 7.86106 26.9564 14.5982 17.2821C18.1749 12.1453 22.9491 8.39856 28.6095 5.77517C28.6096 5.77511 28.6098 5.77505 28.6099 5.77498L28.7698 6.11996C29.9188 5.58312 30.9803 5.50819 31.9843 6.35675L107.601 -4.1151ZM107.601 -4.1151L107.603 -4.10213C107.833 -2.84781 107.94 -1.57417 107.923 -0.299236C107.867 2.92137 107.836 6.13999 107.806 9.35739C107.734 16.9297 107.662 24.4952 107.262 32.0639C106.916 38.305 106.523 44.5256 105.238 50.6288L105.238 50.6289C101.793 67.0237 93.2675 80.0993 79.6519 89.8718L79.6506 89.8728C77.8436 91.1812 75.9492 92.3646 73.9807 93.4145L67.4686 96.5639C55.0658 101.679 41.356 102.716 28.3214 99.5222C15.2832 96.3279 3.59664 89.0673 -5.04742 78.7909C-28.0174 51.475 -23.7681 11.3571 3.69076 -10.7469L3.6909 -10.747C13.8742 -18.952 25.5948 -23.4781 38.668 -24.4384L38.673 -24.4388C42.8666 -24.8024 47.0896 -24.2492 51.0491 -22.8174C55.472 -21.1769 58.4578 -18.0738 60.3422 -13.8003C60.7359 -12.7566 60.9836 -11.6635 61.0782 -10.5521L61.0789 -10.544L61.08 -10.5359C61.5301 -7.03233 61.6736 -3.49632 61.5089 0.0318886L61.5088 0.0374891C61.3701 4.3819 61.2153 8.72716 61.0605 13.0732C60.9057 17.4191 60.7508 21.7658 60.6121 26.1118C60.5698 27.3568 60.5479 28.5952 60.5261 29.8301C60.4826 32.2865 60.4394 34.7285 60.2366 37.1787L60.2366 37.179C59.7781 42.7533 55.9982 47.6467 50.915 49.3181C45.2135 51.1828 39.4869 49.6653 35.6369 45.2522L35.6329 45.2477C34.4233 43.9045 33.4982 42.3301 32.9134 40.6196C32.3287 38.9091 32.0964 37.098 32.2307 35.2956L32.231 35.2919C32.4961 31.206 32.6371 27.1099 32.7778 23.0212C32.8623 20.5669 32.9467 18.1153 33.0578 15.6701C33.0578 15.6699 33.0578 15.6698 33.0578 15.6697L32.678 15.6524L107.601 -4.1151Z" stroke="white" stroke-opacity="0.3" stroke-width="0.760456"/>
<path d="M100.033 144.223C100.033 144.433 100.355 144.604 100.752 144.604L102.191 144.604C102.588 144.604 102.91 144.433 102.91 144.223C102.91 144.013 102.588 143.843 102.191 143.843L100.752 143.843C100.355 143.843 100.033 144.013 100.033 144.223Z" fill="#0D0D0D"/>
<path d="M107.224 144.223C107.224 144.433 107.546 144.604 107.943 144.604L109.381 144.604C109.779 144.604 110.1 144.433 110.1 144.223C110.1 144.013 109.779 143.843 109.381 143.843L107.943 143.843C107.546 143.843 107.224 144.013 107.224 144.223Z" fill="#0D0D0D"/>
<path d="M114.418 144.223C114.418 144.433 114.74 144.604 115.137 144.604L116.575 144.604C116.973 144.604 117.294 144.433 117.294 144.223C117.294 144.013 116.973 143.843 116.575 143.843L115.137 143.843C114.74 143.843 114.418 144.013 114.418 144.223Z" fill="#0D0D0D"/>
<path d="M92.8433 144.223C92.8433 144.433 93.1651 144.604 93.5624 144.604L95.0007 144.604C95.398 144.604 95.7199 144.433 95.7199 144.223C95.7199 144.013 95.398 143.843 95.0007 143.843L93.5624 143.843C93.1651 143.843 92.8433 144.013 92.8433 144.223Z" fill="#0D0D0D"/>
<path d="M85.6488 144.223C85.6488 144.433 85.9706 144.604 86.3679 144.604L87.8063 144.604C88.2036 144.604 88.5254 144.433 88.5254 144.223C88.5254 144.013 88.2036 143.843 87.8063 143.843L86.3679 143.843C85.9706 143.843 85.6488 144.013 85.6488 144.223Z" fill="#0D0D0D"/>
<path d="M121.608 144.223C121.608 144.433 121.93 144.604 122.327 144.604L123.766 144.604C124.163 144.604 124.485 144.433 124.485 144.223C124.485 144.013 124.163 143.843 123.766 143.843L122.327 143.843C121.93 143.843 121.608 144.013 121.608 144.223Z" fill="#0D0D0D"/>
<path d="M135.987 144.223C135.987 144.433 136.308 144.604 136.706 144.604L138.144 144.604C138.541 144.604 138.863 144.433 138.863 144.223C138.863 144.013 138.541 143.843 138.144 143.843L136.706 143.843C136.308 143.843 135.987 144.013 135.987 144.223Z" fill="#0D0D0D"/>
<path d="M128.799 144.223C128.799 144.433 129.121 144.604 129.518 144.604L130.957 144.604C131.354 144.604 131.676 144.433 131.676 144.223C131.676 144.013 131.354 143.843 130.957 143.843L129.518 143.843C129.121 143.843 128.799 144.013 128.799 144.223Z" fill="#0D0D0D"/>
<path d="M78.4573 144.223C78.4573 144.433 78.7791 144.604 79.1764 144.604L80.6147 144.604C81.0121 144.604 81.3339 144.433 81.3339 144.223C81.3339 144.013 81.0121 143.843 80.6147 143.843L79.1764 143.843C78.7791 143.843 78.4573 144.013 78.4573 144.223Z" fill="#0D0D0D"/>
<path d="M20.9303 144.223C20.9303 144.433 21.2521 144.604 21.6494 144.604L23.0878 144.604C23.4851 144.604 23.8069 144.433 23.8069 144.223C23.8069 144.013 23.4851 143.843 23.0878 143.843L21.6494 143.843C21.2521 143.843 20.9303 144.013 20.9303 144.223Z" fill="#0D0D0D"/>
<path d="M13.7318 144.223C13.7318 144.433 14.0536 144.604 14.4509 144.604L15.8893 144.604C16.2866 144.604 16.6084 144.433 16.6084 144.223C16.6084 144.013 16.2866 143.843 15.8893 143.843L14.4509 143.843C14.0536 143.843 13.7318 144.013 13.7318 144.223Z" fill="#0D0D0D"/>
<path d="M6.54358 144.223C6.54358 144.433 6.86539 144.604 7.26271 144.604L8.70104 144.604C9.09836 144.604 9.42017 144.433 9.42017 144.223C9.42017 144.013 9.09836 143.843 8.70104 143.843L7.26271 143.843C6.86539 143.843 6.54358 144.013 6.54358 144.223Z" fill="#0D0D0D"/>
<path d="M28.1182 144.223C28.1182 144.433 28.44 144.604 28.8373 144.604L30.2756 144.604C30.6729 144.604 30.9948 144.433 30.9948 144.223C30.9948 144.013 30.6729 143.843 30.2756 143.843L28.8373 143.843C28.44 143.843 28.1182 144.013 28.1182 144.223Z" fill="#0D0D0D"/>
<path d="M71.2673 144.223C71.2673 144.433 71.5891 144.604 71.9865 144.604L73.4248 144.604C73.8221 144.604 74.1439 144.433 74.1439 144.223C74.1439 144.013 73.8221 143.843 73.4248 143.843L71.9865 143.843C71.5891 143.843 71.2673 144.013 71.2673 144.223Z" fill="#0D0D0D"/>
<path d="M56.8813 144.223C56.8813 144.433 57.2032 144.604 57.6005 144.604L59.0388 144.604C59.4361 144.604 59.7579 144.433 59.7579 144.223C59.7579 144.013 59.4361 143.843 59.0388 143.843L57.6005 143.843C57.2032 143.843 56.8813 144.013 56.8813 144.223Z" fill="#0D0D0D"/>
<path d="M64.074 144.223C64.074 144.433 64.3958 144.604 64.7931 144.604L66.2314 144.604C66.6288 144.604 66.9506 144.433 66.9506 144.223C66.9506 144.013 66.6288 143.843 66.2314 143.843L64.7931 143.843C64.3958 143.843 64.074 144.013 64.074 144.223Z" fill="#0D0D0D"/>
<path d="M42.5045 144.223C42.5045 144.433 42.8263 144.604 43.2237 144.604L44.662 144.604C45.0593 144.604 45.3811 144.433 45.3811 144.223C45.3811 144.013 45.0593 143.843 44.662 143.843L43.2237 143.843C42.8263 143.843 42.5045 144.013 42.5045 144.223Z" fill="#0D0D0D"/>
<path d="M49.6935 144.223C49.6935 144.433 50.0153 144.604 50.4126 144.604L51.8509 144.604C52.2483 144.604 52.5701 144.433 52.5701 144.223C52.5701 144.013 52.2483 143.843 51.8509 143.843L50.4126 143.843C50.0153 143.843 49.6935 144.013 49.6935 144.223Z" fill="#0D0D0D"/>
<path d="M35.3064 144.223C35.3064 144.433 35.6282 144.604 36.0255 144.604L37.4639 144.604C37.8612 144.604 38.183 144.433 38.183 144.223C38.183 144.013 37.8612 143.843 37.4639 143.843L36.0255 143.843C35.6282 143.843 35.3064 144.013 35.3064 144.223Z" fill="#0D0D0D"/>
</g>
</svg>
