<svg width="81" height="81" viewBox="0 0 81 81" fill="none" xmlns="http://www.w3.org/2000/svg">
<path d="M2.63489 10.4344L2.63489 18.4196L10.6201 18.4196L18.6053 18.4196L18.6053 10.4344L18.6053 2.44922L10.6201 2.44922L2.63489 2.44922L2.63489 10.4344ZM16.3239 10.4344L16.3239 16.1381L10.6201 16.1381L4.91639 16.1381L4.91639 10.4344L4.91639 4.73071L10.6201 4.73071L16.3239 4.73071L16.3239 10.4344Z" fill="#0D0D0D"/>
<path d="M7.19812 10.434L7.19812 13.8562L10.6204 13.8562L14.0426 13.8562L14.0426 10.434L14.0426 7.01172L10.6204 7.01172L7.19812 7.01172L7.19812 10.434Z" fill="#0D0D0D"/>
<path d="M25.45 4.73069L25.45 7.01219L26.5907 7.01219L27.7315 7.01219L27.7315 4.73069L27.7315 2.44922L26.5907 2.44922L25.45 2.44922L25.45 4.73069Z" fill="#0D0D0D"/>
<path d="M30.0128 3.58996L30.0128 4.7307L31.1536 4.7307L32.2943 4.7307L32.2943 5.87145L32.2943 7.01217L31.1536 7.01217L30.0128 7.01217L30.0128 9.29367L30.0128 11.5751L32.2943 11.5751L34.5758 11.5751L34.5758 12.7159L34.5758 13.8566L31.1536 13.8566L27.7313 13.8566L27.7313 14.9973L27.7313 16.1381L26.5906 16.1381L25.4499 16.1381L25.4499 13.8566L25.4499 11.5751L26.5906 11.5751L27.7313 11.5751L27.7313 10.4344L27.7313 9.29367L24.3091 9.29367L20.8869 9.29367L20.8869 10.4344L20.8869 11.5751L22.0276 11.5751L23.1683 11.5751L23.1683 12.7159L23.1683 13.8566L22.0276 13.8566L20.8869 13.8566L20.8869 16.1381L20.8869 18.4196L22.0276 18.4196L23.1683 18.4196L23.1683 19.5603L23.1683 20.7011L19.7461 20.7011L16.3239 20.7011L16.3239 21.8418L16.3239 22.9825L20.8869 22.9825L25.4499 22.9825L25.4499 25.264L25.4499 27.5455L26.5906 27.5455L27.7313 27.5455L27.7313 25.264L27.7313 22.9825L28.8721 22.9825L30.0128 22.9825L30.0128 24.1233L30.0128 25.264L31.1536 25.264L32.2943 25.264L32.2943 24.1233L32.2943 22.9825L33.4351 22.9825L34.5758 22.9825L34.5758 26.4047L34.5758 29.827L33.4351 29.827L32.2943 29.827L32.2943 28.6862L32.2943 27.5455L31.1536 27.5455L30.0128 27.5455L30.0128 29.827L30.0128 32.1085L32.2943 32.1085L34.5758 32.1085L34.5758 33.2492L34.5758 34.3899L35.7166 34.3899L36.8573 34.3899L36.8573 36.6714L36.8573 38.9529L34.5758 38.9529L32.2943 38.9529L32.2943 40.0936L32.2943 41.2345L31.1536 41.2345L30.0128 41.2345L30.0128 38.9529L30.0128 36.6714L31.1536 36.6714L32.2943 36.6714L32.2943 35.5307L32.2943 34.3899L28.8721 34.3899L25.4499 34.3899L25.4499 33.2492L25.4499 32.1085L26.5906 32.1085L27.7313 32.1085L27.7313 30.9677L27.7313 29.827L25.4499 29.827L23.1683 29.827L23.1683 33.2492L23.1683 36.6714L22.0276 36.6714L20.8869 36.6714L20.8869 35.5307L20.8869 34.3899L18.6053 34.3899L16.3239 34.3899L16.3239 33.2492L16.3239 32.1085L18.6053 32.1085L20.8869 32.1085L20.8869 30.9677L20.8869 29.827L14.0423 29.827L7.19787 29.827L7.19787 26.4047L7.19787 22.9825L8.33863 22.9825L9.47939 22.9825L9.47939 24.1233L9.47939 25.264L10.6201 25.264L11.7609 25.264L11.7609 26.4047L11.7609 27.5455L17.4646 27.5455L23.1683 27.5455L23.1683 26.4047L23.1683 25.264L18.6053 25.264L14.0423 25.264L14.0423 22.9825L14.0423 20.7011L8.33863 20.7011L2.63489 20.7011L2.63489 22.9825L2.63489 25.264L3.77564 25.264L4.91639 25.264L4.91639 27.5455L4.91639 29.827L3.77564 29.827L2.63489 29.827L2.63489 30.9677L2.63489 32.1085L4.91639 32.1085L7.19787 32.1085L7.19787 33.2492L7.19787 34.3899L8.33863 34.3899L9.47939 34.3899L9.47939 35.5307L9.47939 36.6714L7.19787 36.6714L4.91639 36.6714L4.91639 35.5307L4.91639 34.3899L3.77564 34.3899L2.63489 34.3899L2.63489 35.5307L2.63489 36.6714L3.77564 36.6714L4.91639 36.6714L4.91639 37.8122L4.91639 38.9529L3.77564 38.9529L2.63489 38.9529L2.63489 40.0936L2.63489 41.2345L4.91639 41.2345L7.19787 41.2345L7.19787 42.375L7.19787 43.5159L4.91639 43.5159L2.63489 43.5159L2.63489 51.5011L2.63489 59.4863L3.77564 59.4863L4.91639 59.4863L4.91639 54.9234L4.91639 50.3602L6.05711 50.3602L7.19787 50.3602L7.19787 49.2196L7.19787 48.0787L8.33863 48.0787L9.47939 48.0787L9.47939 49.2196L9.47939 50.3602L11.7609 50.3602L14.0423 50.3602L14.0423 49.2196L14.0423 48.0787L11.7609 48.0787L9.47939 48.0787L9.47939 44.6564L9.47939 41.2345L10.6201 41.2345L11.7609 41.2345L11.7609 42.375L11.7609 43.5159L12.9016 43.5159L14.0423 43.5159L14.0423 44.6564L14.0423 45.7973L16.3239 45.7973L18.6053 45.7973L18.6053 46.9382L18.6053 48.0787L17.4646 48.0787L16.3239 48.0787L16.3239 49.2196L16.3239 50.3602L18.6053 50.3602L20.8869 50.3602L20.8869 46.9382L20.8869 43.5159L22.0276 43.5159L23.1683 43.5159L23.1683 42.375L23.1683 41.2345L26.5906 41.2345L30.0128 41.2345L30.0128 42.375L30.0128 43.5159L31.1536 43.5159L32.2943 43.5159L32.2943 42.375L32.2943 41.2345L34.5758 41.2345L36.8573 41.2345L36.8573 40.0936L36.8573 38.9529L39.1388 38.9529L41.4202 38.9529L41.4202 40.0936L41.4202 41.2345L40.2796 41.2345L39.1388 41.2345L39.1388 42.375L39.1388 43.5159L36.8573 43.5159L34.5758 43.5159L34.5758 45.7973L34.5758 48.0787L33.4351 48.0787L32.2943 48.0787L32.2943 46.9382L32.2943 45.7973L31.1536 45.7973L30.0128 45.7973L30.0128 48.0787L30.0128 50.3602L32.2943 50.3602L34.5758 50.3602L34.5758 51.5011L34.5758 52.6416L30.0128 52.6416L25.4499 52.6416L25.4499 53.7825L25.4499 54.9234L24.3091 54.9234L23.1683 54.9234L23.1683 53.7825L23.1683 52.6416L19.7461 52.6416L16.3239 52.6416L16.3239 53.7825L16.3239 54.9234L17.4646 54.9234L18.6053 54.9234L18.6053 56.0639L18.6053 57.2048L17.4646 57.2048L16.3239 57.2048L16.3239 58.3453L16.3239 59.4863L17.4646 59.4863L18.6053 59.4863L18.6053 58.3453L18.6053 57.2048L19.7461 57.2048L20.8869 57.2048L20.8869 60.6268L20.8869 64.0491L23.1683 64.0491L25.4499 64.0491L25.4499 69.7529L25.4499 75.4566L28.8721 75.4566L32.2943 75.4566L32.2943 76.5971L32.2943 77.738L37.9981 77.738L43.702 77.738L43.702 76.5971L43.702 75.4566L42.5611 75.4566L41.4202 75.4566L41.4202 74.3157L41.4202 73.1752L43.702 73.1752L45.9834 73.1752L45.9834 72.0343L45.9834 70.8938L48.2649 70.8938L50.5463 70.8938L50.5463 69.7529L50.5463 68.612L48.2649 68.612L45.9834 68.612L45.9834 69.7529L45.9834 70.8938L43.702 70.8938L41.4202 70.8938L41.4202 69.7529L41.4202 68.612L42.5611 68.612L43.702 68.612L43.702 67.4714L43.702 66.3305L44.8425 66.3305L45.9834 66.3305L45.9834 65.19L45.9834 64.0491L44.8425 64.0491L43.702 64.0491L43.702 62.9086L43.702 61.7677L45.9834 61.7677L48.2649 61.7677L48.2649 64.0491L48.2649 66.3305L52.8277 66.3305L57.3906 66.3305L57.3906 67.4714L57.3906 68.612L56.2501 68.612L55.1092 68.612L55.1092 69.7529L55.1092 70.8938L53.9687 70.8938L52.8277 70.8938L52.8277 72.0343L52.8277 73.1752L50.5463 73.1752L48.2649 73.1752L48.2649 74.3157L48.2649 75.4566L50.5463 75.4566L52.8277 75.4566L52.8277 76.5971L52.8277 77.738L56.2501 77.738L59.6725 77.738L59.6725 76.5971L59.6725 75.4566L60.813 75.4566L61.9539 75.4566L61.9539 76.5971L61.9539 77.738L64.2353 77.738L66.5168 77.738L66.5168 76.5971L66.5168 75.4566L65.3759 75.4566L64.2353 75.4566L64.2353 73.1752L64.2353 70.8938L63.0944 70.8938L61.9539 70.8938L61.9539 72.0343L61.9539 73.1752L60.813 73.1752L59.6725 73.1752L59.6725 72.0343L59.6725 70.8938L58.5315 70.8938L57.3906 70.8938L57.3906 69.7529L57.3906 68.612L61.9539 68.612L66.5168 68.612L66.5168 69.7529L66.5168 70.8938L68.7982 70.8938L71.0796 70.8938L71.0796 72.0343L71.0796 73.1752L69.9391 73.1752L68.7982 73.1752L68.7982 74.3157L68.7982 75.4566L71.0796 75.4566L73.3611 75.4566L73.3611 76.5971L73.3611 77.738L74.502 77.738L75.6429 77.738L75.6429 76.5971L75.6429 75.4566L74.502 75.4566L73.3611 75.4566L73.3611 74.3157L73.3611 73.1752L74.502 73.1752L75.6429 73.1752L75.6429 72.0343L75.6429 70.8938L73.3611 70.8938L71.0796 70.8938L71.0796 69.7529L71.0796 68.612L69.9391 68.612L68.7982 68.612L68.7982 67.4714L68.7982 66.3305L71.0796 66.3305L73.3611 66.3305L73.3611 67.4714L73.3611 68.612L74.502 68.612L75.6429 68.612L75.6429 65.19L75.6429 61.7677L76.7834 61.7677L77.9244 61.7677L77.9244 59.4863L77.9244 57.2048L76.7834 57.2048L75.6429 57.2048L75.6429 59.4863L75.6429 61.7677L74.502 61.7677L73.3611 61.7677L73.3611 60.6268L73.3611 59.4863L72.2206 59.4863L71.0796 59.4863L71.0796 58.3453L71.0796 57.2048L72.2206 57.2048L73.3611 57.2048L73.3611 56.0639L73.3611 54.9234L74.502 54.9234L75.6429 54.9234L75.6429 53.7825L75.6429 52.6416L76.7834 52.6416L77.9244 52.6416L77.9244 51.5011L77.9244 50.3602L76.7834 50.3602L75.6429 50.3602L75.6429 49.2196L75.6429 48.0787L74.502 48.0787L73.3611 48.0787L73.3611 46.9382L73.3611 45.7973L74.502 45.7973L75.6429 45.7973L75.6429 44.6564L75.6429 43.5159L76.7834 43.5159L77.9244 43.5159L77.9244 42.375L77.9244 41.2345L76.7834 41.2345L75.6429 41.2345L75.6429 40.0936L75.6429 38.9529L74.502 38.9529L73.3611 38.9529L73.3611 37.8122L73.3611 36.6714L74.502 36.6714L75.6429 36.6714L75.6429 35.5307L75.6429 34.3899L76.7834 34.3899L77.9244 34.3899L77.9244 33.2492L77.9244 32.1085L75.6429 32.1085L73.3611 32.1085L73.3611 34.3899L73.3611 36.6714L72.2206 36.6714L71.0796 36.6714L71.0796 37.8122L71.0796 38.9529L72.2206 38.9529L73.3611 38.9529L73.3611 42.375L73.3611 45.7973L72.2206 45.7973L71.0796 45.7973L71.0796 43.5159L71.0796 41.2345L69.9391 41.2345L68.7982 41.2345L68.7982 40.0936L68.7982 38.9529L66.5168 38.9529L64.2353 38.9529L64.2353 37.8122L64.2353 36.6714L63.0944 36.6714L61.9539 36.6714L61.9539 35.5307L61.9539 34.3899L63.0944 34.3899L64.2353 34.3899L64.2353 33.2492L64.2353 32.1085L67.6577 32.1085L71.0796 32.1085L71.0796 30.9677L71.0796 29.827L72.2206 29.827L73.3611 29.827L73.3611 28.6862L73.3611 27.5455L74.502 27.5455L75.6429 27.5455L75.6429 26.4047L75.6429 25.264L76.7834 25.264L77.9244 25.264L77.9244 24.1233L77.9244 22.9825L76.7834 22.9825L75.6429 22.9825L75.6429 21.8418L75.6429 20.7011L74.502 20.7011L73.3611 20.7011L73.3611 21.8418L73.3611 22.9825L72.2206 22.9825L71.0796 22.9825L71.0796 21.8418L71.0796 20.7011L69.9391 20.7011L68.7982 20.7011L68.7982 21.8418L68.7982 22.9825L69.9391 22.9825L71.0796 22.9825L71.0796 24.1233L71.0796 25.264L68.7982 25.264L66.5168 25.264L66.5168 27.5455L66.5168 29.827L65.3759 29.827L64.2353 29.827L64.2353 26.4047L64.2353 22.9825L65.3759 22.9825L66.5168 22.9825L66.5168 21.8418L66.5168 20.7011L65.3759 20.7011L64.2353 20.7011L64.2353 21.8418L64.2353 22.9825L63.0944 22.9825L61.9539 22.9825L61.9539 21.8418L61.9539 20.7011L60.813 20.7011L59.6725 20.7011L59.6725 21.8418L59.6725 22.9825L60.813 22.9825L61.9539 22.9825L61.9539 24.1233L61.9539 25.264L60.813 25.264L59.6725 25.264L59.6725 26.4047L59.6725 27.5455L57.3906 27.5455L55.1092 27.5455L55.1092 26.4047L55.1092 25.264L56.2501 25.264L57.3906 25.264L57.3906 24.1233L57.3906 22.9825L56.2501 22.9825L55.1092 22.9825L55.1092 24.1233L55.1092 25.264L53.9687 25.264L52.8277 25.264L52.8277 26.4047L52.8277 27.5455L50.5463 27.5455L48.2649 27.5455L48.2649 28.6862L48.2649 29.827L47.124 29.827L45.9834 29.827L45.9834 30.9677L45.9834 32.1085L44.8425 32.1085L43.702 32.1085L43.702 30.9677L43.702 29.827L42.5611 29.827L41.4202 29.827L41.4202 30.9677L41.4202 32.1085L40.2796 32.1085L39.1388 32.1085L39.1388 33.2492L39.1388 34.3899L37.9981 34.3899L36.8573 34.3899L36.8573 32.1085L36.8573 29.827L37.9981 29.827L39.1388 29.827L39.1388 28.6862L39.1388 27.5455L40.2796 27.5455L41.4202 27.5455L41.4202 26.4047L41.4202 25.264L42.5611 25.264L43.702 25.264L43.702 24.1233L43.702 22.9825L44.8425 22.9825L45.9834 22.9825L45.9834 24.1233L45.9834 25.264L48.2649 25.264L50.5463 25.264L50.5463 22.9825L50.5463 20.7011L52.8277 20.7011L55.1092 20.7011L55.1092 17.2788L55.1092 13.8566L56.2501 13.8566L57.3906 13.8566L57.3906 16.1381L57.3906 18.4196L58.5315 18.4196L59.6725 18.4196L59.6725 16.1381L59.6725 13.8566L58.5315 13.8566L57.3906 13.8566L57.3906 12.7159L57.3906 11.5751L58.5315 11.5751L59.6725 11.5751L59.6725 10.4344L59.6725 9.29367L58.5315 9.29367L57.3906 9.29367L57.3906 8.15292L57.3906 7.01217L56.2501 7.01217L55.1092 7.01217L55.1092 8.15292L55.1092 9.29367L53.9687 9.29367L52.8277 9.29367L52.8277 8.15292L52.8277 7.01217L51.6872 7.01217L50.5463 7.01217L50.5463 5.87145L50.5463 4.7307L53.9687 4.7307L57.3906 4.7307L57.3906 3.58996L57.3906 2.44922L49.4054 2.44922L41.4202 2.44922L41.4202 3.58996L41.4202 4.7307L42.5611 4.7307L43.702 4.7307L43.702 5.87145L43.702 7.01217L44.8425 7.01217L45.9834 7.01217L45.9834 9.29367L45.9834 11.5751L44.8425 11.5751L43.702 11.5751L43.702 10.4344L43.702 9.29367L42.5611 9.29367L41.4202 9.29367L41.4202 8.15292L41.4202 7.01217L40.2796 7.01217L39.1388 7.01217L39.1388 5.87145L39.1388 4.7307L36.8573 4.7307L34.5758 4.7307L34.5758 3.58996L34.5758 2.44922L32.2943 2.44922L30.0128 2.44922L30.0128 3.58996ZM48.2649 5.87145L48.2649 7.01217L47.124 7.01217L45.9834 7.01217L45.9834 5.87145L45.9834 4.7307L47.124 4.7307L48.2649 4.7307L48.2649 5.87145ZM36.8573 8.15292L36.8573 9.29367L34.5758 9.29367L32.2943 9.29367L32.2943 8.15292L32.2943 7.01217L34.5758 7.01217L36.8573 7.01217L36.8573 8.15292ZM52.8277 10.4344L52.8277 11.5751L53.9687 11.5751L55.1092 11.5751L55.1092 12.7159L55.1092 13.8566L53.9687 13.8566L52.8277 13.8566L52.8277 12.7159L52.8277 11.5751L51.6872 11.5751L50.5463 11.5751L50.5463 12.7159L50.5463 13.8566L49.4054 13.8566L48.2649 13.8566L48.2649 16.1381L48.2649 18.4196L49.4054 18.4196L50.5463 18.4196L50.5463 17.2788L50.5463 16.1381L51.6872 16.1381L52.8277 16.1381L52.8277 17.2788L52.8277 18.4196L51.6872 18.4196L50.5463 18.4196L50.5463 19.5603L50.5463 20.7011L49.4054 20.7011L48.2649 20.7011L48.2649 21.8418L48.2649 22.9825L47.124 22.9825L45.9834 22.9825L45.9834 21.8418L45.9834 20.7011L47.124 20.7011L48.2649 20.7011L48.2649 19.5603L48.2649 18.4196L47.124 18.4196L45.9834 18.4196L45.9834 17.2788L45.9834 16.1381L44.8425 16.1381L43.702 16.1381L43.702 18.4196L43.702 20.7011L40.2796 20.7011L36.8573 20.7011L36.8573 18.4196L36.8573 16.1381L35.7166 16.1381L34.5758 16.1381L34.5758 18.4196L34.5758 20.7011L33.4351 20.7011L32.2943 20.7011L32.2943 21.8418L32.2943 22.9825L31.1536 22.9825L30.0128 22.9825L30.0128 20.7011L30.0128 18.4196L28.8721 18.4196L27.7313 18.4196L27.7313 17.2788L27.7313 16.1381L28.8721 16.1381L30.0128 16.1381L30.0128 17.2788L30.0128 18.4196L31.1536 18.4196L32.2943 18.4196L32.2943 17.2788L32.2943 16.1381L33.4351 16.1381L34.5758 16.1381L34.5758 14.9973L34.5758 13.8566L35.7166 13.8566L36.8573 13.8566L36.8573 12.7159L36.8573 11.5751L37.9981 11.5751L39.1388 11.5751L39.1388 12.7159L39.1388 13.8566L37.9981 13.8566L36.8573 13.8566L36.8573 14.9973L36.8573 16.1381L37.9981 16.1381L39.1388 16.1381L39.1388 17.2788L39.1388 18.4196L40.2796 18.4196L41.4202 18.4196L41.4202 14.9973L41.4202 11.5751L42.5611 11.5751L43.702 11.5751L43.702 12.7159L43.702 13.8566L45.9834 13.8566L48.2649 13.8566L48.2649 12.7159L48.2649 11.5751L49.4054 11.5751L50.5463 11.5751L50.5463 10.4344L50.5463 9.29367L51.6872 9.29367L52.8277 9.29367L52.8277 10.4344ZM25.4499 17.2788L25.4499 18.4196L24.3091 18.4196L23.1683 18.4196L23.1683 17.2788L23.1683 16.1381L24.3091 16.1381L25.4499 16.1381L25.4499 17.2788ZM27.7313 21.8418L27.7313 22.9825L26.5906 22.9825L25.4499 22.9825L25.4499 21.8418L25.4499 20.7011L26.5906 20.7011L27.7313 20.7011L27.7313 21.8418ZM39.1388 24.1233L39.1388 25.264L37.9981 25.264L36.8573 25.264L36.8573 24.1233L36.8573 22.9825L37.9981 22.9825L39.1388 22.9825L39.1388 24.1233ZM73.3611 26.4047L73.3611 27.5455L72.2206 27.5455L71.0796 27.5455L71.0796 28.6862L71.0796 29.827L69.9391 29.827L68.7982 29.827L68.7982 28.6862L68.7982 27.5455L69.9391 27.5455L71.0796 27.5455L71.0796 26.4047L71.0796 25.264L72.2206 25.264L73.3611 25.264L73.3611 26.4047ZM52.8277 30.9677L52.8277 32.1085L53.9687 32.1085L55.1092 32.1085L55.1092 30.9677L55.1092 29.827L57.3906 29.827L59.6725 29.827L59.6725 30.9677L59.6725 32.1085L60.813 32.1085L61.9539 32.1085L61.9539 30.9677L61.9539 29.827L63.0944 29.827L64.2353 29.827L64.2353 30.9677L64.2353 32.1085L63.0944 32.1085L61.9539 32.1085L61.9539 33.2492L61.9539 34.3899L60.813 34.3899L59.6725 34.3899L59.6725 36.6714L59.6725 38.9529L58.5315 38.9529L57.3906 38.9529L57.3906 37.8122L57.3906 36.6714L55.1092 36.6714L52.8277 36.6714L52.8277 34.3899L52.8277 32.1085L50.5463 32.1085L48.2649 32.1085L48.2649 30.9677L48.2649 29.827L50.5463 29.827L52.8277 29.827L52.8277 30.9677ZM14.0423 33.2492L14.0423 34.3899L11.7609 34.3899L9.47939 34.3899L9.47939 33.2492L9.47939 32.1085L11.7609 32.1085L14.0423 32.1085L14.0423 33.2492ZM43.702 33.2492L43.702 34.3899L42.5611 34.3899L41.4202 34.3899L41.4202 35.5307L41.4202 36.6714L43.702 36.6714L45.9834 36.6714L45.9834 35.5307L45.9834 34.3899L47.124 34.3899L48.2649 34.3899L48.2649 35.5307L48.2649 36.6714L49.4054 36.6714L50.5463 36.6714L50.5463 37.8122L50.5463 38.9529L51.6872 38.9529L52.8277 38.9529L52.8277 40.0936L52.8277 41.2345L50.5463 41.2345L48.2649 41.2345L48.2649 40.0936L48.2649 38.9529L47.124 38.9529L45.9834 38.9529L45.9834 40.0936L45.9834 41.2345L44.8425 41.2345L43.702 41.2345L43.702 40.0936L43.702 38.9529L42.5611 38.9529L41.4202 38.9529L41.4202 37.8122L41.4202 36.6714L40.2796 36.6714L39.1388 36.6714L39.1388 35.5307L39.1388 34.3899L40.2796 34.3899L41.4202 34.3899L41.4202 33.2492L41.4202 32.1085L42.5611 32.1085L43.702 32.1085L43.702 33.2492ZM11.7609 37.8122L11.7609 38.9529L10.6201 38.9529L9.47939 38.9529L9.47939 40.0936L9.47939 41.2345L8.33863 41.2345L7.19787 41.2345L7.19787 40.0936L7.19787 38.9529L8.33863 38.9529L9.47939 38.9529L9.47939 37.8122L9.47939 36.6714L10.6201 36.6714L11.7609 36.6714L11.7609 37.8122ZM18.6053 37.8122L18.6053 38.9529L17.4646 38.9529L16.3239 38.9529L16.3239 40.0936L16.3239 41.2345L17.4646 41.2345L18.6053 41.2345L18.6053 42.375L18.6053 43.5159L16.3239 43.5159L14.0423 43.5159L14.0423 41.2345L14.0423 38.9529L15.1831 38.9529L16.3239 38.9529L16.3239 37.8122L16.3239 36.6714L17.4646 36.6714L18.6053 36.6714L18.6053 37.8122ZM25.4499 37.8122L25.4499 38.9529L24.3091 38.9529L23.1683 38.9529L23.1683 40.0936L23.1683 41.2345L22.0276 41.2345L20.8869 41.2345L20.8869 40.0936L20.8869 38.9529L22.0276 38.9529L23.1683 38.9529L23.1683 37.8122L23.1683 36.6714L24.3091 36.6714L25.4499 36.6714L25.4499 37.8122ZM64.2353 40.0936L64.2353 41.2345L66.5168 41.2345L68.7982 41.2345L68.7982 42.375L68.7982 43.5159L66.5168 43.5159L64.2353 43.5159L64.2353 42.375L64.2353 41.2345L63.0944 41.2345L61.9539 41.2345L61.9539 42.375L61.9539 43.5159L60.813 43.5159L59.6725 43.5159L59.6725 44.6564L59.6725 45.7973L63.0944 45.7973L66.5168 45.7973L66.5168 46.9382L66.5168 48.0787L65.3759 48.0787L64.2353 48.0787L64.2353 49.2196L64.2353 50.3602L63.0944 50.3602L61.9539 50.3602L61.9539 51.5011L61.9539 52.6416L64.2353 52.6416L66.5168 52.6416L66.5168 51.5011L66.5168 50.3602L67.6577 50.3602L68.7982 50.3602L68.7982 48.0787L68.7982 45.7973L69.9391 45.7973L71.0796 45.7973L71.0796 46.9382L71.0796 48.0787L72.2206 48.0787L73.3611 48.0787L73.3611 51.5011L73.3611 54.9234L72.2206 54.9234L71.0796 54.9234L71.0796 52.6416L71.0796 50.3602L69.9391 50.3602L68.7982 50.3602L68.7982 52.6416L68.7982 54.9234L66.5168 54.9234L64.2353 54.9234L64.2353 56.0639L64.2353 57.2048L63.0944 57.2048L61.9539 57.2048L61.9539 54.9234L61.9539 52.6416L60.813 52.6416L59.6725 52.6416L59.6725 54.9234L59.6725 57.2048L58.5315 57.2048L57.3906 57.2048L57.3906 56.0639L57.3906 54.9234L56.2501 54.9234L55.1092 54.9234L55.1092 56.0639L55.1092 57.2048L53.9687 57.2048L52.8277 57.2048L52.8277 58.3453L52.8277 59.4863L51.6872 59.4863L50.5463 59.4863L50.5463 58.3453L50.5463 57.2048L51.6872 57.2048L52.8277 57.2048L52.8277 54.9234L52.8277 52.6416L55.1092 52.6416L57.3906 52.6416L57.3906 51.5011L57.3906 50.3602L59.6725 50.3602L61.9539 50.3602L61.9539 49.2196L61.9539 48.0787L57.3906 48.0787L52.8277 48.0787L52.8277 49.2196L52.8277 50.3602L48.2649 50.3602L43.702 50.3602L43.702 49.2196L43.702 48.0787L40.2796 48.0787L36.8573 48.0787L36.8573 46.9382L36.8573 45.7973L37.9981 45.7973L39.1388 45.7973L39.1388 44.6564L39.1388 43.5159L40.2796 43.5159L41.4202 43.5159L41.4202 44.6564L41.4202 45.7973L42.5611 45.7973L43.702 45.7973L43.702 44.6564L43.702 43.5159L45.9834 43.5159L48.2649 43.5159L48.2649 44.6564L48.2649 45.7973L49.4054 45.7973L50.5463 45.7973L50.5463 46.9382L50.5463 48.0787L51.6872 48.0787L52.8277 48.0787L52.8277 45.7973L52.8277 43.5159L56.2501 43.5159L59.6725 43.5159L59.6725 42.375L59.6725 41.2345L60.813 41.2345L61.9539 41.2345L61.9539 40.0936L61.9539 38.9529L63.0944 38.9529L64.2353 38.9529L64.2353 40.0936ZM39.1388 51.5011L39.1388 52.6416L37.9981 52.6416L36.8573 52.6416L36.8573 54.9234L36.8573 57.2048L33.4351 57.2048L30.0128 57.2048L30.0128 56.0639L30.0128 54.9234L32.2943 54.9234L34.5758 54.9234L34.5758 53.7825L34.5758 52.6416L35.7166 52.6416L36.8573 52.6416L36.8573 51.5011L36.8573 50.3602L37.9981 50.3602L39.1388 50.3602L39.1388 51.5011ZM50.5463 53.7825L50.5463 54.9234L49.4054 54.9234L48.2649 54.9234L48.2649 57.2048L48.2649 59.4863L47.124 59.4863L45.9834 59.4863L45.9834 58.3453L45.9834 57.2048L43.702 57.2048L41.4202 57.2048L41.4202 58.3453L41.4202 59.4863L40.2796 59.4863L39.1388 59.4863L39.1388 60.6268L39.1388 61.7677L40.2796 61.7677L41.4202 61.7677L41.4202 62.9086L41.4202 64.0491L42.5611 64.0491L43.702 64.0491L43.702 65.19L43.702 66.3305L41.4202 66.3305L39.1388 66.3305L39.1388 64.0491L39.1388 61.7677L36.8573 61.7677L34.5758 61.7677L34.5758 62.9086L34.5758 64.0491L35.7166 64.0491L36.8573 64.0491L36.8573 65.19L36.8573 66.3305L34.5758 66.3305L32.2943 66.3305L32.2943 68.612L32.2943 70.8938L33.4351 70.8938L34.5758 70.8938L34.5758 69.7529L34.5758 68.612L36.8573 68.612L39.1388 68.612L39.1388 69.7529L39.1388 70.8938L37.9981 70.8938L36.8573 70.8938L36.8573 72.0343L36.8573 73.1752L35.7166 73.1752L34.5758 73.1752L34.5758 74.3157L34.5758 75.4566L33.4351 75.4566L32.2943 75.4566L32.2943 74.3157L32.2943 73.1752L30.0128 73.1752L27.7313 73.1752L27.7313 72.0343L27.7313 70.8938L28.8721 70.8938L30.0128 70.8938L30.0128 69.7529L30.0128 68.612L28.8721 68.612L27.7313 68.612L27.7313 66.3305L27.7313 64.0491L26.5906 64.0491L25.4499 64.0491L25.4499 62.9086L25.4499 61.7677L26.5906 61.7677L27.7313 61.7677L27.7313 60.6268L27.7313 59.4863L25.4499 59.4863L23.1683 59.4863L23.1683 58.3453L23.1683 57.2048L24.3091 57.2048L25.4499 57.2048L25.4499 56.0639L25.4499 54.9234L26.5906 54.9234L27.7313 54.9234L27.7313 57.2048L27.7313 59.4863L28.8721 59.4863L30.0128 59.4863L30.0128 61.7677L30.0128 64.0491L31.1536 64.0491L32.2943 64.0491L32.2943 62.9086L32.2943 61.7677L33.4351 61.7677L34.5758 61.7677L34.5758 60.6268L34.5758 59.4863L36.8573 59.4863L39.1388 59.4863L39.1388 58.3453L39.1388 57.2048L40.2796 57.2048L41.4202 57.2048L41.4202 54.9234L41.4202 52.6416L45.9834 52.6416L50.5463 52.6416L50.5463 53.7825ZM57.3906 60.6268L57.3906 61.7677L56.2501 61.7677L55.1092 61.7677L55.1092 62.9086L55.1092 64.0491L52.8277 64.0491L50.5463 64.0491L50.5463 62.9086L50.5463 61.7677L52.8277 61.7677L55.1092 61.7677L55.1092 60.6268L55.1092 59.4863L56.2501 59.4863L57.3906 59.4863L57.3906 60.6268ZM66.5168 62.9086L66.5168 66.3305L63.0944 66.3305L59.6725 66.3305L59.6725 62.9086L59.6725 59.4863L63.0944 59.4863L66.5168 59.4863L66.5168 62.9086ZM71.0796 61.7677L71.0796 64.0491L69.9391 64.0491L68.7982 64.0491L68.7982 61.7677L68.7982 59.4863L69.9391 59.4863L71.0796 59.4863L71.0796 61.7677ZM57.3906 72.0343L57.3906 73.1752L58.5315 73.1752L59.6725 73.1752L59.6725 74.3157L59.6725 75.4566L57.3906 75.4566L55.1092 75.4566L55.1092 73.1752L55.1092 70.8938L56.2501 70.8938L57.3906 70.8938L57.3906 72.0343Z" fill="#0D0D0D"/>
<path d="M55.1093 33.2501L55.1093 34.3908L56.2502 34.3908L57.3908 34.3908L57.3908 33.2501L57.3908 32.1094L56.2502 32.1094L55.1093 32.1094L55.1093 33.2501Z" fill="#0D0D0D"/>
<path d="M61.9539 62.9081L61.9539 64.049L63.0944 64.049L64.2353 64.049L64.2353 62.9081L64.2353 61.7676L63.0944 61.7676L61.9539 61.7676L61.9539 62.9081Z" fill="#0D0D0D"/>
<path d="M61.9541 10.4344L61.9541 18.4196L69.9393 18.4196L77.9246 18.4196L77.9246 10.4344L77.9246 2.44922L69.9393 2.44922L61.9541 2.44922L61.9541 10.4344ZM75.6427 10.4344L75.6427 16.1381L69.9393 16.1381L64.2355 16.1381L64.2355 10.4344L64.2355 4.73071L69.9393 4.73071L75.6427 4.73071L75.6427 10.4344Z" fill="#0D0D0D"/>
<path d="M66.5167 10.434L66.5167 13.8562L69.939 13.8562L73.361 13.8562L73.361 10.434L73.361 7.01172L69.939 7.01172L66.5167 7.01172L66.5167 10.434Z" fill="#0D0D0D"/>
<path d="M20.887 5.87122L20.887 7.01197L22.0277 7.01197L23.1684 7.01197L23.1684 5.87122L23.1684 4.73047L22.0277 4.73047L20.887 4.73047L20.887 5.87122Z" fill="#0D0D0D"/>
<path d="M66.5167 35.5294L66.5167 36.6702L67.6576 36.6702L68.7981 36.6702L68.7981 35.5294L68.7981 34.3887L67.6576 34.3887L66.5167 34.3887L66.5167 35.5294Z" fill="#0D0D0D"/>
<path d="M25.4501 44.6546L25.4501 45.7951L24.3093 45.7951L23.1686 45.7951L23.1686 48.0765L23.1686 50.3579L25.4501 50.3579L27.7316 50.3579L27.7316 49.2174L27.7316 48.0765L26.5908 48.0765L25.4501 48.0765L25.4501 46.936L25.4501 45.7951L26.5908 45.7951L27.7316 45.7951L27.7316 44.6546L27.7316 43.5137L26.5908 43.5137L25.4501 43.5137L25.4501 44.6546Z" fill="#0D0D0D"/>
<path d="M7.19812 54.924L7.19812 57.2054L8.33888 57.2054L9.4796 57.2054L9.4796 58.3463L9.4796 59.4869L10.6204 59.4869L11.7611 59.4869L11.7611 58.3463L11.7611 57.2054L12.9018 57.2054L14.0426 57.2054L14.0426 56.0645L14.0426 54.924L12.9018 54.924L11.7611 54.924L11.7611 56.0645L11.7611 57.2054L10.6204 57.2054L9.4796 57.2054L9.4796 54.924L9.4796 52.6426L8.33888 52.6426L7.19812 52.6426L7.19812 54.924Z" fill="#0D0D0D"/>
<path d="M2.63507 69.7528L2.63507 77.7379L10.6203 77.7379L18.6055 77.7379L18.6055 69.7528L18.6055 61.7676L10.6203 61.7676L2.63507 61.7676L2.63507 69.7528ZM16.324 69.7528L16.324 75.4565L10.6203 75.4565L4.91658 75.4565L4.91658 69.7528L4.91658 64.049L10.6203 64.049L16.324 64.049L16.324 69.7528Z" fill="#0D0D0D"/>
<path d="M7.19806 69.7524L7.19806 73.1747L10.6203 73.1747L14.0425 73.1747L14.0425 69.7524L14.0425 66.3301L10.6203 66.3301L7.19806 66.3301L7.19806 69.7524Z" fill="#0D0D0D"/>
<path d="M20.8869 72.0338L20.8869 77.7376L22.0276 77.7376L23.1684 77.7376L23.1684 72.0338L23.1684 66.3301L22.0276 66.3301L20.8869 66.3301L20.8869 72.0338Z" fill="#0D0D0D"/>
</svg>
