<svg width="184" height="114" viewBox="0 0 184 114" fill="none" xmlns="http://www.w3.org/2000/svg">
<path d="M104.58 23.2024C103.954 23.8675 103.118 24.2975 102.213 24.4204C101.536 24.5386 100.839 24.4863 100.187 24.2682C99.5348 24.0501 98.947 23.6731 98.4767 23.1711C97.8697 22.5401 97.4775 21.7334 97.3559 20.8662C97.2248 20.0009 97.365 19.1162 97.7574 18.3339C98.1498 17.5516 98.775 16.9102 99.5469 16.4981C100.016 16.2408 100.533 16.082 101.066 16.0314C101.148 16.0314 101.236 16.0314 101.298 15.9658H101.799C101.99 16.0851 102.213 16.0508 102.419 16.0925C103.275 16.272 104.054 16.7125 104.649 17.3533C105.244 17.9941 105.625 18.8037 105.741 19.6706C105.836 20.3091 105.781 20.961 105.579 21.5742C105.378 22.1875 105.036 22.7451 104.58 23.2024Z" fill="#3830C9"/>
<path d="M122.931 51.0724C123.17 50.9861 123.234 51.1871 123.042 51.3545C122.836 51.5341 122.617 51.6985 122.387 51.8462C121.169 52.7475 119.815 53.4486 118.376 53.9229C117.462 54.2331 116.502 54.3844 115.537 54.3702C114.515 54.353 113.509 54.1181 112.585 53.681C111.661 53.244 110.841 52.6149 110.18 51.8358C109.892 51.4675 109.648 51.0673 109.453 50.6431C108.552 48.9367 107.77 47.1703 107.111 45.3565C106.867 44.6901 106.718 43.9864 106.524 43.3006C106.113 41.8486 105.75 40.3816 105.235 38.9608C104.773 37.6891 104.191 36.4845 103.314 35.4349C102.782 34.8088 102.15 34.2753 101.443 33.8561C100.743 33.4253 100.048 33.4685 99.343 33.8427C98.7779 34.1501 98.2553 34.53 97.7884 34.9728C96.4851 36.1977 95.32 37.5621 94.3142 39.0413C92.6017 41.5042 90.9279 43.9939 89.2303 46.4687C88.2234 47.9732 87.1285 49.4169 85.9513 50.7922C84.8663 52.0325 83.6903 53.1775 82.2505 54.0154C81.3241 54.5613 80.2757 54.8662 79.2011 54.9024C77.5616 54.9635 76.1457 54.3985 74.8356 53.4846C73.0679 52.2502 71.7369 50.6103 70.5624 48.8302C70.0141 47.9926 69.5164 47.1228 69.072 46.2257C67.3759 42.8266 65.6758 39.4294 63.9717 36.0342C63.9165 35.9224 63.8882 35.7868 63.7347 35.7137C63.5589 35.9929 63.4197 36.2936 63.3204 36.6082C62.7353 38.1366 62.4946 39.7752 62.6154 41.4073C62.7268 42.8834 63.1821 44.313 63.9449 45.5816C64.7661 46.9786 66.0357 47.6131 67.3145 48.5911C67.7487 48.9971 68.0371 49.1137 67.5158 49.3994C67.3162 49.5087 67.1439 49.5947 67.0867 49.6233C66.0673 50.172 64.9613 50.3151 63.8316 50.242C62.5927 50.1779 61.3718 49.9177 60.2143 49.4713C59.7485 49.2892 59.3021 49.061 58.8818 48.7899C58.2055 47.614 57.6583 46.3684 57.2498 45.0748C56.8691 43.8982 56.6191 42.6833 56.5045 41.452C56.4336 40.6928 56.4206 39.9292 56.4658 39.168C56.5692 37.515 56.9596 35.8925 57.6194 34.3734C58.0939 33.2423 58.7104 32.1762 59.4541 31.2009C60.262 30.1573 61.2427 29.3508 62.514 28.9512C64.0462 28.4727 65.4949 28.6918 66.8706 29.4999C67.7902 30.0395 68.4997 30.8103 69.1242 31.6616C70.1287 33.0317 70.9127 34.53 71.6236 36.0656C72.1945 37.297 72.7281 38.5463 73.3302 39.7614C73.91 40.9362 74.5568 42.0767 75.1754 43.2321C75.63 44.0818 76.0965 44.9272 76.5406 45.7829C76.8703 46.3918 77.3053 46.9375 77.8254 47.3945C78.1906 47.727 78.3575 47.7195 78.7584 47.4079C79.3211 46.9473 79.8301 46.4247 80.2757 45.85C82.179 43.5377 83.8349 41.0495 85.4923 38.5597C86.4834 37.0689 87.5699 35.6541 88.6013 34.196C89.3322 33.1525 90.1287 32.1566 90.986 31.2143C92.4899 29.5744 94.116 28.0836 96.1236 27.0549C97.1167 26.5363 98.1925 26.1948 99.3027 26.0456C100.905 25.8459 102.532 26.0941 104.002 26.7627C105.343 27.3575 106.58 28.1627 107.667 29.148C108.936 30.3075 110.006 31.6673 110.834 33.1733C111.915 35.0712 112.612 37.1166 113.177 39.2127C113.794 41.4967 114.385 43.7881 115.058 46.0527C115.308 46.9782 115.779 47.829 116.431 48.532C116.607 48.7137 116.847 48.8442 117.029 49.0193C117.958 49.9112 118.975 50.6718 120.235 51.0724C121.11 51.3594 122.055 51.3594 122.931 51.0724Z" fill="#3830C9"/>
<path d="M127.11 40.725C126.974 43.0939 126.56 45.4062 125.627 47.6037C125.168 48.6925 124.562 49.7129 123.825 50.6361C123.601 50.9415 123.218 51.0655 122.858 51.184C122.712 51.232 122.565 51.2774 122.414 51.31C121.445 51.4833 120.447 51.3488 119.559 50.9253C118.516 50.4587 117.631 49.7535 116.818 48.9559C116.705 48.8451 116.834 48.7283 116.987 48.6877C118.25 48.3538 119.207 47.5977 119.908 46.4826C120.469 45.5518 120.851 44.5244 121.035 43.4532C121.373 41.7223 121.393 39.9736 121.281 38.2203C121.2 36.9841 121.048 35.7535 120.825 34.5349C120.796 34.3766 120.578 34.3501 120.503 34.4925C119.479 36.4403 118.471 38.3544 117.454 40.2866C117.092 40.9743 116.083 40.9012 115.827 40.1674C115.139 38.2024 114.455 36.2345 113.759 34.2711C113.713 34.1638 113.693 34.0472 113.702 33.9309C113.711 33.8147 113.748 33.7022 113.809 33.6032C114.398 32.5596 114.993 31.507 115.727 30.5484C116.462 29.5898 117.333 28.7594 118.456 28.2421C120.6 27.2477 122.882 27.6562 124.527 29.3483C125.149 30.0102 125.644 30.7802 125.989 31.6203C126.448 32.7078 126.754 33.8538 126.897 35.0254C127.148 36.9143 127.219 38.8226 127.11 40.725Z" fill="#22E393"/>
<path d="M109.041 54.0196C109.083 54.0692 109.112 54.1563 109.06 54.1954C107.719 55.2703 106.284 56.1782 104.622 56.6582C101.754 57.4857 99.1579 56.9311 96.8477 55.0481C95.7284 54.1342 94.8311 53.0206 94.0486 51.819C93.1842 50.4906 92.3555 49.1354 91.5074 47.8041C91.4515 47.7377 91.42 47.6542 91.4181 47.5674C91.4162 47.4806 91.444 47.3958 91.497 47.327C93.0113 44.9874 94.5201 42.6443 96.0235 40.2977C96.073 40.2189 96.1826 40.1923 96.2383 40.2668C96.2835 40.3272 96.312 40.4004 96.3484 40.4661C97.7822 42.8515 99.214 45.2423 100.644 47.6386C100.904 48.0787 101.305 48.4183 101.782 48.6028C102.259 48.7872 102.784 48.8057 103.273 48.6554C103.444 48.603 103.605 48.5219 103.748 48.4153C104.195 48.0977 104.614 47.7431 105.002 47.3553C105.07 47.2784 105.133 47.1975 105.191 47.1131C105.219 47.073 105.272 47.0595 105.315 47.0834C105.334 47.0944 105.349 47.112 105.356 47.1331C105.795 48.3788 106.314 49.5945 106.911 50.7724C107.484 51.9388 108.2 53.0295 109.041 54.0196Z" fill="#22E393"/>
<path d="M88.6254 30.2777C87.2959 31.8356 85.9888 33.4084 84.7383 35.0364C84.71 35.0732 84.6817 35.11 84.6534 35.1469C84.2497 35.6737 83.4795 35.728 82.9483 35.3301C82.7082 35.1546 82.448 35.0085 82.1732 34.8948C82.0767 34.849 81.969 34.8323 81.8632 34.8466C81.7574 34.8609 81.658 34.9056 81.577 34.9753C81.2599 35.2283 80.9852 35.5302 80.7633 35.8698C80.2612 36.6519 79.8568 37.4926 79.559 38.373C78.9703 39.9726 78.5485 41.62 78.1281 43.2689C78.1152 43.3178 78.1018 43.3665 78.0883 43.4147C78.0526 43.5431 77.9371 43.6109 77.8703 43.4955L72.8684 34.6294C72.8208 34.5701 72.7904 34.4988 72.7805 34.4234C72.7705 34.348 72.7813 34.2713 72.8117 34.2016C73.5912 32.4722 74.5406 30.8576 75.9223 29.5337C77.2428 28.268 78.7735 27.3973 80.5978 27.0917C82.1123 26.8488 83.6646 27.0358 85.0781 27.6314C86.3879 28.1816 87.593 28.9538 88.6403 29.9139C88.7582 30.022 88.704 30.1856 88.6254 30.2777Z" fill="#22E393"/>
<path d="M66.6754 21.4585C66.6486 23.8692 64.635 25.7133 62.4157 25.6328C61.8605 25.6394 61.3096 25.5351 60.7952 25.326C60.2809 25.1169 59.8134 24.8073 59.4201 24.4152C59.0269 24.0231 58.7159 23.5564 58.5052 23.0426C58.2945 22.5288 58.1885 21.978 58.1933 21.4227C58.1854 20.859 58.2898 20.2994 58.5005 19.7766C58.7113 19.2538 59.024 18.7782 59.4206 18.3776C59.8171 17.9771 60.2895 17.6596 60.81 17.4437C61.3306 17.2278 61.889 17.1178 62.4526 17.1202C63.0161 17.1225 63.5736 17.2372 64.0923 17.4575C64.6111 17.6778 65.0807 17.9993 65.4739 18.4032C65.867 18.8071 66.1758 19.2853 66.3821 19.8098C66.5884 20.3344 66.6881 20.8949 66.6754 21.4585Z" fill="#3830C9"/>
<path d="M125.579 21.4824C125.566 22.323 125.304 23.1408 124.825 23.8318C124.346 24.5228 123.673 25.0559 122.891 25.3632C122.108 25.6706 121.252 25.7383 120.431 25.5579C119.61 25.3775 118.862 24.9571 118.28 24.35C117.699 23.7429 117.311 22.9767 117.166 22.1486C117.021 21.3205 117.125 20.4679 117.465 19.6992C117.806 18.9306 118.367 18.2805 119.078 17.8317C119.788 17.3828 120.616 17.1554 121.457 17.1783C122.571 17.21 123.629 17.6793 124.4 18.4847C125.172 19.2902 125.595 20.3671 125.579 21.4824Z" fill="#22E393"/>
<path d="M87.4224 21.4108C87.4233 22.2499 87.1752 23.0704 86.7094 23.7683C86.2437 24.4663 85.5814 25.0102 84.8063 25.3312C84.0312 25.6523 83.1783 25.736 82.3557 25.5717C81.533 25.4075 80.7776 25.0027 80.1852 24.4086C79.5927 23.8145 79.1899 23.0579 79.0277 22.2346C78.8655 21.4113 78.9513 20.5584 79.2742 19.7839C79.597 19.0095 80.1425 18.3483 80.8413 17.8841C81.5402 17.42 82.3611 17.1738 83.2 17.1768C84.3212 17.1784 85.3958 17.6253 86.1877 18.4193C86.9795 19.2133 87.4236 20.2893 87.4224 21.4108Z" fill="#22E393"/>
<path d="M72.2819 54.7765C72.2976 54.8026 72.3003 54.8359 72.283 54.861C72.2765 54.8704 72.2698 54.8758 72.262 54.8842C72.0121 55.152 69.4285 56.0445 67.9378 55.8396C66.355 55.6383 64.9689 54.9585 63.6275 54.1311C61.9701 53.1009 60.7271 51.6801 59.6614 50.079C59.3776 49.667 59.1164 49.24 58.8789 48.7998C58.9996 48.7447 59.0846 48.8326 59.1695 48.8803C60.3357 49.5068 61.6094 49.9079 62.924 50.0626C64.0537 50.2116 65.1775 50.2191 66.2805 49.8732C66.7149 49.7479 67.1202 49.5376 67.4728 49.2545C67.8046 49.0223 68.2065 49.0177 68.4493 49.3418C69.4661 50.6993 71.8751 54.1014 72.2819 54.7765Z" fill="#22E393"/>
<path d="M168.533 82.3568C168.52 82.0799 168.507 81.8045 168.468 81.5275C168.265 80.0819 167.837 78.6769 167.2 77.3637C166.366 75.638 165.195 74.0961 163.758 72.8284C162.32 71.5608 160.644 70.5928 158.828 69.9813C157.071 69.3859 155.214 69.1464 153.364 69.2767C152.372 69.3434 151.389 69.508 150.43 69.7682C147.511 70.5663 144.926 72.2804 143.054 74.6584C141.17 76.9998 140.164 79.6993 139.954 82.6917C139.884 83.7213 139.933 84.7555 140.099 85.774C140.678 89.4675 142.672 92.7903 145.659 95.0382C147.109 96.1411 148.759 96.9525 150.517 97.4275C151.374 97.6705 152.254 97.8207 153.142 97.8755C153.73 97.9164 154.32 97.9261 154.909 97.9045C155.498 97.8791 156.085 97.8201 156.667 97.7276C158.291 97.4539 159.855 96.8985 161.288 96.0865C161.702 95.8487 161.627 95.8777 161.841 96.2111C162.287 96.9265 162.969 97.4639 163.768 97.7309C164.568 97.9979 165.435 97.9778 166.221 97.674C167.526 97.1796 168.355 96.2401 168.541 94.8048C168.553 94.7617 168.573 94.7211 168.599 94.6845V82.6511C168.503 82.5627 168.538 82.4569 168.533 82.3568ZM154.26 90.5903C152.403 90.5856 150.624 89.8449 149.312 88.5303C148.001 87.2158 147.264 85.4347 147.263 83.5776C147.263 79.5181 150.648 76.5127 154.275 76.591C158.051 76.5228 161.308 79.6906 161.289 83.608C161.273 85.4635 160.526 87.2378 159.21 88.5453C157.894 89.8527 156.115 90.5876 154.26 90.5903Z" fill="#3830C9"/>
<path d="M135.065 94.1285C135.065 95.6073 134.427 96.7381 133.139 97.4732C132.433 97.8448 131.626 97.98 130.838 97.8589C130.05 97.7378 129.321 97.3668 128.759 96.8005C128.202 96.2347 127.848 95.4999 127.753 94.7113C127.728 94.3314 127.728 93.9502 127.753 93.5703C127.761 90.3247 127.761 87.0791 127.753 83.8335C127.753 82.4054 127.435 81.0542 126.646 79.8436C125.579 78.2039 124.105 77.1368 122.183 76.7338C121.282 76.5277 120.349 76.5078 119.441 76.6754C118.532 76.8429 117.668 77.1943 116.9 77.7081C115.205 78.8172 114.191 80.3989 113.805 82.3808C113.734 82.7919 113.702 83.209 113.711 83.6261C113.711 87.126 113.711 90.6268 113.711 94.1285C113.711 95.6073 113.079 96.7382 111.788 97.4718C111.322 97.7341 110.801 97.8808 110.267 97.8994C109.78 97.9348 109.292 97.8705 108.831 97.7105C108.37 97.5504 107.946 97.298 107.586 96.9687C107.239 96.6674 106.957 96.3 106.754 95.888C106.552 95.4759 106.434 95.0276 106.407 94.5693C106.394 94.3735 106.407 94.1749 106.407 93.9777C106.407 90.6171 106.407 87.255 106.407 83.8929C106.425 83.256 106.359 82.6196 106.213 81.9995C105.436 79.1289 103.604 77.3036 100.695 76.7033C98.5719 76.2684 96.6065 76.7889 94.9092 78.1894C93.5757 79.2898 92.7887 80.7091 92.4626 82.3938C92.3891 82.8281 92.3575 83.2685 92.3684 83.7088C92.3684 87.197 92.3684 90.6867 92.3684 94.1764C92.3684 95.7711 91.4263 97.1948 89.9261 97.7023C88.6854 98.1227 87.5027 97.9487 86.4475 97.1426C85.9877 96.8033 85.6198 96.3546 85.3771 95.8372C85.1344 95.3197 85.0245 94.7499 85.0575 94.1793C85.0575 92.3003 85.0575 90.4223 85.0575 88.5453C85.0575 86.736 85.0401 84.9281 85.0575 83.1202C85.088 80.5569 85.8504 78.2039 87.1838 76.0277C87.8366 74.9571 88.6335 73.9814 89.5522 73.1281C91.4486 71.3364 93.8022 70.1024 96.3543 69.5616C97.4484 69.3194 98.5676 69.2094 99.6879 69.234C101.586 69.2785 103.456 69.6998 105.19 70.4733C106.924 71.2468 108.487 72.3572 109.789 73.7399C109.823 73.772 109.855 73.8059 109.885 73.8414C109.989 73.9719 110.077 73.9647 110.195 73.8414C110.557 73.4674 110.919 73.0977 111.321 72.757C113.143 71.1648 115.342 70.0645 117.708 69.5602C118.803 69.3185 119.922 69.2089 121.042 69.234C122.981 69.2808 124.889 69.7198 126.654 70.5247C128.418 71.3295 130.001 72.4834 131.307 73.9168C132.821 75.5585 133.922 77.5376 134.519 79.6899C134.771 80.6032 134.937 81.5381 135.014 82.4823C135.056 82.9578 135.059 83.4304 135.061 83.9031C135.067 87.313 135.068 90.7215 135.065 94.1285Z" fill="#3830C9"/>
<path d="M43.6812 82.2808C43.6812 75.2106 43.6812 68.1399 43.6812 61.0688C43.6812 60.86 43.6812 60.6512 43.6812 60.4424C43.6807 60.234 43.6539 60.0265 43.6015 59.8248C43.3873 58.9521 42.8603 58.1884 42.1204 57.6786C41.3806 57.1688 40.4793 56.9484 39.5878 57.0593C38.6963 57.1702 37.8764 57.6045 37.2839 58.28C36.6913 58.9555 36.3673 59.8251 36.3733 60.7237C36.3733 64.0041 36.3733 67.2845 36.3733 70.565V71.0463C35.9558 70.8448 35.5964 70.665 35.2326 70.4968C33.5216 69.7211 31.6736 69.2928 29.7958 69.2369C28.7429 69.2023 27.6894 69.2894 26.6564 69.4965C24.785 69.8481 23.0047 70.5772 21.424 71.6393C19.7407 72.7614 18.3125 74.2256 17.2323 75.9365C15.8482 78.1184 15.1524 80.5106 15.0118 83.0768C14.968 84.0972 15.0459 85.1193 15.2437 86.1213C15.6965 88.6667 16.8368 91.0397 18.5412 92.9832C19.7236 94.3414 21.1491 95.4669 22.7445 96.3019C24.3824 97.1723 26.1795 97.702 28.0276 97.8589C29.1821 97.9645 30.345 97.9314 31.4917 97.7604C34.7618 97.2725 37.7616 95.6652 39.9794 93.2123C40.7582 92.3546 41.4325 91.4076 41.9883 90.391C43.2116 88.1453 43.7276 85.727 43.7276 83.184C43.729 82.881 43.6812 82.5838 43.6812 82.2808ZM29.332 90.5911C25.4505 90.5766 22.3488 87.2971 22.3589 83.5537C22.3691 79.8103 25.5476 76.4932 29.39 76.5947C33.1875 76.5367 36.3863 79.7335 36.3791 83.5972C36.3642 85.4581 35.6144 87.2375 34.2932 88.5476C32.972 89.8578 31.1866 90.5923 29.3262 90.5911H29.332Z" fill="#3830C9"/>
<path d="M80.7904 81.0194C80.7099 81.3099 80.6017 81.592 80.4672 81.8617C79.3396 84.0944 78.2714 86.3561 77.0611 88.5482C76.3596 89.8153 75.6465 91.0781 74.758 92.2278C72.3703 95.3207 69.2521 97.2002 65.4035 97.8661C64.8899 97.9569 64.3708 98.0131 63.8497 98.0343H62.1684C58.6382 97.8336 55.2987 96.3666 52.7623 93.9024C50.2259 91.4381 48.6627 88.1418 48.3594 84.6181C48.0561 81.0943 49.033 77.5792 51.1109 74.7176C53.1889 71.8559 56.2286 69.8395 59.6725 69.0382C62.5832 68.3527 65.6349 68.5893 68.4052 69.7153C69.3291 70.067 70.1655 70.6156 70.8562 71.3231C71.633 72.1307 71.949 73.1049 71.9099 74.2082C71.886 74.4743 71.8256 74.7358 71.7302 74.9853C71.47 75.7658 71.1422 76.5221 70.7504 77.2456C69.8155 79.0303 68.8661 80.8092 67.9312 82.5939C67.5327 83.3521 67.1703 84.1292 66.734 84.8686C66.4072 85.4271 65.9254 85.8787 65.347 86.1687C64.7687 86.4587 64.1187 86.5747 63.4757 86.5025C62.064 86.3126 60.9929 85.3935 60.6277 84.0495C60.5076 83.6358 60.4725 83.2021 60.5246 82.7745C60.5767 82.347 60.7148 81.9344 60.9306 81.5616C61.6785 80.2409 62.3612 78.8867 63.083 77.5529C63.3323 77.0948 63.5743 76.6337 63.8251 76.1756C63.8841 76.0823 63.9196 75.9759 63.9284 75.8658C63.9373 75.7557 63.9192 75.6451 63.8758 75.5435C63.7526 75.2651 63.5236 75.1738 63.2293 75.1694C61.8192 75.1255 60.4232 75.4625 59.1884 76.1452C56.8258 77.4703 55.3953 79.4797 55.0039 82.1633C54.3271 86.8027 57.6491 90.6707 61.6886 91.3652C64.557 91.8581 68.0892 90.865 69.988 87.4507C71.1475 85.3543 72.2432 83.2187 73.3665 81.1006C73.8173 80.251 74.2594 79.3971 74.7145 78.5504C75.3957 77.2862 76.777 76.6366 78.238 76.8831C79.5642 77.1078 80.66 78.2314 80.9006 79.5826C80.9758 80.0636 80.9381 80.5555 80.7904 81.0194Z" fill="#22E393"/>
</svg>
