<svg width="314" height="314" fill="none" xmlns="http://www.w3.org/2000/svg"><path d="M108.763 190.792s-6.879-4.999-10.03-4.093c-3.158.906-7.214 5.534-7.214 5.534s8.013-2.407 10.436-1.902c2.41.498 6.808.461 6.808.461ZM111.073 192.597c-.998 2.362-2.73 4.33-3.693 6.707-1.105 2.711-1.119 5.882-.05 8.608 1.833-1.998 2.923-4.635 3.508-7.331.591-2.696.684-4.902.798-7.665l-.563-.319ZM110.018 191.98c.314-.966-7.471-.542-9.952 2.585-2.48 3.127-4.961 6.529-2.873 14.424 0 0 4.698-8.556 4.698-8.423.007.119 7.507-6.684 8.127-8.586Z" fill="#54DD99"/><path d="M110.082 191.876c-.72.29 6.352 2.533 9.617 2.808 3.265.274 5.239-.862 5.239-.862s-4.747-6.031-14.856-1.946ZM145.819 222.931s3.407-1.441 4.362-.446c.956.995 4.898 6.432 8.619 6.767 0 0-3.408-7.539-6.494-8.758-2.025-.802-6.487 2.437-6.487 2.437Z" fill="#54DD99"/><path d="M146.695 222.522s-.135-2.659-1.418-4.063c-1.283-1.403-5.917-2.362-5.917-2.362s1.668 2.793 3.379 4.145c1.711 1.367 3.956 2.28 3.956 2.28Z" fill="#54DD99"/><path d="M146.688 222.374s-2.374-.037-4.049 3.052c-1.675 3.09-2.588 6.967-2.445 6.715.143-.26 4.477-2.236 5.61-4.731 1.141-2.504.884-5.036.884-5.036ZM147.23 222.374s.428 5.882 1.383 6.878c.955.995 2.338 4.657 2.338 4.657s2.132-5.326.955-7.874c-1.161-2.547-4.676-3.661-4.676-3.661ZM126.542 233.73c-.27.424-5.738 4.836-6.558 6.975-.82 2.132-.135 5.407 0 6.402.135.996 4.919-1.277 5.739-5.125.819-3.84.819-8.252.819-8.252ZM127.605 230.425c-.008.713.085 7.688 1.839 10.117 1.761 2.436 5.018 5.021 5.018 5.021s1.155-8.817-1.283-11.535c-2.438-2.719-5.574-3.603-5.574-3.603ZM126.806 231.628c-.399-.096-5.339-.586-7.692 2.348-2.352 2.933-3.664 6.261-3.664 6.261s7.471-3.862 8.847-5.571c1.361-1.715 2.509-3.038 2.509-3.038ZM130.199 228.434s2.011-1.552 4.235-.111 5.91 7.034 5.91 7.034-4.52-.305-6.901-2.659c-2.374-2.355-3.244-4.264-3.244-4.264ZM126.992 229.296s-2.866-2.54-5.055-3.105c-2.188-.564-8.604 1.1-8.604 1.1s3.008 2.399 7.442 1.998c4.441-.386 6.217.007 6.217.007ZM117.482 255.144s-2.046 4.13 0 6.403c2.046 2.28 3.158 6.833 3.158 6.833s3.536-3.558 1.761-7.546c-1.783-3.982-4.919-5.69-4.919-5.69ZM114.188 255.233c-.549.282-4.099 5.266-4.37 8.824-.271 3.558-.549 9.678 0 9.255.549-.424 4.506-4.271 5.604-7.97 1.09-3.699-1.234-10.109-1.234-10.109ZM112.855 254.847c-.549.141-5.738-.854-8.604 2.986-2.866 3.84-5.055 9.396-5.055 9.396s7.514-4.004 9.289-6.202c1.775-2.199 4.37-6.18 4.37-6.18ZM142.169 248.014s-1.562 4.842 0 9.106c1.561 4.271 3.336 7.115 3.336 7.115s2.31-8.541.813-10.814c-1.49-2.273-4.149-5.407-4.149-5.407ZM143.024 247.501c.556.535 6.958 10.116 11.313 10.971 4.356.854.685-.364.685-.364s-1.376-6.462-3.322-9.129c-1.954-2.674-8.676-1.478-8.676-1.478Z" fill="#54DD99"/><path d="M142.055 247.33s4.726-3.416 6.579-4.285c1.89-.892 7.963.274 7.963.274s-7.421 4.026-9.21 3.603c-1.782-.424-5.325 1.218-5.325 1.218M158.486 200.737s-4.099 4.524-3.557 8.059c.542 3.536 1.754 6.923 1.754 6.923l1.803-6.217v-8.765ZM159.042 199.831s-.948 6.923.949 9.752c1.896 2.83 4.476 8.2 4.747 7.777.271-.423 4.206-4.1 1.355-9.329-2.845-5.229-7.051-8.2-7.051-8.2ZM157.667 201.057s-6.545-1.976-7.486 1.27c-.941 3.253-1.753 6.075-1.753 6.075s2.181-2.436 4.619-3.973c2.431-1.538 4.62-3.372 4.62-3.372ZM128.317 202.891s.193-.186.535-.483c1.547-1.374 6.06-5.154 8.341-4.575 2.773.706 6.601 2.496 6.601 2.496s-9.895 5.355-15.477 2.562Z" fill="#54DD99"/><path d="M129.643 202.936c.022-.513-2.972-1.345-5.603 1.485-2.63 2.83-3.037 4.561-3.037 4.561s8.455-1.166 8.64-6.046Z" fill="#54DD99"/><path d="M129.173 203.508s-3.008 3.602-.699 7.138a213.163 213.163 0 0 1 4.306 6.922s1.183-3.179 0-7.034-3.607-7.026-3.607-7.026ZM140.422 212.48c-.135-.861.955-7.918-8.006-7.219h-.819s4.284 7.204 5.268 9.47c.984 2.258 1.718 2.971 2.773 3.959 1.055.987.92-5.356.784-6.21ZM142.154 247.724c.129-2.199-.663-4.434-2.124-6.024-.135-.148-.335-.304-.52-.223-.122.06-.179.201-.221.335-.378 1.277-.1 2.696.499 3.877.598 1.181 1.504 2.169 2.423 3.104M116.897 254.23c-1.597-3.06-4.199-5.533-7.264-6.922-.192-.089-.399-.171-.606-.126-.321.067-.513.416-.549.75-.085.683.292 1.337.692 1.887 1.939 2.666 4.897 4.508 8.069 5.028" fill="#54DD99"/><path d="M152.805 243.81c0 .029-.464.029-1.283.133-.82.112-2.004.349-3.387.906-1.375.557-2.944 1.426-4.505 2.645-1.575 1.21-3.151 2.755-4.769 4.404-3.258 3.298-6.124 6.366-8.113 8.668-.998 1.151-1.782 2.095-2.331 2.756-.256.304-.463.549-.627.75-.15.171-.228.252-.235.245-.007-.007.057-.104.185-.29.128-.185.321-.453.585-.794a73.98 73.98 0 0 1 2.252-2.83c1.946-2.347 4.798-5.452 8.056-8.75 1.618-1.656 3.215-3.201 4.819-4.419 1.597-1.218 3.201-2.088 4.605-2.622a12.797 12.797 0 0 1 3.45-.817c.414-.037.742-.045.963-.03.221.022.335.03.335.045ZM127.384 262.282c-.05.037-.585-.929-1.747-2.221-1.155-1.285-3.015-2.86-5.425-3.847a14.627 14.627 0 0 0-6.487-1.033c-1.697.119-2.716.446-2.73.386-.008-.022.242-.119.705-.252a11.852 11.852 0 0 1 2.004-.372c1.703-.193 4.156-.059 6.629.951a14.538 14.538 0 0 1 5.482 3.996c.571.676.977 1.27 1.226 1.694.243.438.357.683.343.698Z" fill="#54DD99"/><path d="M129.144 202.839c.008 0 .008.067-.007.201-.014.156-.028.349-.05.594-.05.542-.121 1.307-.213 2.28a757.792 757.792 0 0 0-.778 8.386c-.605 7.086-1.311 16.89-1.297 27.742.036 10.851.763 20.663 1.29 27.749.278 3.528.499 6.388.656 8.401l.171 2.287c.015.245.029.446.036.595.007.133.007.2 0 .2s-.014-.067-.036-.2c-.014-.149-.042-.35-.071-.595-.057-.542-.135-1.307-.228-2.28a819.133 819.133 0 0 1-.763-8.393c-.584-7.086-1.354-16.898-1.39-27.772-.014-10.866.734-20.685 1.397-27.764.335-3.543.649-6.402.877-8.378.121-.966.214-1.731.278-2.273.036-.245.057-.438.079-.587.028-.126.042-.193.049-.193Z" fill="#54DD99"/><path d="M149.568 221.943c0 .022-.335.074-.955.148-.613.067-1.504.193-2.595.379a47.334 47.334 0 0 0-8.355 2.199 48.883 48.883 0 0 0-7.849 3.714 45.787 45.787 0 0 0-2.252 1.396c-.528.342-.82.52-.834.505-.015-.022.256-.238.763-.609.499-.379 1.254-.891 2.202-1.493 1.904-1.196 4.648-2.652 7.856-3.825 3.208-1.166 6.231-1.813 8.426-2.117a29.043 29.043 0 0 1 2.617-.267c.634-.045.976-.052.976-.03ZM127.455 218.786c-.014 0-.043-.126-.086-.379-.05-.289-.107-.646-.185-1.099-.071-.475-.157-1.062-.328-1.723-.164-.661-.292-1.434-.563-2.251-.121-.408-.257-.839-.392-1.292-.136-.446-.328-.891-.506-1.367-.328-.95-.806-1.916-1.276-2.941a38.631 38.631 0 0 0-3.9-6.172c-3.193-4.085-6.822-7.056-9.545-9.01-.67-.512-1.319-.899-1.868-1.285-.549-.379-1.041-.676-1.44-.921-.371-.238-.677-.423-.912-.579-.207-.134-.314-.208-.307-.223.007-.008.121.044.342.163.25.134.563.312.941.52.407.23.913.513 1.469.877s1.219.742 1.896 1.248c2.766 1.908 6.444 4.872 9.674 8.994a37.464 37.464 0 0 1 3.913 6.247c.471 1.04.941 2.013 1.262 2.986.171.483.364.928.492 1.389.128.453.257.891.371 1.307.264.824.378 1.604.52 2.273.157.668.221 1.262.278 1.738.05.453.093.817.121 1.107.029.26.036.393.029.393Z" fill="#54DD99"/><path d="M159.513 200.41c.007.015-.114.067-.342.156-.264.104-.592.231-1.005.394-.877.327-2.132.832-3.679 1.471a106.546 106.546 0 0 0-11.734 5.786 109.453 109.453 0 0 0-10.971 7.234 127.18 127.18 0 0 0-3.165 2.444c-.349.275-.635.497-.856.676-.199.148-.306.223-.313.215-.007-.007.085-.104.271-.267.214-.186.484-.431.819-.721.713-.624 1.768-1.5 3.109-2.54a95.742 95.742 0 0 1 10.949-7.338c4.463-2.555 8.69-4.479 11.806-5.712 1.554-.617 2.83-1.085 3.721-1.374.42-.134.755-.245 1.026-.335.236-.066.357-.103.364-.089Z" fill="#54DD99"/><path d="M140.593 313.124h-25.735l-2.687-32.756h31.438l-3.016 32.756Z" fill="#263238"/><path d="M145.69 280.368h-35.515v5.036h35.515v-5.036Z" fill="#263238"/><path d="M145.462 285.419c0 .096-7.941.171-17.736.171-9.795 0-17.737-.075-17.737-.171 0-.097 7.942-.171 17.737-.171 9.795 0 17.736.074 17.736.171Z" fill="#fff"/><path d="m253.685 313.626 21.857.178.215-28.745-21.856-.178-.216 28.745Z" fill="#E01E5A"/><path d="m267.214 285.909-.385 27.831-3.45-.03.734-27.831 3.101.03Z" fill="#FAFAFA"/><path d="m241.365 285.694 12.533.104 21.856.178-21.878 3.001-.185 24.652-12.533-.097.207-27.838Z" fill="#AE1A48"/><path d="m248.187 285.753-.499 27.831-3.721-.03.613-27.831 3.607.03Z" fill="#FAFAFA"/><path d="M258.111 277.278c.007.178-.364.357-1.034.528-.67.17-1.654.334-2.894.401-.621.029-1.312.037-2.061-.023-.37-.029-.762-.074-1.161-.133a9.228 9.228 0 0 1-1.277-.283 3.366 3.366 0 0 1-.784-.356 2.46 2.46 0 0 1-.827-.81 2.41 2.41 0 0 1-.356-1.255c-.007-.386.05-.706.107-.966.207-.913.42-1.856.841-2.881a8.409 8.409 0 0 1 .798-1.471 6.81 6.81 0 0 1 .542-.661c.207-.223.449-.431.727-.617.286-.178.613-.334.991-.416a2.45 2.45 0 0 1 1.134.03c.706.193 1.147.565 1.497.862a12.543 12.543 0 0 1 2.873 3.676c.606 1.196.877 2.251.969 2.994.086.742 0 1.166-.157 1.203-.356.089-.869-1.382-2.259-3.224a14.638 14.638 0 0 0-2.802-2.8c-.278-.208-.52-.334-.635-.342a.214.214 0 0 0-.121.015.841.841 0 0 0-.192.104c-.086.06-.178.149-.278.26-.1.112-.214.26-.307.401-.199.297-.37.632-.527 1.003-.307.735-.535 1.612-.749 2.444a2.02 2.02 0 0 0-.064.356v.03c-.014 0-.05.015-.064.015-.079.022-.1.044-.043.007.007-.007.057-.044.079-.059 0 0 0 .007.007.015a.168.168 0 0 0 .064.059c.064.052.178.112.313.171.264.111.642.215.977.304.335.097.677.171.998.238.656.134 1.283.238 1.861.32 1.162.163 2.131.267 2.801.408.628.126 1.006.282 1.013.453Z" fill="#00A355"/><path d="M257.662 277.494c-.057-.364 1.575-.892 4.127-1.672 1.269-.401 2.759-.891 4.299-1.604.378-.171.727-.364.934-.542.099-.082.149-.164.135-.156-.014.007-.028.104-.028.052a2.42 2.42 0 0 0-.157-.401c-.107-.223-.207-.453-.314-.676a11.731 11.731 0 0 0-.663-1.241 4.975 4.975 0 0 0-.777-.965 4.01 4.01 0 0 0-.442-.364 1.944 1.944 0 0 0-.399-.223c-.257-.104-.442-.119-.642-.059-.207.052-.485.222-.77.468a17.358 17.358 0 0 0-2.987 3.379c-1.461 2.169-1.853 3.87-2.217 3.81-.157-.022-.278-.482-.221-1.322.057-.832.314-2.035.941-3.387.628-1.359 1.597-2.837 2.994-4.241.378-.364.863-.772 1.547-1.017.692-.253 1.512-.216 2.16.029.335.119.635.283.913.468.256.179.506.372.741.587.471.431.863.928 1.191 1.448.328.52.591 1.04.812 1.538l.321.735c.107.26.25.587.321 1.048.078.445.007 1.069-.242 1.515a2.79 2.79 0 0 1-.813.928c-.549.409-1.048.602-1.497.78-1.775.676-3.422 1.003-4.791 1.196-2.737.319-4.427.215-4.476-.111Z" fill="#00A355"/><path d="m237.375 285.654 32.129.261.071-9.515-32.129-.261-.071 9.515Z" fill="#AE1A48"/><path d="m249.187 285.752 29.043.236.071-9.515-29.042-.236-.072 9.515Z" fill="#E01E5A"/><path d="m269.395 276.409-.206 9.559-3.386-.074.242-9.514 3.35.029ZM245.336 276.261l-.328 9.47-3.721-.03.199-9.515 3.85.075Z" fill="#FAFAFA"/><path d="m277.878 313.696 12.382.101.122-16.289-12.382-.1-.122 16.288Z" fill="#E01E5A"/><path d="m285.549 298.001-.221 15.769-1.96-.015.42-15.769 1.761.015Z" fill="#FAFAFA"/><path d="m270.892 297.882 7.108.052 12.382.104-12.396 1.701-.1 13.971-7.108-.059.114-15.769Z" fill="#AE1A48"/><path d="m274.763 297.912-.285 15.769-2.103-.015.342-15.769 2.046.015Z" fill="#FAFAFA"/><path d="M280.388 293.114c0 .237-.813.535-2.231.653-.727.045-1.554.052-2.595-.222-.278-.097-.67-.231-1.005-.728a1.555 1.555 0 0 1-.228-.795 2.219 2.219 0 0 1 .064-.594c.114-.528.235-1.062.484-1.664.122-.297.278-.594.471-.862.192-.267.413-.534.77-.765.328-.23.877-.371 1.333-.237.442.126.706.349.905.527a6.957 6.957 0 0 1 1.633 2.147c.67 1.411.57 2.414.356 2.443-.249.06-.577-.75-1.383-1.76a8.29 8.29 0 0 0-1.582-1.523c-.15-.111-.278-.163-.3-.156h-.007v-.037l.007.045c0 .007-.021.015-.05.037a1.474 1.474 0 0 0-.285.327 3.69 3.69 0 0 0-.278.534c-.164.394-.292.892-.42 1.352l-.036.164c.028 0-.086.007-.114.007-.043.008-.071.015-.1.022-.043.015-.057.023-.028.008.021-.015.064-.045.121-.112l.035-.044.015.015a.568.568 0 0 0 .142.081c.685.26 1.497.416 2.132.52 1.297.201 2.167.357 2.174.617Z" fill="#00A355"/><path d="M280.131 293.225c-.042-.275.877-.646 2.303-1.129.706-.252 1.54-.542 2.388-.951.207-.096.392-.208.471-.282.042-.037.042-.059.007-.007a.365.365 0 0 0-.043.193c-.079-.178-.164-.357-.25-.542a5.801 5.801 0 0 0-.363-.669 2.565 2.565 0 0 0-.399-.497 1.44 1.44 0 0 0-.392-.29c-.107-.045-.143-.045-.207-.037-.071.007-.2.081-.357.208a10.125 10.125 0 0 0-1.689 1.827c-.848 1.173-1.134 2.109-1.412 2.065-.235-.008-.435-1.144.257-2.763.342-.802.891-1.664 1.697-2.496.221-.215.52-.475.955-.631a2.05 2.05 0 0 1 1.383.015c.207.074.399.178.57.289.157.112.307.223.449.357.285.26.521.564.72.869.193.312.35.616.478.906l.185.423c.064.149.157.357.2.661.057.297 0 .721-.164 1.018a1.93 1.93 0 0 1-.528.609c-.342.253-.641.364-.905.468-1.027.379-1.975.55-2.766.631-1.583.141-2.545.015-2.588-.245Z" fill="#00A355"/><path d="m268.631 297.853 18.207.148.04-5.392-18.207-.148-.04 5.392Z" fill="#AE1A48"/><path d="m275.329 297.903 16.453.134.04-5.393-16.453-.133-.04 5.392Z" fill="#E01E5A"/><path d="m286.782 292.616-.114 5.415-1.924-.037.135-5.393 1.903.015ZM273.145 292.534l-.185 5.363-2.11-.015.114-5.392 2.181.044Z" fill="#FAFAFA"/><path d="M104.165 0H9.795v162.753h94.37V0Z" fill="#3B4E98"/><path d="M101.029 0H6.659v162.753h94.37V0Z" fill="#2E3964"/><path d="M97 3.298H10.673v156.149H97V3.297Z" fill="#FAFAFA"/><path d="M80.199 23.59H27.11v115.573h53.088V23.59Z" fill="#EBEBEB"/><path d="M27.11 98.267c-.12-10.793 9.197-21.332 19.455-22.84 4.89-.72 10.094.29 14.664-1.664 8.162-3.483 10.757-14.78 18.97-18.13l.377 83.53H27.111V98.267Z" fill="#E0E0E0"/><path d="M314 313.807c0 .104-70.297.193-156.996.193C70.282 314 0 313.918 0 313.807c0-.104 70.282-.193 157.011-.193 86.692 0 156.989.089 156.989.193Z" fill="#333"/><path d="m285.029 260.388-147.045-.082c-4.548 0-8.234-3.847-8.227-8.579l.115-227.335c0-4.739 3.692-8.579 8.233-8.571l147.045.081c4.548 0 8.234 3.848 8.227 8.587l-.115 227.335c.008 4.731-3.685 8.571-8.233 8.564Z" fill="#263238"/><path d="M287.873 32.755H134.669V236.94h153.204V32.755Z" fill="#fff"/><path d="M217.79 248.066c0 3.609-2.808 6.536-6.28 6.536-3.465 0-6.273-2.934-6.273-6.544 0-3.61 2.808-6.536 6.28-6.536 3.465.007 6.273 2.934 6.273 6.544Z" fill="#A3A3A3"/><path d="m235.384 25.618-47.513-.03a.877.877 0 0 1-.863-.906v-.899c0-.498.385-.906.87-.899l47.513.03c.478 0 .87.401.863.906v.899c0 .49-.392.899-.87.899Z" fill="#646464"/><path d="M281.35 208.685c-1.019 0-1.839-.862-1.839-1.917l.071-144.956c0-1.062.827-1.916 1.84-1.916 1.019 0 1.839.861 1.839 1.916l-.071 144.956c0 1.063-.827 1.917-1.84 1.917Z" fill="#E0E0E0"/><path d="M243.361 49.46c0 .104-14.215.186-31.744.178-17.537-.007-31.744-.104-31.744-.208 0-.103 14.207-.185 31.744-.178 17.529.008 31.744.104 31.744.208ZM149.554 53.137c.007-.008.071-.008.207-.015.164-.008.349-.015.57-.022.549-.015 1.24-.03 2.096-.052l-.064.066c-.007-.482-.014-1.017-.029-1.582 0-.297-.021-.571 0-.913a.834.834 0 0 1 .713-.684c.342-.007.635-.022 1.005-.007.385.052.706.43.699.854l.021 2.31-.107-.111c.849-.008 1.733-.015 2.645-.03l-.114.119c-.007-1.107-.021-2.258-.028-3.432 0-.29-.008-.586-.008-.876 0-.267-.149-.438-.37-.639-.392-.4-.777-.802-1.155-1.188-.378-.387-.749-.773-1.112-1.152a35.12 35.12 0 0 1-.542-.557c-.185-.185-.328-.378-.542-.423a.67.67 0 0 0-.599.119c-.156.141-.328.342-.491.505-.328.342-.642.676-.949.995-.598.647-1.219 1.233-1.668 1.79-.192.305-.121.676-.135 1.025 0 .342 0 .661-.007.973-.007.594-.007 1.114-.015 1.56-.007.394-.007.72-.014 1.003 0 .237 0 .364-.007.364-.007.007-.014-.104-.021-.327-.007-.275-.015-.594-.029-.98-.007-.453-.021-.98-.036-1.575l-.021-.988c0-.178-.007-.357-.007-.542 0-.2.05-.401.15-.58.492-.63 1.076-1.18 1.675-1.842l.941-1.002c.171-.171.306-.342.513-.528a.88.88 0 0 1 .777-.156c.285.067.471.312.642.476.178.185.356.364.542.557l1.119 1.144c.378.386.763.787 1.155 1.188.185.17.449.46.435.81 0 .29.007.586.007.876l.021 3.432v.118h-.114c-.912.008-1.796.008-2.645.015h-.107v-.111c0-.802-.007-1.575-.007-2.31.014-.327-.235-.616-.52-.654-.3-.014-.663-.007-.955-.007-.279.022-.514.26-.564.527-.028.275-.007.602-.014.877V53.21h-.064c-.87-.007-1.576-.015-2.132-.022-.213-.008-.392-.008-.556-.015-.128-.022-.192-.03-.185-.037ZM270.793 45.761a.114.114 0 0 0-.079-.037l-6.23-.037h-1.832l-.542.007-.05-.371-.093-.728a.11.11 0 0 0-.107-.096h-.028l-1.704.007c-.135 0-.228.007-.228.119 0 .111.085.111.228.119l1.583.037.884 7.115a.109.109 0 0 0 .107.097l5.089.022 1.911-.007c.164 0 .242-.008.242-.119 0-.111-.078-.111-.242-.119l-6.829-.096-.164-1.263 7.178.104c.05 0 .093-.037.107-.09l.528-2.978.285-1.597c.014-.03.007-.06-.014-.089Zm-8.648.164 8.327.111-.734 4.167-5.112-.022h-1.518l-.406.007-.557-4.263ZM264.612 53.65a.827.827 0 0 0-1.091-.646c-.335.11-.577.46-.577.838-.007.424.278.75.563.847.1.037.193.052.285.052.214 0 .407-.089.521-.186a.861.861 0 0 0 .299-.49c.007-.052.021-.14.014-.208a.663.663 0 0 0-.014-.208Zm-1.005.75a.594.594 0 0 1-.364-.55.58.58 0 0 1 .563-.58c.143 0 .264.052.343.12a.653.653 0 0 1 .221.326c.014.052.021.097.028.126 0 .008 0 .015.007.023 0 .007 0 .014-.007.022l-.028.126a.63.63 0 0 1-.228.327.602.602 0 0 1-.535.06ZM269.182 53.687a.829.829 0 0 0-1.091-.646c-.335.11-.578.467-.578.839-.007.423.278.75.564.846a.793.793 0 0 0 .285.052c.214 0 .406-.089.52-.185a.914.914 0 0 0 .3-.49c.007-.053.021-.142.014-.209a.9.9 0 0 0-.014-.207Zm-1.006.75a.604.604 0 0 1-.363-.55.59.59 0 0 1 .371-.542.586.586 0 0 1 .192-.037c.143 0 .264.06.342.118a.64.64 0 0 1 .221.327c.014.052.022.097.029.127 0 .007 0 .014.007.022 0 .007 0 .015-.007.022l-.029.126a.619.619 0 0 1-.228.327.602.602 0 0 1-.535.06Z" fill="#263238"/><path d="m229.268 79.542-2.082 30.72c-.342 5.014-4.341 8.906-9.167 8.906-5.311 0-9.524-4.68-9.175-10.206.185-2.926.349-5.318.349-5.318s-7.136-1.159-7.228-8.594c-.05-4.293.663-14.038 1.268-21.51.414-5.05 4.47-8.92 9.332-8.92h4.313c7.421.453 13.024 7.197 12.39 14.922Z" fill="#FFBE9D"/><path d="M204.574 80.641c.128.141.898-.46 1.996-.453 1.098-.015 1.903.572 2.017.438.057-.06-.071-.312-.42-.58-.343-.267-.934-.52-1.619-.52-.684.008-1.254.268-1.589.536-.335.267-.449.52-.385.579ZM214.354 83.813c-.021.564.421 1.04.984 1.07a.983.983 0 0 0 1.048-.96 1.042 1.042 0 0 0-.984-1.069.988.988 0 0 0-1.048.959ZM204.559 83.813c-.021.564.421 1.04.984 1.07a.983.983 0 0 0 1.048-.96 1.042 1.042 0 0 0-.984-1.069.996.996 0 0 0-1.048.959ZM215.167 80.797c.128.141.898-.46 1.996-.453 1.098-.015 1.903.572 2.017.43.058-.059-.071-.311-.42-.579-.342-.267-.934-.52-1.618-.52-.685.008-1.255.268-1.59.535-.335.275-.449.528-.385.587ZM211.268 89.688c.007-.067-.678-.186-1.783-.335-.278-.03-.541-.089-.591-.29-.064-.207.05-.526.185-.86.264-.706.542-1.45.827-2.222 1.148-3.164 1.982-5.763 1.861-5.815-.122-.045-1.155 2.48-2.303 5.645-.278.78-.542 1.522-.791 2.235-.107.334-.285.706-.143 1.144a.7.7 0 0 0 .464.424c.178.059.335.059.477.066 1.098.067 1.789.075 1.797.008ZM214.497 90.475c-.178-.007-.178 1.233-1.198 2.11-1.019.883-2.288.742-2.295.92-.014.075.285.238.82.253.527.022 1.29-.156 1.917-.698.62-.542.891-1.263.927-1.768.043-.512-.093-.824-.171-.817ZM215.238 76.652c.107.312 1.205.164 2.488.327 1.291.134 2.331.528 2.495.245.079-.133-.107-.423-.527-.728-.414-.297-1.077-.586-1.854-.675-.77-.09-1.483.037-1.946.237-.463.208-.706.446-.656.594ZM204.403 77.195c.192.26.948-.008 1.86-.023.906-.044 1.675.171 1.854-.096.078-.134-.043-.394-.378-.639-.328-.245-.884-.446-1.511-.423-.628.022-1.162.252-1.483.52-.321.267-.428.534-.342.66Z" fill="#263238"/><path d="M226.858 85.12c.121-.052 4.905-1.508 4.748 3.572-.157 5.08-5.026 3.87-5.026 3.73 0-.15.278-7.302.278-7.302Z" fill="#FFBE9D"/><path d="M229.574 84.949c-.741-.186-2.031.527-2.345 1.255-.321.728-.385 1.545-.706 2.273-.314.728-1.034 1.382-1.775 1.203-.513-.126-.884-.631-1.019-1.158-.136-.535-.079-1.092-.015-1.642.286-2.377.77-4.731.856-7.123.093-2.392-.235-4.872-1.44-6.915-1.205-2.035-3.422-3.535-5.71-3.342-1.519.126-2.909.95-4.413 1.173-1.789.26-3.671-.393-4.954-1.723-.164-.17-.927-.69-.927-.69 0-.127.114-1.19.513-1.575 2.987-2.882 8.376-3.684 12.326-2.652 3.949 1.032 7.649 3.937 9.345 7.791 1.704 3.863 1.198 9.225.264 13.125Z" fill="#263238"/><path d="M202.456 72.203c.642 1.545 2.275 2.444 3.878 2.615 1.604.17 3.208-.268 4.762-.72 1.555-.461 5.718-1.182 7.336-1.13.242.008.535 0 .663-.208.171-.282-.1-.624-.356-.832-2.125-1.738-7.272-2.8-9.966-2.919-2.702-.118-5.532 1.092-7.001 3.462" fill="#263238"/><path d="M203.155 72.396s2.082-2.213 5.318-2.503c6.174-.55 16.296 1.426 21.607 12.5 0 0 1.112-3.624 1.112-5.89 0-1.514-.869-10.517-9.759-13.354-.007.008-13.402-5.318-18.278 9.247Z" fill="#61D690"/><path d="M203.155 72.396s2.132-2.644 5.953-2.815c5.524-.252 15.961 2.385 20.972 12.82 0 0 1.112-3.624 1.112-5.89 0-1.515-.869-10.517-9.759-13.354-.007 0-13.402-5.326-18.278 9.24Z" fill="#000" opacity=".4"/><path d="M229.246 80.82c-2.666-4.673-6.658-7.881-10.957-10.682-4.305-2.8-11.42-5.57-16.324-6.93-1.476-.408-3.009-.764-4.513-.49-1.504.268-2.973 1.315-3.343 2.852-.464 1.924 2.816 4.903 4.355 6.069 1.54 1.166 4.691 2.882 4.691 2.882s-.043-3.588 5.446-4.308c7.486-.996 20.873 10.807 20.645 10.606Z" fill="#61D690"/><path d="M219.28 66.863c-.057.111-2.096-1.337-4.997-2.05-2.894-.75-5.339-.438-5.347-.565-.007-.044.592-.185 1.583-.223.991-.044 2.367.045 3.85.416 1.475.38 2.737.959 3.6 1.471.862.505 1.333.914 1.311.95Z" fill="#fff"/><path d="M256.129 188.043c0 .104-18.25.194-40.762.194-22.513 0-40.763-.09-40.763-.194 0-.104 18.25-.193 40.763-.193 22.512 0 40.762.082 40.762.193Z" fill="#263238"/><path d="m180.493 127.264-10.494 4.947-16.282-13.831-4.961 8.186s9.274 11.178 12.71 14.974c3.436 3.795 5.725 5.823 8.433 5.459 2.709-.364 18.172-7.955 18.172-7.955s-3.643-11.297-7.578-11.78Z" fill="#FFBE9D"/><path d="M135.881 111.406s2.046 1.604 3.386 1.5c1.34-.104 6.409-.126 6.787-.096.378.03 5.318 2.83 5.318 2.83l3.621 3.632-5.681 8.23s-.941-1.122-1.576-1.04c-.641.089-8.447-.617-9.624-1.033-1.176-.416-2.68-.653-3.072-1.411-.392-.758-.485-1.292.599-2.265 0 0-1.44-1.159-.392-2.6 0 0-1.626-1.24-1.041-2.384 0 0-.927-.394-1.07-1.003-.149-.602.065-1.909.065-1.909l2.331-.758c-.022-.007-.72-.846.349-1.693Z" fill="#FFBE9D"/><path d="M134.961 113.27c0-.029.107-.052.3-.104.192-.044.463-.171.87-.185.406.014.848.163 1.268.512.414.334.706 1.018.485 1.671a1.19 1.19 0 0 1-.634.713c-.271.127-.528.171-.763.223-.428.089-.841.186-1.255.268-.713.141-1.162.208-1.176.156-.014-.052.414-.208 1.112-.416.407-.112.813-.231 1.233-.349.471-.119.984-.238 1.12-.721.157-.475-.029-.98-.357-1.27a2.09 2.09 0 0 0-1.048-.513c-.328-.022-.627.06-.834.06-.199.007-.321-.015-.321-.045ZM137.884 115.402c-.007-.022.193-.082.549-.156a7.736 7.736 0 0 1 1.54-.178c.649-.008 1.483.082 2.253.609.37.26.734.661.848 1.211.114.519-.057 1.195-.585 1.507-.513.29-1.026.26-1.475.312-.464.037-.906.075-1.34.112-.82.059-1.583.111-2.267.163-1.291.082-2.089.104-2.096.052-.007-.052.791-.171 2.074-.327l2.26-.245 1.333-.134c.463-.052.955-.051 1.319-.274.364-.208.492-.684.413-1.1-.078-.408-.363-.757-.684-.995-.67-.475-1.44-.602-2.06-.624-1.269-.022-2.075.141-2.082.067ZM142.703 118.38c.007-.022.15.023.3.231.142.2.271.594.135 1.047-.135.46-.563.869-1.098 1.07-.541.215-1.162.215-1.768.245-2.452.118-4.398.624-4.427.512-.028-.089 1.911-.772 4.413-.899.627-.029 1.205-.029 1.675-.193.471-.156.834-.482.97-.824a1.161 1.161 0 0 0-.014-.884c-.1-.193-.2-.282-.186-.305ZM150.794 119.814c.015.045-.363.245-1.026.416-.663.171-1.618.267-2.666.126-1.041-.148-1.939-.505-2.538-.854-.599-.342-.913-.646-.891-.683.057-.104 1.461.884 3.479 1.151 2.003.297 3.614-.275 3.642-.156Z" fill="#727272"/><path d="M142.668 116.019c.05-.097.556.089 1.176.007.627-.067 1.083-.364 1.148-.275.078.067-.357.58-1.105.661-.749.089-1.276-.312-1.219-.393ZM142.112 124.129c-.093-.007.128-1.129 1.083-2.042.941-.929 2.032-1.085 2.032-.981.036.112-.92.416-1.775 1.263-.884.832-1.241 1.805-1.34 1.76Z" fill="#727272"/><path d="M125.195 145.499h30.967l5.746 47.179H119.15l6.045-47.179ZM156.162 145.499h3.579l10.565 47.179h-8.398l-5.746-47.179Z" fill="#61D690"/><path opacity=".3" d="M156.162 145.499h3.579l10.565 47.179h-8.398l-5.746-47.179Z" fill="#000"/><path d="M138.868 120.965c0-.022.093-.052.25-.015.156.037.377.179.541.439.164.252.25.675.1 1.069-.135.394-.449.743-.841.951-.556.297-1.126.312-1.576.319l.136-.096c-.406.809-.891 1.173-.927 1.121-.057-.052.328-.483.642-1.262l.035-.09.1-.007c.435-.037.955-.089 1.412-.334.32-.178.577-.446.691-.743.121-.29.093-.587-.007-.81-.2-.445-.57-.49-.556-.542Z" fill="#727272"/><path d="M133.065 147.556c-.028-.008 0-.342.064-.958.065-.617.186-1.501.357-2.585.335-2.176.905-5.17 1.575-8.453.67-3.29 1.276-6.261 1.676-8.422.192-1.025.349-1.88.477-2.563.114-.602.186-.936.207-.936.028.008 0 .342-.064.958a52.903 52.903 0 0 1-.357 2.585c-.335 2.176-.905 5.17-1.575 8.453-.67 3.29-1.276 6.261-1.675 8.423-.193 1.025-.35 1.879-.478 2.562-.107.609-.185.936-.207.936ZM149.411 148.031c-.021.008-.142-.378-.342-1.084-.206-.773-.477-1.783-.798-2.993a755.348 755.348 0 0 1-2.502-9.916 989.725 989.725 0 0 1-2.403-9.946c-.278-1.225-.506-2.243-.684-3.023-.157-.713-.228-1.114-.2-1.121.022-.008.143.379.342 1.084.207.773.478 1.783.799 2.993a755.348 755.348 0 0 1 2.502 9.916 941.907 941.907 0 0 1 2.402 9.946c.278 1.225.507 2.243.685 3.023.15.713.221 1.114.199 1.121Z" fill="#61D690"/><path d="M170.306 192.678c-.036.045-.599-.379-1.49-1.084a148.382 148.382 0 0 1-4.099-3.402l.271-.045a150.504 150.504 0 0 1-2.132 3.269c-.549.809-.905 1.292-.941 1.262-.035-.029.243-.557.742-1.404.499-.846 1.212-2.02 2.031-3.335l.114-.178.157.134c.214.186.442.371.67.564a150.387 150.387 0 0 1 3.365 2.919c.834.765 1.347 1.263 1.312 1.3Z" fill="#263238"/><path d="M158.044 145.499c.1-.015 1.704 9.492 3.579 21.242 1.875 11.751 3.315 21.288 3.208 21.303-.1.014-1.704-9.493-3.579-21.243-1.875-11.751-3.307-21.288-3.208-21.302Z" fill="#263238"/><path d="M157.966 158.89s-.228.268-.72.713a12.574 12.574 0 0 1-2.36 1.672 13.734 13.734 0 0 1-4.277 1.53c-1.739.297-3.821.364-5.967-.364-1.062-.372-2.131-.966-2.994-1.902-.855-.921-1.518-2.161-1.632-3.572-.114-1.404.435-2.905 1.54-3.878a3.458 3.458 0 0 1 2.01-.869c.748-.066 1.504.119 2.181.476a5.198 5.198 0 0 1 1.754 1.515c.47.646.798 1.396.998 2.191.399 1.59.306 3.29-.014 4.925-.649 3.29-2.331 6.476-4.862 8.883-1.269 1.196-2.695 2.184-4.242 2.837-1.54.661-3.208.996-4.826.862-1.618-.141-3.179-.758-4.405-1.775-1.241-1.003-2.118-2.459-2.36-4.011-.25-1.545.028-3.15.834-4.397.777-1.241 2.131-2.11 3.529-1.983.691.059 1.326.445 1.746.98.428.527.67 1.166.792 1.797.249 1.285 0 2.541-.407 3.625-.862 2.184-2.452 3.684-3.97 4.613-1.547.921-3.037 1.344-4.249 1.604a20.52 20.52 0 0 1-2.83.379c-.328.022-.578.029-.742.037-.164 0-.249 0-.256-.008 0-.007.085-.014.249-.037.185-.015.428-.044.734-.074a23.675 23.675 0 0 0 2.809-.446c1.198-.274 2.666-.72 4.178-1.641 1.475-.921 3.015-2.407 3.835-4.523.385-1.048.613-2.266.371-3.469-.122-.594-.35-1.189-.742-1.664-.378-.475-.934-.81-1.547-.862-1.24-.111-2.502.691-3.222 1.857-.749 1.166-1.012 2.689-.763 4.145.228 1.463 1.055 2.83 2.239 3.788 1.169.966 2.666 1.56 4.213 1.693 3.144.26 6.344-1.277 8.79-3.602 2.466-2.347 4.12-5.467 4.754-8.675.321-1.597.407-3.246.029-4.754a5.983 5.983 0 0 0-.934-2.065 4.885 4.885 0 0 0-1.632-1.418c-.628-.327-1.326-.506-2.004-.446a3.155 3.155 0 0 0-1.825.787c-1.026.892-1.547 2.295-1.447 3.595.093 1.315.72 2.503 1.533 3.387.813.891 1.846 1.478 2.873 1.85 2.081.72 4.135.675 5.845.408a13.768 13.768 0 0 0 4.242-1.448 13.755 13.755 0 0 0 2.381-1.605c.257-.2.442-.378.57-.49.129-.119.2-.178.2-.171Z" fill="#fff"/><path d="M201.794 112.817h-5.582c-1.804.654-16.297 13.503-16.297 13.503l8.191 13.415 10.622-6.47 3.066-20.448Z" fill="#61D690"/><path d="m196.212 112.817 12.332-4.88s1.804 3.937 7.293 3.098c5.489-.84 11.969-4.88 11.969-4.88s9.453 5.63 12.24 7.969c2.788 2.348-2.252 51.496-2.252 51.496l-1.262 14.729s.991.75.991 3.283c0 2.532.092 4.218.092 4.218h-48.853s-1.19-5.912-.292-8.252c.898-2.347 2.388-4.686 2.388-4.686l.763-22.699.271-20.262 4.32-19.134Z" fill="#61D690"/><path d="M240.046 114.132s3.943 1.159 5.112 7.249c1.169 6.091.955 29.354.955 29.354l-22.014-4.969s2.987-9.767 2.987-10.428c0-.662 6.06-16.393 6.274-16.727.213-.335 6.686-4.479 6.686-4.479Z" fill="#61D690"/><path d="M191.514 122.384c.1 0 .242 4.063.314 9.084.071 5.021.042 9.084-.057 9.091-.1 0-.243-4.063-.314-9.084-.071-5.021-.043-9.091.057-9.091ZM229.845 124.56c.029.008-.007.29-.085.81a77.18 77.18 0 0 1-.378 2.176 122.788 122.788 0 0 1-1.576 7.093 124.835 124.835 0 0 1-1.981 6.99 69.696 69.696 0 0 1-.699 2.087c-.178.49-.285.757-.307.743-.021-.008.036-.29.171-.795.164-.579.357-1.293.585-2.117a318.03 318.03 0 0 0 1.875-7.004 283.97 283.97 0 0 0 1.675-7.056l.492-2.147c.121-.505.2-.78.228-.78ZM227.778 124.07c.1.007.078 2.102-.05 4.679-.128 2.578-.321 4.665-.421 4.665-.1-.008-.078-2.102.05-4.68.128-2.584.314-4.671.421-4.664Z" fill="#263238"/><path d="M222.289 131.75c0 .104-2.118.193-4.727.193-2.609 0-4.726-.089-4.726-.193 0-.104 2.117-.193 4.726-.193s4.727.089 4.727.193Z" fill="#fff"/><path d="m197.06 165.144 24.359-3.052 3.842-16.066 13.63 3.075s-5.389 22.305-10.942 24.459-33.035-1.486-33.035-1.486l2.146-6.93Z" fill="#FFBE9D"/><path d="M196.062 164.966s-2.93-1.255-4.056-1.433c-1.134-.171-2.46.081-2.795.653l-6.572 3.974s-4.855-.483-5.319.654c0 0-3.101-.914-3.6-.26 0 0-1.546.52-1.297 1.262.25.743 5.86 2.793 5.86 2.793l7.706.832s2.93-1.656 4.149-1.79c1.212-.134 3.636.334 3.493.29-.1-.038 4.491.534 4.491.534s.941-1.04 1.312-3.921c.378-2.882 0-3.491 0-3.491l-3.372-.097Z" fill="#FFBE9D"/><path d="M192.811 168.628c0 .022-.206.03-.477-.193-.278-.201-.507-.676-.934-.981-.214-.141-.506-.2-.841-.267-.328-.06-.742-.163-1.056-.483a2.007 2.007 0 0 1-.563-1.203c-.057-.461.064-1.01.414-1.382.691-.728 1.675-.876 2.452-.705.784.178 1.39.594 1.839.98.449.394.763.758.97 1.01.207.253.313.409.292.424-.05.052-.535-.505-1.426-1.218-.449-.342-1.033-.706-1.746-.847-.685-.149-1.554.03-2.11.616-.535.587-.357 1.59.121 2.065.47.505 1.276.372 1.803.773.499.416.656.884.884 1.099.207.238.385.282.378.312ZM188.748 167.298c-.007.067-.371.045-.891.29-.535.208-1.162.772-2.103 1.04-.97.208-1.782-.112-2.346-.193-.57-.112-.926-.089-.941-.141-.014-.045.364-.171.97-.127.599.015 1.411.275 2.231.082.813-.215 1.504-.75 2.096-.914.599-.2.998-.074.984-.037ZM188.905 170.492c.014.022-.143.134-.442.305a7 7 0 0 1-1.348.534c-1.176.357-2.887.483-4.733.283-.92-.119-1.782-.268-2.574-.387-.784-.141-1.511-.185-2.103-.49-.285-.148-.52-.379-.627-.631a1.187 1.187 0 0 1-.093-.676c.079-.386.314-.475.314-.461.029.023-.15.149-.171.476-.021.319.15.824.692 1.047.513.23 1.254.26 2.038.386l2.567.357c1.817.193 3.471.111 4.633-.164 1.155-.267 1.818-.638 1.847-.579ZM225.461 168.591c-.107.037-.513-1.545-1.583-3.172-1.055-1.641-2.309-2.614-2.238-2.711.036-.089 1.447.78 2.545 2.488 1.112 1.701 1.369 3.387 1.276 3.395Z" fill="#61D690"/><path d="m43.806 256.303-.934 49.579 11.528 1.292 7.92-50.485-6.224-8.156-12.29 7.77Z" fill="#FFBE9D"/><path d="m55.811 304.723-.007.81s13.11 5.667 13.224 8.274l-26.156-.453v-9.077c3.857 1.939 8.426 2.243 12.939.446Z" fill="#00A355"/><path d="m42.872 313.354.121-2.177 25.03 1.233s1.154.55 1.012 1.404l-26.163-.46ZM39.037 104.81c-.185-2.28-1.504-4.597-3.6-5.288l-2.41 1.441c-2.544 1.218-3.885 4.62-2.908 7.353-3.151 1.872-4.235 6.707-2.203 9.834-1.568.758-2.238 2.748-2.21 4.546.029 1.797.578 3.543.735 5.333.12 1.381 0 2.785.242 4.152.242 1.366.955 2.755 2.188 3.275 1.298.543 2.852-.052 3.793-1.129.94-1.077 1.376-2.54 1.604-3.981.649-4.152-.193-8.482.805-12.56.55-2.221 1.619-4.256 2.517-6.343.898-2.094 1.64-4.352 1.447-6.633Z" fill="#263238"/><path d="M37.882 104.513c-2.73-.022-5.396-1.686-6.7-4.189-1.305-2.503-1.198-5.741.277-8.14.221-.364.492-.721.877-.884.813-.335 1.654.349 2.281.987 1.504 1.523 3.009 3.053 4.513 4.576" fill="#263238"/><path d="M38.003 98.638c-3.386-1.671-6.052-5.623-7.036-9.389-.99-3.765.15-11.393 1.127-15.167 1.19-4.59 3.015 1.315 4.512 1.798.891.29 1.518 1.166 1.782 2.094.271.929.236 1.924.207 2.897-.192 5.927-.392 11.847-.592 17.767ZM46.665 61.218c5.667-3.172 10.208-1.3 12.418.505 2.21 1.797 3.543 4.546 4.356 7.338.812 2.793 1.169 5.72 1.825 8.557.556 2.384.549 2.54.87 4.976.327 2.437.213 6.774-.977 8.891-1.148 2.035-2.388 3.848-4.277 5.147-.685.468-1.49.951-2.267.699-.564-.186-.949-.72-1.284-1.226-6.145-9.136-10.985-19.222-14.321-29.829" fill="#263238"/><path d="m40.363 68.036 9.81-4.122 2.566.297c5.774-.007 9.794 6.61 9.851 11.49.065 5.415-.057 12.033-.862 16.03-1.626 8.036-7.635 8.756-7.635 8.756 0-.015.071 2.191.135 4.888.114 4.842-3.678 8.809-8.326 8.705-4.434-.097-7.984-3.855-7.998-8.475l-.122-34.813c.036-1.47 1.162-2.674 2.581-2.756Z" fill="#FFBE9D"/><path d="M60.088 81.072c-.007.55-.463.995-1.012.995a.975.975 0 0 1-.984-.988c.007-.55.464-.995 1.012-.995a.967.967 0 0 1 .984.988ZM60.544 78.472c-.128.126-.855-.49-1.931-.55-1.07-.066-1.89.468-1.996.32-.057-.067.085-.305.442-.543a2.69 2.69 0 0 1 1.604-.423c.67.037 1.219.327 1.525.602.32.282.42.535.356.594ZM53.993 87.222c0-.067.67-.149 1.76-.238.279-.015.536-.06.593-.252.07-.201-.029-.52-.143-.855-.22-.705-.456-1.44-.706-2.213-.976-3.157-1.668-5.742-1.547-5.779.122-.037 1.013 2.481 1.99 5.638l.67 2.228c.085.327.249.706.085 1.13a.693.693 0 0 1-.47.393 1.842 1.842 0 0 1-.471.044c-1.084 0-1.76-.03-1.76-.096ZM50.8 87.83c.178 0 .12 1.211 1.076 2.125.955.914 2.203.847 2.203 1.018.014.074-.285.222-.813.208-.513-.008-1.255-.223-1.84-.78-.584-.557-.812-1.278-.826-1.775-.029-.513.114-.81.2-.795ZM60.388 75.345c-.2.245-.927-.06-1.818-.119-.884-.089-1.647.082-1.81-.193-.072-.134.063-.379.398-.602.335-.222.884-.393 1.497-.341.613.052 1.127.312 1.426.587.307.282.4.55.307.668ZM48.233 81.005c-.028.55.4 1.025.948 1.062a.968.968 0 0 0 1.041-.921 1.02 1.02 0 0 0-.948-1.062.963.963 0 0 0-1.04.92ZM46.223 78.338c.121.134.884-.438 1.96-.416 1.077 0 1.854.587 1.975.453.057-.059-.064-.304-.407-.572-.334-.267-.905-.52-1.575-.527-.67-.007-1.233.245-1.561.505-.335.253-.45.498-.392.557ZM46.693 74.788c.186.26.927 0 1.818 0 .891-.03 1.64.193 1.818-.074.078-.127-.036-.386-.364-.632-.32-.245-.862-.445-1.475-.438-.613.015-1.148.238-1.455.49-.313.275-.42.535-.342.654ZM49.039 63.053c-2.488-1.04-6.288-.691-8.42.995-2.13 1.686-3.464 4.33-3.949 7.07-.485 2.749.164 6.812.863 9.508 4.02-5.4 8.162-11.624 12.04-17.128l-.534-.445Z" fill="#263238"/><path d="M50.942 60.601c13.63-1.998 12.368 19.475 12.368 19.475-1.361-7.91-11.933-16.192-11.933-16.192l-2.146-.379 1.711-2.904Z" fill="#263238"/><path d="M38.624 84.488c.028-.601-.57-2.057-1.141-2.183-1.518-.327-4.27-.342-4.491 3.699-.3 5.518 5.083 4.694 5.097 4.538.014-.126.435-3.966.535-6.054Z" fill="#FFBE9D"/><path d="M37.283 88.35c-.021-.022-.092.06-.256.127a.87.87 0 0 1-.692-.03c-.549-.245-.97-1.203-.94-2.198.013-.505.142-.973.334-1.36.186-.393.45-.66.735-.698a.46.46 0 0 1 .527.297c.064.156.021.268.05.275.014.015.121-.089.086-.32a.594.594 0 0 0-.193-.356.683.683 0 0 0-.506-.17c-.414.007-.798.378-1.012.802a3.447 3.447 0 0 0-.407 1.522c-.028 1.114.464 2.191 1.22 2.466a.965.965 0 0 0 .855-.096c.185-.127.22-.246.2-.26Z" fill="#00A355"/><path d="M32.386 71.282c1.354-3.788 4.092-6.915 7.293-9.202 1.71-1.226 3.621-2.258 5.688-2.511 2.068-.26 4.313.364 5.682 1.99l.385.409c-2.345 5.415-3.992 9.99-7.015 15.033-1.112 1.85-1.582 8.156-1.853 10.317-.913 7.39-4.79 10.555-4.79 10.555-8.398 0-6.745-22.81-5.39-26.59Z" fill="#263238"/><path d="M36.492 96.996c-.014.045-.428-.044-1.04-.349a7.178 7.178 0 0 1-2.118-1.656 7.58 7.58 0 0 1-1.39-2.347c-.235-.669-.278-1.107-.235-1.114.107-.045.527 1.664 1.896 3.201 1.347 1.56 2.944 2.154 2.887 2.266ZM35.487 104.186c0 .097-1.126.008-2.196-.839-1.076-.839-1.475-1.939-1.383-1.961.1-.059.606.884 1.611 1.656.984.78 1.996 1.033 1.968 1.144ZM31.951 110.968c-.085.059-.57-.498-1.084-1.248-.513-.75-.862-1.411-.784-1.471.086-.059.57.498 1.084 1.248.52.75.87 1.411.784 1.471ZM29.22 119.331c-.078.067-.448-.245-.833-.698-.385-.461-.635-.884-.556-.958.078-.067.449.245.834.705.385.446.634.877.556.951ZM30.839 83.783c-.014-.022.35-.238 1.005-.61.328-.177.727-.408 1.176-.697.45-.29.977-.595 1.526-.988 1.12-.75 2.395-1.738 3.735-2.92a40.837 40.837 0 0 0 4.035-4.21 41.322 41.322 0 0 0 3.35-4.821c.906-1.567 1.64-3.038 2.175-4.308.292-.624.492-1.218.691-1.723.207-.505.357-.959.478-1.322.25-.736.392-1.137.42-1.13.022.008-.078.424-.284 1.174-.1.379-.229.832-.421 1.352-.185.52-.37 1.121-.649 1.76-.506 1.293-1.219 2.786-2.117 4.382a39.123 39.123 0 0 1-3.358 4.888 37.983 37.983 0 0 1-4.099 4.234c-1.368 1.18-2.666 2.154-3.814 2.881-.556.387-1.097.676-1.56.951-.464.275-.878.483-1.22.646-.684.312-1.062.483-1.07.46ZM43.949 77.165c.021.015-.121.2-.392.527-.264.327-.678.765-1.212 1.293a26.512 26.512 0 0 1-4.57 3.572c-1.932 1.181-3.814 1.99-5.21 2.451-.7.23-1.27.394-1.669.483-.4.09-.62.126-.627.104-.015-.06.855-.312 2.21-.84 1.361-.52 3.2-1.351 5.104-2.525a32.015 32.015 0 0 0 4.584-3.439c1.105-1.002 1.739-1.67 1.782-1.626ZM63.731 84.214c-.029-.008.071-.439.221-1.211.15-.772.306-1.909.35-3.313.106-2.793-.443-6.789-2.539-10.51-2.095-3.714-5.182-6.157-7.577-7.42a18.612 18.612 0 0 0-2.952-1.292c-.72-.245-1.126-.357-1.119-.394 0-.015.107 0 .307.045.192.044.492.089.855.208.742.2 1.797.572 3.03 1.195 2.452 1.218 5.631 3.677 7.777 7.473 2.139 3.795 2.652 7.888 2.474 10.71-.079 1.426-.278 2.563-.47 3.335-.086.386-.186.683-.243.876-.064.201-.1.305-.114.298Z" fill="#F45065"/><path d="M126.906 134.424c-.364.386-.449 1.24-.235 1.723.214.483.627.839 1.062 1.122a9.87 9.87 0 0 0 1.754-2.615M123.805 133.488c-.442.282-.734 1.084-.642 1.612.093.527.414.973.756 1.366a9.534 9.534 0 0 0 2.317-2.079" fill="#727272"/><path d="M53.508 108.992s23.447 19.222 27.674 19.854c4.227.631 24.01-1.865 32.122-2.132l1.148 7.093s-22.406 7.926-30.554 8.245c-8.148.312-12.824-1.976-12.824-1.976l-15.242-16.259-2.324-14.825Z" fill="#FFBE9D"/><path d="M112.784 126.788s10.472-1.552 12.097-.705c1.626.847 6.302 4.961 6.302 4.961s1.554 4.568.578 4.784c-.977.215-1.996-1.478-1.996-1.478l-1.326-2.541-5.846-1.485-9.709.891-.1-4.427Z" fill="#FFBE9D"/><path d="M114.452 133.815c.15.193 3.892 2.072 5.796 2.02 1.903-.052 4.077-1.597 5.717-1.366 1.64.237 5.033.512 5.446-.104.414-.61.528-1.323-.028-1.872-.556-.55-3.301-1.092-5.283-1.649-1.981-.557-2.937-1.411-2.937-1.411l-11.527 1.322-.656 3.743 3.472-.683Z" fill="#FFBE9D"/><path d="M119.435 129.314c0-.03.214-.045.606-.045.385.015.955.052 1.632.208 1.376.26 3.166 1.01 5.14 1.701a15.46 15.46 0 0 0 2.852.698c.449.075.927.186 1.276.513s.463.794.428 1.188a1.279 1.279 0 0 1-1.17 1.189c-.413.022-.605-.134-.598-.149.007-.037.213.067.577 0 .342-.052.905-.379.927-1.055.014-.319-.1-.69-.371-.921-.271-.245-.677-.341-1.119-.401a14.697 14.697 0 0 1-2.916-.683c-2.01-.698-3.757-1.478-5.09-1.805-1.319-.379-2.174-.364-2.174-.438Z" fill="#727272"/><path d="M126.977 131.572c-.035.096-.862-.201-1.696-.892-.834-.683-1.305-1.448-1.227-1.507.086-.067.656.557 1.455 1.203.798.661 1.518 1.099 1.468 1.196Z" fill="#727272"/><path d="m33.306 254.676-21.251 9.864 2.552 11.817s26.726-8.296 35.487-10.146c8.74-1.842 22.904-4.189 26.904-13.028l-43.693 1.493Z" fill="#FFBE9D"/><path d="m16.646 276.565-.742.208s-1.704 14.513-4.056 15.316l-6.523-26.071 8.298-2.407c-.748 4.345.185 8.958 3.023 12.954Z" fill="#00A355"/><path d="m5.325 266.018 2.025-.461 5.51 25.158s-.192 1.292-1.012 1.374l-6.523-26.071Z" fill="#263238"/><path d="M76.898 253.525s-.05.223-.228.624c-.171.401-.5.95-1.02 1.582-1.033 1.27-2.844 2.778-5.24 4.352-1.218.773-2.644 1.449-4.205 2.05-1.569.632-3.322 1.01-5.126 1.493-3.621.951-7.6 2.043-11.77 3.187-8.333 2.295-15.868 4.367-21.371 5.875l-6.495 1.723c-.741.186-1.333.334-1.775.438-.406.097-.62.141-.627.127 0-.015.207-.082.606-.201a471.6 471.6 0 0 0 1.754-.513c1.56-.445 3.756-1.069 6.458-1.842 5.46-1.544 12.996-3.691 21.344-5.986a791.895 791.895 0 0 1 11.783-3.157c1.818-.475 3.558-.839 5.105-1.448 1.554-.587 2.972-1.241 4.177-1.983 2.403-1.538 4.22-3.001 5.268-4.219 1.077-1.211 1.319-2.132 1.362-2.102Z" fill="#00A355"/><path d="m43.143 158.571.478 4.36s-7.357 14.491-7.357 22.268c0 7.776-3.393 69.678-3.393 69.678s39.913 2.369 44.134-1.694c4.22-4.063 4.22-4.055 4.22-4.055l14.279-4.056-22.278-84.696v-4.538l-30.083 2.733Z" fill="#263238"/><path d="M70.453 179.546c.008 0 .022.06.043.171.022.134.05.305.079.505.064.483.156 1.129.27 1.954.236 1.73.564 4.181.97 7.189A689.385 689.385 0 0 0 75.486 213a691.472 691.472 0 0 0 4.527 23.479c.634 2.963 1.155 5.377 1.518 7.085.172.81.307 1.456.407 1.932.035.2.071.364.1.505.021.111.028.17.021.178-.007 0-.028-.052-.057-.164-.036-.133-.078-.297-.135-.497-.115-.468-.279-1.107-.478-1.909-.406-1.664-.97-4.07-1.633-7.056-1.333-5.972-3.03-14.261-4.633-23.471-1.597-9.21-2.802-17.589-3.565-23.672-.385-3.038-.67-5.504-.848-7.205-.085-.824-.15-1.485-.2-1.961a15.9 15.9 0 0 0-.042-.512c-.022-.126-.022-.186-.015-.186ZM41.782 187.301c.014 0 .07.163.164.49.107.364.235.839.406 1.426.356 1.278.863 3.06 1.476 5.244a395.669 395.669 0 0 0 5.31 17.143 390.96 390.96 0 0 0 6.11 16.853c.827 2.102 1.497 3.818 1.989 5.05.22.572.399 1.026.534 1.375.122.319.179.482.164.49-.014.007-.092-.156-.235-.461a212.8 212.8 0 0 0-.599-1.352 211.748 211.748 0 0 1-2.096-5.006c-1.725-4.248-3.977-10.183-6.216-16.831a302.888 302.888 0 0 1-5.21-17.194 199.091 199.091 0 0 1-1.362-5.281c-.143-.595-.25-1.077-.336-1.441-.078-.327-.114-.498-.1-.505ZM74.588 162.426c0 .029-.428.081-1.197.156-.77.074-1.89.163-3.28.245-2.766.178-6.601.327-10.835.349-4.235.015-8.07-.104-10.836-.26a111.558 111.558 0 0 1-3.28-.215c-.77-.067-1.197-.119-1.197-.142 0-.029.428-.029 1.205-.007.841.022 1.946.059 3.279.097 2.773.081 6.601.163 10.829.141 4.227-.023 8.055-.134 10.821-.238 1.34-.052 2.445-.089 3.28-.126.776-.03 1.204-.03 1.211 0Z" fill="#F45065"/><path d="M54.143 105.88c-.193-.475 14.157 11.453 15.961 17.262 1.804 5.808 2.11 22.564 2.11 22.564l1.005 10.756-28.657 2.109-.77-2.109-2.117-5.994-2.952-9.055s-7.064-11.431-8.461-16.355c-1.74-6.113 1.147-12.374 1.147-12.374l6.48-7.621 16.254.817Z" fill="#00A355"/><path d="M37.896 105.612s-1.59-3.075-.605-4.412c.777-1.062 14.57.268 17.394.892 1.654.364-.029 4.204-.029 4.204l-16.76-.684Z" fill="#00A355"/><path d="M46.166 120.096c1.205 3.239-.5 13.303-.756 15.702-.264 2.399-.912 4.724-1.582 7.034-.314 1.07-.606 2.31-.022 3.253.941 1.515 3.365 1.085 4.534 2.422a10.932 10.932 0 0 1-7.057.854c-.414-.089-.849-.223-1.12-.565-.206-.26-.278-.609-.342-.943-.677-3.521-.976-7.175-.328-10.711.649-3.528 3.885-12.002 6.601-14.216" fill="#000" opacity=".3"/><path d="M46.665 124.538c.092.03-.342 1.664-1.376 3.446-1.027 1.79-2.21 2.956-2.274 2.89-.086-.075.955-1.337 1.953-3.09 1.012-1.738 1.597-3.283 1.697-3.246ZM54.685 105.932c.007.03-.229.089-.656.186-.428.096-1.048.208-1.825.319a33.42 33.42 0 0 1-6.095.252 32.903 32.903 0 0 1-6.045-.883 18.41 18.41 0 0 1-1.783-.513c-.413-.141-.641-.23-.634-.26.014-.059.948.193 2.474.498 1.525.312 3.642.639 6.01.765 2.359.119 4.505.015 6.051-.134 1.533-.141 2.488-.29 2.503-.23ZM64.779 134.803c-.064-.022.185-.825.378-2.154.2-1.33.27-3.201-.064-5.214-.35-2.021-1.034-3.751-1.661-4.925-.62-1.181-1.12-1.842-1.07-1.886.022-.015.157.133.4.423.242.29.556.735.898 1.322.691 1.159 1.44 2.927 1.796 4.991.35 2.073.228 3.996-.043 5.333-.128.669-.27 1.204-.406 1.56-.128.364-.207.557-.228.55Z" fill="#263238"/><path d="M45.788 106.444c-2.26-.208-4.912-.49-7.114-1.054 3.279 1.827 7.278 2.778 10.964 2.287 1.375-.178 2.83-.586 3.742-1.678-2.11.861-5.34.646-7.592.445ZM61.963 138.219c2.574-2.792 3.842-6.84 3.343-10.673.392 1.5.471 2.325.528 3.877.057 1.553-.121 3.038-.998 4.293-.877 1.248-1.39 2.013-2.873 2.503Z" fill="#000" opacity=".3"/><path d="M41.988 113.56c-3.072-2.667-7.742-2.303-10.18.995-.1.141-.2.282-.292.431-1.49 2.325-5.589 38.534-3.956 42.872 1.632 4.338 4.013 4.026 4.013 4.026s10.75-.127 18.485-1.984c7.735-1.856 16.353-4.909 16.353-4.909l-1.425-8.772s-18.934 2.614-24.138 1.99l1.989-17.625s4.526-5.749 3.229-11.015c-.627-2.496-2.395-4.546-4.078-6.009ZM70.945 140.834l4.25-2.978 3.057-2.689s.378 1.329-.577 2.83c-.955 1.5-2.545 3.743-2.545 3.743l-4.185-.906Z" fill="#FFBE9D"/><path d="M77.29 139.036c-.036-.029.242-.341.534-.98a4.488 4.488 0 0 0 .279-2.845l.256.082a898.31 898.31 0 0 0-3.044 2.711l-.007.007-.007.008c-.071.052-.15.104-.228.156-.948.654-1.846 1.285-2.68 1.857-.828.572-1.569 1.077-2.239 1.441-1.312.757-2.132 1.21-2.153 1.158-.028-.044.749-.579 2.018-1.396.648-.394 1.375-.921 2.188-1.508.827-.587 1.725-1.218 2.66-1.879.078-.052.156-.111.227-.156l-.014.015c1.12-.966 2.16-1.872 3.08-2.667l.2-.17.056.252a4.45 4.45 0 0 1-.413 3.023 3.24 3.24 0 0 1-.485.691c-.143.141-.214.215-.228.2Z" fill="#00A355"/><path d="M69.413 148.306c.142-.297 11.32-13.28 14.079-16.474a1.16 1.16 0 0 1 1.426-.275c.698.371.876 1.329.349 1.938l-14.315 16.586-1.54-1.775Z" fill="#263238"/><path d="M81.31 142.639c.457-.646-.228-1.917-.862-2.266s-3.158 1.107-3.158 1.107l-.92.089s-4.911-1.032-5.075-.95c-.065.037-1.968.854-3.543 2.228-.514.445-.927.995-1.29 1.582-.379.594-1.291 1.582-3.43 2.117l2.082 8.816s4.562-1.121 4.912-1.121c.342 0 4.17-.327 4.676-.409.506-.089 2.666-.787 4.299-2.057 1.64-1.27.87-2.347.87-2.347 1.696-1.196.37-2.385.37-2.385l.47-.839c.7-1.344-.712-2.087-.712-2.087s.855-.832 1.312-1.478Z" fill="#FFBE9D"/><path d="M77.917 145.372c-.028-.096.506-.349 1.112-.743.606-.386 1.07-.772 1.14-.698.065.067-.306.587-.954 1.003-.656.416-1.276.527-1.298.438ZM79.35 147.764c-.057-.074.114-.327.392-.565.278-.237.55-.364.606-.289.057.074-.114.326-.392.564-.27.238-.549.372-.606.29ZM78.844 149.717c-.007-.096.278-.208.606-.341.335-.134.613-.246.67-.164.057.074-.164.349-.549.498-.378.156-.72.104-.727.007ZM77.29 141.48c.007.112-1.155.267-2.588.379-1.433.104-2.573.238-2.602.148-.028-.118 1.127-.43 2.567-.534 1.447-.112 2.616-.097 2.623.007ZM41.09 148.053c.078.075-.77 1.211-1.896 2.541-1.127 1.337-2.103 2.354-2.182 2.287-.078-.066.77-1.21 1.897-2.54 1.126-1.337 2.103-2.362 2.181-2.288Z" fill="#00A355"/><path d="M45.888 124.107c-.036-.007.05-.394.114-1.107.064-.705.114-1.745-.136-2.978s-.848-2.629-1.818-3.966a9.915 9.915 0 0 0-3.999-3.343c-1.682-.765-3.514-.928-5.018-.341-1.533.49-2.666 1.5-3.265 2.599-.613 1.085-.856 2.095-1.02 2.785-.156.691-.214 1.085-.25 1.077-.013 0-.006-.103.008-.289s.036-.468.1-.817c.12-.706.328-1.746.934-2.89a5.65 5.65 0 0 1 1.311-1.641 6.537 6.537 0 0 1 2.068-1.159c1.56-.631 3.528-.475 5.275.327a10.1 10.1 0 0 1 4.127 3.484c.977 1.381 1.576 2.837 1.797 4.122a9.07 9.07 0 0 1 .021 3.053 6.057 6.057 0 0 1-.17.809c-.036.186-.065.282-.08.275Z" fill="#263238"/><path d="M98.769 89.004H69.54c-1.198 0-2.174 1.01-2.174 2.266v29.517c0 1.248.97 2.265 2.174 2.265h10.764l4.206 6.21 3.65-6.21h10.615c1.198 0 2.174-1.01 2.174-2.265V91.27c-.007-1.255-.984-2.266-2.181-2.266Z" fill="#FAFAFA"/><path d="M98.769 89.004s.313-.066.862.149c.271.111.585.32.863.661.271.342.499.84.506 1.434.014 2.31.029 5.66.05 9.863.014 4.227.021 9.315.043 15.086 0 1.441.007 2.934.007 4.456.043.802-.335 1.657-1.012 2.132a2.33 2.33 0 0 1-1.134.423c-.406.023-.77.008-1.162.015-3.08.008-6.302.008-9.638.015l.15-.089c-1.155 1.968-2.388 4.063-3.643 6.209l-.143.245-.156-.237c-1.34-1.969-2.76-4.071-4.206-6.202l.15.081h-7.55c-1.176-.007-2.303.023-3.5-.022a2.342 2.342 0 0 1-1.583-.936c-.392-.497-.527-1.203-.492-1.797v-6.997c.007-4.583.008-9.01.015-13.221 0-2.11.007-4.16.007-6.157 0-1.003.007-1.984.007-2.957.028-1.047.784-1.983 1.725-2.228.478-.141.934-.067 1.369-.082h1.311c.87 0 1.718.008 2.553.008 1.668.007 3.272.007 4.797.015 6.102.022 11.05.044 14.486.06 1.696.014 3.022.029 3.935.036.435.008.777.015 1.026.023.236 0 .357.014.357.014s-.121.015-.35.023c-.249.007-.584.007-1.026.022-.92.007-2.239.022-3.935.037-3.436.015-8.383.037-14.486.06-1.532.007-3.13.007-4.797.014-.834 0-1.69.008-2.552.008H70.31c-.442.015-.898-.045-1.29.074-.813.215-1.462 1.025-1.483 1.931v2.942c0 1.998.007 4.048.007 6.157 0 4.211.007 8.638.014 13.221v6.997c-.028.587.086 1.114.414 1.56.32.43.805.728 1.333.794 1.105.03 2.302.008 3.457.015H80.405l.057.082c1.447 2.139 2.866 4.234 4.199 6.209l-.3.008c1.262-2.139 2.496-4.241 3.65-6.202l.05-.089h.1c3.344.007 6.566.007 9.638.015.378 0 .777.007 1.134-.008.35-.022.691-.156.976-.356a2.172 2.172 0 0 0 .877-1.857c0-1.53.007-3.016.007-4.457.015-5.771.029-10.859.043-15.085.022-4.204.036-7.554.05-9.864 0-.564-.207-1.04-.463-1.374a2.277 2.277 0 0 0-.82-.661c-.528-.238-.841-.193-.834-.216Z" fill="#263238"/><path d="M89.045 110.537c0 .007-.071.007-.2.015-.142 0-.335.007-.577.015-.513.007-1.233.014-2.124.022-1.81.007-4.32.022-7.136.029h-.057l-.007-.059c-.05-.394-.107-.81-.164-1.233l-1.184-8.928.043.037c-.805-.007-1.447-.015-1.903-.015-.214-.007-.378-.007-.506-.007-.114-.007-.171-.007-.171-.015 0-.007.057-.007.17-.015.129 0 .293-.007.507-.015.456-.007 1.098-.014 1.903-.022h.036l.007.037c.292 2.102.734 5.318 1.233 8.921.057.423.114.839.164 1.233l-.064-.06c2.816.008 5.318.008 7.136.015.891.008 1.611.015 2.124.015.243.008.435.008.578.015.128 0 .192.007.192.015Z" fill="#263238"/><path d="M78.937 110.752a.123.123 0 0 1-.107-.111l-1.34-10.065-2.26-.029c-.2-.008-.293-.008-.3-.141 0-.141.1-.149.3-.156l.506-.015 1.939-.022c.064 0 .121.052.128.118l1.383 10.013 9.667.044c.235.008.32.008.328.141v.008c0 .134-.093.134-.328.148l-.578.015-2.124.023-7.193.037c-.007-.008-.014-.008-.021-.008Z" fill="#263238"/><path d="M78.723 108.383s.014-.008.05-.008c.042 0 .085 0 .15-.007.142 0 .327-.007.577-.015.513-.007 1.24-.015 2.145-.022 1.847-.008 4.42-.022 7.407-.037l-.064.052c.221-1.3.456-2.704.699-4.16.128-.75.25-1.485.37-2.183l.065.081c-3.465-.007-6.523-.007-8.726-.007-1.09-.008-1.968-.015-2.588-.015-.292-.007-.527-.007-.698-.007-.072 0-.136-.008-.178-.008-.043 0-.065-.007-.065-.007s.022-.008.064-.008c.05 0 .107-.007.179-.007.17 0 .399-.008.698-.015.613-.007 1.497-.015 2.588-.022 2.203-.008 5.261-.023 8.726-.037h.078l-.014.081a191.29 191.29 0 0 0-.364 2.184c-.242 1.456-.484 2.86-.698 4.159l-.007.06h-.058c-2.986-.008-5.56-.008-7.406-.015-.913-.007-1.64-.015-2.146-.015-.243-.007-.435-.007-.578-.007-.056 0-.106-.008-.15-.008-.042 0-.056-.007-.056-.007Z" fill="#263238"/><path d="M78.723 108.517c-.057-.008-.136-.038-.136-.142 0-.126.129-.133.171-.141l.728-.015 2.145-.022 7.243-.037.998-5.935-11.962-.044c-.057 0-.192-.008-.185-.141 0-.127.12-.134.185-.141l.884-.023 4.406-.029 6.986-.03a.14.14 0 0 1 .1.044c.021.03.035.075.028.112l-1.09 6.477c-.015.067-.065.111-.129.111l-10.337-.044c0 .007-.014.007-.035 0ZM81.524 113.382c-.014 0-.014-.097-.057-.246a1.05 1.05 0 0 0-.37-.542.917.917 0 0 0-.899-.126c-.335.119-.62.49-.613.921 0 .431.286.802.62.921a.918.918 0 0 0 .899-.134 1.07 1.07 0 0 0 .37-.542c.036-.156.036-.252.05-.252.007 0 .022.096-.007.26a1.046 1.046 0 0 1-.363.609 1.004 1.004 0 0 1-.998.17c-.378-.126-.713-.549-.713-1.039-.007-.491.328-.914.706-1.048.385-.141.77-.022.998.171.235.193.335.446.363.609.043.178.021.268.014.268Z" fill="#263238"/><path d="M80.348 114.615a.955.955 0 0 1-.228-.06c-.4-.134-.798-.579-.798-1.173a1.24 1.24 0 0 1 .798-1.174c.463-.171.891 0 1.12.193.299.245.384.565.406.683.014.06.028.194.014.29a.936.936 0 0 1-.014.29 1.191 1.191 0 0 1-.407.691c-.185.17-.52.312-.89.26Zm.3-2.073a.877.877 0 0 0-.407.045.836.836 0 0 0-.527.795c0 .393.263.698.527.794a.8.8 0 0 0 .777-.111.89.89 0 0 0 .321-.475c.021-.082.029-.142.036-.179 0-.007 0-.022.007-.029 0-.015-.007-.023-.007-.03-.007-.037-.015-.104-.036-.178a.917.917 0 0 0-.32-.476.797.797 0 0 0-.372-.156ZM87.983 113.374c-.014 0-.014-.096-.057-.245a1.046 1.046 0 0 0-.37-.542.917.917 0 0 0-.899-.126c-.335.118-.62.49-.613.921 0 .43.285.802.62.921a.92.92 0 0 0 .898-.134c.221-.171.321-.394.371-.542.036-.164.036-.253.05-.253.007 0 .021.097-.007.26a1.044 1.044 0 0 1-.364.609c-.228.193-.613.32-.998.171-.378-.126-.713-.55-.713-1.04-.007-.49.328-.913.706-1.047.385-.141.77-.022.998.171.235.193.335.445.364.609.043.171.021.267.014.267Z" fill="#263238"/><path d="M86.807 114.607a.95.95 0 0 1-.228-.059c-.4-.134-.799-.58-.799-1.174a1.239 1.239 0 0 1 .799-1.173c.463-.171.89 0 1.119.193.3.245.385.564.406.683a.94.94 0 0 1 .014.29.933.933 0 0 1-.014.289 1.186 1.186 0 0 1-.406.691c-.185.164-.52.312-.891.26Zm.3-2.072a.876.876 0 0 0-.407.044.837.837 0 0 0-.528.795c0 .394.264.698.528.795a.8.8 0 0 0 .777-.112.887.887 0 0 0 .32-.475c.022-.082.03-.141.036-.178 0-.008 0-.022.007-.03 0-.015-.007-.022-.007-.03-.007-.037-.014-.104-.035-.178a.916.916 0 0 0-.321-.475.723.723 0 0 0-.37-.156Z" fill="#263238"/><path d="M93.786 103.102c0 1.938-1.504 3.506-3.365 3.506-1.86 0-3.365-1.568-3.365-3.506 0-1.939 1.504-3.506 3.365-3.506 1.86 0 3.365 1.575 3.365 3.506Z" fill="#61D690"/><path d="m88.496 103.176.506-.52.97.899 1.91-1.909.464.52-2.445 2.399-1.405-1.389Z" fill="#fff"/></svg>