<svg width="314" height="314" fill="none" xmlns="http://www.w3.org/2000/svg"><g clip-path="url(#a)"><path d="m107.894 92.146-69.24-13.408c-2.49-.48-4.135-3.01-3.683-5.65L46.879 3.984C47.331 1.344 49.72-.4 52.21.079l69.24 13.407c2.49.48 4.136 3.011 3.684 5.65L113.218 88.24c-.452 2.639-2.841 4.384-5.324 3.905Z" fill="#57C9E8"/><path d="M91.12 60.489c0 .014-.181-.007-.532-.064l-1.518-.258c-1.357-.243-3.266-.586-5.62-1.015-4.791-.901-11.404-2.139-18.853-3.533l-.155-.029.007-.164c.04-1.08.081-2.231.128-3.39.398-9.925.75-18.778.979-24.57l.094.122-5.006-1.015c-.56-.122-.999-.215-1.33-.287-.303-.071-.458-.107-.452-.121 0-.014.162.007.466.057.337.057.776.129 1.343.222 1.2.214 2.9.522 5.026.9l.102.015-.007.107c-.203 5.792-.506 14.645-.85 24.578-.04 1.158-.088 2.31-.129 3.39l-.148-.194c7.435 1.445 14.04 2.725 18.831 3.654 2.348.472 4.251.858 5.6 1.13.635.136 1.134.243 1.512.322.337.079.513.129.513.143Z" fill="#fff"/><path d="M64.847 49.462c0-.007.047 0 .135.007.108.015.236.036.391.058.371.064.878.15 1.519.257 1.349.243 3.272.594 5.68 1.03 4.872.915 11.68 2.188 19.56 3.668l-.195.115a7188.33 7188.33 0 0 0 3.752-10.812c.674-1.945 1.342-3.855 1.976-5.671l.135.25c-9.142-1.773-17.218-3.332-23.034-4.462-2.875-.572-5.19-1.037-6.815-1.358-.776-.165-1.39-.294-1.835-.387-.196-.043-.351-.078-.473-.107-.108-.029-.162-.043-.162-.05 0-.007.054 0 .162.014.129.022.284.043.48.072l1.841.322c1.633.3 3.954.722 6.835 1.244 5.823 1.094 13.9 2.617 23.055 4.333l.21.043-.075.215c-.634 1.823-1.295 3.732-1.97 5.677l-3.765 10.805-.047.143-.142-.028c-7.874-1.53-14.675-2.853-19.54-3.797-2.395-.48-4.311-.866-5.66-1.137l-1.512-.322c-.155-.036-.283-.065-.391-.093-.074-.007-.115-.022-.115-.029ZM69.955 64.314c-.034-.007.007-.257-.034-.693a2.963 2.963 0 0 0-.722-1.645c-.486-.565-1.37-.987-2.314-.8-.931.157-1.856 1.008-2.045 2.166-.209 1.151.378 2.288 1.201 2.782.824.522 1.788.45 2.436.107a2.79 2.79 0 0 0 1.221-1.273c.183-.4.223-.65.257-.644.013 0 .02.265-.135.701a2.783 2.783 0 0 1-1.235 1.452c-.688.415-1.768.536-2.72-.043-.944-.536-1.632-1.838-1.389-3.16.216-1.324 1.282-2.289 2.348-2.446a2.718 2.718 0 0 1 2.557.965c.533.644.675 1.359.675 1.816.007.472-.088.715-.101.715ZM87.005 67.568c-.034-.007.007-.257-.034-.693a2.964 2.964 0 0 0-.722-1.645c-.486-.565-1.37-.987-2.314-.801-.931.157-1.856 1.008-2.044 2.167-.21 1.151.377 2.288 1.207 2.781.823.522 1.788.45 2.436.108a2.79 2.79 0 0 0 1.221-1.273c.176-.4.216-.651.25-.644.013 0 .02.265-.135.701a2.783 2.783 0 0 1-1.235 1.452c-.688.414-1.768.536-2.719-.043-.945-.537-1.633-1.838-1.39-3.161.216-1.323 1.282-2.288 2.348-2.446a2.718 2.718 0 0 1 2.557.966c.533.643.675 1.358.675 1.816.007.48-.088.722-.101.715Z" fill="#fff"/><path d="M104.433 36.512c-.749 4.426-4.743 7.365-8.92 6.572-4.177-.794-6.95-5.027-6.2-9.454.748-4.426 4.743-7.365 8.92-6.571 4.176.8 6.955 5.034 6.2 9.453Z" fill="#fff"/><path d="M96.383 39.523c.02.007.027.064.027.193l-.121-.029c0-.508.236-2.145.6-4.062.439-2.33.884-4.197 1.006-4.169.121.03-.135 1.931-.574 4.262-.357 1.917-.728 3.526-.91 3.998l-.122-.029c.047-.114.074-.171.094-.164Z" fill="#263238"/><path d="M101.086 36.42c-.027.128-1.815-.144-4-.602-2.187-.457-3.941-.936-3.921-1.065.027-.129 1.815.143 4.001.608 2.186.45 3.94.93 3.92 1.058Z" fill="#263238"/><path d="M265.475 73.439s.198-.029.586-.057c.411-.029.99-.072 1.731-.122.381-.014.806-.071 1.275-.064.469.014.99.036 1.547.057.558.029 1.166.022 1.804.093.638.086 1.32.179 2.038.279 2.852.472 6.357 1.33 10.023 3.218a32.743 32.743 0 0 1 10.727 8.702c.396.508.799 1.016 1.202 1.53.367.544.711 1.109 1.078 1.667.777 1.1 1.32 2.36 1.965 3.597 1.1 2.552 2.082 5.305 2.485 8.273.308 1.473.33 2.996.426 4.541.036.772-.052 1.552-.074 2.331l-.051 1.18c-.037.393-.11.787-.169 1.18-.352 3.175-1.356 6.35-2.779 9.403-2.808 6.15-7.977 11.62-14.575 15.11-3.292 1.773-7.002 2.91-10.83 3.461-3.827.636-7.83.486-11.731-.293-.498-.1-.997-.215-1.495-.336l.212-.029-15.463 9.403-.542.329.139-.608c1.195-5.22 2.361-10.275 3.475-15.131l.096.251c-4.576-3.461-8.036-7.931-10.177-12.693a32.27 32.27 0 0 1-2.258-7.273c-.228-1.215-.389-2.431-.426-3.639-.036-.601-.066-1.202-.102-1.795-.03-.594.044-1.18.058-1.766a31.653 31.653 0 0 1 3.27-12.693c1.826-3.69 4.224-6.722 6.716-9.125 2.471-2.452 5.184-4.083 7.56-5.406 2.441-1.23 4.648-2.038 6.488-2.531.924-.229 1.738-.43 2.449-.6.719-.1 1.327-.187 1.826-.258.476-.064.843-.115 1.114-.15.257-.029.382-.036.382-.036s-.125.036-.374.079c-.272.05-.631.107-1.107.193-.492.078-1.1.178-1.811.3-.704.186-1.518.4-2.435.636-1.825.515-4.003 1.345-6.422 2.582-2.347 1.337-5.023 2.975-7.457 5.413-2.456 2.396-4.81 5.413-6.599 9.06a31.375 31.375 0 0 0-3.182 12.55c-.014.579-.08 1.158-.051 1.745.037.586.066 1.172.103 1.766.044 1.187.205 2.388.432 3.59a31.89 31.89 0 0 0 2.244 7.165c2.119 4.691 5.535 9.081 10.052 12.485l.132.1-.037.158c-1.107 4.855-2.265 9.918-3.453 15.138l-.403-.279c5.007-3.046 10.184-6.2 15.463-9.411l.095-.057.11.029c.484.121.975.229 1.474.336 3.834.765 7.779.915 11.54.286 3.769-.543 7.42-1.659 10.661-3.397 6.496-3.432 11.599-8.802 14.378-14.859 1.415-3.003 2.404-6.135 2.764-9.26.051-.387.124-.773.168-1.166l.059-1.166c.022-.772.11-1.537.073-2.302-.095-1.523-.11-3.025-.41-4.477-.389-2.931-1.349-5.656-2.427-8.173-.631-1.223-1.166-2.467-1.928-3.561-.36-.558-.697-1.116-1.056-1.652-.396-.515-.792-1.015-1.181-1.516a32.648 32.648 0 0 0-10.565-8.674c-3.622-1.895-7.09-2.774-9.92-3.275-.711-.107-1.386-.207-2.024-.3-.638-.079-1.239-.072-1.789-.115-.557-.028-1.07-.057-1.539-.078-.47-.022-.895.028-1.276.035l-1.731.065c-.366.014-.571.007-.571.007Z" fill="#E01E5A"/><path d="m259.154 91.13-3.966 29.319h29.401L280.3 91.13h-21.146Z" fill="#E01E5A"/><path d="M277.916 95.385c.037.007.007.315-.154.851a8.14 8.14 0 0 1-1.048 2.124 7.848 7.848 0 0 1-2.625 2.402c-1.188.673-2.706 1.052-4.275 1.052-1.569.014-3.086-.308-4.296-.966-1.217-.643-2.06-1.587-2.603-2.431a7.6 7.6 0 0 1-.946-2.167c-.139-.543-.146-.85-.11-.858.088-.028.271 1.216 1.371 2.818.557.779 1.371 1.637 2.515 2.209 1.137.587 2.559.88 4.055.865 1.495 0 2.91-.343 4.04-.951a7.704 7.704 0 0 0 2.551-2.195c1.166-1.559 1.437-2.782 1.525-2.753Z" fill="#fff"/><path d="M314 306.806c0 .1-70.299.186-156.993.186-86.728 0-157.007-.078-157.007-.186 0-.1 70.279-.186 157.007-.186 86.694 0 156.993.086 156.993.186Z" fill="#263238"/><path d="M206.288 306.806h-89.515c-10.782-.05-19.607-9.796-19.566-21.223l.95-238.187c.048-11.434 8.833-20.66 19.615-20.61l89.643.437c10.782.05 19.486 9.353 19.438 20.78l-.951 238.187c-.04 11.442-8.825 20.673-19.614 20.616Z" fill="#263238"/><path d="m207.293 35.447-17.38-.086c-2.328-.014-4.231 2.074-4.238 4.655l-.013 3.34c-.007 2.58-1.909 4.669-4.237 4.655l-33.878-.165c-2.328-.014-4.21-2.116-4.203-4.698l.013-3.34c.007-2.58-1.869-4.683-4.203-4.697l-6.113-.03-15.215-.07c-7.557-.036-13.704 6.428-13.737 14.43l-.925 232.488c-.033 8.001 6.059 14.516 13.616 14.559l89.468.436c7.556.036 13.703-6.429 13.737-14.431l.924-232.487c.027-8.002-6.066-14.517-13.616-14.56Z" fill="#FAFAFA"/><path d="M129.539 59.202c0 .1-2.996.186-6.686.186-3.698 0-6.687-.086-6.687-.186s2.996-.186 6.687-.186c3.69 0 6.686.086 6.686.186ZM129.539 56.527c0 .1-2.996.186-6.686.186-3.698 0-6.687-.086-6.687-.186s2.996-.186 6.687-.186c3.69 0 6.686.079 6.686.186ZM129.539 53.846c0 .1-2.996.186-6.686.186-3.698 0-6.687-.086-6.687-.186s2.996-.186 6.687-.186c3.69 0 6.686.086 6.686.186Z" fill="#263238"/><path d="M206.369 281.607h-88.678c-1.201 0-2.173-1.03-2.173-2.303v-17.948c0-1.273.972-2.303 2.173-2.303h88.678c1.201 0 2.173 1.03 2.173 2.303v17.948c.006 1.273-.965 2.303-2.173 2.303Z" fill="#FD5C70"/><path d="M136.698 277.588h-8.954c-1.167 0-2.105-1.001-2.105-2.231v-9.489c0-1.237.945-2.231 2.105-2.231h8.954c1.167 0 2.105 1.001 2.105 2.231v9.489c.007 1.237-.938 2.231-2.105 2.231Z" fill="#000" opacity=".3"/><path d="M132.225 274.663c-.189 0-.338-.157-.338-.357v-7.387c0-.2.149-.357.338-.357.189 0 .337.157.337.357v7.387c0 .193-.155.357-.337.357Z" fill="#fff"/><path d="M135.645 270.967h-6.841c-.189 0-.338-.158-.338-.358 0-.2.149-.358.338-.358h6.841c.189 0 .338.158.338.358a.35.35 0 0 1-.338.358ZM150.361 271.939h-2.328l-.479 1.158h-.641l1.984-4.634h.62l1.991 4.634h-.655l-.492-1.158Zm-.216-.529-.945-2.274-.944 2.274h1.889ZM152.149 268.463h1.842c1.403 0 2.361.944 2.361 2.317 0 1.38-.958 2.317-2.361 2.317h-1.842v-4.634Zm1.808 4.055c1.08 0 1.775-.701 1.775-1.745 0-1.037-.695-1.745-1.775-1.745h-1.181v3.483h1.181v.007ZM157.317 268.463h1.842c1.403 0 2.362.944 2.362 2.317 0 1.38-.959 2.317-2.362 2.317h-1.842v-4.634Zm1.808 4.055c1.08 0 1.775-.701 1.775-1.745 0-1.037-.695-1.745-1.775-1.745h-1.18v3.483h1.18v.007ZM165.036 269.036h-1.498v-.58h3.616v.58h-1.497v4.061h-.621v-4.061ZM167.418 270.78c0-1.358.985-2.374 2.334-2.374 1.329 0 2.321 1.009 2.321 2.374 0 1.366-.985 2.374-2.321 2.374-1.349-.007-2.334-1.015-2.334-2.374Zm4.021 0c0-1.029-.722-1.78-1.694-1.78-.978 0-1.707.758-1.707 1.78 0 1.03.722 1.781 1.707 1.781.972 0 1.694-.758 1.694-1.781ZM174.354 270.78c0-1.373.985-2.374 2.321-2.374.674 0 1.261.243 1.66.722l-.405.415a1.57 1.57 0 0 0-1.228-.55c-.985 0-1.721.758-1.721 1.78 0 1.03.729 1.781 1.721 1.781.479 0 .89-.179 1.228-.558l.405.415c-.399.479-.986.729-1.667.729-1.329.007-2.314-.994-2.314-2.36ZM181.911 271.939h-2.328l-.479 1.158h-.641l1.983-4.634h.621l1.991 4.634h-.655l-.492-1.158Zm-.216-.529-.945-2.274-.945 2.274h1.89ZM186.627 273.097l-.945-1.423a3.466 3.466 0 0 1-.276.014h-1.08v1.409h-.627v-4.634h1.707c1.14 0 1.828.608 1.828 1.616 0 .716-.351 1.23-.965 1.466l1.039 1.559h-.681v-.007Zm-.02-3.018c0-.665-.419-1.036-1.222-1.036h-1.066v2.088h1.066c.803-.008 1.222-.394 1.222-1.052ZM189.056 269.036h-1.498v-.58h3.616v.58h-1.497v4.061h-.621v-4.061Z" fill="#fff"/><path d="m122.94 216.155 1.147 2.46 2.564.393-1.855 1.917.438 2.703-2.294-1.273-2.294 1.273.439-2.703-1.856-1.917 2.564-.393 1.147-2.46ZM132.4 216.155l1.147 2.46 2.564.393-1.856 1.917.439 2.703-2.294-1.273-2.288 1.273.432-2.703-1.848-1.917 2.557-.393 1.147-2.46ZM141.859 216.155l1.147 2.46 2.564.393-1.855 1.917.438 2.703-2.294-1.273-2.287 1.273.439-2.703-1.856-1.917 2.564-.393 1.14-2.46ZM151.326 216.155l1.14 2.46 2.564.393-1.856 1.917.439 2.703-2.287-1.273-2.294 1.273.438-2.703-1.855-1.917 2.564-.393 1.147-2.46Z" fill="#00A355"/><path d="m160.785 216.155 1.147 2.46 2.557.393-1.848 1.917.431 2.703-2.287-1.273-2.294 1.273.439-2.703-1.856-1.917 2.564-.393 1.147-2.46Z" fill="#E0E0E0"/><path d="M174.664 221.862v.55h-3.016v-.429l1.707-1.745c.445-.457.526-.736.526-1.015 0-.458-.303-.736-.89-.736-.452 0-.817.15-1.073.479l-.405-.372c.324-.429.884-.672 1.532-.672.877 0 1.437.479 1.437 1.237 0 .429-.122.822-.688 1.394l-1.282 1.309h2.152ZM178.024 221.104c0 .751-.519 1.358-1.585 1.358-.601 0-1.188-.2-1.539-.536l.277-.501c.283.279.749.48 1.262.48.627 0 .985-.308.985-.787 0-.472-.317-.772-1.039-.772h-.338v-.444l1.053-1.373h-2.018v-.55h2.767v.429l-1.1 1.437c.85.072 1.275.572 1.275 1.259ZM183.334 222.412l-.904-1.366a2.898 2.898 0 0 1-.263.015h-1.039v1.351h-.601v-4.448h1.633c1.093 0 1.748.587 1.748 1.552 0 .687-.338 1.18-.925 1.402l.992 1.494h-.641Zm-.013-2.896c0-.636-.398-.994-1.168-.994h-1.018v2.002h1.018c.763-.007 1.168-.371 1.168-1.008ZM187.659 220.932h-2.577c.074.594.519.987 1.153.987.372 0 .682-.136.918-.408l.317.394c-.29.357-.722.543-1.255.543-1.025 0-1.707-.715-1.707-1.723 0-.994.675-1.716 1.593-1.716.917 0 1.572.7 1.572 1.73 0 .057-.007.136-.014.193Zm-2.577-.436h2.037c-.06-.565-.458-.965-1.018-.965-.547 0-.959.393-1.019.965ZM191.222 219.044l-1.39 3.368h-.587l-1.39-3.368h.6l1.093 2.696 1.114-2.696h.56ZM191.653 218.007c0-.221.169-.4.392-.4s.392.172.392.386c0 .229-.162.408-.392.408a.386.386 0 0 1-.392-.394Zm.102 1.037h.574v3.368h-.574v-3.368ZM196.289 220.932h-2.578c.075.594.52.987 1.147.987.371 0 .682-.136.918-.408l.317.394c-.29.357-.722.543-1.255.543-1.025 0-1.707-.715-1.707-1.723 0-.994.675-1.716 1.592-1.716.918 0 1.573.7 1.573 1.73 0 .057 0 .136-.007.193Zm-2.578-.436h2.038c-.061-.565-.459-.965-1.019-.965-.553 0-.958.393-1.019.965ZM201.842 219.044l-1.188 3.368h-.553l-.918-2.553-.931 2.553h-.553l-1.181-3.368h.547l.924 2.682.958-2.682h.486l.938 2.696.944-2.696h.527ZM201.977 222.055l.243-.479c.269.2.701.35 1.113.35.533 0 .756-.172.756-.458 0-.758-2.004-.1-2.004-1.444 0-.601.506-1.008 1.322-1.008.412 0 .877.114 1.154.307l-.243.479a1.625 1.625 0 0 0-.918-.264c-.506 0-.749.193-.749.464 0 .794 2.011.143 2.011 1.452 0 .608-.526.994-1.37.994-.526 0-1.052-.172-1.315-.393ZM122.954 241.462v1.323h-.709v-1.323c-1.079-.057-2.112-.458-2.685-1.015l.412-.916c.519.501 1.383.88 2.273.937v-2.717c-1.214-.315-2.496-.73-2.496-2.317 0-1.159.783-2.167 2.496-2.317v-1.337h.709v1.323c.83.035 1.66.293 2.24.715l-.365.937a3.797 3.797 0 0 0-1.875-.658v2.724c1.234.329 2.564.715 2.564 2.317 0 1.166-.823 2.174-2.564 2.324Zm-.709-4.827v-2.531c-.985.129-1.417.658-1.417 1.273 0 .736.621 1.037 1.417 1.258Zm2.186 2.582c0-.751-.661-1.044-1.477-1.273v2.517c1.025-.115 1.477-.615 1.477-1.244ZM136.198 239.367h-1.47v2.016h-1.073v-2.016h-4.298v-.822l3.954-5.364h1.194l-3.792 5.178h2.969v-1.781h1.039v1.781h1.471v1.008h.006ZM136.86 237.279c0-2.667 1.349-4.191 3.157-4.191 1.802 0 3.151 1.524 3.151 4.191s-1.349 4.19-3.151 4.19c-1.808.007-3.157-1.516-3.157-4.19Zm5.202 0c0-2.095-.837-3.147-2.045-3.147-1.214 0-2.058 1.052-2.058 3.147 0 2.095.844 3.146 2.058 3.146 1.201.007 2.045-1.051 2.045-3.146ZM144.072 240.64c0-.472.345-.794.749-.794.398 0 .729.329.729.794 0 .464-.331.808-.729.808-.404 0-.749-.336-.749-.808ZM152.81 239.059c0 1.488-1.194 2.41-3.083 2.41-1.876 0-3.064-.922-3.064-2.41 0-.936.486-1.63 1.357-1.98-.709-.351-1.08-.959-1.08-1.767 0-1.373 1.113-2.224 2.787-2.224 1.68 0 2.806.858 2.806 2.224 0 .808-.384 1.416-1.093 1.767.884.364 1.37 1.044 1.37 1.98Zm-1.107-.035c0-.901-.748-1.466-1.976-1.466s-1.957.565-1.957 1.466c0 .922.729 1.501 1.957 1.501 1.228 0 1.976-.572 1.976-1.501Zm-3.67-3.662c0 .808.627 1.309 1.687 1.309 1.073 0 1.72-.501 1.72-1.309 0-.822-.681-1.323-1.72-1.323-1.033 0-1.687.501-1.687 1.323ZM153.822 237.279c0-2.667 1.35-4.191 3.158-4.191 1.801 0 3.151 1.524 3.151 4.191s-1.35 4.19-3.151 4.19c-1.808.007-3.158-1.516-3.158-4.19Zm5.202 0c0-2.095-.836-3.147-2.044-3.147-1.215 0-2.058 1.052-2.058 3.147 0 2.095.843 3.146 2.058 3.146 1.208.007 2.044-1.051 2.044-3.146Z" fill="#000"/><path d="m194.4 184.677-64.618.108c-2.53.007-4.581-2.167-4.588-4.849l-.095-64.45c-.006-2.682 2.045-4.855 4.575-4.863l64.618-.107c2.53-.007 4.581 2.167 4.588 4.848l.094 64.451c0 2.681-2.044 4.855-4.574 4.862Z" fill="#61D690"/><path d="m149.662 157.003-1.511.002.022 14.066 1.511-.003-.022-14.065ZM154.984 156.988l-1.511.003.011 7.179 1.512-.002-.012-7.18ZM170.192 156.967l-1.511.002.011 7.18 1.512-.003-.012-7.179ZM176.9 156.952l-1.511.003.023 14.066 1.511-.003-.023-14.066Z" fill="#263238"/><path d="m143.91 142.273 4.271 15.446 28.696-.05 4.501-14.831s-3.016-1.016-4.939-.572l-.56-16.44c-.054-1.595-1.613-2.632-2.989-1.995l-2.787 1.294-16.186.029-1.863-.987c-1.41-.744-3.063.35-3.043 2.017l.135 16.268c.007 0-2.489-.765-5.236-.179Z" fill="#FAFAFA"/><path d="M153.822 150.31c1.559 1.867 3.758 3.054 6.052 3.569 2.301.507 4.696.364 6.997-.158 1.255-.279 2.604-.765 3.252-1.938.675-1.208.385-2.731.081-4.09-.391-1.745-.796-3.518-1.633-5.084-.836-1.559-2.186-2.911-3.846-3.275-2.246-.494-4.5.887-6.16 2.567-2.179 2.202-3.798 5.027-4.635 8.095" fill="#E0E0E0"/><path d="M154.214 148.766c-.115 0-.216-5.27-.223-11.763-.007-6.5.074-11.763.189-11.763s.216 5.263.223 11.763c.013 6.493-.075 11.763-.189 11.763ZM170.427 148.737c-.115 0-.216-5.27-.223-11.763-.007-6.5.074-11.763.189-11.763s.216 5.263.223 11.763c.007 6.493-.074 11.763-.189 11.763Z" fill="#263238"/><path d="M176.445 142.266c0 .021-.256.107-.742.236-.128.035-.263.071-.405.107a9.949 9.949 0 0 0-.465.193c-.169.071-.351.143-.54.222-.182.107-.371.214-.574.329a6.066 6.066 0 0 0-2.26 2.438c-.607 1.158-.911 2.703-.776 4.298l.021.221h-.203c-2.321.007-4.925.022-7.671.036-3.118-.007-6.059-.007-8.596-.014h-.183l-.006-.193a8.69 8.69 0 0 0-1.019-3.905 8.778 8.778 0 0 0-1.896-2.445c-1.296-1.144-2.274-1.409-2.24-1.48.007-.015.243.05.668.228a7.312 7.312 0 0 1 1.707 1.073 8.656 8.656 0 0 1 2.024 2.467 8.857 8.857 0 0 1 1.12 4.062l-.182-.193a6354.8 6354.8 0 0 1 8.596-.043c2.746 0 5.35.007 7.671.007l-.189.222c-.121-1.717.216-3.297.878-4.513a6.166 6.166 0 0 1 2.422-2.488c.209-.114.411-.215.6-.322.196-.071.385-.136.56-.2.169-.057.331-.115.486-.165.149-.028.29-.057.418-.078.506-.086.77-.129.776-.1ZM153.91 150.246c.013.072-.533.179-1.329.565a6.987 6.987 0 0 0-2.618 2.217c-.797 1.122-1.154 2.374-1.276 3.289-.128.915-.074 1.502-.141 1.509-.047.007-.209-.572-.149-1.545a6.974 6.974 0 0 1 1.235-3.518c.85-1.201 1.984-1.916 2.841-2.238.857-.329 1.43-.329 1.437-.279Z" fill="#263238"/><path d="M176.594 157.99c-.068 0-.081-.65-.324-1.644-.236-.987-.756-2.331-1.714-3.504a8.228 8.228 0 0 0-3.029-2.296c-.898-.393-1.505-.5-1.491-.572.006-.05.634-.05 1.592.279.951.322 2.22 1.059 3.245 2.303a8.112 8.112 0 0 1 1.687 3.725c.175 1.052.081 1.717.034 1.709Z" fill="#263238"/><path d="M199.359 240.604c-.027 0-.054 0-.075-.007-.02-.007-.033-.007-.053-.015a.295.295 0 0 1-.115-.078l-2.409-2.603c-.783-.851-1.073-2.045-.749-3.118.284-.929.911-1.43 1.815-1.444.601.007 1.039.171 1.377.536.081.086.148.179.209.279.06-.1.135-.2.222-.293.338-.358.803-.529 1.363-.529.904.014 1.532.514 1.815 1.444.324 1.073.034 2.267-.749 3.118l-2.408 2.603a.337.337 0 0 1-.243.107Zm-1.545-6.557h-.027c-.614.007-.992.307-1.181.944-.25.822-.02 1.737.587 2.395l2.166 2.346 2.166-2.346c.607-.658.836-1.58.587-2.395-.189-.637-.567-.937-1.181-.944-.378 0-.682.1-.884.321-.364.394-.358 1.044-.358 1.052a.486.486 0 0 1-.033.171.335.335 0 0 1-.385.186.355.355 0 0 1-.256-.343v-.043c0-.136-.034-.679-.358-1.023-.196-.214-.479-.321-.843-.321Z" fill="#00A355"/><path d="M187.49 90.45c0 .1-11.396.187-25.457.187s-25.457-.086-25.457-.186 11.396-.186 25.457-.186 25.457.086 25.457.186Z" fill="#263238"/><path d="M180.561 82.97h-37.932v2.29h37.932v-2.29Z" fill="#00A355"/><path d="M196.471 204.549c0 .101-15.417.186-34.431.186-19.02 0-34.438-.085-34.438-.186 0-.1 15.418-.185 34.438-.185 19.007 0 34.431.085 34.431.185ZM186.775 198.249c0 .1-11.079.186-24.742.186-13.669 0-24.741-.086-24.741-.186s11.078-.186 24.741-.186 24.742.086 24.742.186ZM208.818 59.452c0 .057-.958.107-2.543.143-1.579.036-3.779.064-6.255.072h-.169l-.027-.18c-.047-.35-.094-.721-.148-1.1-.425-3.218-.776-6.1-.979-7.967l.122.115c-1.424-.036-2.26-.086-2.26-.136 0-.05.836-.1 2.26-.136h.108l.02.115c.29 1.852.695 4.726 1.12 7.944.047.38.095.744.142 1.101l-.196-.178c2.476.007 4.676.028 6.255.071 1.585.029 2.55.079 2.55.136Z" fill="#263238"/><path d="M199.77 57.521c0-.021.236-.05.675-.071.513-.015 1.134-.036 1.882-.057 1.606-.036 3.867-.065 6.491-.072l-.189.165c.189-1.159.398-2.41.608-3.705.114-.665.222-1.322.323-1.945l.196.244a493.164 493.164 0 0 1-7.651-.072c-.904-.029-1.66-.043-2.267-.064-.533-.022-.823-.05-.823-.072 0-.028.29-.05.823-.071.607-.015 1.363-.036 2.267-.065 1.923-.035 4.608-.064 7.651-.071h.236l-.04.243c-.101.622-.209 1.28-.324 1.945-.216 1.294-.432 2.546-.628 3.704l-.027.164h-.161a544.459 544.459 0 0 1-6.491-.071c-.742-.021-1.37-.043-1.883-.057-.432-.029-.668-.05-.668-.072ZM202.219 61.976c-.06.014-.067-.364-.431-.622a.71.71 0 0 0-.682-.071.757.757 0 0 0-.445.693c0 .315.202.594.445.694.243.107.513.05.682-.072.364-.257.371-.636.431-.622.027 0 .061.086.048.25a.976.976 0 0 1-1.289.816c-.378-.122-.722-.551-.715-1.059-.007-.507.337-.936.715-1.058a.96.96 0 0 1 .978.2.96.96 0 0 1 .311.615c.013.157-.021.236-.048.236ZM207.88 61.976c-.06.014-.067-.364-.431-.622a.71.71 0 0 0-.682-.071.757.757 0 0 0-.445.693c0 .315.202.594.445.694.243.107.513.05.682-.072.364-.257.371-.636.431-.622.027 0 .061.086.048.25a.976.976 0 0 1-1.289.816c-.378-.122-.722-.551-.715-1.059-.007-.507.337-.936.715-1.058a.96.96 0 0 1 .978.2.96.96 0 0 1 .311.615c.013.157-.021.236-.048.236Z" fill="#263238"/><path d="M213.737 51.293c0 2.188-1.673 3.961-3.738 3.961s-3.738-1.773-3.738-3.961c0-2.188 1.673-3.962 3.738-3.962 2.058 0 3.738 1.774 3.738 3.962Z" fill="#00A355"/><path d="M210.336 49.698v3.204h-.425v-2.803h-.681v-.4h1.106Z" fill="#fff"/><path d="M62.877 243.493H53.95v63.156h8.927v-63.156Z" fill="#455A64"/><path d="M115.323 235.899H47.608v8.745h67.715v-8.745ZM105.492 270.423H58.936v8.745h46.556v-8.745Z" fill="#455A64"/><path d="M109.959 243.493h-8.927v63.156h8.927v-63.156Z" fill="#455A64"/><path d="M115.289 244.516c0 .1-15.174.185-33.898.185-18.723 0-33.898-.085-33.898-.185 0-.101 15.175-.186 33.898-.186 18.717 0 33.898.085 33.898.186ZM62.91 286.519c-.094 0-.175-4.683-.175-10.468s.081-10.469.176-10.469c.094 0 .175 4.684.175 10.469 0 5.785-.074 10.468-.175 10.468ZM101.012 286.112c-.094 0-.176-4.355-.176-9.725 0-5.371.082-9.725.176-9.725.095 0 .176 4.354.176 9.725 0 5.37-.075 9.725-.176 9.725ZM115.674 238.287s-.243-.064-.702-.2c-.466-.1-1.154-.272-2.058-.308-1.801-.128-4.433.294-7.456 1.502-1.518.594-3.124 1.373-4.885 2.152-1.754.773-3.663 1.566-5.768 2.003-2.106.45-4.406.4-6.687-.079-2.294-.472-4.581-1.323-6.862-2.317-2.287-.994-4.48-2.052-6.66-2.91-2.172-.858-4.344-1.495-6.463-1.774-4.244-.6-8.13-.021-11.22.916a26.47 26.47 0 0 0-6.97 3.268c-.378.257-.715.486-1.012.686-.277.215-.513.393-.716.551-.384.293-.593.443-.593.443s.195-.164.573-.472l.702-.558c.297-.207.627-.443 1.005-.7a26.152 26.152 0 0 1 6.97-3.318c3.097-.951 7.004-1.545 11.268-.951 2.132.278 4.318.908 6.497 1.773 2.186.858 4.38 1.916 6.66 2.91 2.28.994 4.554 1.845 6.835 2.31 2.273.472 4.547.529 6.639.086 2.091-.436 3.994-1.216 5.748-1.988 1.755-.772 3.367-1.552 4.892-2.138 3.036-1.202 5.688-1.602 7.496-1.459.904.05 1.593.229 2.058.336l.709.236Z" fill="#263238"/><path d="M64.827 240.332s-.628.451-1.896.858a9.06 9.06 0 0 1-5.465-.021l-.095-.029.068-.071a11.81 11.81 0 0 1 4.21-2.782c1.707-.644 3.677-.951 5.688-.686.627.1 1.248.221 1.842.414.587.193 1.18.386 1.68.78.492.379.837 1.029.722 1.673-.128.658-.702 1.03-1.201 1.237-2.078.78-4.028 1.166-5.675 1.373a25.87 25.87 0 0 1-3.92.179c-.924-.036-1.437-.1-1.437-.1s.128 0 .371.007c.284.007.634.021 1.066.036.925.007 2.267-.015 3.907-.229 1.633-.222 3.583-.622 5.634-1.395.486-.207 1.005-.557 1.113-1.137.101-.572-.21-1.179-.675-1.53-.465-.372-1.052-.565-1.632-.751a11.007 11.007 0 0 0-1.815-.407c-1.984-.258-3.934.043-5.62.672a11.955 11.955 0 0 0-4.177 2.732l-.02-.101a9.091 9.091 0 0 0 5.417.072 9.843 9.843 0 0 0 1.43-.551l.48-.243ZM110.816 242.099c.027-.008-.014.329.303.765.297.422 1.006.872 1.923.815.452-.036.951-.179 1.363-.536.405-.344.688-.959.567-1.566-.122-.615-.688-1.073-1.309-1.223-.634-.158-1.329-.086-2.024-.05-1.404.086-2.733.279-3.907.629-1.174.343-2.172.837-2.942 1.373a8.395 8.395 0 0 0-1.653 1.494 7.75 7.75 0 0 0-.378.487 1.09 1.09 0 0 1-.134.171s.134-.264.465-.693a7.9 7.9 0 0 1 1.64-1.545c.769-.55 1.774-1.065 2.962-1.416 1.18-.357 2.523-.557 3.933-.643.702-.036 1.397-.115 2.065.057.654.157 1.268.651 1.403 1.337.128.679-.182 1.33-.62 1.695-.439.372-.965.515-1.431.543-.951.043-1.673-.436-1.97-.886a1.534 1.534 0 0 1-.243-.58c-.013-.157-.013-.228-.013-.228ZM114.398 235.598s-.121.008-.357.008c-.277-.008-.614-.008-1.026-.015-.445.029-.992.057-1.619.115-.628.093-1.343.178-2.119.364-1.565.329-3.387.901-5.384 1.609-2.004.701-4.183 1.552-6.552 2.188-2.361.637-4.702.937-6.82.766-2.12-.172-3.968-.773-5.432-1.445a16.76 16.76 0 0 1-3.273-2.009c-.715-.565-1.066-.937-1.066-.937s.101.079.284.229c.182.157.452.379.816.658.722.55 1.815 1.294 3.28 1.959 1.463.658 3.299 1.237 5.397 1.409 2.098.164 4.42-.136 6.774-.773 2.355-.636 4.534-1.48 6.545-2.173 2.004-.708 3.832-1.266 5.404-1.588.783-.179 1.505-.257 2.132-.343.635-.05 1.181-.072 1.626-.093.412.021.756.036 1.026.043.236.014.364.028.364.028ZM101.943 306.806s-.013-.221-.027-.636c-.02-.415 0-1.03.068-1.824.141-1.58.654-3.832 1.639-6.464.945-2.646 2.389-5.678 3.32-9.282a31.06 31.06 0 0 0 .843-5.778c.081-2.03-.007-4.14-.364-6.264a29.22 29.22 0 0 0-1.653-6.028c-.736-1.881-1.545-3.654-2.078-5.449-.547-1.787-.736-3.611-.506-5.27.209-1.659.735-3.139 1.342-4.398 1.248-2.524 2.794-4.197 3.839-5.306 1.073-1.108 1.714-1.651 1.714-1.651s-.148.15-.438.436c-.291.286-.716.701-1.242 1.258-1.032 1.123-2.557 2.803-3.792 5.313-.6 1.252-1.113 2.725-1.316 4.37-.215 1.644-.033 3.439.52 5.212.526 1.781 1.343 3.547 2.078 5.435a29.236 29.236 0 0 1 1.66 6.057c.364 2.131.445 4.255.364 6.293a30.865 30.865 0 0 1-.85 5.806c-.944 3.626-2.395 6.65-3.353 9.289-.999 2.624-1.518 4.863-1.68 6.429-.074.786-.108 1.401-.095 1.816.014.422.007.636.007.636Z" fill="#263238"/><path d="M100.83 267.341s.06.1.162.3c.121.236.263.529.432.88.371.765.91 1.873 1.518 3.268.6 1.401 1.288 3.089 1.835 5.048.553 1.952.951 4.183.897 6.543-.033 2.36-.472 4.577-.998 6.529a50.26 50.26 0 0 1-1.748 5.084c-.567 1.416-1.066 2.546-1.41 3.325-.162.358-.297.651-.405.894-.094.2-.148.308-.148.308s.04-.115.121-.322c.101-.243.23-.544.378-.908.331-.787.816-1.917 1.37-3.34 1.079-2.824 2.597-6.865 2.699-11.577.047-2.338-.345-4.555-.884-6.5-.54-1.952-1.215-3.64-1.802-5.041-.594-1.402-1.12-2.518-1.477-3.29a63.666 63.666 0 0 0-.412-.894 4.095 4.095 0 0 1-.128-.307ZM107.509 263.723s-.067-.051-.114-.194a.726.726 0 0 1 .128-.636c.162-.25.56-.365.931-.214.385.135.688.55.85 1.029a4.72 4.72 0 0 1 .257 1.652c-.027.601-.108 1.266-.459 1.859-.182.279-.432.565-.796.644-.371.086-.736-.179-.918-.494-.364-.643-.634-1.351-.843-2.102a10.659 10.659 0 0 1-.264-4.362 10.44 10.44 0 0 1 1.121-3.375 9.74 9.74 0 0 1 1.362-1.931c.378-.407.614-.6.614-.6 0 .007-.047.064-.148.164-.101.1-.243.265-.425.472-.358.422-.85 1.058-1.316 1.945-.465.88-.89 2.017-1.079 3.339a10.625 10.625 0 0 0 .27 4.305c.202.737.472 1.445.823 2.06.175.293.472.507.782.436.304-.064.54-.315.709-.579.33-.551.425-1.209.452-1.788a4.72 4.72 0 0 0-.229-1.616c-.156-.472-.432-.858-.783-.987-.344-.15-.702-.05-.857.172a.74.74 0 0 0-.142.593c.02.143.081.2.074.208ZM110.91 288.336a.816.816 0 0 1-.088.171c-.081.143-.175.301-.276.472a28.479 28.479 0 0 0-.952 1.774 28.596 28.596 0 0 0-2.213 6.292 29.15 29.15 0 0 0-.58 8.717c.014.2.027.386.041.551.006.129.013.193.006.193 0 0-.189-1.051-.249-2.782-.061-1.73.074-4.133.647-6.714.581-2.575 1.478-4.791 2.267-6.307.783-1.516 1.397-2.367 1.397-2.367ZM100.695 276.201s-1.99.822-5.357 1.63c-3.36.78-8.124 1.466-13.387 1.13a46.474 46.474 0 0 1-7.347-1.03c-2.234-.479-4.197-1.144-5.85-1.637-1.66-.494-3.037-.722-3.995-.765-.479-.022-.85-.015-1.106 0-.25.014-.385.014-.385.014s.526-.1 1.498-.072c.965.029 2.355.244 4.021.723 1.667.479 3.617 1.13 5.85 1.601a47.94 47.94 0 0 0 7.328 1.016c5.249.329 9.999-.336 13.36-1.087a53.293 53.293 0 0 0 3.946-1.073c.432-.143.783-.25 1.059-.343.237-.071.365-.107.365-.107Z" fill="#263238"/><path d="M89.67 273.405s-.661.364-1.957.715a12.12 12.12 0 0 1-5.62.15 2.903 2.903 0 0 1-.87-.336c-.27-.165-.554-.386-.702-.715a.93.93 0 0 1 .202-1.03c.263-.257.62-.372.965-.443a28.931 28.931 0 0 1 4.467-.444 30.142 30.142 0 0 1 10.134 1.509c.675.229 1.336.472 1.95.715l.155.065-.155.071c-3.11 1.488-6.261 2.381-9.156 2.789a31.222 31.222 0 0 1-7.705.186c-2.18-.222-3.914-.601-5.088-.937a25.426 25.426 0 0 1-1.808-.565s.162.043.472.129c.31.079.756.243 1.35.379 1.174.315 2.908.679 5.08.887 2.173.214 4.798.221 7.685-.215a32.085 32.085 0 0 0 9.116-2.796l.007.136a44.604 44.604 0 0 0-1.937-.715 30.465 30.465 0 0 0-10.094-1.516 29.6 29.6 0 0 0-4.446.429c-.337.072-.675.179-.91.408a.816.816 0 0 0-.176.901c.29.586.938.865 1.49 1.001 2.342.5 4.299.214 5.588-.108.647-.164 1.14-.343 1.47-.464.317-.122.493-.186.493-.186ZM63.579 274.041c-.007-.007.121-.093.364-.229a9.828 9.828 0 0 1 1.046-.522c.904-.393 2.226-.772 3.718-.851a11 11 0 0 1 3.778.479c.465.151.837.294 1.086.415.25.115.385.186.385.193-.007.007-.149-.043-.405-.143-.25-.107-.627-.229-1.093-.364a11.682 11.682 0 0 0-3.745-.429 11.815 11.815 0 0 0-3.69.8c-.453.179-.817.344-1.06.472-.243.122-.378.186-.384.179ZM58.471 288.886s-.155-.186-.425-.557c-.263-.372-.675-.923-1.012-1.745a4.073 4.073 0 0 1-.304-1.452c0-.55.182-1.144.553-1.652.365-.493.972-.951 1.687-.851.344.05.682.236.938.508.256.272.452.622.587.994.284.751.358 1.602.419 2.467.053.872.047 1.781-.02 2.71a19.016 19.016 0 0 1-.85 4.326c-.15.487-.331.987-.622 1.423-.276.437-.749.823-1.302.794-.553-.014-1.005-.429-1.302-.879-.304-.458-.513-.987-.661-1.531a21.681 21.681 0 0 1-.702-8.724c.297-2.417.945-4.705 1.6-6.886.66-2.181 1.328-4.269 1.8-6.314.938-4.083.952-7.937.527-11.077a32.021 32.021 0 0 0-1.835-7.251 27.866 27.866 0 0 0-.796-1.866c-.196-.422-.29-.644-.29-.644s.114.215.316.63c.21.414.486 1.037.817 1.859a31.11 31.11 0 0 1 1.89 7.258 31.426 31.426 0 0 1-.5 11.12c-.466 2.052-1.134 4.147-1.795 6.328-.654 2.181-1.295 4.455-1.592 6.858a21.7 21.7 0 0 0 .283 7.015c.115.557.256 1.101.412 1.637.148.536.35 1.051.64 1.488.29.436.71.808 1.195.822.492.021.924-.315 1.194-.737.284-.422.459-.908.607-1.387.156-.486.29-.965.405-1.452.23-.965.371-1.916.452-2.846.075-.929.081-1.83.027-2.695-.06-.858-.128-1.702-.405-2.432-.25-.736-.782-1.351-1.45-1.444-.668-.093-1.255.336-1.613.808a2.743 2.743 0 0 0-.546 1.602c0 .536.128 1.022.29 1.423.324.815.728 1.373.985 1.752.256.4.398.6.398.6ZM62.546 290.839s.135 1.008-.033 2.638a16.967 16.967 0 0 1-1.782 6.064c-1.133 2.181-2.57 3.955-3.947 4.748-.681.401-1.316.537-1.747.544-.432.007-.668-.072-.668-.072 0-.021.236.036.66.015.426-.029 1.04-.172 1.701-.58 1.336-.793 2.753-2.56 3.873-4.726a17.526 17.526 0 0 0 1.802-6.007c.094-.808.114-1.466.121-1.916v-.522c.013-.122.013-.186.02-.186Z" fill="#263238"/><path d="M54.7 244.565s-.034.115-.115.315c-.088.2-.19.515-.304.915-.216.808-.378 2.038-.216 3.54.155 1.502.628 3.247 1.377 5.077.735 1.838 1.713 3.797 2.408 6 .344 1.101.587 2.216.668 3.31.088 1.095.04 2.153-.087 3.154-.257 1.995-.824 3.726-1.363 5.12a35.403 35.403 0 0 1-2.072 4.383s.047-.107.142-.307l.425-.865c.364-.751.884-1.852 1.417-3.254.526-1.401 1.08-3.118 1.322-5.098a15.37 15.37 0 0 0 .081-3.118c-.08-1.08-.324-2.181-.668-3.275-.688-2.188-1.666-4.141-2.395-5.993-.742-1.845-1.214-3.604-1.356-5.12-.155-1.516.027-2.76.263-3.568.243-.815.472-1.216.472-1.216ZM61.973 264.624c-.007 0 .007-.079.034-.222.02-.143.074-.358.108-.637.087-.55.161-1.358.148-2.359-.007-2.003-.56-4.734-1.565-7.594-1.013-2.861-2.038-5.414-2.558-7.344-.546-1.924-.66-3.168-.66-3.168.006 0 .02.071.053.221.034.143.06.358.122.63.108.55.297 1.33.58 2.288.54 1.916 1.579 4.462 2.59 7.33 1.013 2.867 1.553 5.627 1.532 7.644 0 1.008-.087 1.816-.195 2.367-.102.543-.19.844-.19.844Z" fill="#263238"/><path d="M46.394 266.004 42.5 298.247l13.32 2.267 8.258-32.744-17.684-1.766Z" fill="#FFBE9D"/><path d="m42.898 293.978-.175.922s-16.146 3.54-16.854 6.479l29.782 5.27 1.457-10.404c-4.81 1.351-9.486.772-14.21-2.267Z" fill="#00A355"/><path d="M53.498 299.012c.547.264.824 1.015.58 1.595-.242.586-.978.893-1.524.636-.554-.258-.911-1.144-.608-1.695.304-.55 1.181-.872 1.66-.486M55.65 306.642l.352-2.503-28.676-4.133s-1.437.365-1.457 1.366l29.782 5.27Z" fill="#fff" opacity=".6"/><path d="M42.608 294.972c-.02.15.695.35 1.323.965.64.594.89 1.316 1.039 1.28.142-.007.088-.951-.688-1.68-.77-.737-1.68-.715-1.674-.565ZM39.242 295.765c-.061.143.526.508.904 1.238.398.715.398 1.43.546 1.451.135.05.392-.822-.094-1.716-.486-.901-1.33-1.116-1.356-.973ZM36.765 299.348c.129.057.466-.665.243-1.559-.216-.901-.843-1.344-.93-1.23-.109.107.255.637.43 1.373.19.73.116 1.373.257 1.416Z" fill="#263238"/><path d="m64.942 266.354 2.165 28.16 12.192-1.873.824-27.66-15.181 1.373Z" fill="#FFBE9D"/><path d="M79.347 287.077s-8.185 7.001-12.746 1.859l-.904 2.739-3.583 19.279c-.229 1.251.419 2.553 1.593 2.924a2.335 2.335 0 0 0 2.476-.693c3.306-3.762 15.397-17.677 15.147-19.415l-.377-4.633c-.081-.959-.716-1.774-1.606-2.06Z" fill="#00A355"/><path d="m64.132 313.971 17.084-21.817.067 1.016c.169 1.094-.263 1.559-.722 2.302-1.35 2.203-5.168 7.194-14.317 17.706a2.315 2.315 0 0 1-2.112.793ZM78.294 289.351c-.553.458-.681 1.38-.263 1.966.418.587 1.322.73 1.882.279.56-.45.75-1.544.27-2.081-.479-.536-1.551-.643-1.99-.064" fill="#fff" opacity=".6"/><path d="M68.74 303.124c-.128.078-.735-1.137-2.152-1.709-1.403-.615-2.665-.186-2.706-.329-.027-.058.257-.265.796-.387.534-.121 1.323-.1 2.106.222.782.329 1.356.88 1.653 1.352.303.479.357.829.303.851ZM67.303 306.449c-.101.114-.897-.608-2.119-.873-1.214-.293-2.233.015-2.28-.135-.074-.115 1.005-.708 2.395-.379 1.383.307 2.119 1.315 2.004 1.387ZM71.54 298.79c-.1.122-1.315-.994-3.184-1.58-1.856-.615-3.475-.415-3.495-.572-.048-.122 1.653-.586 3.643.071 2.004.63 3.144 2.01 3.036 2.081ZM71.547 293.005c-.054.15-1.37-.307-3.036-.25-1.673.036-2.962.572-3.023.429-.074-.115 1.215-.908 3.01-.958 1.794-.058 3.117.665 3.05.779Z" fill="#263238"/><path d="M67.56 292.783c-.028 0-.048-.328.067-.908a6.474 6.474 0 0 1 .951-2.281c.297-.415.621-.958 1.296-1.194a.93.93 0 0 1 1.046.343c.236.336.283.737.25 1.116-.19 1.509-1.607 2.831-3.28 2.86-1.673 0-3.07-1.144-3.576-2.524-.108-.358-.162-.78.06-1.166.224-.386.71-.493 1.033-.4.675.186 1.06.643 1.43.987a6.938 6.938 0 0 1 1.37 2.03c.236.537.29.851.263.866-.087.05-.452-1.237-1.889-2.625-.364-.321-.782-.729-1.268-.829-.237-.05-.46.021-.56.214-.108.186-.095.487 0 .766.438 1.129 1.713 2.173 3.124 2.152 1.41-.014 2.651-1.173 2.82-2.388.034-.294-.007-.594-.142-.787a.507.507 0 0 0-.573-.193c-.473.136-.823.601-1.12.994-1.154 1.637-1.201 3.003-1.302 2.967ZM116.969 207.031s6.572 24.763-11.342 29.061l-28.567.3-17.253 48.805-17.199-1.273 6.282-54.833c.742-6.865 5.52-12.464 11.889-13.944l37.001-8.574 19.189.458ZM63.282 97.96c-13.022-2.368-14.237 10.11-14.15 13.693.089 3.583 1.242 6.758 2.43 10.111 1.187 3.354.432 7.931-.567 11.349-1.174 4.004-4.905 7.68-3.57 11.627 1.047 3.103 4.913 4.619 5.385 7.88.378 2.574-1.585 4.82-2.307 7.308-1.363 4.698 1.76 9.411 4.696 13.215 1.214 1.573 2.678 3.282 4.595 3.311 2.644.036 4.216-2.996 5.41-5.499 3.307-6.922 8.239-12.965 14.224-17.427M34.006 174.294l-7.672-8.23a.54.54 0 0 0-.533-.158l-8.9 2.432c-.41.114-.56.658-.262.979l14.722 16.247s11.011-3.182 10.687-3.332c-.33-.143-8.042-7.938-8.042-7.938Z" fill="#263238"/><path d="m23.487 178.671.169-.444c.182-.486.64-.801 1.133-.772 1.795.1 5.87.35 5.87.5-.007.201.378 1.295-.904 1.652-1.282.351-3.603.029-3.603.029l1.903 2.295.614-.865c.189-.2.452-.3.722-.264l3.373.421s.297 1.395-.701 1.616c-.999.222-2.247.108-2.247.108l-.392 2.624 3.556 2.903-1.302 2.11-4.696-2.517-.756-2.553a1.295 1.295 0 0 1 .054-.887l.257-.572-.898-.665a1.266 1.266 0 0 1-.479-1.208l.115-.715-1.491-1.445a1.266 1.266 0 0 1-.297-1.351Z" fill="#FFBE9D"/><path d="m39.053 186.107-2.335-2.109-6.902-1.051-.385 2.624-2.45 2.496 9.312 4.991 2.76-6.951Z" fill="#FFBE9D"/><path d="M35.7 174.866c.492.036.978-.135 1.355-.472l.385-.336c.614-.851 1.64-1.251 2.625-1.015l5.303 2.181 5.722 4.913-2.848 7.601-9.844-2.71c-1.052-.293-1.943-1.023-2.476-2.024l-.945-1.773s-3.346-1.38-3.07-3.361l-7.334-1.616s-.472-1.073.648-1.574c.924-.414 8.097.022 10.478.186Z" fill="#FFBE9D"/><path d="M37.265 179.042c-.02.101-2.881-.443-6.383-1.215-3.509-.772-6.336-1.48-6.315-1.58.02-.101 2.88.443 6.382 1.215 3.509.772 6.336 1.48 6.316 1.58ZM37.615 182.639c-.06.086-.634-.257-1.356-.636-.715-.386-1.322-.672-1.288-.772.027-.093.701.043 1.45.436.75.4 1.255.894 1.194.972ZM30.862 187.416c-.048.05-.743-.672-1.728-1.773l-.054-.058.014-.085c.114-.673.209-1.402.398-2.267.054-.179.182-.386.371-.479.182-.093.35-.1.492-.115.297-.021.58-.043.857-.064.27-.014.534-.05.79-.014a.702.702 0 0 0 .54-.129c.256-.236.27-.629.256-.844-.014-.236-.074-.343-.054-.365.014-.021.135.086.189.344.04.236.121.672-.23 1.065a.938.938 0 0 1-.721.236c-.23-.021-.48.029-.75.05a29.1 29.1 0 0 1-.843.079c-.317.036-.499.078-.58.357-.162.751-.29 1.559-.425 2.203l-.04-.143c.964 1.151 1.572 1.952 1.518 2.002Z" fill="#EB996E"/><path d="M25.646 178.664c.587.936 4.379 1.072 4.736 1.001a1.14 1.14 0 0 1 .891.164c.337.229.277.772-.094.937l-3.448 1.537-2.085-3.639Z" fill="#FFBE9D"/><path d="M30.504 180.937c-.007.043-.189.043-.5.05-.155 0-.344.008-.553.022a2.548 2.548 0 0 0-.323.043.688.688 0 0 0-.149.05c-.02.007-.04.021-.054.029-.007-.008-.013.05.014-.051l-.027.086c-.21.358-.452.758-.73 1.173-.99 1.495-1.962 2.567-2.03 2.496-.074-.072.77-1.23 1.747-2.711l.75-1.144-.027.086c.033-.171.087-.164.128-.207.04-.029.08-.043.121-.065a.864.864 0 0 1 .21-.05c.128-.021.249-.021.364-.021.222.007.418.029.573.057.31.064.486.122.486.157ZM30.794 179.636c-.007.1-1.37.172-3.043.15-.425-.014-.803-.014-1.113.122-.31.114-.52.35-.675.579-.297.458-.432.808-.486.779-.033-.014.007-.379.277-.922.135-.265.378-.586.762-.751.372-.179.817-.193 1.228-.179 1.687.022 3.05.122 3.05.222Z" fill="#EB996E"/><path d="M78.395 196.519c1.438.165 3.57-.443 4.521-1.594.951-1.152 2.024-2.346 2.652-3.726 1.315-2.91 3.663-6.736 4.85-9.125.075.694-1.902 7.609-2.077 10.956-.101 1.837.013 3.818 1.086 5.263.735.994 1.849 1.608 2.652 2.545 1.558 1.802 1.72 4.784.364 6.758-.695 1.015-1.943 1.787-3.05 1.344-.6-.243-1.046-.801-1.342-1.409-.29-.607-.453-1.272-.662-1.923-.89-2.753-2.698-5.156-5.02-6.7-1.167-.773-2.496-1.888-3.751-2.503" fill="#000" opacity=".3"/><path d="m35.814 194.317 14.675 5.198c5.23 1.881 11.005.544 15.013-3.482l5.188-5.206-15.336-4.391-8.218.987-7.59-2.581-3.732 9.475Z" fill="#00A355"/><path d="M50.813 191.571c.02-.015.243.386.641.994a16.684 16.684 0 0 0 1.768 2.216 15.144 15.144 0 0 0 2.112 1.845c.58.422.958.651.944.673-.006.007-.101-.043-.276-.136a8.98 8.98 0 0 1-.722-.451 13.382 13.382 0 0 1-2.153-1.83 13.926 13.926 0 0 1-1.747-2.267 10.297 10.297 0 0 1-.432-.758c-.095-.172-.142-.279-.135-.286Z" fill="#FAFAFA"/><path d="M53.984 192.979c.047.008-.121.823.128 1.788.243.965.776 1.588.736 1.616-.014.036-.62-.565-.87-1.573-.264-1.008-.028-1.852.006-1.831ZM52.48 191.821c.04 0 .06.708.256 1.545.196.836.493 1.473.453 1.494-.027.022-.392-.593-.588-1.459-.202-.865-.155-1.587-.121-1.58ZM51.744 194.982c.007-.036.567 0 1.228.214.661.215 1.154.515 1.134.551-.02.035-.527-.201-1.174-.408-.648-.214-1.195-.315-1.188-.357ZM50.34 193.158c.007-.036.71.136 1.472.601.769.457 1.268 1.008 1.241 1.037-.027.035-.56-.458-1.309-.901-.742-.465-1.417-.694-1.403-.737Z" fill="#FAFAFA"/><path d="M52.007 195.003a1.122 1.122 0 0 0-.627-.379c-.081-.014-.19-.014-.23.065-.033.064 0 .15.061.193a.375.375 0 0 0 .196.064c-.101.043-.196.1-.29.172-.04.035-.081.085-.061.135.02.043.08.043.128.036.115-.021.223-.043.33-.071-.026.057-.094.078-.141.114-.054.036-.088.115-.047.165.033.035.094.014.135-.015a1.64 1.64 0 0 0 .499-.457M52.439 192.007c-.04.014-.04.086-.007.114.034.029.081.022.122-.007a.291.291 0 0 0 .074-.107c.115-.229.21-.465.23-.722.006-.057 0-.122-.041-.15-.047-.036-.115-.008-.155.028a.648.648 0 0 0-.243.501.99.99 0 0 0-.02-.486c-.02-.058-.061-.129-.115-.115-.054.007-.074.072-.081.129-.027.164-.02.336.013.5a.566.566 0 0 0-.276-.393c-.04-.021-.088-.036-.128-.007-.034.021-.048.071-.034.114a.214.214 0 0 0 .06.108c.176.243.392.45.635.615M50.827 191.564c-.034.043 0 .114.047.121.054.014.108-.021.128-.071.027-.05.027-.1.034-.158.013-.307 0-.622-.102-.915-.02-.064-.06-.136-.121-.143-.074-.014-.128.05-.162.114a.8.8 0 0 0-.02.68 1.149 1.149 0 0 0-.263-.522c-.047-.057-.129-.108-.19-.065-.053.036-.046.122-.026.186a1.7 1.7 0 0 0 .27.544.65.65 0 0 0-.513-.286c-.054 0-.122.007-.149.057-.026.043-.013.1.014.143.034.043.074.064.121.093.324.172.668.286 1.026.343M42.116 187.223c.02.007-.122.443-.29 1.165a17.92 17.92 0 0 0-.432 2.868c-.074 1.13-.02 2.16.06 2.903.075.737.163 1.194.136 1.202-.007 0-.04-.108-.088-.315a11.01 11.01 0 0 1-.155-.872 14.98 14.98 0 0 1-.102-2.925 14.99 14.99 0 0 1 .473-2.882c.101-.358.189-.651.263-.844.088-.193.128-.3.135-.3Z" fill="#FAFAFA"/><path d="M43.189 190.691c.027.036-.668.436-1.194 1.273-.534.822-.628 1.659-.668 1.645-.034.007 0-.866.553-1.731.546-.865 1.302-1.223 1.309-1.187ZM43.033 188.725c.027.035-.465.507-.93 1.215-.473.701-.73 1.359-.77 1.338-.033-.008.169-.701.655-1.423.479-.723 1.025-1.159 1.045-1.13ZM40.294 190.198c.027-.022.371.457.648 1.13.283.672.385 1.258.35 1.265-.04.015-.202-.55-.478-1.208-.27-.658-.553-1.159-.52-1.187ZM40.679 187.888c.033-.022.364.658.54 1.573.175.915.108 1.673.074 1.673-.04 0-.04-.743-.21-1.644-.168-.901-.438-1.588-.404-1.602Z" fill="#FAFAFA"/><path d="M40.45 190.427a1.25 1.25 0 0 0-.142-.751c-.04-.079-.115-.158-.196-.143-.067.014-.108.1-.1.171.006.072.046.136.08.201a1.285 1.285 0 0 0-.31-.115c-.048-.014-.115-.007-.136.036-.02.05.02.093.061.129.088.078.176.15.27.221-.06.015-.114-.021-.175-.043-.061-.021-.142.008-.142.072 0 .05.054.086.101.1.21.079.432.114.655.1M42.872 188.818c-.04-.022-.088.021-.081.071 0 .043.04.079.08.093.041.007.088 0 .129-.007.236-.057.472-.136.668-.286.04-.036.087-.079.08-.136-.006-.057-.067-.093-.127-.107a.56.56 0 0 0-.513.136.94.94 0 0 0 .33-.329c.027-.05.054-.129.007-.165-.04-.035-.101-.014-.148.015a1.07 1.07 0 0 0-.344.343.575.575 0 0 0 .1-.479c-.013-.043-.033-.093-.073-.107-.04-.015-.081.014-.102.042-.027.036-.033.079-.04.115a2.93 2.93 0 0 0-.027.908M42.136 187.23c-.054 0-.08.072-.054.122a.12.12 0 0 0 .135.057.291.291 0 0 0 .135-.079c.23-.186.445-.407.587-.679.034-.057.06-.136.02-.193-.04-.064-.121-.072-.189-.057a.7.7 0 0 0-.499.429c.115-.158.182-.351.203-.551.006-.079-.007-.171-.075-.193-.06-.021-.114.043-.148.1a1.527 1.527 0 0 0-.21.572.74.74 0 0 0-.127-.6c-.034-.043-.081-.093-.135-.086-.048.007-.081.057-.095.107-.007.05 0 .107.014.157.087.372.229.723.425 1.044" fill="#FAFAFA"/><path d="M106.457 185.171c-2.476-3.111-3.826-7.101-3.569-11.17.013-.25.04-.508.06-.772.945-9.26 2.645-24.356-.715-31.857-2.206-4.927-15.943-7.237-15.943-7.237l-15.89 3.468-7.294 6.779a7.141 7.141 0 0 0-2.172 4.162l-6.673 44.128 13.521-1.023 1.046-12.807 1.505 16.919s12.84 10.583 17.002 12.543c4.164 1.959 11.444-3.504 17.057-1.08 5.614 2.424 12.901 0 12.901 0 .304-7.037-6.869-17.069-10.836-22.053Z" fill="#00A355"/><path d="m94.177 139.291-20.43 39.251-22.07.408-3.752 9.982 28.534 6.951c3.266.593 5.762.157 7.854-2.567l18.777-37.113c-.013.007 1.485-16.469-8.913-16.912Z" fill="#00A355"/><path d="M38.526 187.416c0 .007 3.617 1.016 5.89 1.645 1.026.286 1.667 1.358 1.478 2.46-.202 1.201.574 2.345 1.72 2.51 5.02.736 17.355 2.51 17.59 2.288.29-.279 2.416-2.589 2.416-2.589l-19.695-4.798.317-1.201-8.872-2.446-.844 2.131Z" fill="#000" opacity=".3"/><path d="M69.449 178.62c-.02.008-.115-.207-.277-.622l-.675-1.787.034.05a9.94 9.94 0 0 1-2.517-3.325c-.742-1.516-1.093-3.461-1.08-5.478 0-1.73.156-3.361.203-4.841.054-1.48-.02-2.81-.222-3.897-.385-2.21-1.269-3.325-1.195-3.354.007-.007.068.057.162.186.102.129.23.336.385.601.303.543.661 1.401.89 2.51.237 1.108.338 2.467.297 3.961-.027 1.495-.175 3.125-.175 4.827-.007 1.988.317 3.861 1.012 5.334a10.313 10.313 0 0 0 2.375 3.304l.02.022.007.028c.236.73.425 1.337.58 1.824.129.422.19.65.176.657ZM101.174 185.857c.02 0 .067.272.101.78.034.507.041 1.237-.047 2.145-.162 1.795-.776 4.298-2.227 6.629-1.45 2.331-3.373 3.918-4.871 4.784-.75.436-1.39.722-1.842.886-.452.165-.709.229-.715.208-.027-.065.985-.408 2.429-1.323a15.269 15.269 0 0 0 4.702-4.763c1.411-2.274 2.058-4.698 2.274-6.457.236-1.773.128-2.889.196-2.889Z" fill="#263238"/><path d="M92.807 152.806c.007.007-.067.136-.202.365-.142.229-.33.565-.56.98a21.247 21.247 0 0 0-1.491 3.425 21.75 21.75 0 0 0-.877 3.654c-.075.479-.122.865-.149 1.137-.027.272-.047.415-.06.415-.007 0-.007-.151.006-.422.014-.272.047-.665.108-1.144.122-.966.378-2.289.844-3.69a19.15 19.15 0 0 1 1.538-3.426c.243-.414.445-.743.6-.958.149-.221.237-.336.243-.336Z" fill="#FAFAFA"/><path d="M92.996 157.533c.02.05-.992.279-1.923 1.13-.944.836-1.329 1.852-1.37 1.83-.013-.007.061-.264.257-.643a4.85 4.85 0 0 1 1.019-1.302c.479-.429.992-.708 1.376-.851.385-.143.641-.178.641-.164ZM93.455 155.023c.02.043-.762.443-1.579 1.158-.823.708-1.356 1.438-1.39 1.409-.013-.014.102-.207.324-.493a7.235 7.235 0 0 1 2.125-1.831c.311-.179.513-.265.52-.243ZM89.542 155.852c.034-.014.29.715.418 1.652.129.944.075 1.716.04 1.716-.04 0-.053-.765-.181-1.694-.122-.93-.318-1.667-.277-1.674ZM90.79 153.099c.02 0 .068.236.115.63.04.393.06.936.02 1.537a8.873 8.873 0 0 1-.236 1.516c-.095.379-.182.608-.203.601-.04-.015.216-.944.297-2.131.088-1.187-.033-2.145.007-2.153Z" fill="#FAFAFA"/><path d="M89.656 156.188c.129-.307.149-.665.075-.993-.027-.115-.088-.244-.196-.251-.088-.007-.162.086-.182.179a.662.662 0 0 0 .034.279 1.874 1.874 0 0 0-.351-.265c-.061-.035-.142-.057-.183 0-.04.05 0 .129.034.179.088.129.176.25.263.372-.08 0-.141-.072-.209-.114-.067-.043-.182-.051-.202.035-.02.065.034.122.088.165.236.179.506.3.782.364M93.226 155.08c-.04-.036-.115 0-.129.057-.013.057.028.115.075.143a.314.314 0 0 0 .162.036c.31.021.634 0 .93-.107.068-.022.136-.065.15-.136.013-.079-.055-.143-.122-.179a.73.73 0 0 0-.689-.021c.196-.043.378-.143.527-.286.054-.058.108-.143.067-.208-.04-.057-.121-.05-.189-.036a1.531 1.531 0 0 0-.546.294.748.748 0 0 0 .283-.558c0-.065-.013-.129-.06-.165-.041-.028-.102-.014-.142.022a.397.397 0 0 0-.088.129c-.169.35-.283.736-.33 1.122M92.82 152.82c-.06-.021-.127.058-.107.129.013.072.088.115.148.122.068.007.129-.022.196-.043.35-.15.695-.343.965-.629.06-.065.115-.151.094-.236-.027-.093-.128-.136-.222-.143a.892.892 0 0 0-.763.35c.19-.157.344-.372.432-.615.034-.093.047-.222-.027-.272-.067-.05-.162.007-.223.065a1.904 1.904 0 0 0-.452.636.934.934 0 0 0 .034-.794c-.027-.071-.074-.143-.142-.157-.06-.007-.121.036-.148.1a.499.499 0 0 0-.034.2 4.88 4.88 0 0 0 .19 1.466M74.023 165.02c.007.007-.067.136-.202.365-.142.228-.33.564-.56.979a21.327 21.327 0 0 0-1.491 3.425 21.75 21.75 0 0 0-.877 3.655c-.075.479-.122.865-.149 1.136-.027.272-.047.415-.06.415-.007 0-.007-.15.006-.422.014-.271.047-.665.108-1.144.121-.965.378-2.288.843-3.69a19.145 19.145 0 0 1 1.539-3.425c.243-.415.445-.744.6-.958.149-.229.236-.343.243-.336Z" fill="#FAFAFA"/><path d="M74.212 169.739c.02.05-.992.279-1.923 1.13-.944.837-1.329 1.852-1.37 1.831-.013-.007.061-.265.257-.644s.54-.865 1.019-1.301a4.494 4.494 0 0 1 1.376-.851c.385-.143.641-.179.641-.165ZM74.671 167.229c.02.043-.762.444-1.579 1.159-.823.708-1.356 1.437-1.39 1.409-.013-.015.102-.208.324-.494.223-.286.56-.665.978-1.022a7.174 7.174 0 0 1 1.147-.808c.31-.179.513-.258.52-.244ZM70.758 168.059c.033-.015.29.715.418 1.652.129.944.075 1.716.04 1.716-.04 0-.053-.765-.181-1.695-.122-.93-.318-1.659-.277-1.673ZM72.006 165.306c.02 0 .068.236.115.629.04.393.06.937.02 1.537a8.187 8.187 0 0 1-.243 1.516c-.094.379-.182.608-.203.601-.04-.014.217-.944.298-2.131.094-1.187-.027-2.145.013-2.152Z" fill="#FAFAFA"/><path d="M70.88 168.395c.127-.307.148-.665.073-.994-.027-.114-.087-.243-.195-.25-.088-.007-.162.086-.182.179a.658.658 0 0 0 .033.278 1.827 1.827 0 0 0-.35-.264c-.061-.036-.142-.057-.183 0-.04.05 0 .129.034.179.088.128.175.25.263.371-.08 0-.142-.071-.21-.114-.067-.043-.181-.05-.201.036-.02.064.04.121.087.164.236.179.506.301.783.365M74.442 167.287c-.04-.036-.115 0-.129.057-.013.057.027.114.075.143a.323.323 0 0 0 .161.035c.31.022.635 0 .932-.107.067-.021.135-.064.148-.136.014-.078-.054-.143-.121-.178a.733.733 0 0 0-.689-.022c.196-.043.378-.143.527-.286.054-.057.108-.143.067-.207-.04-.057-.121-.05-.189-.036a1.514 1.514 0 0 0-.546.293.747.747 0 0 0 .283-.558c0-.064-.013-.128-.06-.164-.041-.029-.102-.014-.142.021a.395.395 0 0 0-.088.129c-.169.35-.283.737-.33 1.123M74.037 165.034c-.061-.021-.129.057-.108.129.013.071.087.114.148.121.068.007.128-.021.196-.043.35-.15.695-.343.965-.629.06-.064.114-.15.094-.236-.027-.093-.128-.136-.222-.143a.895.895 0 0 0-.763.351c.189-.158.344-.372.432-.615.034-.093.047-.222-.027-.272-.067-.05-.162.007-.223.064a1.994 1.994 0 0 0-.452.637.935.935 0 0 0 .034-.794c-.027-.072-.074-.143-.142-.157-.06-.008-.121.035-.148.1a.476.476 0 0 0-.034.2c-.013.493.054.994.189 1.466M74.927 186.436c0-.007.142-.028.398-.042.257-.015.621-.05 1.073-.108a18.91 18.91 0 0 0 3.482-.772 19.971 19.971 0 0 0 3.292-1.43c.405-.222.73-.415.952-.551.222-.136.344-.207.35-.2.007.007-.107.093-.323.25-.21.15-.526.358-.931.594a17.055 17.055 0 0 1-3.3 1.48 16.716 16.716 0 0 1-3.515.737c-.459.042-.83.064-1.086.064-.25-.007-.392-.014-.392-.022Z" fill="#FAFAFA"/><path d="M78.389 183.454c.027-.042.803.673 2.004.959 1.2.307 2.2.021 2.2.071.006.015-.237.107-.642.165a4.351 4.351 0 0 1-1.592-.093 4.468 4.468 0 0 1-1.464-.658c-.338-.236-.513-.429-.506-.444ZM76.216 184.563c.02-.043.79.379 1.822.658 1.025.279 1.896.3 1.896.343 0 .021-.216.036-.567.021a6.869 6.869 0 0 1-2.658-.715c-.324-.164-.506-.293-.493-.307ZM79.171 187.395c-.027-.022.365-.673 1.006-1.345.634-.672 1.255-1.087 1.275-1.058.027.036-.547.5-1.174 1.158-.628.672-1.073 1.273-1.107 1.245ZM76.344 187.974c-.013-.014.135-.2.405-.465.27-.272.675-.615 1.154-.93a7.724 7.724 0 0 1 1.289-.7c.344-.143.566-.208.573-.186.014.043-.843.379-1.788 1.015-.945.622-1.599 1.302-1.633 1.266Z" fill="#FAFAFA"/><path d="M79.36 187.094c-.31.079-.594.265-.796.529-.067.086-.128.215-.067.315.047.079.162.086.243.05.08-.036.135-.121.188-.2-.013.15-.013.307.014.458.013.071.04.15.108.157.06 0 .094-.072.115-.136.047-.15.087-.3.128-.451.047.072.027.165.033.244.007.085.075.178.149.157.06-.022.074-.107.074-.172a2.336 2.336 0 0 0-.189-.886M76.391 184.727c-.006.058.068.101.115.072.047-.022.074-.093.068-.15-.007-.057-.04-.107-.068-.158-.175-.278-.378-.543-.634-.722-.054-.043-.128-.078-.189-.043-.067.036-.074.129-.067.208.033.25.182.479.398.6a1.035 1.035 0 0 0-.533-.271c-.075-.015-.169-.008-.196.064-.02.064.034.136.088.179.162.136.35.229.553.286a.632.632 0 0 0-.594.093c-.047.035-.094.086-.087.15.006.057.047.1.1.114.048.015.102.007.156 0 .364-.064.722-.2 1.046-.393M74.927 186.408c.02.064.122.071.17.014.046-.057.04-.143 0-.2a.47.47 0 0 0-.15-.136c-.323-.207-.674-.386-1.052-.443-.08-.015-.182-.015-.236.057-.054.079-.02.193.027.272a.913.913 0 0 0 .722.443 1.273 1.273 0 0 0-.729 0c-.088.029-.195.093-.189.186.007.086.101.129.182.15.243.057.5.057.75.007a.863.863 0 0 0-.621.444c-.034.064-.061.15-.034.214.027.057.101.079.162.064a.403.403 0 0 0 .168-.092c.385-.287.722-.637 1-1.037M95.722 202.04c.007-.008.142.035.385.114.243.086.594.2 1.032.329.877.265 2.112.551 3.495.679 1.383.129 2.652.086 3.556-.007.452-.043.823-.093 1.073-.129.256-.035.391-.05.398-.043 0 .008-.135.043-.385.101a11.65 11.65 0 0 1-1.073.178c-.91.115-2.186.179-3.582.05a16.838 16.838 0 0 1-3.516-.729c-.438-.143-.79-.272-1.025-.379-.23-.093-.358-.157-.358-.164Z" fill="#FAFAFA"/><path d="M100 200.674c.04-.029.499.944 1.511 1.694.999.766 2.024.901 2.011.952 0 .014-.256.007-.655-.108a4.49 4.49 0 0 1-1.437-.722 4.792 4.792 0 0 1-1.12-1.201c-.236-.358-.324-.608-.31-.615ZM97.584 200.824c.034-.029.594.672 1.451 1.337.85.672 1.646 1.037 1.633 1.08-.007.014-.216-.05-.533-.208a7.078 7.078 0 0 1-2.2-1.73c-.236-.279-.364-.465-.35-.479ZM99.312 204.635c-.02-.028.58-.479 1.41-.836.83-.365 1.552-.501 1.558-.465.007.043-.688.243-1.504.601-.817.357-1.437.743-1.464.7ZM96.491 204.035c-.006-.015.196-.129.547-.272a8.164 8.164 0 0 1 1.403-.401 7.173 7.173 0 0 1 1.444-.128c.371.007.601.035.601.057 0 .05-.918.007-2.018.222-1.113.2-1.963.564-1.977.522Z" fill="#FAFAFA"/><path d="M99.595 204.435a1.388 1.388 0 0 0-.924.172c-.095.057-.196.15-.176.264.02.093.115.15.21.143.087-.007.168-.057.25-.107a1.611 1.611 0 0 0-.15.429c-.013.064-.013.157.048.186.054.029.115-.029.155-.079.095-.121.189-.243.277-.364.02.078-.034.164-.054.243-.027.078 0 .2.08.2.061 0 .102-.072.129-.129.108-.286.155-.593.142-.901M97.7 201.046c-.028.05.026.121.08.114.054 0 .101-.057.115-.114a.37.37 0 0 0-.007-.172c-.06-.329-.155-.651-.33-.93-.041-.057-.095-.121-.163-.114-.074.007-.114.093-.135.172-.06.243 0 .522.149.715a1.127 1.127 0 0 0-.398-.465c-.06-.043-.155-.079-.203-.015-.047.058-.02.136.014.201.101.186.243.357.405.486a.64.64 0 0 0-.58-.15c-.054.014-.115.043-.135.1-.014.05.013.107.054.143a.27.27 0 0 0 .141.057c.365.086.743.107 1.107.057M95.736 202.018c-.007.072.087.115.148.079.06-.036.088-.115.074-.186a.463.463 0 0 0-.087-.186c-.223-.322-.486-.629-.817-.83-.074-.042-.162-.085-.236-.035-.08.05-.088.164-.074.257.047.3.243.572.513.701a1.35 1.35 0 0 0-.675-.293c-.095-.015-.216.007-.243.1-.027.086.047.164.115.207.209.15.445.258.695.308a.815.815 0 0 0-.736.164c-.054.05-.114.115-.108.186.007.064.068.114.128.129a.42.42 0 0 0 .19-.015c.451-.107.897-.3 1.295-.557M86.681 169.303c.027 0 .027.465.094 1.201.068.744.21 1.759.5 2.853.29 1.095.66 2.046.971 2.711.304.672.527 1.065.506 1.079-.006.008-.074-.085-.175-.264-.108-.172-.25-.436-.418-.765a15.061 15.061 0 0 1-1.02-2.718 14.793 14.793 0 0 1-.458-2.881c-.02-.372-.027-.68-.02-.887 0-.215.007-.329.02-.329Z" fill="#FAFAFA"/><path d="M88.78 172.185c.04.028-.493.651-.723 1.623-.243.965-.067 1.788-.114 1.788-.027.021-.277-.815-.02-1.831.236-1.008.836-1.609.856-1.58ZM88.017 170.39c.04.021-.277.644-.5 1.48-.222.83-.263 1.538-.303 1.538-.034 0-.06-.723.169-1.574.222-.865.6-1.465.634-1.444ZM85.898 172.75c.02-.029.493.3.965.836.48.537.763 1.052.729 1.073-.034.021-.364-.443-.83-.972-.466-.522-.89-.901-.864-.937ZM85.534 170.433c.02-.029.553.486.998 1.294.453.801.628 1.538.594 1.552-.04.014-.27-.686-.715-1.473-.439-.794-.91-1.344-.877-1.373Z" fill="#FAFAFA"/><path d="M86.114 172.907a1.224 1.224 0 0 0-.37-.658c-.062-.057-.156-.107-.23-.064-.061.036-.068.129-.04.2a.444.444 0 0 0 .14.157 1.306 1.306 0 0 0-.33 0c-.047.008-.114.029-.114.086 0 .05.054.079.094.1.108.043.216.079.324.115-.054.035-.121.021-.182.021-.061.007-.135.057-.115.115.014.05.074.064.121.064.223 0 .446-.043.648-.136M87.889 170.533c-.04-.007-.075.05-.054.093.02.043.067.057.108.057a.32.32 0 0 0 .114-.05c.203-.136.398-.293.54-.508.027-.043.06-.107.034-.157-.027-.057-.094-.064-.148-.057a.613.613 0 0 0-.446.307c.101-.121.176-.271.21-.429.013-.057.006-.136-.048-.164-.047-.022-.101.021-.135.064a1.289 1.289 0 0 0-.222.444.588.588 0 0 0-.055-.487c-.027-.035-.06-.078-.107-.071-.04 0-.075.036-.081.078-.014.043-.007.086 0 .129.04.3.128.594.263.865M86.695 169.303c-.048.014-.054.1-.014.136.04.036.101.036.148.007a.292.292 0 0 0 .102-.121c.155-.258.297-.544.344-.851.013-.065.013-.151-.04-.193-.055-.051-.136-.022-.196.014a.773.773 0 0 0-.338.579c.054-.186.06-.393.014-.593-.02-.072-.061-.165-.135-.158-.068 0-.095.079-.115.143a1.57 1.57 0 0 0-.02.615.71.71 0 0 0-.31-.515c-.048-.028-.109-.057-.156-.028-.04.021-.06.078-.054.136.007.057.034.1.061.143.196.314.445.6.736.836M79.57 170.082c.02.015-.284.358-.722.937a16.27 16.27 0 0 0-1.505 2.424 17.095 17.095 0 0 0-1.073 2.668c-.216.708-.317 1.158-.344 1.151-.007 0 .007-.115.047-.322.034-.207.101-.5.203-.858.195-.722.533-1.695 1.045-2.71a14.063 14.063 0 0 1 1.552-2.417c.23-.286.425-.508.567-.651.142-.15.223-.229.23-.222Z" fill="#FAFAFA"/><path d="M79.192 173.701c.006.05-.783.107-1.58.636-.809.515-1.214 1.237-1.254 1.209-.034-.007.337-.794 1.18-1.337.837-.544 1.667-.544 1.654-.508ZM79.82 171.849c.013.043-.622.257-1.323.701-.702.436-1.195.915-1.222.886-.027-.021.432-.565 1.154-1.015.715-.451 1.383-.608 1.39-.572ZM76.75 171.992c.033-.007.161.579.154 1.308-.006.737-.141 1.316-.175 1.309-.04-.007.027-.586.034-1.309.006-.715-.054-1.301-.014-1.308ZM78.005 170.054c.033 0 .08.758-.122 1.666-.196.908-.554 1.573-.587 1.552-.04-.022.256-.701.445-1.588.203-.886.223-1.63.264-1.63Z" fill="#FAFAFA"/><path d="M79.637 171.863c-.027-.036-.088-.014-.101.029-.014.043.007.093.04.121.034.029.074.036.115.05.236.05.479.079.722.029.054-.007.108-.036.128-.086.02-.057-.027-.114-.074-.15a.572.572 0 0 0-.52-.1.806.806 0 0 0 .432-.157c.047-.036.095-.093.074-.151-.02-.05-.087-.057-.141-.05-.156.022-.31.072-.446.158a.539.539 0 0 0 .277-.394c.007-.043.007-.1-.027-.128-.027-.029-.074-.022-.115-.008a.274.274 0 0 0-.08.093 2.696 2.696 0 0 0-.379.816M79.583 170.097c-.047-.029-.101.028-.101.086.007.057.054.1.1.114.048.014.102 0 .15-.014.283-.072.566-.172.802-.365.054-.043.108-.1.095-.164-.007-.079-.088-.115-.156-.136a.672.672 0 0 0-.62.171 1.09 1.09 0 0 0 .398-.414c.034-.065.06-.165.007-.215-.048-.043-.122-.014-.176.022a1.42 1.42 0 0 0-.411.429.726.726 0 0 0 .114-.601c-.013-.057-.04-.122-.094-.136-.047-.014-.095.014-.128.057a.355.355 0 0 0-.048.15 3.784 3.784 0 0 0-.02 1.137M88.07 138.247c.021.014-.282.357-.721.937a16.278 16.278 0 0 0-1.505 2.424 17.109 17.109 0 0 0-1.072 2.667c-.216.708-.318 1.158-.345 1.151-.006 0 .007-.114.048-.322.033-.207.1-.5.202-.858.196-.722.533-1.694 1.046-2.71a14.057 14.057 0 0 1 1.552-2.417 8.77 8.77 0 0 1 .566-.651c.142-.15.223-.228.23-.221Z" fill="#FAFAFA"/><path d="M87.693 141.872c.007.05-.783.108-1.579.637-.81.515-1.214 1.237-1.255 1.208-.033-.007.338-.794 1.181-1.337.837-.551 1.667-.544 1.653-.508ZM88.32 140.013c.014.043-.62.258-1.322.701-.702.436-1.194.915-1.221.887-.027-.022.432-.565 1.154-1.016.715-.45 1.383-.608 1.39-.572ZM85.25 140.163c.034-.007.163.58.156 1.309-.007.737-.142 1.316-.176 1.309-.04-.008.027-.587.034-1.309.007-.722-.054-1.309-.013-1.309ZM86.506 138.218c.034 0 .081.758-.121 1.666-.196.909-.554 1.574-.588 1.552-.04-.021.257-.701.446-1.587.202-.88.216-1.631.263-1.631Z" fill="#FAFAFA"/><path d="M88.138 140.027c-.027-.035-.087-.014-.1.029-.014.043.006.093.04.122.033.028.074.035.114.05.237.05.48.078.722.028.054-.007.108-.036.129-.086.02-.057-.028-.114-.075-.15a.562.562 0 0 0-.526-.1.798.798 0 0 0 .432-.157c.047-.036.094-.093.074-.15-.02-.05-.088-.058-.142-.05-.155.021-.31.071-.445.157a.539.539 0 0 0 .277-.393c.006-.043.006-.101-.027-.129-.027-.029-.075-.022-.115-.007a.258.258 0 0 0-.081.093 2.693 2.693 0 0 0-.378.815M88.084 138.261c-.047-.028-.1.029-.1.086.006.057.053.1.1.114.048.015.102 0 .149-.014.283-.071.567-.172.803-.365.054-.042.108-.1.094-.164-.006-.079-.087-.114-.155-.136a.67.67 0 0 0-.62.172c.161-.093.303-.243.397-.415.034-.064.061-.165.007-.215-.047-.042-.121-.014-.175.022a1.42 1.42 0 0 0-.412.429.725.725 0 0 0 .115-.601c-.014-.057-.04-.121-.095-.136-.047-.014-.094.015-.121.058a.354.354 0 0 0-.047.15 3.776 3.776 0 0 0-.02 1.137M61.845 182.36c.027 0 .027.465.094 1.202.068.743.21 1.759.5 2.853.29 1.094.66 2.045.971 2.71.304.672.526 1.065.506 1.08-.007.007-.074-.086-.175-.265-.108-.171-.25-.436-.419-.765a14.875 14.875 0 0 1-1.019-2.717 14.797 14.797 0 0 1-.458-2.882c-.02-.372-.027-.679-.02-.887.006-.214.013-.329.02-.329Z" fill="#FAFAFA"/><path d="M63.943 185.249c.04.029-.493.651-.722 1.624-.243.965-.067 1.787-.115 1.787-.027.022-.276-.815-.02-1.83.243-1.009.843-1.616.857-1.581ZM63.18 183.447c.041.022-.276.644-.499 1.481-.222.829-.263 1.537-.303 1.537-.034 0-.061-.722.168-1.573.23-.858.608-1.466.635-1.445ZM61.062 185.807c.02-.028.492.3.965.837.479.536.762 1.051.728 1.072-.033.022-.364-.443-.83-.972-.465-.522-.89-.901-.863-.937ZM60.698 183.49c.02-.028.553.487.998 1.295.452.801.628 1.537.594 1.551-.04.015-.27-.686-.715-1.473-.432-.793-.911-1.344-.877-1.373Z" fill="#FAFAFA"/><path d="M61.278 185.972a1.217 1.217 0 0 0-.371-.658c-.061-.058-.155-.108-.23-.065-.06.036-.067.129-.04.201a.443.443 0 0 0 .142.157 1.306 1.306 0 0 0-.331 0c-.047.007-.115.028-.115.086 0 .05.054.078.095.1.108.043.216.078.324.114-.054.036-.122.022-.183.022-.06.007-.135.057-.114.114.013.05.074.057.121.064.223 0 .446-.043.648-.135M63.06 183.59c-.041-.007-.075.05-.055.093.02.043.068.058.108.058a.341.341 0 0 0 .115-.051c.202-.135.398-.293.54-.507.026-.043.06-.108.033-.158-.027-.057-.094-.064-.148-.057a.615.615 0 0 0-.445.308.94.94 0 0 0 .209-.429c.013-.058.006-.136-.047-.165-.048-.021-.102.022-.136.065a1.275 1.275 0 0 0-.222.443.586.586 0 0 0-.054-.486c-.027-.036-.06-.079-.108-.072-.04 0-.074.036-.081.079a.41.41 0 0 0 0 .129c.04.3.128.593.263.865M61.865 182.36c-.047.015-.054.101-.014.136.04.036.102.036.149.007a.286.286 0 0 0 .101-.121c.155-.258.297-.544.344-.851.014-.064.014-.15-.04-.193-.054-.05-.135-.022-.196.014a.775.775 0 0 0-.337.579c.054-.186.06-.393.013-.593-.02-.072-.06-.165-.135-.157-.067 0-.094.078-.114.143a1.57 1.57 0 0 0-.02.615.706.706 0 0 0-.311-.515c-.047-.029-.108-.058-.155-.029-.04.022-.061.079-.054.136.006.05.033.1.06.143.196.315.446.601.736.837M94.575 186.021c.027 0 .027.465.095 1.202.067.744.209 1.759.499 2.853.29 1.094.661 2.045.972 2.71.303.672.526 1.066.505 1.08-.006.007-.074-.086-.175-.265a11.01 11.01 0 0 1-.418-.765 15.07 15.07 0 0 1-1.019-2.717 14.79 14.79 0 0 1-.459-2.882c-.02-.372-.027-.679-.02-.887.007-.214.013-.329.02-.329Z" fill="#FAFAFA"/><path d="M96.674 188.91c.04.029-.493.651-.722 1.624-.243.965-.068 1.787-.115 1.787-.027.022-.277-.815-.02-1.83.243-1.008.843-1.616.857-1.581ZM95.911 187.108c.04.022-.276.644-.5 1.481-.222.829-.262 1.537-.303 1.537-.034 0-.06-.722.169-1.573.23-.858.607-1.466.634-1.445ZM93.793 189.468c.02-.028.492.301.964.837.48.536.763 1.051.729 1.073-.034.021-.364-.444-.83-.973-.459-.522-.884-.901-.864-.937ZM93.428 187.152c.02-.029.553.486.999 1.294.452.801.627 1.537.593 1.552-.04.014-.27-.687-.715-1.474-.431-.793-.904-1.344-.877-1.372Z" fill="#FAFAFA"/><path d="M94.008 189.633a1.217 1.217 0 0 0-.37-.658c-.061-.057-.156-.107-.23-.065-.06.036-.068.129-.04.201a.443.443 0 0 0 .141.157 1.306 1.306 0 0 0-.33 0c-.048.007-.115.029-.115.086 0 .05.054.078.094.1.108.043.216.079.324.114-.047.036-.121.022-.182.022-.06.007-.135.057-.115.114.014.05.075.057.122.065.222 0 .445-.043.647-.136M95.79 187.251c-.04-.007-.075.051-.054.093.013.043.067.058.108.058a.338.338 0 0 0 .114-.05 1.88 1.88 0 0 0 .54-.508c.027-.043.06-.107.034-.157-.027-.058-.095-.065-.149-.058a.615.615 0 0 0-.445.308c.101-.122.175-.272.21-.429.013-.057.006-.136-.048-.165-.047-.021-.101.022-.135.065a1.284 1.284 0 0 0-.223.443.586.586 0 0 0-.053-.486c-.027-.036-.061-.079-.108-.072-.041 0-.075.036-.082.079-.013.043-.006.086 0 .129.041.3.129.593.264.865M94.595 186.022c-.047.014-.054.1-.013.135.04.036.101.036.148.008a.294.294 0 0 0 .102-.122c.155-.257.296-.543.344-.851.013-.064.013-.15-.04-.193-.055-.05-.136-.021-.197.014a.75.75 0 0 0-.33.58c.054-.186.06-.394.013-.594-.02-.071-.06-.164-.135-.157-.067 0-.094.078-.114.143-.047.2-.054.407-.02.615a.706.706 0 0 0-.31-.515c-.048-.029-.109-.057-.156-.029-.04.022-.06.079-.054.136.007.05.034.1.06.143.196.315.446.601.736.837M103.131 157.411c.006.022-.405.179-1.039.494a14.82 14.82 0 0 0-2.376 1.437 15.87 15.87 0 0 0-2.098 1.866c-.5.53-.776.88-.796.866-.007-.008.054-.101.175-.265.122-.164.304-.393.547-.672a13.375 13.375 0 0 1 2.092-1.917 13.43 13.43 0 0 1 2.415-1.408c.324-.143.594-.251.783-.308.189-.078.29-.107.297-.093Z" fill="#FAFAFA"/><path d="M101.248 160.458c-.013.05-.742-.279-1.68-.186-.944.071-1.612.522-1.633.479-.027-.022.635-.544 1.62-.622.985-.101 1.72.3 1.693.329ZM102.598 159.106c-.007.043-.668-.064-1.478-.007-.816.05-1.458.243-1.471.2-.013-.036.621-.3 1.457-.35.844-.065 1.505.121 1.492.157ZM99.797 157.762c.034.007-.1.593-.425 1.244-.317.65-.688 1.108-.715 1.087-.033-.029.277-.515.587-1.152.324-.643.513-1.194.553-1.179ZM101.747 156.632c.034.014-.256.715-.823 1.43s-1.167 1.137-1.18 1.108c-.028-.035.526-.5 1.079-1.201.547-.701.884-1.359.924-1.337Z" fill="#FAFAFA"/><path d="M99.73 158.026c.21-.136.378-.343.466-.586.033-.086.047-.193-.021-.251-.054-.042-.141-.021-.189.029a.467.467 0 0 0-.094.193 1.337 1.337 0 0 0-.108-.329c-.02-.05-.068-.1-.115-.086-.047.015-.054.079-.054.129 0 .122 0 .243.007.358-.047-.036-.06-.115-.08-.172-.021-.057-.095-.114-.143-.079-.04.029-.027.093-.013.143.074.222.189.429.337.601M102.429 159.027c-.007-.043-.074-.057-.101-.028-.034.028-.034.086-.014.121.02.043.054.072.088.1.189.158.398.301.627.372.048.015.115.022.149-.014.04-.043.027-.114 0-.172a.604.604 0 0 0-.425-.343.886.886 0 0 0 .452.072c.054-.008.128-.036.128-.1 0-.058-.054-.093-.101-.108a1.041 1.041 0 0 0-.466-.071.503.503 0 0 0 .412-.215c.027-.036.047-.086.034-.128-.014-.036-.061-.058-.102-.058-.04 0-.074.022-.114.043a2.587 2.587 0 0 0-.682.551M103.137 157.426c-.027-.043-.108-.022-.128.028-.02.05.007.115.041.15.04.036.087.05.141.065.284.071.581.114.871.064.06-.014.135-.036.155-.1.027-.072-.027-.143-.081-.193a.67.67 0 0 0-.628-.143c.189-.007.372-.072.533-.179.061-.043.122-.114.095-.186-.027-.064-.101-.071-.169-.064a1.412 1.412 0 0 0-.553.186.697.697 0 0 0 .358-.479c.013-.058.013-.129-.027-.165-.034-.036-.095-.036-.135-.007a.366.366 0 0 0-.108.107 3.406 3.406 0 0 0-.5 1.008M61.001 169.06c.02.007-.067.457-.148 1.194a17.969 17.969 0 0 0-.095 2.896c.061 1.13.236 2.145.398 2.868.162.722.297 1.165.277 1.172-.007 0-.054-.1-.121-.3a12.167 12.167 0 0 1-.25-.844 15.33 15.33 0 0 1-.445-2.889c-.061-1.144.02-2.181.135-2.924.054-.372.114-.665.162-.873.047-.193.074-.3.087-.3Z" fill="#FAFAFA"/><path d="M62.465 172.356c.034.036-.614.522-1.032 1.423-.432.887-.425 1.731-.472 1.724-.034.014-.101-.858.344-1.788.438-.937 1.147-1.394 1.16-1.359ZM62.08 170.426c.035.028-.404.565-.782 1.33-.384.758-.567 1.444-.607 1.43-.034-.007.088-.722.486-1.502.391-.779.884-1.287.904-1.258ZM59.537 172.249c.027-.028.419.401.776 1.037.358.629.533 1.201.5 1.216-.041.014-.264-.522-.615-1.137-.357-.622-.695-1.087-.66-1.116ZM59.652 169.904c.027-.022.438.6.715 1.487.283.887.304 1.645.27 1.645-.04.007-.128-.737-.398-1.602-.277-.858-.628-1.509-.587-1.53Z" fill="#FAFAFA"/><path d="M59.712 172.456c0-.257-.08-.522-.222-.729-.047-.071-.128-.143-.21-.114-.067.021-.094.114-.08.186.013.071.06.128.101.185a1.035 1.035 0 0 0-.324-.071c-.047-.007-.115.007-.128.057-.014.05.034.093.074.115.095.064.196.121.29.178-.054.022-.121-.007-.182-.014-.06-.007-.142.022-.135.086.007.05.06.079.108.086.216.05.445.057.661.014M61.932 170.54c-.04-.014-.08.036-.074.079.007.043.054.071.095.078.04.008.08-.007.121-.028.23-.086.452-.2.628-.372.04-.036.08-.086.067-.143-.014-.057-.081-.086-.135-.093a.592.592 0 0 0-.5.2.851.851 0 0 0 .29-.372c.028-.057.035-.135-.013-.164-.04-.029-.1 0-.141.036-.122.107-.23.236-.304.386a.56.56 0 0 0 .04-.486.161.161 0 0 0-.087-.101c-.04-.007-.081.022-.095.058a.242.242 0 0 0-.027.121c-.02.301.007.608.081.901M61.015 169.067c-.054.007-.075.086-.04.129a.136.136 0 0 0 .141.043c.047-.015.088-.058.121-.093.21-.215.398-.465.506-.751.027-.065.04-.143 0-.193-.047-.057-.128-.05-.195-.029a.725.725 0 0 0-.446.494c.095-.172.142-.372.135-.572 0-.079-.027-.172-.094-.186-.06-.015-.108.057-.142.114a1.497 1.497 0 0 0-.141.594.759.759 0 0 0-.196-.58c-.04-.043-.095-.078-.148-.064-.048.014-.075.064-.081.114 0 .05.013.1.033.151.128.357.317.686.547.979M106.275 190.713c.02-.007.087.45.256 1.18.162.722.445 1.709.877 2.746a17.009 17.009 0 0 0 1.323 2.538c.391.615.668.98.647.994-.006.007-.08-.079-.209-.236-.128-.157-.31-.393-.519-.701a14.515 14.515 0 0 1-1.37-2.538 14.986 14.986 0 0 1-.843-2.789 10.946 10.946 0 0 1-.135-.872c-.027-.201-.034-.315-.027-.322Z" fill="#FAFAFA"/><path d="M108.738 193.258c.041.022-.398.716-.5 1.717-.114.994.176 1.78.129 1.787-.027.022-.385-.765-.27-1.802.108-1.044.621-1.73.641-1.702ZM107.746 191.592c.041.015-.189.68-.29 1.538-.108.858-.054 1.559-.095 1.566-.034.007-.155-.708-.047-1.588.101-.879.398-1.53.432-1.516ZM105.964 194.245c.014-.036.527.222 1.073.68.547.457.898.929.864.951-.027.028-.418-.387-.952-.837-.533-.443-1.005-.751-.985-.794ZM105.29 192.007c.02-.029.614.4 1.167 1.13.553.722.83 1.43.796 1.444-.04.022-.364-.643-.904-1.351-.54-.715-1.086-1.187-1.059-1.223Z" fill="#FAFAFA"/><path d="M106.201 194.374a1.27 1.27 0 0 0-.453-.601c-.067-.05-.168-.086-.236-.028-.054.05-.047.136-.013.2.04.064.101.1.162.136-.108 0-.223.021-.331.05-.047.014-.108.05-.101.1.007.05.061.071.108.079l.337.064c-.047.043-.114.036-.175.05-.061.014-.128.071-.101.129.02.05.081.05.128.043.222-.029.432-.115.621-.236M107.644 191.757c-.04 0-.067.064-.04.1.02.036.074.05.115.036a.378.378 0 0 0 .108-.072c.182-.164.357-.35.465-.579.027-.05.041-.115.014-.157-.034-.051-.102-.051-.156-.036a.623.623 0 0 0-.398.372.918.918 0 0 0 .149-.458c.007-.064-.014-.136-.068-.15-.054-.015-.094.036-.121.086a1.281 1.281 0 0 0-.155.472.565.565 0 0 0-.122-.472c-.027-.036-.067-.065-.114-.058-.041.008-.068.05-.075.093-.006.043.007.086.014.122.081.293.209.572.378.815M106.295 190.713c-.047.021-.04.107 0 .136a.128.128 0 0 0 .149-.015c.04-.035.06-.086.087-.136a2.37 2.37 0 0 0 .223-.893c0-.065-.007-.151-.067-.186-.061-.043-.142 0-.196.043a.746.746 0 0 0-.25.629 1.17 1.17 0 0 0-.067-.587c-.027-.071-.081-.15-.155-.135-.061.014-.088.093-.095.157-.02.2.007.415.068.608a.694.694 0 0 0-.378-.465c-.054-.022-.115-.036-.155-.007-.041.028-.048.093-.034.143.013.05.047.093.081.129.236.286.526.529.836.715M99.366 178.034c-.02-.007.108-.45.263-1.173a17.5 17.5 0 0 0 .365-2.874 17.42 17.42 0 0 0-.129-2.896c-.094-.737-.189-1.187-.162-1.195.007 0 .04.108.095.308.054.2.115.501.169.865a14.68 14.68 0 0 1-.243 5.814 9.928 9.928 0 0 1-.243.851c-.068.193-.109.3-.115.3Z" fill="#FAFAFA"/><path d="M98.219 174.595c-.027-.036.66-.458 1.16-1.302.513-.837.587-1.673.634-1.666.034-.007.021.865-.512 1.745-.527.887-1.276 1.258-1.282 1.223ZM98.414 176.561c-.027-.036.452-.522.904-1.244.46-.715.702-1.373.743-1.359.033.007-.156.708-.621 1.445-.466.736-1.005 1.187-1.026 1.158ZM101.12 175.009c-.027.022-.378-.443-.675-1.108-.297-.665-.411-1.251-.378-1.259.041-.014.216.544.506 1.195.291.65.581 1.151.547 1.172ZM100.79 177.333c-.027.022-.385-.65-.574-1.559-.196-.908-.149-1.673-.108-1.666.04 0 .054.744.25 1.638.182.894.472 1.573.432 1.587Z" fill="#FAFAFA"/><path d="M100.965 174.788c-.027.257.027.529.155.75.041.079.115.158.196.136.067-.014.101-.1.094-.171-.006-.072-.047-.136-.087-.201.101.051.209.086.317.108.047.007.115.007.135-.043.02-.05-.027-.093-.061-.122a8.35 8.35 0 0 0-.277-.214c.061-.022.122.021.176.035.061.015.142-.007.142-.071 0-.05-.054-.086-.101-.1-.21-.079-.439-.1-.655-.086M98.576 176.461c.04.021.088-.029.081-.072a.102.102 0 0 0-.087-.085.258.258 0 0 0-.129.014c-.236.064-.465.15-.66.3-.041.036-.089.079-.082.136.007.057.074.093.128.107a.587.587 0 0 0 .513-.15.887.887 0 0 0-.324.336c-.027.05-.047.129-.007.172.041.036.102.007.142-.022a1.16 1.16 0 0 0 .338-.35.552.552 0 0 0-.088.479c.013.043.034.093.08.107.041.015.082-.014.102-.05a.359.359 0 0 0 .04-.121 2.93 2.93 0 0 0 .007-.908M99.352 178.027c.054 0 .081-.072.054-.122-.027-.05-.088-.064-.135-.057a.367.367 0 0 0-.135.079c-.23.193-.438.415-.573.693-.027.058-.054.136-.02.194.04.064.121.064.188.05a.703.703 0 0 0 .486-.444 1.168 1.168 0 0 0-.189.558c-.006.079.014.172.081.193.061.022.115-.043.149-.1.1-.172.168-.372.195-.579a.744.744 0 0 0 .142.593c.034.043.088.086.142.079.047-.007.08-.057.088-.107a.426.426 0 0 0-.02-.158 3.706 3.706 0 0 0-.453-1.037M79.516 150.997c.006.021-.405.179-1.04.493a14.89 14.89 0 0 0-2.375 1.438 15.8 15.8 0 0 0-2.098 1.866c-.5.529-.776.88-.796.865-.007-.007.054-.1.175-.264.122-.165.304-.394.547-.672a13.378 13.378 0 0 1 2.091-1.917 13.403 13.403 0 0 1 2.416-1.409c.324-.143.594-.25.783-.307.189-.072.29-.107.297-.093Z" fill="#FAFAFA"/><path d="M77.633 154.043c-.013.05-.742-.279-1.68-.186-.945.072-1.613.522-1.633.479-.027-.021.634-.543 1.62-.622.978-.1 1.72.301 1.693.329ZM78.982 152.692c-.006.043-.668-.065-1.477-.007-.817.05-1.458.243-1.471.2-.014-.036.62-.301 1.457-.351.837-.057 1.505.122 1.491.158ZM76.182 151.347c.034.007-.1.594-.425 1.244-.317.651-.688 1.109-.715 1.087-.034-.028.277-.514.587-1.151.317-.643.513-1.194.553-1.18ZM78.132 150.218c.034.014-.256.715-.823 1.43s-1.167 1.137-1.18 1.108c-.028-.036.526-.5 1.079-1.201.546-.701.884-1.359.924-1.337Z" fill="#FAFAFA"/><path d="M76.115 151.619c.21-.136.378-.343.466-.586.033-.086.047-.193-.02-.251-.055-.042-.143-.021-.19.029a.466.466 0 0 0-.094.193 1.341 1.341 0 0 0-.108-.329c-.02-.05-.068-.1-.115-.086-.047.015-.054.079-.054.129 0 .122 0 .243.007.358-.047-.036-.06-.115-.081-.172-.02-.057-.094-.114-.142-.079-.04.029-.027.093-.013.143.074.222.189.429.337.601M78.814 152.613c-.007-.043-.068-.057-.101-.029-.034.029-.034.086-.014.122.02.043.054.072.088.1.189.157.398.3.627.372.047.014.115.021.149-.014.04-.043.027-.115 0-.172a.601.601 0 0 0-.425-.343.886.886 0 0 0 .452.071c.054-.007.128-.035.128-.1 0-.057-.054-.093-.101-.107a1.053 1.053 0 0 0-.466-.072.501.501 0 0 0 .412-.214c.027-.036.047-.086.033-.129-.013-.036-.06-.057-.1-.057-.041 0-.075.021-.115.043a2.587 2.587 0 0 0-.682.551M79.516 151.011c-.028-.043-.109-.021-.129.029-.02.05 0 .114.04.15.041.036.088.05.142.064.284.072.58.115.87.065.062-.015.136-.036.156-.1.027-.072-.027-.143-.08-.193a.666.666 0 0 0-.628-.143c.189-.008.37-.072.533-.179.06-.043.121-.115.094-.186-.027-.065-.101-.072-.169-.065a1.428 1.428 0 0 0-.553.186.69.69 0 0 0 .358-.479c.013-.057.013-.128-.027-.164-.034-.036-.095-.036-.135-.007-.04.021-.074.064-.108.107-.216.3-.391.643-.5 1.008M96.255 141.429c.02-.014.216.401.574 1.044a16.34 16.34 0 0 0 1.612 2.346c.709.851 1.43 1.537 1.984 2.002.546.465.911.722.897.744-.006.007-.101-.05-.27-.158a9.518 9.518 0 0 1-.688-.5 13.245 13.245 0 0 1-2.024-1.988 14.518 14.518 0 0 1-1.592-2.388 12.198 12.198 0 0 1-.378-.794c-.081-.193-.121-.301-.115-.308Z" fill="#FAFAFA"/><path d="M99.325 143.074c.047.007-.175.815.014 1.795.175.987.668 1.637.627 1.666-.02.029-.58-.608-.769-1.638-.196-1.029.101-1.845.128-1.823ZM97.902 141.801c.04 0 .013.708.155 1.559.135.851.391 1.509.351 1.523-.027.022-.351-.622-.493-1.494-.142-.88-.047-1.595-.013-1.588ZM96.957 144.897c.007-.035.567.043 1.214.308.648.264 1.114.6 1.093.629-.02.036-.512-.236-1.147-.493-.634-.258-1.167-.401-1.16-.444ZM95.682 142.974c.006-.036.701.186 1.43.708.736.514 1.194 1.101 1.167 1.122-.033.029-.526-.5-1.248-1.001-.715-.508-1.363-.786-1.35-.829Z" fill="#FAFAFA"/><path d="M97.213 144.94a1.159 1.159 0 0 0-.6-.429c-.081-.021-.182-.028-.23.05-.033.065-.006.15.048.193.054.05.121.065.189.079a1.19 1.19 0 0 0-.297.15c-.04.029-.088.079-.068.129.02.05.081.05.128.043.115-.015.223-.029.338-.05-.034.057-.101.071-.149.107-.054.029-.1.107-.054.157.034.036.095.022.135 0 .203-.1.385-.243.527-.422M97.854 141.987c-.04.014-.047.079-.013.107.034.029.08.022.121 0a.28.28 0 0 0 .081-.1c.128-.214.243-.45.277-.701.007-.057.007-.121-.034-.157-.047-.036-.108-.014-.162.021a.623.623 0 0 0-.27.487.991.991 0 0 0 .014-.487c-.014-.057-.047-.128-.108-.121-.054.007-.081.064-.095.121-.04.165-.04.337-.02.501a.536.536 0 0 0-.25-.415c-.04-.021-.087-.043-.128-.021-.033.021-.047.071-.04.107a.331.331 0 0 0 .047.114c.162.251.358.48.587.658M96.269 141.422c-.04.036-.007.114.04.129.054.014.108-.015.135-.065.027-.042.034-.1.04-.157.034-.307.048-.622-.04-.922-.02-.065-.047-.136-.115-.158-.067-.021-.134.043-.168.108a.798.798 0 0 0-.068.679 1.174 1.174 0 0 0-.23-.544c-.046-.057-.12-.114-.181-.078-.054.036-.054.114-.04.179.04.2.12.393.235.564a.652.652 0 0 0-.492-.321c-.054-.007-.122 0-.149.043-.027.042-.02.1.007.143.027.043.074.071.115.1.31.193.648.336.998.414M65.886 144.99c.02-.014.216.401.574 1.044.357.637.904 1.488 1.612 2.346a16.26 16.26 0 0 0 1.984 2.002c.546.465.91.722.897.744-.007.007-.1-.05-.27-.158a9.232 9.232 0 0 1-.688-.5 13.19 13.19 0 0 1-2.024-1.988 14.525 14.525 0 0 1-1.592-2.388 12.134 12.134 0 0 1-.378-.794c-.088-.2-.122-.308-.115-.308Z" fill="#FAFAFA"/><path d="M68.956 146.628c.047.007-.175.815.014 1.795.175.987.668 1.637.627 1.666-.02.028-.58-.608-.77-1.638-.195-1.022.102-1.845.13-1.823ZM67.532 145.355c.041 0 .014.708.156 1.559.135.851.391 1.509.351 1.523-.027.021-.351-.622-.493-1.494-.142-.873-.047-1.595-.014-1.588ZM66.588 148.458c.007-.035.567.043 1.214.308.648.264 1.114.6 1.093.629-.02.036-.512-.236-1.147-.493-.634-.258-1.174-.401-1.16-.444ZM65.313 146.535c.006-.036.695.186 1.43.708.736.515 1.194 1.101 1.167 1.122-.033.029-.526-.5-1.248-1.001-.715-.507-1.37-.786-1.35-.829Z" fill="#FAFAFA"/><path d="M66.844 148.501a1.16 1.16 0 0 0-.6-.429c-.081-.021-.19-.028-.23.05-.033.065-.006.15.048.193.054.05.121.065.189.079a1.192 1.192 0 0 0-.297.15c-.04.029-.088.079-.068.129.02.05.081.05.128.043.115-.015.223-.029.338-.05-.034.057-.102.071-.149.107-.054.029-.1.107-.054.157.034.036.095.022.135 0 .203-.1.385-.243.526-.422M67.478 145.541c-.04.014-.047.079-.013.107.034.029.081.022.121 0a.28.28 0 0 0 .081-.1c.129-.214.243-.45.284-.701.007-.057.007-.121-.034-.157-.047-.036-.108-.014-.162.021a.624.624 0 0 0-.27.487.991.991 0 0 0 .014-.487c-.014-.057-.047-.128-.108-.121-.054.007-.081.064-.095.121-.04.165-.04.337-.02.501a.536.536 0 0 0-.25-.415c-.04-.021-.087-.043-.128-.021-.033.021-.047.071-.04.107a.33.33 0 0 0 .047.114c.162.251.358.48.587.658M65.9 144.983c-.04.036-.007.115.04.129.054.014.108-.014.135-.065.027-.042.034-.1.04-.157.034-.307.048-.622-.04-.922-.02-.065-.047-.136-.115-.158-.067-.021-.135.043-.168.108a.798.798 0 0 0-.068.679 1.173 1.173 0 0 0-.23-.544c-.046-.057-.12-.114-.181-.078-.054.036-.054.114-.04.179.04.2.12.393.235.565a.65.65 0 0 0-.492-.322c-.054-.007-.122 0-.149.043-.027.043-.02.1.007.143.027.043.074.071.115.1.31.193.647.336.998.415" fill="#FAFAFA"/><path d="M97.16 139.963c0 .007-.082.014-.237.022-.169.007-.398.014-.688.028-.6.036-1.505.215-2.57.722-2.14 1.016-4.677 3.797-6.33 8.052v.007c-3.346 7.423-7.995 17.749-13.44 29.826l-.04.093h-.102l-22.07.422.162-.114c-.91 2.431-1.882 5.005-2.86 7.616-.297.793-.594 1.587-.891 2.366l-.122-.25 31.51 7.694h-.061c1.417-.336 2.773-1.015 3.805-2.009.527-.5.931-1.08 1.276-1.73.357-.637.708-1.266 1.052-1.888 1.356-2.51 2.645-4.891 3.86-7.13 2.402-4.49 4.507-8.416 6.24-11.655 1.728-3.225 3.098-5.771 4.035-7.523.466-.858.824-1.523 1.073-1.981.122-.214.209-.379.284-.508.067-.114.101-.171.101-.164.007 0-.02.064-.081.179-.061.128-.148.3-.256.515-.243.464-.587 1.137-1.033 2.009-.924 1.766-2.26 4.326-3.96 7.573l-6.18 11.691c-1.209 2.246-2.484 4.634-3.833 7.151-.344.622-.695 1.259-1.053 1.895-.344.644-.782 1.28-1.322 1.802-1.087 1.044-2.463 1.745-3.954 2.102l-.027.008-.034-.008c-9.345-2.266-20.093-4.876-31.516-7.651l-.202-.05.074-.2c.29-.78.594-1.573.89-2.367.979-2.61 1.95-5.185 2.861-7.616l.04-.114h.116c7.826-.136 15.289-.272 22.07-.394l-.142.101a98013.619 98013.619 0 0 1 13.548-29.769l-.007.007c1.7-4.298 4.285-7.087 6.478-8.081 1.086-.5 2.004-.657 2.611-.679h.695c.148-.014.23-.007.23 0Z" fill="#263238"/><path d="M85.925 202.383c-3.205-4.069-8.009-7.122-13.001-6.836-3.725.214-8.516 2.088-11.612 3.947-8.779 5.277-7.146 17.276-7.146 17.276l9.54 63.593 17.658-2.417-1.936-61.126 9.803-7.923-3.306-6.514Z" fill="#263238"/><path d="M89.515 208.733c.007.007-.054.064-.169.171-.135.122-.304.279-.513.48-.479.429-1.147 1.029-1.99 1.794-1.761 1.559-4.25 3.776-7.3 6.479l.047-.121c.276 6.063.56 13.865.81 22.346.283 9.982.546 19.014.735 25.586.094 3.253.175 5.892.23 7.751.02.894.04 1.595.053 2.11 0 .221 0 .4.007.55 0 .122-.007.186-.014.186-.006 0-.013-.064-.027-.186-.013-.143-.02-.322-.04-.55-.027-.508-.068-1.216-.115-2.103l-.337-7.751c-.263-6.543-.54-15.589-.837-25.586-.25-8.481-.506-16.282-.735-22.346v-.072l.054-.043c3.077-2.667 5.6-4.848 7.374-6.385.864-.737 1.552-1.316 2.038-1.738.223-.186.398-.329.54-.443.121-.086.182-.136.189-.129Z" fill="#455A64"/><path d="M81.371 274.992c.007 0 .014.065.014.193.006.143.006.329.013.565.007.522.014 1.252.027 2.203v.057l-.054.007c-3.347.479-9.594 1.366-17.65 2.51l-.142.022-.02-.151c-1.134-7.487-2.49-16.475-3.948-26.129-1.956-13.164-3.724-25.085-5.013-33.737-.735-4.327-.465-7.931-.013-10.326.216-1.201.492-2.117.722-2.71.236-.594.425-.873.425-.873.007 0-.027.079-.095.229-.067.15-.155.372-.263.672-.21.601-.459 1.509-.654 2.71-.405 2.396-.635 5.964.128 10.262 1.309 8.645 3.117 20.559 5.114 33.723 1.437 9.661 2.78 18.65 3.893 26.136l-.162-.128c8.063-1.059 14.318-1.888 17.671-2.324l-.054.064c.014-.951.02-1.687.027-2.202.007-.236.014-.422.014-.565.007-.143.013-.208.02-.208ZM75.98 207.067c.034-.029.398.429.864 1.244.472.815 1.025 2.009 1.45 3.411.419 1.394.614 2.717.675 3.668.06.958.013 1.545-.027 1.545-.115.007-.148-2.36-.978-5.106-.817-2.746-2.085-4.698-1.984-4.762Z" fill="#455A64"/><path d="M85.23 137.625c1.33-1.423.554-2.245.054-3.647l-9.48-30.012c-4.115-9.84-16.206-3.997-16.206-3.997-5.702 2.216-6.511 9.017-5.189 13.651 1.464 5.148 3.441 11.377 5.317 14.916 3.778 7.108 9.574 5.921 9.574 5.921l2.395 6.851c.85 2.417 3.604 3.361 5.628 1.93l7.907-5.613Z" fill="#FFBE9D"/><path d="M57.763 118.654a.96.96 0 0 0 1.22.629.998.998 0 0 0 .635-1.244.96.96 0 0 0-1.221-.629 1 1 0 0 0-.634 1.244ZM56.912 117.352c.156.079.662-.736 1.647-1.115.978-.401 1.889-.143 1.95-.315.033-.078-.162-.257-.56-.379-.392-.121-1.006-.15-1.613.093a2.599 2.599 0 0 0-1.255 1.044c-.223.372-.243.637-.169.672ZM66.966 115.529a.96.96 0 0 0 1.22.629.997.997 0 0 0 .635-1.244.96.96 0 0 0-1.221-.629 1 1 0 0 0-.634 1.244ZM66.581 113.555c.155.079.661-.736 1.646-1.115.979-.401 1.89-.143 1.95-.315.034-.079-.162-.257-.56-.379-.391-.121-1.005-.15-1.612.093a2.6 2.6 0 0 0-1.255 1.044c-.216.365-.243.637-.169.672ZM65.96 122.708c-.013-.064-.668.065-1.707.322-.263.072-.52.114-.62-.05-.129-.172-.122-.501-.108-.858.013-.737.02-1.509.033-2.317.02-3.289-.06-5.957-.188-5.957-.129 0-.243 2.668-.264 5.957v2.317c.014.343-.033.744.236 1.094a.66.66 0 0 0 .547.229c.182-.015.324-.065.445-.107 1.026-.329 1.647-.565 1.626-.63Z" fill="#263238"/><path d="M69.3 134.457s4.905-1.559 8.596-6.45c0 0-.5 6.1-7.88 8.195l-.716-1.745ZM67.64 126.126a1.04 1.04 0 0 1-.323-1.044c.1-.371.431-.665.803-.7-.17-.336-.048-.794.229-1.037.283-.243.681-.301 1.032-.2.682.185 1.174.929 1.147 1.673-.027.744-.54 1.43-1.208 1.659-.667.229-1.443 0-1.936-.536" fill="#EB996E"/><path d="M69.111 122.294c-.162.05.23 1.187-.405 2.345-.627 1.166-1.815 1.487-1.767 1.645.006.078.33.121.816-.057.48-.172 1.107-.601 1.498-1.309.385-.715.398-1.466.27-1.938-.128-.486-.344-.722-.412-.686ZM65.083 112.068c.196.243 1.134-.272 2.335-.579 1.2-.329 2.253-.343 2.32-.651.028-.15-.229-.35-.7-.479-.466-.129-1.155-.15-1.877.036-.722.193-1.315.557-1.673.901-.358.343-.492.65-.405.772ZM55.563 114.056c.256.172.85-.343 1.66-.672.796-.365 1.558-.429 1.633-.744.027-.15-.162-.343-.547-.45-.378-.108-.938-.093-1.491.143-.553.236-.965.643-1.16 1.001-.203.357-.21.636-.095.722ZM70.778 116.208c0 .129-.101.236-.223.229-.121 0-.216-.114-.216-.243s.102-.236.223-.229c.122 0 .216.107.216.243Z" fill="#263238"/><path d="m89.778 135.136 4.628 1.102-.229-1.767c0-.021-.486-7.701-6.302-13.214-5.83-5.521 2.065-7.652-2.996-14.924-1.673-2.403-3.528-4.584-5.924-6.157a9.269 9.269 0 0 1-1.194-.951c-.985-.922-1.849-2.002-2.921-2.81-.81-.608-1.782-1.052-2.76-1.066a7.376 7.376 0 0 0-1.855-.55c-2.841-.45-5.661.758-8.306 1.938-2.564 1.144-9.446.872-7.267 8.33.452-1.244 2.213-2.267 3.596-1.051.965.851 1.451 1.602 1.68 2.91.31 1.738.79 3.662 2.774 4.112.485.107.991.093 1.47-.021 1.66-.394 2.99-3.054 6.154-2.417 0 0 3.083 1.015 3.265 3.067.183 2.053-.89 5.864 1.006 7.68 1.896 1.817 2.22 1.767 2.166 3.333-.014.357-.014.608-.034.786-.243 2.482.216 14.524 9.554 10.684.007-.015 3.495.986 3.495.986Z" fill="#263238"/><path d="M85.784 135.137c.013-.008.04.057.087.185.04.129.102.322.122.58.02.257 0 .593-.149.944-.141.35-.398.686-.715 1.001a21.211 21.211 0 0 1-2.368 1.995c-.951.665-1.99 1.38-3.077 2.138-.546.365-1.073.772-1.646 1.058-.567.286-1.134.508-1.687.672-.553.165-1.086.279-1.6.344-.552.05-1.038-.151-1.41-.394a4.22 4.22 0 0 1-1.396-1.594c-.23-.458-.263-.751-.243-.751.027-.007.108.257.365.679.256.408.688 1.001 1.403 1.445.35.214.796.371 1.255.314a9.643 9.643 0 0 0 1.538-.364c.533-.172 1.08-.387 1.626-.673.547-.271 1.046-.665 1.606-1.036 1.093-.744 2.132-1.459 3.09-2.11a24.72 24.72 0 0 0 2.382-1.902c.655-.565.924-1.251.898-1.745-.014-.508-.122-.779-.081-.786Z" fill="#263238"/><path d="M275.19 252.439c.702-2.575 2.207-5.07 4.528-6.129 2.415-1.101 5.215-.479 7.691.479 2.477.952 4.906 2.232 7.53 2.403 2.625.172 5.594-1.151 6.383-3.811.742-2.503-.681-5.17-2.469-6.994-3.745-3.818-9.379-5.442-14.433-4.154-5.053 1.287-9.378 5.441-11.078 10.647" fill="#3CB378"/><path d="M254.395 263.64c-3.852-3.883-3.664-10.64-1.741-15.889 1.923-5.256 6.12-9.289 10.809-11.949 9.089-5.156 20.451-5.542 29.83-1.023-4.609.165-9.069 2.939-11.45 7.123-2.112 3.718-2.585 8.23-4.325 12.156-1.943 4.376-5.513 7.909-9.763 9.668-4.251 1.759-9.136 1.73-13.36-.086ZM252.539 240.321c-4.27-5.341-4.837-13.908-4.21-20.88.628-6.965 2.153-13.98 1.114-20.888-.614-4.097-2.112-8.001-2.618-12.113-.506-4.112.209-8.76 3.218-11.413 3.455-3.053 8.893-2.331 12.489.536 3.596 2.861 5.674 7.366 7.199 11.849 3.34 9.854 4.568 20.773 1.822 30.828-2.746 10.054-9.19 19.049-18.642 22.081" fill="#54DD99"/><path d="M250.469 284.117c-.014 0-.021-.215-.014-.615.007-.401 0-1.001.034-1.767.054-1.53.196-3.747.519-6.464a89.95 89.95 0 0 1 1.64-9.468c.796-3.532 2.152-7.301 4.075-10.962 1.93-3.668 4.285-6.829 6.666-9.439a43.376 43.376 0 0 1 6.984-6.157c1.066-.779 2.098-1.373 2.982-1.923a85.187 85.187 0 0 1 2.355-1.259l1.538-.686c.351-.151.54-.229.547-.215.006.014-.176.107-.513.286-.371.186-.87.436-1.505.744-.641.35-1.423.786-2.321 1.308-.877.565-1.889 1.173-2.942 1.96a44.437 44.437 0 0 0-6.888 6.178c-2.348 2.603-4.676 5.749-6.592 9.382-3.927 7.272-5 14.924-5.776 20.287a96.776 96.776 0 0 0-.627 6.443c-.041.736-.075 1.323-.095 1.759-.034.4-.054.608-.067.608ZM213.676 219.255c-7.894 5.049-7.874 9.647-6.552 13.987 1.316 4.341 6.167 7.351 10.182 5.728 2.274-.915 3.92-3.011 5.323-5.113 1.404-2.102 2.726-4.355 4.696-5.864 1.971-1.508 4.825-2.088 6.801-.593" fill="#54DD99"/><path d="M213.676 219.255c-7.894 5.049-7.874 9.647-6.552 13.987 1.316 4.341 6.167 7.351 10.182 5.728 2.274-.915 3.92-3.011 5.323-5.113 1.404-2.102 2.726-4.355 4.696-5.864 1.971-1.508 4.825-2.088 6.801-.593" fill="#3CB278" opacity=".5"/><path d="M207.765 224.79c2.065-3.025 7.166-3.897 10.384-2.389 3.219 1.509 5.58 4.498 7.692 7.487s4.17 6.143 7.091 8.217c2.929 2.081 7.011 2.831 9.925.736 1.917-1.373 3.023-3.768 3.374-6.185.344-2.424.013-4.899-.466-7.294-.695-3.511-1.835-7.172-4.486-9.403-2.956-2.489-7.051-2.603-10.823-2.475-4.325.151-8.717.494-12.772 2.081-4.055 1.588-8.198 5.02-9.919 9.225Z" fill="#54DD99"/><path d="M243.93 277.427c-.007 0-.013-.064-.02-.186-.007-.143-.014-.322-.027-.543-.014-.508-.041-1.202-.068-2.074-.047-1.838-.121-4.434-.209-7.637a518.716 518.716 0 0 0-.438-11.32c-.223-4.255-.527-8.939-1.134-13.808-.31-2.432-.675-4.813-1.309-7.015-.641-2.203-1.491-4.255-2.422-6.136-.938-1.873-1.963-3.582-3.056-5.077a32.623 32.623 0 0 0-3.334-3.875c-2.24-2.174-4.385-3.497-5.91-4.27-.385-.185-.722-.371-1.026-.5-.297-.122-.553-.229-.769-.315-.189-.078-.344-.15-.472-.2-.108-.05-.162-.071-.155-.079 0-.007.06.008.168.043.129.043.29.1.486.165.223.078.486.171.79.286.31.121.647.293 1.045.472 1.552.736 3.738 2.038 6.019 4.204a32.015 32.015 0 0 1 3.394 3.883c1.113 1.502 2.159 3.218 3.11 5.106.945 1.895 1.808 3.954 2.463 6.193.648 2.238 1.019 4.626 1.329 7.072.614 4.891.897 9.582 1.107 13.844.202 4.262.296 8.109.364 11.334.061 3.225.088 5.842.094 7.644v2.081c-.006.222-.006.4-.006.544-.007.1-.007.164-.014.164ZM246.751 281.199s-.439-1.244-.864-3.597c-.411-2.345-.722-5.828-.364-10.097.337-4.269 1.37-9.274 3.009-14.652 1.62-5.384 3.819-11.141 5.702-17.333.931-3.097 1.727-6.164 2.267-9.168.553-3.01.897-5.942 1.12-8.752.445-5.614.377-10.705.249-14.96-.135-4.262-.351-7.708-.485-10.09-.068-1.172-.115-2.095-.156-2.746-.013-.3-.02-.536-.033-.715-.007-.164-.007-.243 0-.243.006 0 .02.079.033.243.014.179.041.415.068.708.054.651.128 1.566.216 2.739.175 2.381.425 5.821.593 10.09.162 4.262.25 9.36-.175 15.002-.216 2.818-.553 5.771-1.107 8.789-.539 3.024-1.335 6.106-2.273 9.21-1.883 6.207-4.096 11.963-5.729 17.326-1.653 5.356-2.705 10.326-3.07 14.567-.391 4.24-.121 7.701.25 10.047.196 1.172.371 2.08.526 2.681.068.286.122.522.162.694.047.171.068.25.061.257Z" fill="#54DD99"/><path d="M266.324 284.982h-37.075l-.85-7.565h37.925v7.565Z" fill="#263238"/><path d="m233.23 284.117 4.635 22.689h20.147l4.338-22.689h-29.12Z" fill="#263238"/><path d="M266.324 284.982c0 .1-8.15.164-18.203.136-10.06-.029-18.204-.136-18.204-.243 0-.1 8.15-.165 18.21-.136 10.047.028 18.197.136 18.197.243Z" fill="#455A64"/><path d="M259.962 296.18c-.047.079-1.093-1.065-3.266-1.981a11.05 11.05 0 0 0-3.974-.843c-1.531-.05-3.198.336-4.885.951-1.687.607-3.265 1.308-4.804 1.702-1.545.35-2.982.329-4.156.135-1.174-.193-2.085-.564-2.672-.893-.29-.172-.506-.315-.641-.437-.142-.114-.209-.171-.202-.186.02-.028.317.194.904.487.594.286 1.491.608 2.645.765 1.147.157 2.557.15 4.048-.208 1.484-.393 3.063-1.108 4.764-1.716 1.7-.622 3.42-1.015 5.006-.937 1.579.058 2.969.451 4.055.944 1.1.487 1.896 1.066 2.415 1.495.264.214.453.393.574.529.135.107.196.179.189.193Z" fill="#E0E0E0"/><path d="M259.679 297.696c-.048.079-1.053-1.03-3.138-1.959a9.994 9.994 0 0 0-3.826-.837c-1.484-.043-3.097.315-4.723.901-1.632.579-3.164 1.252-4.628 1.666-1.464.422-2.841.572-3.994.472-1.154-.085-2.052-.429-2.618-.743-.284-.165-.493-.301-.621-.415-.135-.107-.203-.172-.196-.179.02-.028.304.186.877.465a6.883 6.883 0 0 0 2.571.608c1.12.064 2.463-.108 3.886-.544 1.431-.429 2.956-1.108 4.609-1.687 1.646-.594 3.313-.959 4.844-.887 1.525.05 2.874.443 3.92.937a10.156 10.156 0 0 1 2.315 1.487c.249.207.431.386.553.515.121.122.182.186.169.2Z" fill="#fff"/><path d="M260.333 294.671c-.047.072-1.134-1.087-3.353-2.095-1.1-.493-2.49-.937-4.069-1.037-1.579-.114-3.299.308-5.04.944-1.748.622-3.367 1.373-4.973 1.724-1.606.307-3.083.214-4.291.007-1.208-.222-2.146-.587-2.753-.923-.297-.178-.526-.321-.668-.443-.141-.114-.216-.179-.209-.186.02-.029.324.2.938.501.614.293 1.545.607 2.733.793 1.187.172 2.638.236 4.19-.085 1.538-.351 3.164-1.109 4.925-1.738 1.748-.637 3.536-1.073 5.168-.93 1.626.122 3.043.601 4.15 1.137a11.785 11.785 0 0 1 2.476 1.581c.27.221.466.407.594.543.121.129.189.2.182.207Z" fill="#fff"/><path d="M266.655 285.011c0 .1-8.339.186-18.629.186-10.289 0-18.629-.086-18.629-.186s8.34-.186 18.629-.186c10.29 0 18.629.086 18.629.186Z" fill="#E0E0E0"/></g><defs><clipPath id="a"><path fill="#fff" d="M0 0h314v314H0z"/></clipPath></defs></svg>