<svg width="156" height="109" viewBox="0 0 156 109" fill="none" xmlns="http://www.w3.org/2000/svg">
<path d="M143.059 92.929C142.848 92.5176 142.639 92.1025 142.328 91.4931C142.302 91.4748 141.842 91.2874 141.771 91.0441C141.271 89.3748 139.565 87.9947 139.835 86.1383C139.86 85.9794 139.591 85.7699 139.58 85.5881C139.546 84.9706 139.317 83.9553 139.618 83.8232C140.399 83.4703 141.358 83.6786 142.126 84.4381C142.934 85.2432 143.837 85.9768 144.619 86.7988C144.882 87.0756 144.912 87.5345 145.131 88.1421C145.966 88.8401 147.068 89.7618 148.214 90.7215C147.918 90.8662 147.725 90.9581 147.878 90.8861C151.496 96.4789 155.416 101.835 155.837 108.363C155.414 107.958 154.987 107.562 154.566 107.153C154.438 107.031 154.277 106.892 154.239 106.752C154.137 106.367 154.097 105.973 153.903 105.585C153.498 106.223 152.407 106.793 151.636 106.925C151.139 107.011 150.758 107.444 150.263 107.582C149.849 107.696 149.354 107.622 148.891 107.609C148.489 107.598 148.071 107.509 147.68 107.548C147.268 107.593 146.88 107.746 146.469 107.856C146.244 107.417 146.063 107.072 145.872 106.701C145.47 107.556 145.482 107.533 144.599 107.142C144.414 107.062 144.057 107.145 143.909 107.275C143.317 107.79 143.333 107.804 142.907 106.889C142.591 107.24 142.333 107.525 142.076 107.81C142.044 107.693 142.007 107.573 141.975 107.455C141.672 107.501 141.379 107.586 141.07 107.588C140.643 107.594 140.198 107.591 139.777 107.495C139.237 107.373 138.653 106.673 138.233 107.519C138.208 107.567 137.603 107.456 137.56 107.348C137.118 106.228 135.215 106.878 135.051 105.468C134.824 105.502 134.591 105.538 134.2 105.598C134.293 104.835 134.292 104.098 134.501 103.435C134.594 103.145 135.097 103.002 135.421 102.801C135.533 102.733 135.757 102.692 135.758 102.623C135.727 101.472 136.723 101.588 137.528 101.369C138.284 101.164 138.918 100.691 139.631 100.378C139.871 100.275 140.188 100.313 140.46 100.257C140.762 100.191 141.055 100.095 141.346 100.014C141.183 99.7026 141.083 99.3335 140.833 99.0885C140.18 98.4437 139.462 97.8564 138.773 97.2383C137.498 96.0909 136.239 94.922 134.943 93.7939C134.247 93.1874 133.115 92.7492 132.827 92.061C132.303 90.8079 130.764 90.6735 130.169 89.358C129.658 88.227 127.996 87.4445 126.863 86.4815C126.012 85.76 125.176 85.0205 124.368 84.2605C123.162 83.1239 122.002 81.9453 120.799 80.805C119.649 79.7172 118.459 78.6643 117.31 77.5768C115.305 75.6746 113.538 73.5373 111.079 72.0762C110.949 70.4211 108.974 70.0314 108.128 68.7173C107.418 67.6202 106.024 66.4116 104.518 65.5633C103.323 64.8905 102.495 63.5304 101.592 62.4142C100.841 61.4871 100.061 60.6857 98.9603 60.042C98.1054 59.5401 97.5236 58.5895 96.8126 57.8443C95.5336 56.5134 94.2379 55.1942 92.965 53.8514C91.5395 52.3441 90.166 50.7931 88.7032 49.312C87.6794 48.2742 86.5149 47.3504 85.4753 46.3195C84.773 45.6243 84.2044 44.8165 83.5364 44.0885C82.7415 43.2244 81.9123 42.393 81.0852 41.5577C80.2794 40.7484 79.4777 39.9312 78.6375 39.1545C77.1415 37.7722 75.5749 36.4592 74.1199 35.0426C72.7701 33.7256 71.5365 32.3074 70.221 30.9577C70.0007 30.733 69.6015 30.663 69.3571 30.4511C68.4517 29.666 67.5417 28.8786 66.7008 28.0361C66.1925 27.5267 65.6412 26.4053 65.3859 26.4499C64.4153 26.609 64.0803 25.9219 63.5762 25.5053C62.4495 24.5758 61.3824 23.5761 60.2854 22.6115C59.9709 22.3332 59.6349 22.074 59.301 21.8109C58.9579 21.543 58.6086 21.287 58.2655 21.0191C57.5839 20.4857 56.894 19.9682 56.2359 19.4116C55.6592 18.9223 54.787 18.7794 54.5245 17.8625C54.4346 17.554 53.4941 17.2851 52.9177 17.1538C52.4815 17.0546 52.3394 16.7796 52.0668 16.5885C51.1963 15.9827 50.1754 15.5665 49.2032 15.0897C49.1299 15.0518 49.0056 15.1237 48.906 15.1479C48.8752 13.6602 47.4701 14.6585 46.8388 14.0503C46.4158 13.6453 45.5665 13.6151 44.7432 13.3664C45.0434 14.6253 45.3894 15.9078 45.6328 17.1978C45.6915 17.5104 45.4247 17.8464 45.2732 18.2622C45.4189 18.3173 45.6786 18.4211 46.0249 18.5596C45.7403 18.7504 45.4951 18.9212 45.4363 18.9563C45.7364 19.3633 46.0814 19.6725 46.2047 20.0285C46.4876 20.85 47.0359 21.607 47.2684 22.4025C47.8428 24.3876 48.053 26.4368 48.751 28.3849C49.106 29.3697 49.4037 29.972 47.9976 30.2994C48.5695 30.7309 48.9793 31.0382 49.5024 31.4293C49.2427 31.5271 49.0404 31.6041 48.8401 31.677C49.4158 32.6951 49.3446 32.855 48.0314 33.3059C48.2357 33.4719 48.4258 33.6204 48.6372 33.7952C48.2087 33.9166 47.758 33.946 47.4744 34.1575C47.284 34.301 47.3331 34.6994 47.2595 35.0546C46.8909 34.7685 46.5432 34.4982 46.2906 34.3023C45.5234 34.5059 45.2185 35.4423 44.0889 34.6978C43.6002 34.3748 42.7377 34.6503 42.0661 34.49C41.451 34.3438 40.8768 33.9615 40.2791 33.7033C39.3942 33.327 38.5036 32.973 37.5326 32.5724C37.5408 32.5565 37.417 32.7396 37.2218 33.0269C37.0275 32.6846 36.9429 32.3435 36.7287 32.2078C35.8314 31.6537 34.8667 31.1959 33.9715 30.6379C33.1754 30.1461 32.4445 29.5621 31.6715 29.0369C31.4986 28.9224 31.2639 28.8264 31.0669 28.8256C30.2722 28.8134 29.893 28.29 29.3703 27.8084C28.6236 27.1204 27.675 26.6205 26.8145 26.0401C26.0278 25.5078 25.2303 24.9851 24.4498 24.4409C23.7755 23.9718 23.0879 23.5059 22.4542 22.9921C22.2056 22.7882 22.0828 22.4425 22.0008 22.3094C21.4699 22.1462 21.0231 22.0113 20.5784 21.8724C20.6601 21.7482 20.7372 21.6217 20.6848 21.7005C19.0665 20.5322 17.4252 19.352 15.786 18.1679C15.7157 18.2475 15.6521 18.3256 15.5818 18.4052C15.5079 18.0545 15.4274 17.7055 15.3995 17.5802C13.7992 16.4666 12.3178 15.4597 10.8769 14.4082C10.486 14.1207 10.2161 13.6889 9.86541 13.3012C9.86541 13.3012 9.75756 13.4421 9.65183 13.579C9.61406 13.5847 9.57168 13.5881 9.53392 13.5938C9.60704 12.5781 8.07639 12.7202 8.03843 12.1209C7.93709 10.5564 6.0471 10.6189 5.35036 9.39716C4.86965 8.55414 3.776 7.76261 3.31033 6.65519C2.99244 5.90135 2.2593 5.26566 1.8812 4.51602C1.33124 3.42554 0.937661 2.27976 0.475676 1.15402C0.592171 1.10835 0.713337 1.06503 0.829832 1.01937C0.969358 1.18715 1.11091 1.35102 1.27884 1.55362C1.45985 1.34972 1.63682 1.15381 1.80711 0.959428C3.23614 3.44637 4.65347 5.9223 6.22317 8.65327L8.65997 9.91154C8.18763 10.1062 7.95043 10.2055 7.86919 10.2391C8.32226 10.5637 8.81301 10.8827 9.27 11.2447C10.6942 12.3732 12.082 13.5384 13.5231 14.6455C14.1 15.0896 14.8068 15.3839 15.3945 15.8185C16.2089 16.4205 16.968 17.0846 17.7461 17.7233C17.8737 17.8244 18.0012 17.9256 18.1329 18.0188C19.5619 19.0036 21.0308 19.9336 22.4024 20.9845C23.5121 21.8347 24.4705 22.8538 25.5438 23.7407C25.9412 24.0719 26.4961 24.2223 26.9513 24.4978C28.1357 25.2151 29.4756 25.8113 30.4493 26.7223C32.0442 28.2163 34.0947 28.9424 35.8682 30.1252C37.3303 31.102 39.1923 31.5645 40.8995 32.1688C42.0633 32.5782 43.2596 32.9137 44.4575 33.134C46.1156 33.4407 47.5668 31.8714 47.2656 30.2894C46.8623 28.1758 46.7412 26.0215 46.0321 23.9718C45.7568 23.1693 45.7406 22.0571 44.772 21.3604C44.624 21.2537 44.8421 20.7766 44.7028 20.5635C43.9096 19.3374 43.8079 17.9642 43.3925 16.6812C42.9435 15.295 43.2756 13.7679 43.2728 12.3047C44.4085 12.2862 45.6001 12.0144 46.6648 12.3122C47.9789 12.6782 49.1969 13.4986 50.4371 14.1642C52.0507 15.0277 53.6607 15.9094 55.2477 16.8246C55.8999 17.2017 56.4957 17.6656 57.1063 18.112C57.4185 18.3387 57.686 18.618 57.9941 18.8526C58.5243 19.2524 59.1104 19.6004 59.6042 20.0369C60.0187 20.4022 60.337 20.8639 60.507 21.0625C61.4741 21.6275 62.3657 22.0021 63.0604 22.5776C64.5778 23.84 66.0122 25.1956 67.4548 26.5353C69.0934 28.0568 70.6956 29.615 72.3256 31.1422C72.8066 31.5922 73.3348 31.9959 73.811 32.4888C74.377 32.9877 74.9429 33.4866 75.5044 33.9832C76.2776 34.6647 77.4024 35.2505 77.7491 36.0496C78.3229 37.3741 79.6885 37.7415 80.5269 38.6785C81.3723 39.6242 82.1666 40.624 83.1068 41.4876C84.0004 42.3068 84.7774 43.2726 85.9175 43.8512C86.032 43.9103 86.2136 44.0192 86.2148 44.0954C86.272 45.1734 87.1883 45.5558 88.0262 46.0339C88.1209 46.0878 87.994 46.5112 87.9788 46.6747C90.1331 48.7145 92.325 50.794 94.4989 52.8843C94.5225 52.9065 94.3299 53.1096 94.3279 53.1135C95.313 54.0255 96.2655 54.9104 97.2225 55.7977C97.2821 55.7378 97.3424 55.6782 97.4021 55.6183C97.764 56.0068 98.126 56.3953 98.488 56.7839C99.7797 58.1565 100.986 59.6163 102.394 60.8774C103.489 61.8562 104.058 63.2792 105.551 63.929C105.841 64.0533 105.998 64.5125 106.212 64.8148C106.343 64.9985 106.441 65.2253 106.609 65.3726C107.465 66.1171 108.339 66.8403 109.202 67.5834C109.295 67.662 111.836 70.1988 111.925 70.2849C113.207 71.4864 114.493 72.6898 115.763 73.9049C116.411 74.5265 117.013 75.1906 117.669 75.8066C118.79 76.8591 119.971 77.852 121.051 78.939C121.632 79.5213 122.049 80.2407 122.544 80.8992C122.644 81.0315 122.82 81.274 122.882 81.2552C124.147 80.976 124.427 82.0833 125.075 82.6701C126.955 84.3767 128.854 86.068 130.727 87.7862C131.014 88.0504 131.187 88.422 131.517 88.8948C131.616 88.9056 131.96 88.9371 132.304 88.9683C132.24 89.0464 132.176 89.1243 132.113 89.2025C132.813 89.7555 133.909 90.2304 134.132 90.8751C134.64 92.3372 136.227 92.6474 137.055 93.7153C137.464 94.2387 138.22 94.5383 138.764 95.0009C138.946 95.1551 138.954 95.487 138.971 95.5311C140.118 96.456 141.337 97.2519 142.284 98.2599C142.958 98.9759 144.549 99.6259 145.517 99.1128C145.596 99.3402 145.666 99.5424 145.787 99.9026C145.952 99.6501 146.007 99.4213 146.167 99.3477C147.419 98.7692 147.284 98.3465 146.03 97.2808C145.132 96.525 144.519 95.4675 143.835 94.514C143.503 94.0453 143.301 93.5028 143.044 92.9917L143.105 92.9527L143.039 92.8885L143.059 92.929ZM136.62 103.536C136.854 105.361 136.854 105.426 138.743 105.535C139.854 105.599 140.941 105.304 142.052 105.343C143.805 105.412 145.572 105.643 147.329 105.759C147.576 105.776 147.944 105.593 148.013 105.402C148.075 105.237 147.853 104.87 147.653 104.707C146.74 103.958 145.848 103.16 144.836 102.557C144.223 102.195 143.403 102.109 142.671 101.998C142.073 101.906 141.474 101.955 140.876 101.943C140.163 102.356 139.347 102.833 138.639 103.248C138.231 102.982 137.89 102.765 137.579 102.559C137.541 103.069 137.514 103.458 137.488 103.843C137.234 103.752 136.972 103.663 136.625 103.539L136.62 103.536ZM143.051 90.1628C143.508 90.7164 144.178 91.5308 144.873 92.3738C144.603 92.4811 144.429 92.5475 144.473 92.53C144.833 93.1345 145.097 93.7242 145.504 94.2167C146.287 95.1704 147.326 95.9994 147.944 97.0141C149.096 98.9044 149.26 99.0696 151.481 98.7495C150.978 98.1725 149.977 97.4839 150.009 96.9511C150.065 95.9466 149.52 95.8318 149.029 95.7496C148.791 94.2808 147.318 93.4143 146.987 92.4167C146.477 90.8784 145.17 90.2186 144.285 89.1367C143.443 88.107 142.532 87.1175 141.653 86.1143L141.385 86.3287C141.681 87.0008 141.98 87.6692 142.272 88.3389C142.497 88.8582 142.716 89.3749 143.053 90.1588L143.051 90.1628ZM145.926 101.507C147.782 102.798 149.618 104.073 151.456 105.345C151.568 105.241 151.679 105.138 151.791 105.034C151.031 103.15 149.79 101.566 148.089 100.547C147.33 100.881 146.74 101.146 145.922 101.504L145.926 101.507ZM153.77 105.305C154.463 103.394 152.677 102.427 151.795 101.125C151.83 101.652 151.93 102.232 152.294 102.562C152.727 102.957 153.295 103.049 152.829 103.781C152.683 104.008 153.431 104.782 153.77 105.305Z" fill="black"/>
</svg>
