<svg width="550" height="550" viewBox="0 0 550 550" fill="none" xmlns="http://www.w3.org/2000/svg">
<g clip-path="url(#clip0_2580_23957)">
<path d="M65.9038 210.153V65.004C65.9038 59.4236 70.4231 54.9043 76.0035 54.9043H234.043C239.623 54.9043 244.142 59.4236 244.142 65.004V210.153C244.142 215.734 239.623 220.253 234.043 220.253H76.0035C70.4231 220.253 65.9038 215.734 65.9038 210.153Z" fill="#F0F5FF"/>
<path d="M77.1826 203.767V96.5606C77.1826 93.6918 79.5209 91.3535 82.3897 91.3535H227.657C230.526 91.3535 232.864 93.6918 232.864 96.5606V203.787C232.864 206.655 230.526 208.994 227.657 208.994H82.3897C79.5012 208.974 77.1826 206.636 77.1826 203.767Z" fill="#F0F5FF"/>
<path d="M234.043 221.176H76.0036C69.932 221.176 65 216.244 65 210.172V65.0036C65 58.932 69.932 54 76.0036 54H234.043C240.114 54 245.046 58.932 245.046 65.0036V210.153C245.046 216.224 240.114 221.176 234.043 221.176ZM76.0036 55.8274C70.9341 55.8274 66.8077 59.9537 66.8077 65.0232V210.172C66.8077 215.242 70.9341 219.368 76.0036 219.368H234.043C239.112 219.368 243.239 215.242 243.239 210.172V65.0036C243.239 59.9341 239.112 55.8077 234.043 55.8077H76.0036V55.8274Z" fill="#212121"/>
<circle cx="82" cy="72" r="5" fill="#F54A4A"/>
<circle cx="98" cy="72" r="5" fill="#FFBB3B"/>
<circle cx="114" cy="72" r="5" fill="#9D98FF"/>
<path d="M395.334 477.32C395.07 477.32 394.806 477.32 394.542 477.32C393.97 477.32 393.508 476.836 393.53 476.264C393.53 475.692 393.992 475.252 394.564 475.252C394.564 475.252 394.564 475.252 394.586 475.252C397.292 475.296 399.998 475.12 402.66 474.702C403.232 474.614 403.76 475.01 403.848 475.56C403.936 476.132 403.54 476.66 402.99 476.748C400.438 477.122 397.864 477.32 395.334 477.32ZM386.336 476.484C386.27 476.484 386.204 476.484 386.138 476.462C383.344 475.934 380.616 475.164 378.02 474.174C377.492 473.976 377.228 473.382 377.426 472.832C377.624 472.304 378.218 472.04 378.768 472.238C381.254 473.184 383.872 473.932 386.534 474.416C387.084 474.526 387.458 475.054 387.348 475.626C387.26 476.132 386.82 476.484 386.336 476.484ZM410.822 474.812C410.382 474.812 409.986 474.548 409.832 474.108C409.656 473.558 409.942 472.986 410.492 472.81C413.066 471.952 415.552 470.874 417.884 469.576C418.39 469.29 419.006 469.488 419.292 469.994C419.556 470.5 419.38 471.116 418.874 471.402C416.432 472.744 413.836 473.888 411.13 474.768C411.042 474.79 410.932 474.812 410.822 474.812ZM370.98 470.588C370.804 470.588 370.606 470.544 370.43 470.434C367.988 468.916 365.722 467.2 363.72 465.286C363.302 464.89 363.28 464.23 363.676 463.834C364.072 463.416 364.732 463.394 365.128 463.79C367.042 465.594 369.198 467.244 371.508 468.674C371.992 468.982 372.146 469.62 371.838 470.104C371.662 470.412 371.332 470.588 370.98 470.588ZM425.21 466.892C424.902 466.892 424.616 466.76 424.418 466.518C424.044 466.078 424.11 465.418 424.55 465.066C426.596 463.372 428.554 461.48 430.314 459.412C430.688 458.972 431.348 458.928 431.766 459.302C432.206 459.676 432.25 460.336 431.876 460.754C430.028 462.91 428.004 464.89 425.848 466.672C425.672 466.804 425.452 466.892 425.21 466.892ZM356.086 463.724C354.062 463.724 351.928 463.636 349.596 463.46C349.024 463.416 348.606 462.932 348.65 462.36C348.694 461.788 349.178 461.37 349.75 461.414C352.742 461.634 355.338 461.7 357.912 461.634C358.528 461.612 358.968 462.074 358.968 462.646C358.99 463.218 358.528 463.702 357.956 463.702C357.34 463.724 356.724 463.724 356.086 463.724ZM366.14 462.866C365.656 462.866 365.216 462.514 365.128 462.03C365.018 461.48 365.392 460.93 365.942 460.82C367.614 460.512 369.242 460.094 370.782 459.588C371.75 459.28 372.696 458.906 373.62 458.51C374.148 458.29 374.742 458.51 374.984 459.038C375.204 459.566 374.984 460.16 374.456 460.402C373.488 460.842 372.454 461.216 371.442 461.568C369.836 462.096 368.12 462.536 366.338 462.866C366.272 462.866 366.206 462.866 366.14 462.866ZM341.456 462.602C341.412 462.602 341.368 462.602 341.302 462.602C338.574 462.206 335.802 461.722 333.096 461.128C332.546 461.018 332.172 460.468 332.304 459.896C332.414 459.346 332.964 458.972 333.536 459.104C336.198 459.676 338.926 460.16 341.61 460.556C342.182 460.644 342.578 461.15 342.49 461.722C342.402 462.228 341.962 462.602 341.456 462.602ZM359.122 459.258C358.792 459.258 358.462 459.082 358.264 458.796C356.658 456.332 355.448 453.736 354.656 451.074C354.502 450.524 354.81 449.952 355.36 449.798C355.91 449.622 356.482 449.952 356.636 450.502C357.384 452.988 358.506 455.408 360.002 457.696C360.31 458.18 360.178 458.818 359.694 459.126C359.518 459.214 359.32 459.258 359.122 459.258ZM325.286 459.126C325.198 459.126 325.088 459.104 325 459.082C322.338 458.312 319.676 457.454 317.08 456.508C316.552 456.31 316.266 455.716 316.464 455.188C316.662 454.66 317.256 454.374 317.784 454.572C320.336 455.496 322.976 456.354 325.572 457.102C326.122 457.256 326.43 457.828 326.276 458.378C326.166 458.84 325.748 459.126 325.286 459.126ZM381.078 456.178C380.792 456.178 380.484 456.046 380.286 455.804C379.912 455.364 379.978 454.704 380.418 454.352C382.552 452.592 384.268 450.59 385.566 448.412C385.852 447.928 386.49 447.752 386.974 448.038C387.458 448.324 387.634 448.962 387.348 449.446C385.94 451.844 384.048 454.022 381.738 455.936C381.54 456.09 381.298 456.178 381.078 456.178ZM435.924 454.396C435.748 454.396 435.55 454.352 435.396 454.242C434.912 453.956 434.758 453.318 435.044 452.834C436.43 450.524 437.64 448.082 438.63 445.574C438.85 445.046 439.444 444.782 439.972 445.002C440.5 445.222 440.764 445.816 440.544 446.344C439.51 448.962 438.256 451.492 436.804 453.89C436.628 454.22 436.276 454.396 435.924 454.396ZM309.754 453.516C309.622 453.516 309.468 453.494 309.336 453.428C306.806 452.306 304.276 451.096 301.834 449.82C301.328 449.556 301.13 448.94 301.394 448.434C301.658 447.928 302.274 447.73 302.78 447.994C305.178 449.248 307.664 450.458 310.172 451.558C310.7 451.778 310.92 452.394 310.7 452.922C310.546 453.296 310.15 453.516 309.754 453.516ZM295.124 445.838C294.948 445.838 294.75 445.794 294.574 445.684C292.22 444.232 289.866 442.67 287.622 441.064C287.16 440.734 287.05 440.096 287.38 439.612C287.71 439.15 288.348 439.04 288.832 439.37C291.032 440.954 293.342 442.472 295.652 443.902C296.136 444.21 296.29 444.848 295.982 445.332C295.806 445.662 295.476 445.838 295.124 445.838ZM354.634 443.638C354.612 443.638 354.612 443.638 354.59 443.638C354.018 443.616 353.578 443.132 353.6 442.56C353.732 439.612 354.326 436.796 355.404 434.178C355.624 433.65 356.218 433.408 356.746 433.606C357.274 433.826 357.516 434.42 357.318 434.948C356.328 437.346 355.778 439.92 355.668 442.648C355.646 443.198 355.184 443.638 354.634 443.638ZM389.086 442.186C389.042 442.186 388.998 442.186 388.976 442.186C388.404 442.12 388.008 441.614 388.074 441.042C388.162 440.36 388.184 439.656 388.184 438.952C388.184 436.994 387.876 435.102 387.26 433.32C387.084 432.77 387.37 432.198 387.898 432C388.448 431.824 389.02 432.11 389.218 432.638C389.9 434.618 390.252 436.752 390.252 438.93C390.252 439.7 390.208 440.47 390.12 441.24C390.032 441.79 389.592 442.186 389.086 442.186ZM442.018 439.106C441.952 439.106 441.864 439.106 441.798 439.084C441.248 438.952 440.896 438.402 441.006 437.852C441.578 435.212 441.93 432.506 442.062 429.844C442.084 429.272 442.59 428.832 443.14 428.854C443.712 428.876 444.152 429.36 444.13 429.932C443.998 432.726 443.646 435.52 443.03 438.292C442.92 438.776 442.48 439.106 442.018 439.106ZM360.926 428.766C360.662 428.766 360.398 428.656 360.178 428.458C359.782 428.04 359.782 427.402 360.2 427.006C360.354 426.852 360.508 426.72 360.662 426.588C362.62 424.828 365.04 423.464 367.702 422.65C368.252 422.474 368.824 422.782 369 423.332C369.176 423.882 368.868 424.454 368.318 424.63C365.942 425.356 363.786 426.566 362.07 428.128C361.938 428.26 361.806 428.37 361.674 428.502C361.432 428.656 361.19 428.766 360.926 428.766ZM383.652 427.27C383.41 427.27 383.19 427.182 382.992 427.028C381.078 425.444 378.68 424.41 376.018 423.992C375.446 423.904 375.072 423.376 375.16 422.826C375.248 422.254 375.754 421.88 376.326 421.968C379.362 422.43 382.112 423.618 384.312 425.444C384.752 425.818 384.818 426.456 384.444 426.896C384.246 427.138 383.96 427.27 383.652 427.27ZM442.722 422.672C442.216 422.672 441.776 422.298 441.71 421.77C441.358 419.13 440.764 416.468 439.928 413.894C439.752 413.344 440.06 412.772 440.61 412.596C441.16 412.42 441.732 412.728 441.908 413.278C442.766 415.984 443.382 418.756 443.756 421.506C443.822 422.078 443.426 422.584 442.876 422.672C442.81 422.65 442.766 422.672 442.722 422.672ZM437.772 406.964C437.398 406.964 437.024 406.766 436.848 406.392C435.638 403.994 434.208 401.684 432.624 399.484C432.294 399.022 432.382 398.384 432.844 398.032C433.306 397.702 433.944 397.79 434.296 398.252C435.946 400.518 437.442 402.938 438.696 405.424C438.96 405.93 438.762 406.546 438.234 406.81C438.08 406.942 437.926 406.964 437.772 406.964ZM428.07 393.654C427.806 393.654 427.542 393.544 427.344 393.346C425.43 391.432 423.34 389.672 421.184 388.11C420.722 387.78 420.612 387.142 420.942 386.658C421.272 386.196 421.932 386.086 422.394 386.416C424.66 388.044 426.816 389.87 428.818 391.872C429.214 392.268 429.214 392.928 428.818 393.324C428.598 393.566 428.334 393.654 428.07 393.654ZM414.694 384.084C414.54 384.084 414.386 384.04 414.254 383.974C413.946 383.82 413.638 383.688 413.33 383.534C412.802 383.292 412.582 382.676 412.824 382.17C413.066 381.642 413.66 381.422 414.188 381.664C414.518 381.818 414.826 381.972 415.156 382.126C415.662 382.368 415.882 382.984 415.64 383.512C415.442 383.864 415.068 384.084 414.694 384.084Z" fill="#212121"/>
<path d="M247.67 196.445C247.054 193.937 246.746 191.341 246.79 188.745C246.812 186.897 247.318 184.631 249.1 184.103C250.068 183.817 251.146 184.191 251.916 184.829C252.686 185.467 253.258 186.347 253.764 187.227C257.746 194.047 258.186 204.431 265.38 215.101C266.766 217.147 268.13 219.193 269.362 221.305C280.142 239.741 288.986 255.999 297.654 275.491C299.018 272.807 299.656 271.179 301.262 269.045C317.014 271.201 330.742 279.913 340.466 295.005C334.042 307.347 325.198 318.435 314.55 327.389C311.25 330.161 307.73 332.757 303.748 334.407C299.766 336.057 295.256 336.695 291.12 335.507C283.97 333.439 278.514 326.575 275.192 319.909C268.878 307.259 250.86 254.085 246.02 231.337C245.536 229.049 244.436 226.937 242.786 225.265C237.418 219.809 230.95 217.587 224.636 212.285C223.382 211.251 221.578 209.733 221.05 208.193C220.676 207.071 220.984 205.773 221.798 204.937C222.634 204.101 223.932 203.793 225.054 204.167L247.67 196.445Z" fill="white"/>
<path d="M295.608 337.159C293.936 337.159 292.33 336.939 290.834 336.499C282.166 333.969 276.732 325.323 274.268 320.373C267.712 307.217 249.716 253.691 245.008 231.537C244.546 229.403 243.534 227.467 242.06 225.971C239.178 223.045 235.966 221.087 232.578 218.997C229.784 217.281 226.88 215.499 223.976 213.079C222.546 211.869 220.676 210.307 220.082 208.525C219.576 207.051 219.994 205.313 221.094 204.213C222.194 203.113 223.932 202.695 225.406 203.179C225.956 203.355 226.242 203.949 226.066 204.477C225.89 205.027 225.296 205.313 224.768 205.137C224.02 204.895 223.118 205.115 222.568 205.665C222.018 206.215 221.798 207.117 222.062 207.865C222.48 209.097 224.152 210.505 225.252 211.429C228.112 213.827 230.928 215.565 233.678 217.237C237.198 219.393 240.498 221.439 243.556 224.541C245.316 226.323 246.526 228.589 247.054 231.119C251.718 253.141 269.604 306.381 276.138 319.449C280.076 327.347 285.642 332.825 291.428 334.519C294.992 335.553 299.238 335.179 303.374 333.463C307.51 331.747 311.162 328.887 313.89 326.599C324.208 317.931 332.964 307.041 339.278 295.073C330.104 281.081 317.168 272.479 301.812 270.169C300.118 273.073 299.062 274.965 298.6 275.933C298.424 276.307 298.028 276.505 297.654 276.527C297.258 276.527 296.884 276.285 296.73 275.911C287.27 254.637 277.568 237.345 268.482 221.813C267.228 219.679 265.864 217.633 264.522 215.653C260.188 209.229 258.274 202.959 256.58 197.437C255.436 193.653 254.424 190.397 252.862 187.713C252.4 186.899 251.916 186.129 251.256 185.601C250.794 185.205 250.046 184.875 249.386 185.073C247.956 185.491 247.824 187.999 247.824 188.747C247.758 193.125 248.704 197.525 250.552 201.507C250.772 201.969 250.618 202.497 250.222 202.783C248.308 204.147 247.098 206.435 247.076 208.789C247.054 211.143 248.198 213.453 250.09 214.839C250.552 215.169 250.64 215.829 250.31 216.291C249.98 216.753 249.32 216.841 248.858 216.511C246.46 214.729 244.964 211.759 245.008 208.767C245.03 206.061 246.306 203.399 248.352 201.639C246.614 197.591 245.712 193.147 245.778 188.725C245.822 185.711 246.922 183.665 248.836 183.093C250.046 182.719 251.476 183.071 252.62 183.995C253.544 184.743 254.16 185.733 254.71 186.657C256.404 189.561 257.482 193.081 258.626 196.821C260.276 202.211 262.146 208.305 266.304 214.487C267.646 216.489 269.054 218.557 270.33 220.757C279.152 235.849 288.568 252.635 297.808 273.117C298.446 271.973 299.304 270.455 300.448 268.519C300.668 268.167 301.064 267.947 301.482 268.013C317.938 270.279 331.732 279.409 341.412 294.435C341.61 294.743 341.632 295.139 341.456 295.469C334.988 307.877 325.946 319.185 315.276 328.161C312.438 330.559 308.61 333.529 304.21 335.355C301.284 336.565 298.358 337.159 295.608 337.159Z" fill="#212121"/>
<path d="M302.582 288.405C302.164 288.405 301.79 288.163 301.614 287.767L301.196 286.711C299.7 283.015 298.006 278.835 296.708 275.909C296.466 275.381 296.708 274.787 297.236 274.545C297.764 274.303 298.358 274.545 298.6 275.073C299.898 278.021 301.614 282.223 303.11 285.919L303.528 286.975C303.748 287.503 303.484 288.097 302.956 288.317C302.824 288.361 302.692 288.405 302.582 288.405Z" fill="#212121"/>
<path d="M233.986 210.373C229.696 209.317 225.736 206.941 222.744 203.685C222.062 202.915 221.402 202.101 221.028 201.155C220.654 200.209 220.588 199.087 221.028 198.163C221.468 197.261 222.392 196.623 223.382 196.513C224.372 196.425 225.406 196.887 226.022 197.679C229.124 197.415 232.292 198.625 234.558 200.759" fill="white"/>
<path d="M233.986 211.406C233.898 211.406 233.81 211.406 233.744 211.384C229.256 210.284 225.098 207.776 221.996 204.366C221.358 203.662 220.544 202.694 220.082 201.506C219.576 200.186 219.576 198.8 220.126 197.678C220.72 196.446 221.974 195.588 223.316 195.456C224.46 195.346 225.648 195.786 226.484 196.6C229.652 196.512 232.908 197.744 235.284 199.988C235.702 200.384 235.724 201.044 235.328 201.44C234.932 201.858 234.272 201.88 233.876 201.484C231.786 199.504 228.904 198.448 226.154 198.69C225.802 198.712 225.45 198.558 225.23 198.272C224.856 197.766 224.174 197.458 223.536 197.502C222.898 197.568 222.282 197.986 221.996 198.558C221.71 199.152 221.71 199.944 222.018 200.736C222.348 201.594 222.964 202.342 223.536 202.958C226.352 206.06 230.158 208.348 234.25 209.338C234.8 209.47 235.152 210.042 234.998 210.592C234.866 211.098 234.448 211.406 233.986 211.406Z" fill="#212121"/>
<path d="M237.506 205.489C233.062 203.509 228.882 200.935 225.12 197.833C224.482 197.305 223.866 196.777 223.382 196.095C222.92 195.413 222.612 194.599 222.7 193.785C222.876 192.245 224.438 191.167 225.978 190.991C227.518 190.837 228.728 191.585 230.444 192.553C231.566 193.191 232.93 193.037 234.206 193.103C235.482 193.169 236.78 193.279 237.946 193.807C239.112 194.335 240.124 195.347 240.344 196.601" fill="white"/>
<path d="M237.506 206.522C237.374 206.522 237.22 206.5 237.088 206.434C232.556 204.41 228.288 201.792 224.46 198.646C223.778 198.096 223.096 197.48 222.546 196.71C221.886 195.764 221.578 194.686 221.688 193.696C221.93 191.54 224.042 190.198 225.89 190C227.672 189.824 229.036 190.594 230.642 191.518L230.972 191.716C231.632 192.09 232.49 192.09 233.436 192.112C233.722 192.112 234.008 192.112 234.294 192.134C235.636 192.2 237.066 192.332 238.408 192.926C240.036 193.652 241.158 194.994 241.4 196.49C241.488 197.062 241.114 197.59 240.542 197.678C239.97 197.766 239.442 197.392 239.354 196.82C239.2 195.852 238.32 195.148 237.55 194.796C236.538 194.334 235.328 194.246 234.162 194.18C233.898 194.158 233.634 194.158 233.392 194.158C232.292 194.136 231.06 194.114 229.96 193.498L229.63 193.3C228.178 192.486 227.254 191.936 226.11 192.046C225.032 192.156 223.866 192.882 223.734 193.916C223.668 194.4 223.866 194.972 224.24 195.522C224.636 196.094 225.23 196.6 225.78 197.062C229.476 200.098 233.568 202.628 237.946 204.564C238.474 204.806 238.694 205.4 238.474 205.928C238.276 206.28 237.902 206.522 237.506 206.522Z" fill="#212121"/>
<path d="M241.73 200.428C237.748 198.646 233.986 196.336 230.62 193.564C230.048 193.102 229.476 192.618 229.058 192.002C228.64 191.386 228.354 190.66 228.442 189.934C228.596 188.548 230.004 187.58 231.39 187.426C232.776 187.294 234.25 187.91 235.79 188.768C240.366 191.364 244.502 193.96 247.912 197.37" fill="white"/>
<path d="M241.73 201.461C241.598 201.461 241.444 201.439 241.312 201.373C237.22 199.547 233.414 197.193 229.96 194.355C229.344 193.849 228.728 193.321 228.222 192.595C227.606 191.715 227.32 190.725 227.43 189.801C227.65 187.799 229.542 186.567 231.302 186.391C233.084 186.215 234.844 187.029 236.318 187.865C240.586 190.285 245.03 193.013 248.66 196.643C249.056 197.039 249.056 197.699 248.66 198.095C248.264 198.491 247.604 198.491 247.208 198.095C243.754 194.641 239.442 192.001 235.306 189.647C234.184 189.009 232.754 188.305 231.522 188.437C230.62 188.525 229.586 189.163 229.498 190.021C229.454 190.439 229.608 190.923 229.938 191.385C230.29 191.891 230.796 192.331 231.302 192.727C234.602 195.455 238.276 197.699 242.192 199.437C242.72 199.679 242.94 200.273 242.72 200.801C242.5 201.219 242.126 201.461 241.73 201.461Z" fill="#212121"/>
<path d="M375.622 206.104C363.896 205.84 352.236 209.866 342.424 216.334C331.688 223.396 323.042 233.252 315.936 243.966C310.568 252.084 305.046 260.158 301.24 269.046C314 276.988 327.816 287.042 338.75 297.382C340.092 295.182 341.346 292.916 342.512 290.628C373.664 263.216 385.984 235.1 375.622 206.104Z" fill="#9D98FF"/>
<path d="M338.816 298.043C338.816 298.043 339.938 336.697 349.046 359.159H442.26C456.516 310.385 447.518 279.827 441.952 245.991L426.2 204.543L375.622 206.105" fill="#9D98FF"/>
<path d="M442.26 360.192H349.068C348.65 360.192 348.276 359.928 348.1 359.554C339.014 337.18 337.804 298.46 337.782 298.086C337.76 297.514 338.222 297.03 338.794 297.03H338.816C339.366 297.03 339.828 297.47 339.85 298.042C339.85 298.416 341.038 336.036 349.75 358.146H441.468C453.502 316.434 448.508 288.736 443.228 259.41C442.458 255.12 441.666 250.698 440.94 246.276L425.496 205.62L375.666 207.16C375.138 207.204 374.61 206.72 374.61 206.148C374.588 205.576 375.05 205.092 375.622 205.092L426.2 203.53C426.662 203.508 427.036 203.794 427.19 204.19L442.942 245.638C442.964 245.704 442.986 245.77 442.986 245.836C443.712 250.28 444.526 254.724 445.296 259.036C450.422 287.46 455.702 316.874 443.25 359.466C443.118 359.884 442.722 360.192 442.26 360.192ZM416.718 183.576C426.2 179.66 439.29 168.528 442.26 152.226C443.074 147.804 443.822 139.862 442.7 134.736C442.106 132.008 440.61 128.642 438.146 127.344C435.682 126.046 432.14 126.794 430.952 129.302C433.064 125.254 432.58 120.106 430.248 116.168C427.916 112.23 423.956 109.414 419.666 107.852C412.252 105.168 403.606 106.136 396.962 110.382C393.86 112.362 391.022 115.068 387.392 115.728C382.53 116.608 377.36 113.55 372.762 115.288C368.956 116.718 365.612 122.372 364.798 126.354C363.5 132.888 365.414 140.962 374.038 143.448C400.108 137.442 411.526 158.892 416.718 183.576Z" fill="#212121"/>
<path d="M416.718 184.61C416.542 184.61 416.388 184.566 416.234 184.5C415.97 184.346 415.772 184.104 415.706 183.796C411.812 165.36 405.3 153.106 396.302 147.386C390.208 143.492 382.794 142.524 374.28 144.504C374.104 144.548 373.928 144.548 373.752 144.482C364.226 141.754 362.422 132.932 363.786 126.2C364.688 121.712 368.362 115.882 372.388 114.364C375.182 113.308 378.064 113.836 380.88 114.342C383.102 114.738 385.192 115.112 387.216 114.76C389.658 114.32 391.748 112.824 393.97 111.24C394.784 110.668 395.576 110.096 396.412 109.568C403.298 105.168 412.34 104.156 420.018 106.95C424.902 108.71 428.862 111.812 431.15 115.706C433.042 118.918 433.724 122.724 433.108 126.156C433.196 126.134 433.262 126.09 433.35 126.068C435.088 125.496 437.068 125.628 438.63 126.464C442.106 128.312 443.404 133.108 443.712 134.538C444.922 140.082 443.998 148.398 443.272 152.424C440.39 168.242 427.696 180.166 417.114 184.544C416.982 184.566 416.85 184.61 416.718 184.61ZM382.508 141.424C388.052 141.424 393.046 142.832 397.424 145.626C406.686 151.522 413.418 163.798 417.466 182.102C427.3 177.57 438.608 166.526 441.248 152.028C442.172 146.99 442.7 139.488 441.71 134.956C441.182 132.58 439.818 129.39 437.684 128.268C436.628 127.696 435.22 127.608 434.01 128.004C433.086 128.312 432.382 128.862 431.986 129.588C431.942 129.654 431.92 129.72 431.876 129.786C431.612 130.292 430.996 130.49 430.512 130.226C430.006 129.984 429.786 129.368 430.028 128.862C430.072 128.774 430.116 128.686 430.16 128.62C431.898 125.1 431.59 120.458 429.39 116.696C427.344 113.22 423.78 110.448 419.336 108.842C412.252 106.29 403.892 107.214 397.534 111.262C396.742 111.768 395.972 112.318 395.18 112.89C392.87 114.54 390.494 116.234 387.59 116.762C385.214 117.202 382.838 116.762 380.528 116.344C377.888 115.86 375.402 115.42 373.136 116.278C369.792 117.532 366.602 122.724 365.832 126.596C364.666 132.404 366.162 139.972 374.104 142.414C377.03 141.754 379.824 141.424 382.508 141.424ZM338.75 298.416C338.486 298.416 338.244 298.306 338.046 298.13C328.124 288.736 314.858 278.726 300.712 269.926C300.272 269.662 300.096 269.112 300.316 268.65C303.858 260.334 308.962 252.656 313.89 245.22L315.1 243.394C323.108 231.294 332.128 221.878 341.874 215.454C352.412 208.502 364.446 204.828 375.666 205.048C376.238 205.07 376.7 205.532 376.678 206.104C376.656 206.676 376.216 207.094 375.622 207.116C364.732 206.874 353.204 210.46 342.996 217.17C333.492 223.44 324.67 232.636 316.816 244.516L315.606 246.342C310.898 253.448 306.014 260.796 302.56 268.628C316.09 277.098 328.806 286.668 338.53 295.732C339.608 293.884 340.642 292.014 341.61 290.144C341.874 289.638 342.49 289.44 342.996 289.704C343.502 289.968 343.7 290.584 343.436 291.09C342.27 293.378 340.972 295.688 339.63 297.91C339.476 298.174 339.19 298.35 338.882 298.394C338.86 298.416 338.794 298.416 338.75 298.416Z" fill="#212121"/>
<path d="M497.238 274.129C504.872 290.717 504.256 320.857 492.42 326.643C470.596 337.291 417.466 306.271 407.016 300.221L408.402 275.977C422.174 280.685 432.756 280.927 444.57 284.601C445.714 284.953 446.88 285.327 448.024 285.723C459.266 273.117 475.172 268.365 497.238 274.129Z" fill="white"/>
<path d="M432.052 250.523C436.166 263.151 440.61 274.701 448.002 285.723C462.412 278.617 481.178 274.085 497.238 274.129C488.174 252.547 474.49 233.187 467.978 226.675C456.516 215.235 442.238 206.699 426.2 204.543C414.166 218.997 418.016 234.441 432.052 250.523Z" fill="#9D98FF"/>
<path d="M388.096 224.848C387.92 224.848 387.744 224.804 387.59 224.716C381.76 221.394 376.37 217.038 370.584 211.054L367.262 207.6C366.866 207.182 366.888 206.544 367.284 206.148C367.702 205.752 368.34 205.774 368.736 206.17L372.058 209.602C377.69 215.454 382.948 219.678 388.602 222.912C389.086 223.198 389.262 223.836 388.976 224.32C388.8 224.65 388.448 224.848 388.096 224.848ZM396.896 266.318C396.434 266.318 395.994 266.296 395.554 266.274C391.88 266.032 387.656 264.778 387.854 262.028C387.898 261.456 388.382 261.038 388.954 261.06C389.526 261.104 389.944 261.588 389.922 262.16C389.878 262.842 392.1 263.964 395.708 264.206C399.316 264.448 401.67 263.612 401.714 262.93L403.562 226.3C403.716 223.44 405.432 220.932 408.05 219.744C415.486 216.4 422.482 212.638 428.818 208.524L433.79 205.312C434.274 205.004 434.912 205.136 435.22 205.62C435.528 206.104 435.396 206.742 434.912 207.05L429.94 210.262C423.516 214.42 416.432 218.226 408.908 221.614C406.994 222.472 405.74 224.298 405.63 226.388L403.782 263.04C403.584 265.504 400.196 266.318 396.896 266.318Z" fill="#212121"/>
<path d="M426.2 204.542C414.342 212.198 402.616 217.016 397.49 218.952C395.774 219.59 393.882 219.458 392.276 218.6C387.854 216.18 382.508 212.616 375.6 206.104C380.748 202.298 385.148 196.336 386.93 190.176C387.722 187.426 388.118 184.544 388.052 181.662L415.728 167.428C415.486 174.336 416.476 182.696 417.356 188.614C417.576 190.044 417.774 191.342 417.95 192.442C418.39 195.126 419.072 198.096 421.514 200.868C422.592 202.034 426.178 204.498 426.2 204.542Z" fill="white"/>
<path d="M395.29 220.404C394.08 220.404 392.892 220.096 391.814 219.524C386.204 216.466 380.836 212.44 374.94 206.874C374.72 206.654 374.61 206.368 374.61 206.06C374.632 205.752 374.786 205.466 375.028 205.29C380.11 201.528 384.312 195.632 385.984 189.89C386.776 187.184 387.128 184.412 387.062 181.684C387.062 181.288 387.26 180.914 387.612 180.738L415.288 166.504C415.618 166.328 416.014 166.35 416.322 166.548C416.63 166.746 416.806 167.098 416.806 167.45C416.564 174.27 417.554 182.63 418.434 188.46C418.61 189.692 418.786 190.814 418.962 191.804L419.028 192.266C419.424 194.708 420.062 197.568 422.35 200.186C422.856 200.758 424.242 201.88 426.486 203.486C426.904 203.794 426.926 203.794 427.036 203.926C427.212 204.146 427.278 204.454 427.234 204.718C427.19 205.004 427.014 205.246 426.772 205.4C414.65 213.232 402.528 218.16 397.886 219.92C397.028 220.25 396.17 220.404 395.29 220.404ZM377.228 206.17C382.662 211.186 387.634 214.86 392.804 217.698C394.146 218.424 395.73 218.534 397.16 217.984C401.582 216.312 412.868 211.736 424.396 204.476C422.966 203.442 421.492 202.298 420.81 201.528C418.17 198.492 417.466 195.324 417.004 192.574L416.938 192.112C416.784 191.122 416.586 189.978 416.41 188.746C415.596 183.334 414.694 175.722 414.738 169.122L389.152 182.278C389.152 185.006 388.756 187.756 387.986 190.462C386.248 196.314 382.288 202.122 377.228 206.17Z" fill="#212121"/>
<path d="M384.466 120.215C387.018 115.551 392.122 112.625 397.38 111.855C402.638 111.085 408.028 112.273 412.912 114.341C421.426 117.949 428.884 124.439 432.58 132.909C435.352 139.267 435.88 146.681 433.548 153.237C431.216 159.771 425.914 165.293 419.314 167.449C414.826 168.901 409.898 168.813 405.344 167.537C400.79 166.261 396.61 163.841 392.98 160.827C390.098 158.451 387.502 155.613 385.962 152.225C381.914 143.293 385.918 132.733 383.916 123.141L384.466 120.215Z" fill="#212121"/>
<path d="M412.362 169.539C409.942 169.539 407.478 169.209 405.058 168.527C400.636 167.273 396.346 164.963 392.32 161.619C388.844 158.737 386.446 155.789 385.016 152.643C382.596 147.297 382.926 141.401 383.256 135.703C383.498 131.567 383.74 127.299 382.904 123.339C382.882 123.207 382.882 123.075 382.904 122.943L383.454 120.039C383.476 119.929 383.52 119.819 383.564 119.731C386.138 115.045 391.242 111.723 397.226 110.843C402.176 110.117 407.588 110.975 413.33 113.417C422.592 117.333 429.962 124.307 433.548 132.535C436.518 139.355 436.892 147.055 434.538 153.611C432.052 160.585 426.332 166.283 419.644 168.461C417.356 169.165 414.892 169.539 412.362 169.539ZM384.994 123.097C385.83 127.277 385.588 131.611 385.346 135.813C385.016 141.511 384.708 146.901 386.93 151.785C388.228 154.645 390.428 157.351 393.662 160.035C397.468 163.203 401.494 165.381 405.652 166.547C410.206 167.823 414.958 167.801 419.028 166.481C425.122 164.501 430.336 159.287 432.602 152.907C434.78 146.835 434.428 139.707 431.678 133.349C428.312 125.605 421.338 119.027 412.56 115.309C407.17 113.043 402.132 112.207 397.578 112.889C392.298 113.659 387.81 116.541 385.5 120.589L384.994 123.097Z" fill="#212121"/>
<path d="M375.402 135.879C369.528 147.121 366.118 159.661 365.458 172.333C365.238 176.667 365.37 181.221 367.504 185.005C370.936 191.099 378.834 193.541 385.72 192.397C392.606 191.253 398.656 187.249 404.156 182.937C448.244 162.455 415.442 129.191 375.402 135.879Z" fill="white"/>
<path d="M382.354 193.697C375.644 193.697 369.484 190.573 366.602 185.491C364.292 181.377 364.204 176.493 364.424 172.269C365.084 159.487 368.56 146.749 374.5 135.397C374.764 134.891 375.38 134.693 375.886 134.957C376.392 135.221 376.59 135.837 376.326 136.343C370.54 147.431 367.13 159.883 366.492 172.357C366.294 176.295 366.36 180.805 368.406 184.457C371.838 190.573 379.714 192.311 385.544 191.343C392.408 190.221 398.48 186.041 403.518 182.081C403.958 181.729 404.618 181.817 404.97 182.257C405.322 182.697 405.234 183.357 404.794 183.709C399.558 187.801 393.2 192.179 385.896 193.367C384.708 193.609 383.52 193.697 382.354 193.697Z" fill="#212121"/>
<path d="M380.704 174.819C380.66 174.819 380.616 174.819 380.55 174.819C379.142 174.621 377.91 174.115 376.986 173.345C375.842 172.399 375.16 171.013 375.182 169.649C375.204 167.691 376.524 166.261 377.668 164.985C377.954 164.677 378.24 164.347 378.504 164.039C380.33 161.817 381.122 158.781 380.572 155.943C380.462 155.393 380.836 154.843 381.386 154.733C381.958 154.623 382.486 154.997 382.596 155.547C383.234 158.979 382.31 162.631 380.088 165.337C379.802 165.689 379.494 166.019 379.186 166.371C378.196 167.471 377.25 168.483 377.25 169.671C377.25 170.397 377.646 171.189 378.306 171.739C378.922 172.267 379.802 172.619 380.836 172.751C381.408 172.839 381.804 173.345 381.716 173.917C381.65 174.445 381.21 174.819 380.704 174.819ZM381.738 178.493C381.474 178.493 381.21 178.471 380.946 178.449C380.374 178.383 379.978 177.855 380.044 177.283C380.11 176.711 380.638 176.315 381.21 176.381C383.41 176.667 385.742 175.193 386.446 173.081C386.622 172.531 387.216 172.245 387.744 172.421C388.294 172.597 388.58 173.191 388.404 173.719C387.458 176.535 384.642 178.493 381.738 178.493ZM377.47 154.623C377.338 154.623 377.206 154.601 377.074 154.557C374.566 153.545 371.354 153.369 368.89 154.095C368.34 154.249 367.768 153.941 367.614 153.391C367.46 152.841 367.768 152.269 368.318 152.115C371.816 151.081 375.534 151.719 377.866 152.643C378.394 152.863 378.658 153.457 378.438 153.985C378.262 154.381 377.888 154.623 377.47 154.623ZM371.178 156.845C371.178 157.439 371.728 157.945 372.388 157.945C373.07 157.945 373.598 157.439 373.598 156.845C373.598 156.229 373.048 155.745 372.388 155.745C371.728 155.767 371.178 156.251 371.178 156.845Z" fill="#212121"/>
<path d="M372.388 158.979C371.156 158.979 370.144 158.033 370.144 156.845C370.144 155.657 371.156 154.711 372.388 154.711C373.62 154.711 374.632 155.657 374.632 156.845C374.632 158.033 373.62 158.979 372.388 158.979ZM372.234 156.845C372.278 156.911 372.564 156.867 372.586 156.823C372.564 156.845 372.52 156.779 372.41 156.779C372.3 156.801 372.256 156.823 372.234 156.845ZM396.236 157.065C396.082 157.065 395.928 157.021 395.774 156.955C393.354 155.745 390.186 155.327 387.656 155.855C387.084 155.965 386.556 155.613 386.424 155.063C386.314 154.513 386.666 153.963 387.216 153.831C390.802 153.083 394.454 154.007 396.676 155.107C397.182 155.371 397.402 155.987 397.138 156.493C396.984 156.845 396.61 157.065 396.236 157.065ZM389.724 158.803C389.68 159.397 390.186 159.925 390.846 159.991C391.528 160.035 392.1 159.595 392.144 159.001C392.188 158.385 391.682 157.879 391.022 157.813C390.34 157.747 389.768 158.187 389.724 158.803Z" fill="#212121"/>
<path d="M390.934 161.026C390.868 161.026 390.802 161.026 390.758 161.026C390.142 160.982 389.57 160.696 389.196 160.234C388.822 159.816 388.646 159.266 388.69 158.738C388.734 158.166 389.042 157.616 389.504 157.264C389.944 156.912 390.516 156.758 391.088 156.802C392.32 156.89 393.266 157.924 393.156 159.09C393.112 159.64 392.848 160.124 392.43 160.498C392.034 160.828 391.484 161.026 390.934 161.026ZM390.758 158.87C390.78 158.892 390.824 158.936 390.912 158.936C391.022 158.958 391.088 158.892 391.11 158.87C391.11 158.87 391.044 158.826 390.934 158.804C390.824 158.826 390.78 158.848 390.758 158.87ZM385.566 119.072C383.74 116.608 380.462 115.266 377.426 115.75C374.39 116.234 371.706 118.522 370.716 121.426C369.748 124.352 370.518 127.784 372.652 130.006C370.364 129.676 368.142 131.59 367.636 133.856C367.13 136.122 368.032 138.52 369.528 140.28C371.662 142.832 375.006 144.306 378.35 144.174C381.672 144.042 384.906 142.304 386.82 139.598C388.228 143.778 392.43 146.352 396.566 147.936C403.518 150.576 411.13 151.368 418.478 150.246C415.838 155.548 414.804 157.198 415.904 163.028C419.072 163.402 421.47 165.03 423.164 162.324C427.52 155.328 428.004 146.066 424.396 138.652C420.788 131.238 413.198 125.914 404.992 125.034C401.45 124.66 397.842 125.056 394.322 124.528C390.802 124 387.678 121.932 385.566 119.072Z" fill="#212121"/>
<path d="M420.568 164.899C419.71 164.899 418.808 164.701 417.972 164.503C417.268 164.349 416.542 164.173 415.794 164.085C415.354 164.041 414.98 163.689 414.892 163.249C413.858 157.793 414.628 155.681 416.696 151.567C409.766 152.315 402.726 151.413 396.214 148.949C391.44 147.145 388.184 144.659 386.556 141.601C384.422 143.779 381.43 145.143 378.394 145.275C374.764 145.429 371.068 143.779 368.758 141.007C366.91 138.785 366.118 136.057 366.646 133.681C367.13 131.547 368.802 129.809 370.738 129.215C369.286 126.839 368.868 123.803 369.77 121.163C370.87 117.885 373.884 115.333 377.294 114.783C380.704 114.233 384.378 115.729 386.424 118.501C388.47 121.251 391.418 123.099 394.52 123.561C396.368 123.847 398.216 123.847 400.196 123.869C401.824 123.891 403.496 123.891 405.146 124.067C413.66 124.969 421.602 130.557 425.364 138.257C429.126 145.957 428.62 155.637 424.066 162.919C423.054 164.437 421.844 164.899 420.568 164.899ZM416.784 162.127C417.378 162.237 417.928 162.369 418.434 162.479C420.678 163.007 421.492 163.073 422.284 161.797C426.464 155.109 426.926 146.221 423.472 139.137C420.018 132.053 412.736 126.927 404.904 126.091C403.342 125.915 401.714 125.915 400.152 125.893C398.194 125.871 396.192 125.871 394.19 125.563C390.56 125.013 387.106 122.879 384.752 119.689C383.146 117.511 380.264 116.345 377.602 116.763C374.94 117.181 372.564 119.183 371.706 121.757C370.848 124.309 371.53 127.345 373.4 129.281C373.708 129.589 373.774 130.073 373.576 130.469C373.378 130.865 372.96 131.085 372.52 131.019C370.87 130.799 369.066 132.207 368.648 134.077C368.252 135.815 368.89 137.905 370.32 139.621C372.256 141.909 375.314 143.273 378.306 143.163C381.298 143.053 384.246 141.447 385.984 139.005C386.204 138.697 386.6 138.521 386.974 138.587C387.348 138.653 387.678 138.917 387.81 139.269C388.888 142.481 391.968 145.077 396.94 146.969C403.738 149.543 411.13 150.335 418.324 149.213C418.698 149.147 419.094 149.323 419.314 149.631C419.534 149.939 419.578 150.357 419.402 150.709L419.028 151.479C416.828 155.879 416.014 157.507 416.784 162.127Z" fill="#212121"/>
<path d="M415.904 163.028C417.422 160.586 419.468 158.452 422.13 157.506C424.77 156.538 428.07 157.088 429.852 159.354C431.414 161.356 431.524 164.304 430.556 166.658C429.588 169.012 427.718 170.86 425.65 172.29C421.536 175.128 417.158 176.712 412.384 178.032" fill="white"/>
<path d="M412.384 179.066C411.922 179.066 411.504 178.758 411.394 178.296C411.24 177.746 411.57 177.174 412.12 177.02C416.08 175.942 420.722 174.424 425.078 171.41C427.322 169.87 428.84 168.132 429.61 166.24C430.512 164.062 430.27 161.532 429.038 159.948C427.476 157.946 424.55 157.66 422.482 158.43C419.776 159.42 417.884 161.752 416.784 163.534C416.476 164.018 415.86 164.172 415.354 163.864C414.87 163.556 414.716 162.918 415.024 162.434C416.85 159.486 419.182 157.418 421.778 156.472C425.056 155.284 428.708 156.186 430.666 158.672C432.36 160.85 432.712 164.106 431.524 167.01C430.6 169.276 428.818 171.322 426.244 173.082C421.646 176.25 416.784 177.834 412.67 178.978C412.56 179.066 412.472 179.066 412.384 179.066Z" fill="#212121"/>
<path d="M421.712 170.75C421.558 170.75 421.404 170.728 421.272 170.64C420.678 170.354 420.018 170.024 419.424 169.518C418.676 168.858 418.236 168.022 418.192 167.186C418.126 166.042 418.852 164.986 419.886 164.678C420.48 164.502 421.03 164.612 421.47 164.678C421.69 164.722 421.888 164.766 422.042 164.744C422.284 164.722 422.57 164.524 422.768 164.216C423.032 163.82 423.186 163.336 423.362 162.786C423.538 162.236 424.11 161.928 424.66 162.104C425.21 162.28 425.518 162.852 425.342 163.402C425.144 164.018 424.924 164.744 424.484 165.382C423.912 166.218 423.076 166.746 422.218 166.812C421.8 166.856 421.426 166.768 421.096 166.724C420.854 166.68 420.59 166.636 420.48 166.658C420.392 166.68 420.26 166.878 420.282 167.076C420.304 167.362 420.48 167.692 420.81 167.956C421.184 168.286 421.69 168.528 422.196 168.77C422.702 169.012 422.922 169.628 422.68 170.156C422.46 170.53 422.086 170.75 421.712 170.75ZM385.676 244.318L382.2 299.516C382.068 301.474 380.396 302.948 378.438 302.838L312.834 298.702C310.876 298.57 309.402 296.898 309.512 294.94L312.988 239.742C313.12 237.784 314.792 236.31 316.75 236.42L382.354 240.556C384.312 240.666 385.808 242.36 385.676 244.318Z" fill="#212121"/>
<path d="M378.658 303.872C378.57 303.872 378.46 303.872 378.372 303.872L312.768 299.736C310.26 299.582 308.324 297.404 308.5 294.874L311.976 239.676C312.13 237.168 314.33 235.232 316.838 235.408L382.442 239.544C383.652 239.61 384.774 240.16 385.588 241.084C386.402 242.008 386.798 243.174 386.732 244.406L383.256 299.604C383.08 302.002 381.056 303.872 378.658 303.872ZM316.53 237.432C315.914 237.432 315.342 237.652 314.88 238.048C314.374 238.488 314.088 239.104 314.044 239.764L310.568 294.962C310.48 296.348 311.536 297.536 312.922 297.624L378.526 301.76C379.934 301.826 381.1 300.792 381.188 299.406L384.664 244.208C384.708 243.548 384.488 242.888 384.048 242.382C383.608 241.876 382.992 241.568 382.332 241.546L316.728 237.41C316.64 237.432 316.596 237.432 316.53 237.432ZM468.858 294.764C468.726 294.764 468.594 294.742 468.462 294.676C460.608 291.354 454.008 288.824 447.672 286.712C447.122 286.536 446.836 285.942 447.012 285.414C447.188 284.864 447.782 284.578 448.31 284.754C454.69 286.888 461.356 289.418 469.254 292.762C469.782 292.982 470.024 293.598 469.804 294.126C469.65 294.522 469.276 294.764 468.858 294.764Z" fill="#212121"/>
<path d="M448.002 286.778C447.892 286.778 447.782 286.756 447.672 286.734C446.528 286.36 445.384 285.986 444.24 285.634C438.938 283.984 433.922 283.038 428.598 282.026C422.218 280.816 415.64 279.584 408.05 276.988C407.5 276.812 407.214 276.218 407.412 275.668C407.588 275.118 408.182 274.832 408.732 275.03C416.168 277.56 422.68 278.792 428.994 279.98C434.362 280.992 439.444 281.96 444.878 283.654C446.044 284.006 447.188 284.38 448.332 284.776C448.882 284.952 449.168 285.546 448.992 286.074C448.838 286.492 448.442 286.778 448.002 286.778Z" fill="#212121"/>
<path d="M408.402 275.998C413.946 286.118 413.55 294.236 407.016 300.242C404.486 299.054 390.494 294.72 389.438 294.456C379.78 292.102 363.632 284.006 365.524 277.098C365.744 276.218 366.338 275.734 367.174 275.338C365.612 274.282 364.666 273.006 365.084 271.488C365.326 270.608 365.986 270.036 366.888 269.706C366.14 268.892 365.81 268.056 366.074 266.978C366.206 266.45 366.514 266.032 366.888 265.68C366.492 265.24 366.272 264.69 366.25 264.008C366.206 259.762 375.688 259.608 382.09 260.752C384.95 260.994 384.884 256.66 384.884 256.66C386.468 260.026 390.032 263.546 394.322 267.242C394.322 267.242 394.344 267.264 394.366 267.286C398.656 270.542 403.518 274.304 408.402 275.998Z" fill="white"/>
<path d="M379.34 274.392C379.318 274.392 379.296 274.392 379.252 274.392C378.13 274.304 368.252 273.468 365.612 269.772C364.952 268.848 364.754 267.792 365.04 266.736C365.238 266.01 365.612 265.394 366.206 264.888C366.646 264.514 367.284 264.558 367.658 264.998C368.032 265.438 367.988 266.076 367.548 266.45C367.284 266.67 367.13 266.934 367.042 267.242C366.91 267.726 366.998 268.122 367.284 268.562C369.044 271.026 376.612 272.104 379.384 272.324C379.956 272.368 380.374 272.852 380.33 273.424C380.33 273.974 379.868 274.392 379.34 274.392Z" fill="#212121"/>
<path d="M377.074 279.869C377.008 279.869 376.942 279.869 376.898 279.847C375.886 279.671 366.888 277.933 364.534 274.171C363.94 273.225 363.786 272.191 364.094 271.179C364.314 270.387 364.93 269.309 366.536 268.715C367.064 268.517 367.658 268.803 367.856 269.331C368.054 269.859 367.768 270.453 367.24 270.651C366.382 270.959 366.162 271.421 366.074 271.751C365.942 272.213 366.008 272.631 366.294 273.093C367.878 275.623 374.742 277.383 377.272 277.823C377.844 277.933 378.218 278.461 378.108 279.033C377.998 279.517 377.558 279.869 377.074 279.869Z" fill="#212121"/>
<path d="M481.134 329.831C467.714 329.831 445.164 323.473 407.28 301.561L406.488 301.099C404.134 299.999 390.274 295.687 389.196 295.423C381.804 293.641 369.132 288.031 365.392 281.695C364.38 279.979 364.094 278.329 364.512 276.745C364.886 275.337 365.942 274.699 366.712 274.325C367.24 274.083 367.856 274.303 368.098 274.809C368.34 275.315 368.12 275.931 367.614 276.173C366.866 276.525 366.646 276.855 366.536 277.251C366.25 278.263 366.47 279.385 367.196 280.595C370.474 286.161 382.398 291.573 389.724 293.355C390.736 293.597 404.838 297.975 407.478 299.207L408.358 299.713C459.948 329.545 482.322 330.271 492.024 325.629C503.618 320.085 503.86 293.091 496.336 274.435C496.116 273.907 496.38 273.313 496.908 273.093C497.436 272.873 498.03 273.137 498.25 273.665C506.28 293.531 505.686 321.383 492.904 327.499C490.066 328.907 486.26 329.831 481.134 329.831Z" fill="#212121"/>
<path d="M408.402 277.033C408.292 277.033 408.182 277.011 408.05 276.967C405.828 276.175 403.364 274.855 400.482 272.941C400.482 272.941 400.46 272.941 400.46 272.919C400.438 272.897 400.394 272.875 400.372 272.853C399.03 271.775 397.732 270.719 396.456 269.729C391.902 266.121 387.854 262.931 385.39 259.477C385.148 260.049 384.818 260.599 384.334 261.017C383.63 261.633 382.728 261.875 381.738 261.721C381.716 261.721 381.716 261.721 381.694 261.721C381.672 261.721 381.672 261.721 381.65 261.721C376.568 260.863 370.012 260.929 367.9 262.733C367.482 263.107 367.284 263.503 367.284 263.987C367.284 264.383 367.416 264.691 367.658 264.977C369.44 266.979 376.348 267.111 380.286 266.715C380.88 266.671 381.364 267.067 381.408 267.639C381.474 268.211 381.056 268.717 380.484 268.761C379.34 268.871 369.176 269.751 366.118 266.341C365.546 265.703 365.216 264.889 365.216 264.009C365.194 262.909 365.656 261.919 366.558 261.149C369.704 258.443 377.734 258.949 382.002 259.675C382.024 259.675 382.024 259.675 382.046 259.675H382.068C382.596 259.741 382.838 259.609 382.992 259.455C383.718 258.839 383.85 257.167 383.85 256.617C383.85 256.133 384.18 255.715 384.642 255.605C385.104 255.495 385.61 255.737 385.808 256.177C387.7 260.159 392.342 263.833 397.732 268.101C398.986 269.091 400.306 270.125 401.626 271.203C404.354 273.029 406.686 274.261 408.732 274.987C409.26 275.185 409.546 275.779 409.37 276.307C409.216 276.769 408.82 277.033 408.402 277.033Z" fill="#212121"/>
<path d="M448.002 286.778C447.672 286.778 447.342 286.624 447.144 286.316C439.862 275.448 435.44 264.272 431.062 250.852C430.886 250.302 431.172 249.73 431.722 249.554C432.272 249.378 432.844 249.664 433.02 250.214C437.244 263.15 441.49 273.974 448.354 284.424C462.522 277.626 480.452 273.336 495.742 273.116C488.13 253.492 473.302 233.472 467.252 227.422C454.91 215.102 440.676 207.556 426.068 205.576C425.496 205.51 425.1 204.982 425.188 204.41C425.254 203.838 425.804 203.442 426.354 203.53C441.402 205.554 456.054 213.298 468.726 225.948C475.04 232.262 490.682 253.426 498.228 273.776C498.338 274.084 498.294 274.458 498.096 274.722C497.898 275.008 497.59 275.162 497.238 275.162C481.618 275.162 462.94 279.518 448.442 286.668C448.31 286.734 448.156 286.778 448.002 286.778Z" fill="#212121"/>
<path d="M397.754 234.704C397.754 236.024 396.698 237.08 395.378 237.08C394.058 237.08 393.002 236.024 393.002 234.704C393.002 233.384 394.058 232.328 395.378 232.328C396.676 232.328 397.754 233.406 397.754 234.704Z" fill="#212121"/>
<path d="M396.984 247.53C396.984 248.85 395.928 249.906 394.608 249.906C393.288 249.906 392.232 248.85 392.232 247.53C392.232 246.21 393.288 245.154 394.608 245.154C395.906 245.154 396.984 246.21 396.984 247.53Z" fill="#212121"/>
<path d="M431.7 124.066C431.7 124.066 431.37 133.416 423.076 136.76L431.7 124.066Z" fill="#212121"/>
<path d="M423.076 137.795C422.658 137.795 422.284 137.553 422.108 137.157C421.888 136.629 422.152 136.035 422.68 135.815C430.226 132.779 430.644 124.397 430.644 124.045C430.666 123.495 431.128 123.055 431.678 123.055C431.7 123.055 431.7 123.055 431.722 123.055C432.294 123.077 432.734 123.561 432.712 124.133C432.69 124.551 432.25 134.209 423.45 137.751C423.34 137.773 423.208 137.795 423.076 137.795Z" fill="white"/>
<path d="M332.612 401.816H454.932C452.05 376.054 442.26 359.18 442.26 359.18H349.046C349.046 359.158 335.494 376.054 332.612 401.816Z" fill="#212121"/>
<path d="M454.932 402.85H332.612C332.326 402.85 332.04 402.718 331.842 402.498C331.644 402.278 331.556 401.992 331.578 401.684C334.46 375.922 348.1 358.674 348.232 358.498C348.43 358.256 348.716 358.102 349.046 358.102H442.238C442.612 358.102 442.942 358.3 443.14 358.608C443.25 358.784 453.062 375.966 455.944 401.662C455.988 401.948 455.878 402.256 455.68 402.476C455.504 402.718 455.218 402.85 454.932 402.85ZM333.778 400.782H453.766C451.082 378.628 443.228 363.162 441.644 360.214H349.552C347.616 362.81 336.594 378.342 333.778 400.782Z" fill="#212121"/>
<path d="M474.798 402.849H290.526C289.954 402.849 289.492 402.387 289.492 401.815C289.492 401.243 289.954 400.781 290.526 400.781H474.798C475.37 400.781 475.832 401.243 475.832 401.815C475.832 402.387 475.37 402.849 474.798 402.849Z" fill="#212121"/>
<path d="M276.27 172.157C276.732 181.881 285.114 189.361 294.838 189.361H327.112L336.418 197.303C337.232 198.007 338.486 197.325 338.354 196.269L337.21 187.293C342.974 184.279 346.912 178.229 346.912 171.277C346.912 166.283 344.888 161.751 341.61 158.495C338.354 155.217 333.822 153.193 328.828 153.193H294.332C284.058 153.193 275.786 161.773 276.27 172.157Z" fill="#3830C9"/>
<path d="M337.188 198.624C336.682 198.624 336.176 198.448 335.758 198.096L326.738 190.396H294.838C284.322 190.396 275.72 182.41 275.236 172.202C274.994 166.922 276.864 161.906 280.494 158.078C284.146 154.25 289.052 152.16 294.332 152.16H328.828C333.932 152.16 338.728 154.14 342.336 157.77C345.944 161.378 347.946 166.174 347.946 171.278C347.946 178.164 344.272 184.456 338.332 187.866L339.388 196.138C339.498 197.062 339.058 197.92 338.244 198.36C337.914 198.536 337.562 198.624 337.188 198.624ZM294.332 154.228C289.624 154.228 285.246 156.098 281.99 159.508C278.734 162.918 277.084 167.384 277.304 172.092C277.722 181.178 285.444 188.306 294.838 188.306H327.112C327.354 188.306 327.596 188.394 327.794 188.548L337.1 196.49C337.122 196.512 337.166 196.556 337.254 196.512C337.342 196.468 337.342 196.402 337.32 196.358L336.176 187.382C336.11 186.942 336.33 186.524 336.726 186.326C342.358 183.378 345.878 177.592 345.878 171.234C345.878 166.68 344.096 162.39 340.884 159.178C337.672 155.944 333.382 154.184 328.828 154.184H294.332V154.228Z" fill="#212121"/>
<path d="M326.254 174.755C328.174 174.755 329.73 173.198 329.73 171.279C329.73 169.359 328.174 167.803 326.254 167.803C324.335 167.803 322.778 169.359 322.778 171.279C322.778 173.198 324.335 174.755 326.254 174.755Z" fill="white"/>
<path d="M311.58 174.755C313.5 174.755 315.056 173.198 315.056 171.279C315.056 169.359 313.5 167.803 311.58 167.803C309.66 167.803 308.104 169.359 308.104 171.279C308.104 173.198 309.66 174.755 311.58 174.755Z" fill="white"/>
<path d="M296.906 174.755C298.826 174.755 300.382 173.198 300.382 171.279C300.382 169.359 298.826 167.803 296.906 167.803C294.986 167.803 293.43 169.359 293.43 171.279C293.43 173.198 294.986 174.755 296.906 174.755Z" fill="white"/>
<path d="M147.592 307.26L150.386 317.842L150.54 318.414L167.898 383.952C169.394 386.218 170.89 388.462 172.408 390.706C184.222 408.24 196.718 424.256 211.194 426.39C244.304 431.274 287.116 353.416 287.116 353.416L258.868 329.128L215.836 370.29C215.836 370.29 197.51 330.756 181.67 319.272C176.786 315.73 162.2 311.44 153.708 308.844C153.576 308.8 152.806 308.602 152.674 308.58C149.088 307.48 147.592 307.26 147.592 307.26Z" fill="#E5DD00"/>
<path d="M208.466 383.952C208.378 383.952 208.312 383.952 208.224 383.93C207.674 383.798 207.322 383.226 207.454 382.676C208.444 378.584 210.93 374.316 215.044 369.63C215.418 369.19 216.078 369.168 216.496 369.542C216.914 369.916 216.958 370.576 216.584 370.994C212.69 375.416 210.358 379.398 209.456 383.16C209.346 383.622 208.928 383.952 208.466 383.952Z" fill="#212121"/>
<path d="M214.252 427.665C213.174 427.665 212.118 427.599 211.062 427.423C196.718 425.311 183.892 408.701 170.956 390.397C170.626 389.935 170.736 389.297 171.198 388.967C171.66 388.637 172.298 388.747 172.628 389.209C185.322 407.139 197.818 423.397 211.348 425.399C241.664 429.887 281.33 361.533 285.774 353.657L258.868 330.535L216.54 371.059C216.298 371.279 215.968 371.389 215.638 371.323C215.308 371.257 215.022 371.037 214.89 370.751C214.714 370.355 196.52 331.305 181.054 320.129C171.88 313.507 139.518 306.423 139.188 306.357C138.638 306.247 138.286 305.697 138.396 305.125C138.528 304.575 139.078 304.223 139.628 304.333C140.97 304.619 172.738 311.571 182.264 318.457C196.718 328.907 212.778 361.511 216.144 368.573L258.12 328.379C258.516 328.005 259.11 328.005 259.506 328.335L287.754 352.623C288.128 352.931 288.216 353.481 287.996 353.899C286.302 357.023 247.076 427.665 214.252 427.665Z" fill="#212121"/>
<path d="M189.634 348.289C205.562 379.815 209.39 483.347 209.39 483.347H94.5061C94.5061 483.347 84.1001 422.957 88.5661 387.515C79.3261 333.285 87.5321 313.903 108.806 306.951L153.004 308.645C153.004 334.451 174.696 339.687 189.634 348.289Z" fill="#E5DD00"/>
<path d="M259.154 334.363C259.154 334.385 259.176 334.385 259.176 334.385C259.418 334.957 259.726 335.529 260.078 336.145C261.882 339.247 264.94 342.855 268.812 346.243C273.3 350.181 277.898 352.953 281.418 354.075C281.572 354.119 281.748 354.163 281.902 354.229H281.924C282.166 354.295 282.43 354.361 282.65 354.427H282.672C284.608 354.823 286.126 354.625 286.918 353.701C287.358 353.173 287.534 352.403 287.446 351.501C287.446 351.347 287.446 351.193 287.402 351.039C287.292 350.423 287.116 349.763 286.83 349.037C285.422 345.517 281.858 340.875 276.952 336.563C272.684 332.845 268.328 330.161 264.896 328.929C263.73 328.511 262.674 328.269 261.75 328.203L261.684 328.181C260.43 328.115 259.462 328.401 258.89 329.105C257.944 330.183 258.12 332.053 259.154 334.363Z" fill="#212121"/>
<path d="M284.366 355.659C283.816 355.659 283.156 355.593 282.43 355.439C282.21 355.373 282.1 355.351 282.012 355.329C281.902 355.307 281.77 355.263 281.66 355.241C281.638 355.241 281.616 355.219 281.594 355.219L281.11 355.065C277.282 353.855 272.574 350.907 268.13 347.013C264.28 343.647 261.112 339.973 259.176 336.651C258.824 336.035 258.516 335.441 258.252 334.869C258.23 334.847 258.208 334.803 258.208 334.759C256.602 331.239 257.24 329.391 258.032 328.445C258.582 327.807 259.638 327.059 261.684 327.169C261.706 327.169 261.816 327.191 261.86 327.191C262.784 327.235 263.928 327.499 265.204 327.961C268.856 329.259 273.388 332.097 277.59 335.771C282.43 340.039 286.236 344.835 287.754 348.641C288.062 349.367 288.26 350.115 288.392 350.841C288.436 351.039 288.436 351.259 288.436 351.457C288.546 352.601 288.282 353.635 287.666 354.361C287.138 354.999 286.148 355.659 284.366 355.659ZM282.892 353.415C284.498 353.723 285.62 353.591 286.104 353.019C286.346 352.733 286.456 352.227 286.39 351.589C286.39 351.413 286.39 351.303 286.368 351.193C286.258 350.599 286.104 350.005 285.84 349.411C284.432 345.891 280.846 341.381 276.226 337.333C272.2 333.835 267.932 331.107 264.5 329.897C263.4 329.501 262.432 329.281 261.618 329.237C261.596 329.237 261.486 329.215 261.464 329.215C260.914 329.193 260.034 329.259 259.594 329.765C259.022 330.447 259.176 331.921 260.034 333.835C260.056 333.879 260.078 333.901 260.1 333.945C260.342 334.473 260.628 335.023 260.958 335.595C262.784 338.719 265.798 342.217 269.472 345.451C273.696 349.169 278.162 351.941 281.704 353.085L282.122 353.217C282.144 353.217 282.166 353.217 282.166 353.239C282.276 353.261 282.386 353.305 282.474 353.327C282.65 353.349 282.782 353.393 282.892 353.415Z" fill="#212121"/>
<path d="M284.366 355.659C283.816 355.659 283.156 355.593 282.43 355.439C282.21 355.373 282.1 355.351 282.012 355.329C281.902 355.307 281.77 355.263 281.66 355.241C281.638 355.241 281.616 355.219 281.594 355.219L281.11 355.065C277.282 353.855 272.574 350.907 268.13 347.013C264.28 343.647 261.112 339.973 259.176 336.651C258.824 336.035 258.516 335.441 258.252 334.869C258.23 334.847 258.208 334.803 258.208 334.759C256.602 331.239 257.24 329.391 258.032 328.445C258.406 328.005 259.044 327.961 259.484 328.335C259.924 328.709 259.968 329.347 259.594 329.787C259.022 330.469 259.176 331.943 260.034 333.835C260.056 333.879 260.078 333.901 260.1 333.945C260.342 334.473 260.628 335.023 260.958 335.595C262.784 338.719 265.798 342.217 269.472 345.451C273.696 349.169 278.162 351.941 281.704 353.085L282.122 353.217C282.144 353.217 282.166 353.217 282.166 353.239C282.276 353.261 282.386 353.305 282.474 353.327C282.606 353.349 282.716 353.393 282.848 353.437C284.454 353.745 285.576 353.613 286.06 353.041C286.434 352.601 287.094 352.557 287.512 352.931C287.952 353.305 287.996 353.965 287.622 354.383C287.138 354.999 286.148 355.659 284.366 355.659Z" fill="#212121"/>
<path d="M315.012 334.538C314 336.056 311.602 337.178 309.952 337.948C301.57 341.886 293.914 342.436 286.522 346.792C284.256 348.134 282.452 350.114 281.264 352.468C281.044 352.886 280.824 353.348 280.582 353.788C277.194 352.534 272.97 349.894 268.834 346.264C264.962 342.876 261.904 339.246 260.1 336.166C259.77 335.572 259.484 335.022 259.242 334.472C261.068 332.668 263.004 330.974 264.94 329.258C275.83 319.732 279.306 308.6 285.576 302.352C286.39 301.56 287.226 300.768 288.26 300.284C289.294 299.822 290.548 299.734 291.538 300.328C293.32 301.428 293.21 304.024 292.704 306.048C292 308.864 290.922 311.592 289.536 314.144L311.844 329.016C313.164 328.928 314.484 329.654 315.144 330.798C315.804 331.942 315.738 333.438 315.012 334.538Z" fill="white"/>
<path d="M280.56 354.756C280.406 354.756 280.252 354.712 280.12 354.646C279.614 354.382 279.394 353.81 279.658 353.304L279.702 353.216L280.318 352.006C281.616 349.432 283.574 347.32 285.972 345.912C290.152 343.448 294.332 342.194 298.754 340.874C302.23 339.84 305.816 338.762 309.49 337.024C311.03 336.298 313.296 335.242 314.132 333.988C314.638 333.218 314.682 332.118 314.22 331.326C313.758 330.534 312.834 330.006 311.866 330.072C311.316 330.116 310.81 329.676 310.766 329.104C310.722 328.532 311.162 328.048 311.734 328.004C313.406 327.916 315.144 328.818 316.002 330.292C316.86 331.766 316.794 333.724 315.848 335.132C314.682 336.87 312.218 338.036 310.414 338.872C306.542 340.698 302.868 341.798 299.348 342.854C295.058 344.152 290.988 345.362 287.028 347.694C284.96 348.904 283.288 350.708 282.166 352.93L281.528 354.162C281.352 354.514 280.956 354.756 280.56 354.756ZM282.012 335.528C281.594 335.528 281.22 335.286 281.044 334.868C280.824 334.34 281.088 333.746 281.616 333.526C284.102 332.536 286.06 330.314 286.72 327.718C287.38 325.122 286.72 322.24 285.026 320.194C284.696 319.82 284.696 319.248 285.026 318.874C288.172 315.068 290.482 310.536 291.67 305.762C291.934 304.684 292.418 302.066 290.966 301.186C290.262 300.746 289.316 300.922 288.656 301.208C287.754 301.604 286.984 302.352 286.258 303.056C283.772 305.52 281.748 308.776 279.416 312.538C276.006 318.038 272.134 324.264 265.578 329.984C263.532 331.788 261.684 333.394 259.924 335.154C259.528 335.55 258.868 335.55 258.472 335.154C258.076 334.758 258.076 334.098 258.472 333.702C260.276 331.92 262.146 330.27 264.214 328.444C270.528 322.922 274.312 316.828 277.656 311.46C279.966 307.742 282.144 304.244 284.806 301.582C285.664 300.724 286.61 299.844 287.798 299.316C289.25 298.656 290.834 298.678 292.022 299.404C293.892 300.548 294.464 302.99 293.65 306.246C292.44 311.064 290.174 315.64 287.094 319.534C288.832 322.02 289.448 325.254 288.7 328.202C287.864 331.414 285.444 334.186 282.364 335.418C282.276 335.506 282.144 335.528 282.012 335.528Z" fill="#212121"/>
<path d="M300.338 333.153C305.31 333.241 310.282 331.811 314.462 329.127C315.43 328.511 316.376 327.785 317.058 326.861C317.74 325.937 318.136 324.749 317.916 323.605C317.696 322.505 316.882 321.537 315.826 321.141C314.77 320.745 313.516 320.943 312.636 321.647C309.358 320.481 305.552 320.855 302.494 322.527" fill="white"/>
<path d="M300.756 334.187C300.602 334.187 300.47 334.187 300.338 334.187C299.766 334.187 299.304 333.703 299.326 333.131C299.326 332.559 299.766 332.075 300.382 332.119C305.112 332.207 309.93 330.821 313.912 328.247C314.704 327.741 315.606 327.103 316.222 326.245C316.794 325.453 317.058 324.573 316.904 323.803C316.75 323.055 316.178 322.373 315.474 322.109C314.77 321.845 313.89 321.977 313.274 322.461C312.988 322.681 312.614 322.747 312.284 322.637C309.336 321.581 305.86 321.889 302.978 323.451C302.472 323.715 301.856 323.539 301.57 323.033C301.306 322.527 301.482 321.911 301.988 321.625C305.2 319.865 309.072 319.469 312.46 320.503C313.56 319.865 314.968 319.711 316.178 320.151C317.564 320.657 318.642 321.933 318.928 323.385C319.192 324.705 318.796 326.179 317.894 327.433C317.08 328.555 315.936 329.369 315.034 329.963C310.81 332.713 305.772 334.187 300.756 334.187Z" fill="#212121"/>
<path d="M297.94 326.839C303.33 325.981 308.61 324.375 313.582 322.109C314.418 321.735 315.254 321.317 315.958 320.723C316.662 320.129 317.234 319.315 317.366 318.413C317.608 316.697 316.222 315.069 314.594 314.453C312.966 313.837 311.426 314.321 309.292 314.871C307.906 315.245 306.454 314.695 305.046 314.387C303.638 314.101 302.186 313.837 300.778 314.079C299.37 314.321 297.962 315.113 297.368 316.433" fill="white"/>
<path d="M297.94 327.874C297.434 327.874 296.994 327.522 296.928 326.994C296.84 326.422 297.214 325.894 297.786 325.806C303.11 324.948 308.28 323.386 313.164 321.142C313.912 320.79 314.704 320.416 315.32 319.91C315.914 319.404 316.288 318.81 316.376 318.238C316.552 317.028 315.452 315.84 314.264 315.378C313.054 314.916 311.844 315.246 310.018 315.73L309.6 315.84C308.258 316.192 306.916 315.862 305.75 315.576C305.464 315.51 305.178 315.444 304.892 315.378C303.616 315.114 302.252 314.872 300.998 315.07C300.03 315.224 298.842 315.774 298.358 316.808C298.116 317.336 297.522 317.556 296.994 317.336C296.466 317.094 296.246 316.5 296.466 315.972C297.148 314.454 298.71 313.354 300.646 313.024C302.252 312.76 303.836 313.046 305.288 313.354C305.596 313.42 305.904 313.486 306.212 313.574C307.246 313.816 308.214 314.058 309.05 313.838L309.468 313.728C311.448 313.2 313.142 312.76 314.968 313.442C316.882 314.168 318.73 316.192 318.4 318.524C318.246 319.602 317.608 320.658 316.64 321.472C315.826 322.154 314.902 322.594 314.022 323.012C308.962 325.322 303.594 326.95 298.116 327.83C298.05 327.874 297.984 327.874 297.94 327.874Z" fill="#212121"/>
<path d="M294.794 320.129C299.634 319.359 304.364 317.929 308.83 315.883C309.578 315.531 310.326 315.179 310.964 314.651C311.602 314.123 312.108 313.397 312.218 312.583C312.438 311.043 311.206 309.569 309.732 309.019C308.258 308.469 306.498 308.711 304.584 309.217C298.886 310.713 293.65 312.341 288.964 315.069" fill="white"/>
<path d="M294.794 321.164C294.288 321.164 293.848 320.812 293.782 320.284C293.694 319.712 294.068 319.184 294.64 319.096C299.392 318.326 304.034 316.94 308.412 314.938C309.116 314.63 309.776 314.3 310.304 313.838C310.81 313.398 311.14 312.892 311.206 312.408C311.36 311.374 310.392 310.34 309.38 309.966C308.06 309.46 306.278 309.834 304.848 310.186C299.678 311.528 294.244 313.178 289.47 315.928C288.986 316.214 288.348 316.038 288.062 315.554C287.776 315.07 287.952 314.432 288.436 314.146C293.408 311.264 299.018 309.57 304.32 308.184C306.146 307.7 308.236 307.326 310.106 308.03C311.866 308.69 313.56 310.56 313.252 312.716C313.098 313.706 312.526 314.674 311.646 315.422C310.92 316.038 310.062 316.456 309.27 316.808C304.716 318.876 299.898 320.35 294.97 321.142C294.904 321.164 294.838 321.164 294.794 321.164Z" fill="#212121"/>
<path d="M285.818 319.535C289.074 315.619 291.428 310.955 292.682 306.005C293.188 303.981 293.298 301.385 291.516 300.285C290.548 299.691 289.272 299.779 288.238 300.241C287.204 300.703 286.346 301.495 285.554 302.309C279.284 308.557 275.808 319.689 264.918 329.215" fill="white"/>
<path d="M264.918 330.272C264.632 330.272 264.346 330.162 264.148 329.92C263.774 329.48 263.818 328.842 264.236 328.468C270.55 322.946 274.334 316.852 277.678 311.484C279.988 307.766 282.166 304.246 284.828 301.606C285.686 300.748 286.632 299.868 287.82 299.34C289.294 298.68 290.878 298.724 292.066 299.428C293.914 300.55 294.508 303.058 293.694 306.27C292.418 311.352 289.976 316.17 286.632 320.196C286.258 320.636 285.62 320.702 285.18 320.328C284.74 319.954 284.674 319.316 285.048 318.876C288.194 315.07 290.504 310.538 291.692 305.764C291.912 304.928 292.484 302.09 290.988 301.188C290.284 300.748 289.338 300.924 288.678 301.21C287.798 301.606 287.05 302.31 286.302 303.058C283.816 305.522 281.792 308.8 279.438 312.562C276.028 318.062 272.156 324.288 265.6 330.008C265.402 330.184 265.16 330.272 264.918 330.272Z" fill="#212121"/>
<path d="M284.366 355.659C283.816 355.659 283.178 355.593 282.452 355.439C282.408 355.439 282.342 355.417 282.298 355.395C282.21 355.373 282.1 355.329 282.012 355.307C281.88 355.263 281.726 355.241 281.594 355.197C281.374 355.131 281.22 355.087 281.066 355.043C280.824 354.977 280.538 354.867 280.23 354.757C276.534 353.371 272.244 350.643 268.13 347.035C264.302 343.691 261.134 340.017 259.176 336.673C258.802 336.013 258.516 335.441 258.274 334.913C258.252 334.869 258.23 334.847 258.23 334.803C256.624 331.283 257.24 329.435 258.054 328.489C258.604 327.851 259.682 327.125 261.706 327.213C261.728 327.213 261.838 327.235 261.882 327.235C262.454 327.323 262.828 327.851 262.762 328.401C262.674 328.973 262.146 329.347 261.596 329.281C260.958 329.237 260.078 329.303 259.66 329.831C259.088 330.491 259.264 332.009 260.1 333.901C260.122 333.923 260.122 333.945 260.144 333.967C260.166 334.011 260.21 334.099 260.232 334.143C260.43 334.561 260.694 335.067 261.024 335.661C262.85 338.807 265.886 342.305 269.538 345.495C273.41 348.883 277.568 351.567 280.978 352.843C281.264 352.953 281.528 353.041 281.77 353.129C281.946 353.195 282.078 353.239 282.21 353.261C282.364 353.305 282.474 353.327 282.562 353.349C282.694 353.371 282.804 353.415 282.936 353.459C284.52 353.767 285.664 353.613 286.148 353.063C286.39 352.777 286.5 352.249 286.434 351.633C286.434 351.413 286.412 351.325 286.412 351.215C286.346 350.643 286.742 350.137 287.292 350.049C287.864 349.983 288.37 350.379 288.458 350.929C288.48 351.127 288.502 351.347 288.502 351.545C288.612 352.645 288.348 353.679 287.732 354.405C287.138 354.999 286.148 355.659 284.366 355.659ZM209.39 484.359H94.506C94 484.359 93.582 484.007 93.494 483.501C93.384 482.907 83.132 422.737 87.51 387.515C78.842 336.585 84.738 313.705 108.476 305.939C108.586 305.895 108.718 305.873 108.828 305.895L153.026 307.589C153.598 307.611 154.038 308.095 154.016 308.667C153.994 309.239 153.466 309.679 152.938 309.657L108.916 307.963C90.216 314.145 79.81 330.095 89.556 387.317C89.578 387.427 89.578 387.515 89.556 387.625C85.442 420.251 94.11 474.811 95.364 482.291H208.29C207.828 471.203 203.45 378.011 188.688 348.751C188.424 348.245 188.644 347.629 189.15 347.365C189.656 347.101 190.272 347.321 190.536 347.827C206.376 379.199 210.248 479.057 210.402 483.303C210.402 483.589 210.314 483.853 210.116 484.051C209.94 484.249 209.676 484.359 209.39 484.359Z" fill="#212121"/>
<path d="M108.806 306.93C108.806 306.93 82.7577 308.184 70.7897 335.398C59.8997 360.17 51.7377 426.5 71.8237 445.926C86.2117 459.83 156.106 449.666 156.106 449.666L166.732 415.016C151.112 411.914 128.496 409.626 111.864 408.108C114.636 389.188 115.186 369.366 113.536 348.642" fill="#E5DD00"/>
<path d="M108.63 454.307C92.5919 454.307 77.2139 452.569 71.1199 446.673C51.0559 427.269 58.4919 360.829 69.8439 334.979C81.9219 307.501 108.476 305.917 108.74 305.895C109.29 305.873 109.796 306.313 109.818 306.885C109.84 307.457 109.4 307.941 108.828 307.963C108.564 307.985 83.2639 309.547 71.7139 335.815C60.5379 361.225 53.0359 426.345 72.5279 445.177C85.6619 457.871 148.23 449.687 155.314 448.719L165.412 415.807C149.682 412.793 127.352 410.571 111.776 409.141C111.49 409.119 111.226 408.965 111.05 408.745C110.874 408.525 110.808 408.239 110.83 407.953C113.58 389.297 114.13 369.365 112.502 348.729C112.458 348.157 112.876 347.673 113.448 347.607C113.998 347.563 114.504 347.981 114.57 348.553C116.198 368.969 115.67 388.681 113.052 407.161C129.002 408.635 151.442 410.901 166.952 413.981C167.238 414.047 167.48 414.223 167.634 414.465C167.788 414.707 167.81 415.015 167.744 415.301L157.118 449.951C157.008 450.325 156.678 450.611 156.282 450.677C154.61 450.919 130.96 454.307 108.63 454.307Z" fill="#212121"/>
<path d="M108.63 454.307C92.5919 454.307 77.2139 452.569 71.1199 446.673C51.0559 427.269 58.4919 360.829 69.8439 334.979C81.9219 307.501 108.476 305.917 108.74 305.895C109.29 305.873 109.796 306.313 109.818 306.885C109.84 307.457 109.4 307.941 108.828 307.963C108.564 307.985 83.2639 309.547 71.7139 335.815C60.5379 361.225 53.0359 426.345 72.5279 445.177C85.6619 457.871 148.23 449.687 155.314 448.719L165.412 415.807C149.682 412.793 127.352 410.571 111.776 409.141C111.49 409.119 111.226 408.965 111.05 408.745C110.874 408.525 110.808 408.239 110.83 407.953C113.58 389.297 114.13 369.365 112.502 348.729C112.458 348.157 112.876 347.673 113.448 347.607C113.998 347.563 114.504 347.981 114.57 348.553C116.198 368.969 115.67 388.681 113.052 407.161C129.002 408.635 151.442 410.901 166.952 413.981C167.238 414.047 167.48 414.223 167.634 414.465C167.788 414.707 167.81 415.015 167.744 415.301L157.118 449.951C157.008 450.325 156.678 450.611 156.282 450.677C154.61 450.919 130.96 454.307 108.63 454.307Z" fill="#212121"/>
<path d="M102.624 420.692C102.206 420.692 101.832 420.45 101.656 420.032C101.458 419.504 101.722 418.91 102.25 418.69C109.84 415.72 110.852 408.042 110.874 407.976C110.94 407.404 111.446 407.008 112.018 407.074C112.59 407.14 112.986 407.668 112.92 408.218C112.876 408.592 111.71 417.216 102.998 420.604C102.866 420.67 102.734 420.692 102.624 420.692ZM170.098 420.56C170.23 424.146 169.35 429.074 167.48 434.288C165.874 438.754 163.85 442.604 161.804 445.332C161.078 446.3 160.352 447.136 159.648 447.774C159.12 448.302 158.57 448.72 158.042 449.028C157.91 449.116 157.756 449.182 157.624 449.226C156.832 449.622 156.062 449.754 155.424 449.534C154.302 449.138 153.554 447.84 153.224 445.926V445.904C153.202 445.662 153.158 445.42 153.158 445.156V445.134C153.136 444.98 153.136 444.804 153.114 444.65C153.07 443.924 153.07 443.154 153.114 442.296C153.268 438.952 154.148 434.75 155.732 430.328C157.382 425.686 159.56 421.66 161.672 418.91L161.804 418.734C162.244 418.206 162.662 417.722 163.08 417.282C163.102 417.282 163.08 417.26 163.102 417.26C164.818 415.478 166.468 414.642 167.744 415.082C168.58 415.368 169.196 416.138 169.57 417.304L169.592 417.37C169.702 417.744 169.812 418.14 169.878 418.58C169.878 418.602 169.878 418.602 169.878 418.602C170.01 419.24 170.076 419.878 170.098 420.56Z" fill="#212121"/>
<path d="M156.128 450.698C155.776 450.698 155.424 450.632 155.116 450.522C154.104 450.17 152.784 449.114 152.234 446.122C152.234 446.078 152.212 446.034 152.212 445.99C152.212 445.88 152.19 445.792 152.19 445.682C152.168 445.55 152.168 445.396 152.146 445.264L152.102 444.824C152.036 443.988 152.036 443.152 152.102 442.294C152.256 438.752 153.224 434.396 154.786 430.04C156.414 425.464 158.592 421.306 160.88 418.336L161.034 418.16C161.496 417.61 161.914 417.104 162.354 416.664C162.376 416.642 162.398 416.62 162.398 416.598C165.038 413.87 166.974 413.76 168.118 414.178C168.888 414.442 169.966 415.146 170.604 417.06C170.758 417.566 170.868 418.006 170.956 418.49C171.066 419.172 171.132 419.854 171.154 420.558C171.286 424.342 170.318 429.49 168.492 434.682C166.908 439.06 164.84 443.064 162.684 445.99C161.848 447.09 161.1 447.948 160.396 448.586C159.846 449.114 159.252 449.576 158.636 449.972C158.416 450.082 158.24 450.17 158.064 450.236C157.404 450.522 156.744 450.698 156.128 450.698ZM154.28 445.792C154.566 447.332 155.116 448.322 155.798 448.564C156.15 448.674 156.634 448.586 157.184 448.3C157.36 448.234 157.47 448.168 157.558 448.124C158.02 447.838 158.504 447.464 158.944 447.046C159.56 446.474 160.242 445.704 161.012 444.714C163.058 441.964 165.016 438.136 166.534 433.956C168.294 429.006 169.218 424.144 169.086 420.602C169.086 420.602 169.086 420.602 169.086 420.58C169.064 419.986 169.02 419.37 168.932 418.842C168.866 418.424 168.778 418.072 168.668 417.742C168.448 417.082 168.074 416.312 167.48 416.114C166.666 415.828 165.346 416.532 163.938 417.984C163.916 418.006 163.894 418.028 163.894 418.05C163.498 418.468 163.08 418.93 162.662 419.436L162.53 419.59C160.374 422.384 158.306 426.344 156.744 430.722C155.248 434.88 154.346 439.038 154.192 442.382C154.148 443.174 154.148 443.9 154.192 444.604L154.236 445.044C154.258 445.22 154.258 445.33 154.28 445.418C154.258 445.572 154.258 445.682 154.28 445.792Z" fill="#212121"/>
<path d="M205.1 443.814C201.58 443.946 197.4 441.35 194.034 438.424C194.914 439.282 195.728 440.206 195.992 441.306C196.476 443.374 195.354 445.728 193.44 446.652C192.604 447.07 191.68 447.202 190.778 447.07C190.8 447.114 190.778 447.136 190.8 447.158C191.108 449.27 189.81 451.514 187.83 452.306C186.51 452.834 184.97 452.68 183.738 451.998C183.76 452.174 183.782 452.35 183.782 452.548C183.826 453.956 183.188 455.298 182.286 456.376C180.218 458.862 176.852 459.28 173.662 458.73C170.472 458.18 167.502 456.816 165.654 454.176C164.796 452.966 164.136 451.338 164.818 450.04C165.39 448.94 167.018 448.412 168.536 448.434C167.348 447.708 164.642 446.498 161.804 445.354C158.438 443.99 154.83 442.714 153.114 442.362C153.268 439.018 154.148 434.816 155.732 430.394C157.382 425.752 159.56 421.726 161.672 418.976C161.672 418.976 165.148 418.624 169.9 418.668C175.774 418.734 183.606 419.35 189.26 421.99C201.25 427.534 204.88 431.714 207.938 438.666C208.928 440.844 207.96 443.704 205.1 443.814Z" fill="white"/>
<path d="M191.394 448.169C191.13 448.169 190.888 448.147 190.624 448.125C190.052 448.059 189.656 447.531 189.722 446.959C189.788 446.387 190.316 445.991 190.888 446.057C191.636 446.145 192.34 446.035 192.978 445.727C194.474 445.001 195.354 443.153 194.98 441.525C194.738 440.491 193.748 439.545 192.78 438.643C192.538 438.423 192.318 438.203 192.098 437.983C191.328 437.235 190.602 436.597 189.832 435.937C188.556 434.859 187.258 433.737 185.85 432.043C185.476 431.603 185.542 430.943 185.982 430.591C186.422 430.217 187.06 430.283 187.434 430.723C188.732 432.285 189.92 433.297 191.174 434.375C191.944 435.035 192.736 435.717 193.55 436.509C193.748 436.707 193.968 436.927 194.188 437.125C195.31 438.181 196.608 439.391 196.982 441.041C197.576 443.593 196.234 446.409 193.88 447.553C193.11 447.971 192.274 448.169 191.394 448.169Z" fill="#212121"/>
<path d="M186.136 453.669C185.146 453.669 184.134 453.427 183.232 452.921C182.726 452.657 182.55 452.019 182.814 451.513C183.078 451.007 183.716 450.831 184.222 451.095C185.234 451.645 186.444 451.733 187.434 451.359C188.974 450.743 190.008 448.983 189.766 447.333C189.612 446.277 188.688 445.265 187.808 444.297C187.588 444.055 187.368 443.813 187.17 443.593C186.466 442.779 185.784 442.097 185.08 441.371C183.892 440.183 182.682 438.973 181.406 437.169C181.076 436.707 181.186 436.069 181.648 435.739C182.11 435.409 182.748 435.519 183.078 435.981C184.244 437.631 185.344 438.731 186.51 439.897C187.236 440.623 187.962 441.349 188.71 442.229C188.908 442.449 189.106 442.669 189.304 442.889C190.338 444.033 191.526 445.353 191.79 447.025C192.186 449.621 190.624 452.305 188.182 453.273C187.544 453.559 186.84 453.669 186.136 453.669Z" fill="#212121"/>
<path d="M176.016 459.983C175.202 459.983 174.366 459.917 173.486 459.763C169.614 459.103 166.622 457.365 164.818 454.769C163.476 452.877 163.168 451.029 163.916 449.555C164.246 448.917 164.796 448.411 165.522 448.037C164.378 447.509 162.97 446.915 161.43 446.299C157.778 444.825 154.434 443.659 152.916 443.351C152.366 443.241 151.992 442.691 152.102 442.141C152.212 441.591 152.762 441.217 153.312 441.327C155.292 441.723 159.186 443.153 162.178 444.385C165.324 445.661 167.898 446.849 169.064 447.553C169.46 447.795 169.636 448.257 169.526 448.719C169.394 449.159 168.998 449.467 168.536 449.467C167.194 449.467 166.028 449.907 165.72 450.523C165.192 451.557 166.072 453.031 166.49 453.603C168.008 455.781 170.472 457.167 173.816 457.739C176.214 458.135 179.492 458.113 181.472 455.737C182.308 454.747 182.748 453.625 182.726 452.591C182.682 451.249 181.89 449.885 180.174 448.213C179.932 447.993 179.712 447.773 179.47 447.531C178.194 446.321 176.852 445.089 176.082 443.373C175.84 442.845 176.082 442.251 176.588 442.009C177.116 441.767 177.71 442.009 177.952 442.515C178.546 443.857 179.69 444.913 180.878 446.013C181.12 446.255 181.384 446.475 181.626 446.717C182.946 448.015 184.728 450.017 184.794 452.525C184.816 454.065 184.2 455.671 183.056 457.035C181.472 458.971 179.008 459.983 176.016 459.983ZM204.814 444.847C200.7 444.847 196.278 441.745 193.264 439.105C192.824 438.731 192.802 438.071 193.176 437.653C193.55 437.213 194.21 437.191 194.628 437.565C198.61 441.041 202.284 442.889 205.078 442.801C205.914 442.779 206.552 442.427 206.926 441.811C207.388 441.063 207.432 439.985 207.036 439.061C204.308 432.857 197.51 426.829 188.864 422.913C183.298 420.383 175.488 419.789 169.922 419.701C165.28 419.657 161.826 419.987 161.804 419.987C161.254 420.031 160.726 419.635 160.682 419.063C160.638 418.491 161.034 417.985 161.606 417.941C161.76 417.919 165.214 417.589 169.966 417.655C175.73 417.721 183.826 418.359 189.722 421.043C198.94 425.223 205.936 431.493 208.928 438.225C209.61 439.787 209.522 441.569 208.686 442.889C207.938 444.099 206.684 444.781 205.166 444.847C205.012 444.847 204.924 444.847 204.814 444.847Z" fill="#212121"/>
<path d="M175.136 453.03C174.828 453.03 174.52 452.898 174.3 452.612C172.188 449.796 168.492 449.444 168.47 449.444C167.898 449.4 167.48 448.894 167.524 448.322C167.568 447.75 168.052 447.332 168.624 447.376C168.822 447.398 173.266 447.772 175.95 451.358C176.302 451.82 176.192 452.458 175.752 452.81C175.576 452.964 175.356 453.03 175.136 453.03ZM156.128 450.698C155.776 450.698 155.424 450.632 155.116 450.522C154.104 450.17 152.784 449.114 152.234 446.122C152.234 446.078 152.212 446.034 152.212 445.99C152.212 445.88 152.19 445.792 152.19 445.682C152.168 445.55 152.168 445.396 152.146 445.264L152.102 444.824C152.036 443.988 152.036 443.152 152.102 442.294C152.256 438.752 153.224 434.396 154.786 430.04C156.414 425.464 158.592 421.306 160.88 418.336L161.034 418.16C161.496 417.61 161.914 417.104 162.354 416.664C162.376 416.642 162.398 416.62 162.398 416.598C165.038 413.87 166.974 413.76 168.118 414.178C168.668 414.354 168.954 414.948 168.756 415.498C168.558 416.048 167.986 416.334 167.436 416.136C166.622 415.872 165.324 416.554 163.894 418.028C163.872 418.05 163.85 418.072 163.85 418.094C163.454 418.512 163.036 418.974 162.618 419.48L162.486 419.634C160.33 422.428 158.262 426.388 156.7 430.766C155.204 434.924 154.302 439.082 154.148 442.426C154.104 443.218 154.104 443.944 154.148 444.648L154.192 445.088C154.214 445.264 154.214 445.374 154.236 445.462C154.258 445.594 154.258 445.704 154.28 445.814C154.566 447.354 155.116 448.344 155.798 448.586C156.15 448.696 156.634 448.608 157.184 448.322C157.36 448.256 157.47 448.19 157.558 448.146C158.064 447.86 158.68 448.036 158.966 448.542C159.252 449.048 159.076 449.664 158.57 449.95C158.394 450.06 158.196 450.126 158.042 450.214C157.404 450.522 156.744 450.698 156.128 450.698Z" fill="#212121"/>
<path d="M167.48 242.138C170.054 242.666 171.616 245.68 171.066 248.232C170.516 250.806 168.25 252.764 165.742 253.556C163.234 254.348 160.528 254.106 157.954 253.512L155.556 256.108C152.674 257.846 149.792 259.584 146.91 261.322C143.236 263.544 139.518 265.81 136.526 268.912C130.586 275.072 128.078 284.73 130.388 292.958C126.78 293.728 122.996 292.32 120.114 290.032C117.232 287.744 115.098 284.664 113.096 281.562C108.52 274.522 104.318 267.262 100.49 259.826C98.6639 256.24 96.8819 252.588 96.1779 248.628C95.4519 244.69 95.8699 240.378 98.1139 237.056C99.1259 235.56 100.49 234.306 101.524 232.81C102.558 231.336 103.284 229.444 102.778 227.706C102.272 225.99 100.644 224.582 100.732 222.778C100.82 220.6 103.306 219.412 105.462 218.994C109.642 218.18 113.822 218.312 117.87 219.654C115.912 219.082 115.296 216.398 116.242 214.616C117.188 212.834 119.168 211.844 121.126 211.272C127.132 209.49 134.172 210.26 139.276 213.912C138.924 211.492 141.212 209.49 143.478 208.544C147.878 206.674 153.07 206.85 157.338 208.984C161.606 211.118 164.884 215.76 164.884 220.27C171.176 218.488 177.336 224.692 177.644 230.412C177.974 236.11 173.178 241.632 167.48 242.138Z" fill="#212121"/>
<path d="M128.364 294.191C125.394 294.191 122.27 293.025 119.498 290.825C116.506 288.449 114.372 285.347 112.26 282.113C107.728 275.139 103.46 267.791 99.5878 260.267C97.6958 256.549 95.9138 252.875 95.1658 248.783C94.3078 244.097 95.0338 239.719 97.2558 236.441C97.8058 235.627 98.4438 234.879 99.0818 234.153C99.6538 233.493 100.204 232.855 100.688 232.173C101.304 231.293 102.272 229.577 101.81 227.927C101.656 227.355 101.304 226.783 100.952 226.189C100.358 225.177 99.6758 224.033 99.7418 222.669C99.8518 219.941 102.69 218.423 105.308 217.917C108.652 217.257 111.908 217.213 114.988 217.785C114.636 216.553 114.768 215.167 115.362 214.067C116.286 212.307 118.156 211.009 120.862 210.217C126.846 208.435 133.424 209.161 138.418 212.065C139.056 209.953 141.146 208.347 143.082 207.533C147.746 205.531 153.268 205.707 157.822 207.995C162.178 210.173 165.346 214.551 165.852 218.951C168.36 218.599 170.956 219.303 173.266 220.953C176.368 223.175 178.502 226.849 178.7 230.303C178.986 235.649 175.268 240.775 170.318 242.535C170.626 242.821 170.89 243.173 171.132 243.547C172.078 244.999 172.43 246.825 172.078 248.431C171.484 251.181 169.13 253.557 166.072 254.525C163.872 255.207 161.342 255.251 158.35 254.613L156.37 256.769C156.304 256.835 156.216 256.901 156.15 256.945L147.504 262.159C143.918 264.315 140.222 266.559 137.34 269.573C131.62 275.513 129.244 284.775 131.444 292.629C131.51 292.893 131.488 293.201 131.334 293.443C131.18 293.685 130.938 293.861 130.674 293.927C129.904 294.125 129.134 294.191 128.364 294.191ZM110.588 219.501C108.982 219.501 107.354 219.655 105.704 219.985C103.944 220.315 101.876 221.261 101.81 222.801C101.766 223.571 102.228 224.319 102.734 225.177C103.152 225.859 103.57 226.585 103.812 227.399C104.34 229.225 103.834 231.359 102.404 233.383C101.876 234.153 101.26 234.857 100.666 235.539C100.05 236.243 99.4778 236.903 98.9938 237.629C97.0798 240.445 96.4418 244.295 97.2118 248.431C97.9158 252.237 99.6098 255.757 101.436 259.343C105.264 266.801 109.488 274.083 113.998 280.991C116 284.071 118.024 287.019 120.774 289.197C123.414 291.287 126.406 292.299 129.112 292.079C127.242 283.785 129.86 274.325 135.8 268.165C138.858 264.975 142.686 262.643 146.382 260.421L154.896 255.295L157.184 252.809C157.426 252.545 157.822 252.413 158.174 252.501C161.056 253.161 163.432 253.205 165.412 252.567C167.788 251.819 169.592 250.037 170.032 248.013C170.274 246.913 170.032 245.681 169.372 244.691C168.844 243.855 168.074 243.305 167.238 243.151C166.732 243.041 166.38 242.601 166.424 242.073C166.446 241.567 166.864 241.149 167.37 241.105C172.496 240.665 176.896 235.583 176.632 230.457C176.478 227.619 174.696 224.561 172.078 222.691C169.9 221.129 167.436 220.623 165.192 221.261C164.884 221.349 164.554 221.283 164.29 221.085C164.026 220.887 163.872 220.579 163.872 220.271C163.872 216.289 160.946 211.933 156.898 209.909C152.872 207.885 148.01 207.753 143.896 209.491C141.938 210.327 140.068 211.977 140.332 213.781C140.398 214.199 140.2 214.595 139.848 214.815C139.496 215.035 139.034 215.013 138.704 214.771C134.084 211.449 127.462 210.503 121.456 212.285C119.3 212.923 117.87 213.869 117.188 215.123C116.792 215.849 116.748 216.817 117.078 217.609C117.232 217.961 117.518 218.423 118.046 218.643C118.112 218.665 118.156 218.687 118.222 218.709C118.75 218.885 119.036 219.457 118.882 220.007C118.706 220.535 118.156 220.843 117.606 220.689C117.518 220.667 117.452 220.645 117.364 220.601C115.208 219.853 112.942 219.501 110.588 219.501Z" fill="#212121"/>
<path d="M153.136 308.756C147.196 304.466 143.544 300.088 141.476 293.18C140.552 290.078 140.112 286.844 140.178 283.61L117.364 267.594C117.65 275.36 117.056 286.448 115.384 292.982C113.03 302.112 108.85 306.908 108.806 306.952C129.266 331.9 150.43 329.392 153.136 308.756Z" fill="white"/>
<path d="M137.384 325.982C128.342 325.982 117.694 319.404 108.014 307.568C107.706 307.194 107.706 306.666 107.992 306.292C108.454 305.742 112.238 301.1 114.394 292.696C116.044 286.338 116.616 275.25 116.352 267.616C116.33 267.22 116.55 266.868 116.902 266.67C117.254 266.494 117.672 266.516 117.98 266.736L140.794 282.752C141.08 282.95 141.234 283.28 141.234 283.632C141.168 286.734 141.586 289.836 142.488 292.894C144.358 299.142 147.614 303.498 153.752 307.942C154.06 308.162 154.214 308.536 154.17 308.91C153.048 317.512 148.648 323.496 142.092 325.366C140.574 325.784 138.99 325.982 137.384 325.982ZM110.126 306.908C120.862 319.756 132.566 325.894 141.498 323.364C147.152 321.758 150.87 316.742 152.014 309.218C145.788 304.62 142.444 300.022 140.486 293.466C139.584 290.386 139.122 287.262 139.144 284.116L118.464 269.596C118.574 277.032 118.024 286.954 116.396 293.202C114.482 300.572 111.468 305.17 110.126 306.908Z" fill="#212121"/>
<path d="M112.832 267.594C113.36 264.822 113.602 261.39 114.9 258.838C116.99 254.724 121.236 252.128 123.26 247.816C124.096 246.034 123.92 244.318 123.172 242.932C132.258 238.422 144.556 236.332 157.646 238.51C163.498 249.73 166.908 262.204 167.568 274.854C167.788 279.166 167.634 283.72 165.522 287.482C162.112 293.554 154.236 295.996 147.35 294.852C140.486 293.73 134.458 289.704 128.98 285.414C120.84 281.63 115.34 277.406 112.018 273.094C112.216 271.268 112.48 269.442 112.832 267.594Z" fill="white"/>
<path d="M162.552 249.773C161.892 247.485 160.572 245.241 158.768 243.723C156.964 242.205 154.258 241.589 152.08 242.689C150.826 243.327 149.88 244.427 148.868 245.417C147.856 246.407 146.668 247.331 145.26 247.441C143.038 247.617 141.344 245.703 139.474 244.581C136.086 242.535 131.466 243.063 128.1 245.329C124.734 247.595 122.534 251.357 121.544 255.273C120.554 259.189 120.29 261.697 120.774 265.657C121.258 269.837 118.09 269.837 117.254 265.591L105.066 263.149C105.066 263.149 113.272 235.297 134.414 235.297C155.556 235.297 163.168 238.509 163.168 238.509L162.552 249.773Z" fill="#212121"/>
<path d="M119.52 269.814C118.354 269.814 117.034 268.802 116.396 266.47L104.846 264.16C104.56 264.094 104.318 263.94 104.164 263.676C104.01 263.434 103.966 263.126 104.054 262.84C104.142 262.554 112.722 234.24 134.392 234.24C155.49 234.24 163.212 237.408 163.542 237.54C163.938 237.716 164.202 238.112 164.18 238.552L163.586 249.816C163.564 250.322 163.168 250.74 162.662 250.784C162.178 250.85 161.694 250.52 161.54 250.036C160.902 247.792 159.626 245.79 158.086 244.492C156.458 243.128 154.17 242.754 152.52 243.59C151.64 244.03 150.914 244.778 150.144 245.548C149.946 245.746 149.77 245.944 149.572 246.12C148.626 247.044 147.152 248.298 145.326 248.452C143.324 248.606 141.74 247.44 140.332 246.428C139.848 246.076 139.386 245.724 138.902 245.438C135.998 243.7 131.884 243.986 128.628 246.164C125.746 248.1 123.502 251.51 122.512 255.492C121.5 259.518 121.324 261.872 121.764 265.502C122.094 268.362 120.906 269.594 119.784 269.77C119.718 269.814 119.63 269.814 119.52 269.814ZM106.408 262.356L117.452 264.556C117.87 264.644 118.178 264.952 118.266 265.37C118.618 267.108 119.322 267.724 119.52 267.724C119.564 267.68 119.916 267.152 119.74 265.744C119.212 261.41 119.586 258.726 120.532 254.986C121.676 250.432 124.162 246.692 127.506 244.448C131.4 241.83 136.416 241.522 140.002 243.678C140.552 244.008 141.08 244.404 141.586 244.756C142.796 245.636 143.918 246.494 145.194 246.384C146.338 246.296 147.438 245.35 148.142 244.646C148.318 244.47 148.516 244.272 148.692 244.096C149.55 243.216 150.43 242.336 151.618 241.742C153.994 240.554 157.14 241.016 159.428 242.908C160.286 243.634 161.078 244.514 161.738 245.548L162.068 239.212C159.802 238.486 151.618 236.308 134.392 236.308C116.594 236.33 108.168 257.318 106.408 262.356Z" fill="#212121"/>
<path d="M150.716 296.17C149.55 296.17 148.362 296.082 147.174 295.884C142.378 295.092 137.604 292.936 132.126 289.086C131.664 288.756 131.554 288.118 131.884 287.656C132.214 287.194 132.852 287.084 133.314 287.414C138.528 291.088 143.038 293.134 147.504 293.86C153.334 294.828 161.166 293.09 164.598 286.996C166.644 283.366 166.71 278.856 166.512 274.94C165.874 262.488 162.486 250.08 156.7 239.036C156.436 238.53 156.634 237.914 157.14 237.65C157.646 237.386 158.262 237.584 158.526 238.09C164.444 249.398 167.898 262.114 168.558 274.852C168.778 279.076 168.69 283.938 166.38 288.03C163.564 293.046 157.404 296.17 150.716 296.17Z" fill="#212121"/>
<path d="M152.344 277.339C151.838 277.339 151.398 276.965 151.332 276.459C151.244 275.887 151.64 275.381 152.212 275.293C153.224 275.161 154.104 274.809 154.72 274.281C155.38 273.731 155.776 272.939 155.776 272.213C155.754 271.047 154.83 270.013 153.84 268.935C153.532 268.605 153.224 268.253 152.938 267.901C150.738 265.217 149.792 261.565 150.43 258.155C150.54 257.583 151.068 257.231 151.64 257.341C152.19 257.451 152.564 257.979 152.454 258.551C151.926 261.367 152.696 264.381 154.522 266.603C154.786 266.911 155.072 267.241 155.358 267.549C156.502 268.803 157.8 270.233 157.844 272.191C157.866 273.555 157.184 274.919 156.04 275.865C155.116 276.635 153.884 277.141 152.498 277.339C152.454 277.339 152.388 277.339 152.344 277.339ZM151.332 281.013C148.428 281.013 145.612 279.055 144.71 276.283C144.534 275.733 144.82 275.161 145.37 274.985C145.92 274.809 146.492 275.095 146.668 275.645C147.372 277.735 149.704 279.209 151.882 278.923C152.454 278.857 152.96 279.253 153.048 279.825C153.114 280.397 152.718 280.903 152.146 280.991C151.86 280.991 151.596 281.013 151.332 281.013ZM155.578 257.209C155.16 257.209 154.786 256.967 154.61 256.571C154.39 256.043 154.654 255.449 155.182 255.229C157.492 254.305 161.188 253.667 164.686 254.701C165.236 254.855 165.544 255.427 165.39 255.977C165.236 256.527 164.664 256.835 164.114 256.681C161.65 255.955 158.46 256.131 155.952 257.143C155.842 257.165 155.71 257.209 155.578 257.209ZM161.848 259.431C161.848 260.025 161.32 260.509 160.638 260.509C159.956 260.509 159.428 260.025 159.428 259.431C159.428 258.815 159.956 258.353 160.638 258.353C161.298 258.331 161.848 258.815 161.848 259.431Z" fill="#212121"/>
<path d="M160.638 261.544C159.406 261.544 158.394 260.598 158.394 259.432C158.394 258.266 159.406 257.32 160.638 257.32C161.87 257.32 162.882 258.266 162.882 259.432C162.882 260.598 161.87 261.544 160.638 261.544ZM160.462 259.432C160.484 259.432 160.748 259.476 160.792 259.41C160.748 259.366 160.462 259.41 160.462 259.432ZM136.856 259.63C136.482 259.63 136.108 259.41 135.932 259.058C135.668 258.552 135.888 257.936 136.394 257.672C138.616 256.572 142.268 255.648 145.832 256.396C146.382 256.506 146.756 257.056 146.624 257.628C146.492 258.2 145.964 258.552 145.392 258.42C142.884 257.892 139.716 258.332 137.296 259.52C137.164 259.608 137.01 259.63 136.856 259.63ZM143.368 261.368C143.412 261.962 142.906 262.49 142.246 262.556C141.564 262.6 140.992 262.16 140.948 261.566C140.904 260.972 141.41 260.444 142.07 260.378C142.752 260.312 143.324 260.752 143.368 261.368Z" fill="#212121"/>
<path d="M142.136 263.589C141.63 263.589 141.124 263.435 140.728 263.127C140.266 262.753 139.958 262.225 139.914 261.653C139.826 260.487 140.75 259.453 141.982 259.365C142.554 259.321 143.126 259.475 143.566 259.827C144.028 260.179 144.336 260.729 144.38 261.301C144.424 261.851 144.248 262.379 143.874 262.797C143.478 263.259 142.928 263.545 142.312 263.589C142.268 263.567 142.202 263.589 142.136 263.589ZM141.982 261.477C142.004 261.477 142.07 261.521 142.158 261.499C142.246 261.499 142.29 261.455 142.312 261.433C142.29 261.411 142.224 261.389 142.158 261.389C142.048 261.411 141.982 261.455 141.982 261.477Z" fill="#212121"/>
<path d="M117.254 265.592C115.758 263.15 113.69 261.038 111.05 260.07C108.41 259.102 105.132 259.652 103.35 261.918C101.788 263.92 101.678 266.846 102.646 269.2C103.614 271.554 105.484 273.38 107.53 274.81C111.644 277.626 115.978 279.232 120.752 280.53" fill="white"/>
<path d="M120.774 281.585C120.686 281.585 120.598 281.563 120.51 281.541C116.396 280.419 111.556 278.835 106.958 275.667C104.384 273.907 102.624 271.861 101.7 269.595C100.512 266.713 100.842 263.435 102.558 261.279C104.494 258.793 108.146 257.913 111.424 259.101C113.998 260.047 116.33 262.093 118.156 265.041C118.464 265.525 118.31 266.163 117.826 266.471C117.342 266.779 116.704 266.625 116.396 266.141C115.296 264.359 113.426 262.049 110.72 261.059C108.652 260.311 105.748 260.597 104.186 262.577C102.954 264.139 102.734 266.647 103.614 268.847C104.384 270.717 105.902 272.455 108.146 273.995C112.48 276.987 117.122 278.505 121.06 279.583C121.61 279.737 121.94 280.309 121.786 280.859C121.654 281.277 121.236 281.585 120.774 281.585Z" fill="#212121"/>
<path d="M111.468 273.29C111.094 273.29 110.72 273.07 110.544 272.718C110.302 272.212 110.5 271.596 111.028 271.332C111.512 271.09 112.04 270.848 112.414 270.518C112.722 270.254 112.92 269.924 112.942 269.638C112.942 269.44 112.832 269.242 112.744 269.22C112.634 269.176 112.37 269.242 112.128 269.286C111.798 269.352 111.424 269.418 111.006 269.374C110.126 269.308 109.312 268.78 108.74 267.944C108.3 267.306 108.08 266.602 107.882 265.986C107.706 265.436 108.014 264.864 108.564 264.688C109.114 264.512 109.686 264.82 109.862 265.37C110.038 265.898 110.192 266.404 110.456 266.8C110.654 267.108 110.94 267.306 111.182 267.328C111.336 267.35 111.534 267.306 111.754 267.262C112.194 267.174 112.744 267.086 113.338 267.262C114.372 267.57 115.076 268.626 115.01 269.77C114.966 270.628 114.526 271.464 113.778 272.102C113.206 272.608 112.524 272.938 111.93 273.224C111.776 273.246 111.622 273.29 111.468 273.29Z" fill="#212121"/>
<path d="M120.774 265.656C121.258 269.836 118.09 269.836 117.254 265.59L120.774 265.656Z" fill="#212121"/>
<path d="M119.52 269.815C118.244 269.815 116.792 268.605 116.242 265.789C116.176 265.481 116.264 265.173 116.462 264.931C116.66 264.689 116.968 264.557 117.276 264.557L120.796 264.623C121.324 264.623 121.742 265.019 121.808 265.547C122.138 268.407 120.95 269.617 119.828 269.793C119.718 269.815 119.63 269.815 119.52 269.815ZM118.64 266.647C118.97 267.439 119.366 267.747 119.52 267.747C119.564 267.703 119.762 267.395 119.784 266.669L118.64 266.647Z" fill="#212121"/>
<path d="M211.062 467.045V483.325H122.908C120.84 483.325 119.278 481.389 119.762 479.409C120.488 476.505 122.006 473.887 124.052 471.841C127 468.871 131.048 467.067 135.558 467.067H211.062V467.045Z" fill="white"/>
<path d="M211.062 484.36H122.908C121.588 484.36 120.356 483.766 119.542 482.71C118.75 481.698 118.464 480.4 118.772 479.146C119.52 476.11 121.104 473.316 123.326 471.094C126.582 467.816 130.916 466.012 135.558 466.012H211.062C211.634 466.012 212.096 466.474 212.096 467.046V483.326C212.096 483.898 211.634 484.36 211.062 484.36ZM135.58 468.08C131.488 468.08 127.66 469.664 124.822 472.546C122.864 474.504 121.456 476.968 120.796 479.652C120.642 480.268 120.774 480.928 121.192 481.434C121.61 481.984 122.248 482.292 122.93 482.292H210.05V468.08H135.58Z" fill="#212121"/>
<path d="M323.35 406.435L295.014 476.241C293.276 480.531 289.118 483.325 284.498 483.325H181.252C176.412 483.325 173.112 478.419 174.938 473.953L203.274 404.147C205.012 399.857 209.17 397.062 213.79 397.062H317.036C321.876 397.062 325.176 401.969 323.35 406.435Z" fill="white"/>
<path d="M284.498 484.359H181.252C178.634 484.359 176.214 483.061 174.74 480.905C173.288 478.727 173.002 475.999 173.97 473.579L202.306 403.773C204.22 399.087 208.708 396.051 213.79 396.051H317.036C319.654 396.051 322.096 397.349 323.548 399.505C325 401.683 325.286 404.411 324.318 406.831L295.982 476.637C294.068 481.323 289.58 484.359 284.498 484.359ZM213.79 398.097C209.566 398.097 205.804 400.627 204.22 404.543L175.884 474.349C175.158 476.153 175.356 478.133 176.456 479.761C177.556 481.389 179.294 482.313 181.252 482.313H284.498C288.722 482.313 292.484 479.783 294.068 475.867L322.404 406.061C323.13 404.257 322.932 402.277 321.832 400.649C320.732 399.021 318.994 398.097 317.036 398.097H213.79Z" fill="#212121"/>
<path d="M260.034 440.204C257.878 446.21 251.256 451.072 245.228 451.072C239.222 451.072 236.098 446.21 238.254 440.204C240.41 434.198 247.01 429.336 253.016 429.336C259.044 429.314 262.19 434.176 260.034 440.204Z" fill="white"/>
<path d="M245.25 452.107C242.126 452.107 239.552 450.897 238.012 448.719C236.384 446.387 236.12 443.153 237.308 439.853C239.596 433.473 246.658 428.281 253.038 428.281C256.184 428.281 258.758 429.491 260.298 431.691C261.926 434.023 262.19 437.235 261.024 440.535C258.736 446.915 251.652 452.107 245.25 452.107ZM253.038 430.349C247.45 430.349 241.246 434.925 239.244 440.535C238.276 443.241 238.43 445.727 239.706 447.509C240.85 449.137 242.83 450.017 245.25 450.017C250.86 450.017 257.064 445.441 259.066 439.831C260.034 437.125 259.858 434.661 258.604 432.857C257.46 431.251 255.48 430.349 253.038 430.349Z" fill="#212121"/>
<path d="M252.774 440.204C252.048 442.206 249.848 443.834 247.846 443.834C245.844 443.834 244.81 442.206 245.514 440.204C246.24 438.202 248.44 436.574 250.442 436.574C252.444 436.574 253.5 438.202 252.774 440.204Z" fill="#212121"/>
<path d="M325.572 488.824V493.598H79.3262V486.558C79.3262 484.776 80.7782 483.324 82.5602 483.324H320.072C323.108 483.324 325.572 485.788 325.572 488.824Z" fill="#212121"/>
<path d="M325.572 494.633H79.326C78.754 494.633 78.292 494.171 78.292 493.599V486.559C78.292 484.205 80.206 482.291 82.56 482.291H320.072C323.68 482.291 326.606 485.217 326.606 488.803V493.599C326.606 494.171 326.144 494.633 325.572 494.633ZM80.36 492.565H324.538V488.803C324.538 486.339 322.536 484.337 320.072 484.337H82.56C81.35 484.337 80.36 485.327 80.36 486.537V492.565Z" fill="#212121"/>
<path d="M349.486 494.632H69.6898C69.1178 494.632 68.6558 494.17 68.6558 493.598C68.6558 493.026 69.1178 492.564 69.6898 492.564H349.486C350.058 492.564 350.52 493.026 350.52 493.598C350.52 494.17 350.058 494.632 349.486 494.632Z" fill="#212121"/>
<path d="M288.198 82.3855C287.934 82.4295 287.934 82.7815 288.198 82.8255C291.08 83.4195 293.676 85.2235 295.656 87.8195C297.57 90.3275 298.912 93.5835 299.418 97.2135C299.462 97.4775 299.814 97.4775 299.858 97.2135C300.892 89.8215 305.402 84.0135 311.078 82.8255C311.342 82.7815 311.342 82.4295 311.078 82.3855C308.196 81.7915 305.6 79.9875 303.62 77.3915C301.706 74.8835 300.364 71.6275 299.858 67.9975C299.814 67.7335 299.462 67.7335 299.418 67.9975C298.912 71.6275 297.57 74.8835 295.656 77.3915C293.676 79.9875 291.08 81.7915 288.198 82.3855ZM311.694 63.2015C311.54 63.2455 311.54 63.4435 311.694 63.4875C313.52 63.8615 315.148 65.0055 316.402 66.6335C317.612 68.2175 318.448 70.2635 318.778 72.5515C318.8 72.7055 319.042 72.7055 319.064 72.5515C319.702 67.8875 322.562 64.2355 326.148 63.4655C326.302 63.4215 326.302 63.2235 326.148 63.1795C324.322 62.8055 322.694 61.6615 321.44 60.0335C320.23 58.4495 319.394 56.4035 319.064 54.1155C319.042 53.9615 318.8 53.9615 318.778 54.1155C318.47 56.4035 317.612 58.4495 316.402 60.0335C315.148 61.6835 313.498 62.8275 311.694 63.2015Z" fill="#212121"/>
<path d="M47.2098 280.367C46.9678 280.411 46.9678 280.719 47.2098 280.785C49.8498 281.335 52.2038 282.985 54.0298 285.339C55.7678 287.649 56.9998 290.597 57.4618 293.919C57.4838 294.161 57.8358 294.161 57.8578 293.919C58.8038 287.165 62.9178 281.863 68.1098 280.763C68.3518 280.719 68.3518 280.411 68.1098 280.345C65.4698 279.795 63.1158 278.145 61.2898 275.791C59.5518 273.481 58.3198 270.533 57.8578 267.211C57.8358 266.969 57.4838 266.969 57.4618 267.211C56.9998 270.533 55.7678 273.503 54.0298 275.791C52.2038 278.167 49.8278 279.817 47.2098 280.367Z" fill="white"/>
<path d="M57.66 295.128C57.044 295.128 56.516 294.688 56.428 294.072C56.01 290.992 54.888 288.198 53.194 285.954C51.478 283.71 49.322 282.258 46.99 281.774C46.396 281.642 46 281.158 46 280.564C46 279.97 46.418 279.464 46.99 279.354C49.322 278.87 51.478 277.418 53.194 275.174C54.888 272.952 56.01 270.158 56.428 267.078C56.516 266.462 57.022 266 57.66 266C58.276 266 58.804 266.462 58.892 267.078C59.31 270.158 60.432 272.952 62.126 275.174C63.842 277.418 65.998 278.87 68.33 279.354C68.924 279.486 69.32 279.97 69.32 280.564C69.32 281.158 68.902 281.664 68.33 281.774C63.556 282.764 59.772 287.714 58.892 294.05C58.804 294.688 58.276 295.128 57.66 295.128ZM49.828 280.564C51.698 281.444 53.392 282.83 54.844 284.7C56.054 286.306 57 288.154 57.66 290.178C59.112 285.712 61.95 282.214 65.492 280.564C63.622 279.684 61.906 278.298 60.476 276.428C59.266 274.822 58.32 272.974 57.66 270.972C57 272.996 56.054 274.844 54.844 276.428C53.414 278.298 51.698 279.706 49.828 280.564Z" fill="#212121"/>
<path d="M154 180C170.569 180 184 166.569 184 150C184 133.431 170.569 120 154 120C137.431 120 124 133.431 124 150C124 166.569 137.431 180 154 180Z" fill="url(#paint0_linear_2580_23957)"/>
<path d="M174.569 147.045C174.467 147.415 174.329 147.774 174.158 148.116C172.724 150.954 171.367 153.83 169.828 156.616C168.936 158.228 168.029 159.833 166.899 161.294C163.864 165.221 159.898 167.609 155.001 168.46C154.347 168.575 153.687 168.647 153.024 168.674H150.887C146.399 168.418 142.153 166.552 138.929 163.419C135.705 160.287 133.718 156.097 133.333 151.618C132.948 147.139 134.19 142.671 136.832 139.034C139.475 135.396 143.339 132.834 147.718 131.815C151.497 130.94 155.209 131.246 158.822 132.676C159.997 133.123 161.06 133.82 161.938 134.72C162.926 135.746 163.328 136.985 163.278 138.388C163.248 138.726 163.171 139.058 163.049 139.375C162.717 140.368 162.299 141.33 161.799 142.25C160.611 144.519 159.403 146.78 158.214 149.049C157.713 150.01 157.251 151 156.697 151.938C155.838 153.394 154.166 154.23 152.554 154.015C150.759 153.774 149.397 152.605 148.929 150.89C148.776 150.364 148.732 149.813 148.798 149.27C148.864 148.726 149.04 148.202 149.314 147.728C150.266 146.049 151.133 144.328 152.051 142.633C152.368 142.05 152.676 141.464 152.994 140.883C153.07 140.764 153.115 140.629 153.126 140.49C153.138 140.35 153.115 140.209 153.059 140.08C152.903 139.725 152.612 139.61 152.237 139.604C150.417 139.575 148.688 139.953 147.099 140.844C144.099 142.529 142.277 145.075 141.779 148.494C140.918 154.39 145.142 159.309 150.279 160.191C153.927 160.816 158.418 159.555 160.832 155.211C162.313 152.546 163.699 149.836 165.128 147.14C165.701 146.06 166.263 144.974 166.842 143.898C167.708 142.291 169.467 141.465 171.322 141.779C173.008 142.064 174.402 143.493 174.707 145.21C174.805 145.824 174.758 146.453 174.569 147.045Z" fill="white"/>
<path d="M66 88H244" stroke="#212121" stroke-width="1.5"/>
</g>
<defs>
<linearGradient id="paint0_linear_2580_23957" x1="154" y1="120" x2="154" y2="180" gradientUnits="userSpaceOnUse">
<stop stop-color="#0143BE"/>
<stop offset="1" stop-color="#00B182"/>
</linearGradient>
<clipPath id="clip0_2580_23957">
<rect width="550" height="550" fill="white"/>
</clipPath>
</defs>
</svg>
