<svg width="151" height="45" fill="none" xmlns="http://www.w3.org/2000/svg"><path d="M93.657 35.155c-8.765 6.379-21.468 9.782-32.406 9.782-15.336 0-29.142-5.6-39.587-14.915-.82-.733-.085-1.731.9-1.16 11.272 6.475 25.21 10.37 39.607 10.37 9.71 0 20.39-1.983 30.212-6.099 1.484-.622 2.725.96 1.274 2.022Z" fill="#F90"/><path d="M97.3 31.04c-1.116-1.414-7.405-.669-10.228-.338-.86.104-.991-.635-.217-1.167 5.01-3.48 13.229-2.476 14.187-1.31.959 1.174-.249 9.31-4.956 13.192-.722.596-1.412.279-1.09-.512 1.057-2.606 3.427-8.446 2.304-9.866Z" fill="#F90"/><path d="M87.269 4.961V1.578c0-.513.394-.856.866-.856h15.343c.492 0 .886.35.886.856v2.897c-.006.486-.42 1.122-1.155 2.126l-7.95 11.208c2.954-.071 6.072.363 8.751 1.854.604.337.768.83.814 1.316v3.61c0 .493-.552 1.07-1.129.772-4.72-2.444-10.99-2.71-16.21.026-.531.285-1.09-.286-1.09-.778v-3.43c0-.55.007-1.49.565-2.326L96.171 5.81h-8.016c-.492 0-.886-.343-.886-.849ZM31.302 26.074h-4.668c-.447-.033-.801-.363-.834-.785V1.636c0-.473.4-.85.9-.85h4.352c.453.02.814.364.847.792V4.67h.085C33.12 1.68 35.254.288 38.13.288c2.922 0 4.747 1.393 6.06 4.382C45.318 1.68 47.885.288 50.636.288c1.956 0 4.096.797 5.403 2.586 1.477 1.99 1.175 4.881 1.175 7.416l-.007 14.928c0 .473-.4.856-.9.856h-4.66c-.466-.033-.84-.402-.84-.856V12.681c0-.998.091-3.487-.132-4.433-.348-1.588-1.392-2.036-2.744-2.036-1.13 0-2.311.746-2.79 1.938-.48 1.193-.434 3.19-.434 4.531v12.537c0 .473-.4.856-.899.856h-4.661c-.473-.033-.84-.402-.84-.856L38.3 12.681c0-2.638.44-6.52-2.876-6.52-3.354 0-3.223 3.785-3.223 6.52v12.537c0 .473-.4.856-.9.856ZM117.573.288c6.926 0 10.675 5.872 10.675 13.34 0 7.215-4.142 12.938-10.675 12.938-6.801 0-10.504-5.872-10.504-13.19 0-7.365 3.749-13.088 10.504-13.088Zm.04 4.829c-3.44 0-3.657 4.628-3.657 7.513 0 2.89-.046 9.062 3.617 9.062 3.618 0 3.788-4.979 3.788-8.012 0-1.997-.085-4.382-.696-6.275-.525-1.646-1.569-2.288-3.052-2.288ZM137.229 26.074h-4.648c-.466-.033-.84-.402-.84-.856l-.007-23.66c.04-.434.427-.771.9-.771h4.326c.407.02.742.291.834.66v3.618h.085c1.307-3.235 3.138-4.777 6.362-4.777 2.094 0 4.136.745 5.449 2.787 1.221 1.893 1.221 5.075 1.221 7.364v14.89c-.053.414-.44.745-.9.745h-4.681c-.426-.033-.781-.344-.827-.746V12.481c0-2.587.302-6.372-2.921-6.372-1.136 0-2.18.752-2.698 1.892-.657 1.446-.742 2.885-.742 4.48v12.737c-.007.473-.414.856-.913.856ZM13.845 14.775v-.998c-3.375 0-6.94.713-6.94 4.641 0 1.99 1.045 3.339 2.837 3.339 1.313 0 2.488-.798 3.23-2.094.919-1.595.873-3.092.873-4.888Zm4.707 11.234c-.308.272-.755.292-1.103.11-1.55-1.27-1.825-1.86-2.678-3.072-2.56 2.58-4.373 3.35-7.695 3.35-3.926 0-6.985-2.391-6.985-7.181 0-3.74 2.055-6.288 4.976-7.533 2.535-1.102 6.073-1.296 8.778-1.6v-.597c0-1.096.085-2.392-.565-3.338-.57-.85-1.66-1.2-2.62-1.2-1.778 0-3.367.901-3.754 2.768-.08.415-.388.823-.808.843l-4.53-.48c-.38-.084-.8-.389-.696-.966 1.044-5.419 6-7.052 10.439-7.052 2.271 0 5.239.596 7.031 2.294 2.272 2.094 2.055 4.888 2.055 7.928v7.182c0 2.159.906 3.105 1.76 4.272.301.415.367.914-.014 1.225-.952.785-2.646 2.243-3.578 3.06l-.013-.013M73.98 14.775v-.998c-3.375 0-6.94.713-6.94 4.641 0 1.99 1.044 3.339 2.836 3.339 1.313 0 2.488-.798 3.23-2.094.92-1.595.873-3.092.873-4.888Zm4.706 11.234c-.308.272-.755.292-1.103.11-1.549-1.27-1.825-1.86-2.678-3.072-2.56 2.58-4.372 3.35-7.694 3.35-3.926 0-6.986-2.391-6.986-7.181 0-3.74 2.055-6.288 4.977-7.533 2.534-1.102 6.073-1.296 8.777-1.6v-.597c0-1.096.086-2.392-.564-3.338-.572-.85-1.661-1.2-2.62-1.2-1.779 0-3.368.901-3.755 2.768-.079.415-.387.823-.808.843l-4.53-.48c-.38-.084-.8-.389-.695-.966 1.044-5.419 6-7.052 10.438-7.052 2.272 0 5.24.596 7.031 2.294 2.272 2.094 2.055 4.888 2.055 7.928v7.182c0 2.159.906 3.105 1.76 4.272.302.415.367.914-.013 1.225-.952.785-2.646 2.243-3.578 3.06l-.014-.013" fill="#221F1F"/></svg>