<svg xmlns="http://www.w3.org/2000/svg" viewBox="0 0 139.84 57.86"><defs><style>.cls-1{fill:#030303;}.cls-2{fill:#fe9903;}</style></defs><g id="Layer_2" data-name="Layer 2"><g id="Layer_1-2" data-name="Layer 1"><path class="cls-1" d="M52.12,3.15c-2.31-4.08-8.94-3.76-10.9.51-.1.21-.11.57-.35.57s-.29-.37-.4-.59A5.8,5.8,0,0,0,29.76,4c-.05.12-.08.31-.25.28s-.14-.25-.14-.4c-.16-.95.59-3.25-.91-3.15H24.88c-.78,0-1,.21-1,1V23.32c0,.83.18,1,1,1h3.58c1,0,1.15-.13,1.14-1.13,0-4.19,0-8.39,0-12.58,0-2.21.5-5.19,3.38-4.95a2.37,2.37,0,0,1,2.2,2c.57,2,.15,13.49.27,15.78,0,.72.21.93.93.93,1.27,0,2.55,0,3.82,0,.83,0,1-.19,1-1V10.54a7.8,7.8,0,0,1,.5-3.1c1.1-2.6,5.35-2.28,5.29.87.15,5,0,10,.05,15,0,.78.21,1,1,1,1.25,0,2.51,0,3.76,0,.83,0,1-.23,1-1.08,0-2.78,0-5.57,0-8.35s0-5.45,0-8.17A6.94,6.94,0,0,0,52.12,3.15Z"/><path class="cls-1" d="M18.7,11.27c-.08-3,.69-7.71-2.62-9.66C11.12-1.53,2.1-.15.81,6.39c-.15.71.13,1,.85,1.1,1.13.1,2.25.22,3.38.35.69.09,1,0,1.16-.69.56-3.21,5.9-3.73,6.48-.31a17.14,17.14,0,0,1,.13,1.89c.06.6-.16.79-.75.83a30.08,30.08,0,0,0-6.4,1A7.62,7.62,0,0,0,.23,19.85c.56,3.93,4.83,5.42,8.34,4.64a8.28,8.28,0,0,0,4.62-2.65c.33-.33.49-.28.71.08.64.89,2.15,3.4,3.35,2.21L20,21.7c.67-.57.7-.78.19-1.49C18,17.61,18.87,14.59,18.7,11.27Zm-5.9,3.2c.09,2.19-.7,5.32-3.28,5.88A2.61,2.61,0,0,1,6.25,18c-.6-3.78,2.81-5.27,6.05-5.15C13.13,12.77,12.7,13.71,12.8,14.47Z"/><path class="cls-1" d="M75.49,11.63h0c0-3.87.79-8.86-3.65-10.61-5.07-2.24-13-.8-14.24,5.38a.79.79,0,0,0,.8,1.08c1.19.12,2.37.23,3.56.39a.82.82,0,0,0,1-.65A3.43,3.43,0,0,1,66.47,4.5c2.7-.08,3.26,2.24,3.13,4.46,0,.43-.18.55-.56.58-3.48.39-7.44.46-10.11,3.05-3.25,3.17-2.94,9.9,1.68,11.61A8.79,8.79,0,0,0,70,21.83c.29-.29.44-.32.67.05.62.86,2.11,3.37,3.29,2.32L77,21.55a.76.76,0,0,0,.19-1.06C74.89,18,75.59,14.74,75.49,11.63Zm-5.9,2.8a6.74,6.74,0,0,1-1.39,4.74c-1.7,2.13-5.08,1.5-5.23-1.56-.13-2.91,1.52-4,3.62-4.54a9,9,0,0,1,2.54-.27c.34,0,.5.12.47.5S69.59,14.05,69.59,14.43Z"/><path class="cls-1" d="M135.83.61A5.94,5.94,0,0,0,128,4.35c-.09.4-.46.34-.38-.09,0-.85,0-1.71,0-2.56s-.22-1-1-1h-3.46c-.87,0-1.06.19-1.06,1V12.51h0V23.37c0,.75.21,1,1,1,1.22,0,2.43,0,3.65,0,1,0,1.21-.21,1.21-1.23,0-4.29,0-8.59,0-12.88a5.78,5.78,0,0,1,1.13-3.58,2.63,2.63,0,0,1,2.53-1c2.05.25,2.36,2.65,2.33,4.33q0,6.74,0,13.48c0,.61.23.89.84.9,1.37,0,2.74,0,4.12,0,.59,0,.84-.28.84-.89,0-4.91,0-9.82,0-14.73C139.86,5.56,139.35,1.57,135.83.61Z"/><path class="cls-1" d="M100.56,6c-3.33,7.26-.33,20,9.49,18.75,8.29-1,10.2-11.33,7.74-18C115.23-1.45,103.65-2,100.56,6Zm11.6,11.24c-.48,2.83-3.65,4.54-5.49,1.76a6.61,6.61,0,0,1-.85-2.52c-.3-3.38-.8-7.11.68-10.26a2.92,2.92,0,0,1,5.26.31,15.54,15.54,0,0,1,.76,6.1A16.22,16.22,0,0,1,112.16,17.2Z"/><path class="cls-1" d="M97.05,19.87a1.62,1.62,0,0,0-1-1.59c-2.39-1.33-5.13-1.41-7.71-1.66-.14-.22.13-.35.23-.5L96,5.48a3,3,0,0,0,.64-2c-.22-1,.6-3-1-2.79H81.87c-.73,0-.92.19-.92.92V4.18c0,1,.14,1.11,1.1,1.11h6.5c.17,0,.39-.1.5.09s-.09.33-.19.47q-4,5.71-8,11.44c-1.17,1.55-.66,3.63-.76,5.43,0,1,.38,1.2,1.26.79a16.33,16.33,0,0,1,14.49,0C97.79,24.46,96.83,20.87,97.05,19.87Z"/><path class="cls-2" d="M86,31c-2.22.72-4.36,1.72-6.62,2.37a74.09,74.09,0,0,1-14.43,3,73.67,73.67,0,0,1-41.15-7.67c-1-.51-2-1.08-3-1.62-.35-.19-.71-.36-1,.05s0,.69.28,1l.18.16c17.94,16.48,47.34,18.26,66.6,4.46C87.83,32.12,87,30.77,86,31Z"/><path class="cls-2" d="M92.74,26a15.32,15.32,0,0,0-12.2,1.7c-.25.18-.57.4-.42.77s.44.17.7.16c1.84-.14,3.67-.4,5.94-.43,1.13.07,3.88-.08,3.72,1.85-.08,2.91-1.43,5.6-2.38,8.32-.06.19-.13.4.05.56.43.3.87-.21,1.17-.47a15.64,15.64,0,0,0,4.48-11C93.83,26.58,93.61,26.32,92.74,26Z"/><path class="cls-1" d="M114,57a.92.92,0,0,1-.64-1.07c0-1.19,0-2.39,0-3.57.18-1.72-.42-3.56-2.4-3.69-1.68-.21-3.89.17-4.26,2.13,0,.19-.17.48.17.53s.57,0,.61-.39c.26-1.87,3-2.12,4.3-1.28,1.11.83,1,2.81-.55,2.91-1.48.3-3.09.14-4.35,1.17a2.65,2.65,0,0,0-.36,3c1.13,1.6,4.24,1.53,5.36-.07.11-.15.21-.36.46-.32s.26.28.31.46a1.09,1.09,0,0,0,1.18.88c.19,0,.43,0,.5-.2S114.21,57,114,57Zm-6.1-.1a1.74,1.74,0,0,1,.54-3.24,22.4,22.4,0,0,1,3-.64.07.07,0,0,1,.06,0c.32.08.63-.44.91-.09s.08.65.09,1A3.13,3.13,0,0,1,107.88,56.87Z"/><path class="cls-1" d="M49.35,53.3c1.57,0,3.55,0,5.13,0,1.19,0,1.19,0,1.05-1.15,0,0,0-.07,0-.11a3.82,3.82,0,0,0-3.39-3.49,4.22,4.22,0,0,0-3.46,1.58A6.34,6.34,0,0,0,48,54.57a3.92,3.92,0,0,0,1.86,2.81c2.07,1,4.84.43,5.57-1.92.06-.15.24-.34,0-.47a.51.51,0,0,0-.66.09,1.11,1.11,0,0,0-.24.47,3,3,0,0,1-4,1.41,3.59,3.59,0,0,1-1.8-3C48.69,53.5,48.85,53.3,49.35,53.3Zm-.61-1.14c.3-3,4.41-4.27,5.75-1.11.68,1.55.56,1.71-1.09,1.7H49.28C48.86,52.76,48.66,52.64,48.74,52.16Z"/><path class="cls-1" d="M33.22,53.3c1.58,0,3.55,0,5.14,0,1.16,0,1.14,0,1-1.15a3.79,3.79,0,0,0-6.84-2.06c-1.89,3.18-.54,8.55,3.94,7.65a3.08,3.08,0,0,0,2.74-2.27c.05-.16.29-.37,0-.51a.51.51,0,0,0-.68.21,2.77,2.77,0,0,0-.18.43A3.06,3.06,0,0,1,34.46,57a3.55,3.55,0,0,1-1.88-3C32.56,53.49,32.73,53.3,33.22,53.3Zm-.61-1.16a3.12,3.12,0,0,1,3.68-2.86,2.87,2.87,0,0,1,2.08,1.84c.71,1.7.38,1.69-1,1.63s-2.82,0-4.23,0C32.69,52.76,32.55,52.6,32.61,52.14Z"/><path class="cls-1" d="M77.3,50.13c-1.88,3.27-.5,8.5,4,7.61a3.24,3.24,0,0,0,2.72-2.37c.16-.49-.13-.45-.43-.42a.44.44,0,0,0-.39.39c-1.26,3.25-5.83,2-5.89-1.36,0-.52.15-.69.64-.68,1.59,0,3.65,0,5.25,0,1.05,0,1,0,.94-1A3.8,3.8,0,0,0,77.3,50.13Zm4.84,2.62H80.35c-.78,0-1.55,0-2.33,0-.51,0-.72-.11-.63-.69C77.73,49,82,48,83.2,51.2,83.74,52.58,83.61,52.75,82.14,52.75Z"/><path class="cls-1" d="M28.3,53.05a16.55,16.55,0,0,1-2.58-.66c-1.21-.4-2-1.72-.82-2.67s3.82-.63,4.22,1.16c.07.28.26.32.5.26s.34-.06.29-.22c-.35-3.82-8.11-2.72-6,1.2,1.14,1.41,3.18,1,4.64,1.87a1.49,1.49,0,0,1,.26,2.65,2.94,2.94,0,0,1-4.64-1.32C24,55,23.79,55,23.5,55a.24.24,0,0,0-.24.32c.25,1.86,1.91,2.57,3.62,2.57,1.25-.07,2.79-.37,3.25-1.73A2.33,2.33,0,0,0,28.3,53.05Z"/><path class="cls-1" d="M93.5,51.1a2.58,2.58,0,0,0-1.69-2.37c-1.33-.33-3.14-.28-3.92,1-.08.17-.13.35-.36.31s-.23-.61-.24-.9-.1-.45-.44-.45-.43.12-.43.46c0,1.35,0,2.7,0,4.05h0c0,1.32,0,2.63,0,3.94,0,.32,0,.49.38.48s.48-.08.47-.48c.18-2.93-1.12-8,3.32-8a2.41,2.41,0,0,1,2.1,2.12c.07,2,0,3.94,0,5.91,0,.37.15.42.46.42s.44-.1.39-.42C93.53,55.19,93.57,53.14,93.5,51.1Z"/><path class="cls-1" d="M74.7,54.61c-.61-.09-.58.45-.7.77-1,3-5.29,1.91-5.75-.89A5.23,5.23,0,0,1,68.66,51a2.94,2.94,0,0,1,1.8-1.63C72,49,73.29,49.07,74,51a.56.56,0,0,0,.72.36c.35-.1.13-.4.11-.61a1.09,1.09,0,0,0-.17-.44c-.81-1.53-2.07-1.8-3.66-1.73-3.75.11-4.64,5.77-2.51,8,2,2.2,6.09,1.39,6.48-1.67C75,54.64,74.86,54.64,74.7,54.61Z"/><path class="cls-1" d="M99.16,57.12c-.77.05-1.54,0-1.58-.94-.25-2.06-.06-4.12-.11-6.19,0-.4.24-.61.65-.61s1.25.27,1.26-.35c0-.25-.15-.29-.35-.28s-.56,0-.83,0c-1.22.15-.58-1.53-.71-2.26,0-.31-.13-.43-.42-.46s-.41.17-.41.44,0,.6,0,.9c0,1.24,0,1.24-1.25,1.37-.56-.08-.51.68,0,.65.73,0,1.31,0,1.23.86v3h0c0,1,0,2.07,0,3.1a1.15,1.15,0,0,0,.73,1.13,3.87,3.87,0,0,0,1.76.14c.13,0,.2-.11.21-.25S99.33,57.14,99.16,57.12Z"/><path class="cls-1" d="M61.28,48.71A2.77,2.77,0,0,0,58.9,50.2a.45.45,0,0,1-.51.31c-.27,0-.23-.28-.23-.48a4,4,0,0,1,0-.77c.06-.36-.06-.54-.42-.54s-.33.24-.33.49v4h0c0,1.31,0,2.62,0,3.93,0,.31,0,.53.39.54s.5-.14.49-.52c0-1.4,0-2.79,0-4.18a3.15,3.15,0,0,1,3-3.37c.39-.05.37-.29.39-.54S61.55,48.68,61.28,48.71Z"/><path class="cls-1" d="M104.9,48.71a2.74,2.74,0,0,0-2.32,1.49c-.23.52-.88.5-.73-.15,0-.14,0-.28,0-.42h0a1.37,1.37,0,0,1,0-.35c.07-.34,0-.53-.39-.55s-.37.24-.37.51c0,2.63.08,5.29,0,7.92,0,.41,0,.47.4.5s.52,0,.51-.48c.22-2.17-.7-4.91.9-6.66a2.51,2.51,0,0,1,2.09-.94c.43,0,.36-.33.37-.59S105.12,48.68,104.9,48.71Z"/><path class="cls-1" d="M45.4,45.27c-.43,0-.43.23-.43.53q0,5.73,0,11.46c0,.38.17.39.47.4s.44-.07.43-.43c0-1.9,0-3.81,0-5.72s0-3.78,0-5.67C45.86,45.51,45.86,45.27,45.4,45.27Z"/><path class="cls-1" d="M42.07,45.28c-.43,0-.41.24-.41.54v5.72h0c0,1.89,0,3.78,0,5.66,0,.33,0,.47.39.47s.49-.06.49-.46c0-3.79,0-7.59,0-11.38C42.53,45.51,42.55,45.26,42.07,45.28Z"/><path class="cls-1" d="M116.68,45.89c0-.28.11-.6-.4-.61s-.48.26-.48.6c0,1.86,0,3.73,0,5.6s0,3.81,0,5.72c0,.38.11.46.47.46s.42-.11.42-.45C116.68,53.44,116.68,49.66,116.68,45.89Z"/></g></g></svg>