<?xml version="1.0" encoding="UTF-8" standalone="no"?>
<svg
   xmlns:dc="http://purl.org/dc/elements/1.1/"
   xmlns:cc="http://creativecommons.org/ns#"
   xmlns:rdf="http://www.w3.org/1999/02/22-rdf-syntax-ns#"
   xmlns:svg="http://www.w3.org/2000/svg"
   xmlns="http://www.w3.org/2000/svg"
   xmlns:sodipodi="http://sodipodi.sourceforge.net/DTD/sodipodi-0.dtd"
   xmlns:inkscape="http://www.inkscape.org/namespaces/inkscape"
   id="Layer_1"
   data-name="Layer 1"
   viewBox="0 0 318.12057 67.169968"
   version="1.1"
   sodipodi:docname="Brightpearl.svg"
   width="318.12057"
   height="67.169968"
   inkscape:version="0.92.1 r15371">
  <metadata
     id="metadata35">
    <rdf:RDF>
      <cc:Work
         rdf:about="">
        <dc:format>image/svg+xml</dc:format>
        <dc:type
           rdf:resource="http://purl.org/dc/dcmitype/StillImage" />
        <dc:title>bp-logo</dc:title>
      </cc:Work>
    </rdf:RDF>
  </metadata>
  <sodipodi:namedview
     pagecolor="#ffffff"
     bordercolor="#666666"
     borderopacity="1"
     objecttolerance="10"
     gridtolerance="10"
     guidetolerance="10"
     inkscape:pageopacity="0"
     inkscape:pageshadow="2"
     inkscape:window-width="1366"
     inkscape:window-height="705"
     id="namedview33"
     showgrid="false"
     fit-margin-top="0"
     fit-margin-left="0"
     fit-margin-right="0"
     fit-margin-bottom="0"
     inkscape:zoom="2.05"
     inkscape:cx="69.792"
     inkscape:cy="14.739638"
     inkscape:window-x="-8"
     inkscape:window-y="-8"
     inkscape:window-maximized="1"
     inkscape:current-layer="Layer_1" />
  <defs
     id="defs4">
    <style
       id="style2">.cls-1{fill:#3a3a3a;}</style>
  </defs>
  <title
     id="title6">bp-logo</title>
  <path
     class="cls-1"
     d="m 30.265943,23.182619 a 13.48521,13.48521 0 0 0 -1.403902,-1.000508 13.309722,13.309722 0 0 0 2.917199,-8.348204 v 0 A 13.282373,13.282373 0 0 0 26.842792,3.4505012 14.412788,14.412788 0 0 0 17.108918,0.42846418 H 0 V 49.986667 h 19.289981 a 16.249712,16.249712 0 0 0 10.975962,-3.393523 14.975716,14.975716 0 0 0 5.56547,-11.707541 v 0 A 14.975716,14.975716 0 0 0 30.265943,23.182619 Z M 8.5601568,8.4576002 h 6.9830462 c 3.940498,0 5.230447,0.840974 6.041793,1.7525988 a 5.3945397,5.3945397 0 0 1 -0.01367,7.36137 c -0.80223,0.911625 -2.087621,1.738924 -6.028119,1.738924 H 8.5601568 Z M 25.103868,39.714935 c -1.169159,1.169159 -2.869339,2.251713 -7.363649,2.251713 H 8.5601568 V 27.337349 h 9.1800622 c 4.492031,0 6.189932,1.077997 7.349974,2.238039 a 7.2929984,7.2929984 0 0 1 0.01367,10.139547 z"
     id="path8"
     inkscape:connector-curvature="0"
     style="fill:#3a3a3a;stroke-width:2.27906203" />
  <rect
     class="cls-1"
     x="63.610897"
     y="16.220085"
     width="8.0268564"
     height="33.771141"
     id="rect10"
     style="fill:#3a3a3a;stroke-width:2.27906203" />
  <path
     class="cls-1"
     d="m 67.590141,0.42846418 a 4.9911458,4.9911458 0 0 0 -5.013936,5.07775102 5.0435642,5.0435642 0 0 0 10.087128,0 5.0845873,5.0845873 0 0 0 -5.073192,-5.07775102 z"
     id="path12"
     inkscape:connector-curvature="0"
     style="fill:#3a3a3a;stroke-width:2.27906203" />
  <path
     class="cls-1"
     d="m 102.0564,18.382915 a 15.875946,15.875946 0 0 0 -9.344158,-2.851107 16.18134,16.18134 0 0 0 -8.277553,2.165109 17.922543,17.922543 0 0 0 -8.676389,15.408738 17.596638,17.596638 0 0 0 8.605738,15.338088 17.320871,17.320871 0 0 0 8.484948,2.23348 15.333529,15.333529 0 0 0 9.006854,-2.709804 v 0.24158 a 14.180324,14.180324 0 0 1 -1.66144,7.894671 8.1043444,8.1043444 0 0 1 -7.197275,3.368453 11.851122,11.851122 0 0 1 -10.041548,-5.469748 l -0.501393,-0.665486 -5.875422,5.456074 0.337301,0.528742 a 19.303655,19.303655 0 0 0 16.356828,7.830857 15.791621,15.791621 0 0 0 14.606509,-8.373273 23.408246,23.408246 0 0 0 2.00557,-10.916707 V 16.220085 h -7.82857 z m -0.20512,20.511558 a 10.410755,10.410755 0 0 1 -8.104344,4.102312 9.8181991,9.8181991 0 0 1 -9.957222,-9.88885 9.5401535,9.5401535 0 0 1 9.613084,-9.888851 10.918986,10.918986 0 0 1 8.446202,4.102312 z"
     id="path14"
     inkscape:connector-curvature="0"
     style="fill:#3a3a3a;stroke-width:2.27906203" />
  <path
     class="cls-1"
     d="m 131.21699,15.534087 a 15.326692,15.326692 0 0 0 -8.72197,2.734875 V 0.40795318 h -8.02685 V 49.986667 h 8.02685 V 27.332791 a 11.087637,11.087637 0 0 1 8.51458,-4.120544 7.7488108,7.7488108 0 0 1 6.0737,2.878456 c 0.91162,1.125856 1.75488,2.755386 1.75488,7.010394 v 16.88557 h 8.02913 V 33.449794 A 17.963567,17.963567 0 0 0 143.549,21.521183 15.570552,15.570552 0 0 0 131.21699,15.534087 Z"
     id="path16"
     inkscape:connector-curvature="0"
     style="fill:#3a3a3a;stroke-width:2.27906203" />
  <path
     class="cls-1"
     d="m 199.45439,17.699196 a 16.195015,16.195015 0 0 0 -8.27983,-2.165109 15.873667,15.873667 0 0 0 -9.34416,2.851107 v -2.165109 h -7.8149 v 50.248759 h 8.02686 V 47.967419 a 15.335808,15.335808 0 0 0 8.99545,2.702967 17.320871,17.320871 0 0 0 8.48495,-2.233481 17.596638,17.596638 0 0 0 8.60802,-15.338087 17.920264,17.920264 0 0 0 -8.67639,-15.399622 z m -9.30769,25.297589 a 10.410755,10.410755 0 0 1 -8.10434,-4.102312 V 27.323675 a 10.921265,10.921265 0 0 1 8.4462,-4.102312 9.5401535,9.5401535 0 0 1 9.61308,9.888851 9.8181991,9.8181991 0 0 1 -9.95494,9.884291 z"
     id="path18"
     inkscape:connector-curvature="0"
     style="fill:#3a3a3a;stroke-width:2.27906203" />
  <path
     class="cls-1"
     d="m 228.05206,15.534087 c -9.54471,0 -16.47306,7.390998 -16.47306,17.571568 a 17.120314,17.120314 0 0 0 17.43482,17.571568 17.434824,17.434824 0 0 0 14.18716,-6.331234 l 0.41935,-0.537858 -5.31021,-5.052681 -0.51735,0.574324 a 10.971404,10.971404 0 0 1 -8.7083,4.145614 9.6746182,9.6746182 0 0 1 -9.5994,-8.243368 h 24.69135 l 0.0752,-0.670044 a 12.664747,12.664747 0 0 0 0.0729,-1.456321 c -0.005,-10.011919 -6.999,-17.571568 -16.2725,-17.571568 z m -7.82174,12.698934 a 8.6057381,8.6057381 0 0 1 8.02913,-5.497098 8.2684369,8.2684369 0 0 1 7.50495,5.497098 z"
     id="path20"
     inkscape:connector-curvature="0"
     style="fill:#3a3a3a;stroke-width:2.27906203" />
  <path
     class="cls-1"
     d="m 273.94097,18.382915 a 15.875946,15.875946 0 0 0 -9.34415,-2.851107 16.18134,16.18134 0 0 0 -8.27756,2.165109 17.922543,17.922543 0 0 0 -8.67638,15.408738 17.596638,17.596638 0 0 0 8.60801,15.338088 17.320871,17.320871 0 0 0 8.48495,2.23348 15.953434,15.953434 0 0 0 9.20285,-2.830595 v 2.140039 h 7.82174 V 16.220085 h -7.82174 z m -0.20511,20.511558 a 10.410755,10.410755 0 0 1 -8.10435,4.102312 9.8181991,9.8181991 0 0 1 -9.95722,-9.88885 9.5401535,9.5401535 0 0 1 9.61308,-9.888851 10.918986,10.918986 0 0 1 8.44621,4.102312 z"
     id="path22"
     inkscape:connector-curvature="0"
     style="fill:#3a3a3a;stroke-width:2.27906203" />
  <rect
     class="cls-1"
     x="310.09143"
     y="0"
     width="8.0291357"
     height="49.991222"
     id="rect24"
     style="fill:#3a3a3a;stroke-width:2.27906203" />
  <path
     class="cls-1"
     d="m 169.42547,42.581995 h -0.0319 a 17.633103,17.633103 0 0 1 -3.97696,0.455813 6.5044429,6.5044429 0 0 1 -4.84757,-1.846041 6.8485813,6.8485813 0 0 1 -1.02102,-4.489752 v -13.24135 h 9.84327 v -7.24058 h -9.84327 V 0.42846418 h -8.02229 V 36.312296 a 14.28744,14.28744 0 0 0 3.04254,9.959501 13.65386,13.65386 0 0 0 10.61132,4.398589 23.554106,23.554106 0 0 0 4.24361,-0.391999 z"
     id="path26"
     inkscape:connector-curvature="0"
     style="fill:#3a3a3a;stroke-width:2.27906203" />
  <path
     class="cls-1"
     d="m 59.392355,15.896458 a 15.88962,15.88962 0 0 0 -3.373011,-0.36465 15.326692,15.326692 0 0 0 -8.721971,2.734875 v -2.051156 h -8.026856 v 33.77114 h 8.026856 V 27.332791 a 11.087637,11.087637 0 0 1 8.521413,-4.115986 7.9379729,7.9379729 0 0 1 3.578128,0.859207 z"
     id="path28"
     inkscape:connector-curvature="0"
     style="fill:#3a3a3a;stroke-width:2.27906203" />
  <path
     class="cls-1"
     d="m 306.47458,15.896458 a 15.88962,15.88962 0 0 0 -3.37301,-0.36465 15.326692,15.326692 0 0 0 -8.72197,2.734875 v -2.051156 h -8.02686 v 33.77114 h 8.02686 V 27.332791 a 11.087637,11.087637 0 0 1 8.51458,-4.120544 7.9379729,7.9379729 0 0 1 3.57812,0.859207 z"
     id="path30"
     inkscape:connector-curvature="0"
     style="fill:#3a3a3a;stroke-width:2.27906203" />
</svg>
