<svg width="146" height="39" fill="none" xmlns="http://www.w3.org/2000/svg"><g clip-path="url(#a)"><path d="M27.249 3.77c0-1.18-.381-2.208-1.334-2.97-.534-.457-1.22-.61-1.867-.8h-.534c-.038.038-.076.076-.114.076-2.02.305-3.087 1.562-3.087 3.618v8.76c0 .19-.038.381-.038.571 0 .229-.077.267-.305.153-2.363-1.219-4.878-1.752-7.546-1.524-2.668.229-5.069 1.105-7.127 2.78C.838 18.092-.838 22.776.381 28.413c.724 3.314 2.553 5.941 5.336 7.922 2.82 2.018 5.983 2.818 9.45 2.438 2.897-.305 5.412-1.448 7.547-3.352 3.01-2.704 4.535-6.094 4.573-10.13.038-7.2 0-14.36-.038-21.52ZM6.936 25.252c0-3.542 2.82-6.703 6.707-6.665 3.85 0 6.67 3.2 6.593 6.627.115 3.694-3.01 6.627-6.44 6.703-3.735.076-6.822-3.009-6.86-6.665ZM145.809 23.194c-.609-3.808-2.477-6.855-5.64-9.064-2.972-2.095-6.288-2.857-9.87-2.323-3.583.533-6.517 2.285-8.766 5.141-2.439 3.123-3.315 6.703-2.667 10.588.609 3.618 2.439 6.513 5.373 8.684 2.439 1.79 5.183 2.666 8.232 2.628 2.287 0 4.421-.572 6.402-1.676.343-.19.496-.152.686.152 1.22 1.828 3.735 2.057 5.336.534.571-.572.838-1.257 1.029-2.02v-11.54c-.115-.342-.038-.723-.115-1.104Zm-20.122 2.019c0-3.733 2.973-6.665 6.67-6.627 3.925 0 6.631 3.085 6.669 6.627.038 3.847-3.163 6.703-6.669 6.665-3.507.038-6.67-2.818-6.67-6.665ZM113.949 23.27c-.571-3.351-2.058-6.207-4.725-8.416-3.773-3.123-8.08-4-12.767-2.628-2.287.647-4.23 1.904-5.87 3.618-.228.228-.342.266-.57 0-.306-.381-.687-.686-1.068-.99-3.544-2.933-7.622-3.885-12.08-2.819-2.897.686-5.298 2.21-7.204 4.494-2.058 2.438-3.125 5.294-3.163 8.494-.038 3.427 0 6.855 0 10.283 0 .457.077.914.229 1.333.61 1.523 2.248 2.475 3.81 2.17 1.754-.342 2.897-1.675 2.897-3.465v-9.788c0-1.714.496-3.238 1.563-4.609 1.791-2.247 5.45-3.047 7.965-1.714 2.553 1.333 3.81 3.428 3.81 6.323v9.864c0 2.209 2.097 3.847 4.231 3.352 1.639-.381 2.706-1.714 2.706-3.39v-9.56c0-.495 0-.99.076-1.485.572-3.961 4.42-6.513 8.232-5.523 3.087.8 5.03 3.39 5.03 6.59V35.42c0 1.942 1.525 3.466 3.507 3.466 1.943 0 3.468-1.524 3.468-3.428V26.774c.038-1.218.114-2.36-.077-3.504Z" fill="#8AD7BC"/><path d="M60.748 19.081c-1.487-.647-3.24-.038-4.04 1.41-.572 1.104-1.143 2.17-1.715 3.275-.915 1.714-1.791 3.427-2.706 5.103-1.753 3.2-5.145 4.38-8.27 3.694-4.078-.952-6.593-4.646-5.983-8.76.533-3.732 4.002-6.664 7.813-6.512.571.038.838.419.571.914-.914 1.676-1.791 3.39-2.744 5.066a3.22 3.22 0 0 0 .381 3.732c1.487 1.676 4.078 1.333 5.183-.686.991-1.79 1.906-3.618 2.858-5.446.648-1.219 1.334-2.437 1.792-3.77a3.055 3.055 0 0 0 0-2.019c-.381-1.371-1.41-2.17-2.592-2.742-2.591-1.257-5.297-1.524-8.117-1.067-6.67 1.105-11.624 6.932-11.624 13.902.038.685.076 1.523.229 2.361 1.372 7.503 8.575 12.569 16.082 11.274 3.85-.686 6.936-2.628 9.185-5.828 1.41-1.98 2.477-4.15 3.544-6.322.61-1.219 1.296-2.4 1.791-3.694.61-1.6-.114-3.2-1.638-3.885Z" fill="#243665"/></g><defs><clipPath id="a"><path fill="#fff" d="M0 0h146v39H0z"/></clipPath></defs></svg>