<svg width="270" height="250" viewBox="0 0 270 250" fill="none" xmlns="http://www.w3.org/2000/svg">
<path d="M198.67 164.003C198.668 166.616 197.631 169.121 195.786 170.968C193.942 172.816 191.44 173.854 188.831 173.856H83.8469C81.2381 173.856 78.7359 172.82 76.8896 170.974C75.0434 169.128 74.0042 166.624 74 164.011V10.1279C73.999 8.83267 74.253 7.54991 74.7475 6.35304C75.2419 5.15617 75.9672 4.06868 76.8818 3.15279C77.7964 2.2369 78.8823 1.51057 80.0775 1.01537C81.2726 0.520171 82.5535 0.265816 83.8469 0.266849H151.223L198.67 48.7243V164.003Z" fill="#8d8d8d"/>
<path d="M156.445 47.4604L198.67 87.8783V48.4418H161.266C159.633 48.4603 158.023 48.0546 156.594 47.2642L156.445 47.4604Z" fill="#555"/>
<path d="M198.67 48.6459H161.164C158.555 48.6438 156.054 47.6051 154.209 45.7577C152.364 43.9103 151.327 41.4053 151.325 38.7927V0L198.67 48.6459Z" fill="#8d8d8d"/>
<path fill-rule="evenodd" clip-rule="evenodd" d="M168.651 141.855H103.776V85.5229H168.651V141.855ZM140.247 93.6489V103.51H160.678V93.6646L140.247 93.6489ZM140.247 109.72V119.142H160.678V109.673L140.247 109.72ZM140.247 125.148V133.87H160.678V125.101L140.247 125.148ZM132.227 133.823V125.101H111.804V133.823H132.227ZM132.227 119.04V109.673H111.804V119.087L132.227 119.04ZM132.227 103.612V93.6489H111.804V103.51L132.227 103.612Z" fill="white"/>
<path d="M56.5627 229.157C56.5627 225.201 53.5737 222.497 50.1034 222.497C46.6331 222.497 43.6416 225.201 43.6416 229.157C43.6416 233.072 46.6331 235.817 50.1034 235.817C53.5737 235.817 56.5627 233.067 56.5627 229.157ZM61.5931 229.157C61.5931 235.485 56.4342 240.149 50.1009 240.149C43.7701 240.149 38.6112 235.485 38.6112 229.157C38.6112 222.783 43.7701 218.164 50.1034 218.164C56.4342 218.164 61.5931 222.783 61.5931 229.157ZM81.3491 229.157C81.3491 225.201 78.3601 222.497 74.8897 222.497C71.4194 222.497 68.4304 225.201 68.4304 229.157C68.4304 233.072 71.4194 235.817 74.8897 235.817C78.3601 235.817 81.3491 233.067 81.3491 229.157ZM86.3794 229.157C86.3794 235.485 81.2205 240.149 74.8897 240.149C68.559 240.149 63.3976 235.485 63.3976 229.157C63.3976 222.788 68.559 218.164 74.8897 218.164C81.2205 218.164 86.3819 222.783 86.3819 229.157H86.3794ZM105.717 229.194C105.717 225.324 103.025 222.494 99.603 222.494C96.1301 222.494 93.2243 225.324 93.2243 229.194C93.2243 233.027 96.1301 235.817 99.6005 235.817C103.025 235.817 105.717 233.027 105.717 229.197V229.194ZM110.138 218.827V238.564C110.138 246.681 105.147 249.999 99.2502 249.999C97.1068 250.033 95.0006 249.437 93.195 248.285C91.3895 247.133 89.9646 245.475 89.0987 243.52L93.4764 241.77C94.2576 243.56 96.1679 245.671 99.2477 245.671C103.02 245.671 105.359 243.434 105.359 239.227V237.644H105.183C104.059 238.978 101.889 240.144 99.1519 240.144C93.4259 240.144 88.1789 235.357 88.1789 229.197C88.1789 222.989 93.4259 218.164 99.1519 218.164C101.884 218.164 104.054 219.327 105.185 220.622H105.362V218.832H110.138V218.827ZM118.013 207.254H113.106V239.473H118.011L118.013 207.254ZM125.113 228.815L135.35 224.736C134.788 223.361 133.092 222.406 131.101 222.406C128.543 222.406 124.984 224.573 125.113 228.815ZM137.132 232.768L141.035 235.266C139.961 236.79 138.531 238.031 136.868 238.88C135.205 239.729 133.359 240.161 131.491 240.139C124.984 240.139 120.125 235.314 120.125 229.147C120.125 222.61 125.027 218.154 130.929 218.154C136.872 218.154 139.78 222.693 140.733 225.146L141.252 226.395L125.939 232.482C127.111 234.688 128.936 235.812 131.491 235.812C134.054 235.812 135.829 234.605 137.132 232.771V232.768ZM20.0397 226.292V221.627H36.4161C36.5749 222.439 36.658 223.401 36.658 224.442C36.658 227.94 35.6626 232.268 32.4493 235.349C29.3242 238.473 25.3322 240.139 20.0448 240.139C10.2411 240.139 2 232.474 2 223.07C2 213.665 10.2411 206 20.0448 206C25.4683 206 29.3292 208.041 32.2325 210.702L28.805 213.994C26.7233 212.12 23.9032 210.664 20.0397 210.664C12.8823 210.664 7.2849 216.199 7.2849 223.07C7.2849 229.941 12.8823 235.475 20.0397 235.475C24.682 235.475 27.3257 233.685 29.0193 232.059C30.3953 230.74 31.2975 228.858 31.6554 226.287L20.0397 226.292ZM170.693 232.705C170.693 235.251 169.756 237.297 167.883 238.84C165.981 240.358 163.675 241.117 160.958 241.117C158.538 241.117 156.409 240.413 154.561 239.003C152.714 237.596 151.436 235.671 150.731 233.233L154.317 231.773C154.561 232.637 154.899 233.424 155.335 234.128C155.769 234.831 156.273 235.442 156.842 235.957C157.439 236.445 158.092 236.837 158.798 237.133C159.504 237.405 160.25 237.541 161.038 237.541C162.75 237.541 164.148 237.108 165.235 236.241C166.321 235.347 166.865 234.168 166.865 232.705C166.865 231.486 166.416 230.443 165.519 229.579C164.678 228.739 163.102 227.925 160.794 227.141C158.458 226.302 157.006 225.734 156.434 225.432C153.339 223.864 151.789 221.547 151.789 218.486C151.789 216.347 152.646 214.52 154.357 213.002C156.096 211.486 158.228 210.727 160.754 210.727C162.981 210.727 164.909 211.295 166.537 212.434C168.168 213.545 169.254 214.939 169.799 216.618L166.296 218.081C165.965 216.992 165.275 216.047 164.337 215.399C163.387 214.668 162.22 214.301 160.834 214.301C159.367 214.301 158.133 214.708 157.13 215.52C156.121 216.279 155.617 217.267 155.617 218.486C155.617 219.491 156.013 220.355 156.802 221.087C157.671 221.816 159.559 222.685 162.465 223.688C165.424 224.688 167.53 225.922 168.778 227.382C170.056 228.82 170.693 230.594 170.693 232.705V232.705ZM174.554 211.376H178.302V220.559L178.138 223.323H178.302C178.871 222.346 179.741 221.534 180.91 220.886C182.043 220.251 183.319 219.915 184.618 219.908C187.06 219.908 188.935 220.612 190.238 222.019C191.568 223.401 192.234 225.379 192.234 227.95V240.466H188.486V228.684C188.486 225.108 186.898 223.321 183.72 223.321C182.198 223.321 180.91 223.957 179.849 225.231C178.823 226.461 178.274 228.019 178.302 229.619V240.466H174.554V211.376ZM205.598 241.117C202.665 241.117 200.248 240.112 198.345 238.109C196.445 236.106 195.495 233.572 195.495 230.511C195.495 227.478 196.417 224.96 198.265 222.957C200.112 220.923 202.473 219.908 205.354 219.908C208.313 219.908 210.664 220.871 212.4 222.793C214.167 224.688 215.049 227.357 215.049 230.795L215.009 231.202H199.323C199.378 233.153 200.029 234.723 201.279 235.915C202.529 237.106 204.023 237.704 205.76 237.704C208.151 237.704 210.024 236.513 211.382 234.128L214.724 235.754C213.867 237.39 212.569 238.755 210.976 239.694C209.399 240.642 207.607 241.117 205.598 241.117V241.117ZM199.608 228.116H211.057C211.018 227.462 210.846 226.822 210.552 226.235C210.258 225.649 209.847 225.127 209.346 224.703C208.34 223.781 206.982 223.321 205.271 223.321C203.859 223.321 202.637 223.753 201.604 224.62C200.601 225.487 199.935 226.653 199.608 228.114V228.116ZM227.64 241.117C224.707 241.117 222.287 240.112 220.387 238.109C218.487 236.106 217.534 233.572 217.534 230.511C217.534 227.478 218.459 224.96 220.306 222.957C222.154 220.923 224.515 219.908 227.396 219.908C230.354 219.908 232.703 220.871 234.442 222.793C236.209 224.688 237.091 227.357 237.091 230.795L237.051 231.202H221.365C221.42 233.153 222.07 234.723 223.321 235.915C224.571 237.106 226.063 237.704 227.801 237.704C230.193 237.704 232.066 236.513 233.424 234.128L236.766 235.754C235.909 237.391 234.61 238.756 233.016 239.694C231.441 240.642 229.649 241.117 227.64 241.117V241.117ZM221.65 228.116H233.099C233.059 227.462 232.888 226.822 232.593 226.235C232.299 225.649 231.889 225.127 231.388 224.703C230.382 223.781 229.024 223.321 227.313 223.321C225.901 223.321 224.679 223.753 223.646 224.62C222.643 225.487 221.975 226.653 221.65 228.114V228.116ZM247.825 240.79C246.197 240.79 244.838 240.288 243.752 239.287C242.691 238.285 242.149 236.89 242.121 235.103V223.969H238.618V220.559H242.121V214.464H245.869V220.559H250.758V223.972H245.869V233.884C245.869 235.211 246.128 236.121 246.645 236.606C247.159 237.066 247.744 237.297 248.397 237.297C248.694 237.297 248.979 237.272 249.251 237.216C249.551 237.133 249.821 237.041 250.065 236.932L251.247 240.262C250.269 240.614 249.13 240.79 247.825 240.79V240.79ZM270 234.939C270 236.674 269.239 238.136 267.719 239.328C266.197 240.519 264.282 241.117 261.973 241.117C259.964 241.117 258.198 240.602 256.678 239.571C255.19 238.558 254.051 237.11 253.419 235.427L256.759 234.007C257.248 235.198 257.953 236.133 258.878 236.809C259.828 237.46 260.859 237.784 261.973 237.784C263.17 237.784 264.161 237.528 264.947 237.013C265.764 236.498 266.169 235.889 266.169 235.183C266.169 233.912 265.191 232.977 263.236 232.381L259.816 231.527C255.93 230.554 253.989 228.684 253.989 225.922C253.989 224.108 254.722 222.657 256.189 221.574C257.684 220.463 259.584 219.908 261.892 219.908C263.657 219.908 265.247 220.328 266.658 221.167C268.1 222.007 269.103 223.132 269.675 224.54L266.333 225.922C265.949 225.078 265.287 224.39 264.458 223.972C263.591 223.478 262.606 223.225 261.608 223.241C260.63 223.241 259.748 223.484 258.959 223.969C258.198 224.459 257.817 225.055 257.817 225.759C257.817 226.897 258.891 227.709 261.038 228.197L264.052 228.968C268.017 229.943 270 231.934 270 234.939V234.939Z" fill="#8d8d8d"/>
</svg>
