<svg width="500" height="291" fill="none" xmlns="http://www.w3.org/2000/svg"><g opacity=".1" clip-path="url(#a)"><path d="M12.468 38.34C11.823 22.832 25.365 8.4 42.348 8.4c16.336 0 30.094 13.57 29.879 30.156 0 16.8-14.188 29.94-30.31 29.94-15.692 0-30.31-14.432-29.45-30.155ZM288.908 30.155c0-16.8 13.328-30.155 29.88-30.155 16.337 0 30.094 13.57 30.094 29.94 0 17.016-13.972 30.37-29.879 29.94-15.478.646-30.095-12.708-30.095-29.725ZM428.848 38.556c0-16.586 13.542-30.156 30.094-30.156s29.88 13.355 29.88 30.156c0 16.8-13.113 29.94-29.88 29.94-16.552-.215-30.094-13.57-30.094-29.94ZM498.28 189.118c-2.364 17.231-6.878 33.817-16.552 48.679-2.364 3.662-4.514 7.539-8.168 10.124-13.328 11.631-28.375 20.247-46.002 23.047-18.272 3.016-33.964-2.585-46.647-16.155-4.299-4.523-6.663-10.554-9.458-16.154a268.106 268.106 0 0 1-12.898-30.371c-2.794-7.97-4.729-16.37-7.093-24.555-3.225-11.847-6.664-23.909-12.468-34.894-4.729-8.832-10.963-16.155-19.347-21.971-6.233-4.092-11.822-3.877-18.056 0-7.739 4.739-13.973 11.201-19.777 17.878-11.393 12.924-20.421 27.355-30.094 41.356-10.103 14.432-19.562 29.509-30.095 43.726-9.243 12.277-19.131 24.124-31.169 33.817-6.664 5.169-13.973 9.262-22.571 10.985-10.318 1.938-20.207.431-29.45-4.308-11.823-6.031-21.066-15.078-29.45-25.417-11.823-14.431-19.561-31.017-27.945-47.387-9.458-18.955-18.916-38.125-28.375-57.08-.214-.431-.43-1.077-1.074-1.292-15.477 32.094-10.318 70.865 26.01 96.282 1.72-.646 2.794-2.37 4.514-3.662 3.655 5.17 7.094 10.339 10.748 15.293 6.02 8.616 12.253 17.447 18.272 26.063 1.075 1.508.645 1.939-.645 2.8-13.757 7.97-27.945 8.185-42.347 2.8-20.207-7.538-35.469-21.108-46.647-39.417-1.505-2.369-2.794-4.739-4.3-7.108-7.308-12.924-12.682-26.494-15.261-40.925C-2.15 169.086 0 147.546 9.888 126.868c4.514-9.693 9.888-18.739 17.842-26.063 7.524-7.108 16.337-10.985 26.655-10.77 9.459.216 17.842 3.447 24.936 9.693 9.028 7.755 15.047 17.447 20.636 27.786 7.309 13.14 12.898 27.14 19.347 40.71 4.944 10.339 10.748 20.463 16.122 30.587 3.224 6.031 6.019 12.277 10.103 17.877 1.72 2.37 3.869 4.739 6.234 6.462 1.719 1.293 3.009 1.508 4.944.216 4.299-3.016 7.738-6.893 10.963-10.77 13.757-16.37 25.365-34.464 37.403-52.126s23.861-35.325 38.048-51.264c11.823-13.57 25.151-25.632 42.133-32.956 16.767-7.323 33.749-7.539 50.731 0 19.991 8.831 35.038 23.047 46.431 41.572 7.524 12.493 13.113 25.847 16.982 39.848 4.944 18.093 9.673 36.186 15.047 54.28 1.935 6.677 4.945 12.708 9.674 18.093.645.862 1.289 1.939 2.579 1.939 15.047-3.447 23.216-14.001 27.945-27.787 4.944-15.077 5.159-30.801 4.299-46.525-.43-9.693-1.719-19.601-3.869-29.725-10.103 19.17-19.776 37.695-29.88 56.865-1.289-3.877-2.579-7.108-3.654-10.339-5.374-15.078-10.533-30.371-15.907-45.449-.43-1.077-.645-1.938 0-3.231 6.019-10.985 12.038-21.97 21.281-30.801 10.103-9.478 21.926-14.001 35.899-11.201 10.533 1.939 18.271 8.4 24.075 17.016 6.449 9.693 9.889 20.678 11.393 32.31 2.365 18.739 2.58 37.479 0 56.003Z" fill="#FEFEFE"/><path d="M473.56 247.921c-13.328 11.631-28.375 20.247-46.002 23.047-18.272 3.016-33.964-2.585-46.647-16.155-4.299-4.523-6.663-10.554-9.458-16.154a268.106 268.106 0 0 1-12.898-30.371c-2.794-7.97-4.729-16.37-7.093-24.555-3.225-11.847-6.664-23.909-12.468-34.894-4.729-8.832-10.963-16.155-19.347-21.971-6.233-4.092-11.822-3.877-18.056 0-7.739 4.739-13.973 11.201-19.777 17.878-11.393 12.924-20.421 27.355-30.094 41.356-10.103 14.432-19.562 29.509-30.095 43.725-9.243 12.278-19.131 24.125-31.169 33.818-6.664 5.169-13.973 9.262-22.571 10.985-10.318 1.938-20.207.431-29.45-4.308-11.823-6.031-21.066-15.078-29.45-25.417-11.823-14.431-19.561-31.017-27.945-47.387-9.458-18.955-18.916-38.125-28.375-57.08-.214-.431-.43-1.077-1.074-1.292-15.477 32.094-10.318 70.865 26.01 96.282 0 1.723-1.505 2.154-2.58 2.585-4.299 2.584-9.243 3.877-14.187 4.092-15.477.862-30.095-1.938-43.637-9.908-7.309-12.924-12.683-26.494-15.262-40.925C-2.15 169.086 0 147.546 9.888 126.868c4.514-9.693 9.888-18.739 17.842-26.063 7.524-7.108 16.337-10.985 26.655-10.77 9.459.216 17.842 3.447 24.936 9.693 9.028 7.755 15.047 17.447 20.636 27.786 7.309 13.14 12.898 27.14 19.347 40.71 4.944 10.339 10.748 20.463 16.122 30.586 3.224 6.032 6.019 12.278 10.103 17.878 1.719 2.37 3.869 4.739 6.234 6.462 1.719 1.293 3.009 1.508 4.944.216 4.299-3.016 7.738-6.893 10.963-10.77 13.757-16.37 25.365-34.464 37.403-52.126s23.861-35.325 38.048-51.264c11.823-13.57 25.151-25.632 42.133-32.956 16.767-7.323 33.749-7.539 50.73 0 19.992 8.831 35.039 23.047 46.432 41.572 7.524 12.493 13.113 25.847 16.982 39.848 4.944 18.093 9.673 36.186 15.047 54.28 1.935 6.677 4.944 12.708 9.674 18.093.645.861 1.289 1.938 2.579 1.938 3.655 3.231 7.309 6.678 11.393 9.693 7.309 4.954 15.047 8.616 24.076 8.185 3.009 0 6.234-.646 9.028-1.723.43-.215 1.505-.861 2.365-.215Z" fill="#fff"/><path d="M498.28 189.118c-2.364 17.231-6.878 33.817-16.552 48.679-2.364 3.662-4.514 7.539-8.168 10.124-3.87 1.292-7.524 2.585-11.608 2.585-10.318.43-19.132-4.093-27.085-10.124-2.58-1.939-4.944-4.308-7.309-6.462-.645-.646-1.505-1.077-1.29-2.154 15.048-3.446 23.216-14.001 27.945-27.786 4.944-15.078 5.159-30.802 4.299-46.526-.429-9.692-1.719-19.601-3.869-29.724-10.103 19.17-19.776 37.694-29.879 56.864-1.29-3.877-2.58-7.108-3.655-10.339-5.374-15.077-10.533-30.37-15.907-45.448-.43-1.077-.645-1.939 0-3.231 6.019-10.985 12.038-21.971 21.281-30.802 10.103-9.477 21.926-14 35.899-11.2 10.533 1.938 18.271 8.4 24.075 17.016 6.449 9.693 9.889 20.678 11.393 32.309 2.795 18.955 3.01 37.695.43 56.219ZM371.453 269.03c-7.309-8.616-12.898-18.309-17.627-28.648-3.009-6.462-5.589-13.355-8.383-20.247-2.795 3.015-5.804 5.385-8.599 7.754-8.598 7.754-20.421 3.662-24.72-3.877-7.094-12.493-14.833-24.986-22.141-37.479-3.01-5.17-6.234-10.339-9.244-15.509a5265.95 5265.95 0 0 1-32.889 51.049c-1.074 1.508-.43 2.585.43 3.662 3.44 5.385 6.879 10.77 10.318 16.37 6.234 10.124 12.468 20.032 20.637 28.432 10.963 11.416 23.86 18.74 39.768 20.032V291h8.813v-.431c1.075 0 2.15-.215 3.224-.431 15.478-2.154 28.375-9.692 40.413-19.17 1.29-.861.645-1.292 0-1.938ZM227.214 98.22c-.43-.43-.86-.861-1.29-1.076-9.458-7.97-19.776-14.647-32.029-17.448-21.281-5.169-39.553.862-55.245 15.294-10.318 9.477-17.197 21.108-22.786 33.601-.645 1.293-.43 2.154.215 3.231 6.234 10.986 12.253 21.755 18.487 32.741 5.804 10.339 11.608 20.678 17.842 31.663 1.719-6.893 3.439-13.139 5.159-19.386 2.794-10.554 6.019-20.893 10.963-30.586 2.149-4.523 4.944-8.616 8.813-11.847 1.505-1.077 2.795-1.508 4.729-.861 4.084 1.723 7.309 4.307 10.533 7.323 1.29 1.292 1.935 1.077 3.01-.215 10.103-13.786 21.066-26.925 32.244-39.849.86-1.077.645-1.723-.645-2.584ZM72.442 38.34c0 16.801-14.187 29.94-30.31 29.94-15.907 0-30.524-14.216-29.664-30.155-.645-15.508 12.897-29.94 29.88-29.94C58.898 8.4 72.441 21.97 72.441 38.34ZM488.822 38.34c0 16.801-13.113 29.94-29.88 29.94-16.552 0-29.879-13.354-30.094-29.94 0-16.585 13.542-30.155 30.094-30.155 16.552.215 29.88 13.57 29.88 30.155ZM348.882 29.94c0 17.016-13.972 30.37-29.879 29.94-15.693.646-30.095-12.708-30.095-29.725 0-16.8 13.328-30.155 29.88-30.155s30.094 13.57 30.094 29.94ZM188.951 8.4c-16.552 0-29.88 13.57-29.88 30.156 0 16.585 13.328 29.94 29.88 29.94s29.88-13.14 30.095-29.94c0-16.801-13.328-30.156-30.095-30.156ZM110.49 276.353c-13.757 7.97-27.945 8.185-42.347 2.8-20.207-7.539-35.469-21.109-46.647-39.417-1.505-2.37-2.794-4.739-4.3-7.108 2.795 0 4.945 1.938 7.31 3.015 6.663 3.231 13.542 4.524 20.636 5.601 7.094 1.077 14.187 1.292 21.281-.431 4.084-.862 7.954-2.154 10.963-4.954 1.72-.647 2.795-2.37 4.514-3.662 3.655 5.169 7.094 10.339 10.748 15.293 6.02 8.616 12.253 17.447 18.272 26.063 1.505 1.508 1.075 1.938-.43 2.8Z" fill="#fff"/></g><defs><clipPath id="a"><path fill="#fff" d="M0 0h500v291H0z"/></clipPath></defs></svg>