<?xml version="1.0" encoding="UTF-8"?>
<svg xmlns="http://www.w3.org/2000/svg" xmlns:xlink="http://www.w3.org/1999/xlink" width="635.19pt" height="158.34pt" viewBox="0 0 635.19 158.34" version="1.1">
<defs>
<clipPath id="clip1">
  <path d="M 596 53 L 635.191406 53 L 635.191406 120 L 596 120 Z M 596 53 "/>
</clipPath>
<clipPath id="clip2">
  <path d="M 62 70 L 166 70 L 166 158.339844 L 62 158.339844 Z M 62 70 "/>
</clipPath>
</defs>
<g id="surface1">
<path style=" stroke:none;fill-rule:nonzero;fill:rgb(0%,0%,0%);fill-opacity:1;" d="M 213.921875 119.84375 L 199.742188 119.84375 L 199.742188 53.71875 L 218.242188 53.71875 L 239.992188 91.71875 L 239.992188 53.71875 L 254.117188 53.71875 L 254.117188 119.84375 L 239.117188 119.84375 L 213.921875 74.8125 "/>
<path style=" stroke:none;fill-rule:nonzero;fill:rgb(0%,0%,0%);fill-opacity:1;" d="M 309.785156 53.730469 L 266.535156 53.730469 L 266.535156 119.84375 L 309.785156 119.84375 L 309.785156 107.132813 L 281.867188 107.132813 L 281.867188 91.050781 L 307.679688 91.042969 L 307.679688 77.800781 L 281.953125 77.800781 L 281.953125 66.71875 L 309.785156 66.71875 "/>
<path style=" stroke:none;fill-rule:nonzero;fill:rgb(0%,0%,0%);fill-opacity:1;" d="M 318.742188 53.730469 L 371.085938 53.730469 L 371.085938 66.71875 L 352.617188 66.71875 L 352.617188 119.84375 L 337.320313 119.84375 L 337.328125 66.734375 C 337.328125 66.734375 321.117188 66.71875 318.742188 66.71875 "/>
<path style=" stroke:none;fill-rule:nonzero;fill:rgb(0%,0%,0%);fill-opacity:1;" d="M 337.328125 66.734375 C 337.328125 66.734375 319.476563 66.714844 318.742188 66.714844 "/>
<path style=" stroke:none;fill-rule:nonzero;fill:rgb(0%,0%,0%);fill-opacity:1;" d="M 380.628906 104.785156 C 384.324219 106.976563 390.28125 112.597656 400.390625 113.652344 C 412.488281 114.917969 417.578125 108.394531 418.167969 102.808594 C 419.039063 94.539063 411.835938 92.769531 401.164063 90.664063 C 389.363281 88.339844 381.78125 86.132813 380.679688 71.9375 C 379.851563 61.285156 388.855469 51.722656 406.371094 52.453125 C 413.078125 52.730469 420.164063 54.722656 423.726563 57.050781 L 423.683594 67.386719 C 421.078125 65.746094 414.664063 60.675781 403.101563 60.085938 C 394.09375 59.625 389.171875 65.464844 389.132813 70.394531 C 389.039063 81.628906 398.316406 80.367188 407.324219 82.6875 C 419.820313 85.902344 426.621094 89.058594 426.347656 101.707031 C 426.089844 113.484375 415.773438 121.140625 400.296875 121.140625 C 393.039063 121.140625 385.285156 118.640625 380.628906 115.902344 "/>
<path style=" stroke:none;fill-rule:nonzero;fill:rgb(0%,0%,0%);fill-opacity:1;" d="M 450.167969 53.730469 L 450.167969 93.09375 C 450.167969 107.855469 456.425781 114.152344 464.832031 114.152344 C 474.078125 114.152344 480.148438 107.660156 480.148438 93.09375 L 480.148438 53.730469 L 488.367188 53.730469 L 488.367188 92.503906 C 488.367188 112.875 478.1875 121.140625 464.550781 121.140625 C 451.664063 121.140625 441.949219 113.464844 441.949219 92.796875 L 441.949219 53.730469 "/>
<path style=" stroke:none;fill-rule:nonzero;fill:rgb(0%,0%,0%);fill-opacity:1;" d="M 512.203125 119.84375 L 520.035156 119.84375 L 520.035156 53.730469 L 512.203125 53.730469 Z M 512.203125 119.84375 "/>
<path style=" stroke:none;fill-rule:nonzero;fill:rgb(0%,0%,0%);fill-opacity:1;" d="M 533.714844 53.730469 L 584.164063 53.730469 L 584.164063 61.5 L 562.820313 61.5 L 562.820313 119.84375 L 554.957031 119.84375 L 554.957031 61.5 L 533.714844 61.5 "/>
<g clip-path="url(#clip1)" clip-rule="nonzero">
<path style=" stroke:none;fill-rule:nonzero;fill:#434343;fill-opacity:1;" d="M 635.1875 53.730469 L 596.402344 53.730469 L 596.402344 119.84375 L 635.1875 119.84375 L 635.1875 112.21875 L 603.929688 112.21875 L 603.929688 87.59375 L 635.1875 87.59375 L 635.1875 79.84375 L 603.929688 79.84375 L 603.929688 61.5 L 635.1875 61.5 "/>
</g>
<path style=" stroke:none;fill-rule:evenodd;fill:#434343;fill-opacity:1;" d="M 0 0 L 102.84375 0 L 102.84375 88.0625 L 62.792969 37.28125 L 0 37.28125 "/>
<g clip-path="url(#clip2)" clip-rule="nonzero">
<path style=" stroke:none;fill-rule:evenodd;fill:#434343;fill-opacity:1;" d="M 62.566406 70.769531 C 75.917969 87.285156 88.734375 104.339844 101.9375 121.003906 L 165.070313 121.003906 L 165.070313 158.339844 L 62.566406 158.339844 "/>
</g>
<path style=" stroke:none;fill-rule:evenodd;fill:#c5c5c5;fill-opacity:1;" d="M 109.289063 37.140625 L 109.289063 7.5625 L 157.828125 7.5625 L 157.828125 114.480469 L 125.585938 114.480469 L 125.585938 37.140625 "/>
<path style=" stroke:none;fill-rule:evenodd;fill:#c5c5c5;fill-opacity:1;" d="M 39.882813 43.625 L 39.882813 120.335938 C 44.980469 120.335938 50.554688 120.335938 55.835938 120.335938 L 55.835938 150.542969 L 7.636719 150.542969 L 7.636719 43.625 "/>
</g>
</svg>
