<svg width="151" height="51" fill="none" xmlns="http://www.w3.org/2000/svg"><g clip-path="url(#a)"><path d="M134.96 23.297c-1.275-.067-2.55-.134-3.825-.134-.47 0-.604-.133-.604-.6 0-1.269-.067-2.537-.134-3.805-.067-1.335-.805-2.003-2.148-2.003-1.342 0-2.08.734-2.147 2.07-.067 1.268-.134 2.536-.134 3.805 0 .467-.135.6-.604.6-1.343 0-2.685.134-4.027.2-1.141.067-1.879.868-1.879 2.137 0 1.268.738 2.069 1.879 2.136 1.342.067 2.684.133 4.027.133.402 0 .604.134.604.601 0 1.335.067 2.67.134 4.005.067 1.202.872 1.87 2.147 1.87s2.081-.668 2.148-1.87c.067-1.335.134-2.67.134-4.005 0-.534.201-.6.671-.6 1.208 0 2.483-.067 3.691-.134 1.477-.067 2.148-.735 2.148-2.136-.067-1.536-.738-2.203-2.081-2.27ZM27.717 11.549c-1.074 0-2.08.066-3.154 0-.537 0-.738.2-.806.667-1.073 5.34-2.349 10.68-3.221 16.288-.134-.6-.201-1.001-.268-1.402-.873-5.073-2.014-10.013-3.088-15.02-.067-.4-.2-.534-.604-.534h-3.96c-.402 0-.603.134-.67.535-1.141 4.94-2.215 9.88-3.423 14.752-.067.4 0 .935-.403 1.335-.067-.2-.067-.267-.067-.4-.94-5.14-1.946-10.214-2.885-15.354-.135-.667-.336-.934-1.074-.867-1.141.066-2.282.066-3.49 0-.604 0-.738.133-.537.734 1.477 5.807 2.886 11.615 4.295 17.423.202.867.403 1.735.806 2.536.536.935 1.275 1.536 2.348 1.67.739.133 1.544.066 2.35-.068.47-.066.67-.267.805-.734.805-3.338 1.678-6.742 2.483-10.08l1.208-5.407h.134c.067.4.067.801.201 1.202.671 3.938 1.611 7.743 2.416 11.615.604 2.803 2.282 3.938 5.168 3.404.47-.066.738-.333.805-.8.537-2.204 1.141-4.406 1.678-6.543 1.208-4.672 2.483-9.278 3.691-13.951.336-1.002.336-1.002-.738-1.002ZM78.05 23.765c0-1.069-.134-2.07-.402-3.071-.604-2.07-1.947-3.538-4.094-3.872-2.35-.4-4.43.267-5.973 2.203-.47.534-.671.6-1.007-.067-.604-1.068-1.543-1.735-2.684-2.002-2.55-.601-4.698 0-6.443 2.403v-1.67c.067-.466-.201-.6-.604-.6h-3.221c-.47 0-.604.134-.604.6v15.554c0 .468.201.601.604.601 1.074 0 2.147-.066 3.221 0 .604 0 .805-.133.805-.8v-8.812c0-1.202.403-2.27 1.276-3.07a2.508 2.508 0 0 1 3.96.8c.335.668.402 1.402.402 2.203v8.945c0 .467.067.734.67.668a27.045 27.045 0 0 1 3.29 0c.536 0 .67-.134.67-.668v-9.88c.135-1.468 1.276-2.603 2.618-2.67 1.476-.066 2.282.601 2.751 2.203.202.6.202 1.202.202 1.802v8.545c0 .534.134.668.67.668a24.885 24.885 0 0 1 3.155 0c.604 0 .805-.134.805-.801-.134-3.071-.067-6.142-.067-9.212ZM42.347 28.037c-.067-1.803.067-3.672-.067-5.474-.268-3.07-2.013-5.14-5.033-5.674-2.483-.468-4.966-.134-7.315.8-1.074.401-1.074.468-.671 1.536.134.467.335.935.402 1.402.067.6.336.6.805.334a8.994 8.994 0 0 1 4.765-.935c1.343.134 2.08.734 2.416 1.87.135.533 0 .867-.604.867-.805-.067-1.677.067-2.483.2-1.946.267-3.758.801-5.167 2.203-1.477 1.469-1.947 3.271-1.41 5.274.537 1.936 1.88 3.137 3.826 3.538 2.147.4 4.16 0 5.838-1.536.202-.2.403-.467.672 0 .805 1.602 2.281 1.67 3.825 1.469.335-.067.604-.2.537-.6-.47-1.736-.336-3.539-.336-5.274Zm-4.63-.935c0 2.136-.806 3.204-2.55 3.605-1.209.267-2.35-.2-2.685-1.202-.47-1.135 0-2.403 1.074-3.004 1.14-.6 2.349-.734 3.624-.8.402 0 .537.2.537.533v.868ZM94.358 28.904c0-2.002.067-4.072-.067-6.074-.201-3.538-2.147-5.674-5.57-6.075-2.215-.267-4.43-.067-6.577.801-1.275.534-1.275.534-.94 1.803.135.467.269.867.336 1.335.134.534.336.534.805.267 1.477-.801 3.088-1.068 4.765-.935.873.067 1.61.334 2.08 1.135.27.4.538.934.336 1.335-.201.467-.738.2-1.14.267-2.215.067-4.296.467-6.175 1.669-1.879 1.201-2.819 3.471-2.349 5.674.403 2.07 1.947 3.605 4.228 3.938 2.282.334 4.295-.2 5.973-2.002.94 1.735 2.08 2.27 3.96 1.936.402-.067.67-.267.537-.735-.202-1.468-.202-2.937-.202-4.339Zm-4.563-1.669c0 2.203-1.141 3.538-3.087 3.538-1.141 0-1.88-.467-2.215-1.535-.268-.934.067-2.07.94-2.603 1.207-.735 2.55-.868 3.892-.935.335 0 .47.2.47.468v1.067ZM116.84 16.755c-.872.067-1.744 0-2.55 0-.537 0-.738-.133-.738-.734.067-1.268 0-2.603 0-3.939 0-.467-.134-.6-.604-.6a27.039 27.039 0 0 1-3.288 0c-.537 0-.672.133-.672.667v8.612c.068 2.536-.134 5.607.068 8.744.201 2.87 2.013 4.54 4.899 4.606.805 0 1.543-.133 2.349-.2.805-.067 1.208-.4 1.073-1.268-.067-.601-.067-1.202-.067-1.736 0-.668-.201-.801-.872-.668-2.014.334-2.819-.333-2.886-2.403-.067-2.069 0-4.138-.067-6.208 0-.4.134-.534.537-.534h2.818c.47 0 .604-.133.604-.6v-3.138c.135-.467-.067-.668-.604-.6ZM49.058 11.548a21.773 21.773 0 0 1-2.953 0c-.67-.066-.94.134-.94.868.068 3.405 0 6.81 0 10.214v10.346c0 .601.202.802.806.802a24.85 24.85 0 0 1 3.154 0c.537 0 .739-.134.739-.735-.067-1.602 0-3.27 0-4.873V12.283c0-.601-.135-.735-.806-.735ZM106.572 16.689c-2.348-.134-3.825 1.134-5.033 3.137V17.69c0-.467-.134-.668-.604-.668-.94.067-1.946.067-2.886 0-.537 0-.67.2-.67.735v15.42c0 .534.2.667.67.667a25.96 25.96 0 0 1 3.222 0c.604 0 .805-.133.805-.8-.067-2.537 0-5.074 0-7.61 0-3.071 1.409-4.473 4.496-4.273.604.067.672-.133.672-.668V17.49c.067-.534-.135-.801-.672-.801Z" fill="#bcbcbc"/><path d="M130.732 46.861c-.201-2.536-.469-5.006-.671-7.543-.067-.534-.268-.868-.738-1.068-1.342-.734-2.751 0-2.886 1.469-.268 3.003-.537 6.007-.805 8.945-.067 1.068.403 1.735 1.544 2.136.872.267 1.677.267 2.483-.067 1.006-.4 1.275-.868 1.275-2.07a7.821 7.821 0 0 1-.202-1.802ZM126.504 11.749c.068.867.806 1.268 1.812 1.268 1.007-.067 1.611-.467 1.678-1.335.269-3.137.537-6.208.806-8.945.067-1.736-.202-2.136-1.41-2.537-1.006-.333-2.013-.2-2.953.267-.604.334-.939.801-.872 1.536.067.534.067 1.134.134 1.668.269 2.67.537 5.408.805 8.078ZM141.068 19.96c2.952-1.336 5.838-2.738 8.791-4.073.738-.333 1.074-.867 1.007-1.535 0-1.335-.738-2.603-1.879-3.137-.604-.267-1.141-.267-1.745.066-2.618 1.87-5.302 3.672-7.919 5.54-.739.535-.806 1.27-.269 2.204.47.868 1.208 1.268 2.014.934ZM149.993 34.712c-2.885-1.268-5.704-2.603-8.59-3.938-.872-.4-1.611-.067-2.147.8-.537.935-.403 1.803.335 2.337 2.483 1.736 4.966 3.471 7.517 5.207 1.14.8 1.946.734 2.952-.334.604-.667.94-1.402.94-2.403.067-.734-.201-1.335-1.007-1.669Z" fill="#ddd"/></g><defs><clipPath id="a"><path fill="#fff" d="M0 0h151v51H0z"/></clipPath></defs></svg>