<svg width="450" height="450" viewBox="0 0 450 450" fill="none" xmlns="http://www.w3.org/2000/svg">
<path d="M341.102 253.09C347.768 258.643 357.479 260.279 365.597 257.215C373.715 254.15 379.925 246.507 381.26 237.932C381.863 234.049 381.507 229.965 379.878 226.387C378.389 223.116 369.391 207.121 352.633 210.786C329.395 215.869 330.623 234.931 333.733 242.43C335.416 246.462 337.74 250.289 341.102 253.09Z" fill="#212121"/>
<path d="M357.024 259.658C351.077 259.658 345.139 257.633 340.527 253.783C337.397 251.175 334.902 247.575 332.91 242.776C331.302 238.904 329.652 230.284 333.687 222.551C337.026 216.154 343.335 211.901 352.443 209.908C359.733 208.315 366.694 210.182 372.573 215.308C375.96 218.308 378.723 221.946 380.698 226.016C382.32 229.577 382.822 233.747 382.149 238.069C380.757 247.013 374.387 254.858 365.918 258.056C363.074 259.12 360.061 259.664 357.024 259.658ZM357.532 211.143C355.95 211.148 354.373 211.323 352.827 211.667C344.264 213.539 338.362 217.481 335.277 223.383C331.549 230.527 333.077 238.501 334.566 242.085C336.445 246.61 338.772 249.983 341.672 252.401C345.994 255.947 351.417 257.878 357.008 257.862C359.832 257.869 362.631 257.365 365.274 256.375C373.149 253.403 379.069 246.11 380.363 237.794C380.982 233.821 380.529 230.005 379.053 226.769C377.186 222.933 374.58 219.502 371.385 216.674C367.176 212.99 362.529 211.143 357.532 211.143Z" fill="#212121"/>
<path d="M349.861 231.223C349.308 231.232 348.759 231.119 348.25 230.896C347.524 230.554 345.944 229.423 346.993 226.277C347.146 225.818 347.407 225.402 347.751 225.062C348.097 224.723 348.518 224.47 348.979 224.324C349.479 224.143 350.014 224.082 350.541 224.145C351.067 224.209 351.574 224.395 352.015 224.689C353.59 225.784 354.015 228.16 352.955 229.864C352.438 230.712 351.133 231.223 349.861 231.223ZM350.161 225.926C349.958 225.926 349.758 225.962 349.567 226.027C349.373 226.081 349.193 226.183 349.045 226.32C348.896 226.457 348.781 226.628 348.712 226.817C348.714 226.824 348.714 226.833 348.712 226.84C348.415 227.726 348.223 228.865 348.993 229.252C349.837 229.675 351.216 229.252 351.434 228.928C351.988 228.028 351.778 226.714 350.984 226.165C350.741 226.005 350.453 225.922 350.161 225.926ZM350.512 248.17C350.395 248.17 350.28 248.147 350.17 248.102C350.062 248.057 349.96 247.992 349.877 247.909C349.794 247.823 349.729 247.724 349.681 247.616C349.636 247.506 349.614 247.389 349.614 247.27C349.614 247.153 349.636 247.036 349.681 246.925C353.182 238.488 358.828 231.11 366.059 225.528C366.248 225.386 366.487 225.325 366.721 225.359C366.955 225.391 367.166 225.512 367.31 225.699C367.454 225.886 367.519 226.122 367.49 226.356C367.463 226.592 367.344 226.806 367.159 226.952C360.178 232.343 354.726 239.467 351.344 247.614C351.277 247.778 351.162 247.92 351.013 248.019C350.865 248.118 350.689 248.17 350.512 248.17ZM364.408 246.77C364.018 246.77 363.631 246.712 363.26 246.597C362.308 246.28 361.498 245.634 360.981 244.772C360.463 243.91 360.272 242.893 360.439 241.903C360.484 241.669 360.619 241.462 360.817 241.327C361.012 241.195 361.255 241.143 361.489 241.188C361.575 241.204 361.654 241.231 361.73 241.269C361.647 241.12 361.606 240.949 361.615 240.778C361.627 240.605 361.685 240.441 361.784 240.301C362.896 238.749 365.209 238.342 366.833 239.401C368.381 240.421 369 242.578 368.242 244.311C367.904 245.044 367.364 245.665 366.685 246.1C366.005 246.536 365.215 246.768 364.408 246.77ZM362.106 241.629C362.212 241.813 362.248 242.029 362.207 242.239C362.108 242.794 362.214 243.368 362.509 243.852C362.801 244.333 363.262 244.691 363.802 244.858C364.342 245.024 364.923 244.988 365.438 244.754C365.953 244.52 366.363 244.104 366.592 243.589C366.995 242.666 366.653 241.438 365.843 240.904C365.033 240.371 363.784 240.592 363.247 241.341C363.123 241.516 362.941 241.642 362.734 241.694C362.524 241.748 362.306 241.723 362.113 241.629H362.106Z" fill="white"/>
<path d="M138.958 151.82C130.62 153.845 120.382 157.015 117.763 154.92C113.886 151.819 133.151 114.067 145.618 96.456C146.397 95.3535 147.225 94.2218 148.406 93.5715C150.397 92.4735 153.54 93.7965 155.718 94.4377C173.003 99.5835 188.118 104.066 203.171 111.425C209.133 114.35 207.113 116.537 203.445 118.735C203.445 118.735 192.954 125.06 192.42 126.053C191.52 127.697 192.335 128.906 192.87 130.701C196.077 141.407 207.446 164.568 212.929 174.306C213.604 175.512 161.829 191.795 160.412 190.364C158.767 188.708 157.91 186.344 157.037 184.231L152.987 174.398L144.923 154.823C144.583 154 143.233 150.785 138.958 151.82Z" fill="#212121"/>
<path d="M127.154 149.549C126.133 149.549 125.541 149.124 125.206 148.701C124.065 147.27 124.673 144.426 127.06 140C127.712 138.79 128.579 137.165 129.582 135.275C147.942 100.796 150.302 98.7716 151.999 99.5321C152.215 99.6302 152.385 99.8104 152.469 100.033C152.553 100.256 152.546 100.503 152.449 100.72C152.373 100.886 152.25 101.025 152.095 101.12C151.94 101.215 151.76 101.261 151.578 101.253C151.069 101.586 149.186 103.535 142.918 114.551C138.823 121.751 134.215 130.398 131.166 136.122C130.163 138.007 129.296 139.634 128.639 140.847C126.283 145.209 126.256 147.126 126.614 147.572C126.785 147.797 127.303 147.797 128.002 147.605C132.829 146.28 140.512 143.582 146.677 141.047C146.788 140.994 146.909 140.964 147.031 140.959C147.154 140.954 147.277 140.975 147.391 141.019C147.506 141.064 147.61 141.131 147.697 141.217C147.785 141.303 147.854 141.407 147.9 141.52C147.946 141.634 147.969 141.756 147.966 141.879C147.963 142.002 147.935 142.123 147.884 142.234C147.832 142.346 147.759 142.446 147.667 142.528C147.576 142.61 147.469 142.673 147.352 142.712C141.12 145.272 133.351 147.999 128.452 149.342C128.03 149.468 127.594 149.537 127.154 149.549ZM156.598 139.107C156.384 139.108 156.177 139.032 156.014 138.894C155.851 138.757 155.742 138.565 155.707 138.354C155.672 138.143 155.713 137.927 155.823 137.744C155.933 137.561 156.105 137.423 156.307 137.355C161.707 135.505 167.078 133.392 172.282 131.077C172.391 131.028 172.507 131.001 172.626 130.998C172.744 130.995 172.862 131.015 172.973 131.057C173.084 131.099 173.185 131.163 173.271 131.244C173.357 131.326 173.426 131.424 173.474 131.532C173.522 131.64 173.549 131.757 173.552 131.876C173.554 131.994 173.534 132.112 173.491 132.223C173.448 132.333 173.384 132.434 173.302 132.52C173.22 132.606 173.122 132.674 173.014 132.722C167.753 135.06 162.326 137.19 156.881 139.058C156.79 139.09 156.694 139.106 156.598 139.107ZM181.35 128.42C181.16 128.419 180.975 128.358 180.821 128.246C180.668 128.133 180.554 127.975 180.496 127.794C180.438 127.613 180.439 127.418 180.498 127.237C180.558 127.057 180.673 126.899 180.828 126.788C181.292 126.47 181.786 126.197 182.302 125.972C182.718 125.793 183.117 125.575 183.492 125.321C183.686 125.183 183.928 125.127 184.163 125.166C184.399 125.205 184.609 125.336 184.748 125.531C184.886 125.725 184.942 125.966 184.903 126.202C184.864 126.437 184.733 126.648 184.539 126.786C184.074 127.104 183.581 127.377 183.065 127.601C182.649 127.781 182.25 128 181.875 128.253C181.722 128.362 181.538 128.42 181.35 128.42ZM188.93 123.11C188.745 123.11 188.565 123.053 188.413 122.947C188.262 122.841 188.146 122.691 188.083 122.517C188.02 122.343 188.012 122.154 188.06 121.975C188.108 121.797 188.21 121.637 188.352 121.519C189.484 120.624 190.661 119.788 191.878 119.012C193.102 118.198 194.369 117.356 195.253 116.623C195.321 116.564 195.404 116.501 195.496 116.432C195.647 116.317 196.045 116.013 196.106 115.853C196.065 115.761 195.712 115.147 193.145 114.24C185.679 111.603 176.965 108.878 168.536 106.244C164.39 104.945 160.472 103.719 156.789 102.533C156.562 102.46 156.373 102.3 156.264 102.087C156.155 101.875 156.135 101.628 156.207 101.4C156.281 101.173 156.441 100.984 156.654 100.875C156.866 100.766 157.113 100.746 157.341 100.819C161.019 102.005 164.932 103.229 169.074 104.525C177.516 107.166 186.246 109.895 193.745 112.541C196.43 113.491 197.708 114.429 197.888 115.586C198.068 116.742 197.102 117.471 196.585 117.865C196.517 117.917 196.457 117.962 196.405 118.004C195.451 118.801 194.155 119.669 192.879 120.511C191.655 121.325 190.389 122.167 189.504 122.9C189.343 123.035 189.14 123.109 188.93 123.11Z" fill="white"/>
<path d="M265.102 275.411C264.215 275.411 263.39 275.101 262.742 274.86C260.973 274.198 259.178 273.51 257.443 272.835C251.267 270.468 244.879 268.022 238.406 266.269C234.329 265.131 230.155 264.357 225.938 263.959C224.877 263.866 223.818 263.806 222.789 263.776C222.654 263.776 222.425 263.79 222.182 263.808C221.203 263.882 220.094 263.963 219.421 263.344C218.602 262.591 218.867 261.349 219.041 260.525C219.07 260.395 219.095 260.275 219.111 260.176C219.282 259.065 219.464 257.94 219.653 256.835C221.198 247.957 223.23 239.168 225.74 230.51C227.99 222.66 230.733 214.245 234.142 204.784C237.278 196.081 240.604 187.506 243.74 179.469L244.969 176.319C249.658 164.318 254.507 151.907 260.674 140.304C262.539 136.791 264.814 132.795 268.178 129.798C271.494 126.846 275.666 125.044 279.68 123.539C293.99 118.168 309.184 115.178 323.879 112.289C324.909 112.086 326.32 111.81 327.611 112.338C329.893 113.277 330.496 116.112 330.786 117.475L340.49 163.087C340.873 164.876 341.267 166.728 341.109 168.654C340.785 172.668 338.112 176.038 335.963 178.745C312.055 208.892 289.683 240.226 268.929 272.626C268.351 273.526 267.473 274.9 265.97 275.29C265.687 275.366 265.397 275.407 265.102 275.411ZM222.746 261.988H222.839C223.903 262.019 224.999 262.082 226.094 262.177C230.416 262.586 234.695 263.378 238.876 264.544C245.437 266.319 251.867 268.783 258.086 271.163C259.819 271.838 261.61 272.513 263.374 273.172C264.188 273.478 264.911 273.717 265.518 273.559C266.274 273.364 266.846 272.554 267.413 271.669C288.198 239.22 310.606 207.84 334.55 177.649C336.652 175.001 339.032 172.002 339.314 168.532C339.449 166.867 339.089 165.157 338.729 163.485L329.022 117.873C328.662 116.175 328.158 114.532 326.925 114.028C326.192 113.727 325.305 113.866 324.225 114.078C309.6 116.955 294.482 119.928 280.31 125.249C276.46 126.693 272.468 128.399 269.372 131.166C266.222 133.965 264.053 137.799 262.26 141.172C256.142 152.683 251.314 165.045 246.643 176.999L245.414 180.149C242.282 188.175 238.964 196.738 235.834 205.421C232.439 214.844 229.703 223.221 227.468 231.032C224.976 239.625 222.958 248.348 221.426 257.164C221.239 258.262 221.057 259.375 220.888 260.478C220.868 260.604 220.836 260.757 220.8 260.928C220.704 261.295 220.658 261.675 220.663 262.053C220.951 262.134 221.68 262.078 222.047 262.053C222.31 262.003 222.542 261.988 222.746 261.988Z" fill="#212121"/>
<path d="M195.85 157.432C197.521 156.573 199.45 157.9 200.854 159.145L207.804 165.296C208.34 165.771 208.947 166.273 209.663 166.257C210.563 166.237 211.199 165.436 211.688 164.682C214.871 159.732 216.622 150.633 219.04 149.744C222.037 148.642 227.009 156.964 230.186 159.952C230.677 160.402 232.682 161.577 233.336 161.705C235.244 162.079 236.538 159.919 237.454 158.206C243.648 146.641 245.75 145.528 247.784 147.287C249.73 148.968 252.349 156.582 253.913 159.961C255.281 162.92 257.645 161.923 258.797 161.174C260.777 159.887 262.649 158.442 264.393 156.852C265.982 155.407 267.507 153.817 269.458 152.923C271.409 152.03 273.575 151.078 275.22 152.458C278.771 155.43 274.259 169.76 275.958 171.274C278.771 173.781 288.068 166.113 292.37 166.549C294.955 166.806 295.859 168.277 292.892 182.056C292.12 185.638 294.827 186.538 298.472 186.925C317.054 188.901 306.509 195.649 302.387 199.251C300.587 200.826 298.361 202.783 299.039 205.065C299.466 206.498 300.897 207.351 302.211 208.064C304.911 209.529 307.611 210.976 310.291 212.454C320.285 217.946 307.233 222.129 302.443 226.25C301.667 226.95 301.183 227.92 301.093 228.962C300.821 231.866 303.955 233.732 306.437 235.262C308.918 236.792 311.36 240.077 309.479 242.306C308.871 243.026 307.946 243.391 307.055 243.697C304.306 244.642 301.415 245.337 298.987 246.939C296.559 248.541 294.644 251.351 295.124 254.22C295.427 256.052 296.631 257.595 297.335 259.307C298.04 261.02 298.058 263.357 296.507 264.372C295.706 264.901 225.151 273.242 203.635 270.13C202.658 269.988 187.612 173.054 188.35 171.236C189.041 169.535 190.038 167.96 190.839 166.309C192.074 163.759 193.033 160.895 194.664 158.564C194.96 158.095 195.368 157.706 195.85 157.432Z" fill="#22E393"/>
<path d="M310.594 143.714C308.216 143.714 306.009 142.929 304.006 141.361C301.619 139.496 300.465 137.311 300.667 135.081C300.908 132.435 302.726 129.796 305.192 128.513C308.792 126.639 315.924 125.051 319.731 128.761C322.024 130.993 322.503 134.858 320.874 137.95C319.479 140.591 316.748 142.567 313.377 143.375C312.466 143.597 311.532 143.711 310.594 143.714ZM313.294 128.306C310.767 128.351 308.281 128.967 306.022 130.106C304.11 131.103 302.647 133.214 302.46 135.241C302.314 136.868 303.207 138.449 305.115 139.941C307.426 141.741 310.065 142.313 312.959 141.622C315.783 140.947 318.134 139.257 319.281 137.106C320.528 134.744 320.181 131.706 318.476 130.048C317.184 128.79 315.294 128.306 313.294 128.306ZM272.241 137.531C272.047 137.531 271.858 137.468 271.701 137.351C268.877 135.235 265.488 134.002 261.963 133.807C261.846 133.801 261.729 133.772 261.623 133.721C261.515 133.67 261.42 133.599 261.339 133.511C261.261 133.423 261.2 133.32 261.159 133.209C261.121 133.097 261.103 132.979 261.11 132.861C261.114 132.743 261.146 132.627 261.195 132.52C261.247 132.413 261.317 132.318 261.407 132.238C261.495 132.159 261.596 132.098 261.708 132.058C261.819 132.018 261.938 132.001 262.055 132.007C265.938 132.221 269.671 133.579 272.783 135.911C272.934 136.025 273.044 136.183 273.1 136.363C273.156 136.543 273.154 136.736 273.093 136.915C273.035 137.093 272.92 137.249 272.767 137.359C272.614 137.469 272.43 137.529 272.241 137.529V137.531ZM284.424 144.763C284.267 144.761 284.112 144.718 283.974 144.639C281.621 143.249 279.135 142.1 276.549 141.212C276.324 141.135 276.138 140.97 276.034 140.756C275.928 140.541 275.913 140.294 275.991 140.068C276.068 139.842 276.232 139.656 276.446 139.552C276.662 139.447 276.909 139.431 277.134 139.509C279.834 140.438 282.431 141.637 284.888 143.089C285.057 143.189 285.189 143.342 285.264 143.523C285.338 143.706 285.349 143.907 285.297 144.096C285.248 144.286 285.135 144.454 284.98 144.574C284.825 144.694 284.636 144.761 284.438 144.763H284.424ZM296.907 151.632C296.768 151.631 296.631 151.598 296.507 151.535L289.32 147.951C289.118 147.838 288.967 147.651 288.9 147.43C288.83 147.209 288.85 146.97 288.954 146.763C289.057 146.555 289.237 146.396 289.455 146.318C289.674 146.239 289.912 146.248 290.124 146.342L297.31 149.926C297.492 150.017 297.639 150.166 297.724 150.35C297.81 150.533 297.832 150.741 297.785 150.938C297.738 151.136 297.627 151.312 297.468 151.438C297.308 151.564 297.11 151.632 296.907 151.632ZM313.107 161.625C312.925 161.624 312.747 161.569 312.597 161.465C309.316 159.203 305.75 157.382 301.992 156.051C301.772 155.969 301.592 155.802 301.493 155.589C301.394 155.375 301.38 155.13 301.459 154.908C301.538 154.686 301.702 154.503 301.914 154.399C302.125 154.296 302.37 154.28 302.593 154.355C306.501 155.736 310.207 157.627 313.618 159.98C313.776 160.089 313.895 160.245 313.958 160.427C314.021 160.608 314.023 160.805 313.967 160.988C313.908 161.171 313.796 161.331 313.641 161.445C313.485 161.558 313.299 161.62 313.107 161.62V161.625ZM326.454 169.571C326.265 169.571 326.079 169.51 325.926 169.398C323.388 167.555 320.625 166.042 317.704 164.898C317.594 164.855 317.495 164.79 317.409 164.709C317.324 164.627 317.256 164.529 317.209 164.42C317.16 164.312 317.135 164.195 317.133 164.077C317.13 163.959 317.151 163.841 317.196 163.731C317.238 163.621 317.301 163.521 317.385 163.436C317.466 163.351 317.565 163.282 317.673 163.235C317.781 163.188 317.898 163.162 318.017 163.16C318.134 163.158 318.251 163.179 318.361 163.222C321.426 164.424 324.324 166.012 326.985 167.947C327.141 168.059 327.255 168.216 327.314 168.397C327.372 168.579 327.372 168.774 327.314 168.955C327.255 169.136 327.141 169.294 326.985 169.405C326.83 169.517 326.646 169.576 326.454 169.576V169.571Z" fill="#212121"/>
<path d="M224.082 207.038C223.938 207.039 223.796 207.004 223.669 206.938C223.541 206.872 223.431 206.777 223.347 206.66C223.264 206.543 223.21 206.407 223.19 206.265C223.17 206.122 223.184 205.977 223.232 205.841C225.033 200.695 226.552 195.453 227.781 190.141C222.41 191.624 217.494 193.448 214.731 197.496C214.667 197.599 214.582 197.687 214.483 197.757C214.383 197.826 214.271 197.874 214.152 197.899C214.034 197.924 213.911 197.924 213.793 197.901C213.673 197.877 213.561 197.83 213.461 197.761C213.361 197.693 213.275 197.605 213.21 197.503C213.145 197.401 213.101 197.287 213.081 197.167C213.061 197.048 213.065 196.925 213.093 196.807C213.122 196.69 213.174 196.579 213.246 196.481C216.599 191.563 222.496 189.668 228.755 188.012C228.903 187.973 229.061 187.972 229.212 188.011C229.36 188.05 229.497 188.126 229.61 188.233C229.72 188.34 229.803 188.474 229.846 188.621C229.891 188.769 229.898 188.926 229.864 189.077C228.566 194.957 226.917 200.754 224.928 206.438C224.866 206.613 224.752 206.765 224.6 206.872C224.449 206.98 224.268 207.038 224.082 207.038Z" fill="#212121"/>
<path d="M228.206 208.025C228.136 208.025 228.067 208.017 227.999 208C224.589 207.195 221.084 206.862 217.582 207.01C217.344 207.02 217.111 206.935 216.935 206.773C216.759 206.611 216.655 206.386 216.645 206.148C216.635 205.909 216.721 205.676 216.882 205.5C217.044 205.325 217.269 205.22 217.508 205.21C221.173 205.057 224.841 205.406 228.411 206.248C228.627 206.297 228.818 206.424 228.946 206.605C229.075 206.786 229.131 207.008 229.106 207.228C229.081 207.448 228.976 207.652 228.809 207.799C228.643 207.946 228.429 208.026 228.206 208.025ZM240.741 207.96C238.655 207.96 236.722 207.319 235.287 206.099C233.764 204.805 232.947 203.064 232.985 201.194C233.028 199.198 234.04 197.281 235.766 195.936C236.792 195.145 237.971 194.575 239.227 194.262C240.484 193.949 241.792 193.9 243.067 194.118C244.1 194.285 245.083 194.669 245.954 195.246C246.825 195.823 247.563 196.579 248.116 197.464C249.583 199.824 249.421 203.03 247.729 205.087C246.755 206.268 245.272 207.143 243.439 207.613C242.559 207.842 241.652 207.958 240.741 207.96ZM241.528 195.783C239.848 195.786 238.212 196.339 236.873 197.358C235.577 198.368 234.814 199.781 234.785 201.232C234.756 202.551 235.35 203.793 236.452 204.731C238.048 206.081 240.502 206.513 242.991 205.872C244.01 205.611 245.419 205.064 246.339 203.946C247.556 202.465 247.66 200.141 246.589 198.415C246.168 197.744 245.608 197.172 244.944 196.736C244.282 196.301 243.533 196.012 242.75 195.891C242.347 195.819 241.938 195.782 241.528 195.783ZM259.834 210.646C259.504 210.646 259.177 210.632 258.853 210.603C255.996 210.356 252.522 208.776 251.653 205.894C250.96 203.612 251.235 201.549 252.448 199.931C254.173 197.632 257.53 196.61 260.134 196.61H260.233C263.916 196.649 265.95 198.395 267.007 199.853C268.335 201.684 268.652 203.842 268.279 205.028C267.489 207.527 265.835 209.303 263.621 210.036C262.399 210.439 261.121 210.645 259.834 210.646ZM260.129 198.41C258.046 198.41 255.229 199.218 253.885 201.011C253.017 202.168 252.844 203.635 253.37 205.372C253.973 207.361 256.664 208.607 259.009 208.81C260.379 208.922 261.756 208.757 263.059 208.324C264.71 207.782 265.954 206.416 266.566 204.483C266.758 203.871 266.566 202.312 265.552 200.91C264.737 199.785 263.151 198.435 260.217 198.41H260.129ZM275.839 203.271H275.776C274.462 203.248 273.352 202.528 272.952 201.437C272.938 201.398 272.927 201.358 272.916 201.318C272.806 201.184 272.734 201.021 272.713 200.848C272.691 200.675 272.72 200.5 272.797 200.343C273.332 199.243 274.574 198.629 275.947 198.768C277.319 198.908 278.408 199.783 278.696 200.971C278.741 201.155 278.728 201.349 278.656 201.525C278.233 202.596 277.126 203.271 275.839 203.271ZM274.648 200.836C274.833 201.286 275.384 201.464 275.807 201.471C276.181 201.491 276.545 201.364 276.824 201.117C276.696 200.958 276.534 200.826 276.349 200.732C276.167 200.637 275.967 200.582 275.76 200.568C275.371 200.513 274.972 200.609 274.648 200.836ZM266.364 217.298C266.188 217.298 266.015 217.246 265.869 217.149C265.72 217.052 265.606 216.913 265.536 216.751C265.466 216.589 265.446 216.409 265.477 216.236C265.509 216.062 265.592 215.902 265.714 215.774C270.884 210.407 276.419 205.404 282.278 200.801C282.467 200.653 282.706 200.586 282.942 200.615C283.18 200.644 283.396 200.766 283.543 200.954C283.691 201.141 283.756 201.38 283.729 201.617C283.7 201.855 283.579 202.071 283.39 202.218C277.596 206.769 272.124 211.716 267.012 217.023C266.929 217.11 266.827 217.179 266.717 217.226C266.605 217.273 266.485 217.298 266.364 217.298ZM275.308 218.006C274.655 218.03 274.014 217.837 273.483 217.457C273.08 217.142 272.457 216.41 272.79 215.038C272.846 214.806 272.992 214.606 273.197 214.482C273.402 214.357 273.647 214.319 273.879 214.376C274.111 214.432 274.311 214.578 274.435 214.782C274.558 214.986 274.597 215.231 274.54 215.463C274.466 215.763 274.484 215.954 274.59 216.037C274.93 216.303 275.89 216.233 276.358 215.987C276.52 215.889 276.655 215.754 276.752 215.593C276.851 215.432 276.912 215.251 276.925 215.063C276.939 214.994 276.934 214.923 276.912 214.857C276.887 214.79 276.849 214.731 276.795 214.685C276.784 214.685 275.812 214.03 274.995 214.437C274.889 214.49 274.774 214.521 274.657 214.529C274.538 214.537 274.419 214.522 274.309 214.484C274.196 214.447 274.093 214.387 274.003 214.309C273.915 214.232 273.841 214.137 273.789 214.031C273.735 213.925 273.706 213.81 273.697 213.692C273.688 213.574 273.703 213.456 273.742 213.343C273.78 213.231 273.838 213.128 273.917 213.039C273.994 212.95 274.088 212.877 274.194 212.824C275.609 212.122 277.137 212.732 277.819 213.204C278.129 213.424 278.377 213.722 278.534 214.068C278.692 214.413 278.755 214.795 278.719 215.173C278.685 215.67 278.527 216.15 278.26 216.57C277.994 216.991 277.625 217.338 277.191 217.58C276.604 217.864 275.96 218.01 275.308 218.006Z" fill="#212121"/>
<path d="M275.217 235.413C275.032 235.413 274.855 235.357 274.704 235.251C274.553 235.146 274.436 234.997 274.373 234.824C273.568 232.641 270.832 231.345 268.633 232.106C268.429 232.176 268.217 232.263 267.992 232.356C267.155 232.702 266.206 233.094 265.148 232.806C263.463 232.329 263.051 230.657 262.72 229.316C262.52 228.506 262.315 227.669 261.888 227.158C260.812 225.869 258.423 226.659 256.713 227.727C254.913 228.852 251.882 230.729 249.331 229.145C248.102 228.382 247.517 227.077 247 225.927C246.55 224.942 246.14 224.013 245.407 223.52C244.007 222.582 242.117 223.52 240.115 224.504C237.865 225.615 235.315 226.872 233.041 225.403C232.249 224.895 231.711 224.148 231.241 223.487C230.804 222.879 230.392 222.305 229.857 221.995C228.595 221.261 227.067 222.024 225.296 222.911C223.461 223.829 221.382 224.868 219.303 224.072C217.953 223.554 217.143 222.467 216.357 221.414C215.995 220.894 215.589 220.406 215.142 219.956C214.643 219.536 214.064 219.219 213.44 219.026C212.816 218.832 212.16 218.766 211.51 218.83C210.86 218.894 210.229 219.088 209.655 219.399C209.081 219.711 208.575 220.134 208.167 220.645C208.099 220.741 208.012 220.823 207.912 220.885C207.811 220.948 207.7 220.99 207.583 221.009C207.466 221.029 207.347 221.025 207.232 220.998C207.117 220.972 207.008 220.923 206.912 220.854C206.816 220.785 206.734 220.698 206.672 220.598C206.609 220.498 206.567 220.386 206.547 220.27C206.528 220.153 206.532 220.034 206.558 219.919C206.585 219.803 206.634 219.695 206.703 219.599C207.26 218.879 207.958 218.281 208.755 217.84C209.551 217.4 210.43 217.127 211.335 217.038C212.241 216.949 213.155 217.045 214.023 217.322C214.889 217.599 215.691 218.05 216.378 218.647C216.902 219.168 217.379 219.734 217.804 220.339C218.463 221.223 219.087 222.06 219.948 222.391C221.298 222.904 222.844 222.125 224.494 221.3C226.446 220.323 228.66 219.216 230.764 220.438C231.632 220.942 232.201 221.736 232.705 222.436C233.124 223.016 233.518 223.561 234.022 223.889C235.439 224.801 237.329 223.869 239.327 222.881C241.577 221.756 244.153 220.499 246.419 222.02C247.58 222.798 248.149 224.065 248.651 225.183C249.101 226.186 249.529 227.136 250.289 227.608C251.767 228.526 253.889 227.358 255.77 226.193C258.214 224.675 261.472 223.824 263.285 225.997C263.978 226.827 264.246 227.916 264.484 228.877C264.788 230.117 265.009 230.884 265.654 231.066C266.104 231.195 266.698 230.952 267.322 230.695C267.56 230.596 267.808 230.493 268.062 230.405C271.187 229.327 274.933 231.102 276.079 234.203C276.13 234.34 276.146 234.486 276.128 234.63C276.11 234.774 276.056 234.912 275.973 235.031C275.89 235.15 275.779 235.247 275.651 235.314C275.521 235.382 275.379 235.416 275.233 235.416L275.217 235.413Z" fill="white"/>
<path d="M267.882 240.404C267.799 240.404 267.713 240.392 267.632 240.368C248.829 234.97 229.497 231.622 209.972 230.382C209.734 230.366 209.511 230.258 209.353 230.078C209.195 229.898 209.114 229.664 209.13 229.426C209.145 229.187 209.254 228.965 209.434 228.805C209.614 228.647 209.848 228.566 210.087 228.582C229.742 229.829 249.207 233.197 268.136 238.633C268.346 238.691 268.528 238.826 268.647 239.009C268.766 239.191 268.814 239.409 268.784 239.625C268.755 239.841 268.647 240.037 268.483 240.181C268.319 240.323 268.107 240.401 267.889 240.399L267.882 240.404Z" fill="#212121"/>
<path d="M339.795 177.542C339.648 177.542 339.502 177.506 339.372 177.436L330.147 172.513C330.043 172.457 329.951 172.382 329.877 172.29C329.8 172.199 329.744 172.094 329.71 171.98C329.676 171.867 329.663 171.749 329.676 171.631C329.688 171.513 329.721 171.399 329.778 171.295C329.834 171.19 329.908 171.098 330 171.023C330.09 170.948 330.196 170.892 330.311 170.857C330.423 170.823 330.543 170.811 330.66 170.823C330.777 170.834 330.891 170.869 330.995 170.925L340.22 175.848C340.398 175.942 340.539 176.093 340.62 176.276C340.701 176.46 340.719 176.665 340.67 176.86C340.623 177.055 340.51 177.227 340.35 177.351C340.193 177.475 339.999 177.542 339.797 177.542H339.795ZM288.717 253.218C288.56 253.218 288.407 253.175 288.27 253.096C288.135 253.015 288.022 252.903 287.943 252.765C287.865 252.628 287.824 252.475 287.824 252.318C287.824 252.16 287.865 252.005 287.943 251.868C296.613 237.27 319.763 232.702 332.79 231.278C333.029 231.253 333.27 231.323 333.456 231.474C333.643 231.622 333.762 231.843 333.789 232.081C333.814 232.32 333.744 232.558 333.594 232.745C333.443 232.932 333.225 233.053 332.986 233.078C320.292 234.466 297.762 238.872 289.491 252.797C289.41 252.927 289.296 253.035 289.161 253.11C289.023 253.182 288.873 253.22 288.717 253.218Z" fill="#3830C9"/>
<path d="M308.003 234.137C307.794 234.139 307.591 234.065 307.429 233.934C307.267 233.801 307.157 233.615 307.117 233.41C307.076 233.205 307.11 232.991 307.209 232.807C307.31 232.625 307.47 232.481 307.663 232.402C312.775 230.323 318.211 229.151 323.726 228.944C321.211 227.875 318.848 226.478 316.697 224.79C315.869 224.14 314.881 222.948 314.821 221.724C314.803 221.411 314.854 221.098 314.969 220.808C315.086 220.517 315.266 220.256 315.496 220.043C316.051 219.512 316.789 219.368 317.37 219.314C320.79 218.958 324.48 220.191 327.495 222.689C329.941 224.714 331.972 227.515 333.705 231.239C333.802 231.455 333.811 231.7 333.727 231.923C333.646 232.143 333.48 232.323 333.264 232.424C333.05 232.523 332.805 232.535 332.582 232.456C332.359 232.377 332.177 232.213 332.074 231.999C331.936 231.702 331.797 231.414 331.655 231.131L331.333 231.086C323.542 230.075 315.622 231.101 308.343 234.065C308.237 234.112 308.12 234.134 308.003 234.137ZM318.54 221.053C318.209 221.053 317.881 221.069 317.55 221.103C317.278 221.132 316.895 221.188 316.731 221.346C316.69 221.382 316.659 221.427 316.639 221.478C316.618 221.529 316.612 221.584 316.618 221.638C316.643 222.113 317.154 222.86 317.809 223.373C321.532 226.295 325.906 228.273 330.559 229.135C329.452 227.225 328.026 225.517 326.345 224.084C323.989 222.129 321.195 221.053 318.54 221.053ZM99.2377 209.436C93.0952 201.127 87.0493 192.575 83.3885 182.911C83.1635 182.292 82.9385 181.599 83.1635 180.985C83.483 180.177 84.4462 179.86 85.299 179.7C88.899 179.005 92.6158 179.435 96.2788 179.192C117.258 177.795 134.047 173.529 152.398 163.577C159.799 159.565 170.848 152.12 177.373 146.823C178.577 145.849 179.527 144.839 181.198 147.429C202.207 179.867 220.479 263.69 223.685 278.378C214.766 280.874 147.246 272.047 143.999 271.061C141.859 270.411 139.321 262.023 122.012 240.848C116.113 233.633 106.712 219.505 101.146 212.033C100.516 211.175 99.8797 210.309 99.2377 209.436Z" fill="#3830C9"/>
<path d="M93.128 189.799C88.6041 189.802 84.0834 189.572 79.5832 189.111C79.3445 189.087 79.1251 188.968 78.9737 188.782C78.822 188.596 78.7507 188.357 78.7752 188.119C78.7995 187.88 78.9181 187.661 79.1042 187.509C79.2903 187.358 79.5288 187.287 79.7675 187.311C117.549 191.188 156.983 178.356 185.248 152.983C185.335 152.899 185.438 152.833 185.55 152.79C185.663 152.747 185.784 152.727 185.905 152.731C186.026 152.736 186.144 152.764 186.254 152.815C186.363 152.867 186.461 152.939 186.542 153.029C186.623 153.119 186.685 153.225 186.724 153.339C186.763 153.454 186.779 153.575 186.77 153.695C186.761 153.816 186.728 153.933 186.673 154.041C186.618 154.149 186.542 154.244 186.449 154.322C172.366 166.964 155.143 176.822 136.641 182.852C122.589 187.429 107.906 189.774 93.128 189.799ZM96.6245 197.62C93.3651 197.62 90.1065 197.512 86.8485 197.296C86.6097 197.281 86.3872 197.171 86.2295 196.991C86.072 196.811 85.9921 196.575 86.0081 196.337C86.0238 196.098 86.1339 195.875 86.3139 195.718C86.4939 195.56 86.729 195.481 86.9675 195.496C100.328 196.385 113.746 195.427 126.844 192.648C127.074 192.608 127.31 192.659 127.502 192.789C127.695 192.92 127.83 193.12 127.878 193.348C127.926 193.576 127.885 193.813 127.762 194.011C127.639 194.208 127.444 194.35 127.218 194.407C117.16 196.543 106.907 197.62 96.6245 197.62ZM133.23 192.138C133.016 192.137 132.809 192.06 132.646 191.921C132.484 191.782 132.376 191.59 132.343 191.379C132.309 191.168 132.352 190.951 132.463 190.769C132.574 190.586 132.747 190.449 132.95 190.383L137.655 188.846C137.769 188.804 137.89 188.785 138.011 188.791C138.131 188.797 138.25 188.828 138.359 188.88C138.468 188.933 138.565 189.007 138.644 189.098C138.724 189.19 138.784 189.296 138.822 189.411C138.859 189.526 138.873 189.648 138.863 189.768C138.852 189.889 138.818 190.006 138.761 190.113C138.704 190.22 138.626 190.314 138.532 190.39C138.438 190.466 138.33 190.522 138.213 190.556L133.509 192.093C133.419 192.123 133.324 192.138 133.23 192.138ZM146.685 188.256C146.474 188.257 146.269 188.183 146.107 188.047C145.944 187.912 145.835 187.724 145.797 187.516C145.76 187.308 145.797 187.094 145.901 186.91C146.006 186.727 146.172 186.586 146.37 186.512C152.56 184.195 158.564 181.407 164.329 178.174C164.538 178.057 164.785 178.028 165.016 178.093C165.246 178.158 165.441 178.312 165.558 178.521C165.675 178.729 165.704 178.976 165.639 179.206C165.574 179.437 165.42 179.632 165.211 179.749C159.366 183.029 153.278 185.855 147 188.204C146.899 188.241 146.792 188.259 146.685 188.256ZM174.992 171.554C174.805 171.554 174.622 171.496 174.469 171.386C174.316 171.277 174.202 171.123 174.141 170.946C174.081 170.768 174.077 170.576 174.13 170.397C174.184 170.217 174.293 170.059 174.441 169.943L176.794 168.125C176.984 167.984 177.221 167.923 177.454 167.955C177.688 167.987 177.9 168.11 178.044 168.297C178.189 168.484 178.254 168.72 178.226 168.954C178.198 169.188 178.079 169.402 177.895 169.55L175.541 171.368C175.384 171.489 175.191 171.555 174.992 171.554Z" fill="#212121"/>
<path d="M135.765 234.229H135.605C134.534 234.128 134.03 233.091 133.855 232.751C132.383 229.77 132.412 226.914 133.933 225.114C135 223.855 136.498 223.38 137.945 222.921C138.879 222.624 139.758 222.345 140.481 221.875C142.798 220.367 143.224 217.003 142.621 214.342C141.968 211.466 140.371 209.05 138.215 207.713C135.893 206.269 132.835 206.206 130.79 207.562C128.635 208.982 127.753 212.062 128.898 214.159C128.995 214.367 129.01 214.603 128.939 214.821C128.868 215.038 128.717 215.221 128.516 215.331C128.315 215.441 128.08 215.47 127.858 215.413C127.637 215.356 127.445 215.217 127.323 215.023C125.725 212.098 126.873 207.999 129.798 206.059C132.462 204.302 136.231 204.354 139.176 206.185C141.727 207.774 143.626 210.602 144.385 213.943C145.127 217.215 144.515 221.402 141.473 223.393C140.544 223.996 139.504 224.327 138.499 224.644C137.239 225.045 136.048 225.42 135.317 226.287C133.769 228.118 135.049 231.095 135.477 231.963C135.55 232.143 135.658 232.308 135.796 232.443C135.918 232.386 136.034 232.321 136.145 232.245C138.341 230.841 140.832 229.25 143.701 229.189C144.202 229.178 144.691 229.216 145.163 229.252C145.657 229.304 146.154 229.32 146.65 229.304C147.56 229.239 148.437 228.933 149.19 228.42C149.944 227.907 150.549 227.202 150.943 226.379C150.992 226.271 151.063 226.174 151.149 226.095C151.236 226.014 151.337 225.951 151.448 225.911C151.559 225.868 151.677 225.85 151.795 225.855C151.913 225.859 152.029 225.886 152.137 225.936C152.244 225.985 152.341 226.055 152.422 226.14C152.502 226.228 152.565 226.329 152.606 226.44C152.647 226.55 152.667 226.669 152.662 226.786C152.658 226.905 152.63 227.02 152.581 227.128C152.048 228.249 151.228 229.207 150.205 229.907C149.181 230.604 147.99 231.021 146.754 231.111C146.177 231.131 145.598 231.113 145.024 231.057C144.596 231.016 144.168 230.996 143.739 230.998C141.374 231.048 139.111 232.494 137.115 233.77C136.719 234.051 136.25 234.211 135.765 234.229ZM160.812 225.771C159.154 225.794 157.548 225.193 156.312 224.087C156.137 223.924 156.034 223.699 156.025 223.46C156.017 223.222 156.103 222.989 156.266 222.814C156.428 222.639 156.654 222.536 156.892 222.528C157.131 222.519 157.363 222.606 157.538 222.768C158.911 224.044 161.138 224.343 162.979 223.506C164.722 222.705 166.068 220.928 166.493 218.867C166.943 216.644 166.268 214.308 164.774 212.915C163.215 211.469 160.702 211.172 159.05 212.24C158.348 212.69 157.765 213.365 157.151 214.079C156.323 215.035 155.468 216.025 154.226 216.594C154.115 216.645 153.995 216.673 153.874 216.676C153.752 216.679 153.631 216.658 153.518 216.613C153.405 216.568 153.302 216.5 153.215 216.414C153.129 216.328 153.061 216.226 153.016 216.113C151.391 212.081 149.897 207.936 148.576 203.798C148.392 203.218 148.048 202.14 148.556 201.182C148.961 200.412 149.74 200.057 150.37 199.811C151.355 199.447 152.395 199.177 153.418 198.911C155.893 198.272 158.229 197.667 159.493 195.836C159.629 195.641 159.838 195.507 160.072 195.465C160.306 195.423 160.547 195.475 160.743 195.61C160.939 195.746 161.073 195.953 161.116 196.187C161.16 196.421 161.108 196.663 160.974 196.859C159.325 199.242 156.55 199.96 153.866 200.655C152.851 200.918 151.893 201.166 150.993 201.499C150.687 201.611 150.266 201.789 150.145 202.021C149.989 202.311 150.185 202.921 150.289 203.249C151.488 207.007 152.831 210.769 154.287 214.445C154.833 213.976 155.337 213.459 155.792 212.9C156.467 212.123 157.158 211.325 158.074 210.728C160.423 209.207 163.831 209.581 166 211.595C167.953 213.408 168.84 216.403 168.25 219.229C167.715 221.841 165.98 224.107 163.726 225.141C162.811 225.558 161.817 225.774 160.812 225.771ZM172.114 203.247C171.742 203.251 171.374 203.18 171.03 203.04C170.686 202.899 170.374 202.691 170.111 202.428C169.89 202.207 169.716 201.944 169.6 201.654C169.484 201.364 169.429 201.053 169.436 200.741C169.388 200.435 169.414 200.123 169.513 199.83C169.612 199.536 169.78 199.272 170.004 199.058C170.381 198.683 170.847 198.409 171.358 198.26C171.868 198.111 172.409 198.092 172.929 198.205C173.314 198.318 173.665 198.524 173.953 198.803C174.242 199.082 174.457 199.428 174.582 199.809C174.73 200.201 174.78 200.623 174.727 201.038C174.675 201.453 174.523 201.849 174.283 202.192C174.05 202.502 173.751 202.756 173.409 202.937C173.066 203.118 172.688 203.222 172.301 203.241C172.258 203.245 172.182 203.247 172.114 203.247ZM172.28 199.922C172.009 199.928 171.745 200.005 171.513 200.147C171.386 200.209 171.28 200.308 171.212 200.433C171.252 200.559 171.261 200.693 171.239 200.824C171.247 200.96 171.309 201.088 171.41 201.18C171.515 201.276 171.638 201.35 171.773 201.395C171.908 201.44 172.051 201.457 172.193 201.443C172.317 201.441 172.44 201.412 172.552 201.358C172.665 201.304 172.764 201.226 172.843 201.13C172.907 201.022 172.946 200.9 172.956 200.774C172.965 200.649 172.946 200.522 172.899 200.405C172.87 200.3 172.816 200.202 172.741 200.121C172.667 200.04 172.575 199.978 172.472 199.94C172.409 199.927 172.345 199.921 172.28 199.924V199.922ZM176.227 219.562C175.994 219.562 175.77 219.471 175.602 219.31C175.434 219.148 175.335 218.928 175.327 218.695C174.957 208.868 176.279 199.05 179.235 189.67C179.31 189.447 179.47 189.262 179.68 189.155C179.89 189.048 180.133 189.027 180.358 189.098C180.583 189.169 180.771 189.325 180.882 189.533C180.993 189.741 181.018 189.984 180.952 190.21C178.057 199.394 176.763 209.008 177.127 218.63C177.135 218.868 177.049 219.1 176.886 219.275C176.724 219.45 176.499 219.553 176.26 219.562H176.227ZM183.917 216.061C183.375 216.059 182.846 215.895 182.398 215.59C181.773 215.161 181.444 214.542 181.498 213.968C181.324 213.447 181.302 212.887 181.433 212.353C181.593 211.715 181.977 211.155 182.515 210.777C183.053 210.398 183.709 210.225 184.364 210.29C185.019 210.355 185.629 210.653 186.082 211.13C186.535 211.607 186.802 212.231 186.833 212.888C186.874 213.564 186.68 214.233 186.286 214.783C185.571 215.698 184.714 216.061 183.917 216.061ZM183.548 214.18C183.641 214.223 183.741 214.249 183.843 214.258C184.192 214.288 184.518 214.099 184.835 213.694C184.974 213.472 185.037 213.212 185.015 212.951C185.025 212.714 184.944 212.482 184.788 212.303C184.633 212.125 184.414 212.012 184.178 211.989C183.942 211.967 183.706 212.035 183.519 212.181C183.332 212.327 183.208 212.539 183.172 212.773C183.125 212.957 183.125 213.148 183.172 213.331C183.23 213.412 183.274 213.501 183.303 213.595L183.323 213.622C183.461 213.776 183.541 213.973 183.548 214.18Z" fill="white"/>
<path d="M129.959 342.231C130.634 345.442 131.394 348.808 133.559 351.272C137.114 355.322 143.18 355.65 148.56 355.695L268.219 356.651C271.947 356.681 275.869 356.651 279.115 354.813C283.307 352.421 285.539 347.647 287.013 343.052C295.455 316.727 301.541 290.918 306.201 266.737C307.155 261.787 304.914 257.366 298.229 256.916C263.228 254.56 228.461 254.958 193.418 253.21C181.686 252.625 134.605 251.327 122.811 251.792C119.262 251.932 114.747 251.729 113.183 255.674C111.608 259.663 113.543 264.714 114.375 268.647L121.692 303.209L129.05 337.958L129.959 342.231Z" fill="#E5DD00"/>
<path d="M304.945 279.288C304.468 279.288 303.982 279.274 303.493 279.258C239.58 277.047 174.745 276.349 110.786 277.186C109.159 277.206 107.47 277.136 106.273 276.061C105.418 275.291 105.109 274.221 104.887 273.44L101.287 260.862C101.161 260.428 101.028 259.998 100.886 259.542C100.326 257.742 99.7455 255.874 99.813 253.928C99.9457 250.141 102.837 247.812 107.956 247.367C113.972 246.845 120.254 246.39 127.159 245.981C133.403 245.609 139.906 245.306 146.487 245.058C152.706 244.833 159.215 244.658 165.837 244.543C172.018 244.435 178.531 244.376 185.2 244.365C191.41 244.365 197.744 244.385 204.573 244.457C210.621 244.523 216.928 244.617 223.853 244.752C229.651 244.863 235.984 245.004 243.22 245.182C249.671 245.339 256.133 245.51 262.384 245.675C279.904 246.125 298.019 246.611 315.682 249.003C316.33 249.09 317.536 249.254 318.184 250.145C318.832 251.036 318.564 252.087 318.422 252.659L313.607 272.234C313.184 273.948 312.547 276.54 310.421 278.003C308.864 279.062 306.965 279.288 304.945 279.288ZM163.373 275.042C210.13 275.042 257.083 275.85 303.547 277.458C305.797 277.537 307.919 277.521 309.397 276.511C310.876 275.501 311.364 273.786 311.854 271.786L316.672 252.211C316.741 251.923 316.872 251.39 316.726 251.187C316.528 250.917 315.763 250.814 315.434 250.769C297.871 248.391 279.803 247.916 262.334 247.455C256.086 247.29 249.624 247.121 243.173 246.964C235.942 246.786 229.61 246.644 223.824 246.534C216.903 246.399 210.603 246.309 204.559 246.24C197.737 246.168 191.408 246.138 185.209 246.147C178.549 246.158 172.042 246.217 165.873 246.325C159.262 246.44 152.764 246.613 146.557 246.84C139.989 247.079 133.507 247.389 127.27 247.758C120.382 248.168 114.116 248.62 108.115 249.142C103.903 249.509 101.716 251.133 101.617 253.97C101.559 255.613 102.092 257.33 102.61 258.99C102.747 259.44 102.891 259.89 103.021 260.34L106.621 272.915C106.846 273.685 107.044 274.304 107.479 274.695C108.196 275.339 109.504 275.37 110.768 275.359C128.245 275.147 145.78 275.042 163.373 275.042Z" fill="#212121"/>
<path d="M75.8636 295.837C73.9466 295.837 72.3759 295.409 71.1047 294.547C68.8007 292.972 67.5452 289.919 67.7454 286.351C68.0379 281.16 72.0204 274.108 75.5934 269.755C82.5931 261.227 93.8051 255.503 105.588 254.443C105.707 254.432 105.826 254.446 105.939 254.482C106.052 254.515 106.157 254.574 106.248 254.65C106.339 254.725 106.415 254.819 106.47 254.925C106.525 255.028 106.559 255.143 106.569 255.262C106.58 255.382 106.567 255.499 106.532 255.613C106.496 255.726 106.439 255.832 106.363 255.922C106.287 256.014 106.194 256.088 106.089 256.144C105.983 256.198 105.868 256.232 105.75 256.243C94.4374 257.263 83.6844 262.744 76.9839 270.907C73.5887 275.042 69.8134 281.673 69.5434 286.461C69.3769 289.386 70.3374 291.861 72.1149 293.065C73.5099 294.012 75.4697 294.271 78.1067 293.854C83.9708 292.903 89.2826 289.834 93.0356 285.228C94.3856 283.556 95.4364 281.236 94.3384 279.736C93.8884 279.137 93.0964 278.694 91.9579 278.417C88.1081 277.483 83.7409 279.029 81.3356 282.177C81.1905 282.366 80.9761 282.492 80.7392 282.523C80.5025 282.555 80.263 282.49 80.0731 282.346C79.8835 282.202 79.7591 281.986 79.7273 281.749C79.6958 281.513 79.7595 281.272 79.9044 281.083C82.7304 277.387 87.8604 275.571 92.3829 276.667C93.9444 277.047 95.0829 277.722 95.7894 278.671C97.4927 280.996 96.2079 284.166 94.4394 286.36C90.4038 291.31 84.6929 294.61 78.3879 295.632C77.5532 295.765 76.709 295.834 75.8636 295.837ZM338.418 295.013C333.778 295.013 329.312 292.678 327.316 288.733C325.995 286.123 325.986 282.406 328.569 280.663C331.683 278.559 335.623 281.02 338.051 283.768C338.211 283.948 338.289 284.182 338.276 284.42C338.26 284.659 338.152 284.881 337.972 285.039C337.794 285.196 337.558 285.277 337.322 285.264C337.083 285.248 336.861 285.14 336.701 284.96C334.757 282.757 331.724 280.703 329.575 282.154C327.91 283.279 327.935 285.979 328.923 287.921C331.233 292.491 337.824 294.525 343.028 292.273C345.141 291.359 346.731 289.951 347.505 288.308C348.732 285.707 348.198 282.364 345.872 278.086C342.137 271.222 336.962 265.619 330.903 261.886C324.353 257.836 316.829 256.057 309.714 256.855C309.597 256.869 309.478 256.86 309.363 256.828C309.249 256.797 309.141 256.743 309.048 256.669C308.956 256.594 308.877 256.502 308.819 256.399C308.763 256.295 308.724 256.18 308.713 256.063C308.7 255.944 308.709 255.825 308.742 255.71C308.776 255.595 308.832 255.49 308.907 255.397C308.981 255.305 309.073 255.229 309.177 255.172C309.282 255.114 309.397 255.08 309.514 255.067C317.027 254.223 324.958 256.102 331.848 260.354C338.172 264.258 343.568 270.094 347.454 277.229C350.073 282.046 350.622 285.921 349.134 289.078C348.174 291.116 346.259 292.837 343.734 293.926C342.056 294.646 340.247 295.018 338.418 295.013Z" fill="#212121"/>
<path d="M154.955 340.186C153.2 340.186 151.377 339.689 150.437 338.546C148.682 336.411 148.13 333.709 147.599 331.094V331.04C145.262 319.581 142.166 308.288 138.332 297.238C137.549 294.988 136.595 290.88 139.007 288.742C140.458 287.453 142.132 286.828 143.732 286.976C144.363 287.035 144.975 287.224 145.529 287.534C146.082 287.845 146.564 288.268 146.942 288.776C148.637 290.97 150.065 296.201 151.121 300.503C154.464 314.138 157.022 322.04 158.716 327.278C160.478 332.723 161.207 334.975 160.53 337.16C160.08 338.596 158.681 339.635 156.676 340.038C156.108 340.144 155.532 340.193 154.955 340.186ZM140.021 296.649C143.882 307.773 146.999 319.142 149.352 330.68V330.736C149.84 333.133 150.347 335.612 151.827 337.403C152.502 338.213 154.545 338.605 156.305 338.26C156.937 338.137 158.44 337.729 158.78 336.616C159.288 334.975 158.611 332.881 156.98 327.82C155.279 322.569 152.704 314.629 149.35 300.928C148.756 298.501 147.174 292.048 145.496 289.874C145.267 289.561 144.975 289.3 144.637 289.111C144.3 288.92 143.926 288.803 143.54 288.769C142.469 288.668 141.248 289.15 140.188 290.088C138.503 291.584 139.513 295.175 140.024 296.649H140.021ZM181.601 339.82C181.457 339.82 181.313 339.82 181.167 339.799C178.433 339.52 176.746 336.899 176.534 332.599C176.327 328.365 175.981 324.079 175.506 319.86C174.662 312.379 173.408 304.949 171.749 297.605C171.551 296.728 171.33 295.834 171.114 294.973C170.889 294.028 170.639 293.051 170.423 292.084C170.207 291.116 169.825 289.384 170.689 288.034C170.967 287.593 171.35 287.228 171.804 286.972C172.257 286.713 172.767 286.571 173.288 286.558C175.626 286.416 178.463 288.218 179.529 289.516C181.581 292.03 181.984 295.31 182.31 297.945L186.401 331.155C186.605 332.815 186.837 334.699 186.144 336.499C185.487 338.2 183.746 339.82 181.601 339.82ZM178.334 332.516C178.431 334.462 178.949 337.763 181.35 338.008C182.727 338.146 184.016 337.018 184.468 335.844C184.999 334.465 184.796 332.82 184.616 331.369L180.526 298.156C180.213 295.627 179.851 292.756 178.136 290.648C177.326 289.656 174.986 288.252 173.398 288.346C173.161 288.344 172.929 288.403 172.721 288.515C172.513 288.628 172.338 288.792 172.212 288.992C171.8 289.638 171.956 290.673 172.183 291.692C172.394 292.639 172.633 293.605 172.858 294.538C173.083 295.411 173.308 296.311 173.499 297.207C175.174 304.616 176.44 312.113 177.291 319.66C177.77 323.914 178.118 328.239 178.328 332.512L178.334 332.516ZM206.56 339.327C204.929 339.327 203.363 338.593 202.843 337.707C201.921 336.132 201.826 334.287 201.752 332.802L200.177 301.725C200.123 300.656 200.06 299.585 199.997 298.516C199.871 296.401 199.743 294.214 199.687 292.059C199.655 290.491 200.244 288.974 201.325 287.838C201.732 287.417 202.222 287.084 202.764 286.861C203.307 286.639 203.889 286.531 204.475 286.544C206.612 286.587 208.637 288.031 209.634 290.225C210.482 292.084 210.52 294.122 210.554 295.92C210.633 300.096 210.739 304.342 210.842 308.446C211.049 316.667 211.263 325.165 211.263 333.533C211.263 337.626 209.137 338.814 207.87 339.158C207.443 339.273 207.003 339.329 206.56 339.327ZM204.378 288.342C204.044 288.342 203.714 288.409 203.407 288.54C203.1 288.673 202.824 288.866 202.594 289.107C201.857 289.894 201.453 290.934 201.469 292.012C201.525 294.138 201.653 296.309 201.779 298.411C201.842 299.484 201.905 300.559 201.959 301.633L203.534 332.712C203.602 334.062 203.68 335.605 204.378 336.796C204.583 337.12 206.05 337.804 207.413 337.412C209.089 336.931 209.438 335.038 209.438 333.533C209.438 325.188 209.224 316.701 209.017 308.491C208.914 304.382 208.808 300.134 208.729 295.954C208.698 294.253 208.664 292.491 207.971 290.97C207.388 289.687 206.061 288.376 204.414 288.344L204.378 288.342ZM259.738 340.267C258.062 340.267 255.562 339.484 254.998 337.876C254.462 336.352 254.725 334.764 254.937 333.486C255.704 328.842 257.266 322.994 258.519 318.294L259.005 316.476C259.61 314.19 260.256 312.097 260.94 309.883C261.552 307.897 262.184 305.845 262.787 303.64C262.999 302.861 263.21 302.078 263.417 301.291C264.25 298.163 265.109 294.93 266.279 291.865C267.78 287.932 270.007 286.308 272.905 287.037C274.255 287.377 275.243 288.101 275.853 289.186C277.358 291.87 276.078 296.012 275.223 298.755C275.16 298.953 275.101 299.142 275.047 299.322L263.811 336.181C263.305 337.846 262.461 339.806 260.506 340.2C260.254 340.247 259.997 340.27 259.738 340.267ZM271.612 288.666C270.464 288.666 269.15 289.388 267.96 292.509C266.835 295.483 265.975 298.672 265.156 301.754C264.949 302.546 264.738 303.331 264.524 304.114C263.914 306.346 263.275 308.414 262.659 310.414C261.984 312.61 261.34 314.689 260.744 316.939C260.587 317.527 260.425 318.136 260.258 318.762C259.014 323.422 257.466 329.222 256.712 333.781C256.487 335.101 256.341 336.276 256.696 337.282C256.921 337.943 259.059 338.656 260.152 338.438C260.956 338.276 261.554 337.419 262.09 335.659L273.326 298.798C273.38 298.618 273.441 298.424 273.504 298.224C274.217 295.924 275.41 292.077 274.282 290.07C273.92 289.422 273.326 289.003 272.464 288.785C272.188 288.711 271.9 288.67 271.612 288.666ZM232.864 339.82C231.465 339.82 230.344 339.316 229.912 338.47C229.136 336.969 229.172 335.32 229.282 333.632C229.757 326.362 232.104 306.67 232.684 303.779C232.909 302.616 233.134 301.27 233.346 299.846C234.05 295.294 234.777 290.585 236.707 288.796C238.485 287.147 240.739 286.625 242.888 287.368C246.409 288.583 245.347 292.795 244.947 294.381C242.287 304.92 240.985 312.658 239.374 324.101C239.25 324.983 239.135 326.043 239.011 327.166C238.636 330.604 238.17 334.881 237.065 337.516C236.39 339.106 234.59 339.736 233.107 339.797L232.864 339.82ZM231.078 333.758C230.986 335.187 230.947 336.562 231.51 337.651C231.575 337.772 232.099 338.051 233.033 338.017C233.967 337.984 235.087 337.599 235.402 336.841C236.408 334.435 236.86 330.3 237.223 326.977C237.346 325.852 237.463 324.767 237.592 323.858C239.212 312.352 240.517 304.567 243.201 293.947C243.952 290.968 243.691 289.555 242.301 289.075C240.8 288.558 239.207 288.938 237.931 290.124C236.462 291.487 235.72 296.278 235.126 300.127C234.901 301.572 234.691 302.938 234.451 304.139C233.877 306.999 231.553 326.533 231.076 333.758H231.078Z" fill="white"/>
<path d="M135.009 342.441C135.43 344.568 135.898 346.8 137.317 348.438C139.196 350.604 142.267 351.212 145.084 351.693C146.558 351.945 148.612 351.813 148.855 350.343C148.997 349.493 148.365 348.721 147.73 348.129C145.408 345.938 142.531 344.322 140.573 341.8C138.355 338.943 137.549 335.322 135.895 332.159C135.479 331.362 134.293 329.612 133.101 330.399C132.16 331.018 133.409 334.364 133.598 335.32L135.009 342.441ZM195.96 168.978C195.91 168.978 195.86 168.973 195.811 168.964C195.576 168.925 195.366 168.794 195.227 168.6C195.088 168.406 195.032 168.165 195.071 167.93C195.326 166.429 195.895 164.999 196.74 163.733C196.807 163.635 196.892 163.551 196.991 163.485C197.091 163.42 197.202 163.375 197.319 163.353C197.435 163.33 197.554 163.331 197.67 163.355C197.786 163.379 197.896 163.425 197.994 163.493C199.011 164.183 199.916 165.025 200.678 165.99C200.752 166.083 200.807 166.189 200.839 166.303C200.872 166.417 200.882 166.536 200.869 166.654C200.855 166.772 200.819 166.886 200.761 166.99C200.704 167.094 200.627 167.185 200.534 167.259C200.441 167.333 200.335 167.388 200.221 167.421C200.107 167.453 199.987 167.463 199.87 167.45C199.752 167.436 199.638 167.4 199.534 167.343C199.43 167.285 199.339 167.208 199.265 167.115C198.816 166.546 198.307 166.026 197.748 165.565C197.31 166.402 197.006 167.304 196.848 168.235C196.811 168.444 196.702 168.633 196.539 168.769C196.377 168.905 196.171 168.979 195.96 168.978ZM219.351 165.499C219.191 165.499 219.034 165.457 218.896 165.377C218.758 165.297 218.644 165.181 218.566 165.042C218.487 164.903 218.447 164.746 218.449 164.586C218.451 164.426 218.496 164.27 218.579 164.133C218.886 163.585 219.154 163.016 219.382 162.43C219.981 160.997 220.548 159.642 221.837 159.561C223.009 159.487 224.127 160.563 225.688 163.274C225.749 163.376 225.787 163.489 225.803 163.606C225.816 163.724 225.809 163.843 225.778 163.957C225.749 164.071 225.695 164.178 225.623 164.272C225.551 164.366 225.461 164.444 225.359 164.503C225.256 164.563 225.143 164.601 225.026 164.616C224.909 164.632 224.79 164.624 224.676 164.593C224.562 164.563 224.455 164.51 224.361 164.438C224.268 164.366 224.189 164.276 224.13 164.174C222.755 161.787 222.105 161.422 221.963 161.368C221.697 161.559 221.288 162.536 221.043 163.128C220.783 163.794 220.475 164.442 220.123 165.065C220.042 165.198 219.929 165.307 219.794 165.383C219.658 165.46 219.506 165.499 219.351 165.499ZM242.169 161.622C242.079 161.623 241.989 161.61 241.901 161.582C241.674 161.512 241.483 161.353 241.373 161.142C241.26 160.932 241.238 160.685 241.307 160.457C242.183 157.629 243.119 156.353 244.345 156.317C245.978 156.274 246.82 158.54 247.283 159.76C247.317 159.854 247.349 159.935 247.373 159.998C247.459 160.22 247.454 160.466 247.36 160.684C247.263 160.902 247.085 161.073 246.865 161.16C246.644 161.248 246.397 161.244 246.179 161.15C245.96 161.056 245.789 160.88 245.699 160.66C245.67 160.588 245.636 160.495 245.596 160.389C244.955 158.67 244.565 158.241 244.397 158.139C244.253 158.243 243.722 158.758 243.029 160.992C242.972 161.175 242.858 161.335 242.702 161.448C242.547 161.562 242.36 161.623 242.169 161.622ZM270.033 168.24C269.824 168.24 269.624 168.168 269.462 168.035C269.302 167.902 269.192 167.718 269.151 167.513C268.967 166.58 268.688 165.668 268.316 164.791C268.285 164.715 268.238 164.646 268.179 164.589C268.121 164.532 268.051 164.486 267.974 164.456C267.898 164.426 267.815 164.412 267.734 164.414C267.65 164.417 267.569 164.435 267.495 164.469L264.815 165.698C264.599 165.789 264.359 165.792 264.14 165.707C263.922 165.623 263.744 165.456 263.648 165.243C263.551 165.031 263.54 164.788 263.618 164.568C263.695 164.347 263.857 164.166 264.066 164.062L266.744 162.833C267.038 162.699 267.356 162.626 267.68 162.617C268.001 162.607 268.323 162.663 268.625 162.78C268.926 162.898 269.201 163.074 269.432 163.299C269.664 163.524 269.849 163.794 269.975 164.091C270.393 165.082 270.71 166.112 270.917 167.167C270.94 167.283 270.94 167.403 270.917 167.519C270.895 167.635 270.848 167.745 270.782 167.843C270.715 167.941 270.632 168.026 270.533 168.091C270.434 168.156 270.323 168.202 270.206 168.224C270.15 168.235 270.092 168.24 270.033 168.24ZM286.051 180.633C285.817 180.633 285.59 180.541 285.421 180.376C285.252 180.211 285.155 179.987 285.151 179.751L285.106 177.452C284.525 177.651 283.967 177.913 283.443 178.235C283.344 178.297 283.232 178.338 283.115 178.357C282.998 178.376 282.878 178.372 282.764 178.344C282.649 178.317 282.541 178.268 282.444 178.198C282.347 178.129 282.266 178.042 282.206 177.941C282.143 177.841 282.102 177.729 282.082 177.612C282.064 177.495 282.068 177.376 282.095 177.261C282.122 177.146 282.172 177.037 282.242 176.942C282.311 176.846 282.399 176.765 282.498 176.702C283.211 176.265 283.974 175.917 284.771 175.667C285.014 175.589 285.27 175.568 285.52 175.607C285.772 175.647 286.01 175.744 286.215 175.892C286.424 176.041 286.595 176.236 286.715 176.462C286.834 176.689 286.897 176.94 286.901 177.195L286.951 179.704C286.953 179.822 286.933 179.94 286.89 180.05C286.847 180.16 286.782 180.26 286.701 180.346C286.618 180.431 286.521 180.499 286.413 180.547C286.305 180.594 286.188 180.62 286.069 180.622L286.051 180.633ZM299.96 196.325C299.744 196.324 299.535 196.245 299.371 196.101C299.209 195.959 299.103 195.761 299.072 195.546C299.042 195.331 299.092 195.113 299.211 194.931C299.33 194.75 299.51 194.617 299.72 194.558C299.985 194.478 300.233 194.345 300.446 194.167C300.658 193.989 300.833 193.77 300.959 193.523C299.965 193.245 298.943 193.077 297.911 193.022C297.794 193.015 297.677 192.986 297.571 192.935C297.463 192.884 297.368 192.812 297.29 192.724C297.211 192.636 297.15 192.533 297.11 192.421C297.071 192.31 297.053 192.191 297.06 192.073C297.067 191.955 297.096 191.839 297.146 191.732C297.197 191.626 297.269 191.53 297.357 191.451C297.445 191.372 297.548 191.311 297.661 191.272C297.771 191.232 297.89 191.215 298.007 191.222C299.49 191.301 300.955 191.586 302.357 192.07C302.548 192.136 302.712 192.265 302.822 192.435C302.933 192.606 302.98 192.809 302.96 193.01C302.874 193.768 302.568 194.482 302.078 195.066C301.587 195.649 300.935 196.074 300.203 196.289C300.125 196.312 300.044 196.324 299.96 196.325ZM303.59 220.953C303.383 220.952 303.182 220.88 303.023 220.748C302.861 220.617 302.753 220.434 302.71 220.231C302.534 219.371 303.268 219.004 305.039 218.116C305.34 217.965 305.736 217.765 306.098 217.573L305.648 217.382C304.744 217.019 303.862 216.604 303.005 216.14C302.809 216.011 302.669 215.809 302.618 215.579C302.568 215.348 302.611 215.107 302.737 214.907C302.863 214.708 303.061 214.565 303.29 214.511C303.52 214.457 303.763 214.495 303.963 214.617C304.35 214.86 305.466 215.341 306.362 215.731C307.109 216.052 307.754 216.331 308.117 216.522C308.288 216.608 308.432 216.74 308.533 216.903C308.632 217.066 308.684 217.254 308.681 217.445C308.681 218.269 307.853 218.712 305.835 219.724C305.345 219.972 304.627 220.332 304.355 220.514C304.292 220.622 304.206 220.715 304.103 220.787C304.001 220.86 303.884 220.91 303.761 220.935C303.704 220.946 303.648 220.952 303.59 220.953Z" fill="white"/>
</svg>
