<svg width="184" height="113" viewBox="0 0 184 113" fill="none" xmlns="http://www.w3.org/2000/svg">
<path d="M104.58 22.2366C103.954 22.9017 103.119 23.3317 102.213 23.4546C101.536 23.5728 100.84 23.5205 100.187 23.3024C99.535 23.0843 98.9472 22.7073 98.4769 22.2053C97.8699 21.5743 97.4776 20.7676 97.3561 19.9004C97.2249 19.0351 97.3652 18.1504 97.7576 17.3681C98.15 16.5858 98.7751 15.9444 99.547 15.5322C100.016 15.275 100.533 15.1162 101.066 15.0656C101.148 15.0656 101.236 15.0656 101.298 15H101.799C101.99 15.1193 102.213 15.085 102.419 15.1267C103.275 15.3062 104.054 15.7467 104.649 16.3875C105.244 17.0283 105.626 17.8379 105.741 18.7048C105.837 19.3432 105.781 19.9952 105.58 20.6084C105.378 21.2217 105.036 21.7792 104.58 22.2366Z" fill="#D9D9D9"/>
<path d="M122.931 50.1056C123.17 50.0193 123.234 50.2203 123.042 50.3877C122.836 50.5673 122.617 50.7317 122.387 50.8794C121.169 51.7807 119.815 52.4818 118.376 52.9561C117.462 53.2663 116.502 53.4176 115.537 53.4034C114.515 53.3862 113.509 53.1513 112.585 52.7142C111.661 52.2772 110.841 51.6481 110.18 50.869C109.892 50.5007 109.648 50.1005 109.453 49.6763C108.552 47.9699 107.77 46.2035 107.111 44.3897C106.867 43.7233 106.718 43.0196 106.524 42.3338C106.113 40.8818 105.75 39.4148 105.235 37.994C104.773 36.7223 104.191 35.5177 103.313 34.4681C102.782 33.842 102.149 33.3085 101.443 32.8893C100.742 32.4585 100.048 32.5017 99.3429 32.8759C98.7778 33.1833 98.2552 33.5632 97.7884 34.006C96.485 35.2309 95.32 36.5953 94.3142 38.0745C92.6016 40.5374 90.9279 43.0271 89.2303 45.5019C88.2234 47.0064 87.1284 48.4501 85.9513 49.8254C84.8662 51.0657 83.6903 52.2107 82.2505 53.0486C81.3241 53.5945 80.2756 53.8995 79.201 53.9356C77.5615 53.9968 76.1456 53.4317 74.8355 52.5178C73.0678 51.2834 71.7369 49.6435 70.5624 47.8634C70.0141 47.0258 69.5164 46.156 69.0719 45.2589C67.3758 41.8598 65.6757 38.4626 63.9716 35.0675C63.9165 34.9556 63.8882 34.82 63.7347 34.7469C63.5589 35.0261 63.4196 35.3268 63.3203 35.6414C62.7352 37.1698 62.4945 38.8084 62.6153 40.4405C62.7267 41.9166 63.182 43.3462 63.9448 44.6148C64.766 46.0118 66.0357 46.6463 67.3145 47.6243C67.7486 48.0303 68.037 48.1469 67.5157 48.4326C67.3162 48.5419 67.1439 48.6279 67.0867 48.6565C66.0672 49.2052 64.9613 49.3483 63.8315 49.2752C62.5926 49.2111 61.3717 48.9509 60.2142 48.5045C59.7484 48.3225 59.302 48.0942 58.8818 47.8231C58.2055 46.6472 57.6583 45.4016 57.2497 44.108C56.869 42.9314 56.6191 41.7165 56.5045 40.4852C56.4335 39.726 56.4206 38.9624 56.4657 38.2012C56.5692 36.5482 56.9595 34.9258 57.6194 33.4066C58.0938 32.2755 58.7104 31.2094 59.4541 30.2341C60.2619 29.1905 61.2426 28.384 62.514 27.9844C64.0462 27.5059 65.4949 27.725 66.8706 28.5331C67.7902 29.0727 68.4996 29.8435 69.1241 30.6948C70.1287 32.0649 70.9127 33.5632 71.6236 35.0988C72.1944 36.3302 72.728 37.5795 73.3302 38.7946C73.9099 39.9694 74.5568 41.1099 75.1753 42.2653C75.6299 43.1151 76.0964 43.9604 76.5406 44.8161C76.8703 45.425 77.3053 45.9707 77.8253 46.4277C78.1905 46.7602 78.3574 46.7527 78.7584 46.4411C79.321 45.9805 79.83 45.4579 80.2756 44.8832C82.1789 42.5709 83.8348 40.0827 85.4922 37.5929C86.4834 36.1021 87.5699 34.6873 88.6013 33.2292C89.3322 32.1857 90.1287 31.1898 90.986 30.2475C92.4899 28.6076 94.1159 27.1168 96.1236 26.0881C97.1166 25.5695 98.1924 25.228 99.3027 25.0788C100.905 24.8791 102.532 25.1273 104.002 25.7959C105.343 26.3907 106.58 27.1959 107.667 28.1812C108.936 29.3407 110.006 30.7005 110.834 32.2065C111.915 34.1044 112.612 36.1498 113.177 38.2459C113.794 40.5299 114.385 42.8214 115.058 45.086C115.308 46.0114 115.779 46.8622 116.431 47.5652C116.607 47.7469 116.847 47.8774 117.029 48.0525C117.958 48.9445 118.975 49.705 120.235 50.1056C121.11 50.3926 122.055 50.3926 122.931 50.1056Z" fill="#D9D9D9"/>
<path d="M127.11 39.7591C126.974 42.1281 126.56 44.4404 125.627 46.6379C125.169 47.7267 124.562 48.7471 123.825 49.6703C123.601 49.9757 123.218 50.0997 122.858 50.2182C122.712 50.2662 122.565 50.3116 122.414 50.3442C121.445 50.5175 120.447 50.383 119.559 49.9595C118.516 49.4929 117.631 48.7877 116.819 47.9901C116.705 47.8793 116.834 47.7625 116.987 47.7219C118.25 47.388 119.207 46.6318 119.908 45.5168C120.469 44.5859 120.851 43.5585 121.035 42.4874C121.373 40.7565 121.393 39.0077 121.281 37.2545C121.201 36.0182 121.048 34.7877 120.825 33.5691C120.796 33.4108 120.578 33.3842 120.504 33.5267C119.479 35.4745 118.471 37.3885 117.454 39.3208C117.092 40.0085 116.083 39.9354 115.827 39.2016C115.139 37.2366 114.455 35.2687 113.759 33.3052C113.713 33.198 113.694 33.0814 113.702 32.9651C113.711 32.8488 113.748 32.7364 113.809 32.6373C114.398 31.5938 114.993 30.5412 115.728 29.5826C116.462 28.624 117.333 27.7936 118.457 27.2763C120.6 26.2819 122.882 26.6904 124.527 28.3825C125.149 29.0444 125.644 29.8144 125.989 30.6545C126.448 31.7419 126.754 32.888 126.897 34.0596C127.148 35.9485 127.219 37.8568 127.11 39.7591Z" fill="#D9D9D9"/>
<path d="M109.041 53.0547C109.083 53.1043 109.113 53.1915 109.061 53.2305C107.719 54.3054 106.284 55.2133 104.622 55.6934C101.754 56.5208 99.158 55.9662 96.8478 54.0833C95.7285 53.1694 94.8313 52.0557 94.0488 50.8541C93.1843 49.5258 92.3556 48.1706 91.5076 46.8393C91.4516 46.7729 91.4201 46.6893 91.4182 46.6026C91.4163 46.5158 91.4442 46.4309 91.4971 46.3622C93.0114 44.0225 94.5203 41.6794 96.0236 39.3328C96.0732 39.2541 96.1828 39.2275 96.2385 39.302C96.2836 39.3624 96.3121 39.4355 96.3485 39.5013C97.7823 41.8867 99.2142 44.2775 100.644 46.6738C100.905 47.1139 101.305 47.4535 101.782 47.6379C102.259 47.8223 102.784 47.8409 103.273 47.6905C103.444 47.6382 103.605 47.557 103.749 47.4505C104.195 47.1329 104.615 46.7783 105.002 46.3905C105.07 46.3136 105.133 46.2327 105.191 46.1483C105.219 46.1081 105.272 46.0946 105.315 46.1186C105.334 46.1295 105.349 46.1472 105.356 46.1682C105.795 47.4139 106.314 48.6296 106.911 49.8075C107.484 50.974 108.2 52.0647 109.041 53.0547Z" fill="#D9D9D9"/>
<path d="M88.6252 29.3128C87.2957 30.8707 85.9886 32.4436 84.7381 34.0716C84.7098 34.1083 84.6815 34.1451 84.6532 34.182C84.2495 34.7089 83.4793 34.7632 82.948 34.3653C82.708 34.1898 82.4478 34.0436 82.173 33.93C82.0765 33.8842 81.9688 33.8675 81.863 33.8817C81.7572 33.896 81.6577 33.9408 81.5768 34.0105C81.2597 34.2634 80.985 34.5654 80.7631 34.905C80.261 35.6871 79.8566 36.5277 79.5588 37.4081C78.97 39.0078 78.5482 40.6552 78.1279 42.3041C78.115 42.353 78.1016 42.4016 78.0881 42.4499C78.0524 42.5783 77.9369 42.646 77.8701 42.5307L72.8682 33.6646C72.8206 33.6052 72.7902 33.534 72.7803 33.4586C72.7703 33.3831 72.7811 33.3064 72.8115 33.2367C73.591 31.5073 74.5404 29.8928 75.9221 28.5689C77.2426 27.3031 78.7733 26.4325 80.5976 26.1269C82.1121 25.884 83.6644 26.0709 85.0779 26.6666C86.3877 27.2168 87.5928 27.9889 88.6401 28.949C88.758 29.0571 88.7037 29.2207 88.6252 29.3128Z" fill="#D9D9D9"/>
<path d="M66.6754 20.4926C66.6486 22.9033 64.635 24.7475 62.4157 24.667C61.8605 24.6736 61.3096 24.5693 60.7952 24.3602C60.2808 24.1511 59.8133 23.8414 59.4201 23.4493C59.0269 23.0573 58.7158 22.5906 58.5052 22.0768C58.2945 21.5629 58.1885 21.0122 58.1933 20.4569C58.1853 19.8932 58.2898 19.3336 58.5005 18.8108C58.7112 18.288 59.024 17.8124 59.4205 17.4118C59.8171 17.0113 60.2894 16.6937 60.81 16.4778C61.3306 16.2619 61.889 16.152 62.4525 16.1543C63.0161 16.1567 63.5735 16.2714 64.0923 16.4917C64.611 16.712 65.0807 17.0335 65.4738 17.4373C65.867 17.8412 66.1757 18.3194 66.382 18.844C66.5883 19.3686 66.6881 19.9291 66.6754 20.4926Z" fill="#D9D9D9"/>
<path d="M125.579 20.5166C125.566 21.3572 125.304 22.175 124.825 22.866C124.346 23.557 123.673 24.0901 122.891 24.3974C122.108 24.7047 121.252 24.7725 120.431 24.5921C119.611 24.4117 118.862 23.9912 118.28 23.3842C117.699 22.7771 117.311 22.0108 117.166 21.1827C117.021 20.3546 117.125 19.5021 117.466 18.7334C117.806 17.9648 118.367 17.3147 119.078 16.8658C119.789 16.417 120.617 16.1896 121.457 16.2125C122.572 16.2441 123.629 16.7134 124.4 17.5189C125.172 18.3244 125.595 19.4012 125.579 20.5166Z" fill="#D9D9D9"/>
<path d="M87.4225 20.445C87.4234 21.2841 87.1752 22.1046 86.7095 22.8025C86.2438 23.5004 85.5814 24.0444 84.8063 24.3654C84.0313 24.6865 83.1784 24.7702 82.3557 24.6059C81.5331 24.4417 80.7777 24.0369 80.1852 23.4428C79.5927 22.8487 79.1899 22.0921 79.0277 21.2688C78.8656 20.4455 78.9513 19.5926 79.2742 18.8181C79.5971 18.0436 80.1425 17.3825 80.8414 16.9183C81.5403 16.4542 82.3612 16.208 83.2 16.211C84.3212 16.2125 85.3959 16.6595 86.1877 17.4535C86.9795 18.2474 87.4237 19.3235 87.4225 20.445Z" fill="#D9D9D9"/>
<path d="M72.2817 53.8107C72.2974 53.8368 72.3001 53.8701 72.2828 53.8952C72.2763 53.9045 72.2696 53.91 72.2618 53.9183C72.0119 54.1862 69.4282 55.0787 67.9376 54.8738C66.3547 54.6725 64.9686 53.9927 63.6272 53.1653C61.9698 52.1351 60.7268 50.7143 59.6611 49.1131C59.3774 48.7012 59.1162 48.2742 58.8787 47.834C58.9994 47.7788 59.0843 47.8668 59.1693 47.9145C60.3354 48.541 61.6091 48.9421 62.9237 49.0967C64.0535 49.2458 65.1773 49.2533 66.2802 48.9074C66.7147 48.7821 67.12 48.5718 67.4726 48.2887C67.8044 48.0565 68.2063 48.0519 68.4491 48.376C69.4658 49.7335 71.8749 53.1356 72.2817 53.8107Z" fill="#D9D9D9"/>
<path d="M168.533 81.392C168.52 81.1151 168.507 80.8396 168.468 80.5627C168.265 79.117 167.837 77.7121 167.2 76.3989C166.366 74.6731 165.196 73.1312 163.758 71.8636C162.32 70.5959 160.644 69.628 158.828 69.0165C157.072 68.4211 155.214 68.1815 153.364 68.3119C152.372 68.3786 151.39 68.5432 150.43 68.8034C147.512 69.6014 144.926 71.3156 143.054 73.6935C141.17 76.035 140.164 78.7345 139.954 81.7269C139.884 82.7565 139.933 83.7907 140.099 84.8092C140.678 88.5027 142.672 91.8255 145.659 94.0734C147.109 95.1762 148.759 95.9876 150.517 96.4627C151.374 96.7057 152.254 96.8559 153.142 96.9107C153.73 96.9515 154.32 96.9612 154.909 96.9397C155.498 96.9143 156.085 96.8552 156.667 96.7628C158.291 96.4891 159.855 95.9337 161.288 95.1216C161.702 94.8838 161.627 94.9128 161.841 95.2463C162.288 95.9616 162.969 96.499 163.768 96.766C164.568 97.033 165.435 97.0129 166.222 96.7091C167.526 96.2148 168.355 95.2753 168.541 93.84C168.553 93.7969 168.573 93.7562 168.599 93.7196V81.6863C168.503 81.5979 168.538 81.492 168.533 81.392ZM154.26 89.6254C152.403 89.6208 150.624 88.88 149.312 87.5655C148.001 86.2509 147.264 84.4699 147.263 82.6127C147.263 78.5533 150.648 75.5478 154.276 75.6261C158.051 75.558 161.308 78.7258 161.289 82.6432C161.274 84.4987 160.526 86.273 159.21 87.5804C157.894 88.8879 156.115 89.6228 154.26 89.6254Z" fill="#D9D9D9"/>
<path d="M135.065 93.1637C135.065 94.6425 134.427 95.7733 133.138 96.5084C132.432 96.8799 131.626 97.0151 130.838 96.894C130.049 96.7729 129.32 96.402 128.758 95.8357C128.201 95.2698 127.847 94.535 127.752 93.7465C127.727 93.3666 127.727 92.9854 127.752 92.6055C127.76 89.3599 127.76 86.1142 127.752 82.8686C127.752 81.4406 127.435 80.0894 126.645 78.8788C125.578 77.239 124.104 76.172 122.182 75.7689C121.282 75.5629 120.349 75.543 119.44 75.7105C118.532 75.878 117.667 76.2295 116.899 76.7432C115.205 77.8523 114.19 79.434 113.805 81.4159C113.733 81.8271 113.702 82.2441 113.71 82.6613C113.71 86.1611 113.71 89.6619 113.71 93.1637C113.71 94.6425 113.079 95.7733 111.787 96.5069C111.322 96.7692 110.8 96.9159 110.267 96.9346C109.78 96.97 109.291 96.9057 108.83 96.7456C108.369 96.5856 107.945 96.3332 107.585 96.0038C107.239 95.7026 106.956 95.3352 106.754 94.9231C106.552 94.5111 106.434 94.0627 106.407 93.6044C106.394 93.4087 106.407 93.2101 106.407 93.0129C106.407 89.6522 106.407 86.2902 106.407 82.9281C106.424 82.2912 106.359 81.6547 106.213 81.0346C105.436 78.164 103.604 76.3387 100.695 75.7385C98.5714 75.3036 96.606 75.824 94.9087 77.2245C93.5752 78.3249 92.7882 79.7443 92.4621 81.429C92.3886 81.8633 92.357 82.3036 92.3679 82.7439C92.3679 86.2322 92.3679 89.7218 92.3679 93.2115C92.3679 94.8063 91.4258 96.23 89.9256 96.7374C88.6849 97.1579 87.5022 96.9839 86.447 96.1778C85.9872 95.8385 85.6193 95.3898 85.3766 94.8723C85.1339 94.3549 85.024 93.785 85.057 93.2144C85.057 91.3355 85.057 89.4575 85.057 87.5805C85.057 85.7711 85.0397 83.9632 85.057 82.1553C85.0875 79.5921 85.8499 77.239 87.1833 75.0629C87.8361 73.9923 88.633 73.0166 89.5517 72.1633C91.4481 70.3716 93.8017 69.1375 96.3538 68.5968C97.4479 68.3545 98.5671 68.2445 99.6874 68.2691C101.586 68.3137 103.456 68.7349 105.19 69.5084C106.924 70.282 108.487 71.3923 109.788 72.7751C109.822 72.8071 109.854 72.841 109.884 72.8766C109.988 73.0071 110.077 72.9998 110.194 72.8766C110.557 72.5025 110.919 72.1328 111.32 71.7921C113.143 70.2 115.341 69.0996 117.708 68.5953C118.802 68.3536 119.921 68.2441 121.042 68.2691C122.98 68.3159 124.889 68.755 126.653 69.5598C128.417 70.3646 130 71.5186 131.306 72.952C132.82 74.5936 133.922 76.5727 134.518 78.7251C134.77 79.6384 134.936 80.5732 135.014 81.5174C135.056 81.9929 135.059 82.4656 135.06 82.9382C135.066 86.3481 135.068 89.7566 135.065 93.1637Z" fill="#D9D9D9"/>
<path d="M43.6812 81.316C43.6812 74.2458 43.6812 67.1751 43.6812 60.1039C43.6812 59.8951 43.6812 59.6864 43.6812 59.4776C43.6807 59.2692 43.6539 59.0617 43.6015 58.86C43.3873 57.9872 42.8603 57.2235 42.1204 56.7137C41.3806 56.2039 40.4793 55.9836 39.5878 56.0944C38.6963 56.2053 37.8764 56.6397 37.2839 57.3152C36.6913 57.9907 36.3673 58.8602 36.3733 59.7589C36.3733 63.0393 36.3733 66.3197 36.3733 69.6001V70.0815C35.9558 69.8799 35.5964 69.7002 35.2326 69.532C33.5216 68.7562 31.6736 68.328 29.7958 68.2721C28.7429 68.2374 27.6894 68.3245 26.6564 68.5316C24.785 68.8833 23.0047 69.6124 21.424 70.6744C19.7407 71.7966 18.3125 73.2608 17.2323 74.9716C15.8482 77.1536 15.1524 79.5458 15.0118 82.1119C14.968 83.1324 15.0459 84.1544 15.2437 85.1565C15.6965 87.7019 16.8368 90.0748 18.5412 92.0184C19.7236 93.3766 21.1491 94.502 22.7445 95.337C24.3824 96.2075 26.1795 96.7371 28.0276 96.8941C29.1821 96.9996 30.345 96.9665 31.4917 96.7955C34.7618 96.3077 37.7616 94.7003 39.9794 92.2475C40.7582 91.3898 41.4325 90.4427 41.9883 89.4262C43.2116 87.1804 43.7276 84.7621 43.7276 82.2192C43.729 81.9162 43.6812 81.619 43.6812 81.316ZM29.332 89.6262C25.4505 89.6117 22.3488 86.3323 22.3589 82.5889C22.3691 78.8455 25.5476 75.5284 29.39 75.6298C33.1875 75.5719 36.3863 78.7687 36.3791 82.6324C36.3642 84.4932 35.6144 86.2727 34.2932 87.5828C32.972 88.8929 31.1866 89.6274 29.3262 89.6262H29.332Z" fill="#D9D9D9"/>
<path d="M80.7904 80.0546C80.7099 80.345 80.6017 80.6271 80.4672 80.8969C79.3396 83.1296 78.2714 85.3913 77.0611 87.5834C76.3596 88.8505 75.6465 90.1133 74.758 91.263C72.3703 94.3559 69.2521 96.2353 65.4035 96.9013C64.8899 96.9921 64.3708 97.0483 63.8497 97.0694H62.1684C58.6382 96.8688 55.2987 95.4018 52.7623 92.9375C50.2259 90.4733 48.6627 87.177 48.3594 83.6532C48.0561 80.1294 49.033 76.6144 51.1109 73.7527C53.1889 70.8911 56.2286 68.8747 59.6725 68.0734C62.5832 67.3878 65.6349 67.6245 68.4052 68.7504C69.3291 69.1022 70.1655 69.6508 70.8562 70.3583C71.633 71.1658 71.949 72.1401 71.9099 73.2434C71.886 73.5095 71.8256 73.771 71.7302 74.0205C71.47 74.801 71.1422 75.5573 70.7504 76.2807C69.8155 78.0654 68.8661 79.8443 67.9312 81.629C67.5327 82.3873 67.1703 83.1644 66.734 83.9038C66.4072 84.4622 65.9254 84.9138 65.347 85.2038C64.7687 85.4939 64.1187 85.6098 63.4757 85.5377C62.064 85.3478 60.9929 84.4286 60.6277 83.0846C60.5076 82.671 60.4725 82.2373 60.5246 81.8097C60.5767 81.3821 60.7148 80.9695 60.9306 80.5968C61.6785 79.276 62.3612 77.9219 63.083 76.5881C63.3323 76.1299 63.5743 75.6689 63.8251 75.2108C63.8841 75.1174 63.9196 75.0111 63.9284 74.901C63.9373 74.7909 63.9192 74.6802 63.8758 74.5786C63.7526 74.3003 63.5236 74.209 63.2293 74.2046C61.8192 74.1606 60.4232 74.4977 59.1884 75.1803C56.8258 76.5054 55.3953 78.5149 55.0039 81.1984C54.3271 85.8378 57.6491 89.7059 61.6886 90.4003C64.557 90.8933 68.0892 89.9002 69.988 86.4859C71.1475 84.3895 72.2432 82.2539 73.3665 80.1357C73.8173 79.2862 74.2594 78.4322 74.7145 77.5855C75.3957 76.3213 76.777 75.6718 78.238 75.9183C79.5642 76.143 80.66 77.2666 80.9006 78.6178C80.9758 79.0988 80.9381 79.5907 80.7904 80.0546Z" fill="#D9D9D9"/>
</svg>
